<svg xmlns="http://www.w3.org/2000/svg" xmlns:xlink="http://www.w3.org/1999/xlink" contentStyleType="text/css" height="689px" preserveAspectRatio="none" style="width:600px;height:689px;background:#FFFFFF;" version="1.1" viewBox="0 0 600 689" width="600px" zoomAndPan="magnify"><defs/><g><rect fill="none" height="467.3359" style="stroke:#000000;stroke-width:1.5;" width="583.3235" x="10" y="111.5625"/><line style="stroke:#181818;stroke-width:0.5;stroke-dasharray:5.0,5.0;" x1="63" x2="63" y1="36.2969" y2="654.1641"/><line style="stroke:#181818;stroke-width:0.5;stroke-dasharray:5.0,5.0;" x1="216.6581" x2="216.6581" y1="36.2969" y2="654.1641"/><rect fill="#E2E2F0" height="30.2969" rx="2.5" ry="2.5" style="stroke:#181818;stroke-width:0.5;" width="86.3311" x="20" y="5"/><text fill="#000000" font-family="sans-serif" font-size="14" lengthAdjust="spacing" textLength="72.3311" x="27" y="24.9951">Client App</text><rect fill="#E2E2F0" height="30.2969" rx="2.5" ry="2.5" style="stroke:#181818;stroke-width:0.5;" width="86.3311" x="20" y="653.1641"/><text fill="#000000" font-family="sans-serif" font-size="14" lengthAdjust="spacing" textLength="72.3311" x="27" y="673.1592">Client App</text><rect fill="#E2E2F0" height="30.2969" rx="2.5" ry="2.5" style="stroke:#181818;stroke-width:0.5;" width="91.376" x="171.6581" y="5"/><text fill="#000000" font-family="sans-serif" font-size="14" lengthAdjust="spacing" textLength="77.376" x="178.6581" y="24.9951">TAS Server</text><rect fill="#E2E2F0" height="30.2969" rx="2.5" ry="2.5" style="stroke:#181818;stroke-width:0.5;" width="91.376" x="171.6581" y="653.1641"/><text fill="#000000" font-family="sans-serif" font-size="14" lengthAdjust="spacing" textLength="77.376" x="178.6581" y="673.1592">TAS Server</text><line style="stroke:#181818;stroke-width:1.0;" x1="215.3461" x2="205.3461" y1="67.4297" y2="63.4297"/><line style="stroke:#181818;stroke-width:1.0;" x1="215.3461" x2="205.3461" y1="67.4297" y2="71.4297"/><line style="stroke:#181818;stroke-width:1.0;" x1="63.1655" x2="216.3461" y1="67.4297" y2="67.4297"/><text fill="#000000" font-family="sans-serif" font-size="13" lengthAdjust="spacing" textLength="101.3952" x="70.1655" y="62.3638">PII &#46321;&#47197; &#50836;&#52397; (PII)</text><line style="stroke:#181818;stroke-width:1.0;" x1="64.1655" x2="74.1655" y1="96.5625" y2="92.5625"/><line style="stroke:#181818;stroke-width:1.0;" x1="64.1655" x2="74.1655" y1="96.5625" y2="100.5625"/><line style="stroke:#181818;stroke-width:1.0;stroke-dasharray:2.0,2.0;" x1="63.1655" x2="216.3461" y1="96.5625" y2="96.5625"/><text fill="#000000" font-family="sans-serif" font-size="13" lengthAdjust="spacing" textLength="130.1806" x="80.1655" y="91.4966">&#44208;&#44284; &#51204;&#45804; (&#44592;&#46321;&#47197; &#50668;&#48512;)</text><path d="M10,111.5625 L74.4429,111.5625 L74.4429,118.6953 L64.4429,128.6953 L10,128.6953 L10,111.5625 " fill="#EEEEEE" style="stroke:#000000;stroke-width:1.5;"/><rect fill="none" height="467.3359" style="stroke:#000000;stroke-width:1.5;" width="583.3235" x="10" y="111.5625"/><text fill="#000000" font-family="sans-serif" font-size="13" font-weight="bold" lengthAdjust="spacing" textLength="19.4429" x="25" y="124.6294">alt</text><text fill="#000000" font-family="sans-serif" font-size="11" font-weight="bold" lengthAdjust="spacing" textLength="122.7426" x="89.4429" y="123.7729">[&#44592;&#51316; &#50900;&#47131; &#49324;&#50857;&#54616;&#45716; &#44221;&#50864;]</text><line style="stroke:#181818;stroke-width:1.0;" x1="215.3461" x2="205.3461" y1="149.8281" y2="145.8281"/><line style="stroke:#181818;stroke-width:1.0;" x1="215.3461" x2="205.3461" y1="149.8281" y2="153.8281"/><line style="stroke:#181818;stroke-width:1.0;" x1="63.1655" x2="216.3461" y1="149.8281" y2="149.8281"/><text fill="#000000" font-family="sans-serif" font-size="13" lengthAdjust="spacing" textLength="108.077" x="70.1655" y="144.7622">&#44592;&#51316; &#50900;&#47131; &#49324;&#50857; &#50836;&#52397;</text><path d="M222,162.8281 L222,187.8281 L583,187.8281 L583,172.8281 L573,162.8281 L222,162.8281 " fill="#FEFFDD" style="stroke:#181818;stroke-width:0.5;"/><path d="M573,162.8281 L573,172.8281 L583,172.8281 L573,162.8281 " fill="#FEFFDD" style="stroke:#181818;stroke-width:0.5;"/><text fill="#000000" font-family="sans-serif" font-size="13" lengthAdjust="spacing" textLength="340.3235" x="228" y="179.895">&#44592;&#51316; &#45800;&#47568;&#44284; &#45796;&#47480; &#45800;&#47568;&#51064; &#44221;&#50864;&#50640;&#45716; &#44592;&#51316; &#50900;&#47131;&#51012; &#49324;&#50857;&#54624; &#49688; &#50630;&#45796;.</text><line style="stroke:#181818;stroke-width:1.0;" x1="217.3461" x2="259.3461" y1="214.0938" y2="214.0938"/><line style="stroke:#181818;stroke-width:1.0;" x1="259.3461" x2="259.3461" y1="214.0938" y2="227.0938"/><line style="stroke:#181818;stroke-width:1.0;" x1="218.3461" x2="259.3461" y1="227.0938" y2="227.0938"/><polygon fill="#181818" points="228.3461,223.0938,218.3461,227.0938,228.3461,231.0938,224.3461,227.0938" style="stroke:#181818;stroke-width:1.0;"/><text fill="#000000" font-family="sans-serif" font-size="13" lengthAdjust="spacing" textLength="122.3529" x="224.3461" y="209.0278">&#51221;&#48372; &#44081;&#49888; (&#49324;&#50857;&#51088;, &#50545;)</text><line style="stroke:#181818;stroke-width:1.0;" x1="64.1655" x2="74.1655" y1="256.2266" y2="252.2266"/><line style="stroke:#181818;stroke-width:1.0;" x1="64.1655" x2="74.1655" y1="256.2266" y2="260.2266"/><line style="stroke:#181818;stroke-width:1.0;stroke-dasharray:2.0,2.0;" x1="63.1655" x2="216.3461" y1="256.2266" y2="256.2266"/><text fill="#000000" font-family="sans-serif" font-size="13" lengthAdjust="spacing" textLength="18.7573" x="80.1655" y="251.1606">OK</text><line style="stroke:#000000;stroke-width:1.0;stroke-dasharray:2.0,2.0;" x1="10" x2="593.3235" y1="265.2266" y2="265.2266"/><text fill="#000000" font-family="sans-serif" font-size="11" font-weight="bold" lengthAdjust="spacing" textLength="196.2438" x="15" y="275.437">[&#49352;&#47196;&#50868; &#50900;&#47131; &#46321;&#47197;&#54616;&#45716; &#44221;&#50864; (1&#51064; 1&#45800;&#47568;)]</text><line style="stroke:#181818;stroke-width:1.0;" x1="215.3461" x2="205.3461" y1="300.1641" y2="296.1641"/><line style="stroke:#181818;stroke-width:1.0;" x1="215.3461" x2="205.3461" y1="300.1641" y2="304.1641"/><line style="stroke:#181818;stroke-width:1.0;" x1="63.1655" x2="216.3461" y1="300.1641" y2="300.1641"/><text fill="#000000" font-family="sans-serif" font-size="13" lengthAdjust="spacing" textLength="105.0705" x="70.1655" y="295.0981">DIDDoc &#46321;&#47197; &#50836;&#52397;</text><line style="stroke:#181818;stroke-width:1.0;" x1="217.3461" x2="259.3461" y1="329.2969" y2="329.2969"/><line style="stroke:#181818;stroke-width:1.0;" x1="259.3461" x2="259.3461" y1="329.2969" y2="342.2969"/><line style="stroke:#181818;stroke-width:1.0;" x1="218.3461" x2="259.3461" y1="342.2969" y2="342.2969"/><polygon fill="#181818" points="228.3461,338.2969,218.3461,342.2969,228.3461,346.2969,224.3461,342.2969" style="stroke:#181818;stroke-width:1.0;"/><text fill="#000000" font-family="sans-serif" font-size="13" lengthAdjust="spacing" textLength="257.2922" x="224.3461" y="324.231">&#44592;&#46321;&#47197; &#49324;&#50857;&#51088;&#51064; &#44221;&#50864; &#44592;&#51316; &#50900;&#47131;, DIDDoc &#54224;&#44592;</text><line style="stroke:#181818;stroke-width:1.0;" x1="217.3461" x2="259.3461" y1="371.4297" y2="371.4297"/><line style="stroke:#181818;stroke-width:1.0;" x1="259.3461" x2="259.3461" y1="371.4297" y2="384.4297"/><line style="stroke:#181818;stroke-width:1.0;" x1="218.3461" x2="259.3461" y1="384.4297" y2="384.4297"/><polygon fill="#181818" points="228.3461,380.4297,218.3461,384.4297,228.3461,388.4297,224.3461,384.4297" style="stroke:#181818;stroke-width:1.0;"/><text fill="#000000" font-family="sans-serif" font-size="13" lengthAdjust="spacing" textLength="154.5376" x="224.3461" y="366.3638">&#51221;&#48372; &#44081;&#49888; (&#49324;&#50857;&#51088;, &#50900;&#47131;, &#50545;)</text><line style="stroke:#181818;stroke-width:1.0;" x1="64.1655" x2="74.1655" y1="413.5625" y2="409.5625"/><line style="stroke:#181818;stroke-width:1.0;" x1="64.1655" x2="74.1655" y1="413.5625" y2="417.5625"/><line style="stroke:#181818;stroke-width:1.0;stroke-dasharray:2.0,2.0;" x1="63.1655" x2="216.3461" y1="413.5625" y2="413.5625"/><text fill="#000000" font-family="sans-serif" font-size="13" lengthAdjust="spacing" textLength="18.7573" x="80.1655" y="408.4966">OK</text><line style="stroke:#000000;stroke-width:1.0;stroke-dasharray:2.0,2.0;" x1="10" x2="593.3235" y1="422.5625" y2="422.5625"/><text fill="#000000" font-family="sans-serif" font-size="11" font-weight="bold" lengthAdjust="spacing" textLength="198.7099" x="15" y="432.7729">[&#49352;&#47196;&#50868; &#50900;&#47131; &#46321;&#47197;&#54616;&#45716; &#44221;&#50864; (1&#51064; &#45796;&#45800;&#47568;)]</text><line style="stroke:#181818;stroke-width:1.0;" x1="215.3461" x2="205.3461" y1="457.5" y2="453.5"/><line style="stroke:#181818;stroke-width:1.0;" x1="215.3461" x2="205.3461" y1="457.5" y2="461.5"/><line style="stroke:#181818;stroke-width:1.0;" x1="63.1655" x2="216.3461" y1="457.5" y2="457.5"/><text fill="#000000" font-family="sans-serif" font-size="13" lengthAdjust="spacing" textLength="105.0705" x="70.1655" y="452.4341">DIDDoc &#46321;&#47197; &#50836;&#52397;</text><line style="stroke:#181818;stroke-width:1.0;" x1="217.3461" x2="259.3461" y1="486.6328" y2="486.6328"/><line style="stroke:#181818;stroke-width:1.0;" x1="259.3461" x2="259.3461" y1="486.6328" y2="499.6328"/><line style="stroke:#181818;stroke-width:1.0;" x1="218.3461" x2="259.3461" y1="499.6328" y2="499.6328"/><polygon fill="#181818" points="228.3461,495.6328,218.3461,499.6328,228.3461,503.6328,224.3461,499.6328" style="stroke:#181818;stroke-width:1.0;"/><text fill="#000000" font-family="sans-serif" font-size="13" lengthAdjust="spacing" textLength="257.2922" x="224.3461" y="481.5669">&#44592;&#46321;&#47197; &#49324;&#50857;&#51088;&#51064; &#44221;&#50864; &#44592;&#51316; &#50900;&#47131;, DIDDoc &#54224;&#44592;</text><line style="stroke:#181818;stroke-width:1.0;" x1="217.3461" x2="259.3461" y1="528.7656" y2="528.7656"/><line style="stroke:#181818;stroke-width:1.0;" x1="259.3461" x2="259.3461" y1="528.7656" y2="541.7656"/><line style="stroke:#181818;stroke-width:1.0;" x1="218.3461" x2="259.3461" y1="541.7656" y2="541.7656"/><polygon fill="#181818" points="228.3461,537.7656,218.3461,541.7656,228.3461,545.7656,224.3461,541.7656" style="stroke:#181818;stroke-width:1.0;"/><text fill="#000000" font-family="sans-serif" font-size="13" lengthAdjust="spacing" textLength="154.5376" x="224.3461" y="523.6997">&#51221;&#48372; &#44081;&#49888; (&#49324;&#50857;&#51088;, &#50900;&#47131;, &#50545;)</text><line style="stroke:#181818;stroke-width:1.0;" x1="64.1655" x2="74.1655" y1="570.8984" y2="566.8984"/><line style="stroke:#181818;stroke-width:1.0;" x1="64.1655" x2="74.1655" y1="570.8984" y2="574.8984"/><line style="stroke:#181818;stroke-width:1.0;stroke-dasharray:2.0,2.0;" x1="63.1655" x2="216.3461" y1="570.8984" y2="570.8984"/><text fill="#000000" font-family="sans-serif" font-size="13" lengthAdjust="spacing" textLength="18.7573" x="80.1655" y="565.8325">OK</text><line style="stroke:#181818;stroke-width:1.0;" x1="215.3461" x2="205.3461" y1="607.0313" y2="603.0313"/><line style="stroke:#181818;stroke-width:1.0;" x1="215.3461" x2="205.3461" y1="607.0313" y2="611.0313"/><line style="stroke:#181818;stroke-width:1.0;" x1="63.1655" x2="216.3461" y1="607.0313" y2="607.0313"/><text fill="#000000" font-family="sans-serif" font-size="13" lengthAdjust="spacing" textLength="51.9724" x="70.1655" y="601.9653">&#54869;&#51064; &#50836;&#52397;</text><line style="stroke:#181818;stroke-width:1.0;" x1="64.1655" x2="74.1655" y1="636.1641" y2="632.1641"/><line style="stroke:#181818;stroke-width:1.0;" x1="64.1655" x2="74.1655" y1="636.1641" y2="640.1641"/><line style="stroke:#181818;stroke-width:1.0;stroke-dasharray:2.0,2.0;" x1="63.1655" x2="216.3461" y1="636.1641" y2="636.1641"/><text fill="#000000" font-family="sans-serif" font-size="13" lengthAdjust="spacing" textLength="18.7573" x="80.1655" y="631.0981">OK</text><!--SRC=[pLFBIiDG4DtdAuQk4cY5Rhie5Bi9BXJg3uGQDL2QInfSYnOfPc70XDRKIWgA2XNI1zA5_b3kz1-yDqsQndPJS65sTywScNFE4A8OfbRNYD8qGI44b1RazXkQofuLGd82MSDD1dByk5A3ccfSg4PE43YfK2v7O0cEP1de_PWE1u2UWvCF45b94ZXQu6sylGJX90YdNu1-creZ4CDva92w8_fvAR6n3HDO6OSpmBv3_JxWrGYzzuNRexSE6_2DNY00-x82jd5YAL5tKpTLCBIpSnFqqoo7Mc_qrUQwgFLCN-Pn0GVpU1rsxMZt-WeSj5VAVC1EZrcuOVozQ5jaEv66lakdCmY3CLe-Y4iMFjbvG7SifVrfJ8S7WjfegO3N7JfyH6_bQvbM9WiGYrnfSIbQsX9DLQvMzNhsF9igrswH24mJo7hF9oCNTpO3Td8S3_X3v_nektl_h-QR9xz_hSM3oxN4sZSeFm00]--></g></svg>