<?xml version="1.0" encoding="UTF-8"?><svg xmlns="http://www.w3.org/2000/svg" xmlns:xlink="http://www.w3.org/1999/xlink" fill-opacity="1" color-rendering="auto" color-interpolation="auto" text-rendering="auto" stroke="black" stroke-linecap="square" width="873" stroke-miterlimit="10" shape-rendering="auto" stroke-opacity="1" fill="black" stroke-dasharray="none" font-weight="normal" stroke-width="1" height="397" font-family="'Dialog'" font-style="normal" stroke-linejoin="miter" font-size="12px" stroke-dashoffset="0" image-rendering="auto">
  <!--Generated by ySVG 2.6-->
  <defs id="genericDefs"/>
  <g>
    <defs id="defs1">
      <clipPath clipPathUnits="userSpaceOnUse" id="clipPath1">
        <path d="M0 0 L873 0 L873 397 L0 397 L0 0 Z"/>
      </clipPath>
      <clipPath clipPathUnits="userSpaceOnUse" id="clipPath2">
        <path d="M349 179 L1222 179 L1222 576 L349 576 L349 179 Z"/>
      </clipPath>
    </defs>
    <g fill="white" text-rendering="geometricPrecision" shape-rendering="geometricPrecision" transform="translate(-349,-179)" stroke="white">
      <rect x="349" width="873" height="397" y="179" clip-path="url(#clipPath2)" stroke="none"/>
    </g>
    <g text-rendering="geometricPrecision" stroke-miterlimit="1.45" shape-rendering="geometricPrecision" transform="matrix(1,0,0,1,-349,-179)" stroke-linecap="butt">
      <rect fill="none" x="606.816" width="496" height="54.576" y="194.976" clip-path="url(#clipPath2)"/>
      <text x="823.7964" xml:space="preserve" y="226.7992" clip-path="url(#clipPath2)" font-family="sans-serif" stroke="none">Blockchain</text>
    </g>
    <g fill="rgb(204,204,204)" text-rendering="geometricPrecision" shape-rendering="geometricPrecision" transform="matrix(1,0,0,1,-349,-179)" stroke="rgb(204,204,204)">
      <rect x="932.24" width="103.216" height="54.576" y="411.304" clip-path="url(#clipPath2)" stroke="none"/>
    </g>
    <g text-rendering="geometricPrecision" stroke-miterlimit="1.45" shape-rendering="geometricPrecision" transform="matrix(1,0,0,1,-349,-179)" stroke-linecap="butt">
      <rect fill="none" x="932.24" width="103.216" height="54.576" y="411.304" clip-path="url(#clipPath2)"/>
      <text x="980.3969" xml:space="preserve" y="443.1272" clip-path="url(#clipPath2)" font-family="sans-serif" stroke="none">B</text>
      <rect fill="none" x="637.536" width="103.216" height="54.576" y="411.304" clip-path="url(#clipPath2)"/>
      <text x="682.517" xml:space="preserve" y="443.1272" clip-path="url(#clipPath2)" font-family="sans-serif" stroke="none">aa</text>
      <path fill="none" d="M1021.448 304.908 L1045.52 304.908 L1045.52 319.908 L1060.52 319.908 L1060.52 355.948 L1021.448 355.948 Z" clip-path="url(#clipPath2)"/>
      <path fill="none" d="M1045.52 304.908 L1045.52 319.908 L1060.52 319.908 Z" clip-path="url(#clipPath2)" fill-rule="evenodd"/>
      <text x="1007.968" xml:space="preserve" y="292.1512" clip-path="url(#clipPath2)" font-family="sans-serif" stroke="none">A's DID Doc 조회</text>
      <path fill="none" d="M784.096 273.952 L873.896 273.952 L873.896 288.952 L888.896 288.952 L888.896 343.952 L784.096 343.952 Z" clip-path="url(#clipPath2)"/>
      <path fill="none" d="M873.896 273.952 L873.896 288.952 L888.896 288.952 Z" clip-path="url(#clipPath2)" fill-rule="evenodd"/>
      <text x="785.8798" xml:space="preserve" y="292.2879" clip-path="url(#clipPath2)" font-family="sans-serif" stroke="none">Data</text>
      <text x="785.8798" xml:space="preserve" y="306.4207" clip-path="url(#clipPath2)" font-family="sans-serif" stroke="none">Proof:</text>
      <text x="785.8798" xml:space="preserve" y="320.5536" clip-path="url(#clipPath2)" font-family="sans-serif" stroke="none">   aa`s Public Key</text>
      <text x="785.8798" xml:space="preserve" y="334.6864" clip-path="url(#clipPath2)" font-family="sans-serif" stroke="none">   aa`s Sign</text>
      <rect fill="none" x="364.856" width="103.216" height="54.576" y="411.304" clip-path="url(#clipPath2)"/>
      <text x="412.3243" xml:space="preserve" y="443.1272" clip-path="url(#clipPath2)" font-family="sans-serif" stroke="none">A</text>
      <rect fill="none" x="636.744" width="104.8" height="76.176" y="483.88" clip-path="url(#clipPath2)"/>
      <text x="640.8393" xml:space="preserve" y="505.3039" clip-path="url(#clipPath2)" font-family="sans-serif" stroke="none">aa's 인증서:</text>
      <text x="640.8393" xml:space="preserve" y="519.4368" clip-path="url(#clipPath2)" font-family="sans-serif" stroke="none">   aa's 정보</text>
      <text x="640.8393" xml:space="preserve" y="533.5696" clip-path="url(#clipPath2)" font-family="sans-serif" stroke="none">   aa's Public Key</text>
      <text x="640.8393" xml:space="preserve" y="547.7024" clip-path="url(#clipPath2)" font-family="sans-serif" stroke="none">   A's Sign</text>
    </g>
    <g fill="rgb(255,204,0)" text-rendering="geometricPrecision" shape-rendering="geometricPrecision" transform="matrix(1,0,0,1,-349,-179)" stroke="rgb(255,204,0)">
      <path d="M728.544 505.08 L731.004 501.1408 L735.6454 500.98 L733.464 496.88 L735.6454 492.78 L731.004 492.6191 L728.544 488.68 L726.084 492.6191 L721.4426 492.78 L723.624 496.88 L721.4426 500.98 L726.084 501.1408 Z" fill-rule="evenodd" clip-path="url(#clipPath2)" stroke="none"/>
    </g>
    <g text-rendering="geometricPrecision" stroke-miterlimit="1.45" shape-rendering="geometricPrecision" transform="matrix(1,0,0,1,-349,-179)" stroke-linecap="butt">
      <path fill="none" d="M728.544 505.08 L731.004 501.1408 L735.6454 500.98 L733.464 496.88 L735.6454 492.78 L731.004 492.6191 L728.544 488.68 L726.084 492.6191 L721.4426 492.78 L723.624 496.88 L721.4426 500.98 L726.084 501.1408 Z" fill-rule="evenodd" clip-path="url(#clipPath2)"/>
      <rect fill="none" x="784.096" width="104.8" height="76.176" y="354.28" clip-path="url(#clipPath2)"/>
      <text x="788.1913" xml:space="preserve" y="375.7039" clip-path="url(#clipPath2)" font-family="sans-serif" stroke="none">aa's 인증서:</text>
      <text x="788.1913" xml:space="preserve" y="389.8368" clip-path="url(#clipPath2)" font-family="sans-serif" stroke="none">   aa's 정보</text>
      <text x="788.1913" xml:space="preserve" y="403.9696" clip-path="url(#clipPath2)" font-family="sans-serif" stroke="none">   aa's Public Key</text>
      <text x="788.1913" xml:space="preserve" y="418.1024" clip-path="url(#clipPath2)" font-family="sans-serif" stroke="none">   A's Sign</text>
    </g>
    <g fill="rgb(255,204,0)" text-rendering="geometricPrecision" shape-rendering="geometricPrecision" transform="matrix(1,0,0,1,-349,-179)" stroke="rgb(255,204,0)">
      <path d="M875.896 375.48 L878.356 371.5408 L882.9974 371.38 L880.816 367.28 L882.9974 363.18 L878.356 363.0192 L875.896 359.08 L873.436 363.0192 L868.7946 363.18 L870.976 367.28 L868.7946 371.38 L873.436 371.5408 Z" fill-rule="evenodd" clip-path="url(#clipPath2)" stroke="none"/>
    </g>
    <g text-rendering="geometricPrecision" stroke-miterlimit="1.45" shape-rendering="geometricPrecision" transform="matrix(1,0,0,1,-349,-179)" stroke-linecap="butt">
      <path fill="none" d="M875.896 375.48 L878.356 371.5408 L882.9974 371.38 L880.816 367.28 L882.9974 363.18 L878.356 363.0192 L875.896 359.08 L873.436 363.0192 L868.7946 363.18 L870.976 367.28 L868.7946 371.38 L873.436 371.5408 Z" fill-rule="evenodd" clip-path="url(#clipPath2)"/>
      <path fill="none" d="M1000.5563 465.8552 L1000.4678 467.3477 L1001.1058 471.832 L1002.5811 476.0346 L1004.8171 479.8492 L1007.7369 483.1697 L1011.2639 485.8898 L1015.3211 487.9033 L1019.832 489.104 L1024.4918 489.3802 L1028.9761 488.7422 L1033.1786 487.2669 L1036.9933 485.0309 L1040.3137 482.1111 L1043.0338 478.5842 L1045.0474 474.5269 L1046.248 470.016 L1046.5242 465.3562 L1045.8862 460.8719 L1044.4109 456.6694 L1042.1749 452.8547 L1041.4172 451.993 L1041.3373 451.933" clip-path="url(#clipPath2)" stroke="blue"/>
      <path fill="blue" d="M1035.3685 446.6063 L1040.9924 458.3268 L1042.0834 452.5989 L1047.6509 450.8659 Z" clip-path="url(#clipPath2)" stroke="none"/>
      <text x="1052.4703" y="462.2351" clip-path="url(#clipPath2)" fill="blue" font-family="sans-serif" stroke="none" xml:space="preserve">- aa's 인증서의 A's Sign 검증</text>
      <text x="1052.4703" y="476.368" clip-path="url(#clipPath2)" fill="blue" font-family="sans-serif" stroke="none" xml:space="preserve">- aa's Sign 검증</text>
      <path fill="none" d="M983.848 403.304 L983.848 257.5841" clip-path="url(#clipPath2)"/>
      <path d="M983.848 411.304 L988.848 399.304 L983.848 402.304 L978.848 399.304 Z" clip-path="url(#clipPath2)" stroke="none"/>
      <path d="M983.848 249.5841 L978.848 261.5841 L983.848 258.5841 L988.848 261.5841 Z" clip-path="url(#clipPath2)" stroke="none"/>
      <path fill="none" d="M740.752 438.592 L924.24 438.592" clip-path="url(#clipPath2)"/>
      <path d="M932.24 438.592 L920.24 433.592 L923.24 438.592 L920.24 443.592 Z" clip-path="url(#clipPath2)" stroke="none"/>
      <path fill="none" d="M468.072 438.592 L629.536 438.592" clip-path="url(#clipPath2)"/>
      <path d="M637.536 438.592 L625.536 433.592 L628.536 438.592 L625.536 443.592 Z" clip-path="url(#clipPath2)" stroke="none"/>
      <text x="511.1441" xml:space="preserve" y="429.1272" clip-path="url(#clipPath2)" font-family="sans-serif" stroke="none">aa's 인증서 전달</text>
      <path fill="none" stroke-dasharray="6,2" d="M689.144 465.88 L689.144 483.88" clip-path="url(#clipPath2)"/>
      <path fill="none" stroke-dasharray="6,2" d="M836.496 343.9395 L836.496 354.28" clip-path="url(#clipPath2)"/>
    </g>
  </g>
</svg>
