<?xml version="1.0" encoding="UTF-8"?><svg xmlns="http://www.w3.org/2000/svg" xmlns:xlink="http://www.w3.org/1999/xlink" fill-opacity="1" color-rendering="auto" color-interpolation="auto" text-rendering="auto" stroke="black" stroke-linecap="square" width="1069" stroke-miterlimit="10" shape-rendering="auto" stroke-opacity="1" fill="black" stroke-dasharray="none" font-weight="normal" stroke-width="1" height="448" font-family="'Dialog'" font-style="normal" stroke-linejoin="miter" font-size="12px" stroke-dashoffset="0" image-rendering="auto">
  <!--Generated by ySVG 2.6-->
  <defs id="genericDefs"/>
  <g>
    <defs id="defs1">
      <clipPath clipPathUnits="userSpaceOnUse" id="clipPath1">
        <path d="M0 0 L1069 0 L1069 448 L0 448 L0 0 Z"/>
      </clipPath>
      <clipPath clipPathUnits="userSpaceOnUse" id="clipPath2">
        <path d="M276 284 L1345 284 L1345 732 L276 732 L276 284 Z"/>
      </clipPath>
    </defs>
    <g fill="white" text-rendering="geometricPrecision" shape-rendering="geometricPrecision" transform="translate(-276,-284)" stroke="white">
      <rect x="276" width="1069" height="448" y="284" clip-path="url(#clipPath2)" stroke="none"/>
    </g>
    <g text-rendering="geometricPrecision" stroke-miterlimit="1.45" shape-rendering="geometricPrecision" transform="matrix(1,0,0,1,-276,-284)" stroke-linecap="butt">
      <rect fill="none" x="464.624" width="103.216" height="254.576" y="462.0991" clip-path="url(#clipPath2)"/>
      <text x="512.0923" xml:space="preserve" y="593.9222" clip-path="url(#clipPath2)" font-family="sans-serif" stroke="none">A</text>
      <rect fill="none" x="409.704" width="849" height="54.576" y="299.799" clip-path="url(#clipPath2)"/>
      <text x="803.1844" xml:space="preserve" y="331.6222" clip-path="url(#clipPath2)" font-family="sans-serif" stroke="none">Blockchain</text>
      <rect x="328.248" y="562.7748" clip-path="url(#clipPath2)" fill="none" width="119.216" height="119.576" stroke="red"/>
      <text x="337.0123" y="605.8987" clip-path="url(#clipPath2)" fill="red" font-family="sans-serif" stroke="none" xml:space="preserve">해당 DID가</text>
      <text x="337.0123" y="620.0316" clip-path="url(#clipPath2)" fill="red" font-family="sans-serif" stroke="none" xml:space="preserve">연결을 요청한 DID가</text>
      <text x="337.0123" y="634.1644" clip-path="url(#clipPath2)" fill="red" font-family="sans-serif" stroke="none" xml:space="preserve">아님을 확인 </text>
      <text x="337.0123" y="648.2972" clip-path="url(#clipPath2)" fill="red" font-family="sans-serif" stroke="none" xml:space="preserve">  =&gt; DH 수행 X</text>
    </g>
    <g fill="rgb(255,204,204)" text-rendering="geometricPrecision" shape-rendering="geometricPrecision" transform="matrix(1,0,0,1,-276,-284)" stroke="rgb(255,204,204)">
      <path d="M453.624 389.0591 L473.696 389.0591 L473.696 404.0591 L488.696 404.0591 L488.696 432.0991 L453.624 432.0991 Z" stroke="none" clip-path="url(#clipPath2)"/>
      <path fill="white" d="M473.696 389.0591 L473.696 404.0591 L488.696 404.0591 Z" clip-path="url(#clipPath2)" fill-rule="evenodd" stroke="none"/>
    </g>
    <g text-rendering="geometricPrecision" stroke-miterlimit="1.45" shape-rendering="geometricPrecision" transform="matrix(1,0,0,1,-276,-284)" stroke-linecap="butt">
      <path fill="none" d="M453.624 389.0591 L473.696 389.0591 L473.696 404.0591 L488.696 404.0591 L488.696 432.0991 L453.624 432.0991 Z" clip-path="url(#clipPath2)"/>
      <path fill="none" d="M473.696 389.0591 L473.696 404.0591 L488.696 404.0591 Z" clip-path="url(#clipPath2)" fill-rule="evenodd"/>
      <text x="417.7665" xml:space="preserve" y="380.5278" clip-path="url(#clipPath2)" font-family="sans-serif" stroke="none">X's DID Doc 조회</text>
    </g>
    <g fill="rgb(204,204,204)" text-rendering="geometricPrecision" shape-rendering="geometricPrecision" transform="matrix(1,0,0,1,-276,-284)" stroke="rgb(204,204,204)">
      <rect x="1056.488" width="103.216" height="254.576" y="462.0991" clip-path="url(#clipPath2)" stroke="none"/>
    </g>
    <g text-rendering="geometricPrecision" stroke-miterlimit="1.45" shape-rendering="geometricPrecision" transform="matrix(1,0,0,1,-276,-284)" stroke-linecap="butt">
      <rect fill="none" x="1056.488" width="103.216" height="254.576" y="462.0991" clip-path="url(#clipPath2)"/>
      <text x="1104.6448" xml:space="preserve" y="593.9222" clip-path="url(#clipPath2)" font-family="sans-serif" stroke="none">B</text>
      <rect x="1180.656" y="559.5496" clip-path="url(#clipPath2)" fill="none" width="119.216" height="119.576" stroke="red"/>
      <text x="1189.4203" y="602.6736" clip-path="url(#clipPath2)" fill="red" font-family="sans-serif" stroke="none" xml:space="preserve">해당 DID가</text>
      <text x="1189.4203" y="616.8064" clip-path="url(#clipPath2)" fill="red" font-family="sans-serif" stroke="none" xml:space="preserve">연결을 요청한 DID가</text>
      <text x="1189.4203" y="630.9392" clip-path="url(#clipPath2)" fill="red" font-family="sans-serif" stroke="none" xml:space="preserve">아님을 확인 </text>
      <text x="1189.4203" y="645.072" clip-path="url(#clipPath2)" fill="red" font-family="sans-serif" stroke="none" xml:space="preserve">  =&gt; DH 수행 X</text>
    </g>
    <g fill="rgb(255,204,204)" text-rendering="geometricPrecision" shape-rendering="geometricPrecision" transform="matrix(1,0,0,1,-276,-284)" stroke="rgb(255,204,204)">
      <path d="M1138.408 389.0591 L1158.48 389.0591 L1158.48 404.0591 L1173.48 404.0591 L1173.48 432.0991 L1138.408 432.0991 Z" stroke="none" clip-path="url(#clipPath2)"/>
      <path fill="white" d="M1158.48 389.0591 L1158.48 404.0591 L1173.48 404.0591 Z" clip-path="url(#clipPath2)" fill-rule="evenodd" stroke="none"/>
    </g>
    <g text-rendering="geometricPrecision" stroke-miterlimit="1.45" shape-rendering="geometricPrecision" transform="matrix(1,0,0,1,-276,-284)" stroke-linecap="butt">
      <path fill="none" d="M1138.408 389.0591 L1158.48 389.0591 L1158.48 404.0591 L1173.48 404.0591 L1173.48 432.0991 L1138.408 432.0991 Z" clip-path="url(#clipPath2)"/>
      <path fill="none" d="M1158.48 389.0591 L1158.48 404.0591 L1173.48 404.0591 Z" clip-path="url(#clipPath2)" fill-rule="evenodd"/>
      <text x="1119.9265" xml:space="preserve" y="380.5278" clip-path="url(#clipPath2)" font-family="sans-serif" stroke="none">X's DID Doc 조회</text>
    </g>
    <g fill="rgb(255,204,204)" text-rendering="geometricPrecision" shape-rendering="geometricPrecision" transform="matrix(1,0,0,1,-276,-284)" stroke="rgb(255,204,204)">
      <rect x="760.556" width="103.216" height="254.576" y="462.0991" clip-path="url(#clipPath2)" stroke="none"/>
    </g>
    <g text-rendering="geometricPrecision" stroke-miterlimit="1.45" shape-rendering="geometricPrecision" transform="matrix(1,0,0,1,-276,-284)" stroke-linecap="butt">
      <rect fill="none" x="760.556" width="103.216" height="254.576" y="462.0991" clip-path="url(#clipPath2)"/>
      <text x="808.4081" xml:space="preserve" y="593.9222" clip-path="url(#clipPath2)" font-family="sans-serif" stroke="none">X</text>
    </g>
    <g fill="rgb(255,204,204)" text-rendering="geometricPrecision" shape-rendering="geometricPrecision" transform="matrix(1,0,0,1,-276,-284)" stroke="rgb(255,204,204)">
      <path d="M899.876 430.962 L1011.948 430.962 L1011.948 445.962 L1026.948 445.962 L1026.948 496.002 L899.876 496.002 Z" stroke="none" clip-path="url(#clipPath2)"/>
      <path fill="white" d="M1011.948 430.962 L1011.948 445.962 L1026.948 445.962 Z" clip-path="url(#clipPath2)" fill-rule="evenodd" stroke="none"/>
    </g>
    <g text-rendering="geometricPrecision" stroke-miterlimit="1.45" shape-rendering="geometricPrecision" transform="matrix(1,0,0,1,-276,-284)" stroke-linecap="butt">
      <path fill="none" d="M899.876 430.962 L1011.948 430.962 L1011.948 445.962 L1026.948 445.962 L1026.948 496.002 L899.876 496.002 Z" clip-path="url(#clipPath2)"/>
      <path fill="none" d="M1011.948 430.962 L1011.948 445.962 L1026.948 445.962 Z" clip-path="url(#clipPath2)" fill-rule="evenodd"/>
      <text x="927.6669" xml:space="preserve" y="446.8179" clip-path="url(#clipPath2)" font-family="sans-serif" stroke="none">X's Key Data</text>
      <text x="927.6669" xml:space="preserve" y="460.9507" clip-path="url(#clipPath2)" font-family="sans-serif" stroke="none">DH Data</text>
      <text x="927.6669" xml:space="preserve" y="475.0836" clip-path="url(#clipPath2)" font-family="sans-serif" stroke="none">Proof:</text>
      <text x="927.6669" xml:space="preserve" y="489.2164" clip-path="url(#clipPath2)" font-family="sans-serif" stroke="none">   X's Sign</text>
    </g>
    <g fill="silver" text-rendering="geometricPrecision" shape-rendering="geometricPrecision" transform="matrix(1,0,0,1,-276,-284)" stroke="silver">
      <path d="M896.594 540.968 L1008.666 540.968 L1008.666 555.968 L1023.666 555.968 L1023.666 606.0079 L896.594 606.0079 Z" stroke="none" clip-path="url(#clipPath2)"/>
      <path fill="white" d="M1008.666 540.968 L1008.666 555.968 L1023.666 555.968 Z" clip-path="url(#clipPath2)" fill-rule="evenodd" stroke="none"/>
    </g>
    <g text-rendering="geometricPrecision" stroke-miterlimit="1.45" shape-rendering="geometricPrecision" transform="matrix(1,0,0,1,-276,-284)" stroke-linecap="butt">
      <path fill="none" d="M896.594 540.968 L1008.666 540.968 L1008.666 555.968 L1023.666 555.968 L1023.666 606.0079 L896.594 606.0079 Z" clip-path="url(#clipPath2)"/>
      <path fill="none" d="M1008.666 540.968 L1008.666 555.968 L1023.666 555.968 Z" clip-path="url(#clipPath2)" fill-rule="evenodd"/>
      <text x="924.6896" xml:space="preserve" y="556.8239" clip-path="url(#clipPath2)" font-family="sans-serif" stroke="none">B's Key Data</text>
      <text x="924.6896" xml:space="preserve" y="570.9567" clip-path="url(#clipPath2)" font-family="sans-serif" stroke="none">DH Data</text>
      <text x="924.6896" xml:space="preserve" y="585.0895" clip-path="url(#clipPath2)" font-family="sans-serif" stroke="none">Proof:</text>
      <text x="924.6896" xml:space="preserve" y="599.2223" clip-path="url(#clipPath2)" font-family="sans-serif" stroke="none">   B's Sign</text>
      <path fill="none" d="M597.38 430.962 L709.452 430.962 L709.452 445.962 L724.452 445.962 L724.452 496.002 L597.38 496.002 Z" clip-path="url(#clipPath2)"/>
      <path fill="none" d="M709.452 430.962 L709.452 445.962 L724.452 445.962 Z" clip-path="url(#clipPath2)" fill-rule="evenodd"/>
      <text x="624.7871" xml:space="preserve" y="446.8179" clip-path="url(#clipPath2)" font-family="sans-serif" stroke="none">A's Key Data</text>
      <text x="624.7871" xml:space="preserve" y="460.9507" clip-path="url(#clipPath2)" font-family="sans-serif" stroke="none">DH Data</text>
      <text x="624.7871" xml:space="preserve" y="475.0836" clip-path="url(#clipPath2)" font-family="sans-serif" stroke="none">Proof:</text>
      <text x="624.7871" xml:space="preserve" y="489.2164" clip-path="url(#clipPath2)" font-family="sans-serif" stroke="none">   A's Sign</text>
    </g>
    <g fill="rgb(255,204,204)" text-rendering="geometricPrecision" shape-rendering="geometricPrecision" transform="matrix(1,0,0,1,-276,-284)" stroke="rgb(255,204,204)">
      <path d="M597.38 540.1 L709.452 540.1 L709.452 555.1 L724.452 555.1 L724.452 605.14 L597.38 605.14 Z" stroke="none" clip-path="url(#clipPath2)"/>
      <path fill="white" d="M709.452 540.1 L709.452 555.1 L724.452 555.1 Z" clip-path="url(#clipPath2)" fill-rule="evenodd" stroke="none"/>
    </g>
    <g text-rendering="geometricPrecision" stroke-miterlimit="1.45" shape-rendering="geometricPrecision" transform="matrix(1,0,0,1,-276,-284)" stroke-linecap="butt">
      <path fill="none" d="M597.38 540.1 L709.452 540.1 L709.452 555.1 L724.452 555.1 L724.452 605.14 L597.38 605.14 Z" clip-path="url(#clipPath2)"/>
      <path fill="none" d="M709.452 540.1 L709.452 555.1 L724.452 555.1 Z" clip-path="url(#clipPath2)" fill-rule="evenodd"/>
      <text x="625.1709" xml:space="preserve" y="555.9559" clip-path="url(#clipPath2)" font-family="sans-serif" stroke="none">X's Key Data</text>
      <text x="625.1709" xml:space="preserve" y="570.0887" clip-path="url(#clipPath2)" font-family="sans-serif" stroke="none">DH Data</text>
      <text x="625.1709" xml:space="preserve" y="584.2216" clip-path="url(#clipPath2)" font-family="sans-serif" stroke="none">Proof:</text>
      <text x="625.1709" xml:space="preserve" y="598.3544" clip-path="url(#clipPath2)" font-family="sans-serif" stroke="none">   X's Sign</text>
      <path fill="none" stroke-dasharray="6,2" d="M464.6497 495.6877 L428.7 495.6877 L428.7 542.7748 L456.6487 542.7748" clip-path="url(#clipPath2)" stroke="gray"/>
      <path fill="gray" stroke-dasharray="6,2" d="M464.6487 542.7748 L452.6487 537.7748 L455.6487 542.7748 L452.6487 547.7748 Z" clip-path="url(#clipPath2)" stroke="none"/>
      <text x="293.2164" y="510.3413" clip-path="url(#clipPath2)" fill="gray" font-family="sans-serif" stroke="none" xml:space="preserve">X's Sign 검증 후 DH 수행</text>
      <path fill="none" d="M516.232 454.0991 L516.232 362.343" clip-path="url(#clipPath2)"/>
      <path d="M516.232 462.0991 L521.232 450.0991 L516.232 453.0991 L511.232 450.0991 Z" clip-path="url(#clipPath2)" stroke="none"/>
      <path d="M516.232 354.343 L511.232 366.343 L516.232 363.343 L521.232 366.343 Z" clip-path="url(#clipPath2)" stroke="none"/>
      <path fill="none" stroke-dasharray="6,2" d="M1159.6827 502.9943 L1190.86 502.9943 L1190.86 546.0222 L1167.7086 546.0222" clip-path="url(#clipPath2)" stroke="gray"/>
      <path fill="gray" stroke-dasharray="6,2" d="M1159.7086 546.0222 L1171.7086 551.0222 L1168.7086 546.0222 L1171.7086 541.0222 Z" clip-path="url(#clipPath2)" stroke="none"/>
      <text x="1197.1063" y="516.9545" clip-path="url(#clipPath2)" fill="gray" font-family="sans-serif" stroke="none" xml:space="preserve">X's Sign 검증 후 DH 수행</text>
      <path fill="none" d="M1107.636 454.0991 L1107.3241 362.3843" clip-path="url(#clipPath2)"/>
      <path d="M1107.6632 462.0991 L1112.6223 450.0821 L1107.6326 453.0991 L1102.6224 450.1161 Z" clip-path="url(#clipPath2)" stroke="none"/>
      <path d="M1107.2969 354.3844 L1102.3378 366.4013 L1107.3275 363.3843 L1112.3376 366.3673 Z" clip-path="url(#clipPath2)" stroke="none"/>
    </g>
    <g stroke-linecap="butt" transform="matrix(1,0,0,1,-276,-284)" fill="rgb(255,153,0)" text-rendering="geometricPrecision" shape-rendering="geometricPrecision" stroke-dasharray="12,4" stroke="rgb(255,153,0)" stroke-width="2" stroke-miterlimit="1.45">
      <path fill="none" d="M576.8215 685.66 L751.5535 685.66" clip-path="url(#clipPath2)"/>
      <path d="M567.8215 685.66 L581.3215 691.285 L577.9465 685.66 L581.3215 680.035 Z" clip-path="url(#clipPath2)" stroke="none"/>
      <path d="M760.5535 685.66 L747.0535 680.035 L750.4285 685.66 L747.0535 691.285 Z" clip-path="url(#clipPath2)" stroke="none"/>
      <text x="607.8098" y="711.1952" clip-path="url(#clipPath2)" font-family="sans-serif" stroke-dasharray="none" stroke="none" stroke-width="1" xml:space="preserve">Secure Channer 생성 X</text>
    </g>
    <g text-rendering="geometricPrecision" stroke-miterlimit="1.45" shape-rendering="geometricPrecision" transform="matrix(1,0,0,1,-276,-284)" stroke-linecap="butt">
      <path fill="none" d="M567.8742 506.9679 L752.5704 506.9679" clip-path="url(#clipPath2)"/>
      <path d="M760.5704 506.9679 L748.5704 501.9679 L751.5704 506.9679 L748.5704 511.9679 Z" clip-path="url(#clipPath2)" stroke="none"/>
      <path fill="none" d="M1056.4771 533.968 L871.8036 533.968" clip-path="url(#clipPath2)"/>
      <path d="M863.8036 533.968 L875.8036 538.968 L872.8036 533.968 L875.8036 528.968 Z" clip-path="url(#clipPath2)" stroke="none"/>
    </g>
    <g stroke-linecap="butt" transform="matrix(1,0,0,1,-276,-284)" fill="rgb(255,153,0)" text-rendering="geometricPrecision" shape-rendering="geometricPrecision" stroke-dasharray="12,4" stroke="rgb(255,153,0)" stroke-width="2" stroke-miterlimit="1.45">
      <path fill="none" d="M872.7715 685.7524 L1047.4458 685.7524" clip-path="url(#clipPath2)"/>
      <path d="M863.7715 685.7524 L877.2715 691.3774 L873.8965 685.7524 L877.2715 680.1274 Z" clip-path="url(#clipPath2)" stroke="none"/>
      <path d="M1056.4458 685.7524 L1042.9458 680.1274 L1046.3208 685.7524 L1042.9458 691.3774 Z" clip-path="url(#clipPath2)" stroke="none"/>
      <text x="913.1359" y="712.2876" clip-path="url(#clipPath2)" font-family="sans-serif" stroke-dasharray="none" stroke="none" stroke-width="1" xml:space="preserve">Secure Channer 생성 X</text>
    </g>
    <g text-rendering="geometricPrecision" stroke-miterlimit="1.45" shape-rendering="geometricPrecision" transform="matrix(1,0,0,1,-276,-284)" stroke-linecap="butt">
      <path fill="none" d="M760.5825 533.1 L575.8126 533.1" clip-path="url(#clipPath2)"/>
      <path d="M567.8126 533.1 L579.8126 538.1 L576.8126 533.1 L579.8126 528.1 Z" clip-path="url(#clipPath2)" stroke="none"/>
      <path fill="none" d="M863.7366 506.3918 L1048.463 506.3918" clip-path="url(#clipPath2)"/>
      <path d="M1056.463 506.3918 L1044.463 501.3918 L1047.463 506.3918 L1044.463 511.3918 Z" clip-path="url(#clipPath2)" stroke="none"/>
    </g>
  </g>
</svg>
