<?xml version="1.0" encoding="UTF-8"?><svg xmlns="http://www.w3.org/2000/svg" xmlns:xlink="http://www.w3.org/1999/xlink" fill-opacity="1" color-rendering="auto" color-interpolation="auto" text-rendering="auto" stroke="black" stroke-linecap="square" width="924" stroke-miterlimit="10" shape-rendering="auto" stroke-opacity="1" fill="black" stroke-dasharray="none" font-weight="normal" stroke-width="1" height="601" font-family="'Dialog'" font-style="normal" stroke-linejoin="miter" font-size="12px" stroke-dashoffset="0" image-rendering="auto">
  <!--Generated by ySVG 2.6-->
  <defs id="genericDefs"/>
  <g>
    <defs id="defs1">
      <clipPath clipPathUnits="userSpaceOnUse" id="clipPath1">
        <path d="M0 0 L924 0 L924 601 L0 601 L0 0 Z"/>
      </clipPath>
      <clipPath clipPathUnits="userSpaceOnUse" id="clipPath2">
        <path d="M297 151 L1221 151 L1221 752 L297 752 L297 151 Z"/>
      </clipPath>
    </defs>
    <g fill="white" text-rendering="geometricPrecision" shape-rendering="geometricPrecision" transform="translate(-297,-151)" stroke="white">
      <rect x="297" width="924" height="601" y="151" clip-path="url(#clipPath2)" stroke="none"/>
    </g>
    <g text-rendering="geometricPrecision" stroke-miterlimit="1.45" shape-rendering="geometricPrecision" transform="matrix(1,0,0,1,-297,-151)" stroke-linecap="butt">
      <rect fill="none" x="576.304" width="496" height="54.576" y="166.799" clip-path="url(#clipPath2)"/>
      <text x="793.2845" xml:space="preserve" y="198.6222" clip-path="url(#clipPath2)" font-family="sans-serif" stroke="none">Blockchain</text>
    </g>
    <g fill="rgb(204,204,204)" text-rendering="geometricPrecision" shape-rendering="geometricPrecision" transform="matrix(1,0,0,1,-297,-151)" stroke="rgb(204,204,204)">
      <rect x="901.728" width="103.216" height="313.576" y="422.127" clip-path="url(#clipPath2)" stroke="none"/>
    </g>
    <g text-rendering="geometricPrecision" stroke-miterlimit="1.45" shape-rendering="geometricPrecision" transform="matrix(1,0,0,1,-297,-151)" stroke-linecap="butt">
      <rect fill="none" x="901.728" width="103.216" height="313.576" y="422.127" clip-path="url(#clipPath2)"/>
      <text x="949.8848" xml:space="preserve" y="583.4501" clip-path="url(#clipPath2)" font-family="sans-serif" stroke="none">B</text>
      <rect fill="none" x="607.024" width="103.216" height="313.576" y="422.127" clip-path="url(#clipPath2)"/>
      <text x="652.0051" xml:space="preserve" y="583.4501" clip-path="url(#clipPath2)" font-family="sans-serif" stroke="none">aa</text>
      <path fill="none" d="M990.936 315.731 L1015.008 315.731 L1015.008 330.731 L1030.0081 330.731 L1030.0081 366.771 L990.936 366.771 Z" clip-path="url(#clipPath2)"/>
      <path fill="none" d="M1015.008 315.731 L1015.008 330.731 L1030.0081 330.731 Z" clip-path="url(#clipPath2)" fill-rule="evenodd"/>
      <text x="977.456" xml:space="preserve" y="302.9742" clip-path="url(#clipPath2)" font-family="sans-serif" stroke="none">A's DID Doc 조회</text>
    </g>
    <g fill="silver" text-rendering="geometricPrecision" shape-rendering="geometricPrecision" transform="matrix(1,0,0,1,-297,-151)" stroke="silver">
      <path d="M576.304 315.731 L600.376 315.731 L600.376 330.731 L615.376 330.731 L615.376 366.771 L576.304 366.771 Z" stroke="none" clip-path="url(#clipPath2)"/>
      <path fill="white" d="M600.376 315.731 L600.376 330.731 L615.376 330.731 Z" clip-path="url(#clipPath2)" fill-rule="evenodd" stroke="none"/>
    </g>
    <g text-rendering="geometricPrecision" stroke-miterlimit="1.45" shape-rendering="geometricPrecision" transform="matrix(1,0,0,1,-297,-151)" stroke-linecap="butt">
      <path fill="none" d="M576.304 315.731 L600.376 315.731 L600.376 330.731 L615.376 330.731 L615.376 366.771 L576.304 366.771 Z" clip-path="url(#clipPath2)"/>
      <path fill="none" d="M600.376 315.731 L600.376 330.731 L615.376 330.731 Z" clip-path="url(#clipPath2)" fill-rule="evenodd"/>
      <text x="563.5125" xml:space="preserve" y="302.9742" clip-path="url(#clipPath2)" font-family="sans-serif" stroke="none">B's DID Doc 조회</text>
      <path fill="none" d="M753.584 269.6665 L843.384 269.6665 L843.384 284.6665 L858.384 284.6665 L858.384 345.8425 L753.584 345.8425 Z" clip-path="url(#clipPath2)"/>
      <path fill="none" d="M843.384 269.6665 L843.384 284.6665 L858.384 284.6665 Z" clip-path="url(#clipPath2)" fill-rule="evenodd"/>
      <text x="757.6793" xml:space="preserve" y="284.024" clip-path="url(#clipPath2)" font-family="sans-serif" stroke="none">aa's DH Key</text>
      <text x="757.6793" xml:space="preserve" y="298.1568" clip-path="url(#clipPath2)" font-family="sans-serif" stroke="none">DH Data</text>
      <text x="757.6793" xml:space="preserve" y="312.2896" clip-path="url(#clipPath2)" font-family="sans-serif" stroke="none">Proof:</text>
      <text x="757.6793" xml:space="preserve" y="326.4225" clip-path="url(#clipPath2)" font-family="sans-serif" stroke="none">   aa's Public Key</text>
      <text x="757.6793" xml:space="preserve" y="340.5553" clip-path="url(#clipPath2)" font-family="sans-serif" stroke="none">   aa's Sign</text>
      <rect fill="none" x="753.584" width="104.8" height="76.176" y="357.006" clip-path="url(#clipPath2)"/>
      <text x="757.6793" xml:space="preserve" y="378.4299" clip-path="url(#clipPath2)" font-family="sans-serif" stroke="none">aa's 인증서:</text>
      <text x="757.6793" xml:space="preserve" y="392.5627" clip-path="url(#clipPath2)" font-family="sans-serif" stroke="none">   aa's 정보</text>
      <text x="757.6793" xml:space="preserve" y="406.6956" clip-path="url(#clipPath2)" font-family="sans-serif" stroke="none">   aa's Public Key</text>
      <text x="757.6793" xml:space="preserve" y="420.8284" clip-path="url(#clipPath2)" font-family="sans-serif" stroke="none">   A's Sign</text>
    </g>
    <g fill="rgb(255,204,0)" text-rendering="geometricPrecision" shape-rendering="geometricPrecision" transform="matrix(1,0,0,1,-297,-151)" stroke="rgb(255,204,0)">
      <path d="M845.384 378.206 L847.844 374.2668 L852.4854 374.106 L850.304 370.006 L852.4854 365.906 L847.844 365.7451 L845.384 361.806 L842.924 365.7451 L838.2826 365.906 L840.464 370.006 L838.2826 374.106 L842.924 374.2668 Z" fill-rule="evenodd" clip-path="url(#clipPath2)" stroke="none"/>
    </g>
    <g text-rendering="geometricPrecision" stroke-miterlimit="1.45" shape-rendering="geometricPrecision" transform="matrix(1,0,0,1,-297,-151)" stroke-linecap="butt">
      <path fill="none" d="M845.384 378.206 L847.844 374.2668 L852.4854 374.106 L850.304 370.006 L852.4854 365.906 L847.844 365.7451 L845.384 361.806 L842.924 365.7451 L838.2826 365.906 L840.464 370.006 L838.2826 374.106 L842.924 374.2668 Z" fill-rule="evenodd" clip-path="url(#clipPath2)"/>
    </g>
    <g fill="silver" text-rendering="geometricPrecision" shape-rendering="geometricPrecision" transform="matrix(1,0,0,1,-297,-151)" stroke="silver">
      <path d="M753.584 468.182 L843.384 468.182 L843.384 483.182 L858.384 483.182 L858.384 544.358 L753.584 544.358 Z" stroke="none" clip-path="url(#clipPath2)"/>
      <path fill="white" d="M843.384 468.182 L843.384 483.182 L858.384 483.182 Z" clip-path="url(#clipPath2)" fill-rule="evenodd" stroke="none"/>
    </g>
    <g text-rendering="geometricPrecision" stroke-miterlimit="1.45" shape-rendering="geometricPrecision" transform="matrix(1,0,0,1,-297,-151)" stroke-linecap="butt">
      <path fill="none" d="M753.584 468.182 L843.384 468.182 L843.384 483.182 L858.384 483.182 L858.384 544.358 L753.584 544.358 Z" clip-path="url(#clipPath2)"/>
      <path fill="none" d="M843.384 468.182 L843.384 483.182 L858.384 483.182 Z" clip-path="url(#clipPath2)" fill-rule="evenodd"/>
      <text x="775.0055" xml:space="preserve" y="482.5395" clip-path="url(#clipPath2)" font-family="sans-serif" stroke="none">B's DH Key</text>
      <text x="775.0055" xml:space="preserve" y="496.6723" clip-path="url(#clipPath2)" font-family="sans-serif" stroke="none">DH Data</text>
      <text x="775.0055" xml:space="preserve" y="510.8051" clip-path="url(#clipPath2)" font-family="sans-serif" stroke="none">Proof:</text>
      <text x="775.0055" xml:space="preserve" y="524.938" clip-path="url(#clipPath2)" font-family="sans-serif" stroke="none">   B's KID</text>
      <text x="775.0055" xml:space="preserve" y="539.0708" clip-path="url(#clipPath2)" font-family="sans-serif" stroke="none">   B's Sign</text>
      <rect fill="none" x="472.224" width="104.8" height="76.176" y="481.127" clip-path="url(#clipPath2)"/>
      <text x="476.3193" xml:space="preserve" y="502.5509" clip-path="url(#clipPath2)" font-family="sans-serif" stroke="none">aa's 인증서:</text>
      <text x="476.3193" xml:space="preserve" y="516.6838" clip-path="url(#clipPath2)" font-family="sans-serif" stroke="none">   aa's 정보</text>
      <text x="476.3193" xml:space="preserve" y="530.8166" clip-path="url(#clipPath2)" font-family="sans-serif" stroke="none">   aa's Public Key</text>
      <text x="476.3193" xml:space="preserve" y="544.9494" clip-path="url(#clipPath2)" font-family="sans-serif" stroke="none">   A's Sign</text>
    </g>
    <g fill="rgb(255,204,0)" text-rendering="geometricPrecision" shape-rendering="geometricPrecision" transform="matrix(1,0,0,1,-297,-151)" stroke="rgb(255,204,0)">
      <path d="M564.024 503.047 L566.484 499.1078 L571.1254 498.947 L568.944 494.847 L571.1254 490.747 L566.484 490.5862 L564.024 486.647 L561.564 490.5862 L556.9226 490.747 L559.104 494.847 L556.9226 498.947 L561.564 499.1078 Z" fill-rule="evenodd" clip-path="url(#clipPath2)" stroke="none"/>
    </g>
    <g text-rendering="geometricPrecision" stroke-miterlimit="1.45" shape-rendering="geometricPrecision" transform="matrix(1,0,0,1,-297,-151)" stroke-linecap="butt">
      <path fill="none" d="M564.024 503.047 L566.484 499.1078 L571.1254 498.947 L568.944 494.847 L571.1254 490.747 L566.484 490.5862 L564.024 486.647 L561.564 490.5862 L556.9226 490.747 L559.104 494.847 L556.9226 498.947 L561.564 499.1078 Z" fill-rule="evenodd" clip-path="url(#clipPath2)"/>
      <rect fill="none" x="312.32" width="103.216" height="54.576" y="422.127" clip-path="url(#clipPath2)"/>
      <text x="359.7884" xml:space="preserve" y="453.9502" clip-path="url(#clipPath2)" font-family="sans-serif" stroke="none">A</text>
      <path fill="none" d="M1004.9438 638.5 L1041.1 638.5 L1041.1 703.5 L1012.9437 703.5" clip-path="url(#clipPath2)" stroke="blue"/>
      <path fill="blue" d="M1004.9437 703.5 L1016.9437 708.5 L1013.9437 703.5 L1016.9437 698.5 Z" clip-path="url(#clipPath2)" stroke="none"/>
      <text x="1047.2462" y="651.4023" clip-path="url(#clipPath2)" fill="blue" font-family="sans-serif" stroke="none" xml:space="preserve">- aa's 인증서의 A's Sign 검증 </text>
      <text x="1047.2462" y="665.5352" clip-path="url(#clipPath2)" fill="blue" font-family="sans-serif" stroke="none" xml:space="preserve">- aa's Sign 검증</text>
      <text x="1047.2462" y="679.668" clip-path="url(#clipPath2)" fill="blue" font-family="sans-serif" stroke="none" xml:space="preserve">- DH 수행</text>
      <path fill="none" d="M953.336 414.127 L953.336 229.3946" clip-path="url(#clipPath2)"/>
      <path d="M953.336 422.127 L958.336 410.127 L953.336 413.127 L948.336 410.127 Z" clip-path="url(#clipPath2)" stroke="none"/>
      <path d="M953.336 221.3946 L948.336 233.3946 L953.336 230.3946 L958.336 233.3946 Z" clip-path="url(#clipPath2)" stroke="none"/>
      <path fill="none" d="M901.7301 459.5 L718.2291 459.5" clip-path="url(#clipPath2)"/>
      <path d="M710.2291 459.5 L722.2291 464.5 L719.2291 459.5 L722.2291 454.5 Z" clip-path="url(#clipPath2)" stroke="none"/>
      <path fill="none" d="M607.0024 617.5 L565.1 617.5 L565.1 683.5 L599.0446 683.5" clip-path="url(#clipPath2)" stroke="blue"/>
      <path fill="blue" d="M607.0446 683.5 L595.0446 678.5 L598.0446 683.5 L595.0446 688.5 Z" clip-path="url(#clipPath2)" stroke="none"/>
      <text x="416.9211" y="648.4145" clip-path="url(#clipPath2)" fill="blue" font-family="sans-serif" stroke="none" xml:space="preserve">B's Sign 검증 후 DH 수행</text>
      <path fill="none" d="M710.245 439.5 L893.7466 439.5" clip-path="url(#clipPath2)"/>
      <path d="M901.7466 439.5 L889.7466 434.5 L892.7466 439.5 L889.7466 444.5 Z" clip-path="url(#clipPath2)" stroke="none"/>
      <path fill="none" d="M658.632 414.127 L658.632 229.3525" clip-path="url(#clipPath2)"/>
      <path d="M658.632 422.127 L663.632 410.127 L658.632 413.127 L653.632 410.127 Z" clip-path="url(#clipPath2)" stroke="none"/>
      <path d="M658.632 221.3525 L653.632 233.3525 L658.632 230.3525 L663.632 233.3525 Z" clip-path="url(#clipPath2)" stroke="none"/>
      <path fill="none" d="M724.2197 697.5 L887.7417 697.5" stroke-width="7" clip-path="url(#clipPath2)" stroke="blue"/>
      <path fill="blue" d="M710.2197 697.5 L731.2197 706.25 L725.9697 697.5 L731.2197 688.75 Z" stroke-width="7" clip-path="url(#clipPath2)" stroke="none"/>
      <path fill="blue" d="M901.7417 697.5 L880.7417 688.75 L885.9917 697.5 L880.7417 706.25 Z" stroke-width="7" clip-path="url(#clipPath2)" stroke="none"/>
      <text x="748.2046" xml:space="preserve" y="732.0352" clip-path="url(#clipPath2)" font-family="sans-serif" stroke="none">Secure Channer 형성</text>
      <path fill="none" stroke-dasharray="6,2" d="M805.984 345.8376 L805.984 357.006" clip-path="url(#clipPath2)"/>
      <path fill="none" stroke-dasharray="6,2" d="M577.024 519.215 L607.0245 519.215" clip-path="url(#clipPath2)"/>
      <path fill="none" d="M415.536 449.415 L599.038 449.415" clip-path="url(#clipPath2)"/>
      <path d="M607.038 449.415 L595.038 444.415 L598.038 449.415 L595.038 454.415 Z" clip-path="url(#clipPath2)" stroke="none"/>
      <text x="466.4735" xml:space="preserve" y="439.9502" clip-path="url(#clipPath2)" font-family="sans-serif" stroke="none">aa's 인증서 전달</text>
    </g>
  </g>
</svg>
