<?xml version="1.0" encoding="us-ascii" standalone="no"?><svg xmlns="http://www.w3.org/2000/svg" xmlns:xlink="http://www.w3.org/1999/xlink" contentStyleType="text/css" height="113px" preserveAspectRatio="none" style="width:639px;height:113px;background:#FFFFFF;" version="1.1" viewBox="0 0 639 113" width="639px" zoomAndPan="magnify"><defs/><g><g id="ACTIVATED"><rect fill="#F1F1F1" height="50" rx="12.5" ry="12.5" style="stroke:#181818;stroke-width:0.5;" width="97" x="61.5" y="55.13"/><line style="stroke:#181818;stroke-width:0.5;" x1="61.5" x2="158.5" y1="84.3595" y2="84.3595"/><text fill="#000000" font-family="sans-serif" font-size="14" lengthAdjust="spacing" textLength="77" x="71.5" y="76.2833">ACTIVATED</text></g><g id="DEACTIVATED"><rect fill="#F1F1F1" height="50" rx="12.5" ry="12.5" style="stroke:#181818;stroke-width:0.5;" width="116" x="194" y="55.13"/><line style="stroke:#181818;stroke-width:0.5;" x1="194" x2="310" y1="84.3595" y2="84.3595"/><text fill="#000000" font-family="sans-serif" font-size="14" lengthAdjust="spacing" textLength="96" x="204" y="76.2833">DEACTIVATED</text></g><g id="REVOKED"><rect fill="#F1F1F1" height="50" rx="12.5" ry="12.5" style="stroke:#181818;stroke-width:0.5;" width="87" x="345.5" y="55.13"/><line style="stroke:#181818;stroke-width:0.5;" x1="345.5" x2="432.5" y1="84.3595" y2="84.3595"/><text fill="#000000" font-family="sans-serif" font-size="14" lengthAdjust="spacing" textLength="67" x="355.5" y="76.2833">REVOKED</text></g><g id="TERMINATED"><rect fill="#F1F1F1" height="55.7119" rx="12.5" ry="12.5" style="stroke:#181818;stroke-width:0.5;" width="108" x="468" y="52.13"/><line style="stroke:#181818;stroke-width:0.5;" x1="468" x2="576" y1="81.3595" y2="81.3595"/><text fill="#000000" font-family="sans-serif" font-size="14" lengthAdjust="spacing" textLength="88" x="478" y="73.2833">TERMINATED</text><text fill="#000000" font-family="sans-serif" font-size="12" lengthAdjust="spacing" textLength="75" x="473" y="100.2052">&#47568;&#49548; &#49884;&#51089;&#51068;&#51088;</text></g><ellipse cx="16" cy="80.13" fill="#222222" rx="10" ry="10" style="stroke:#222222;stroke-width:1.0;"/><ellipse cx="622" cy="80.13" fill="none" rx="11" ry="11" style="stroke:#222222;stroke-width:1.0;"/><ellipse cx="622" cy="80.13" fill="#222222" rx="6" ry="6" style="stroke:#222222;stroke-width:1.0;"/><!--link *start* to ACTIVATED--><g id="link_*start*_ACTIVATED"><path d="M26.28,80.13 C37.95,80.13 43.61,80.13 55.27,80.13 " fill="none" id="*start*-to-ACTIVATED" style="stroke:#181818;stroke-width:1.0;"/><polygon fill="#181818" points="61.27,80.13,52.27,76.13,56.27,80.13,52.27,84.13,61.27,80.13" style="stroke:#181818;stroke-width:1.0;"/></g><!--link ACTIVATED to DEACTIVATED--><g id="link_ACTIVATED_DEACTIVATED"><path d="M158.54,97 C170.34,98.98 176.1673,99.9615 187.9773,98.8315 " fill="none" id="ACTIVATED-to-DEACTIVATED" style="stroke:#181818;stroke-width:1.0;"/><polygon fill="#181818" points="193.95,98.26,184.6099,95.1354,188.9727,98.7362,185.3719,103.099,193.95,98.26" style="stroke:#181818;stroke-width:1.0;"/></g><!--link DEACTIVATED to ACTIVATED--><g id="link_DEACTIVATED_ACTIVATED"><path d="M193.95,62 C182.14,60.87 176.2573,60.2871 164.4573,62.2671 " fill="none" id="DEACTIVATED-to-ACTIVATED" style="stroke:#181818;stroke-width:1.0;"/><polygon fill="#181818" points="158.54,63.26,168.0778,65.7155,163.4711,62.4326,166.754,57.8258,158.54,63.26" style="stroke:#181818;stroke-width:1.0;"/></g><!--link ACTIVATED to REVOKED--><g id="link_ACTIVATED_REVOKED"><path d="M137.42,54.98 C152.94,42.48 173.43,28.67 194.5,22.13 C243.74,6.86 261.53,6 310.5,22.13 C330.46,28.7 344.9769,38.5777 359.3069,51.0677 " fill="none" id="ACTIVATED-to-REVOKED" style="stroke:#181818;stroke-width:1.0;"/><polygon fill="#181818" points="363.83,55.01,359.6736,46.0812,360.0608,51.7247,354.4172,52.1119,363.83,55.01" style="stroke:#181818;stroke-width:1.0;"/></g><!--link DEACTIVATED to REVOKED--><g id="link_DEACTIVATED_REVOKED"><path d="M310.06,80.13 C321.78,80.13 327.5,80.13 339.22,80.13 " fill="none" id="DEACTIVATED-to-REVOKED" style="stroke:#181818;stroke-width:1.0;"/><polygon fill="#181818" points="345.22,80.13,336.22,76.13,340.22,80.13,336.22,84.13,345.22,80.13" style="stroke:#181818;stroke-width:1.0;"/></g><!--link REVOKED to TERMINATED--><g id="link_REVOKED_TERMINATED"><path d="M432.64,80.13 C444.39,80.13 450.14,80.13 461.9,80.13 " fill="none" id="REVOKED-to-TERMINATED" style="stroke:#181818;stroke-width:1.0;"/><polygon fill="#181818" points="467.9,80.13,458.9,76.13,462.9,80.13,458.9,84.13,467.9,80.13" style="stroke:#181818;stroke-width:1.0;"/></g><!--link TERMINATED to *end*--><g id="link_TERMINATED_*end*"><path d="M576.3,80.13 C587.84,80.13 593.39,80.13 604.93,80.13 " fill="none" id="TERMINATED-to-*end*" style="stroke:#181818;stroke-width:1.0;"/><polygon fill="#181818" points="610.93,80.13,601.93,76.13,605.93,80.13,601.93,84.13,610.93,80.13" style="stroke:#181818;stroke-width:1.0;"/></g><!--SRC=[Aov9B4bLS7GEyGnp375ruIe6yrrSqKM2NCFylU6y4DSWNqy_aBI2bSBhvHFUjFKelEcUysRUn3TpzxoPDu6BArehLa7N3ibWE0iaZ6m-YWJC6Yua5QZce4d0DK0P8364wxYG70gK03eA0000]--></g></svg>