<?xml version="1.0" encoding="UTF-8"?><svg xmlns="http://www.w3.org/2000/svg" xmlns:xlink="http://www.w3.org/1999/xlink" fill-opacity="1" color-rendering="auto" color-interpolation="auto" text-rendering="auto" stroke="black" stroke-linecap="square" width="559" stroke-miterlimit="10" shape-rendering="auto" stroke-opacity="1" fill="black" stroke-dasharray="none" font-weight="normal" stroke-width="1" height="375" font-family="'Dialog'" font-style="normal" stroke-linejoin="miter" font-size="12px" stroke-dashoffset="0" image-rendering="auto">
  <!--Generated by ySVG 2.6-->
  <defs id="genericDefs"/>
  <g>
    <defs id="defs1">
      <clipPath clipPathUnits="userSpaceOnUse" id="clipPath1">
        <path d="M0 0 L559 0 L559 375 L0 375 L0 0 Z"/>
      </clipPath>
      <clipPath clipPathUnits="userSpaceOnUse" id="clipPath2">
        <path d="M469 262 L1028 262 L1028 637 L469 637 L469 262 Z"/>
      </clipPath>
    </defs>
    <g fill="white" text-rendering="geometricPrecision" shape-rendering="geometricPrecision" transform="translate(-469,-262)" stroke="white">
      <rect x="469" width="559" height="375" y="262" clip-path="url(#clipPath2)" stroke="none"/>
    </g>
    <g text-rendering="geometricPrecision" stroke-miterlimit="1.45" shape-rendering="geometricPrecision" transform="matrix(1,0,0,1,-469,-262)" stroke-linecap="butt">
      <rect fill="none" x="513.616" width="496" height="54.576" y="277.299" clip-path="url(#clipPath2)"/>
      <text x="730.5965" xml:space="preserve" y="309.1222" clip-path="url(#clipPath2)" font-family="sans-serif" stroke="none">Blockchain</text>
    </g>
    <g fill="rgb(204,204,204)" text-rendering="geometricPrecision" shape-rendering="geometricPrecision" transform="matrix(1,0,0,1,-469,-262)" stroke="rgb(204,204,204)">
      <rect x="839.04" width="103.216" height="54.576" y="493.627" clip-path="url(#clipPath2)" stroke="none"/>
    </g>
    <g text-rendering="geometricPrecision" stroke-miterlimit="1.45" shape-rendering="geometricPrecision" transform="matrix(1,0,0,1,-469,-262)" stroke-linecap="butt">
      <rect fill="none" x="839.04" width="103.216" height="54.576" y="493.627" clip-path="url(#clipPath2)"/>
      <text x="887.1968" xml:space="preserve" y="525.4501" clip-path="url(#clipPath2)" font-family="sans-serif" stroke="none">B</text>
      <rect fill="none" x="544.336" width="103.216" height="54.576" y="493.627" clip-path="url(#clipPath2)"/>
      <text x="591.8043" xml:space="preserve" y="525.4501" clip-path="url(#clipPath2)" font-family="sans-serif" stroke="none">A</text>
      <path fill="none" d="M928.248 387.231 L952.32 387.231 L952.32 402.231 L967.32 402.231 L967.32 438.271 L928.248 438.271 Z" clip-path="url(#clipPath2)"/>
      <path fill="none" d="M952.32 387.231 L952.32 402.231 L967.32 402.231 Z" clip-path="url(#clipPath2)" fill-rule="evenodd"/>
      <text x="914.768" xml:space="preserve" y="374.4742" clip-path="url(#clipPath2)" font-family="sans-serif" stroke="none">A's DID Doc 조회</text>
      <path fill="none" d="M690.896 425.715 L779.112 425.715 L779.112 440.715 L794.112 440.715 L794.112 495.715 L690.896 495.715 Z" clip-path="url(#clipPath2)"/>
      <path fill="none" d="M779.112 425.715 L779.112 440.715 L794.112 440.715 Z" clip-path="url(#clipPath2)" fill-rule="evenodd"/>
      <text x="713.9073" xml:space="preserve" y="444.0509" clip-path="url(#clipPath2)" font-family="sans-serif" stroke="none">Data</text>
      <text x="713.9073" xml:space="preserve" y="458.1837" clip-path="url(#clipPath2)" font-family="sans-serif" stroke="none">Proof:</text>
      <text x="713.9073" xml:space="preserve" y="472.3166" clip-path="url(#clipPath2)" font-family="sans-serif" stroke="none">   A's KID</text>
      <text x="713.9073" xml:space="preserve" y="486.4494" clip-path="url(#clipPath2)" font-family="sans-serif" stroke="none">   A's Sign</text>
    </g>
    <g fill="silver" text-rendering="geometricPrecision" shape-rendering="geometricPrecision" transform="matrix(1,0,0,1,-469,-262)" stroke="silver">
      <path d="M513.616 387.231 L537.688 387.231 L537.688 402.231 L552.688 402.231 L552.688 438.271 L513.616 438.271 Z" stroke="none" clip-path="url(#clipPath2)"/>
      <path fill="white" d="M537.688 387.231 L537.688 402.231 L552.688 402.231 Z" clip-path="url(#clipPath2)" fill-rule="evenodd" stroke="none"/>
    </g>
    <g text-rendering="geometricPrecision" stroke-miterlimit="1.45" shape-rendering="geometricPrecision" transform="matrix(1,0,0,1,-469,-262)" stroke-linecap="butt">
      <path fill="none" d="M513.616 387.231 L537.688 387.231 L537.688 402.231 L552.688 402.231 L552.688 438.271 L513.616 438.271 Z" clip-path="url(#clipPath2)"/>
      <path fill="none" d="M537.688 387.231 L537.688 402.231 L552.688 402.231 Z" clip-path="url(#clipPath2)" fill-rule="evenodd"/>
      <text x="500.8245" xml:space="preserve" y="374.4742" clip-path="url(#clipPath2)" font-family="sans-serif" stroke="none">B's DID Doc 조회</text>
    </g>
    <g fill="silver" text-rendering="geometricPrecision" shape-rendering="geometricPrecision" transform="matrix(1,0,0,1,-469,-262)" stroke="silver">
      <path d="M691.688 551.82 L779.904 551.82 L779.904 566.82 L794.904 566.82 L794.904 621.82 L691.688 621.82 Z" stroke="none" clip-path="url(#clipPath2)"/>
      <path fill="white" d="M779.904 551.82 L779.904 566.82 L794.904 566.82 Z" clip-path="url(#clipPath2)" fill-rule="evenodd" stroke="none"/>
    </g>
    <g text-rendering="geometricPrecision" stroke-miterlimit="1.45" shape-rendering="geometricPrecision" transform="matrix(1,0,0,1,-469,-262)" stroke-linecap="butt">
      <path fill="none" d="M691.688 551.82 L779.904 551.82 L779.904 566.82 L794.904 566.82 L794.904 621.82 L691.688 621.82 Z" clip-path="url(#clipPath2)"/>
      <path fill="none" d="M779.904 551.82 L779.904 566.82 L794.904 566.82 Z" clip-path="url(#clipPath2)" fill-rule="evenodd"/>
      <text x="715.3878" xml:space="preserve" y="570.1559" clip-path="url(#clipPath2)" font-family="sans-serif" stroke="none">Data</text>
      <text x="715.3878" xml:space="preserve" y="584.2888" clip-path="url(#clipPath2)" font-family="sans-serif" stroke="none">Proof:</text>
      <text x="715.3878" xml:space="preserve" y="598.4216" clip-path="url(#clipPath2)" font-family="sans-serif" stroke="none">   B's KID</text>
      <text x="715.3878" xml:space="preserve" y="612.5544" clip-path="url(#clipPath2)" font-family="sans-serif" stroke="none">   B's Sign</text>
      <path fill="none" d="M918.8973 548.2228 L919.1205 548.7875 L921.3527 552.2146 L924.1378 555.0421 L927.3661 557.2348 L930.9283 558.7581 L934.715 559.577 L938.6168 559.6567 L942.5242 558.9623 L946.3279 557.459 L949.7551 555.2267 L952.5825 552.4417 L954.7753 549.2134 L956.2986 545.6512 L957.1175 541.8645 L957.1972 537.9627 L956.5028 534.0552 L954.9995 530.2515 L952.7672 526.8244 L949.9822 523.997 L949.4442 523.6316 L949.3509 523.5957" clip-path="url(#clipPath2)" stroke="blue"/>
      <path fill="blue" d="M942.1854 520.0383 L950.7103 529.8529 L950.2466 524.0404 L955.157 520.896 Z" clip-path="url(#clipPath2)" stroke="none"/>
      <text x="939.8181" y="580.399" clip-path="url(#clipPath2)" fill="blue" font-family="sans-serif" stroke="none" xml:space="preserve">A's Sign 검증</text>
      <path fill="none" d="M890.648 485.627 L890.648 339.9071" clip-path="url(#clipPath2)"/>
      <path d="M890.648 493.627 L895.648 481.627 L890.648 484.627 L885.648 481.627 Z" clip-path="url(#clipPath2)" stroke="none"/>
      <path d="M890.648 331.9071 L885.648 343.9071 L890.648 340.9071 L895.648 343.9071 Z" clip-path="url(#clipPath2)" stroke="none"/>
      <path fill="none" d="M839.0497 531.82 L655.5676 531.82" clip-path="url(#clipPath2)"/>
      <path d="M647.5676 531.82 L659.5676 536.82 L656.5676 531.82 L659.5676 526.82 Z" clip-path="url(#clipPath2)" stroke="none"/>
      <path fill="none" d="M544.3452 526.953 L543.9331 527.1558 L539.8293 530.327 L536.4796 534.1727 L533.9464 538.5561 L532.2917 543.341 L531.5783 548.3907 L531.8682 553.5689 L533.224 558.739 L535.5844 563.5344 L538.7556 567.6381 L542.6012 570.9879 L546.9846 573.5211 L551.7695 575.1757 L556.8193 575.8892 L561.9974 575.5992 L567.1675 574.2435 L571.963 571.8831 L576.0667 568.7119 L579.4164 564.8663 L581.9496 560.4828 L583.449 556.147 L583.4566 556.0473" clip-path="url(#clipPath2)" stroke="blue"/>
      <path fill="blue" d="M584.1887 548.0809 L578.1116 559.573 L583.3651 557.0431 L588.0696 560.488 Z" clip-path="url(#clipPath2)" stroke="none"/>
      <text x="486.3544" y="592.6909" clip-path="url(#clipPath2)" fill="blue" font-family="sans-serif" stroke="none" xml:space="preserve">B's Sign 검증</text>
      <path fill="none" d="M647.5258 507.5 L831.0374 507.5" clip-path="url(#clipPath2)"/>
      <path d="M839.0374 507.5 L827.0374 502.5 L830.0374 507.5 L827.0374 512.5 Z" clip-path="url(#clipPath2)" stroke="none"/>
      <path fill="none" d="M595.944 485.627 L595.944 339.9115" clip-path="url(#clipPath2)"/>
      <path d="M595.944 493.627 L600.944 481.627 L595.944 484.627 L590.944 481.627 Z" clip-path="url(#clipPath2)" stroke="none"/>
      <path d="M595.944 331.9115 L590.944 343.9115 L595.944 340.9115 L600.944 343.9115 Z" clip-path="url(#clipPath2)" stroke="none"/>
    </g>
  </g>
</svg>
