<?xml version="1.0" encoding="UTF-8"?><svg xmlns="http://www.w3.org/2000/svg" xmlns:xlink="http://www.w3.org/1999/xlink" fill-opacity="1" color-rendering="auto" color-interpolation="auto" text-rendering="auto" stroke="black" stroke-linecap="square" width="382" stroke-miterlimit="10" shape-rendering="auto" stroke-opacity="1" fill="black" stroke-dasharray="none" font-weight="normal" stroke-width="1" height="241" font-family="'Dialog'" font-style="normal" stroke-linejoin="miter" font-size="12px" stroke-dashoffset="0" image-rendering="auto">
  <!--Generated by ySVG 2.6-->
  <defs id="genericDefs"/>
  <g>
    <defs id="defs1">
      <linearGradient x1="543.5598" gradientUnits="userSpaceOnUse" x2="662.9743" y1="214.0324" y2="254.0324" id="linearGradient1" spreadMethod="reflect">
        <stop stop-opacity="1" stop-color="rgb(232,238,247)" offset="0%"/>
        <stop stop-opacity="1" stop-color="rgb(183,201,227)" offset="100%"/>
      </linearGradient>
      <linearGradient x1="543.5598" gradientUnits="userSpaceOnUse" x2="662.9743" y1="273.5648" y2="313.5648" id="linearGradient2" spreadMethod="reflect">
        <stop stop-opacity="1" stop-color="rgb(232,238,247)" offset="0%"/>
        <stop stop-opacity="1" stop-color="rgb(183,201,227)" offset="100%"/>
      </linearGradient>
      <linearGradient x1="707.9743" gradientUnits="userSpaceOnUse" x2="827.3889" y1="214.0324" y2="254.0324" id="linearGradient3" spreadMethod="reflect">
        <stop stop-opacity="1" stop-color="rgb(232,238,247)" offset="0%"/>
        <stop stop-opacity="1" stop-color="rgb(183,201,227)" offset="100%"/>
      </linearGradient>
      <clipPath clipPathUnits="userSpaceOnUse" id="clipPath1">
        <path d="M0 0 L382 0 L382 241 L0 241 L0 0 Z"/>
      </clipPath>
      <clipPath clipPathUnits="userSpaceOnUse" id="clipPath2">
        <path d="M498 125 L880 125 L880 366 L498 366 L498 125 Z"/>
      </clipPath>
    </defs>
    <g fill="white" text-rendering="geometricPrecision" shape-rendering="geometricPrecision" transform="translate(-498,-125)" stroke="white">
      <rect x="498" width="382" height="241" y="125" clip-path="url(#clipPath2)" stroke="none"/>
    </g>
    <g fill="rgb(245,245,245)" text-rendering="geometricPrecision" shape-rendering="geometricPrecision" transform="matrix(1,0,0,1,-498,-125)" stroke="rgb(245,245,245)">
      <rect x="513.5597" y="140.7003" clip-path="url(#clipPath2)" width="350.6168" rx="4" ry="4" height="209.332" stroke="none"/>
      <rect x="513.5597" y="140.7003" clip-path="url(#clipPath2)" fill="rgb(235,235,235)" width="350.6168" height="21.666" stroke="none"/>
    </g>
    <g font-size="15px" stroke-linecap="butt" transform="matrix(1,0,0,1,-498,-125)" text-rendering="geometricPrecision" font-family="sans-serif" shape-rendering="geometricPrecision" stroke-miterlimit="1.45">
      <text x="659.0292" xml:space="preserve" y="157.2023" clip-path="url(#clipPath2)" stroke="none">Provider</text>
      <rect x="513.5597" y="140.7003" clip-path="url(#clipPath2)" fill="none" width="350.6168" stroke-dasharray="6,2" rx="4" ry="4" height="209.332"/>
    </g>
    <g fill="rgb(225,225,225)" text-rendering="geometricPrecision" shape-rendering="geometricPrecision" transform="matrix(1,0,0,1,-498,-125)" stroke="rgb(225,225,225)">
      <rect x="528.5597" y="177.3664" clip-path="url(#clipPath2)" width="151.7877" rx="4" ry="4" height="152.666" stroke="none"/>
      <rect x="528.5597" y="177.3664" clip-path="url(#clipPath2)" fill="rgb(235,235,235)" width="151.7877" height="21.666" stroke="none"/>
    </g>
    <g font-size="15px" stroke-linecap="butt" transform="matrix(1,0,0,1,-498,-125)" text-rendering="geometricPrecision" font-family="sans-serif" shape-rendering="geometricPrecision" stroke-miterlimit="1.45">
      <text x="579.0971" xml:space="preserve" y="193.8683" clip-path="url(#clipPath2)" stroke="none">Service</text>
      <rect x="528.5597" y="177.3664" clip-path="url(#clipPath2)" fill="none" width="151.7877" stroke-dasharray="6,2" rx="4" ry="4" height="152.666"/>
    </g>
    <g fill="url(#linearGradient1)" text-rendering="geometricPrecision" shape-rendering="geometricPrecision" transform="matrix(1,0,0,1,-498,-125)" stroke="url(#linearGradient1)">
      <path d="M543.5598 214.0324 L662.9743 214.0324 L662.9743 254.0324 L543.5598 254.0324 Z" stroke="none" clip-path="url(#clipPath2)"/>
    </g>
    <g text-rendering="geometricPrecision" stroke-miterlimit="1.45" shape-rendering="geometricPrecision" transform="matrix(1,0,0,1,-498,-125)" stroke-linecap="butt">
      <path fill="none" d="M543.5598 214.0324 L662.9743 214.0324 L662.9743 254.0324 L543.5598 254.0324 Z" clip-path="url(#clipPath2)"/>
      <text x="586.934" xml:space="preserve" y="238.5675" clip-path="url(#clipPath2)" font-family="sans-serif" stroke="none">Entity</text>
    </g>
    <g fill="url(#linearGradient2)" text-rendering="geometricPrecision" shape-rendering="geometricPrecision" transform="matrix(1,0,0,1,-498,-125)" stroke="url(#linearGradient2)">
      <path d="M543.5598 273.5648 L662.9743 273.5648 L662.9743 313.5648 L543.5598 313.5648 Z" stroke="none" clip-path="url(#clipPath2)"/>
    </g>
    <g text-rendering="geometricPrecision" stroke-miterlimit="1.45" shape-rendering="geometricPrecision" transform="matrix(1,0,0,1,-498,-125)" stroke-linecap="butt">
      <path fill="none" d="M543.5598 273.5648 L662.9743 273.5648 L662.9743 313.5648 L543.5598 313.5648 Z" clip-path="url(#clipPath2)"/>
      <text x="586.934" xml:space="preserve" y="298.0999" clip-path="url(#clipPath2)" font-family="sans-serif" stroke="none">Entity</text>
    </g>
    <g fill="rgb(225,225,225)" text-rendering="geometricPrecision" shape-rendering="geometricPrecision" transform="matrix(1,0,0,1,-498,-125)" stroke="rgb(225,225,225)">
      <rect x="692.9743" y="177.3664" clip-path="url(#clipPath2)" width="149.4146" rx="4" ry="4" height="91.666" stroke="none"/>
      <rect x="692.9743" y="177.3664" clip-path="url(#clipPath2)" fill="rgb(235,235,235)" width="149.4146" height="21.666" stroke="none"/>
    </g>
    <g font-size="15px" stroke-linecap="butt" transform="matrix(1,0,0,1,-498,-125)" text-rendering="geometricPrecision" font-family="sans-serif" shape-rendering="geometricPrecision" stroke-miterlimit="1.45">
      <text x="742.3251" xml:space="preserve" y="193.8683" clip-path="url(#clipPath2)" stroke="none">Service</text>
      <rect x="692.9743" y="177.3664" clip-path="url(#clipPath2)" fill="none" width="149.4146" stroke-dasharray="6,2" rx="4" ry="4" height="91.666"/>
    </g>
    <g fill="url(#linearGradient3)" text-rendering="geometricPrecision" shape-rendering="geometricPrecision" transform="matrix(1,0,0,1,-498,-125)" stroke="url(#linearGradient3)">
      <path d="M707.9743 214.0324 L827.3889 214.0324 L827.3889 254.0324 L707.9743 254.0324 Z" stroke="none" clip-path="url(#clipPath2)"/>
    </g>
    <g text-rendering="geometricPrecision" stroke-miterlimit="1.45" shape-rendering="geometricPrecision" transform="matrix(1,0,0,1,-498,-125)" stroke-linecap="butt">
      <path fill="none" d="M707.9743 214.0324 L827.3889 214.0324 L827.3889 254.0324 L707.9743 254.0324 Z" clip-path="url(#clipPath2)"/>
      <text x="751.3486" xml:space="preserve" y="238.5675" clip-path="url(#clipPath2)" font-family="sans-serif" stroke="none">Entity</text>
    </g>
  </g>
</svg>
