<?xml version="1.0" encoding="us-ascii" standalone="no"?><svg xmlns="http://www.w3.org/2000/svg" xmlns:xlink="http://www.w3.org/1999/xlink" contentStyleType="text/css" height="109px" preserveAspectRatio="none" style="width:434px;height:109px;background:#FFFFFF;" version="1.1" viewBox="0 0 434 109" width="434px" zoomAndPan="magnify"><defs/><g><g id="ACTIVE"><rect fill="#F1F1F1" height="55.7119" rx="12.5" ry="12.5" style="stroke:#181818;stroke-width:0.5;" width="69" x="61.5" y="48.27"/><line style="stroke:#181818;stroke-width:0.5;" x1="61.5" x2="130.5" y1="77.4995" y2="77.4995"/><text fill="#000000" font-family="sans-serif" font-size="14" lengthAdjust="spacing" textLength="49" x="71.5" y="69.4233">ACTIVE</text><text fill="#000000" font-family="sans-serif" font-size="12" lengthAdjust="spacing" textLength="36" x="66.5" y="96.3452">&#54876;&#49457;&#54868;</text></g><g id="INACTIVE"><rect fill="#F1F1F1" height="55.7119" rx="12.5" ry="12.5" style="stroke:#181818;stroke-width:0.5;" width="81" x="165.5" y="48.27"/><line style="stroke:#181818;stroke-width:0.5;" x1="165.5" x2="246.5" y1="77.4995" y2="77.4995"/><text fill="#000000" font-family="sans-serif" font-size="14" lengthAdjust="spacing" textLength="61" x="175.5" y="69.4233">INACTIVE</text><text fill="#000000" font-family="sans-serif" font-size="12" lengthAdjust="spacing" textLength="48" x="170.5" y="96.3452">&#48708;&#54876;&#49457;&#54868;</text></g><g id="REMOVED"><rect fill="#F1F1F1" height="55.7119" rx="12.5" ry="12.5" style="stroke:#181818;stroke-width:0.5;" width="89" x="281.5" y="48.27"/><line style="stroke:#181818;stroke-width:0.5;" x1="281.5" x2="370.5" y1="77.4995" y2="77.4995"/><text fill="#000000" font-family="sans-serif" font-size="14" lengthAdjust="spacing" textLength="69" x="291.5" y="69.4233">REMOVED</text><text fill="#000000" font-family="sans-serif" font-size="12" lengthAdjust="spacing" textLength="24" x="286.5" y="96.3452">&#49325;&#51228;</text></g><ellipse cx="16" cy="76.27" fill="#222222" rx="10" ry="10" style="stroke:#222222;stroke-width:1.0;"/><ellipse cx="417" cy="76.27" fill="none" rx="11" ry="11" style="stroke:#222222;stroke-width:1.0;"/><ellipse cx="417" cy="76.27" fill="#222222" rx="6" ry="6" style="stroke:#222222;stroke-width:1.0;"/><!--link *start* to ACTIVE--><g id="link_*start*_ACTIVE"><path d="M26,76.27 C37.76,76.27 43.52,76.27 55.27,76.27 " fill="none" id="*start*-to-ACTIVE" style="stroke:#181818;stroke-width:1.0;"/><polygon fill="#181818" points="61.27,76.27,52.27,72.27,56.27,76.27,52.27,80.27,61.27,76.27" style="stroke:#181818;stroke-width:1.0;"/></g><!--link ACTIVE to INACTIVE--><g id="link_ACTIVE_INACTIVE"><path d="M130.8,94.44 C142.36,97.68 148.0273,99.3206 159.5873,97.0006 " fill="none" id="ACTIVE-to-INACTIVE" style="stroke:#181818;stroke-width:1.0;"/><polygon fill="#181818" points="165.47,95.82,155.8589,93.6691,160.5678,96.8038,157.433,101.5127,165.47,95.82" style="stroke:#181818;stroke-width:1.0;"/></g><!--link INACTIVE to ACTIVE--><g id="link_INACTIVE_ACTIVE"><path d="M165.47,56.72 C153.91,54.4 148.1374,53.2407 136.5774,56.4807 " fill="none" id="INACTIVE-to-ACTIVE" style="stroke:#181818;stroke-width:1.0;"/><polygon fill="#181818" points="130.8,58.1,140.5456,59.5227,135.6145,56.7506,138.3865,51.8195,130.8,58.1" style="stroke:#181818;stroke-width:1.0;"/></g><!--link ACTIVE to REMOVED--><g id="link_ACTIVE_REMOVED"><path d="M120.88,48.17 C133.03,36.54 148.66,24.37 165.5,18.27 C199.35,6 212.27,7.11 246.5,18.27 C265.02,24.31 278.1894,32.6425 292.2294,44.2725 " fill="none" id="ACTIVE-to-REMOVED" style="stroke:#181818;stroke-width:1.0;"/><polygon fill="#181818" points="296.85,48.1,292.4707,39.2783,292.9995,44.9104,287.3674,45.4392,296.85,48.1" style="stroke:#181818;stroke-width:1.0;"/></g><!--link INACTIVE to REMOVED--><g id="link_INACTIVE_REMOVED"><path d="M246.78,76.27 C258.33,76.27 263.89,76.27 275.44,76.27 " fill="none" id="INACTIVE-to-REMOVED" style="stroke:#181818;stroke-width:1.0;"/><polygon fill="#181818" points="281.44,76.27,272.44,72.27,276.44,76.27,272.44,80.27,281.44,76.27" style="stroke:#181818;stroke-width:1.0;"/></g><!--link REMOVED to *end*--><g id="link_REMOVED_*end*"><path d="M370.79,76.27 C382.46,76.27 388.14,76.27 399.81,76.27 " fill="none" id="REMOVED-to-*end*" style="stroke:#181818;stroke-width:1.0;"/><polygon fill="#181818" points="405.81,76.27,396.81,72.27,400.81,76.27,396.81,80.27,405.81,76.27" style="stroke:#181818;stroke-width:1.0;"/></g><!--SRC=[Aov9B4bLS7GEyGnpjL9uEtFEcvQDRsTEuIe6YtlwmMHUxsn1bmnozVKFStMnKdZJjFRDWZbSND5QiGgwTb33k20KI01c2XUCWLKLr3WKHJ0nA0qI0be20000]--></g></svg>