<?xml version="1.0" encoding="UTF-8"?><svg xmlns="http://www.w3.org/2000/svg" xmlns:xlink="http://www.w3.org/1999/xlink" fill-opacity="1" color-rendering="auto" color-interpolation="auto" text-rendering="auto" stroke="black" stroke-linecap="square" width="383" stroke-miterlimit="10" shape-rendering="auto" stroke-opacity="1" fill="black" stroke-dasharray="none" font-weight="normal" stroke-width="1" height="494" font-family="'Dialog'" font-style="normal" stroke-linejoin="miter" font-size="12px" stroke-dashoffset="0" image-rendering="auto">
  <!--Generated by ySVG 2.6-->
  <defs id="genericDefs"/>
  <g>
    <defs id="defs1">
      <linearGradient x1="-168.728" gradientUnits="userSpaceOnUse" x2="-67.4076" y1="283.946" y2="323.946" id="linearGradient1" spreadMethod="reflect">
        <stop stop-opacity="1" stop-color="rgb(232,238,247)" offset="0%"/>
        <stop stop-opacity="1" stop-color="rgb(183,201,227)" offset="100%"/>
      </linearGradient>
      <linearGradient x1="-165.0413" gradientUnits="userSpaceOnUse" x2="-63.7209" y1="578.1766" y2="615.6267" id="linearGradient2" spreadMethod="reflect">
        <stop stop-opacity="1" stop-color="rgb(232,238,247)" offset="0%"/>
        <stop stop-opacity="1" stop-color="rgb(183,201,227)" offset="100%"/>
      </linearGradient>
      <linearGradient x1="-256.5934" gradientUnits="userSpaceOnUse" x2="-137.1789" y1="415.6734" y2="455.6734" id="linearGradient3" spreadMethod="reflect">
        <stop stop-opacity="1" stop-color="rgb(232,238,247)" offset="0%"/>
        <stop stop-opacity="1" stop-color="rgb(183,201,227)" offset="100%"/>
      </linearGradient>
      <linearGradient x1="-98.0678" gradientUnits="userSpaceOnUse" x2="3.2526" y1="464.3303" y2="504.3303" id="linearGradient4" spreadMethod="reflect">
        <stop stop-opacity="1" stop-color="rgb(232,238,247)" offset="0%"/>
        <stop stop-opacity="1" stop-color="rgb(183,201,227)" offset="100%"/>
      </linearGradient>
      <clipPath clipPathUnits="userSpaceOnUse" id="clipPath1">
        <path d="M0 0 L383 0 L383 494 L0 494 L0 0 Z"/>
      </clipPath>
      <clipPath clipPathUnits="userSpaceOnUse" id="clipPath2">
        <path d="M-313 195 L70 195 L70 689 L-313 689 L-313 195 Z"/>
      </clipPath>
    </defs>
    <g fill="white" text-rendering="geometricPrecision" shape-rendering="geometricPrecision" transform="translate(313,-195)" stroke="white">
      <rect x="-313" width="383" height="494" y="195" clip-path="url(#clipPath2)" stroke="none"/>
    </g>
    <g fill="white" text-rendering="geometricPrecision" shape-rendering="geometricPrecision" transform="matrix(1,0,0,1,313,-195)" stroke="white">
      <rect x="-297.6891" width="352.0234" height="463.1134" y="210.5569" clip-path="url(#clipPath2)" stroke="none"/>
      <rect x="-297.6891" y="210.5569" clip-path="url(#clipPath2)" fill="rgb(235,235,235)" width="352.0234" height="21.666" stroke="none"/>
    </g>
    <g font-size="15px" stroke-linecap="butt" transform="matrix(1,0,0,1,313,-195)" text-rendering="geometricPrecision" font-family="sans-serif" shape-rendering="geometricPrecision" stroke-miterlimit="1.45">
      <text x="-165.1942" xml:space="preserve" y="227.0588" clip-path="url(#clipPath2)" stroke="none">VC Lifecycle</text>
      <rect fill="none" x="-297.6891" width="352.0234" height="463.1134" y="210.5569" clip-path="url(#clipPath2)"/>
    </g>
    <g fill="url(#linearGradient1)" text-rendering="geometricPrecision" shape-rendering="geometricPrecision" transform="matrix(1,0,0,1,313,-195)" stroke="url(#linearGradient1)">
      <rect x="-168.7279" y="283.946" clip-path="url(#clipPath2)" width="101.3203" rx="20" ry="20" height="40" stroke="none"/>
    </g>
    <g text-rendering="geometricPrecision" stroke-miterlimit="1.45" shape-rendering="geometricPrecision" transform="matrix(1,0,0,1,313,-195)" stroke-linecap="butt">
      <rect x="-168.7279" y="283.946" clip-path="url(#clipPath2)" fill="none" width="101.3203" rx="20" ry="20" height="40"/>
      <text x="-153.0629" xml:space="preserve" y="308.4811" clip-path="url(#clipPath2)" font-family="sans-serif" stroke="none">VC Issuance</text>
    </g>
    <g fill="url(#linearGradient2)" text-rendering="geometricPrecision" shape-rendering="geometricPrecision" transform="matrix(1,0,0,1,313,-195)" stroke="url(#linearGradient2)">
      <rect x="-165.0413" y="578.1766" clip-path="url(#clipPath2)" width="101.3203" rx="18.7251" ry="18.7251" height="37.4501" stroke="none"/>
    </g>
    <g text-rendering="geometricPrecision" stroke-miterlimit="1.45" shape-rendering="geometricPrecision" transform="matrix(1,0,0,1,313,-195)" stroke-linecap="butt">
      <rect x="-165.0413" y="578.1766" clip-path="url(#clipPath2)" fill="none" width="101.3203" rx="18.7251" ry="18.7251" height="37.4501"/>
      <text x="-156.0559" xml:space="preserve" y="601.4368" clip-path="url(#clipPath2)" font-family="sans-serif" stroke="none">VC Revocation</text>
    </g>
    <g fill="url(#linearGradient3)" text-rendering="geometricPrecision" shape-rendering="geometricPrecision" transform="matrix(1,0,0,1,313,-195)" stroke="url(#linearGradient3)">
      <path d="M-256.5934 415.6734 L-137.1789 415.6734 L-137.1789 455.6734 L-256.5934 455.6734 Z" stroke="none" clip-path="url(#clipPath2)"/>
    </g>
    <g text-rendering="geometricPrecision" stroke-miterlimit="1.45" shape-rendering="geometricPrecision" transform="matrix(1,0,0,1,313,-195)" stroke-linecap="butt">
      <path fill="none" d="M-256.5934 415.6734 L-137.1789 415.6734 L-137.1789 455.6734 L-256.5934 455.6734 Z" clip-path="url(#clipPath2)"/>
      <text x="-227.4692" xml:space="preserve" y="440.2086" clip-path="url(#clipPath2)" font-family="sans-serif" stroke="none">VC Update</text>
    </g>
    <g fill="url(#linearGradient4)" text-rendering="geometricPrecision" shape-rendering="geometricPrecision" transform="matrix(1,0,0,1,313,-195)" stroke="url(#linearGradient4)">
      <path d="M-98.0678 464.3303 L3.2526 464.3303 L3.2526 504.3303 L-98.0678 504.3303 Z" stroke="none" clip-path="url(#clipPath2)"/>
    </g>
    <g text-rendering="geometricPrecision" stroke-miterlimit="1.45" shape-rendering="geometricPrecision" transform="matrix(1,0,0,1,313,-195)" stroke-linecap="butt">
      <path fill="none" d="M-98.0678 464.3303 L3.2526 464.3303 L3.2526 504.3303 L-98.0678 504.3303 Z" clip-path="url(#clipPath2)"/>
      <text x="-99.0902" xml:space="preserve" y="488.8655" clip-path="url(#clipPath2)" font-family="sans-serif" stroke="none">VC Status Change</text>
    </g>
    <g text-rendering="geometricPrecision" stroke-miterlimit="1.45" shape-rendering="geometricPrecision" transform="matrix(1,0,0,1,313,-195)" stroke-linecap="butt">
      <path fill="none" d="M-132.6661 323.933 L-132.6661 345.958 L-133.2911 350.333 L-135.1661 353.458 L-138.2911 355.333 L-142.6661 355.958 L-186.8862 355.958 L-191.2612 356.583 L-194.3862 358.458 L-196.2612 361.583 L-196.8862 365.958 L-196.8862 404.6443" clip-path="url(#clipPath2)"/>
      <path d="M-196.8862 415.6443 L-190.8862 403.6443 L-202.8862 403.6443 Z" clip-path="url(#clipPath2)" stroke="none"/>
    </g>
    <g text-rendering="geometricPrecision" stroke-miterlimit="1.45" shape-rendering="geometricPrecision" transform="matrix(1,0,0,1,313,-195)" stroke-linecap="butt">
      <path fill="none" d="M-196.8862 455.7088 L-196.8862 586.9016 L-196.2612 591.2766 L-194.3862 594.4016 L-191.2612 596.2766 L-186.8862 596.9016 L-176.0202 596.9016" clip-path="url(#clipPath2)"/>
      <path d="M-165.0202 596.9016 L-177.0202 590.9016 L-177.0202 602.9016 Z" clip-path="url(#clipPath2)" stroke="none"/>
    </g>
    <g text-rendering="geometricPrecision" stroke-miterlimit="1.45" shape-rendering="geometricPrecision" transform="matrix(1,0,0,1,313,-195)" stroke-linecap="butt">
      <path fill="none" d="M-103.4695 323.933 L-103.4695 345.958 L-102.8445 350.333 L-100.9695 353.458 L-97.8445 355.333 L-93.4695 355.958 L-57.4076 355.958 L-53.0326 356.583 L-49.9076 358.458 L-48.0326 361.583 L-47.4076 365.958 L-47.4076 453.3039" clip-path="url(#clipPath2)"/>
      <path d="M-47.4076 464.3039 L-41.4076 452.3039 L-53.4076 452.3039 Z" clip-path="url(#clipPath2)" stroke="none"/>
    </g>
    <g text-rendering="geometricPrecision" stroke-miterlimit="1.45" shape-rendering="geometricPrecision" transform="matrix(1,0,0,1,313,-195)" stroke-linecap="butt">
      <path fill="none" d="M-43.7209 504.3106 L-43.7209 586.9016 L-44.843 594.4016 L-46.2456 596.2766 L-48.2093 596.9016 L-52.6976 596.9016" clip-path="url(#clipPath2)"/>
      <path d="M-63.6976 596.9016 L-51.6976 602.9016 L-51.6976 590.9016 Z" clip-path="url(#clipPath2)" stroke="none"/>
    </g>
  </g>
</svg>
