<?xml version="1.0" encoding="UTF-8"?><svg xmlns="http://www.w3.org/2000/svg" xmlns:xlink="http://www.w3.org/1999/xlink" fill-opacity="1" color-rendering="auto" color-interpolation="auto" text-rendering="auto" stroke="black" stroke-linecap="square" width="380" stroke-miterlimit="10" shape-rendering="auto" stroke-opacity="1" fill="black" stroke-dasharray="none" font-weight="normal" stroke-width="1" height="494" font-family="'Dialog'" font-style="normal" stroke-linejoin="miter" font-size="12px" stroke-dashoffset="0" image-rendering="auto">
  <!--Generated by ySVG 2.6-->
  <defs id="genericDefs"/>
  <g>
    <defs id="defs1">
      <linearGradient x1="473.814" gradientUnits="userSpaceOnUse" x2="575.1343" y1="691.0814" y2="731.0814" id="linearGradient1" spreadMethod="reflect">
        <stop stop-opacity="1" stop-color="rgb(232,238,247)" offset="0%"/>
        <stop stop-opacity="1" stop-color="rgb(183,201,227)" offset="100%"/>
      </linearGradient>
      <linearGradient x1="477.5007" gradientUnits="userSpaceOnUse" x2="578.821" y1="985.312" y2="1022.762" id="linearGradient2" spreadMethod="reflect">
        <stop stop-opacity="1" stop-color="rgb(232,238,247)" offset="0%"/>
        <stop stop-opacity="1" stop-color="rgb(183,201,227)" offset="100%"/>
      </linearGradient>
      <linearGradient x1="385.9485" gradientUnits="userSpaceOnUse" x2="505.3631" y1="822.8088" y2="862.8088" id="linearGradient3" spreadMethod="reflect">
        <stop stop-opacity="1" stop-color="rgb(232,238,247)" offset="0%"/>
        <stop stop-opacity="1" stop-color="rgb(183,201,227)" offset="100%"/>
      </linearGradient>
      <linearGradient x1="544.4742" gradientUnits="userSpaceOnUse" x2="645.7945" y1="871.4657" y2="911.4657" id="linearGradient4" spreadMethod="reflect">
        <stop stop-opacity="1" stop-color="rgb(232,238,247)" offset="0%"/>
        <stop stop-opacity="1" stop-color="rgb(183,201,227)" offset="100%"/>
      </linearGradient>
      <clipPath clipPathUnits="userSpaceOnUse" id="clipPath1">
        <path d="M0 0 L380 0 L380 494 L0 494 L0 0 Z"/>
      </clipPath>
      <clipPath clipPathUnits="userSpaceOnUse" id="clipPath2">
        <path d="M329 602 L709 602 L709 1096 L329 1096 L329 602 Z"/>
      </clipPath>
    </defs>
    <g fill="white" text-rendering="geometricPrecision" shape-rendering="geometricPrecision" transform="translate(-329,-602)" stroke="white">
      <rect x="329" width="380" height="494" y="602" clip-path="url(#clipPath2)" stroke="none"/>
    </g>
    <g fill="white" text-rendering="geometricPrecision" shape-rendering="geometricPrecision" transform="matrix(1,0,0,1,-329,-602)" stroke="white">
      <rect x="344.8529" width="349.001" height="463.1134" y="617.6922" clip-path="url(#clipPath2)" stroke="none"/>
      <rect x="344.8529" y="617.6922" clip-path="url(#clipPath2)" fill="rgb(235,235,235)" width="349.001" height="21.666" stroke="none"/>
    </g>
    <g font-size="15px" stroke-linecap="butt" transform="matrix(1,0,0,1,-329,-602)" text-rendering="geometricPrecision" font-family="sans-serif" shape-rendering="geometricPrecision" stroke-miterlimit="1.45">
      <text x="478.5645" xml:space="preserve" y="634.1942" clip-path="url(#clipPath2)" stroke="none">VC 생명 주기</text>
      <rect fill="none" x="344.8529" width="349.001" height="463.1134" y="617.6922" clip-path="url(#clipPath2)"/>
    </g>
    <g fill="url(#linearGradient1)" text-rendering="geometricPrecision" shape-rendering="geometricPrecision" transform="matrix(1,0,0,1,-329,-602)" stroke="url(#linearGradient1)">
      <rect x="473.814" y="691.0813" clip-path="url(#clipPath2)" width="101.3203" rx="20" ry="20" height="40" stroke="none"/>
    </g>
    <g text-rendering="geometricPrecision" stroke-miterlimit="1.45" shape-rendering="geometricPrecision" transform="matrix(1,0,0,1,-329,-602)" stroke-linecap="butt">
      <rect x="473.814" y="691.0813" clip-path="url(#clipPath2)" fill="none" width="101.3203" rx="20" ry="20" height="40"/>
      <text x="504.1215" xml:space="preserve" y="715.6165" clip-path="url(#clipPath2)" font-family="sans-serif" stroke="none">VC 발행</text>
    </g>
    <g fill="url(#linearGradient2)" text-rendering="geometricPrecision" shape-rendering="geometricPrecision" transform="matrix(1,0,0,1,-329,-602)" stroke="url(#linearGradient2)">
      <rect x="477.5007" y="985.3119" clip-path="url(#clipPath2)" width="101.3203" rx="18.7251" ry="18.7251" height="37.4501" stroke="none"/>
    </g>
    <g text-rendering="geometricPrecision" stroke-miterlimit="1.45" shape-rendering="geometricPrecision" transform="matrix(1,0,0,1,-329,-602)" stroke-linecap="butt">
      <rect x="477.5007" y="985.3119" clip-path="url(#clipPath2)" fill="none" width="101.3203" rx="18.7251" ry="18.7251" height="37.4501"/>
      <text x="507.8082" xml:space="preserve" y="1008.5721" clip-path="url(#clipPath2)" font-family="sans-serif" stroke="none">VC 폐기</text>
    </g>
    <g fill="url(#linearGradient3)" text-rendering="geometricPrecision" shape-rendering="geometricPrecision" transform="matrix(1,0,0,1,-329,-602)" stroke="url(#linearGradient3)">
      <path d="M385.9485 822.8088 L505.3631 822.8088 L505.3631 862.8088 L385.9485 862.8088 Z" stroke="none" clip-path="url(#clipPath2)"/>
    </g>
    <g text-rendering="geometricPrecision" stroke-miterlimit="1.45" shape-rendering="geometricPrecision" transform="matrix(1,0,0,1,-329,-602)" stroke-linecap="butt">
      <path fill="none" d="M385.9485 822.8088 L505.3631 822.8088 L505.3631 862.8088 L385.9485 862.8088 Z" clip-path="url(#clipPath2)"/>
      <text x="425.3031" xml:space="preserve" y="847.3439" clip-path="url(#clipPath2)" font-family="sans-serif" stroke="none">VC 갱신</text>
    </g>
    <g fill="url(#linearGradient4)" text-rendering="geometricPrecision" shape-rendering="geometricPrecision" transform="matrix(1,0,0,1,-329,-602)" stroke="url(#linearGradient4)">
      <path d="M544.4742 871.4657 L645.7945 871.4657 L645.7945 911.4657 L544.4742 911.4657 Z" stroke="none" clip-path="url(#clipPath2)"/>
    </g>
    <g text-rendering="geometricPrecision" stroke-miterlimit="1.45" shape-rendering="geometricPrecision" transform="matrix(1,0,0,1,-329,-602)" stroke-linecap="butt">
      <path fill="none" d="M544.4742 871.4657 L645.7945 871.4657 L645.7945 911.4657 L544.4742 911.4657 Z" clip-path="url(#clipPath2)"/>
      <text x="564.4017" xml:space="preserve" y="896.0009" clip-path="url(#clipPath2)" font-family="sans-serif" stroke="none">VC 상태변경</text>
    </g>
    <g text-rendering="geometricPrecision" stroke-miterlimit="1.45" shape-rendering="geometricPrecision" transform="matrix(1,0,0,1,-329,-602)" stroke-linecap="butt">
      <path fill="none" d="M509.8759 731.0684 L509.8759 753.0934 L509.2509 757.4684 L507.3759 760.5934 L504.2509 762.4684 L499.8759 763.0934 L455.6558 763.0934 L451.2808 763.7184 L448.1558 765.5934 L446.2808 768.7184 L445.6558 773.0934 L445.6558 811.8088" clip-path="url(#clipPath2)"/>
      <path d="M445.6558 822.8088 L451.6558 810.8088 L439.6558 810.8088 Z" clip-path="url(#clipPath2)" stroke="none"/>
    </g>
    <g text-rendering="geometricPrecision" stroke-miterlimit="1.45" shape-rendering="geometricPrecision" transform="matrix(1,0,0,1,-329,-602)" stroke-linecap="butt">
      <path fill="none" d="M445.6558 862.8442 L445.6558 994.037 L446.2808 998.412 L448.1558 1001.537 L451.2808 1003.412 L455.6558 1004.037 L466.5218 1004.037" clip-path="url(#clipPath2)"/>
      <path d="M477.5218 1004.037 L465.5218 998.037 L465.5218 1010.037 Z" clip-path="url(#clipPath2)" stroke="none"/>
    </g>
    <g text-rendering="geometricPrecision" stroke-miterlimit="1.45" shape-rendering="geometricPrecision" transform="matrix(1,0,0,1,-329,-602)" stroke-linecap="butt">
      <path fill="none" d="M539.0725 731.0684 L539.0725 753.0934 L539.6975 757.4684 L541.5725 760.5934 L544.6975 762.4684 L549.0725 763.0934 L585.1343 763.0934 L589.5093 763.7184 L592.6343 765.5934 L594.5093 768.7184 L595.1343 773.0934 L595.1343 860.4657" clip-path="url(#clipPath2)"/>
      <path d="M595.1343 871.4657 L601.1343 859.4657 L589.1343 859.4657 Z" clip-path="url(#clipPath2)" stroke="none"/>
    </g>
    <g text-rendering="geometricPrecision" stroke-miterlimit="1.45" shape-rendering="geometricPrecision" transform="matrix(1,0,0,1,-329,-602)" stroke-linecap="butt">
      <path fill="none" d="M598.821 911.446 L598.821 994.037 L597.699 1001.537 L596.2963 1003.412 L594.3327 1004.037 L589.8444 1004.037" clip-path="url(#clipPath2)"/>
      <path d="M578.8444 1004.037 L590.8444 1010.037 L590.8444 998.037 Z" clip-path="url(#clipPath2)" stroke="none"/>
    </g>
  </g>
</svg>
