<?xml version="1.0" encoding="us-ascii" standalone="no"?><svg xmlns="http://www.w3.org/2000/svg" xmlns:xlink="http://www.w3.org/1999/xlink" contentStyleType="text/css" height="693px" preserveAspectRatio="none" style="width:920px;height:693px;background:#FFFFFF;" version="1.1" viewBox="0 0 920 693" width="920px" zoomAndPan="magnify"><defs/><g><rect fill="none" height="469.9473" style="stroke:#000000;stroke-width:1.5;" width="903" x="10" y="112.1094"/><line style="stroke:#181818;stroke-width:0.5;stroke-dasharray:5.0,5.0;" x1="63" x2="63" y1="36.4883" y2="657.6777"/><line style="stroke:#181818;stroke-width:0.5;stroke-dasharray:5.0,5.0;" x1="331" x2="331" y1="36.4883" y2="657.6777"/><rect fill="#E2E2F0" height="30.4883" rx="2.5" ry="2.5" style="stroke:#181818;stroke-width:0.5;" width="86" x="20" y="5"/><text fill="#000000" font-family="sans-serif" font-size="14" lengthAdjust="spacing" textLength="72" x="27" y="25.5352">Client App</text><rect fill="#E2E2F0" height="30.4883" rx="2.5" ry="2.5" style="stroke:#181818;stroke-width:0.5;" width="86" x="20" y="656.6777"/><text fill="#000000" font-family="sans-serif" font-size="14" lengthAdjust="spacing" textLength="72" x="27" y="677.2129">Client App</text><rect fill="#E2E2F0" height="30.4883" rx="2.5" ry="2.5" style="stroke:#181818;stroke-width:0.5;" width="88" x="287" y="5"/><text fill="#000000" font-family="sans-serif" font-size="14" lengthAdjust="spacing" textLength="74" x="294" y="25.5352">TAS Server</text><rect fill="#E2E2F0" height="30.4883" rx="2.5" ry="2.5" style="stroke:#181818;stroke-width:0.5;" width="88" x="287" y="656.6777"/><text fill="#000000" font-family="sans-serif" font-size="14" lengthAdjust="spacing" textLength="74" x="294" y="677.2129">TAS Server</text><line style="stroke:#181818;stroke-width:1.0;" x1="329" x2="319" y1="67.7988" y2="63.7988"/><line style="stroke:#181818;stroke-width:1.0;" x1="329" x2="319" y1="67.7988" y2="71.7988"/><line style="stroke:#181818;stroke-width:1.0;" x1="63" x2="330" y1="67.7988" y2="67.7988"/><text fill="#000000" font-family="sans-serif" font-size="13" lengthAdjust="spacing" textLength="176" x="70" y="63.0566">PII Registration Request (PII)</text><line style="stroke:#181818;stroke-width:1.0;" x1="64" x2="74" y1="97.1094" y2="93.1094"/><line style="stroke:#181818;stroke-width:1.0;" x1="64" x2="74" y1="97.1094" y2="101.1094"/><line style="stroke:#181818;stroke-width:1.0;stroke-dasharray:2.0,2.0;" x1="63" x2="330" y1="97.1094" y2="97.1094"/><text fill="#000000" font-family="sans-serif" font-size="13" lengthAdjust="spacing" textLength="244" x="80" y="92.3672">Response (Whether Already Registered)</text><path d="M10,112.1094 L72,112.1094 L72,119.4199 L62,129.4199 L10,129.4199 L10,112.1094 " fill="#EEEEEE" style="stroke:#000000;stroke-width:1.5;"/><rect fill="none" height="469.9473" style="stroke:#000000;stroke-width:1.5;" width="903" x="10" y="112.1094"/><text fill="#000000" font-family="sans-serif" font-size="13" font-weight="bold" lengthAdjust="spacing" textLength="17" x="25" y="125.6777">alt</text><text fill="#000000" font-family="sans-serif" font-size="11" font-weight="bold" lengthAdjust="spacing" textLength="175" x="87" y="124.7441">[When using an existing wallet]</text><line style="stroke:#181818;stroke-width:1.0;" x1="329" x2="319" y1="150.7305" y2="146.7305"/><line style="stroke:#181818;stroke-width:1.0;" x1="329" x2="319" y1="150.7305" y2="154.7305"/><line style="stroke:#181818;stroke-width:1.0;" x1="63" x2="330" y1="150.7305" y2="150.7305"/><text fill="#000000" font-family="sans-serif" font-size="13" lengthAdjust="spacing" textLength="189" x="70" y="145.9883">Request to use existing wallet</text><path d="M336,163.7305 L336,188.7305 L903,188.7305 L903,173.7305 L893,163.7305 L336,163.7305 " fill="#FEFFDD" style="stroke:#181818;stroke-width:0.5;"/><path d="M893,163.7305 L893,173.7305 L903,173.7305 L893,163.7305 " fill="#FEFFDD" style="stroke:#181818;stroke-width:0.5;"/><text fill="#000000" font-family="sans-serif" font-size="13" lengthAdjust="spacing" textLength="546" x="342" y="181.2988">Cannot use existing wallet if it is a different device from the previously registered one.</text><line style="stroke:#181818;stroke-width:1.0;" x1="331" x2="373" y1="215.3516" y2="215.3516"/><line style="stroke:#181818;stroke-width:1.0;" x1="373" x2="373" y1="215.3516" y2="228.3516"/><line style="stroke:#181818;stroke-width:1.0;" x1="332" x2="373" y1="228.3516" y2="228.3516"/><polygon fill="#181818" points="342,224.3516,332,228.3516,342,232.3516,338,228.3516" style="stroke:#181818;stroke-width:1.0;"/><text fill="#000000" font-family="sans-serif" font-size="13" lengthAdjust="spacing" textLength="192" x="338" y="210.6094">Update information (user, app)</text><line style="stroke:#181818;stroke-width:1.0;" x1="64" x2="74" y1="257.6621" y2="253.6621"/><line style="stroke:#181818;stroke-width:1.0;" x1="64" x2="74" y1="257.6621" y2="261.6621"/><line style="stroke:#181818;stroke-width:1.0;stroke-dasharray:2.0,2.0;" x1="63" x2="330" y1="257.6621" y2="257.6621"/><text fill="#000000" font-family="sans-serif" font-size="13" lengthAdjust="spacing" textLength="18" x="80" y="252.9199">OK</text><line style="stroke:#000000;stroke-width:1.0;stroke-dasharray:2.0,2.0;" x1="10" x2="913" y1="266.6621" y2="266.6621"/><text fill="#000000" font-family="sans-serif" font-size="11" font-weight="bold" lengthAdjust="spacing" textLength="326" x="15" y="277.2969">[When registering a new wallet (Single device per person)]</text><line style="stroke:#181818;stroke-width:1.0;" x1="329" x2="319" y1="301.9277" y2="297.9277"/><line style="stroke:#181818;stroke-width:1.0;" x1="329" x2="319" y1="301.9277" y2="305.9277"/><line style="stroke:#181818;stroke-width:1.0;" x1="63" x2="330" y1="301.9277" y2="301.9277"/><text fill="#000000" font-family="sans-serif" font-size="13" lengthAdjust="spacing" textLength="183" x="70" y="297.1855">DIDDoc Registration Request</text><line style="stroke:#181818;stroke-width:1.0;" x1="331" x2="373" y1="331.2383" y2="331.2383"/><line style="stroke:#181818;stroke-width:1.0;" x1="373" x2="373" y1="331.2383" y2="344.2383"/><line style="stroke:#181818;stroke-width:1.0;" x1="332" x2="373" y1="344.2383" y2="344.2383"/><polygon fill="#181818" points="342,340.2383,332,344.2383,342,348.2383,338,344.2383" style="stroke:#181818;stroke-width:1.0;"/><text fill="#000000" font-family="sans-serif" font-size="13" lengthAdjust="spacing" textLength="351" x="338" y="326.4961">If already registered, revoke existing wallet and DIDDoc</text><line style="stroke:#181818;stroke-width:1.0;" x1="331" x2="373" y1="373.5488" y2="373.5488"/><line style="stroke:#181818;stroke-width:1.0;" x1="373" x2="373" y1="373.5488" y2="386.5488"/><line style="stroke:#181818;stroke-width:1.0;" x1="332" x2="373" y1="386.5488" y2="386.5488"/><polygon fill="#181818" points="342,382.5488,332,386.5488,342,390.5488,338,386.5488" style="stroke:#181818;stroke-width:1.0;"/><text fill="#000000" font-family="sans-serif" font-size="13" lengthAdjust="spacing" textLength="237" x="338" y="368.8066">Update information (user, wallet, app)</text><line style="stroke:#181818;stroke-width:1.0;" x1="64" x2="74" y1="415.8594" y2="411.8594"/><line style="stroke:#181818;stroke-width:1.0;" x1="64" x2="74" y1="415.8594" y2="419.8594"/><line style="stroke:#181818;stroke-width:1.0;stroke-dasharray:2.0,2.0;" x1="63" x2="330" y1="415.8594" y2="415.8594"/><text fill="#000000" font-family="sans-serif" font-size="13" lengthAdjust="spacing" textLength="18" x="80" y="411.1172">OK</text><line style="stroke:#000000;stroke-width:1.0;stroke-dasharray:2.0,2.0;" x1="10" x2="913" y1="424.8594" y2="424.8594"/><text fill="#000000" font-family="sans-serif" font-size="11" font-weight="bold" lengthAdjust="spacing" textLength="344" x="15" y="435.4941">[When registering a new wallet (Multiple devices per person)]</text><line style="stroke:#181818;stroke-width:1.0;" x1="329" x2="319" y1="460.125" y2="456.125"/><line style="stroke:#181818;stroke-width:1.0;" x1="329" x2="319" y1="460.125" y2="464.125"/><line style="stroke:#181818;stroke-width:1.0;" x1="63" x2="330" y1="460.125" y2="460.125"/><text fill="#000000" font-family="sans-serif" font-size="13" lengthAdjust="spacing" textLength="183" x="70" y="455.3828">DIDDoc Registration Request</text><line style="stroke:#181818;stroke-width:1.0;" x1="331" x2="373" y1="489.4355" y2="489.4355"/><line style="stroke:#181818;stroke-width:1.0;" x1="373" x2="373" y1="489.4355" y2="502.4355"/><line style="stroke:#181818;stroke-width:1.0;" x1="332" x2="373" y1="502.4355" y2="502.4355"/><polygon fill="#181818" points="342,498.4355,332,502.4355,342,506.4355,338,502.4355" style="stroke:#181818;stroke-width:1.0;"/><text fill="#000000" font-family="sans-serif" font-size="13" lengthAdjust="spacing" textLength="351" x="338" y="484.6934">If already registered, revoke existing wallet and DIDDoc</text><line style="stroke:#181818;stroke-width:1.0;" x1="331" x2="373" y1="531.7461" y2="531.7461"/><line style="stroke:#181818;stroke-width:1.0;" x1="373" x2="373" y1="531.7461" y2="544.7461"/><line style="stroke:#181818;stroke-width:1.0;" x1="332" x2="373" y1="544.7461" y2="544.7461"/><polygon fill="#181818" points="342,540.7461,332,544.7461,342,548.7461,338,544.7461" style="stroke:#181818;stroke-width:1.0;"/><text fill="#000000" font-family="sans-serif" font-size="13" lengthAdjust="spacing" textLength="237" x="338" y="527.0039">Update information (user, wallet, app)</text><line style="stroke:#181818;stroke-width:1.0;" x1="64" x2="74" y1="574.0566" y2="570.0566"/><line style="stroke:#181818;stroke-width:1.0;" x1="64" x2="74" y1="574.0566" y2="578.0566"/><line style="stroke:#181818;stroke-width:1.0;stroke-dasharray:2.0,2.0;" x1="63" x2="330" y1="574.0566" y2="574.0566"/><text fill="#000000" font-family="sans-serif" font-size="13" lengthAdjust="spacing" textLength="18" x="80" y="569.3145">OK</text><line style="stroke:#181818;stroke-width:1.0;" x1="329" x2="319" y1="610.3672" y2="606.3672"/><line style="stroke:#181818;stroke-width:1.0;" x1="329" x2="319" y1="610.3672" y2="614.3672"/><line style="stroke:#181818;stroke-width:1.0;" x1="63" x2="330" y1="610.3672" y2="610.3672"/><text fill="#000000" font-family="sans-serif" font-size="13" lengthAdjust="spacing" textLength="126" x="70" y="605.625">Verification Request</text><line style="stroke:#181818;stroke-width:1.0;" x1="64" x2="74" y1="639.6777" y2="635.6777"/><line style="stroke:#181818;stroke-width:1.0;" x1="64" x2="74" y1="639.6777" y2="643.6777"/><line style="stroke:#181818;stroke-width:1.0;stroke-dasharray:2.0,2.0;" x1="63" x2="330" y1="639.6777" y2="639.6777"/><text fill="#000000" font-family="sans-serif" font-size="13" lengthAdjust="spacing" textLength="18" x="80" y="634.9355">OK</text><!--SRC=[tLFBRi8m4BpdArQS4Wdw0HoG45oYgcfL-ZXRoHfMDMlNTg3yVTSXWL9ogNeZKYBRixCxCrQSyf4gSeeZAET01HWj3A5ivywDClS3Zm8c_6M-WXNw7VfHbYNIP3PhmIaybIKyuvf2z2gIPTbyDXWYv88KMIgQfEh4cWeOdEM0aBzlC6xGmznuLFMXwu4Uwq96c0XImD04uZKe1lmIDAttoXYC6SXpAQIV6wsmS930DY9uMcyYMDtH5ehbU8W2f87aAn50JLgBDecanXrL2DhRBOW1S5uER1FC0Vp90bZ6ktPawx-N-Efg9Gg8jVNROrgv3FRZPAKurv_pUhpFq8YqDeo-Vni9CEvxeVbAZWpssfp4Ac-mN0paj2oNIriDtjcrubA3wYxex6uiwvtzk0vCSTsr_ult8_dV6Jmq9f8xfH1kCGQkV_z-RnA5fkfI_nNp6m00]--></g></svg>