<?xml version="1.0" encoding="us-ascii" standalone="no"?><svg xmlns="http://www.w3.org/2000/svg" xmlns:xlink="http://www.w3.org/1999/xlink" contentStyleType="text/css" height="715px" preserveAspectRatio="none" style="width:686px;height:715px;background:#FFFFFF;" version="1.1" viewBox="0 0 686 715" width="686px" zoomAndPan="magnify"><defs/><g><ellipse cx="343" cy="20" fill="#222222" rx="10" ry="10" style="stroke:#222222;stroke-width:1.0;"/><rect fill="#555555" height="6" rx="2.5" ry="2.5" style="stroke:#555555;stroke-width:1.0;" width="664" x="11" y="50"/><rect fill="none" height="167.1943" style="stroke:#000000;stroke-width:1.5;" width="250" x="23" y="88.4707"/><path d="M107,88.4707 L107,100.7002 L97,110.7002 L23,110.7002 " fill="none" style="stroke:#000000;stroke-width:1.5;"/><text fill="#000000" font-family="sans-serif" font-size="14" lengthAdjust="spacing" textLength="74" x="26" y="105.624">&#48156;&#44553; &#49324;&#50629;&#51088;</text><rect fill="#F1F1F1" height="36.4824" rx="12.5" ry="12.5" style="stroke:#181818;stroke-width:0.5;" width="131" x="82.5" y="127.7002"/><text fill="#000000" font-family="sans-serif" font-size="12" font-weight="bold" lengthAdjust="spacing" textLength="28" x="92.5" y="151.5459">C1.1.</text><text fill="#000000" font-family="sans-serif" font-size="12" lengthAdjust="spacing" textLength="80" x="123.5" y="151.5459">&#48156;&#44553; Offer &#49373;&#49457;</text><rect fill="#F1F1F1" height="36.4824" rx="12.5" ry="12.5" style="stroke:#181818;stroke-width:0.5;" width="230" x="33" y="199.1826"/><text fill="#000000" font-family="sans-serif" font-size="12" font-weight="bold" lengthAdjust="spacing" textLength="28" x="43" y="223.0283">C1.2.</text><text fill="#000000" font-family="sans-serif" font-size="12" lengthAdjust="spacing" textLength="179" x="74" y="223.0283">&#48156;&#44553; Offer &#48156;&#49569;(&#51060;&#47700;&#51068;, PUSH &#46321;)</text><rect fill="none" height="204.1357" style="stroke:#000000;stroke-width:1.5;" width="362" x="301" y="66"/><path d="M353,66 L353,78.2295 L343,88.2295 L301,88.2295 " fill="none" style="stroke:#000000;stroke-width:1.5;"/><text fill="#000000" font-family="sans-serif" font-size="14" lengthAdjust="spacing" textLength="42" x="304" y="83.1533">&#51064;&#44032;&#50545;</text><path d="M495,105.2295 L495,141.9414 L475,145.9414 L495,149.9414 L495,186.6533 A0,0 0 0 0 495,186.6533 L653,186.6533 A0,0 0 0 0 653,186.6533 L653,115.2295 L643,105.2295 L495,105.2295 A0,0 0 0 0 495,105.2295 " fill="#FEFFDD" style="stroke:#181818;stroke-width:0.5;"/><path d="M643,105.2295 L643,115.2295 L653,115.2295 L643,105.2295 " fill="#FEFFDD" style="stroke:#181818;stroke-width:0.5;"/><text fill="#000000" font-family="sans-serif" font-size="13" lengthAdjust="spacing" textLength="137" x="501" y="125.229">[&#51064;&#44032;&#50545; &#8594; &#47785;&#47197; &#49324;&#50629;&#51088;]</text><ellipse cx="506.5" cy="138.4414" fill="#000000" rx="2.5" ry="2.5" style="stroke:#000000;stroke-width:0.0;"/><text fill="#000000" font-family="sans-serif" font-size="13" lengthAdjust="spacing" textLength="77" x="513" y="143.085">List Category</text><ellipse cx="506.5" cy="156.2974" fill="#000000" rx="2.5" ry="2.5" style="stroke:#000000;stroke-width:0.0;"/><text fill="#000000" font-family="sans-serif" font-size="13" lengthAdjust="spacing" textLength="93" x="513" y="160.9409">Search VC Plan</text><ellipse cx="506.5" cy="174.1533" fill="#000000" rx="2.5" ry="2.5" style="stroke:#000000;stroke-width:0.0;"/><text fill="#000000" font-family="sans-serif" font-size="13" lengthAdjust="spacing" textLength="73" x="513" y="178.7969">List VC Plan</text><rect fill="#F1F1F1" height="36.4824" rx="12.5" ry="12.5" style="stroke:#181818;stroke-width:0.5;" width="164" x="311" y="127.7002"/><text fill="#000000" font-family="sans-serif" font-size="12" font-weight="bold" lengthAdjust="spacing" textLength="28" x="321" y="151.5459">C2.1.</text><text fill="#000000" font-family="sans-serif" font-size="12" lengthAdjust="spacing" textLength="113" x="352" y="151.5459">VC Plan &#44160;&#49353; &#48143; &#51312;&#54924;</text><rect fill="#F1F1F1" height="36.4824" rx="12.5" ry="12.5" style="stroke:#181818;stroke-width:0.5;" width="161" x="312.5" y="221.6533"/><text fill="#000000" font-family="sans-serif" font-size="12" font-weight="bold" lengthAdjust="spacing" textLength="28" x="322.5" y="245.499">C2.2.</text><text fill="#000000" font-family="sans-serif" font-size="12" lengthAdjust="spacing" textLength="110" x="353.5" y="245.499">&#48156;&#44553;&#54624; VC Plan &#49440;&#53469;</text><rect fill="#555555" height="6" rx="2.5" ry="2.5" style="stroke:#555555;stroke-width:1.0;" width="664" x="11" y="290.1357"/><path d="M422.5,311.521 L422.5,330.377 L402.5,334.377 L422.5,338.377 L422.5,357.2329 A0,0 0 0 0 422.5,357.2329 L560.5,357.2329 A0,0 0 0 0 560.5,357.2329 L560.5,321.521 L550.5,311.521 L422.5,311.521 A0,0 0 0 0 422.5,311.521 " fill="#FEFFDD" style="stroke:#181818;stroke-width:0.5;"/><path d="M550.5,311.521 L550.5,321.521 L560.5,321.521 L550.5,311.521 " fill="#FEFFDD" style="stroke:#181818;stroke-width:0.5;"/><text fill="#000000" font-family="sans-serif" font-size="13" lengthAdjust="spacing" textLength="93" x="428.5" y="331.5205">[&#51064;&#44032;&#50545; &#8594; TAS]</text><ellipse cx="434" cy="344.7329" fill="#000000" rx="2.5" ry="2.5" style="stroke:#000000;stroke-width:0.0;"/><text fill="#000000" font-family="sans-serif" font-size="13" lengthAdjust="spacing" textLength="105" x="440.5" y="349.3765">Propose Issue VC</text><rect fill="#F1F1F1" height="36.4824" rx="12.5" ry="12.5" style="stroke:#181818;stroke-width:0.5;" width="119" x="283.5" y="316.1357"/><text fill="#000000" font-family="sans-serif" font-size="12" font-weight="bold" lengthAdjust="spacing" textLength="18" x="293.5" y="339.9814">D1.</text><text fill="#000000" font-family="sans-serif" font-size="12" lengthAdjust="spacing" textLength="78" x="314.5" y="339.9814">&#48156;&#44553; &#49884;&#51089; &#50836;&#52397;</text><path d="M401,372.6182 L401,391.4741 L381,395.4741 L401,399.4741 L401,418.3301 A0,0 0 0 0 401,418.3301 L522,418.3301 A0,0 0 0 0 522,418.3301 L522,382.6182 L512,372.6182 L401,372.6182 A0,0 0 0 0 401,372.6182 " fill="#FEFFDD" style="stroke:#181818;stroke-width:0.5;"/><path d="M512,372.6182 L512,382.6182 L522,382.6182 L512,372.6182 " fill="#FEFFDD" style="stroke:#181818;stroke-width:0.5;"/><text fill="#000000" font-family="sans-serif" font-size="13" lengthAdjust="spacing" textLength="93" x="407" y="392.6177">[&#51064;&#44032;&#50545; &#8594; TAS]</text><ellipse cx="412.5" cy="405.8301" fill="#000000" rx="2.5" ry="2.5" style="stroke:#000000;stroke-width:0.0;"/><text fill="#000000" font-family="sans-serif" font-size="13" lengthAdjust="spacing" textLength="88" x="419" y="410.4736">Request ECDH</text><rect fill="#F1F1F1" height="36.4824" rx="12.5" ry="12.5" style="stroke:#181818;stroke-width:0.5;" width="76" x="305" y="377.2329"/><text fill="#000000" font-family="sans-serif" font-size="12" font-weight="bold" lengthAdjust="spacing" textLength="18" x="315" y="401.0786">D2.</text><text fill="#000000" font-family="sans-serif" font-size="12" lengthAdjust="spacing" textLength="35" x="336" y="401.0786">ECDH</text><path d="M448,433.7153 L448,452.5713 L428,456.5713 L448,460.5713 L448,479.4272 A0,0 0 0 0 448,479.4272 L610,479.4272 A0,0 0 0 0 610,479.4272 L610,443.7153 L600,433.7153 L448,433.7153 A0,0 0 0 0 448,433.7153 " fill="#FEFFDD" style="stroke:#181818;stroke-width:0.5;"/><path d="M600,433.7153 L600,443.7153 L610,443.7153 L600,433.7153 " fill="#FEFFDD" style="stroke:#181818;stroke-width:0.5;"/><text fill="#000000" font-family="sans-serif" font-size="13" lengthAdjust="spacing" textLength="93" x="454" y="453.7148">[&#51064;&#44032;&#50545; &#8594; TAS]</text><ellipse cx="459.5" cy="466.9272" fill="#000000" rx="2.5" ry="2.5" style="stroke:#000000;stroke-width:0.0;"/><text fill="#000000" font-family="sans-serif" font-size="13" lengthAdjust="spacing" textLength="129" x="466" y="471.5708">Request Create Token</text><rect fill="#F1F1F1" height="36.4824" rx="12.5" ry="12.5" style="stroke:#181818;stroke-width:0.5;" width="170" x="258" y="438.3301"/><text fill="#000000" font-family="sans-serif" font-size="12" font-weight="bold" lengthAdjust="spacing" textLength="18" x="268" y="462.1758">D3.</text><text fill="#000000" font-family="sans-serif" font-size="12" lengthAdjust="spacing" textLength="129" x="289" y="462.1758">&#50900;&#47131;&#53664;&#53360;, &#49436;&#48260;&#53664;&#53360; &#49373;&#49457;</text><path d="M431.5,494.8125 L431.5,513.6685 L411.5,517.6685 L431.5,521.6685 L431.5,540.5244 A0,0 0 0 0 431.5,540.5244 L587.5,540.5244 A0,0 0 0 0 587.5,540.5244 L587.5,504.8125 L577.5,494.8125 L431.5,494.8125 A0,0 0 0 0 431.5,494.8125 " fill="#FEFFDD" style="stroke:#181818;stroke-width:0.5;"/><path d="M577.5,494.8125 L577.5,504.8125 L587.5,504.8125 L577.5,494.8125 " fill="#FEFFDD" style="stroke:#181818;stroke-width:0.5;"/><text fill="#000000" font-family="sans-serif" font-size="13" lengthAdjust="spacing" textLength="93" x="437.5" y="514.812">[&#51064;&#44032;&#50545; &#8594; TAS]</text><ellipse cx="443" cy="528.0244" fill="#000000" rx="2.5" ry="2.5" style="stroke:#000000;stroke-width:0.0;"/><text fill="#000000" font-family="sans-serif" font-size="13" lengthAdjust="spacing" textLength="123" x="449.5" y="532.668">Request Issue Profile</text><rect fill="#F1F1F1" height="36.4824" rx="12.5" ry="12.5" style="stroke:#181818;stroke-width:0.5;" width="137" x="274.5" y="499.4272"/><text fill="#000000" font-family="sans-serif" font-size="12" font-weight="bold" lengthAdjust="spacing" textLength="18" x="284.5" y="523.2729">D4.</text><text fill="#000000" font-family="sans-serif" font-size="12" lengthAdjust="spacing" textLength="96" x="305.5" y="523.2729">Issue Profile &#50836;&#52397;</text><path d="M442,555.9097 L442,574.7656 L422,578.7656 L442,582.7656 L442,601.6216 A0,0 0 0 0 442,601.6216 L580,601.6216 A0,0 0 0 0 580,601.6216 L580,565.9097 L570,555.9097 L442,555.9097 A0,0 0 0 0 442,555.9097 " fill="#FEFFDD" style="stroke:#181818;stroke-width:0.5;"/><path d="M570,555.9097 L570,565.9097 L580,565.9097 L570,555.9097 " fill="#FEFFDD" style="stroke:#181818;stroke-width:0.5;"/><text fill="#000000" font-family="sans-serif" font-size="13" lengthAdjust="spacing" textLength="80" x="448" y="575.9092">[&#50900;&#47131; &#8594; TAS]</text><ellipse cx="453.5" cy="589.1216" fill="#000000" rx="2.5" ry="2.5" style="stroke:#000000;stroke-width:0.0;"/><text fill="#000000" font-family="sans-serif" font-size="13" lengthAdjust="spacing" textLength="105" x="460" y="593.7651">Request Issue VC</text><rect fill="#F1F1F1" height="36.4824" rx="12.5" ry="12.5" style="stroke:#181818;stroke-width:0.5;" width="158" x="264" y="560.5244"/><text fill="#000000" font-family="sans-serif" font-size="12" font-weight="bold" lengthAdjust="spacing" textLength="18" x="274" y="584.3701">D5.</text><text fill="#000000" font-family="sans-serif" font-size="12" lengthAdjust="spacing" textLength="117" x="295" y="584.3701">DID Auth &#48143; &#48156;&#44553; &#50836;&#52397;</text><path d="M409,617.0068 L409,635.8628 L389,639.8628 L409,643.8628 L409,662.7188 A0,0 0 0 0 409,662.7188 L543,662.7188 A0,0 0 0 0 543,662.7188 L543,627.0068 L533,617.0068 L409,617.0068 A0,0 0 0 0 409,617.0068 " fill="#FEFFDD" style="stroke:#181818;stroke-width:0.5;"/><path d="M533,617.0068 L533,627.0068 L543,627.0068 L533,617.0068 " fill="#FEFFDD" style="stroke:#181818;stroke-width:0.5;"/><text fill="#000000" font-family="sans-serif" font-size="13" lengthAdjust="spacing" textLength="93" x="415" y="637.0063">[&#51064;&#44032;&#50545; &#8594; TAS]</text><ellipse cx="420.5" cy="650.2188" fill="#000000" rx="2.5" ry="2.5" style="stroke:#000000;stroke-width:0.0;"/><text fill="#000000" font-family="sans-serif" font-size="13" lengthAdjust="spacing" textLength="101" x="427" y="654.8623">Confirm Issue VC</text><rect fill="#F1F1F1" height="36.4824" rx="12.5" ry="12.5" style="stroke:#181818;stroke-width:0.5;" width="92" x="297" y="621.6216"/><text fill="#000000" font-family="sans-serif" font-size="12" font-weight="bold" lengthAdjust="spacing" textLength="18" x="307" y="645.4673">D6.</text><text fill="#000000" font-family="sans-serif" font-size="12" lengthAdjust="spacing" textLength="51" x="328" y="645.4673">&#48156;&#44553; &#50756;&#47308;</text><ellipse cx="343" cy="693.7188" fill="none" rx="11" ry="11" style="stroke:#222222;stroke-width:1.0;"/><ellipse cx="343" cy="693.7188" fill="#222222" rx="6" ry="6" style="stroke:#222222;stroke-width:1.0;"/><line style="stroke:#181818;stroke-width:1.0;" x1="148" x2="148" y1="164.1826" y2="199.1826"/><polygon fill="#181818" points="144,189.1826,148,199.1826,152,189.1826,148,193.1826" style="stroke:#181818;stroke-width:1.0;"/><line style="stroke:#181818;stroke-width:1.0;" x1="393" x2="393" y1="164.1826" y2="221.6533"/><polygon fill="#181818" points="389,211.6533,393,221.6533,397,211.6533,393,215.6533" style="stroke:#181818;stroke-width:1.0;"/><line style="stroke:#181818;stroke-width:1.0;" x1="148" x2="148" y1="56" y2="127.7002"/><polygon fill="#181818" points="144,117.7002,148,127.7002,152,117.7002,148,121.7002" style="stroke:#181818;stroke-width:1.0;"/><line style="stroke:#181818;stroke-width:1.0;" x1="393" x2="393" y1="56" y2="127.7002"/><polygon fill="#181818" points="389,117.7002,393,127.7002,397,117.7002,393,121.7002" style="stroke:#181818;stroke-width:1.0;"/><line style="stroke:#181818;stroke-width:1.0;" x1="148" x2="148" y1="235.665" y2="290.1357"/><polygon fill="#181818" points="144,280.1357,148,290.1357,152,280.1357,148,284.1357" style="stroke:#181818;stroke-width:1.0;"/><line style="stroke:#181818;stroke-width:1.0;" x1="393" x2="393" y1="258.1357" y2="290.1357"/><polygon fill="#181818" points="389,280.1357,393,290.1357,397,280.1357,393,284.1357" style="stroke:#181818;stroke-width:1.0;"/><line style="stroke:#181818;stroke-width:1.0;" x1="343" x2="343" y1="30" y2="50"/><polygon fill="#181818" points="339,40,343,50,347,40,343,44" style="stroke:#181818;stroke-width:1.0;"/><line style="stroke:#181818;stroke-width:1.0;" x1="343" x2="343" y1="296.1357" y2="316.1357"/><polygon fill="#181818" points="339,306.1357,343,316.1357,347,306.1357,343,310.1357" style="stroke:#181818;stroke-width:1.0;"/><line style="stroke:#181818;stroke-width:1.0;" x1="343" x2="343" y1="352.6182" y2="377.2329"/><polygon fill="#181818" points="339,367.2329,343,377.2329,347,367.2329,343,371.2329" style="stroke:#181818;stroke-width:1.0;"/><line style="stroke:#181818;stroke-width:1.0;" x1="343" x2="343" y1="413.7153" y2="438.3301"/><polygon fill="#181818" points="339,428.3301,343,438.3301,347,428.3301,343,432.3301" style="stroke:#181818;stroke-width:1.0;"/><line style="stroke:#181818;stroke-width:1.0;" x1="343" x2="343" y1="474.8125" y2="499.4272"/><polygon fill="#181818" points="339,489.4272,343,499.4272,347,489.4272,343,493.4272" style="stroke:#181818;stroke-width:1.0;"/><line style="stroke:#181818;stroke-width:1.0;" x1="343" x2="343" y1="535.9097" y2="560.5244"/><polygon fill="#181818" points="339,550.5244,343,560.5244,347,550.5244,343,554.5244" style="stroke:#181818;stroke-width:1.0;"/><line style="stroke:#181818;stroke-width:1.0;" x1="343" x2="343" y1="597.0068" y2="621.6216"/><polygon fill="#181818" points="339,611.6216,343,621.6216,347,611.6216,343,615.6216" style="stroke:#181818;stroke-width:1.0;"/><line style="stroke:#181818;stroke-width:1.0;" x1="343" x2="343" y1="658.104" y2="682.7188"/><polygon fill="#181818" points="339,672.7188,343,682.7188,347,672.7188,343,676.7188" style="stroke:#181818;stroke-width:1.0;"/><!--SRC=[bL9BIyD04BxdLmoUD4YXlWvwAgcW85YiUX4FGJTjKBDrips826fhGHHyjOZQb1PF5OMsUF3Wh_7OJFw3cyG-N1_GlStkpFUORsskCwue1cLR2eYJ4QN9JMh1aDiejzzE0O-VyVO4AvT3i1-q-6TQLRLe91fHLVXgMpGCmW1p3kQRCrBVs8y-KM2XDepEgrilelC-2ecLv1ouDysHSFWWa0HwIZSjMHWwR-t68PQQigAnKD6g1ebjtO9swn1pfuBh0h3MyExFUxeioWamCvNctIl_h7MXuQDm3UvJtQqvlGsiVsjMOS6qEMWw9odAzgIt9D7PHhgZvRT1-ObOcu4kHVBKjpslLEswmtpLopcTRVd3GOYA68ht1uDdPQnS0TuNiVKoeqZE9SVBiMHeKeK4enbg4vYtxImHh4fFdqyHg9hLudC3G2wHtImHplqn2MxSXyE7ebjzy0fLxwWnAWoMtLO-hBeVQs0kZH4H42pJBM99d1C-PsXFc3NCRJBubZeqts0adacV9puVXrYMfuFls8dcBxPW3_zJ_GXagZ_pkxpxU3w03OrQXibsViEsESry0W00]--></g></svg>