<?xml version="1.0" encoding="UTF-8"?><svg xmlns="http://www.w3.org/2000/svg" xmlns:xlink="http://www.w3.org/1999/xlink" fill-opacity="1" color-rendering="auto" color-interpolation="auto" text-rendering="auto" stroke="black" stroke-linecap="square" width="285" stroke-miterlimit="10" shape-rendering="auto" stroke-opacity="1" fill="black" stroke-dasharray="none" font-weight="normal" stroke-width="1" height="374" font-family="'Dialog'" font-style="normal" stroke-linejoin="miter" font-size="12px" stroke-dashoffset="0" image-rendering="auto">
  <!--Generated by ySVG 2.6-->
  <defs id="genericDefs"/>
  <g>
    <defs id="defs1">
      <linearGradient x1="618.2239" gradientUnits="userSpaceOnUse" x2="737.6384" y1="239.3729" y2="279.3729" id="linearGradient1" spreadMethod="reflect">
        <stop stop-opacity="1" stop-color="rgb(232,238,247)" offset="0%"/>
        <stop stop-opacity="1" stop-color="rgb(183,201,227)" offset="100%"/>
      </linearGradient>
      <linearGradient x1="618.2239" gradientUnits="userSpaceOnUse" x2="737.6384" y1="334.4377" y2="366.4377" id="linearGradient2" spreadMethod="reflect">
        <stop stop-opacity="1" stop-color="white" offset="0%"/>
        <stop stop-opacity="1" stop-color="white" offset="100%"/>
      </linearGradient>
      <linearGradient x1="618.2239" gradientUnits="userSpaceOnUse" x2="737.6384" y1="380.5024" y2="412.5024" id="linearGradient3" spreadMethod="reflect">
        <stop stop-opacity="1" stop-color="white" offset="0%"/>
        <stop stop-opacity="1" stop-color="white" offset="100%"/>
      </linearGradient>
      <linearGradient x1="618.2239" gradientUnits="userSpaceOnUse" x2="737.6384" y1="426.5672" y2="458.5672" id="linearGradient4" spreadMethod="reflect">
        <stop stop-opacity="1" stop-color="white" offset="0%"/>
        <stop stop-opacity="1" stop-color="white" offset="100%"/>
      </linearGradient>
      <clipPath clipPathUnits="userSpaceOnUse" id="clipPath1">
        <path d="M0 0 L285 0 L285 374 L0 374 L0 0 Z"/>
      </clipPath>
      <clipPath clipPathUnits="userSpaceOnUse" id="clipPath2">
        <path d="M538 151 L823 151 L823 525 L538 525 L538 151 Z"/>
      </clipPath>
    </defs>
    <g fill="white" text-rendering="geometricPrecision" shape-rendering="geometricPrecision" transform="translate(-538,-151)" stroke="white">
      <rect x="538" width="285" height="374" y="151" clip-path="url(#clipPath2)" stroke="none"/>
    </g>
    <g fill="rgb(245,245,245)" text-rendering="geometricPrecision" shape-rendering="geometricPrecision" transform="matrix(1,0,0,1,-538,-151)" stroke="rgb(245,245,245)">
      <rect x="553.5903" y="166.0409" clip-path="url(#clipPath2)" width="253.5706" rx="4" ry="4" height="343.3074" stroke="none"/>
      <rect x="553.5903" y="166.0409" clip-path="url(#clipPath2)" fill="rgb(235,235,235)" width="253.5706" height="21.666" stroke="none"/>
    </g>
    <g font-size="15px" stroke-linecap="butt" transform="matrix(1,0,0,1,-538,-151)" text-rendering="geometricPrecision" font-family="sans-serif" shape-rendering="geometricPrecision" stroke-miterlimit="1.45">
      <text x="650.5367" xml:space="preserve" y="182.5428" clip-path="url(#clipPath2)" stroke="none">Provider</text>
      <rect x="553.5903" y="166.0409" clip-path="url(#clipPath2)" fill="none" width="253.5706" stroke-dasharray="6,2" rx="4" ry="4" height="343.3074"/>
    </g>
    <g fill="rgb(225,225,225)" text-rendering="geometricPrecision" shape-rendering="geometricPrecision" transform="matrix(1,0,0,1,-538,-151)" stroke="rgb(225,225,225)">
      <rect x="572.7769" y="202.7069" clip-path="url(#clipPath2)" width="219.384" rx="4" ry="4" height="290.7308" stroke="none"/>
      <rect x="572.7769" y="202.7069" clip-path="url(#clipPath2)" fill="rgb(235,235,235)" width="219.384" height="21.666" stroke="none"/>
    </g>
    <g font-size="15px" stroke-linecap="butt" transform="matrix(1,0,0,1,-538,-151)" text-rendering="geometricPrecision" font-family="sans-serif" shape-rendering="geometricPrecision" stroke-miterlimit="1.45">
      <text x="657.1124" xml:space="preserve" y="219.2089" clip-path="url(#clipPath2)" stroke="none">Service</text>
      <rect x="572.7769" y="202.7069" clip-path="url(#clipPath2)" fill="none" width="219.384" stroke-dasharray="6,2" rx="4" ry="4" height="290.7308"/>
    </g>
    <g fill="url(#linearGradient1)" text-rendering="geometricPrecision" shape-rendering="geometricPrecision" transform="matrix(1,0,0,1,-538,-151)" stroke="url(#linearGradient1)">
      <path d="M618.2239 239.3729 L737.6384 239.3729 L737.6384 279.3729 L618.2239 279.3729 Z" stroke="none" clip-path="url(#clipPath2)"/>
    </g>
    <g text-rendering="geometricPrecision" stroke-miterlimit="1.45" shape-rendering="geometricPrecision" transform="matrix(1,0,0,1,-538,-151)" stroke-linecap="butt">
      <path fill="none" d="M618.2239 239.3729 L737.6384 239.3729 L737.6384 279.3729 L618.2239 279.3729 Z" clip-path="url(#clipPath2)"/>
      <text x="661.5981" xml:space="preserve" y="263.9081" clip-path="url(#clipPath2)" font-family="sans-serif" stroke="none">Entity</text>
    </g>
    <g fill="rgb(215,215,215)" text-rendering="geometricPrecision" shape-rendering="geometricPrecision" transform="matrix(1,0,0,1,-538,-151)" stroke="rgb(215,215,215)">
      <rect x="587.7769" y="297.7717" clip-path="url(#clipPath2)" width="180.3086" rx="4" ry="4" height="175.7955" stroke="none"/>
      <rect x="587.7769" y="297.7717" clip-path="url(#clipPath2)" fill="white" width="180.3086" height="21.666" stroke="none"/>
    </g>
    <g font-size="15px" stroke-linecap="butt" transform="matrix(1,0,0,1,-538,-151)" text-rendering="geometricPrecision" font-family="sans-serif" shape-rendering="geometricPrecision" stroke-miterlimit="1.45">
      <text x="656.0537" xml:space="preserve" y="314.2736" clip-path="url(#clipPath2)" stroke="none">Wallet</text>
      <rect x="587.7769" y="297.7717" clip-path="url(#clipPath2)" fill="none" width="180.3086" stroke-dasharray="6,2" rx="4" ry="4" height="175.7955"/>
    </g>
    <g fill="url(#linearGradient2)" text-rendering="geometricPrecision" shape-rendering="geometricPrecision" transform="matrix(1,0,0,1,-538,-151)" stroke="url(#linearGradient2)">
      <path d="M618.2239 334.4377 L737.6384 334.4377 L737.6384 366.4377 L618.2239 366.4377 Z" stroke="none" clip-path="url(#clipPath2)"/>
    </g>
    <g text-rendering="geometricPrecision" stroke-miterlimit="1.45" shape-rendering="geometricPrecision" transform="matrix(1,0,0,1,-538,-151)" stroke-linecap="butt">
      <path fill="none" d="M618.2239 334.4377 L737.6384 334.4377 L737.6384 366.4377 L618.2239 366.4377 Z" clip-path="url(#clipPath2)"/>
      <text x="667.2144" xml:space="preserve" y="354.9728" clip-path="url(#clipPath2)" font-family="sans-serif" stroke="none">DID</text>
    </g>
    <g fill="url(#linearGradient3)" text-rendering="geometricPrecision" shape-rendering="geometricPrecision" transform="matrix(1,0,0,1,-538,-151)" stroke="url(#linearGradient3)">
      <path d="M618.2239 380.5024 L737.6384 380.5024 L737.6384 412.5024 L618.2239 412.5024 Z" stroke="none" clip-path="url(#clipPath2)"/>
    </g>
    <g text-rendering="geometricPrecision" stroke-miterlimit="1.45" shape-rendering="geometricPrecision" transform="matrix(1,0,0,1,-538,-151)" stroke-linecap="butt">
      <path fill="none" d="M618.2239 380.5024 L737.6384 380.5024 L737.6384 412.5024 L618.2239 412.5024 Z" clip-path="url(#clipPath2)"/>
      <text x="647.8579" xml:space="preserve" y="401.0376" clip-path="url(#clipPath2)" font-family="sans-serif" stroke="none">Key Pair(s)</text>
    </g>
    <g fill="url(#linearGradient4)" text-rendering="geometricPrecision" shape-rendering="geometricPrecision" transform="matrix(1,0,0,1,-538,-151)" stroke="url(#linearGradient4)">
      <path d="M618.2239 426.5672 L737.6384 426.5672 L737.6384 458.5672 L618.2239 458.5672 Z" stroke="none" clip-path="url(#clipPath2)"/>
    </g>
    <g text-rendering="geometricPrecision" stroke-miterlimit="1.45" shape-rendering="geometricPrecision" transform="matrix(1,0,0,1,-538,-151)" stroke-linecap="butt">
      <path fill="none" d="M618.2239 426.5672 L737.6384 426.5672 L737.6384 458.5672 L618.2239 458.5672 Z" clip-path="url(#clipPath2)"/>
      <text x="604.7769" xml:space="preserve" y="447.1023" clip-path="url(#clipPath2)" font-family="sans-serif" stroke="none">Verifiable Credential (VC)</text>
    </g>
  </g>
</svg>
