<?xml version="1.0" encoding="UTF-8"?><svg xmlns="http://www.w3.org/2000/svg" xmlns:xlink="http://www.w3.org/1999/xlink" fill-opacity="1" color-rendering="auto" color-interpolation="auto" text-rendering="auto" stroke="black" stroke-linecap="square" width="624" stroke-miterlimit="10" shape-rendering="auto" stroke-opacity="1" fill="black" stroke-dasharray="none" font-weight="normal" stroke-width="1" height="327" font-family="'Dialog'" font-style="normal" stroke-linejoin="miter" font-size="12px" stroke-dashoffset="0" image-rendering="auto">
  <!--Generated by ySVG 2.6-->
  <defs id="genericDefs"/>
  <g>
    <defs id="defs1">
      <linearGradient x1="961.99" gradientUnits="userSpaceOnUse" x2="1081.4045" y1="298.6217" y2="338.6217" id="linearGradient1" spreadMethod="reflect">
        <stop stop-opacity="1" stop-color="rgb(232,238,247)" offset="0%"/>
        <stop stop-opacity="1" stop-color="rgb(183,201,227)" offset="100%"/>
      </linearGradient>
      <linearGradient x1="961.99" gradientUnits="userSpaceOnUse" x2="1081.4045" y1="358.6865" y2="398.6865" id="linearGradient2" spreadMethod="reflect">
        <stop stop-opacity="1" stop-color="white" offset="0%"/>
        <stop stop-opacity="1" stop-color="white" offset="100%"/>
      </linearGradient>
      <linearGradient x1="564.3732" gradientUnits="userSpaceOnUse" x2="683.7877" y1="298.6217" y2="338.6217" id="linearGradient3" spreadMethod="reflect">
        <stop stop-opacity="1" stop-color="rgb(232,238,247)" offset="0%"/>
        <stop stop-opacity="1" stop-color="rgb(183,201,227)" offset="100%"/>
      </linearGradient>
      <linearGradient x1="564.3732" gradientUnits="userSpaceOnUse" x2="683.7877" y1="358.1541" y2="398.1541" id="linearGradient4" spreadMethod="reflect">
        <stop stop-opacity="1" stop-color="rgb(232,238,247)" offset="0%"/>
        <stop stop-opacity="1" stop-color="rgb(183,201,227)" offset="100%"/>
      </linearGradient>
      <linearGradient x1="564.3732" gradientUnits="userSpaceOnUse" x2="683.7877" y1="422.6865" y2="462.6865" id="linearGradient5" spreadMethod="reflect">
        <stop stop-opacity="1" stop-color="white" offset="0%"/>
        <stop stop-opacity="1" stop-color="white" offset="100%"/>
      </linearGradient>
      <linearGradient x1="728.7877" gradientUnits="userSpaceOnUse" x2="848.2023" y1="298.6217" y2="338.6217" id="linearGradient6" spreadMethod="reflect">
        <stop stop-opacity="1" stop-color="rgb(232,238,247)" offset="0%"/>
        <stop stop-opacity="1" stop-color="rgb(183,201,227)" offset="100%"/>
      </linearGradient>
      <linearGradient x1="728.7877" gradientUnits="userSpaceOnUse" x2="848.2023" y1="358.1541" y2="398.1541" id="linearGradient7" spreadMethod="reflect">
        <stop stop-opacity="1" stop-color="white" offset="0%"/>
        <stop stop-opacity="1" stop-color="white" offset="100%"/>
      </linearGradient>
      <clipPath clipPathUnits="userSpaceOnUse" id="clipPath1">
        <path d="M0 0 L624 0 L624 327 L0 327 L0 0 Z"/>
      </clipPath>
      <clipPath clipPathUnits="userSpaceOnUse" id="clipPath2">
        <path d="M519 210 L1143 210 L1143 537 L519 537 L519 210 Z"/>
      </clipPath>
    </defs>
    <g fill="white" text-rendering="geometricPrecision" shape-rendering="geometricPrecision" transform="translate(-519,-210)" stroke="white">
      <rect x="519" width="624" height="327" y="210" clip-path="url(#clipPath2)" stroke="none"/>
    </g>
    <g fill="rgb(245,245,245)" text-rendering="geometricPrecision" shape-rendering="geometricPrecision" transform="matrix(1,0,0,1,-519,-210)" stroke="rgb(245,245,245)">
      <rect x="914.99" y="225.2897" clip-path="url(#clipPath2)" width="212.49" rx="4" ry="4" height="271.332" stroke="none"/>
      <rect x="914.99" y="225.2897" clip-path="url(#clipPath2)" fill="rgb(235,235,235)" width="212.49" height="21.666" stroke="none"/>
    </g>
    <g font-size="15px" stroke-linecap="butt" transform="matrix(1,0,0,1,-519,-210)" text-rendering="geometricPrecision" font-family="sans-serif" shape-rendering="geometricPrecision" stroke-miterlimit="1.45">
      <text x="984.709" xml:space="preserve" y="241.7916" clip-path="url(#clipPath2)" stroke="none">B Provider</text>
      <rect x="914.99" y="225.2897" clip-path="url(#clipPath2)" fill="none" width="212.49" stroke-dasharray="6,2" rx="4" ry="4" height="271.332"/>
    </g>
    <g fill="rgb(225,225,225)" text-rendering="geometricPrecision" shape-rendering="geometricPrecision" transform="matrix(1,0,0,1,-519,-210)" stroke="rgb(225,225,225)">
      <rect x="946.99" y="261.9557" clip-path="url(#clipPath2)" width="151.7877" rx="4" ry="4" height="210.7308" stroke="none"/>
      <rect x="946.99" y="261.9557" clip-path="url(#clipPath2)" fill="rgb(235,235,235)" width="151.7877" height="21.666" stroke="none"/>
    </g>
    <g font-size="15px" stroke-linecap="butt" transform="matrix(1,0,0,1,-519,-210)" text-rendering="geometricPrecision" font-family="sans-serif" shape-rendering="geometricPrecision" stroke-miterlimit="1.45">
      <text x="997.5273" xml:space="preserve" y="278.4576" clip-path="url(#clipPath2)" stroke="none">Service</text>
      <rect x="946.99" y="261.9557" clip-path="url(#clipPath2)" fill="none" width="151.7877" stroke-dasharray="6,2" rx="4" ry="4" height="210.7308"/>
    </g>
    <g fill="url(#linearGradient1)" text-rendering="geometricPrecision" shape-rendering="geometricPrecision" transform="matrix(1,0,0,1,-519,-210)" stroke="url(#linearGradient1)">
      <path d="M961.99 298.6217 L1081.4045 298.6217 L1081.4045 338.6217 L961.99 338.6217 Z" stroke="none" clip-path="url(#clipPath2)"/>
    </g>
    <g text-rendering="geometricPrecision" stroke-miterlimit="1.45" shape-rendering="geometricPrecision" transform="matrix(1,0,0,1,-519,-210)" stroke-linecap="butt">
      <path fill="none" d="M961.99 298.6217 L1081.4045 298.6217 L1081.4045 338.6217 L961.99 338.6217 Z" clip-path="url(#clipPath2)"/>
      <text x="1005.3643" xml:space="preserve" y="323.1569" clip-path="url(#clipPath2)" font-family="sans-serif" stroke="none">Entity</text>
    </g>
    <g fill="url(#linearGradient2)" text-rendering="geometricPrecision" shape-rendering="geometricPrecision" transform="matrix(1,0,0,1,-519,-210)" stroke="url(#linearGradient2)">
      <path d="M961.99 358.6865 L1081.4045 358.6865 L1081.4045 398.6865 L961.99 398.6865 Z" stroke="none" clip-path="url(#clipPath2)"/>
    </g>
    <g text-rendering="geometricPrecision" stroke-miterlimit="1.45" shape-rendering="geometricPrecision" transform="matrix(1,0,0,1,-519,-210)" stroke-linecap="butt">
      <path fill="none" d="M961.99 358.6865 L1081.4045 358.6865 L1081.4045 398.6865 L961.99 398.6865 Z" clip-path="url(#clipPath2)"/>
      <text x="1004.1953" xml:space="preserve" y="383.2216" clip-path="url(#clipPath2)" font-family="sans-serif" stroke="none">Wallet</text>
    </g>
    <g fill="rgb(245,245,245)" text-rendering="geometricPrecision" shape-rendering="geometricPrecision" transform="matrix(1,0,0,1,-519,-210)" stroke="rgb(245,245,245)">
      <rect x="534.3731" y="225.2897" clip-path="url(#clipPath2)" width="350.6168" rx="4" ry="4" height="296.332" stroke="none"/>
      <rect x="534.3731" y="225.2897" clip-path="url(#clipPath2)" fill="rgb(235,235,235)" width="350.6168" height="21.666" stroke="none"/>
    </g>
    <g font-size="15px" stroke-linecap="butt" transform="matrix(1,0,0,1,-519,-210)" text-rendering="geometricPrecision" font-family="sans-serif" shape-rendering="geometricPrecision" stroke-miterlimit="1.45">
      <text x="672.2951" xml:space="preserve" y="241.7916" clip-path="url(#clipPath2)" stroke="none">A Provider</text>
      <rect x="534.3731" y="225.2897" clip-path="url(#clipPath2)" fill="none" width="350.6168" stroke-dasharray="6,2" rx="4" ry="4" height="296.332"/>
    </g>
    <g fill="rgb(225,225,225)" text-rendering="geometricPrecision" shape-rendering="geometricPrecision" transform="matrix(1,0,0,1,-519,-210)" stroke="rgb(225,225,225)">
      <rect x="549.3731" y="261.9557" clip-path="url(#clipPath2)" width="149.4146" rx="4" ry="4" height="241.7308" stroke="none"/>
      <rect x="549.3731" y="261.9557" clip-path="url(#clipPath2)" fill="rgb(235,235,235)" width="149.4146" height="21.666" stroke="none"/>
    </g>
    <g font-size="15px" stroke-linecap="butt" transform="matrix(1,0,0,1,-519,-210)" text-rendering="geometricPrecision" font-family="sans-serif" shape-rendering="geometricPrecision" stroke-miterlimit="1.45">
      <text x="598.724" xml:space="preserve" y="278.4576" clip-path="url(#clipPath2)" stroke="none">Service</text>
      <rect x="549.3731" y="261.9557" clip-path="url(#clipPath2)" fill="none" width="149.4146" stroke-dasharray="6,2" rx="4" ry="4" height="241.7308"/>
    </g>
    <g fill="url(#linearGradient3)" text-rendering="geometricPrecision" shape-rendering="geometricPrecision" transform="matrix(1,0,0,1,-519,-210)" stroke="url(#linearGradient3)">
      <path d="M564.3732 298.6217 L683.7877 298.6217 L683.7877 338.6217 L564.3732 338.6217 Z" stroke="none" clip-path="url(#clipPath2)"/>
    </g>
    <g text-rendering="geometricPrecision" stroke-miterlimit="1.45" shape-rendering="geometricPrecision" transform="matrix(1,0,0,1,-519,-210)" stroke-linecap="butt">
      <path fill="none" d="M564.3732 298.6217 L683.7877 298.6217 L683.7877 338.6217 L564.3732 338.6217 Z" clip-path="url(#clipPath2)"/>
      <text x="607.7474" xml:space="preserve" y="323.1569" clip-path="url(#clipPath2)" font-family="sans-serif" stroke="none">Entity</text>
    </g>
    <g fill="url(#linearGradient4)" text-rendering="geometricPrecision" shape-rendering="geometricPrecision" transform="matrix(1,0,0,1,-519,-210)" stroke="url(#linearGradient4)">
      <path d="M564.3732 358.1541 L683.7877 358.1541 L683.7877 398.1541 L564.3732 398.1541 Z" stroke="none" clip-path="url(#clipPath2)"/>
    </g>
    <g text-rendering="geometricPrecision" stroke-miterlimit="1.45" shape-rendering="geometricPrecision" transform="matrix(1,0,0,1,-519,-210)" stroke-linecap="butt">
      <path fill="none" d="M564.3732 358.1541 L683.7877 358.1541 L683.7877 398.1541 L564.3732 398.1541 Z" clip-path="url(#clipPath2)"/>
      <text x="607.7474" xml:space="preserve" y="382.6892" clip-path="url(#clipPath2)" font-family="sans-serif" stroke="none">Entity</text>
    </g>
    <g fill="url(#linearGradient5)" text-rendering="geometricPrecision" shape-rendering="geometricPrecision" transform="matrix(1,0,0,1,-519,-210)" stroke="url(#linearGradient5)">
      <path d="M564.3732 422.6865 L683.7877 422.6865 L683.7877 462.6865 L564.3732 462.6865 Z" stroke="none" clip-path="url(#clipPath2)"/>
    </g>
    <g text-rendering="geometricPrecision" stroke-miterlimit="1.45" shape-rendering="geometricPrecision" transform="matrix(1,0,0,1,-519,-210)" stroke-linecap="butt">
      <path fill="none" d="M564.3732 422.6865 L683.7877 422.6865 L683.7877 462.6865 L564.3732 462.6865 Z" clip-path="url(#clipPath2)"/>
      <text x="606.5785" xml:space="preserve" y="447.2216" clip-path="url(#clipPath2)" font-family="sans-serif" stroke="none">Wallet</text>
    </g>
    <g fill="rgb(225,225,225)" text-rendering="geometricPrecision" shape-rendering="geometricPrecision" transform="matrix(1,0,0,1,-519,-210)" stroke="rgb(225,225,225)">
      <rect x="713.7877" y="261.9557" clip-path="url(#clipPath2)" width="151.7877" rx="4" ry="4" height="160.7308" stroke="none"/>
      <rect x="713.7877" y="261.9557" clip-path="url(#clipPath2)" fill="rgb(235,235,235)" width="151.7877" height="21.666" stroke="none"/>
    </g>
    <g font-size="15px" stroke-linecap="butt" transform="matrix(1,0,0,1,-519,-210)" text-rendering="geometricPrecision" font-family="sans-serif" shape-rendering="geometricPrecision" stroke-miterlimit="1.45">
      <text x="764.3251" xml:space="preserve" y="278.4576" clip-path="url(#clipPath2)" stroke="none">Service</text>
      <rect x="713.7877" y="261.9557" clip-path="url(#clipPath2)" fill="none" width="151.7877" stroke-dasharray="6,2" rx="4" ry="4" height="160.7308"/>
    </g>
    <g fill="url(#linearGradient6)" text-rendering="geometricPrecision" shape-rendering="geometricPrecision" transform="matrix(1,0,0,1,-519,-210)" stroke="url(#linearGradient6)">
      <path d="M728.7877 298.6217 L848.2023 298.6217 L848.2023 338.6217 L728.7877 338.6217 Z" stroke="none" clip-path="url(#clipPath2)"/>
    </g>
    <g text-rendering="geometricPrecision" stroke-miterlimit="1.45" shape-rendering="geometricPrecision" transform="matrix(1,0,0,1,-519,-210)" stroke-linecap="butt">
      <path fill="none" d="M728.7877 298.6217 L848.2023 298.6217 L848.2023 338.6217 L728.7877 338.6217 Z" clip-path="url(#clipPath2)"/>
      <text x="772.162" xml:space="preserve" y="323.1569" clip-path="url(#clipPath2)" font-family="sans-serif" stroke="none">Entity</text>
    </g>
    <g fill="url(#linearGradient7)" text-rendering="geometricPrecision" shape-rendering="geometricPrecision" transform="matrix(1,0,0,1,-519,-210)" stroke="url(#linearGradient7)">
      <path d="M728.7877 358.1541 L848.2023 358.1541 L848.2023 398.1541 L728.7877 398.1541 Z" stroke="none" clip-path="url(#clipPath2)"/>
    </g>
    <g text-rendering="geometricPrecision" stroke-miterlimit="1.45" shape-rendering="geometricPrecision" transform="matrix(1,0,0,1,-519,-210)" stroke-linecap="butt">
      <path fill="none" d="M728.7877 358.1541 L848.2023 358.1541 L848.2023 398.1541 L728.7877 398.1541 Z" clip-path="url(#clipPath2)"/>
      <text x="770.993" xml:space="preserve" y="382.6892" clip-path="url(#clipPath2)" font-family="sans-serif" stroke="none">Wallet</text>
    </g>
  </g>
</svg>
