<?xml version="1.0" encoding="UTF-8"?><svg xmlns="http://www.w3.org/2000/svg" xmlns:xlink="http://www.w3.org/1999/xlink" fill-opacity="1" color-rendering="auto" color-interpolation="auto" text-rendering="auto" stroke="black" stroke-linecap="square" width="370" stroke-miterlimit="10" shape-rendering="auto" stroke-opacity="1" fill="black" stroke-dasharray="none" font-weight="normal" stroke-width="1" height="494" font-family="'Dialog'" font-style="normal" stroke-linejoin="miter" font-size="12px" stroke-dashoffset="0" image-rendering="auto">
  <!--Generated by ySVG 2.6-->
  <defs id="genericDefs"/>
  <g>
    <defs id="defs1">
      <linearGradient x1="-137.7818" gradientUnits="userSpaceOnUse" x2="-36.4615" y1="503.6336" y2="543.6337" id="linearGradient1" spreadMethod="reflect">
        <stop stop-opacity="1" stop-color="rgb(232,238,247)" offset="0%"/>
        <stop stop-opacity="1" stop-color="rgb(183,201,227)" offset="100%"/>
      </linearGradient>
      <linearGradient x1="-137.7818" gradientUnits="userSpaceOnUse" x2="-36.4615" y1="776.871" y2="814.3212" id="linearGradient2" spreadMethod="reflect">
        <stop stop-opacity="1" stop-color="rgb(232,238,247)" offset="0%"/>
        <stop stop-opacity="1" stop-color="rgb(183,201,227)" offset="100%"/>
      </linearGradient>
      <linearGradient x1="-146.8289" gradientUnits="userSpaceOnUse" x2="-27.4144" y1="594.4796" y2="634.4796" id="linearGradient3" spreadMethod="reflect">
        <stop stop-opacity="1" stop-color="rgb(232,238,247)" offset="0%"/>
        <stop stop-opacity="1" stop-color="rgb(183,201,227)" offset="100%"/>
      </linearGradient>
      <linearGradient x1="-146.8289" gradientUnits="userSpaceOnUse" x2="-27.4144" y1="678.4669" y2="718.4669" id="linearGradient4" spreadMethod="reflect">
        <stop stop-opacity="1" stop-color="rgb(232,238,247)" offset="0%"/>
        <stop stop-opacity="1" stop-color="rgb(183,201,227)" offset="100%"/>
      </linearGradient>
      <clipPath clipPathUnits="userSpaceOnUse" id="clipPath1">
        <path d="M0 0 L370 0 L370 494 L0 494 L0 0 Z"/>
      </clipPath>
      <clipPath clipPathUnits="userSpaceOnUse" id="clipPath2">
        <path d="M-270 409 L100 409 L100 903 L-270 903 L-270 409 Z"/>
      </clipPath>
    </defs>
    <g fill="white" text-rendering="geometricPrecision" shape-rendering="geometricPrecision" transform="translate(270,-409)" stroke="white">
      <rect x="-270" width="370" height="494" y="409" clip-path="url(#clipPath2)" stroke="none"/>
    </g>
    <g fill="white" text-rendering="geometricPrecision" shape-rendering="geometricPrecision" transform="matrix(1,0,0,1,270,-409)" stroke="white">
      <rect x="-254.3291" width="338.4778" height="463.1134" y="424.7677" clip-path="url(#clipPath2)" stroke="none"/>
      <rect x="-254.3291" y="424.7677" clip-path="url(#clipPath2)" fill="rgb(235,235,235)" width="338.4778" height="21.666" stroke="none"/>
    </g>
    <g font-size="15px" stroke-linecap="butt" transform="matrix(1,0,0,1,270,-409)" text-rendering="geometricPrecision" font-family="sans-serif" shape-rendering="geometricPrecision" stroke-miterlimit="1.45">
      <text x="-145.6215" xml:space="preserve" y="441.2696" clip-path="url(#clipPath2)" stroke="none">DID Doc 생명 주기</text>
      <rect fill="none" x="-254.3291" width="338.4778" height="463.1134" y="424.7677" clip-path="url(#clipPath2)"/>
    </g>
    <g fill="url(#linearGradient1)" text-rendering="geometricPrecision" shape-rendering="geometricPrecision" transform="matrix(1,0,0,1,270,-409)" stroke="url(#linearGradient1)">
      <rect x="-137.7818" y="503.6336" clip-path="url(#clipPath2)" width="101.3203" rx="20" ry="20" height="40" stroke="none"/>
    </g>
    <g text-rendering="geometricPrecision" stroke-miterlimit="1.45" shape-rendering="geometricPrecision" transform="matrix(1,0,0,1,270,-409)" stroke-linecap="butt">
      <rect x="-137.7818" y="503.6336" clip-path="url(#clipPath2)" fill="none" width="101.3203" rx="20" ry="20" height="40"/>
      <text x="-123.2683" xml:space="preserve" y="528.1688" clip-path="url(#clipPath2)" font-family="sans-serif" stroke="none">DID Doc 생성</text>
    </g>
    <g fill="url(#linearGradient2)" text-rendering="geometricPrecision" shape-rendering="geometricPrecision" transform="matrix(1,0,0,1,270,-409)" stroke="url(#linearGradient2)">
      <rect x="-137.7818" y="776.8711" clip-path="url(#clipPath2)" width="101.3203" rx="18.7251" ry="18.7251" height="37.4501" stroke="none"/>
    </g>
    <g text-rendering="geometricPrecision" stroke-miterlimit="1.45" shape-rendering="geometricPrecision" transform="matrix(1,0,0,1,270,-409)" stroke-linecap="butt">
      <rect x="-137.7818" y="776.8711" clip-path="url(#clipPath2)" fill="none" width="101.3203" rx="18.7251" ry="18.7251" height="37.4501"/>
      <text x="-97.5017" xml:space="preserve" y="800.1313" clip-path="url(#clipPath2)" font-family="sans-serif" stroke="none">폐기</text>
    </g>
    <g fill="url(#linearGradient3)" text-rendering="geometricPrecision" shape-rendering="geometricPrecision" transform="matrix(1,0,0,1,270,-409)" stroke="url(#linearGradient3)">
      <path d="M-146.8289 594.4796 L-27.4144 594.4796 L-27.4144 634.4796 L-146.8289 634.4796 Z" stroke="none" clip-path="url(#clipPath2)"/>
    </g>
    <g text-rendering="geometricPrecision" stroke-miterlimit="1.45" shape-rendering="geometricPrecision" transform="matrix(1,0,0,1,270,-409)" stroke-linecap="butt">
      <path fill="none" d="M-146.8289 594.4796 L-27.4144 594.4796 L-27.4144 634.4796 L-146.8289 634.4796 Z" clip-path="url(#clipPath2)"/>
      <text x="-97.5017" xml:space="preserve" y="619.0148" clip-path="url(#clipPath2)" font-family="sans-serif" stroke="none">등록</text>
    </g>
    <g fill="url(#linearGradient4)" text-rendering="geometricPrecision" shape-rendering="geometricPrecision" transform="matrix(1,0,0,1,270,-409)" stroke="url(#linearGradient4)">
      <path d="M-146.8289 678.4669 L-27.4144 678.4669 L-27.4144 718.4669 L-146.8289 718.4669 Z" stroke="none" clip-path="url(#clipPath2)"/>
    </g>
    <g text-rendering="geometricPrecision" stroke-miterlimit="1.45" shape-rendering="geometricPrecision" transform="matrix(1,0,0,1,270,-409)" stroke-linecap="butt">
      <path fill="none" d="M-146.8289 678.4669 L-27.4144 678.4669 L-27.4144 718.4669 L-146.8289 718.4669 Z" clip-path="url(#clipPath2)"/>
      <text x="-97.5017" xml:space="preserve" y="703.002" clip-path="url(#clipPath2)" font-family="sans-serif" stroke="none">갱신</text>
    </g>
    <g text-rendering="geometricPrecision" stroke-miterlimit="1.45" shape-rendering="geometricPrecision" transform="matrix(1,0,0,1,270,-409)" stroke-linecap="butt">
      <path fill="none" d="M-87.1217 543.6434 L-87.1217 583.5052" clip-path="url(#clipPath2)"/>
      <path d="M-87.1217 594.5052 L-81.1217 582.5052 L-93.1217 582.5052 Z" clip-path="url(#clipPath2)" stroke="none"/>
    </g>
    <g text-rendering="geometricPrecision" stroke-miterlimit="1.45" shape-rendering="geometricPrecision" transform="matrix(1,0,0,1,270,-409)" stroke-linecap="butt">
      <path fill="none" d="M-87.1217 634.4512 L-87.1217 667.4932" clip-path="url(#clipPath2)"/>
      <path d="M-87.1217 678.4932 L-81.1217 666.4932 L-93.1217 666.4932 Z" clip-path="url(#clipPath2)" stroke="none"/>
    </g>
    <g text-rendering="geometricPrecision" stroke-miterlimit="1.45" shape-rendering="geometricPrecision" transform="matrix(1,0,0,1,270,-409)" stroke-linecap="butt">
      <path fill="none" d="M-87.1217 718.4333 L-87.1217 765.8706" clip-path="url(#clipPath2)"/>
      <path d="M-87.1217 776.8706 L-81.1217 764.8706 L-93.1217 764.8706 Z" clip-path="url(#clipPath2)" stroke="none"/>
    </g>
  </g>
</svg>
