<?xml version="1.0" encoding="us-ascii" standalone="no"?><svg xmlns="http://www.w3.org/2000/svg" xmlns:xlink="http://www.w3.org/1999/xlink" contentStyleType="text/css" height="549px" preserveAspectRatio="none" style="width:1000px;height:549px;background:#FFFFFF;" version="1.1" viewBox="0 0 1000 549" width="1000px" zoomAndPan="magnify"><defs/><g><text fill="#000000" font-family="sans-serif" font-size="25" font-weight="bold" lengthAdjust="spacing" textLength="140" x="429" y="39.1699">&#50900;&#47131;&#53664;&#53360; &#49373;&#49457;</text><rect fill="#FFFFFF" height="29.3105" style="stroke:#181818;stroke-width:1.0;" width="10" x="34.5" y="134.7305"/><rect fill="#FFFFFF" height="156.2422" style="stroke:#181818;stroke-width:1.0;" width="10" x="34.5" y="251.9727"/><rect fill="#FFFFFF" height="29.3105" style="stroke:#181818;stroke-width:1.0;" width="10" x="943.5" y="193.3516"/><line style="stroke:#181818;stroke-width:0.5;stroke-dasharray:5.0,5.0;" x1="39" x2="39" y1="103.4199" y2="497.8359"/><line style="stroke:#181818;stroke-width:0.5;stroke-dasharray:5.0,5.0;" x1="575.5" x2="575.5" y1="103.4199" y2="497.8359"/><line style="stroke:#181818;stroke-width:0.5;stroke-dasharray:5.0,5.0;" x1="948" x2="948" y1="103.4199" y2="497.8359"/><rect fill="#E2E2F0" height="46.9766" rx="2.5" ry="2.5" style="stroke:#181818;stroke-width:0.5;" width="69" x="5" y="55.4434"/><text fill="#000000" font-family="sans-serif" font-size="14" font-style="italic" lengthAdjust="spacing" textLength="55" x="12" y="75.9785">&#171;Wallet&#187;</text><text fill="#000000" font-family="sans-serif" font-size="14" font-weight="bold" lengthAdjust="spacing" textLength="24" x="27.5" y="92.4668">&#50900;&#47131;</text><rect fill="#E2E2F0" height="46.9766" rx="2.5" ry="2.5" style="stroke:#181818;stroke-width:0.5;" width="69" x="5" y="496.8359"/><text fill="#000000" font-family="sans-serif" font-size="14" font-style="italic" lengthAdjust="spacing" textLength="55" x="12" y="517.3711">&#171;Wallet&#187;</text><text fill="#000000" font-family="sans-serif" font-size="14" font-weight="bold" lengthAdjust="spacing" textLength="24" x="27.5" y="533.8594">&#50900;&#47131;</text><rect fill="#E2E2F0" height="46.9766" rx="2.5" ry="2.5" style="stroke:#181818;stroke-width:0.5;" width="56" x="547.5" y="55.4434"/><text fill="#000000" font-family="sans-serif" font-size="14" font-style="italic" lengthAdjust="spacing" textLength="42" x="554.5" y="75.9785">&#171;App&#187;</text><text fill="#000000" font-family="sans-serif" font-size="14" font-weight="bold" lengthAdjust="spacing" textLength="36" x="557.5" y="92.4668">&#51064;&#44032;&#50545;</text><rect fill="#E2E2F0" height="46.9766" rx="2.5" ry="2.5" style="stroke:#181818;stroke-width:0.5;" width="56" x="547.5" y="496.8359"/><text fill="#000000" font-family="sans-serif" font-size="14" font-style="italic" lengthAdjust="spacing" textLength="42" x="554.5" y="517.3711">&#171;App&#187;</text><text fill="#000000" font-family="sans-serif" font-size="14" font-weight="bold" lengthAdjust="spacing" textLength="36" x="557.5" y="533.8594">&#51064;&#44032;&#50545;</text><rect fill="#E2E2F0" height="46.9766" rx="2.5" ry="2.5" style="stroke:#181818;stroke-width:0.5;" width="91" x="903" y="55.4434"/><text fill="#000000" font-family="sans-serif" font-size="14" font-style="italic" lengthAdjust="spacing" textLength="57" x="920" y="75.9785">&#171;Server&#187;</text><text fill="#000000" font-family="sans-serif" font-size="14" font-weight="bold" lengthAdjust="spacing" textLength="77" x="910" y="92.4668">&#51064;&#44032;&#50545; &#49436;&#48708;&#49828;</text><rect fill="#E2E2F0" height="46.9766" rx="2.5" ry="2.5" style="stroke:#181818;stroke-width:0.5;" width="91" x="903" y="496.8359"/><text fill="#000000" font-family="sans-serif" font-size="14" font-style="italic" lengthAdjust="spacing" textLength="57" x="920" y="517.3711">&#171;Server&#187;</text><text fill="#000000" font-family="sans-serif" font-size="14" font-weight="bold" lengthAdjust="spacing" textLength="77" x="910" y="533.8594">&#51064;&#44032;&#50545; &#49436;&#48708;&#49828;</text><rect fill="#FFFFFF" height="29.3105" style="stroke:#181818;stroke-width:1.0;" width="10" x="34.5" y="134.7305"/><rect fill="#FFFFFF" height="156.2422" style="stroke:#181818;stroke-width:1.0;" width="10" x="34.5" y="251.9727"/><rect fill="#FFFFFF" height="29.3105" style="stroke:#181818;stroke-width:1.0;" width="10" x="943.5" y="193.3516"/><polygon fill="#181818" points="55.5,130.7305,45.5,134.7305,55.5,138.7305,51.5,134.7305" style="stroke:#181818;stroke-width:1.0;"/><line style="stroke:#181818;stroke-width:1.0;" x1="49.5" x2="574.5" y1="134.7305" y2="134.7305"/><text fill="#000000" font-family="sans-serif" font-size="13" font-weight="bold" lengthAdjust="spacing" textLength="19" x="61.5" y="129.9883">(1)</text><text fill="#000000" font-family="sans-serif" font-size="13" lengthAdjust="spacing" textLength="132" x="84.5" y="129.9883">WalletTokenSeed &#50836;&#52397;</text><polygon fill="#181818" points="563.5,160.041,573.5,164.041,563.5,168.041,567.5,164.041" style="stroke:#181818;stroke-width:1.0;"/><line style="stroke:#181818;stroke-width:1.0;stroke-dasharray:2.0,2.0;" x1="39.5" x2="569.5" y1="164.041" y2="164.041"/><text fill="#000000" font-family="sans-serif" font-size="13" font-weight="bold" lengthAdjust="spacing" textLength="19" x="46.5" y="159.2988">(2)</text><text fill="#000000" font-family="sans-serif" font-size="13" lengthAdjust="spacing" textLength="132" x="69.5" y="159.2988">WalletTokenSeed &#51204;&#45804;</text><polygon fill="#181818" points="931.5,189.3516,941.5,193.3516,931.5,197.3516,935.5,193.3516" style="stroke:#181818;stroke-width:1.0;"/><line style="stroke:#181818;stroke-width:1.0;" x1="575.5" x2="937.5" y1="193.3516" y2="193.3516"/><text fill="#000000" font-family="sans-serif" font-size="13" font-weight="bold" lengthAdjust="spacing" textLength="19" x="582.5" y="188.6094">(3)</text><text fill="#000000" font-family="sans-serif" font-size="13" lengthAdjust="spacing" textLength="250" x="605.5" y="188.6094">WalletTokenData &#50836;&#52397; (WalletTokenSeed)</text><polygon fill="#181818" points="586.5,218.6621,576.5,222.6621,586.5,226.6621,582.5,222.6621" style="stroke:#181818;stroke-width:1.0;"/><line style="stroke:#181818;stroke-width:1.0;stroke-dasharray:2.0,2.0;" x1="580.5" x2="947.5" y1="222.6621" y2="222.6621"/><text fill="#000000" font-family="sans-serif" font-size="13" font-weight="bold" lengthAdjust="spacing" textLength="19" x="592.5" y="217.9199">(4)</text><text fill="#000000" font-family="sans-serif" font-size="13" lengthAdjust="spacing" textLength="132" x="615.5" y="217.9199">WalletTokenData &#51204;&#45804;</text><polygon fill="#181818" points="55.5,247.9727,45.5,251.9727,55.5,255.9727,51.5,251.9727" style="stroke:#181818;stroke-width:1.0;"/><line style="stroke:#181818;stroke-width:1.0;" x1="49.5" x2="574.5" y1="251.9727" y2="251.9727"/><text fill="#000000" font-family="sans-serif" font-size="13" font-weight="bold" lengthAdjust="spacing" textLength="19" x="61.5" y="247.2305">(5)</text><text fill="#000000" font-family="sans-serif" font-size="13" lengthAdjust="spacing" textLength="247" x="84.5" y="247.2305">WalletToken &#49373;&#49457; &#50836;&#52397; (WalletTokenData)</text><line style="stroke:#181818;stroke-width:1.0;" x1="44.5" x2="86.5" y1="281.2832" y2="281.2832"/><line style="stroke:#181818;stroke-width:1.0;" x1="86.5" x2="86.5" y1="281.2832" y2="294.2832"/><line style="stroke:#181818;stroke-width:1.0;" x1="45.5" x2="86.5" y1="294.2832" y2="294.2832"/><polygon fill="#181818" points="55.5,290.2832,45.5,294.2832,55.5,298.2832,51.5,294.2832" style="stroke:#181818;stroke-width:1.0;"/><text fill="#000000" font-family="sans-serif" font-size="13" font-weight="bold" lengthAdjust="spacing" textLength="19" x="51.5" y="276.541">(6)</text><text fill="#000000" font-family="sans-serif" font-size="13" lengthAdjust="spacing" textLength="66" x="74.5" y="276.541">Nonce &#49373;&#49457;</text><line style="stroke:#181818;stroke-width:1.0;" x1="44.5" x2="86.5" y1="323.5938" y2="323.5938"/><line style="stroke:#181818;stroke-width:1.0;" x1="86.5" x2="86.5" y1="323.5938" y2="336.5938"/><line style="stroke:#181818;stroke-width:1.0;" x1="45.5" x2="86.5" y1="336.5938" y2="336.5938"/><polygon fill="#181818" points="55.5,332.5938,45.5,336.5938,55.5,340.5938,51.5,336.5938" style="stroke:#181818;stroke-width:1.0;"/><text fill="#000000" font-family="sans-serif" font-size="13" font-weight="bold" lengthAdjust="spacing" textLength="19" x="51.5" y="318.8516">(7)</text><text fill="#000000" font-family="sans-serif" font-size="13" lengthAdjust="spacing" textLength="489" x="74.5" y="318.8516">WalletTokenData&#50752; Nonce&#47484; &#51312;&#54633;&#54616;&#50668; WalletToken &#49373;&#49457;(WalletTokenData, Nonce)</text><line style="stroke:#181818;stroke-width:1.0;" x1="44.5" x2="86.5" y1="365.9043" y2="365.9043"/><line style="stroke:#181818;stroke-width:1.0;" x1="86.5" x2="86.5" y1="365.9043" y2="378.9043"/><line style="stroke:#181818;stroke-width:1.0;" x1="45.5" x2="86.5" y1="378.9043" y2="378.9043"/><polygon fill="#181818" points="55.5,374.9043,45.5,378.9043,55.5,382.9043,51.5,378.9043" style="stroke:#181818;stroke-width:1.0;"/><text fill="#000000" font-family="sans-serif" font-size="13" font-weight="bold" lengthAdjust="spacing" textLength="19" x="51.5" y="361.1621">(8)</text><text fill="#000000" font-family="sans-serif" font-size="13" lengthAdjust="spacing" textLength="103" x="74.5" y="361.1621">WalletToken &#51200;&#51109;</text><polygon fill="#181818" points="563.5,404.2148,573.5,408.2148,563.5,412.2148,567.5,408.2148" style="stroke:#181818;stroke-width:1.0;"/><line style="stroke:#181818;stroke-width:1.0;stroke-dasharray:2.0,2.0;" x1="39.5" x2="569.5" y1="408.2148" y2="408.2148"/><text fill="#000000" font-family="sans-serif" font-size="13" font-weight="bold" lengthAdjust="spacing" textLength="19" x="46.5" y="403.4727">(9)</text><text fill="#000000" font-family="sans-serif" font-size="13" lengthAdjust="spacing" textLength="66" x="69.5" y="403.4727">Nonce &#51204;&#45804;</text><line style="stroke:#181818;stroke-width:1.0;" x1="575.5" x2="617.5" y1="437.5254" y2="437.5254"/><line style="stroke:#181818;stroke-width:1.0;" x1="617.5" x2="617.5" y1="437.5254" y2="450.5254"/><line style="stroke:#181818;stroke-width:1.0;" x1="576.5" x2="617.5" y1="450.5254" y2="450.5254"/><polygon fill="#181818" points="586.5,446.5254,576.5,450.5254,586.5,454.5254,582.5,450.5254" style="stroke:#181818;stroke-width:1.0;"/><text fill="#000000" font-family="sans-serif" font-size="13" font-weight="bold" lengthAdjust="spacing" textLength="28" x="582.5" y="432.7832">(10)</text><text fill="#000000" font-family="sans-serif" font-size="13" lengthAdjust="spacing" textLength="327" x="614.5" y="432.7832">WalletTokenData&#50752; Nonce&#47484; &#51312;&#54633;&#54616;&#50668; WalletToken &#49373;&#49457;</text><polygon fill="#181818" points="50.5,475.8359,40.5,479.8359,50.5,483.8359,46.5,479.8359" style="stroke:#181818;stroke-width:1.0;"/><line style="stroke:#181818;stroke-width:1.0;" x1="44.5" x2="574.5" y1="479.8359" y2="479.8359"/><text fill="#000000" font-family="sans-serif" font-size="13" font-weight="bold" lengthAdjust="spacing" textLength="28" x="56.5" y="475.0938">(11)</text><text fill="#000000" font-family="sans-serif" font-size="13" lengthAdjust="spacing" textLength="182" x="88.5" y="475.0938">Wallet &#49324;&#50857;&#49884; WalletToken &#51228;&#52636;</text><!--SRC=[fP0nIyD068PdxrTynAL93GN1fOG3mTcbWlCrlI4Oqv1U5Pog1WUxjgXjAXNiKAYGEeY2lyXy-GzUcbHj6bsSxttUxxbNMCBcPCDeMMUykhr3STYBniFuQXoVXu2N8_JdHYLvf8Gx3H2BE76P9opJSfaZGD6q5D8q1LWBJfaDXd78R9iBIjUYezUFi8FzUPOscGplkkuVIK0_YDvyl7xyObm9rRXtmZt9iRPeEktZElT0CUgqjAaQbJfL297TEaryokKgf487pIFkr3Xl00vw-Fm49D7LPSnakbwG6ljHTvOroRkvfZqcsBAfb6DLadWMLgVOp-froMpyelO4LrFn1Lc5_QPZyenOUSXHUDT9iz7a7V0XZFlJk7-BDxE2o_cBMocf_jOlFzJ1-qbkqCniTSP_UNqljgm1l9ZXO8hT8ESJu4j0FW40]--></g></svg>