<?xml version="1.0" encoding="us-ascii" standalone="no"?><svg xmlns="http://www.w3.org/2000/svg" xmlns:xlink="http://www.w3.org/1999/xlink" contentStyleType="text/css" height="1311px" preserveAspectRatio="none" style="width:1016px;height:1311px;background:#FFFFFF;" version="1.1" viewBox="0 0 1016 1311" width="1016px" zoomAndPan="magnify"><defs/><g><text fill="#000000" font-family="sans-serif" font-size="25" font-weight="bold" lengthAdjust="spacing" textLength="634.6875" x="186.9531" y="43.8452">[&#50696;&#49884; 2] &#51228;&#52636; Offer - Static QR + passcode, Direct &#47784;&#46300;</text><rect fill="#F0FFFF" height="1244.5615" style="stroke:#181818;stroke-width:0.5;" width="275.3125" x="372.2188" y="61.3384"/><text fill="#000000" font-family="sans-serif" font-size="13" font-weight="bold" lengthAdjust="spacing" textLength="115.25" x="450.25" y="76.3379">&#51025;&#45824;&#51109;&#52824;(&#48124;&#50896;&#52285;&#44396;)</text><rect fill="#FFFFFF" height="470.9834" style="stroke:#181818;stroke-width:1.0;" width="10" x="181.6563" y="743.687"/><rect fill="#FFFFFF" height="883.1108" style="stroke:#181818;stroke-width:1.0;" width="10" x="523.6563" y="331.5596"/><rect fill="#FFFFFF" height="773.543" style="stroke:#181818;stroke-width:1.0;" width="10" x="605.5938" y="441.1274"/><rect fill="#FFFFFF" height="112.4238" style="stroke:#181818;stroke-width:1.0;" width="10" x="795.5938" y="490.8394"/><rect fill="#FFFFFF" height="121.5679" style="stroke:#181818;stroke-width:1.0;" width="10" x="795.5938" y="950.6787"/><rect fill="#FFFFFF" height="46.856" style="stroke:#181818;stroke-width:1.0;" width="10" x="795.5938" y="1167.8145"/><line style="stroke:#181818;stroke-width:0.5;stroke-dasharray:5.0,5.0;" x1="29" x2="29" y1="162.4238" y2="1223.6704"/><line style="stroke:#181818;stroke-width:0.5;stroke-dasharray:5.0,5.0;" x1="186" x2="186" y1="162.4238" y2="1223.6704"/><line style="stroke:#181818;stroke-width:0.5;stroke-dasharray:5.0,5.0;" x1="393.2188" x2="393.2188" y1="162.4238" y2="1223.6704"/><line style="stroke:#181818;stroke-width:0.5;stroke-dasharray:5.0,5.0;" x1="528.6563" x2="528.6563" y1="162.4238" y2="1223.6704"/><line style="stroke:#181818;stroke-width:0.5;stroke-dasharray:5.0,5.0;" x1="609.6563" x2="609.6563" y1="162.4238" y2="1223.6704"/><line style="stroke:#181818;stroke-width:0.5;stroke-dasharray:5.0,5.0;" x1="800.5" x2="800.5" y1="162.4238" y2="1223.6704"/><text fill="#000000" font-family="sans-serif" font-size="14" font-weight="bold" lengthAdjust="spacing" textLength="43.3125" x="5" y="159.3477">&#49324;&#50857;&#51088;</text><ellipse cx="29.6563" cy="91.6943" fill="#E2E2F0" rx="8" ry="8" style="stroke:#181818;stroke-width:0.5;"/><path d="M29.6563,99.6943 L29.6563,126.6943 M16.6563,107.6943 L42.6563,107.6943 M29.6563,126.6943 L16.6563,141.6943 M29.6563,126.6943 L42.6563,141.6943 " fill="none" style="stroke:#181818;stroke-width:0.5;"/><text fill="#000000" font-family="sans-serif" font-size="14" font-weight="bold" lengthAdjust="spacing" textLength="43.3125" x="5" y="1238.8237">&#49324;&#50857;&#51088;</text><ellipse cx="29.6563" cy="1250.3999" fill="#E2E2F0" rx="8" ry="8" style="stroke:#181818;stroke-width:0.5;"/><path d="M29.6563,1258.3999 L29.6563,1285.3999 M16.6563,1266.3999 L42.6563,1266.3999 M29.6563,1285.3999 L16.6563,1300.3999 M29.6563,1285.3999 L42.6563,1300.3999 " fill="none" style="stroke:#181818;stroke-width:0.5;"/><rect fill="#E2E2F0" height="52.459" rx="2.5" ry="2.5" style="stroke:#181818;stroke-width:0.5;" width="57.3125" x="158" y="108.9648"/><text fill="#000000" font-family="sans-serif" font-size="14" font-style="italic" lengthAdjust="spacing" textLength="41" x="166.1563" y="132.1182">&#171;App&#187;</text><text fill="#000000" font-family="sans-serif" font-size="14" font-weight="bold" lengthAdjust="spacing" textLength="43.3125" x="165" y="151.3477">&#51064;&#44032;&#50545;</text><rect fill="#E2E2F0" height="52.459" rx="2.5" ry="2.5" style="stroke:#181818;stroke-width:0.5;" width="57.3125" x="158" y="1222.6704"/><text fill="#000000" font-family="sans-serif" font-size="14" font-style="italic" lengthAdjust="spacing" textLength="41" x="166.1563" y="1245.8237">&#171;App&#187;</text><text fill="#000000" font-family="sans-serif" font-size="14" font-weight="bold" lengthAdjust="spacing" textLength="43.3125" x="165" y="1265.0532">&#51064;&#44032;&#50545;</text><text fill="#000000" font-family="sans-serif" font-size="14" font-weight="bold" lengthAdjust="spacing" textLength="28.875" x="376.2188" y="159.3477">&#51649;&#50896;</text><ellipse cx="393.6563" cy="91.6943" fill="#E2E2F0" rx="8" ry="8" style="stroke:#181818;stroke-width:0.5;"/><path d="M393.6563,99.6943 L393.6563,126.6943 M380.6563,107.6943 L406.6563,107.6943 M393.6563,126.6943 L380.6563,141.6943 M393.6563,126.6943 L406.6563,141.6943 " fill="none" style="stroke:#181818;stroke-width:0.5;"/><text fill="#000000" font-family="sans-serif" font-size="14" font-weight="bold" lengthAdjust="spacing" textLength="28.875" x="376.2188" y="1238.8237">&#51649;&#50896;</text><ellipse cx="393.6563" cy="1250.3999" fill="#E2E2F0" rx="8" ry="8" style="stroke:#181818;stroke-width:0.5;"/><path d="M393.6563,1258.3999 L393.6563,1285.3999 M380.6563,1266.3999 L406.6563,1266.3999 M393.6563,1285.3999 L380.6563,1300.3999 M393.6563,1285.3999 L406.6563,1300.3999 " fill="none" style="stroke:#181818;stroke-width:0.5;"/><rect fill="#E2E2F0" height="52.459" rx="2.5" ry="2.5" style="stroke:#181818;stroke-width:0.5;" width="78" x="489.6563" y="108.9648"/><text fill="#000000" font-family="sans-serif" font-size="14" font-style="italic" lengthAdjust="spacing" textLength="54" x="501.6563" y="132.1182">&#171;Paper&#187;</text><text fill="#000000" font-family="sans-serif" font-size="14" font-weight="bold" lengthAdjust="spacing" textLength="64" x="496.6563" y="151.3477">Static QR</text><rect fill="#E2E2F0" height="52.459" rx="2.5" ry="2.5" style="stroke:#181818;stroke-width:0.5;" width="78" x="489.6563" y="1222.6704"/><text fill="#000000" font-family="sans-serif" font-size="14" font-style="italic" lengthAdjust="spacing" textLength="54" x="501.6563" y="1245.8237">&#171;Paper&#187;</text><text fill="#000000" font-family="sans-serif" font-size="14" font-weight="bold" lengthAdjust="spacing" textLength="64" x="496.6563" y="1265.0532">Static QR</text><rect fill="#E2E2F0" height="52.459" rx="2.5" ry="2.5" style="stroke:#181818;stroke-width:0.5;" width="65.875" x="577.6563" y="108.9648"/><text fill="#000000" font-family="sans-serif" font-size="14" font-style="italic" lengthAdjust="spacing" textLength="35" x="593.0938" y="132.1182">&#171;PC&#187;</text><text fill="#000000" font-family="sans-serif" font-size="14" font-weight="bold" lengthAdjust="spacing" textLength="51.875" x="584.6563" y="151.3477">&#51649;&#50896; PC</text><rect fill="#E2E2F0" height="52.459" rx="2.5" ry="2.5" style="stroke:#181818;stroke-width:0.5;" width="65.875" x="577.6563" y="1222.6704"/><text fill="#000000" font-family="sans-serif" font-size="14" font-style="italic" lengthAdjust="spacing" textLength="35" x="593.0938" y="1245.8237">&#171;PC&#187;</text><text fill="#000000" font-family="sans-serif" font-size="14" font-weight="bold" lengthAdjust="spacing" textLength="51.875" x="584.6563" y="1265.0532">&#51649;&#50896; PC</text><rect fill="#E2E2F0" height="52.459" rx="2.5" ry="2.5" style="stroke:#181818;stroke-width:0.5;" width="90.1875" x="755.5" y="108.9648"/><text fill="#000000" font-family="sans-serif" font-size="14" font-style="italic" lengthAdjust="spacing" textLength="57" x="772.0938" y="132.1182">&#171;Server&#187;</text><text fill="#000000" font-family="sans-serif" font-size="14" font-weight="bold" lengthAdjust="spacing" textLength="76.1875" x="762.5" y="151.3477">&#44160;&#51613; &#49324;&#50629;&#51088;</text><rect fill="#E2E2F0" height="52.459" rx="2.5" ry="2.5" style="stroke:#181818;stroke-width:0.5;" width="90.1875" x="755.5" y="1222.6704"/><text fill="#000000" font-family="sans-serif" font-size="14" font-style="italic" lengthAdjust="spacing" textLength="57" x="772.0938" y="1245.8237">&#171;Server&#187;</text><text fill="#000000" font-family="sans-serif" font-size="14" font-weight="bold" lengthAdjust="spacing" textLength="76.1875" x="762.5" y="1265.0532">&#44160;&#51613; &#49324;&#50629;&#51088;</text><rect fill="#FFFFFF" height="470.9834" style="stroke:#181818;stroke-width:1.0;" width="10" x="181.6563" y="743.687"/><rect fill="#FFFFFF" height="883.1108" style="stroke:#181818;stroke-width:1.0;" width="10" x="523.6563" y="331.5596"/><rect fill="#FFFFFF" height="773.543" style="stroke:#181818;stroke-width:1.0;" width="10" x="605.5938" y="441.1274"/><rect fill="#FFFFFF" height="112.4238" style="stroke:#181818;stroke-width:1.0;" width="10" x="795.5938" y="490.8394"/><rect fill="#FFFFFF" height="121.5679" style="stroke:#181818;stroke-width:1.0;" width="10" x="795.5938" y="950.6787"/><rect fill="#FFFFFF" height="46.856" style="stroke:#181818;stroke-width:1.0;" width="10" x="795.5938" y="1167.8145"/><rect fill="#FEFFDD" height="79" style="stroke:#181818;stroke-width:0.5;" width="167" x="527" y="177.4238"/><text fill="#000000" font-family="sans-serif" font-size="13" font-weight="bold" lengthAdjust="spacing" textLength="96.4375" x="531" y="196.4233">[&#49324;&#51204; &#49444;&#51221; &#51221;&#48372;]</text><ellipse cx="536.5" cy="209.6357" fill="#000000" rx="2.5" ry="2.5" style="stroke:#000000;stroke-width:0.0;"/><text fill="#000000" font-family="sans-serif" font-size="13" lengthAdjust="spacing" textLength="147" x="543" y="214.2793">device = &#51025;&#45824;&#51109;&#52824; &#49885;&#48324;&#51088;</text><ellipse cx="536.5" cy="227.4917" fill="#000000" rx="2.5" ry="2.5" style="stroke:#000000;stroke-width:0.0;"/><text fill="#000000" font-family="sans-serif" font-size="13" lengthAdjust="spacing" textLength="138" x="543" y="232.1353">service = &#49436;&#48708;&#49828; &#49885;&#48324;&#51088;</text><ellipse cx="536.5" cy="245.3477" fill="#000000" rx="2.5" ry="2.5" style="stroke:#000000;stroke-width:0.0;"/><text fill="#000000" font-family="sans-serif" font-size="13" lengthAdjust="spacing" textLength="92" x="543" y="249.9912">mode = "Direct"</text><rect fill="#EEEEEE" height="3" style="stroke:#EEEEEE;stroke-width:1.0;" width="1009.5938" x="0" y="283.7756"/><line style="stroke:#000000;stroke-width:1.0;" x1="0" x2="1009.5938" y1="283.7756" y2="283.7756"/><line style="stroke:#000000;stroke-width:1.0;" x1="0" x2="1009.5938" y1="286.7756" y2="286.7756"/><rect fill="#EEEEEE" height="25.856" style="stroke:#000000;stroke-width:2.0;" width="44.8125" x="482.3906" y="271.8477"/><text fill="#000000" font-family="sans-serif" font-size="13" font-weight="bold" lengthAdjust="spacing" textLength="26.8125" x="488.3906" y="290.8472">&#51456;&#48708;</text><polygon fill="#181818" points="511.6563,327.5596,521.6563,331.5596,511.6563,335.5596,515.6563,331.5596" style="stroke:#181818;stroke-width:1.0;"/><line style="stroke:#181818;stroke-width:1.0;" x1="393.6563" x2="517.6563" y1="331.5596" y2="331.5596"/><text fill="#000000" font-family="sans-serif" font-size="13" font-weight="bold" lengthAdjust="spacing" textLength="15" x="400.6563" y="326.7031">(1)</text><text fill="#000000" font-family="sans-serif" font-size="13" lengthAdjust="spacing" textLength="92" x="419.6563" y="326.7031">&#51064;&#49604;&#46108; QR &#44396;&#48708;</text><rect fill="#EEEEEE" height="3" style="stroke:#EEEEEE;stroke-width:1.0;" width="1009.5938" x="0" y="361.4875"/><line style="stroke:#000000;stroke-width:1.0;" x1="0" x2="1009.5938" y1="361.4875" y2="361.4875"/><line style="stroke:#000000;stroke-width:1.0;" x1="0" x2="1009.5938" y1="364.4875" y2="364.4875"/><rect fill="#EEEEEE" height="25.856" style="stroke:#000000;stroke-width:2.0;" width="100.8125" x="454.3906" y="349.5596"/><text fill="#000000" font-family="sans-serif" font-size="13" font-weight="bold" lengthAdjust="spacing" textLength="82.8125" x="460.3906" y="368.5591">(B) Offer &#45800;&#44228;</text><polygon fill="#0000FF" points="381.6563,405.2715,391.6563,409.2715,381.6563,409.2715" style="stroke:#0000FF;stroke-width:1.0;"/><line style="stroke:#0000FF;stroke-width:1.0;" x1="29.6563" x2="392.6563" y1="409.2715" y2="409.2715"/><text fill="#000000" font-family="sans-serif" font-size="13" font-weight="bold" lengthAdjust="spacing" textLength="15" x="36.6563" y="404.415">(2)</text><text fill="#000000" font-family="sans-serif" font-size="13" lengthAdjust="spacing" textLength="69" x="55.6563" y="404.415">&#49436;&#48708;&#49828; &#50836;&#52397;</text><polygon fill="#0000FF" points="593.5938,437.1274,603.5938,441.1274,593.5938,441.1274" style="stroke:#0000FF;stroke-width:1.0;"/><line style="stroke:#0000FF;stroke-width:1.0;" x1="393.6563" x2="604.5938" y1="441.1274" y2="441.1274"/><text fill="#000000" font-family="sans-serif" font-size="13" font-weight="bold" lengthAdjust="spacing" textLength="15" x="400.6563" y="436.271">(3)</text><text fill="#000000" font-family="sans-serif" font-size="13" lengthAdjust="spacing" textLength="82" x="419.6563" y="436.271">&#54869;&#51064;&#53076;&#46300; &#50836;&#52397;</text><polygon fill="#181818" points="783.5938,486.8394,793.5938,490.8394,783.5938,494.8394,787.5938,490.8394" style="stroke:#181818;stroke-width:1.0;"/><line style="stroke:#181818;stroke-width:1.0;" x1="615.5938" x2="789.5938" y1="490.8394" y2="490.8394"/><text fill="#000000" font-family="sans-serif" font-size="13" font-weight="bold" lengthAdjust="spacing" textLength="15" x="622.5938" y="477.0549">(4)</text><text fill="#000000" font-family="sans-serif" font-size="13" lengthAdjust="spacing" textLength="142" x="641.5938" y="468.127">(Example) Request Offer</text><text fill="#000000" font-family="sans-serif" font-size="13" lengthAdjust="spacing" textLength="132" x="641.5938" y="485.9829">{mode, device, service}</text><line style="stroke:#181818;stroke-width:1.0;" x1="805.5938" x2="847.5938" y1="558.4072" y2="558.4072"/><line style="stroke:#181818;stroke-width:1.0;" x1="847.5938" x2="847.5938" y1="558.4072" y2="571.4072"/><line style="stroke:#181818;stroke-width:1.0;" x1="806.5938" x2="847.5938" y1="571.4072" y2="571.4072"/><polygon fill="#181818" points="816.5938,567.4072,806.5938,571.4072,816.5938,575.4072,812.5938,571.4072" style="stroke:#181818;stroke-width:1.0;"/><text fill="#000000" font-family="sans-serif" font-size="13" font-weight="bold" lengthAdjust="spacing" textLength="15" x="812.5938" y="535.6948">(5)</text><text fill="#000000" font-family="sans-serif" font-size="13" lengthAdjust="spacing" textLength="87" x="831.5938" y="517.8389">&#51228;&#52636; Offer &#49373;&#49457;</text><ellipse cx="837.0938" cy="531.0513" fill="#000000" rx="2.5" ry="2.5" style="stroke:#000000;stroke-width:0.0;"/><text fill="#000000" font-family="sans-serif" font-size="13" lengthAdjust="spacing" textLength="118" x="843.5938" y="535.6948">offerId = offer id &#49373;&#49457;</text><ellipse cx="837.0938" cy="548.9072" fill="#000000" rx="2.5" ry="2.5" style="stroke:#000000;stroke-width:0.0;"/><text fill="#000000" font-family="sans-serif" font-size="13" lengthAdjust="spacing" textLength="154" x="843.5938" y="553.5508">passcode = &#54869;&#51064;&#53076;&#46300; &#49373;&#49457;</text><polygon fill="#181818" points="626.5938,599.2632,616.5938,603.2632,626.5938,607.2632,622.5938,603.2632" style="stroke:#181818;stroke-width:1.0;"/><line style="stroke:#181818;stroke-width:1.0;stroke-dasharray:2.0,2.0;" x1="620.5938" x2="799.5938" y1="603.2632" y2="603.2632"/><text fill="#000000" font-family="sans-serif" font-size="13" font-weight="bold" lengthAdjust="spacing" textLength="15" x="632.5938" y="598.4067">(6)</text><text fill="#000000" font-family="sans-serif" font-size="13" lengthAdjust="spacing" textLength="106" x="651.5938" y="598.4067">{offerId, passcode}</text><line style="stroke:#181818;stroke-width:1.0;" x1="615.5938" x2="657.5938" y1="635.1191" y2="635.1191"/><line style="stroke:#181818;stroke-width:1.0;" x1="657.5938" x2="657.5938" y1="635.1191" y2="648.1191"/><line style="stroke:#181818;stroke-width:1.0;" x1="616.5938" x2="657.5938" y1="648.1191" y2="648.1191"/><polygon fill="#181818" points="626.5938,644.1191,616.5938,648.1191,626.5938,652.1191,622.5938,648.1191" style="stroke:#181818;stroke-width:1.0;"/><text fill="#000000" font-family="sans-serif" font-size="13" font-weight="bold" lengthAdjust="spacing" textLength="15" x="622.5938" y="630.2627">(7)</text><text fill="#000000" font-family="sans-serif" font-size="13" lengthAdjust="spacing" textLength="86" x="641.5938" y="630.2627">passcode &#52636;&#47141;</text><polygon fill="#0000FF" points="404.6563,675.9751,394.6563,679.9751,404.6563,679.9751" style="stroke:#0000FF;stroke-width:1.0;"/><ellipse cx="605.0938" cy="679.2251" fill="none" rx="4" ry="4" style="stroke:#0000FF;stroke-width:1.5;"/><line style="stroke:#0000FF;stroke-width:1.0;" x1="393.6563" x2="600.5938" y1="679.9751" y2="679.9751"/><text fill="#000000" font-family="sans-serif" font-size="13" font-weight="bold" lengthAdjust="spacing" textLength="15" x="410.6563" y="675.1187">(8)</text><text fill="#000000" font-family="sans-serif" font-size="13" lengthAdjust="spacing" textLength="86" x="429.6563" y="675.1187">passcode &#54869;&#51064;</text><polygon fill="#0000FF" points="40.6563,707.8311,30.6563,711.8311,40.6563,711.8311" style="stroke:#0000FF;stroke-width:1.0;"/><line style="stroke:#0000FF;stroke-width:1.0;" x1="29.6563" x2="392.6563" y1="711.8311" y2="711.8311"/><text fill="#000000" font-family="sans-serif" font-size="13" font-weight="bold" lengthAdjust="spacing" textLength="15" x="46.6563" y="706.9746">(9)</text><text fill="#000000" font-family="sans-serif" font-size="13" lengthAdjust="spacing" textLength="281" x="65.6563" y="706.9746">"QR &#49828;&#52884;&#54616;&#49884;&#44256;, &lt;passcode&gt; &#51077;&#47141;&#54616;&#49464;&#50836;." &#50504;&#45236;</text><polygon fill="#0000FF" points="202.6563,739.687,192.6563,743.687,202.6563,747.687,198.6563,743.687" style="stroke:#0000FF;stroke-width:1.0;"/><ellipse cx="523.1563" cy="742.937" fill="none" rx="4" ry="4" style="stroke:#0000FF;stroke-width:1.5;"/><line style="stroke:#0000FF;stroke-width:1.0;" x1="196.6563" x2="518.6563" y1="743.687" y2="743.687"/><text fill="#000000" font-family="sans-serif" font-size="13" font-weight="bold" lengthAdjust="spacing" textLength="22" x="208.6563" y="738.8306">(10)</text><text fill="#000000" font-family="sans-serif" font-size="13" lengthAdjust="spacing" textLength="79" x="234.6563" y="738.8306">QR &#53076;&#46300; &#49828;&#52884;</text><line style="stroke:#181818;stroke-width:1.0;" x1="191.6563" x2="233.6563" y1="811.2549" y2="811.2549"/><line style="stroke:#181818;stroke-width:1.0;" x1="233.6563" x2="233.6563" y1="811.2549" y2="824.2549"/><line style="stroke:#181818;stroke-width:1.0;" x1="192.6563" x2="233.6563" y1="824.2549" y2="824.2549"/><polygon fill="#181818" points="202.6563,820.2549,192.6563,824.2549,202.6563,828.2549,198.6563,824.2549" style="stroke:#181818;stroke-width:1.0;"/><text fill="#000000" font-family="sans-serif" font-size="13" font-weight="bold" lengthAdjust="spacing" textLength="22" x="198.6563" y="788.5425">(11)</text><ellipse cx="230.1563" cy="766.043" fill="#000000" rx="2.5" ry="2.5" style="stroke:#000000;stroke-width:0.0;"/><text fill="#000000" font-family="sans-serif" font-size="13" lengthAdjust="spacing" textLength="138" x="236.6563" y="770.6865">payload = Payload &#52628;&#52636;</text><ellipse cx="230.1563" cy="783.8989" fill="#000000" rx="2.5" ry="2.5" style="stroke:#000000;stroke-width:0.0;"/><text fill="#000000" font-family="sans-serif" font-size="13" lengthAdjust="spacing" textLength="137" x="236.6563" y="788.5425">device = payload.device</text><ellipse cx="230.1563" cy="801.7549" fill="#000000" rx="2.5" ry="2.5" style="stroke:#000000;stroke-width:0.0;"/><text fill="#000000" font-family="sans-serif" font-size="13" lengthAdjust="spacing" textLength="145" x="236.6563" y="806.3984">service = payload.service</text><line style="stroke:#181818;stroke-width:1.0;" x1="191.6563" x2="233.6563" y1="856.1108" y2="856.1108"/><line style="stroke:#181818;stroke-width:1.0;" x1="233.6563" x2="233.6563" y1="856.1108" y2="869.1108"/><line style="stroke:#181818;stroke-width:1.0;" x1="192.6563" x2="233.6563" y1="869.1108" y2="869.1108"/><polygon fill="#181818" points="202.6563,865.1108,192.6563,869.1108,202.6563,873.1108,198.6563,869.1108" style="stroke:#181818;stroke-width:1.0;"/><text fill="#000000" font-family="sans-serif" font-size="13" font-weight="bold" lengthAdjust="spacing" textLength="22" x="198.6563" y="851.2544">(12)</text><text fill="#000000" font-family="sans-serif" font-size="13" lengthAdjust="spacing" textLength="125" x="224.6563" y="851.2544">&#54869;&#51064;&#53076;&#46300; &#51077;&#47141;&#52285; &#54364;&#52636;</text><polygon fill="#0000FF" points="169.6563,896.9668,179.6563,900.9668,169.6563,900.9668" style="stroke:#0000FF;stroke-width:1.0;"/><line style="stroke:#0000FF;stroke-width:1.0;" x1="29.6563" x2="180.6563" y1="900.9668" y2="900.9668"/><text fill="#000000" font-family="sans-serif" font-size="13" font-weight="bold" lengthAdjust="spacing" textLength="22" x="36.6563" y="896.1104">(13)</text><text fill="#000000" font-family="sans-serif" font-size="13" lengthAdjust="spacing" textLength="102" x="62.6563" y="896.1104">&lt;passcode&gt; &#51077;&#47141;</text><polygon fill="#181818" points="783.5938,946.6787,793.5938,950.6787,783.5938,954.6787,787.5938,950.6787" style="stroke:#181818;stroke-width:1.0;"/><line style="stroke:#181818;stroke-width:1.0;" x1="191.6563" x2="789.5938" y1="950.6787" y2="950.6787"/><text fill="#000000" font-family="sans-serif" font-size="13" font-weight="bold" lengthAdjust="spacing" textLength="22" x="198.6563" y="936.8943">(14)</text><text fill="#000000" font-family="sans-serif" font-size="13" lengthAdjust="spacing" textLength="158" x="224.6563" y="927.9663">(Example) Verify Passcode</text><text fill="#000000" font-family="sans-serif" font-size="13" lengthAdjust="spacing" textLength="156" x="224.6563" y="945.8223">{device, service, passcode}</text><line style="stroke:#181818;stroke-width:1.0;" x1="805.5938" x2="847.5938" y1="982.5347" y2="982.5347"/><line style="stroke:#181818;stroke-width:1.0;" x1="847.5938" x2="847.5938" y1="982.5347" y2="995.5347"/><line style="stroke:#181818;stroke-width:1.0;" x1="806.5938" x2="847.5938" y1="995.5347" y2="995.5347"/><polygon fill="#181818" points="816.5938,991.5347,806.5938,995.5347,816.5938,999.5347,812.5938,995.5347" style="stroke:#181818;stroke-width:1.0;"/><text fill="#000000" font-family="sans-serif" font-size="13" font-weight="bold" lengthAdjust="spacing" textLength="22" x="812.5938" y="977.6782">(15)</text><text fill="#000000" font-family="sans-serif" font-size="13" lengthAdjust="spacing" textLength="86" x="838.5938" y="977.6782">passcode &#44160;&#51613;</text><line style="stroke:#181818;stroke-width:1.0;" x1="805.5938" x2="847.5938" y1="1027.3906" y2="1027.3906"/><line style="stroke:#181818;stroke-width:1.0;" x1="847.5938" x2="847.5938" y1="1027.3906" y2="1040.3906"/><line style="stroke:#181818;stroke-width:1.0;" x1="806.5938" x2="847.5938" y1="1040.3906" y2="1040.3906"/><polygon fill="#181818" points="816.5938,1036.3906,806.5938,1040.3906,816.5938,1044.3906,812.5938,1040.3906" style="stroke:#181818;stroke-width:1.0;"/><text fill="#000000" font-family="sans-serif" font-size="13" font-weight="bold" lengthAdjust="spacing" textLength="22" x="812.5938" y="1022.5342">(16)</text><text fill="#000000" font-family="sans-serif" font-size="13" lengthAdjust="spacing" textLength="64" x="838.5938" y="1022.5342">offerId &#51312;&#54924;</text><polygon fill="#181818" points="202.6563,1068.2466,192.6563,1072.2466,202.6563,1076.2466,198.6563,1072.2466" style="stroke:#181818;stroke-width:1.0;"/><line style="stroke:#181818;stroke-width:1.0;stroke-dasharray:2.0,2.0;" x1="196.6563" x2="799.5938" y1="1072.2466" y2="1072.2466"/><text fill="#000000" font-family="sans-serif" font-size="13" font-weight="bold" lengthAdjust="spacing" textLength="22" x="208.6563" y="1067.3901">(17)</text><text fill="#000000" font-family="sans-serif" font-size="13" lengthAdjust="spacing" textLength="42" x="234.6563" y="1067.3901">{offerId}</text><rect fill="#EEEEEE" height="3" style="stroke:#EEEEEE;stroke-width:1.0;" width="1009.5938" x="0" y="1102.1746"/><line style="stroke:#000000;stroke-width:1.0;" x1="0" x2="1009.5938" y1="1102.1746" y2="1102.1746"/><line style="stroke:#000000;stroke-width:1.0;" x1="0" x2="1009.5938" y1="1105.1746" y2="1105.1746"/><rect fill="#EEEEEE" height="25.856" style="stroke:#000000;stroke-width:2.0;" width="96.625" x="456.4844" y="1090.2466"/><text fill="#000000" font-family="sans-serif" font-size="13" font-weight="bold" lengthAdjust="spacing" textLength="78.625" x="462.4844" y="1109.2461">(C) &#51228;&#52636; &#45800;&#44228;</text><polygon fill="#181818" points="783.5938,1163.8145,793.5938,1167.8145,783.5938,1171.8145,787.5938,1167.8145" style="stroke:#181818;stroke-width:1.0;"/><line style="stroke:#181818;stroke-width:1.0;" x1="191.6563" x2="789.5938" y1="1167.8145" y2="1167.8145"/><text fill="#000000" font-family="sans-serif" font-size="13" font-weight="bold" lengthAdjust="spacing" textLength="22" x="198.6563" y="1154.03">(18)</text><text fill="#000000" font-family="sans-serif" font-size="13" lengthAdjust="spacing" textLength="112" x="224.6563" y="1145.1021">C1. Request Profile</text><text fill="#000000" font-family="sans-serif" font-size="13" lengthAdjust="spacing" textLength="42" x="224.6563" y="1162.958">{offerId}</text><path d="M152,1180.8145 L152,1207.8145 L834,1207.8145 L834,1190.8145 L824,1180.8145 L152,1180.8145 " fill="#FEFFDD" style="stroke:#181818;stroke-width:0.5;"/><path d="M824,1180.8145 L824,1190.8145 L834,1190.8145 L824,1180.8145 " fill="#FEFFDD" style="stroke:#181818;stroke-width:0.5;"/><text fill="#000000" font-family="sans-serif" font-size="13" lengthAdjust="spacing" textLength="56" x="460.8438" y="1200.814">&#51060;&#54616; &#49373;&#47029;</text><!--SRC=[RLHTJnf157tVNt43Bx22fYPzsS0cIllGfr9D-e8-BCjiiWcmwx8GFs92xPgQweEca5eBX2RQsiQcAcgqgN-87Vv3xyn-y2LFoyoPS-uzzypOkbqaGggYRn9f_hcSeyTxTBy5ywj0korwruBNcaOiICAohTYw2c-MO0PCfL9HZG99m0lT8geDxgzpzrChDSTeP86K2s1pNa6fsaQvMieZHIILbsFHU6ekBqTmGxKDN1D5kdD1JtxIpg4eHa2fGBL2BC5KB1JJJQLiSqpxldzPfyqh7wCga4ejcAOi2tbZ7MZxo3seqyuPVJYEkN_-qQ-7zFAnVtiHX-Z2PjKY0k1lgFZZ7I9ygegjQ1hVdz0C-_M1QnPgPXMJMAZw1DvZXMp6nvigmsTapmuiSxAf_dMTVcy3w__pxh3_ceRdbebLuqA2O9KDcu21Vv6I2ujYZXtgEa2TKzfjugIQRkzcLHIzRIYGcguII8yP0tI_xVOS5F9Hw7C0SrhkWqC_davXIZXa14IyCKTuAxmWGKZZkTCwdeDqMX2uZP2KqIO9PU_f1ySzRB6qu1WGnEQjrnJiPCtYPsEBSJzQxlvvl-UniDb3CXTTB5R9weet6scql9C6lVuTY8KuKvLWyAN9P1yRcCC05sgYSGBE0yj3TsTc98YzN5TAPf74OOciLKd5zcfPAM-LUAmz1nE1HzlSZfhcCKZZLuE-RrFd2lpVIba4Wws_Ag1n_0lqmXEWu0uXQhnsZXGiObUjCcpvN8aGlnsqmheEIR0Sjtl6jumf0qEK9pJb7xDTWWWE2qscVnk3vZ6-0VrUDm6fuAmCjBEB4cpFkKU3PoD0ctlkpeqWiEkOY-OPMTBW2M1KVZkSSJWALM5mB5zL960kR1GDXLcLzR_eNODvE-9K66SVFEilZ426MGum_ig8sBZBl1by9M1mn6OvbJrsOgfvdsqgH6-9fMiRs887nnXD16XqVEDH2cVZFGSJkq6IwBVBmSd1P2YslPkKYGU17BbAOvLcdis6GSzQXgONMOqXo_25KPM45_3s3GwQPT7jtFu7]--></g></svg>