<?xml version="1.0" encoding="us-ascii" standalone="no"?><svg xmlns="http://www.w3.org/2000/svg" xmlns:xlink="http://www.w3.org/1999/xlink" contentStyleType="text/css" height="1214px" preserveAspectRatio="none" style="width:1149px;height:1214px;background:#FFFFFF;" version="1.1" viewBox="0 0 1149 1214" width="1149px" zoomAndPan="magnify"><defs/><g><text fill="#000000" font-family="sans-serif" font-size="25" font-weight="bold" lengthAdjust="spacing" textLength="783" x="179.25" y="39.1699">[Example 2] Verify Offer - Static QR + Passcode, Direct Mode</text><rect fill="#F0FFFF" height="1152.5352" style="stroke:#181818;stroke-width:0.5;" width="313.5" x="412" y="56.4434"/><text fill="#000000" font-family="sans-serif" font-size="13" font-weight="bold" lengthAdjust="spacing" textLength="265" x="434.25" y="69.0117">Service Device (Customer Service Desk)</text><rect fill="#FFFFFF" height="435.3477" style="stroke:#181818;stroke-width:1.0;" width="10" x="195" y="685.1426"/><rect fill="#FFFFFF" height="814.3848" style="stroke:#181818;stroke-width:1.0;" width="10" x="594" y="306.1055"/><rect fill="#FFFFFF" height="712.4531" style="stroke:#181818;stroke-width:1.0;" width="10" x="680.5" y="408.0371"/><rect fill="#FFFFFF" height="102.2422" style="stroke:#181818;stroke-width:1.0;" width="10" x="883.5" y="452.6582"/><rect fill="#FFFFFF" height="113.9316" style="stroke:#181818;stroke-width:1.0;" width="10" x="883.5" y="874.3164"/><rect fill="#FFFFFF" height="44.3105" style="stroke:#181818;stroke-width:1.0;" width="10" x="883.5" y="1076.1797"/><line style="stroke:#181818;stroke-width:0.5;stroke-dasharray:5.0,5.0;" x1="24" x2="24" y1="152.2422" y2="1129.4902"/><line style="stroke:#181818;stroke-width:0.5;stroke-dasharray:5.0,5.0;" x1="200" x2="200" y1="152.2422" y2="1129.4902"/><line style="stroke:#181818;stroke-width:0.5;stroke-dasharray:5.0,5.0;" x1="436" x2="436" y1="152.2422" y2="1129.4902"/><line style="stroke:#181818;stroke-width:0.5;stroke-dasharray:5.0,5.0;" x1="598.5" x2="598.5" y1="152.2422" y2="1129.4902"/><line style="stroke:#181818;stroke-width:0.5;stroke-dasharray:5.0,5.0;" x1="685.5" x2="685.5" y1="152.2422" y2="1129.4902"/><line style="stroke:#181818;stroke-width:0.5;stroke-dasharray:5.0,5.0;" x1="888" x2="888" y1="152.2422" y2="1129.4902"/><text fill="#000000" font-family="sans-serif" font-size="14" font-weight="bold" lengthAdjust="spacing" textLength="32" x="5" y="149.2891">User</text><ellipse cx="24" cy="84.2539" fill="#E2E2F0" rx="8" ry="8" style="stroke:#181818;stroke-width:0.5;"/><path d="M24,92.2539 L24,119.2539 M11,100.2539 L37,100.2539 M24,119.2539 L11,134.2539 M24,119.2539 L37,134.2539 " fill="none" style="stroke:#181818;stroke-width:0.5;"/><text fill="#000000" font-family="sans-serif" font-size="14" font-weight="bold" lengthAdjust="spacing" textLength="32" x="5" y="1142.0254">User</text><ellipse cx="24" cy="1153.4785" fill="#E2E2F0" rx="8" ry="8" style="stroke:#181818;stroke-width:0.5;"/><path d="M24,1161.4785 L24,1188.4785 M11,1169.4785 L37,1169.4785 M24,1188.4785 L11,1203.4785 M24,1188.4785 L37,1203.4785 " fill="none" style="stroke:#181818;stroke-width:0.5;"/><rect fill="#E2E2F0" height="46.9766" rx="2.5" ry="2.5" style="stroke:#181818;stroke-width:0.5;" width="56" x="172" y="104.2656"/><text fill="#000000" font-family="sans-serif" font-size="14" font-style="italic" lengthAdjust="spacing" textLength="42" x="179" y="124.8008">&#171;App&#187;</text><text fill="#000000" font-family="sans-serif" font-size="14" font-weight="bold" lengthAdjust="spacing" textLength="38" x="181" y="141.2891">CApp</text><rect fill="#E2E2F0" height="46.9766" rx="2.5" ry="2.5" style="stroke:#181818;stroke-width:0.5;" width="56" x="172" y="1128.4902"/><text fill="#000000" font-family="sans-serif" font-size="14" font-style="italic" lengthAdjust="spacing" textLength="42" x="179" y="1149.0254">&#171;App&#187;</text><text fill="#000000" font-family="sans-serif" font-size="14" font-weight="bold" lengthAdjust="spacing" textLength="38" x="181" y="1165.5137">CApp</text><text fill="#000000" font-family="sans-serif" font-size="14" font-weight="bold" lengthAdjust="spacing" textLength="34" x="416" y="149.2891">Staff</text><ellipse cx="436" cy="84.2539" fill="#E2E2F0" rx="8" ry="8" style="stroke:#181818;stroke-width:0.5;"/><path d="M436,92.2539 L436,119.2539 M423,100.2539 L449,100.2539 M436,119.2539 L423,134.2539 M436,119.2539 L449,134.2539 " fill="none" style="stroke:#181818;stroke-width:0.5;"/><text fill="#000000" font-family="sans-serif" font-size="14" font-weight="bold" lengthAdjust="spacing" textLength="34" x="416" y="1142.0254">Staff</text><ellipse cx="436" cy="1153.4785" fill="#E2E2F0" rx="8" ry="8" style="stroke:#181818;stroke-width:0.5;"/><path d="M436,1161.4785 L436,1188.4785 M423,1169.4785 L449,1169.4785 M436,1188.4785 L423,1203.4785 M436,1188.4785 L449,1203.4785 " fill="none" style="stroke:#181818;stroke-width:0.5;"/><rect fill="#E2E2F0" height="46.9766" rx="2.5" ry="2.5" style="stroke:#181818;stroke-width:0.5;" width="81" x="558.5" y="104.2656"/><text fill="#000000" font-family="sans-serif" font-size="14" font-style="italic" lengthAdjust="spacing" textLength="53" x="572.5" y="124.8008">&#171;Paper&#187;</text><text fill="#000000" font-family="sans-serif" font-size="14" font-weight="bold" lengthAdjust="spacing" textLength="67" x="565.5" y="141.2891">Static QR</text><rect fill="#E2E2F0" height="46.9766" rx="2.5" ry="2.5" style="stroke:#181818;stroke-width:0.5;" width="81" x="558.5" y="1128.4902"/><text fill="#000000" font-family="sans-serif" font-size="14" font-style="italic" lengthAdjust="spacing" textLength="53" x="572.5" y="1149.0254">&#171;Paper&#187;</text><text fill="#000000" font-family="sans-serif" font-size="14" font-weight="bold" lengthAdjust="spacing" textLength="67" x="565.5" y="1165.5137">Static QR</text><rect fill="#E2E2F0" height="46.9766" rx="2.5" ry="2.5" style="stroke:#181818;stroke-width:0.5;" width="72" x="649.5" y="104.2656"/><text fill="#000000" font-family="sans-serif" font-size="14" font-style="italic" lengthAdjust="spacing" textLength="32" x="669.5" y="124.8008">&#171;PC&#187;</text><text fill="#000000" font-family="sans-serif" font-size="14" font-weight="bold" lengthAdjust="spacing" textLength="58" x="656.5" y="141.2891">Staff PC</text><rect fill="#E2E2F0" height="46.9766" rx="2.5" ry="2.5" style="stroke:#181818;stroke-width:0.5;" width="72" x="649.5" y="1128.4902"/><text fill="#000000" font-family="sans-serif" font-size="14" font-style="italic" lengthAdjust="spacing" textLength="32" x="669.5" y="1149.0254">&#171;PC&#187;</text><text fill="#000000" font-family="sans-serif" font-size="14" font-weight="bold" lengthAdjust="spacing" textLength="58" x="656.5" y="1165.5137">Staff PC</text><rect fill="#E2E2F0" height="46.9766" rx="2.5" ry="2.5" style="stroke:#181818;stroke-width:0.5;" width="71" x="853" y="104.2656"/><text fill="#000000" font-family="sans-serif" font-size="14" font-style="italic" lengthAdjust="spacing" textLength="57" x="860" y="124.8008">&#171;Server&#187;</text><text fill="#000000" font-family="sans-serif" font-size="14" font-weight="bold" lengthAdjust="spacing" textLength="54" x="861.5" y="141.2891">Verifier</text><rect fill="#E2E2F0" height="46.9766" rx="2.5" ry="2.5" style="stroke:#181818;stroke-width:0.5;" width="71" x="853" y="1128.4902"/><text fill="#000000" font-family="sans-serif" font-size="14" font-style="italic" lengthAdjust="spacing" textLength="57" x="860" y="1149.0254">&#171;Server&#187;</text><text fill="#000000" font-family="sans-serif" font-size="14" font-weight="bold" lengthAdjust="spacing" textLength="54" x="861.5" y="1165.5137">Verifier</text><rect fill="#FFFFFF" height="435.3477" style="stroke:#181818;stroke-width:1.0;" width="10" x="195" y="685.1426"/><rect fill="#FFFFFF" height="814.3848" style="stroke:#181818;stroke-width:1.0;" width="10" x="594" y="306.1055"/><rect fill="#FFFFFF" height="712.4531" style="stroke:#181818;stroke-width:1.0;" width="10" x="680.5" y="408.0371"/><rect fill="#FFFFFF" height="102.2422" style="stroke:#181818;stroke-width:1.0;" width="10" x="883.5" y="452.6582"/><rect fill="#FFFFFF" height="113.9316" style="stroke:#181818;stroke-width:1.0;" width="10" x="883.5" y="874.3164"/><rect fill="#FFFFFF" height="44.3105" style="stroke:#181818;stroke-width:1.0;" width="10" x="883.5" y="1076.1797"/><rect fill="#FEFFDD" height="69" style="stroke:#181818;stroke-width:0.5;" width="229" x="571" y="167.2422"/><text fill="#000000" font-family="sans-serif" font-size="13" font-weight="bold" lengthAdjust="spacing" textLength="199" x="575" y="183.8105">[Pre-Configured Information]</text><ellipse cx="580.5" cy="194.3633" fill="#000000" rx="2.5" ry="2.5" style="stroke:#000000;stroke-width:0.0;"/><text fill="#000000" font-family="sans-serif" font-size="13" lengthAdjust="spacing" textLength="209" x="587" y="199.1211">device = Service Device Identifier</text><ellipse cx="580.5" cy="209.6738" fill="#000000" rx="2.5" ry="2.5" style="stroke:#000000;stroke-width:0.0;"/><text fill="#000000" font-family="sans-serif" font-size="13" lengthAdjust="spacing" textLength="167" x="587" y="214.4316">service = Service Identifier</text><ellipse cx="580.5" cy="224.9844" fill="#000000" rx="2.5" ry="2.5" style="stroke:#000000;stroke-width:0.0;"/><text fill="#000000" font-family="sans-serif" font-size="13" lengthAdjust="spacing" textLength="101" x="587" y="229.7422">mode = "Direct"</text><rect fill="#EEEEEE" height="3" style="stroke:#EEEEEE;stroke-width:1.0;" width="1142.5" x="0" y="262.1396"/><line style="stroke:#000000;stroke-width:1.0;" x1="0" x2="1142.5" y1="262.1396" y2="262.1396"/><line style="stroke:#000000;stroke-width:1.0;" x1="0" x2="1142.5" y1="265.1396" y2="265.1396"/><rect fill="#EEEEEE" height="23.3105" style="stroke:#000000;stroke-width:2.0;" width="97" x="522.75" y="251.4844"/><text fill="#000000" font-family="sans-serif" font-size="13" font-weight="bold" lengthAdjust="spacing" textLength="79" x="528.75" y="268.0527">Preparation</text><polygon fill="#181818" points="582,302.1055,592,306.1055,582,310.1055,586,306.1055" style="stroke:#181818;stroke-width:1.0;"/><line style="stroke:#181818;stroke-width:1.0;" x1="436" x2="588" y1="306.1055" y2="306.1055"/><text fill="#000000" font-family="sans-serif" font-size="13" font-weight="bold" lengthAdjust="spacing" textLength="19" x="443" y="301.3633">(1)</text><text fill="#000000" font-family="sans-serif" font-size="13" lengthAdjust="spacing" textLength="116" x="466" y="301.3633">Prepare Printed QR</text><rect fill="#EEEEEE" height="3" style="stroke:#EEEEEE;stroke-width:1.0;" width="1142.5" x="0" y="334.7607"/><line style="stroke:#000000;stroke-width:1.0;" x1="0" x2="1142.5" y1="334.7607" y2="334.7607"/><line style="stroke:#000000;stroke-width:1.0;" x1="0" x2="1142.5" y1="337.7607" y2="337.7607"/><rect fill="#EEEEEE" height="23.3105" style="stroke:#000000;stroke-width:2.0;" width="116" x="513.25" y="324.1055"/><text fill="#000000" font-family="sans-serif" font-size="13" font-weight="bold" lengthAdjust="spacing" textLength="98" x="519.25" y="340.6738">(B) Offer Stage</text><polygon fill="#0000FF" points="424,374.7266,434,378.7266,424,378.7266" style="stroke:#0000FF;stroke-width:1.0;"/><line style="stroke:#0000FF;stroke-width:1.0;" x1="24" x2="435" y1="378.7266" y2="378.7266"/><text fill="#000000" font-family="sans-serif" font-size="13" font-weight="bold" lengthAdjust="spacing" textLength="19" x="31" y="373.9844">(2)</text><text fill="#000000" font-family="sans-serif" font-size="13" lengthAdjust="spacing" textLength="98" x="54" y="373.9844">Request Service</text><polygon fill="#0000FF" points="668.5,404.0371,678.5,408.0371,668.5,408.0371" style="stroke:#0000FF;stroke-width:1.0;"/><line style="stroke:#0000FF;stroke-width:1.0;" x1="436" x2="679.5" y1="408.0371" y2="408.0371"/><text fill="#000000" font-family="sans-serif" font-size="13" font-weight="bold" lengthAdjust="spacing" textLength="19" x="443" y="403.2949">(3)</text><text fill="#000000" font-family="sans-serif" font-size="13" lengthAdjust="spacing" textLength="112" x="466" y="403.2949">Request Passcode</text><polygon fill="#181818" points="871.5,448.6582,881.5,452.6582,871.5,456.6582,875.5,452.6582" style="stroke:#181818;stroke-width:1.0;"/><line style="stroke:#181818;stroke-width:1.0;" x1="690.5" x2="877.5" y1="452.6582" y2="452.6582"/><text fill="#000000" font-family="sans-serif" font-size="13" font-weight="bold" lengthAdjust="spacing" textLength="19" x="697.5" y="440.2607">(4)</text><text fill="#000000" font-family="sans-serif" font-size="13" lengthAdjust="spacing" textLength="151" x="720.5" y="432.6055">(Example) Request Offer</text><text fill="#000000" font-family="sans-serif" font-size="13" lengthAdjust="spacing" textLength="143" x="720.5" y="447.916">{mode, device, service}</text><line style="stroke:#181818;stroke-width:1.0;" x1="893.5" x2="935.5" y1="512.5898" y2="512.5898"/><line style="stroke:#181818;stroke-width:1.0;" x1="935.5" x2="935.5" y1="512.5898" y2="525.5898"/><line style="stroke:#181818;stroke-width:1.0;" x1="894.5" x2="935.5" y1="525.5898" y2="525.5898"/><polygon fill="#181818" points="904.5,521.5898,894.5,525.5898,904.5,529.5898,900.5,525.5898" style="stroke:#181818;stroke-width:1.0;"/><text fill="#000000" font-family="sans-serif" font-size="13" font-weight="bold" lengthAdjust="spacing" textLength="19" x="900.5" y="492.5371">(5)</text><text fill="#000000" font-family="sans-serif" font-size="13" lengthAdjust="spacing" textLength="116" x="923.5" y="477.2266">Create Verify Offer</text><ellipse cx="929" cy="487.7793" fill="#000000" rx="2.5" ry="2.5" style="stroke:#000000;stroke-width:0.0;"/><text fill="#000000" font-family="sans-serif" font-size="13" lengthAdjust="spacing" textLength="165" x="935.5" y="492.5371">offerId = Generate offer id</text><ellipse cx="929" cy="503.0898" fill="#000000" rx="2.5" ry="2.5" style="stroke:#000000;stroke-width:0.0;"/><text fill="#000000" font-family="sans-serif" font-size="13" lengthAdjust="spacing" textLength="195" x="935.5" y="507.8477">passcode = Generate passcode</text><polygon fill="#181818" points="701.5,550.9004,691.5,554.9004,701.5,558.9004,697.5,554.9004" style="stroke:#181818;stroke-width:1.0;"/><line style="stroke:#181818;stroke-width:1.0;stroke-dasharray:2.0,2.0;" x1="695.5" x2="887.5" y1="554.9004" y2="554.9004"/><text fill="#000000" font-family="sans-serif" font-size="13" font-weight="bold" lengthAdjust="spacing" textLength="19" x="707.5" y="550.1582">(6)</text><text fill="#000000" font-family="sans-serif" font-size="13" lengthAdjust="spacing" textLength="117" x="730.5" y="550.1582">{offerId, passcode}</text><line style="stroke:#181818;stroke-width:1.0;" x1="690.5" x2="732.5" y1="584.2109" y2="584.2109"/><line style="stroke:#181818;stroke-width:1.0;" x1="732.5" x2="732.5" y1="584.2109" y2="597.2109"/><line style="stroke:#181818;stroke-width:1.0;" x1="691.5" x2="732.5" y1="597.2109" y2="597.2109"/><polygon fill="#181818" points="701.5,593.2109,691.5,597.2109,701.5,601.2109,697.5,597.2109" style="stroke:#181818;stroke-width:1.0;"/><text fill="#000000" font-family="sans-serif" font-size="13" font-weight="bold" lengthAdjust="spacing" textLength="19" x="697.5" y="579.4688">(7)</text><text fill="#000000" font-family="sans-serif" font-size="13" lengthAdjust="spacing" textLength="110" x="720.5" y="579.4688">Display passcode</text><polygon fill="#0000FF" points="447,622.5215,437,626.5215,447,626.5215" style="stroke:#0000FF;stroke-width:1.0;"/><ellipse cx="680" cy="625.7715" fill="none" rx="4" ry="4" style="stroke:#0000FF;stroke-width:1.5;"/><line style="stroke:#0000FF;stroke-width:1.0;" x1="436" x2="675.5" y1="626.5215" y2="626.5215"/><text fill="#000000" font-family="sans-serif" font-size="13" font-weight="bold" lengthAdjust="spacing" textLength="19" x="453" y="621.7793">(8)</text><text fill="#000000" font-family="sans-serif" font-size="13" lengthAdjust="spacing" textLength="114" x="476" y="621.7793">Confirm passcode</text><polygon fill="#0000FF" points="35,651.832,25,655.832,35,655.832" style="stroke:#0000FF;stroke-width:1.0;"/><line style="stroke:#0000FF;stroke-width:1.0;" x1="24" x2="435" y1="655.832" y2="655.832"/><text fill="#000000" font-family="sans-serif" font-size="13" font-weight="bold" lengthAdjust="spacing" textLength="19" x="41" y="651.0898">(9)</text><text fill="#000000" font-family="sans-serif" font-size="13" lengthAdjust="spacing" textLength="235" x="64" y="651.0898">"Scan the QR and enter &lt;passcode&gt;."</text><polygon fill="#0000FF" points="216,681.1426,206,685.1426,216,689.1426,212,685.1426" style="stroke:#0000FF;stroke-width:1.0;"/><ellipse cx="593.5" cy="684.3926" fill="none" rx="4" ry="4" style="stroke:#0000FF;stroke-width:1.5;"/><line style="stroke:#0000FF;stroke-width:1.0;" x1="210" x2="589" y1="685.1426" y2="685.1426"/><text fill="#000000" font-family="sans-serif" font-size="13" font-weight="bold" lengthAdjust="spacing" textLength="28" x="222" y="680.4004">(10)</text><text fill="#000000" font-family="sans-serif" font-size="13" lengthAdjust="spacing" textLength="87" x="254" y="680.4004">Scan QR Code</text><line style="stroke:#181818;stroke-width:1.0;" x1="205" x2="247" y1="745.0742" y2="745.0742"/><line style="stroke:#181818;stroke-width:1.0;" x1="247" x2="247" y1="745.0742" y2="758.0742"/><line style="stroke:#181818;stroke-width:1.0;" x1="206" x2="247" y1="758.0742" y2="758.0742"/><polygon fill="#181818" points="216,754.0742,206,758.0742,216,762.0742,212,758.0742" style="stroke:#181818;stroke-width:1.0;"/><text fill="#000000" font-family="sans-serif" font-size="13" font-weight="bold" lengthAdjust="spacing" textLength="28" x="212" y="725.0215">(11)</text><ellipse cx="249.5" cy="704.9531" fill="#000000" rx="2.5" ry="2.5" style="stroke:#000000;stroke-width:0.0;"/><text fill="#000000" font-family="sans-serif" font-size="13" lengthAdjust="spacing" textLength="97" x="256" y="709.7109">Extract payload</text><ellipse cx="249.5" cy="720.2637" fill="#000000" rx="2.5" ry="2.5" style="stroke:#000000;stroke-width:0.0;"/><text fill="#000000" font-family="sans-serif" font-size="13" lengthAdjust="spacing" textLength="151" x="256" y="725.0215">device = payload.device</text><ellipse cx="249.5" cy="735.5742" fill="#000000" rx="2.5" ry="2.5" style="stroke:#000000;stroke-width:0.0;"/><text fill="#000000" font-family="sans-serif" font-size="13" lengthAdjust="spacing" textLength="159" x="256" y="740.332">service = payload.service</text><line style="stroke:#181818;stroke-width:1.0;" x1="205" x2="247" y1="787.3848" y2="787.3848"/><line style="stroke:#181818;stroke-width:1.0;" x1="247" x2="247" y1="787.3848" y2="800.3848"/><line style="stroke:#181818;stroke-width:1.0;" x1="206" x2="247" y1="800.3848" y2="800.3848"/><polygon fill="#181818" points="216,796.3848,206,800.3848,216,804.3848,212,800.3848" style="stroke:#181818;stroke-width:1.0;"/><text fill="#000000" font-family="sans-serif" font-size="13" font-weight="bold" lengthAdjust="spacing" textLength="28" x="212" y="782.6426">(12)</text><text fill="#000000" font-family="sans-serif" font-size="13" lengthAdjust="spacing" textLength="180" x="244" y="782.6426">Display Passcode Input Field</text><polygon fill="#0000FF" points="183,825.6953,193,829.6953,183,829.6953" style="stroke:#0000FF;stroke-width:1.0;"/><line style="stroke:#0000FF;stroke-width:1.0;" x1="24" x2="194" y1="829.6953" y2="829.6953"/><text fill="#000000" font-family="sans-serif" font-size="13" font-weight="bold" lengthAdjust="spacing" textLength="28" x="31" y="824.9531">(13)</text><text fill="#000000" font-family="sans-serif" font-size="13" lengthAdjust="spacing" textLength="115" x="63" y="824.9531">Enter &lt;passcode&gt;</text><polygon fill="#181818" points="871.5,870.3164,881.5,874.3164,871.5,878.3164,875.5,874.3164" style="stroke:#181818;stroke-width:1.0;"/><line style="stroke:#181818;stroke-width:1.0;" x1="205" x2="877.5" y1="874.3164" y2="874.3164"/><text fill="#000000" font-family="sans-serif" font-size="13" font-weight="bold" lengthAdjust="spacing" textLength="28" x="212" y="861.9189">(14)</text><text fill="#000000" font-family="sans-serif" font-size="13" lengthAdjust="spacing" textLength="163" x="244" y="854.2637">(Example) Verify Passcode</text><text fill="#000000" font-family="sans-serif" font-size="13" lengthAdjust="spacing" textLength="167" x="244" y="869.5742">{device, service, passcode}</text><line style="stroke:#181818;stroke-width:1.0;" x1="893.5" x2="935.5" y1="903.627" y2="903.627"/><line style="stroke:#181818;stroke-width:1.0;" x1="935.5" x2="935.5" y1="903.627" y2="916.627"/><line style="stroke:#181818;stroke-width:1.0;" x1="894.5" x2="935.5" y1="916.627" y2="916.627"/><polygon fill="#181818" points="904.5,912.627,894.5,916.627,904.5,920.627,900.5,916.627" style="stroke:#181818;stroke-width:1.0;"/><text fill="#000000" font-family="sans-serif" font-size="13" font-weight="bold" lengthAdjust="spacing" textLength="28" x="900.5" y="898.8848">(15)</text><text fill="#000000" font-family="sans-serif" font-size="13" lengthAdjust="spacing" textLength="99" x="932.5" y="898.8848">Verify passcode</text><line style="stroke:#181818;stroke-width:1.0;" x1="893.5" x2="935.5" y1="945.9375" y2="945.9375"/><line style="stroke:#181818;stroke-width:1.0;" x1="935.5" x2="935.5" y1="945.9375" y2="958.9375"/><line style="stroke:#181818;stroke-width:1.0;" x1="894.5" x2="935.5" y1="958.9375" y2="958.9375"/><polygon fill="#181818" points="904.5,954.9375,894.5,958.9375,904.5,962.9375,900.5,958.9375" style="stroke:#181818;stroke-width:1.0;"/><text fill="#000000" font-family="sans-serif" font-size="13" font-weight="bold" lengthAdjust="spacing" textLength="28" x="900.5" y="941.1953">(16)</text><text fill="#000000" font-family="sans-serif" font-size="13" lengthAdjust="spacing" textLength="96" x="932.5" y="941.1953">Retrieve offerId</text><polygon fill="#181818" points="216,984.248,206,988.248,216,992.248,212,988.248" style="stroke:#181818;stroke-width:1.0;"/><line style="stroke:#181818;stroke-width:1.0;stroke-dasharray:2.0,2.0;" x1="210" x2="887.5" y1="988.248" y2="988.248"/><text fill="#000000" font-family="sans-serif" font-size="13" font-weight="bold" lengthAdjust="spacing" textLength="28" x="222" y="983.5059">(17)</text><text fill="#000000" font-family="sans-serif" font-size="13" lengthAdjust="spacing" textLength="50" x="254" y="983.5059">{offerId}</text><rect fill="#EEEEEE" height="3" style="stroke:#EEEEEE;stroke-width:1.0;" width="1142.5" x="0" y="1016.9033"/><line style="stroke:#000000;stroke-width:1.0;" x1="0" x2="1142.5" y1="1016.9033" y2="1016.9033"/><line style="stroke:#000000;stroke-width:1.0;" x1="0" x2="1142.5" y1="1019.9033" y2="1019.9033"/><rect fill="#EEEEEE" height="23.3105" style="stroke:#000000;stroke-width:2.0;" width="81" x="530.75" y="1006.248"/><text fill="#000000" font-family="sans-serif" font-size="13" font-weight="bold" lengthAdjust="spacing" textLength="63" x="536.75" y="1022.8164">(C) Verify</text><polygon fill="#181818" points="871.5,1072.1797,881.5,1076.1797,871.5,1080.1797,875.5,1076.1797" style="stroke:#181818;stroke-width:1.0;"/><line style="stroke:#181818;stroke-width:1.0;" x1="205" x2="877.5" y1="1076.1797" y2="1076.1797"/><text fill="#000000" font-family="sans-serif" font-size="13" font-weight="bold" lengthAdjust="spacing" textLength="28" x="212" y="1063.7822">(18)</text><text fill="#000000" font-family="sans-serif" font-size="13" lengthAdjust="spacing" textLength="119" x="244" y="1056.127">C1. Request Profile</text><text fill="#000000" font-family="sans-serif" font-size="13" lengthAdjust="spacing" textLength="50" x="244" y="1071.4375">{offerId}</text><path d="M170,1089.1797 L170,1114.1797 L917,1114.1797 L917,1099.1797 L907,1089.1797 L170,1089.1797 " fill="#FEFFDD" style="stroke:#181818;stroke-width:0.5;"/><path d="M907,1089.1797 L907,1099.1797 L917,1099.1797 L907,1089.1797 " fill="#FEFFDD" style="stroke:#181818;stroke-width:0.5;"/><text fill="#000000" font-family="sans-serif" font-size="13" lengthAdjust="spacing" textLength="119" x="479.5" y="1106.748">The rest is omitted</text><!--SRC=[RLHDRzim3BthLn399N6J5YkmY-4OQDrkw65Obcwxf3qeDjq9ioLNbeD-eFzzb2pRYJDV78kFvEFZKumm1RAe5cyONdwEjxSllAmAXCj7-8rQvA_mFSzHmnBk3JSYXHyRE8Crh-jKPRY06w4nDV2DFg8BMoLcA3CmhYpZZL6oANTKO1Bjujbq7btiuWa5KgFeB0X-rQY3O0AyXeP-iefhwY8gBeqD9rTLvSCfXoYYppXcE_K2zwZt8aMuGVUQ9KrjL4cDXa3zTmxJgxT68mDw-fuqIPxxghNzxSAZplsu7lYigVsQLwY9mF_nUGxhnCEhrCAJk9M328ydS-gAVlXzJdXBtTLdMYg3eEYBAhbsGR1TQrmcIkRYYKRAu4xcIfV4Kid786X1aBLohCRwt6KeZMleWRMF3yWJI4bBfVYatV74JUA8CRPQ0R6XaLnxMAqOSqh2CYQbGXz4UWjfYEkFZLsvs7EQwbcx_Ddrt7kBf7j2LyDQ09RRwNNHuED3kvmGDlZSO6qwebsd7bQb0wPpvj2Ez6Eq3I966f-TXJ3p7f_tIOx6WtmldQLR2HUTGXzEZNtULWWXqMZB7jqE_pp809GzkCj8jwyeKLkeEmAH7S8gp_CGrvqnZQRH4jvzhKKV-UX6iIFVYBeg-EkGPcFgH3td65qEiB5yLlGG9lSfbs3-eBtXd3PDPY3MKPSMdzErjNTmEztPlALoYtPPb94SQPvo2oMUAG_9IBSlHbECABmMYX_fqFlLnyxzmG5aS6g7yIS7FJejklNJvQWQ0ry45jc9hMp2xMWwN-l48dxDNLqooSWUXyivDefFxNK_ZcxGQ85xx0mpNlf7UqcIdeAz7qSaaq_dW-sroaLXwVNfmpz8oXUkvKzQhhPeKOCgXQ6B-Gy0]--></g></svg>