<svg xmlns="http://www.w3.org/2000/svg" xmlns:xlink="http://www.w3.org/1999/xlink" contentStyleType="text/css" height="567px" preserveAspectRatio="none" style="width:609px;height:567px;background:#FFFFFF;" version="1.1" viewBox="0 0 609 567" width="609px" zoomAndPan="magnify"><defs/><g><rect fill="none" height="345.1328" style="stroke:#000000;stroke-width:1.5;" width="592.6282" x="10" y="111.5625"/><line style="stroke:#181818;stroke-width:0.5;stroke-dasharray:5.0,5.0;" x1="63" x2="63" y1="36.2969" y2="531.9609"/><line style="stroke:#181818;stroke-width:0.5;stroke-dasharray:5.0,5.0;" x1="216.6581" x2="216.6581" y1="36.2969" y2="531.9609"/><rect fill="#E2E2F0" height="30.2969" rx="2.5" ry="2.5" style="stroke:#181818;stroke-width:0.5;" width="86.3311" x="20" y="5"/><text fill="#000000" font-family="sans-serif" font-size="14" lengthAdjust="spacing" textLength="72.3311" x="27" y="24.9951">Client App</text><rect fill="#E2E2F0" height="30.2969" rx="2.5" ry="2.5" style="stroke:#181818;stroke-width:0.5;" width="86.3311" x="20" y="530.9609"/><text fill="#000000" font-family="sans-serif" font-size="14" lengthAdjust="spacing" textLength="72.3311" x="27" y="550.9561">Client App</text><rect fill="#E2E2F0" height="30.2969" rx="2.5" ry="2.5" style="stroke:#181818;stroke-width:0.5;" width="91.376" x="171.6581" y="5"/><text fill="#000000" font-family="sans-serif" font-size="14" lengthAdjust="spacing" textLength="77.376" x="178.6581" y="24.9951">TAS Server</text><rect fill="#E2E2F0" height="30.2969" rx="2.5" ry="2.5" style="stroke:#181818;stroke-width:0.5;" width="91.376" x="171.6581" y="530.9609"/><text fill="#000000" font-family="sans-serif" font-size="14" lengthAdjust="spacing" textLength="77.376" x="178.6581" y="550.9561">TAS Server</text><line style="stroke:#181818;stroke-width:1.0;" x1="215.3461" x2="205.3461" y1="67.4297" y2="63.4297"/><line style="stroke:#181818;stroke-width:1.0;" x1="215.3461" x2="205.3461" y1="67.4297" y2="71.4297"/><line style="stroke:#181818;stroke-width:1.0;" x1="63.1655" x2="216.3461" y1="67.4297" y2="67.4297"/><text fill="#000000" font-family="sans-serif" font-size="13" lengthAdjust="spacing" textLength="101.3952" x="70.1655" y="62.3638">PII &#46321;&#47197; &#50836;&#52397; (PII)</text><line style="stroke:#181818;stroke-width:1.0;" x1="64.1655" x2="74.1655" y1="96.5625" y2="92.5625"/><line style="stroke:#181818;stroke-width:1.0;" x1="64.1655" x2="74.1655" y1="96.5625" y2="100.5625"/><line style="stroke:#181818;stroke-width:1.0;stroke-dasharray:2.0,2.0;" x1="63.1655" x2="216.3461" y1="96.5625" y2="96.5625"/><text fill="#000000" font-family="sans-serif" font-size="13" lengthAdjust="spacing" textLength="130.1806" x="80.1655" y="91.4966">&#44208;&#44284; &#51204;&#45804; (&#44592;&#46321;&#47197; &#50668;&#48512;)</text><path d="M10,111.5625 L74.4429,111.5625 L74.4429,118.6953 L64.4429,128.6953 L10,128.6953 L10,111.5625 " fill="#EEEEEE" style="stroke:#000000;stroke-width:1.5;"/><rect fill="none" height="345.1328" style="stroke:#000000;stroke-width:1.5;" width="592.6282" x="10" y="111.5625"/><text fill="#000000" font-family="sans-serif" font-size="13" font-weight="bold" lengthAdjust="spacing" textLength="19.4429" x="25" y="124.6294">alt</text><text fill="#000000" font-family="sans-serif" font-size="11" font-weight="bold" lengthAdjust="spacing" textLength="122.7426" x="89.4429" y="123.7729">[&#44592;&#51316; &#50900;&#47131; &#49324;&#50857;&#54616;&#45716; &#44221;&#50864;]</text><line style="stroke:#181818;stroke-width:1.0;" x1="215.3461" x2="205.3461" y1="149.8281" y2="145.8281"/><line style="stroke:#181818;stroke-width:1.0;" x1="215.3461" x2="205.3461" y1="149.8281" y2="153.8281"/><line style="stroke:#181818;stroke-width:1.0;" x1="63.1655" x2="216.3461" y1="149.8281" y2="149.8281"/><text fill="#000000" font-family="sans-serif" font-size="13" lengthAdjust="spacing" textLength="108.077" x="70.1655" y="144.7622">&#44592;&#51316; &#50900;&#47131; &#49324;&#50857; &#50836;&#52397;</text><path d="M222,162.8281 L222,187.8281 L429,187.8281 L429,172.8281 L419,162.8281 L222,162.8281 " fill="#FEFFDD" style="stroke:#181818;stroke-width:0.5;"/><path d="M419,162.8281 L419,172.8281 L429,172.8281 L419,162.8281 " fill="#FEFFDD" style="stroke:#181818;stroke-width:0.5;"/><text fill="#000000" font-family="sans-serif" font-size="13" lengthAdjust="spacing" textLength="186.8809" x="228" y="179.895">File &#50900;&#47131;&#51008; &#44592;&#51316; &#50900;&#47131; &#49324;&#50857; &#48520;&#44032;&#45733;</text><path d="M222,197.9609 L222,222.9609 L592,222.9609 L592,207.9609 L582,197.9609 L222,197.9609 " fill="#FEFFDD" style="stroke:#181818;stroke-width:0.5;"/><path d="M582,197.9609 L582,207.9609 L592,207.9609 L582,197.9609 " fill="#FEFFDD" style="stroke:#181818;stroke-width:0.5;"/><text fill="#000000" font-family="sans-serif" font-size="13" lengthAdjust="spacing" textLength="349.6282" x="228" y="215.0278">App &#50900;&#47131;&#51008; &#45800;&#47568;&#51060; &#51060;&#51204;&#44284; &#45796;&#47480; &#44221;&#50864;&#50640;&#45716; &#44592;&#51316; &#50900;&#47131; &#49324;&#50857; &#48520;&#44032;&#45733;</text><line style="stroke:#181818;stroke-width:1.0;" x1="217.3461" x2="259.3461" y1="249.2266" y2="249.2266"/><line style="stroke:#181818;stroke-width:1.0;" x1="259.3461" x2="259.3461" y1="249.2266" y2="262.2266"/><line style="stroke:#181818;stroke-width:1.0;" x1="218.3461" x2="259.3461" y1="262.2266" y2="262.2266"/><polygon fill="#181818" points="228.3461,258.2266,218.3461,262.2266,228.3461,266.2266,224.3461,262.2266" style="stroke:#181818;stroke-width:1.0;"/><text fill="#000000" font-family="sans-serif" font-size="13" lengthAdjust="spacing" textLength="122.3529" x="224.3461" y="244.1606">&#51221;&#48372; &#44081;&#49888; (&#49324;&#50857;&#51088;, &#50545;)</text><line style="stroke:#181818;stroke-width:1.0;" x1="64.1655" x2="74.1655" y1="291.3594" y2="287.3594"/><line style="stroke:#181818;stroke-width:1.0;" x1="64.1655" x2="74.1655" y1="291.3594" y2="295.3594"/><line style="stroke:#181818;stroke-width:1.0;stroke-dasharray:2.0,2.0;" x1="63.1655" x2="216.3461" y1="291.3594" y2="291.3594"/><text fill="#000000" font-family="sans-serif" font-size="13" lengthAdjust="spacing" textLength="18.7573" x="80.1655" y="286.2935">OK</text><line style="stroke:#000000;stroke-width:1.0;stroke-dasharray:2.0,2.0;" x1="10" x2="602.6282" y1="300.3594" y2="300.3594"/><text fill="#000000" font-family="sans-serif" font-size="11" font-weight="bold" lengthAdjust="spacing" textLength="132.8626" x="15" y="310.5698">[&#49352;&#47196;&#50868; &#50900;&#47131; &#46321;&#47197;&#54616;&#45716; &#44221;&#50864;]</text><line style="stroke:#181818;stroke-width:1.0;" x1="215.3461" x2="205.3461" y1="335.2969" y2="331.2969"/><line style="stroke:#181818;stroke-width:1.0;" x1="215.3461" x2="205.3461" y1="335.2969" y2="339.2969"/><line style="stroke:#181818;stroke-width:1.0;" x1="63.1655" x2="216.3461" y1="335.2969" y2="335.2969"/><text fill="#000000" font-family="sans-serif" font-size="13" lengthAdjust="spacing" textLength="105.0705" x="70.1655" y="330.231">DIDDoc &#46321;&#47197; &#50836;&#52397;</text><line style="stroke:#181818;stroke-width:1.0;" x1="217.3461" x2="259.3461" y1="364.4297" y2="364.4297"/><line style="stroke:#181818;stroke-width:1.0;" x1="259.3461" x2="259.3461" y1="364.4297" y2="377.4297"/><line style="stroke:#181818;stroke-width:1.0;" x1="218.3461" x2="259.3461" y1="377.4297" y2="377.4297"/><polygon fill="#181818" points="228.3461,373.4297,218.3461,377.4297,228.3461,381.4297,224.3461,377.4297" style="stroke:#181818;stroke-width:1.0;"/><text fill="#000000" font-family="sans-serif" font-size="13" lengthAdjust="spacing" textLength="137.2552" x="224.3461" y="359.3638">&#44592;&#51316; &#50900;&#47131;, DIDDoc &#54224;&#44592;</text><line style="stroke:#181818;stroke-width:1.0;" x1="217.3461" x2="259.3461" y1="406.5625" y2="406.5625"/><line style="stroke:#181818;stroke-width:1.0;" x1="259.3461" x2="259.3461" y1="406.5625" y2="419.5625"/><line style="stroke:#181818;stroke-width:1.0;" x1="218.3461" x2="259.3461" y1="419.5625" y2="419.5625"/><polygon fill="#181818" points="228.3461,415.5625,218.3461,419.5625,228.3461,423.5625,224.3461,419.5625" style="stroke:#181818;stroke-width:1.0;"/><text fill="#000000" font-family="sans-serif" font-size="13" lengthAdjust="spacing" textLength="154.5376" x="224.3461" y="401.4966">&#51221;&#48372; &#44081;&#49888; (&#49324;&#50857;&#51088;, &#50900;&#47131;, &#50545;)</text><line style="stroke:#181818;stroke-width:1.0;" x1="64.1655" x2="74.1655" y1="448.6953" y2="444.6953"/><line style="stroke:#181818;stroke-width:1.0;" x1="64.1655" x2="74.1655" y1="448.6953" y2="452.6953"/><line style="stroke:#181818;stroke-width:1.0;stroke-dasharray:2.0,2.0;" x1="63.1655" x2="216.3461" y1="448.6953" y2="448.6953"/><text fill="#000000" font-family="sans-serif" font-size="13" lengthAdjust="spacing" textLength="18.7573" x="80.1655" y="443.6294">OK</text><line style="stroke:#181818;stroke-width:1.0;" x1="215.3461" x2="205.3461" y1="484.8281" y2="480.8281"/><line style="stroke:#181818;stroke-width:1.0;" x1="215.3461" x2="205.3461" y1="484.8281" y2="488.8281"/><line style="stroke:#181818;stroke-width:1.0;" x1="63.1655" x2="216.3461" y1="484.8281" y2="484.8281"/><text fill="#000000" font-family="sans-serif" font-size="13" lengthAdjust="spacing" textLength="51.9724" x="70.1655" y="479.7622">&#54869;&#51064; &#50836;&#52397;</text><line style="stroke:#181818;stroke-width:1.0;" x1="64.1655" x2="74.1655" y1="513.9609" y2="509.9609"/><line style="stroke:#181818;stroke-width:1.0;" x1="64.1655" x2="74.1655" y1="513.9609" y2="517.9609"/><line style="stroke:#181818;stroke-width:1.0;stroke-dasharray:2.0,2.0;" x1="63.1655" x2="216.3461" y1="513.9609" y2="513.9609"/><text fill="#000000" font-family="sans-serif" font-size="13" lengthAdjust="spacing" textLength="18.7573" x="80.1655" y="508.895">OK</text><!--SRC=[bL9DQy904BtdLmoU5FGFU12aKf0UMh1_8DYq3GHTOkWvj3s8EJHGWsriIeHAMr287qWExH_AZF-XkvfKhRRIlUsyUM_UcrqcwuPQLPbSCq1c3EG6f0uqLU7N8cCfYQtX1WS5VbgiG4NHhnGz9Kc2b2iK5c0UJifbmFiHzZmWjqtZ8QHvAIC9D2VQH7iUed4GJJw0_5kq1f2EmY0XTGOuCpDSLZE0bwat1UgsqUy2NG_8VPyx3zXgSu5FSWC9-Daqi8iJMn7TjRgXWAvUN1fGFuyfXwgcn0JopDqAE6j6WOcj_cyYV5bh6cYzuQjD7fVnfZob28lM2_R3s3brx4MClRCMyhaa7VaEJgOG1IEoV4Wl2VHiPu6SKMRLlzhqyP6aQ0sUxwQ9lIToluSj5xvldQLogLIlRZxfjgsD6Dc4DB-pEV2l4B70Ns5gPp__tFpH8IzCp6rHlW00]--></g></svg>