<?xml version="1.0" encoding="UTF-8"?><svg xmlns="http://www.w3.org/2000/svg" xmlns:xlink="http://www.w3.org/1999/xlink" fill-opacity="1" color-rendering="auto" color-interpolation="auto" text-rendering="auto" stroke="black" stroke-linecap="square" width="1203" stroke-miterlimit="10" shape-rendering="auto" stroke-opacity="1" fill="black" stroke-dasharray="none" font-weight="normal" stroke-width="1" height="448" font-family="'Dialog'" font-style="normal" stroke-linejoin="miter" font-size="12px" stroke-dashoffset="0" image-rendering="auto">
  <!--Generated by ySVG 2.6-->
  <defs id="genericDefs"/>
  <g>
    <defs id="defs1">
      <clipPath clipPathUnits="userSpaceOnUse" id="clipPath1">
        <path d="M0 0 L1203 0 L1203 448 L0 448 L0 0 Z"/>
      </clipPath>
      <clipPath clipPathUnits="userSpaceOnUse" id="clipPath2">
        <path d="M219 258 L1422 258 L1422 706 L219 706 L219 258 Z"/>
      </clipPath>
    </defs>
    <g fill="white" text-rendering="geometricPrecision" shape-rendering="geometricPrecision" transform="translate(-219,-258)" stroke="white">
      <rect x="219" width="1203" height="448" y="258" clip-path="url(#clipPath2)" stroke="none"/>
    </g>
    <g text-rendering="geometricPrecision" stroke-miterlimit="1.45" shape-rendering="geometricPrecision" transform="matrix(1,0,0,1,-219,-258)" stroke-linecap="butt">
      <rect fill="none" x="472.624" width="103.216" height="254.576" y="436.0991" clip-path="url(#clipPath2)"/>
      <text x="520.0923" xml:space="preserve" y="567.9222" clip-path="url(#clipPath2)" font-family="sans-serif" stroke="none">A</text>
      <rect fill="none" x="417.704" width="849" height="54.576" y="273.799" clip-path="url(#clipPath2)"/>
      <text x="811.1844" xml:space="preserve" y="305.6222" clip-path="url(#clipPath2)" font-family="sans-serif" stroke="none">Blockchain</text>
      <rect x="234.3822" y="536.7748" clip-path="url(#clipPath2)" fill="none" width="221.0818" height="119.576" stroke="red"/>
      <text x="246.4387" y="579.8987" clip-path="url(#clipPath2)" fill="red" font-family="sans-serif" stroke="none" xml:space="preserve"> Confirm that</text>
      <text x="246.4387" y="594.0316" clip-path="url(#clipPath2)" fill="red" font-family="sans-serif" stroke="none" xml:space="preserve">this DID is not the DID requesting</text>
      <text x="246.4387" y="608.1644" clip-path="url(#clipPath2)" fill="red" font-family="sans-serif" stroke="none" xml:space="preserve">the connection </text>
      <text x="246.4387" y="622.2972" clip-path="url(#clipPath2)" fill="red" font-family="sans-serif" stroke="none" xml:space="preserve">  =&gt; DH perform X</text>
    </g>
    <g fill="rgb(255,204,204)" text-rendering="geometricPrecision" shape-rendering="geometricPrecision" transform="matrix(1,0,0,1,-219,-258)" stroke="rgb(255,204,204)">
      <path d="M461.624 363.0591 L481.696 363.0591 L481.696 378.0591 L496.696 378.0591 L496.696 406.0991 L461.624 406.0991 Z" stroke="none" clip-path="url(#clipPath2)"/>
      <path fill="white" d="M481.696 363.0591 L481.696 378.0591 L496.696 378.0591 Z" clip-path="url(#clipPath2)" fill-rule="evenodd" stroke="none"/>
    </g>
    <g text-rendering="geometricPrecision" stroke-miterlimit="1.45" shape-rendering="geometricPrecision" transform="matrix(1,0,0,1,-219,-258)" stroke-linecap="butt">
      <path fill="none" d="M461.624 363.0591 L481.696 363.0591 L481.696 378.0591 L496.696 378.0591 L496.696 406.0991 L461.624 406.0991 Z" clip-path="url(#clipPath2)"/>
      <path fill="none" d="M481.696 363.0591 L481.696 378.0591 L496.696 378.0591 Z" clip-path="url(#clipPath2)" fill-rule="evenodd"/>
      <text x="425.7665" xml:space="preserve" y="354.5278" clip-path="url(#clipPath2)" font-family="sans-serif" stroke="none">X's DID Doc 조회</text>
    </g>
    <g fill="rgb(204,204,204)" text-rendering="geometricPrecision" shape-rendering="geometricPrecision" transform="matrix(1,0,0,1,-219,-258)" stroke="rgb(204,204,204)">
      <rect x="1064.488" width="103.216" height="254.576" y="436.0991" clip-path="url(#clipPath2)" stroke="none"/>
    </g>
    <g text-rendering="geometricPrecision" stroke-miterlimit="1.45" shape-rendering="geometricPrecision" transform="matrix(1,0,0,1,-219,-258)" stroke-linecap="butt">
      <rect fill="none" x="1064.488" width="103.216" height="254.576" y="436.0991" clip-path="url(#clipPath2)"/>
      <text x="1112.6448" xml:space="preserve" y="567.9222" clip-path="url(#clipPath2)" font-family="sans-serif" stroke="none">B</text>
      <rect x="1185.1025" y="533.5496" clip-path="url(#clipPath2)" fill="none" width="221.0818" height="119.576" stroke="red"/>
      <text x="1197.1591" y="576.6736" clip-path="url(#clipPath2)" fill="red" font-family="sans-serif" stroke="none" xml:space="preserve">Confirm that</text>
      <text x="1197.1591" y="590.8064" clip-path="url(#clipPath2)" fill="red" font-family="sans-serif" stroke="none" xml:space="preserve">this DID is not the DID requesting</text>
      <text x="1197.1591" y="604.9392" clip-path="url(#clipPath2)" fill="red" font-family="sans-serif" stroke="none" xml:space="preserve">the connection </text>
      <text x="1197.1591" y="619.072" clip-path="url(#clipPath2)" fill="red" font-family="sans-serif" stroke="none" xml:space="preserve">  =&gt; DH perform X</text>
    </g>
    <g fill="rgb(255,204,204)" text-rendering="geometricPrecision" shape-rendering="geometricPrecision" transform="matrix(1,0,0,1,-219,-258)" stroke="rgb(255,204,204)">
      <path d="M1146.408 363.0591 L1166.48 363.0591 L1166.48 378.0591 L1181.48 378.0591 L1181.48 406.0991 L1146.408 406.0991 Z" stroke="none" clip-path="url(#clipPath2)"/>
      <path fill="white" d="M1166.48 363.0591 L1166.48 378.0591 L1181.48 378.0591 Z" clip-path="url(#clipPath2)" fill-rule="evenodd" stroke="none"/>
    </g>
    <g text-rendering="geometricPrecision" stroke-miterlimit="1.45" shape-rendering="geometricPrecision" transform="matrix(1,0,0,1,-219,-258)" stroke-linecap="butt">
      <path fill="none" d="M1146.408 363.0591 L1166.48 363.0591 L1166.48 378.0591 L1181.48 378.0591 L1181.48 406.0991 L1146.408 406.0991 Z" clip-path="url(#clipPath2)"/>
      <path fill="none" d="M1166.48 363.0591 L1166.48 378.0591 L1181.48 378.0591 Z" clip-path="url(#clipPath2)" fill-rule="evenodd"/>
      <text x="1127.9265" xml:space="preserve" y="354.5278" clip-path="url(#clipPath2)" font-family="sans-serif" stroke="none">X's DID Doc 조회</text>
    </g>
    <g fill="rgb(255,204,204)" text-rendering="geometricPrecision" shape-rendering="geometricPrecision" transform="matrix(1,0,0,1,-219,-258)" stroke="rgb(255,204,204)">
      <rect x="768.556" width="103.216" height="254.576" y="436.0991" clip-path="url(#clipPath2)" stroke="none"/>
    </g>
    <g text-rendering="geometricPrecision" stroke-miterlimit="1.45" shape-rendering="geometricPrecision" transform="matrix(1,0,0,1,-219,-258)" stroke-linecap="butt">
      <rect fill="none" x="768.556" width="103.216" height="254.576" y="436.0991" clip-path="url(#clipPath2)"/>
      <text x="816.4081" xml:space="preserve" y="567.9222" clip-path="url(#clipPath2)" font-family="sans-serif" stroke="none">X</text>
    </g>
    <g fill="rgb(255,204,204)" text-rendering="geometricPrecision" shape-rendering="geometricPrecision" transform="matrix(1,0,0,1,-219,-258)" stroke="rgb(255,204,204)">
      <path d="M907.876 404.962 L1019.948 404.962 L1019.948 419.962 L1034.948 419.962 L1034.948 470.002 L907.876 470.002 Z" stroke="none" clip-path="url(#clipPath2)"/>
      <path fill="white" d="M1019.948 404.962 L1019.948 419.962 L1034.948 419.962 Z" clip-path="url(#clipPath2)" fill-rule="evenodd" stroke="none"/>
    </g>
    <g text-rendering="geometricPrecision" stroke-miterlimit="1.45" shape-rendering="geometricPrecision" transform="matrix(1,0,0,1,-219,-258)" stroke-linecap="butt">
      <path fill="none" d="M907.876 404.962 L1019.948 404.962 L1019.948 419.962 L1034.948 419.962 L1034.948 470.002 L907.876 470.002 Z" clip-path="url(#clipPath2)"/>
      <path fill="none" d="M1019.948 404.962 L1019.948 419.962 L1034.948 419.962 Z" clip-path="url(#clipPath2)" fill-rule="evenodd"/>
      <text x="935.6669" xml:space="preserve" y="420.8179" clip-path="url(#clipPath2)" font-family="sans-serif" stroke="none">X's Key Data</text>
      <text x="935.6669" xml:space="preserve" y="434.9507" clip-path="url(#clipPath2)" font-family="sans-serif" stroke="none">DH Data</text>
      <text x="935.6669" xml:space="preserve" y="449.0836" clip-path="url(#clipPath2)" font-family="sans-serif" stroke="none">Proof:</text>
      <text x="935.6669" xml:space="preserve" y="463.2164" clip-path="url(#clipPath2)" font-family="sans-serif" stroke="none">   X's Sign</text>
    </g>
    <g fill="silver" text-rendering="geometricPrecision" shape-rendering="geometricPrecision" transform="matrix(1,0,0,1,-219,-258)" stroke="silver">
      <path d="M904.594 514.968 L1016.666 514.968 L1016.666 529.968 L1031.666 529.968 L1031.666 580.0079 L904.594 580.0079 Z" stroke="none" clip-path="url(#clipPath2)"/>
      <path fill="white" d="M1016.666 514.968 L1016.666 529.968 L1031.666 529.968 Z" clip-path="url(#clipPath2)" fill-rule="evenodd" stroke="none"/>
    </g>
    <g text-rendering="geometricPrecision" stroke-miterlimit="1.45" shape-rendering="geometricPrecision" transform="matrix(1,0,0,1,-219,-258)" stroke-linecap="butt">
      <path fill="none" d="M904.594 514.968 L1016.666 514.968 L1016.666 529.968 L1031.666 529.968 L1031.666 580.0079 L904.594 580.0079 Z" clip-path="url(#clipPath2)"/>
      <path fill="none" d="M1016.666 514.968 L1016.666 529.968 L1031.666 529.968 Z" clip-path="url(#clipPath2)" fill-rule="evenodd"/>
      <text x="932.6896" xml:space="preserve" y="530.8239" clip-path="url(#clipPath2)" font-family="sans-serif" stroke="none">B's Key Data</text>
      <text x="932.6896" xml:space="preserve" y="544.9567" clip-path="url(#clipPath2)" font-family="sans-serif" stroke="none">DH Data</text>
      <text x="932.6896" xml:space="preserve" y="559.0895" clip-path="url(#clipPath2)" font-family="sans-serif" stroke="none">Proof:</text>
      <text x="932.6896" xml:space="preserve" y="573.2223" clip-path="url(#clipPath2)" font-family="sans-serif" stroke="none">   B's Sign</text>
      <path fill="none" d="M605.38 404.962 L717.452 404.962 L717.452 419.962 L732.452 419.962 L732.452 470.002 L605.38 470.002 Z" clip-path="url(#clipPath2)"/>
      <path fill="none" d="M717.452 404.962 L717.452 419.962 L732.452 419.962 Z" clip-path="url(#clipPath2)" fill-rule="evenodd"/>
      <text x="632.7871" xml:space="preserve" y="420.8179" clip-path="url(#clipPath2)" font-family="sans-serif" stroke="none">A's Key Data</text>
      <text x="632.7871" xml:space="preserve" y="434.9507" clip-path="url(#clipPath2)" font-family="sans-serif" stroke="none">DH Data</text>
      <text x="632.7871" xml:space="preserve" y="449.0836" clip-path="url(#clipPath2)" font-family="sans-serif" stroke="none">Proof:</text>
      <text x="632.7871" xml:space="preserve" y="463.2164" clip-path="url(#clipPath2)" font-family="sans-serif" stroke="none">   A's Sign</text>
    </g>
    <g fill="rgb(255,204,204)" text-rendering="geometricPrecision" shape-rendering="geometricPrecision" transform="matrix(1,0,0,1,-219,-258)" stroke="rgb(255,204,204)">
      <path d="M605.38 514.1 L717.452 514.1 L717.452 529.1 L732.452 529.1 L732.452 579.14 L605.38 579.14 Z" stroke="none" clip-path="url(#clipPath2)"/>
      <path fill="white" d="M717.452 514.1 L717.452 529.1 L732.452 529.1 Z" clip-path="url(#clipPath2)" fill-rule="evenodd" stroke="none"/>
    </g>
    <g text-rendering="geometricPrecision" stroke-miterlimit="1.45" shape-rendering="geometricPrecision" transform="matrix(1,0,0,1,-219,-258)" stroke-linecap="butt">
      <path fill="none" d="M605.38 514.1 L717.452 514.1 L717.452 529.1 L732.452 529.1 L732.452 579.14 L605.38 579.14 Z" clip-path="url(#clipPath2)"/>
      <path fill="none" d="M717.452 514.1 L717.452 529.1 L732.452 529.1 Z" clip-path="url(#clipPath2)" fill-rule="evenodd"/>
      <text x="633.1709" xml:space="preserve" y="529.9559" clip-path="url(#clipPath2)" font-family="sans-serif" stroke="none">X's Key Data</text>
      <text x="633.1709" xml:space="preserve" y="544.0887" clip-path="url(#clipPath2)" font-family="sans-serif" stroke="none">DH Data</text>
      <text x="633.1709" xml:space="preserve" y="558.2216" clip-path="url(#clipPath2)" font-family="sans-serif" stroke="none">Proof:</text>
      <text x="633.1709" xml:space="preserve" y="572.3544" clip-path="url(#clipPath2)" font-family="sans-serif" stroke="none">   X's Sign</text>
      <path fill="none" stroke-dasharray="6,2" d="M472.6497 469.6877 L436.7 469.6877 L436.7 516.7748 L464.6487 516.7748" clip-path="url(#clipPath2)" stroke="gray"/>
      <path fill="gray" stroke-dasharray="6,2" d="M472.6487 516.7748 L460.6487 511.7748 L463.6487 516.7748 L460.6487 521.7748 Z" clip-path="url(#clipPath2)" stroke="none"/>
      <text x="265.3646" y="484.3413" clip-path="url(#clipPath2)" fill="gray" font-family="sans-serif" stroke="none" xml:space="preserve">Perform DH after verifying X's Sign</text>
      <path fill="none" d="M524.232 428.0991 L524.232 336.343" clip-path="url(#clipPath2)"/>
      <path d="M524.232 436.0991 L529.232 424.0991 L524.232 427.0991 L519.232 424.0991 Z" clip-path="url(#clipPath2)" stroke="none"/>
      <path d="M524.232 328.343 L519.232 340.343 L524.232 337.343 L529.232 340.343 Z" clip-path="url(#clipPath2)" stroke="none"/>
      <path fill="none" stroke-dasharray="6,2" d="M1167.6827 476.9943 L1198.86 476.9943 L1198.86 520.0222 L1175.7086 520.0222" clip-path="url(#clipPath2)" stroke="gray"/>
      <path fill="gray" stroke-dasharray="6,2" d="M1167.7086 520.0222 L1179.7086 525.0222 L1176.7086 520.0222 L1179.7086 515.0222 Z" clip-path="url(#clipPath2)" stroke="none"/>
      <text x="1169.2546" y="490.9545" clip-path="url(#clipPath2)" fill="gray" font-family="sans-serif" stroke="none" xml:space="preserve">Perform DH after verifying X's Sign</text>
      <path fill="none" d="M1115.636 428.0991 L1115.3241 336.3843" clip-path="url(#clipPath2)"/>
      <path d="M1115.6632 436.0991 L1120.6223 424.0821 L1115.6326 427.0991 L1110.6224 424.1161 Z" clip-path="url(#clipPath2)" stroke="none"/>
      <path d="M1115.2969 328.3844 L1110.3378 340.4013 L1115.3275 337.3843 L1120.3376 340.3673 Z" clip-path="url(#clipPath2)" stroke="none"/>
    </g>
    <g stroke-linecap="butt" transform="matrix(1,0,0,1,-219,-258)" fill="rgb(255,153,0)" text-rendering="geometricPrecision" shape-rendering="geometricPrecision" stroke-dasharray="12,4" stroke="rgb(255,153,0)" stroke-width="2" stroke-miterlimit="1.45">
      <path fill="none" d="M584.8215 659.66 L759.5535 659.66" clip-path="url(#clipPath2)"/>
      <path d="M575.8215 659.66 L589.3215 665.285 L585.9465 659.66 L589.3215 654.035 Z" clip-path="url(#clipPath2)" stroke="none"/>
      <path d="M768.5535 659.66 L755.0535 654.035 L758.4285 659.66 L755.0535 665.285 Z" clip-path="url(#clipPath2)" stroke="none"/>
      <text x="596.0329" y="685.1952" clip-path="url(#clipPath2)" font-family="sans-serif" stroke-dasharray="none" stroke="none" stroke-width="1" xml:space="preserve">Secure Channer Crwation X</text>
    </g>
    <g text-rendering="geometricPrecision" stroke-miterlimit="1.45" shape-rendering="geometricPrecision" transform="matrix(1,0,0,1,-219,-258)" stroke-linecap="butt">
      <path fill="none" d="M575.8742 480.9679 L760.5704 480.9679" clip-path="url(#clipPath2)"/>
      <path d="M768.5704 480.9679 L756.5704 475.9679 L759.5704 480.9679 L756.5704 485.9679 Z" clip-path="url(#clipPath2)" stroke="none"/>
      <path fill="none" d="M1064.4771 507.9679 L879.8036 507.9679" clip-path="url(#clipPath2)"/>
      <path d="M871.8036 507.9679 L883.8036 512.9679 L880.8036 507.9679 L883.8036 502.9679 Z" clip-path="url(#clipPath2)" stroke="none"/>
    </g>
    <g stroke-linecap="butt" transform="matrix(1,0,0,1,-219,-258)" fill="rgb(255,153,0)" text-rendering="geometricPrecision" shape-rendering="geometricPrecision" stroke-dasharray="12,4" stroke="rgb(255,153,0)" stroke-width="2" stroke-miterlimit="1.45">
      <path fill="none" d="M880.7715 659.7524 L1055.4458 659.7524" clip-path="url(#clipPath2)"/>
      <path d="M871.7715 659.7524 L885.2715 665.3774 L881.8965 659.7524 L885.2715 654.1274 Z" clip-path="url(#clipPath2)" stroke="none"/>
      <path d="M1064.4458 659.7524 L1050.9458 654.1274 L1054.3208 659.7524 L1050.9458 665.3774 Z" clip-path="url(#clipPath2)" stroke="none"/>
      <text x="897.8161" y="686.2876" clip-path="url(#clipPath2)" font-family="sans-serif" stroke-dasharray="none" stroke="none" stroke-width="1" xml:space="preserve">Secure Channer Creation X</text>
    </g>
    <g text-rendering="geometricPrecision" stroke-miterlimit="1.45" shape-rendering="geometricPrecision" transform="matrix(1,0,0,1,-219,-258)" stroke-linecap="butt">
      <path fill="none" d="M768.5825 507.1 L583.8126 507.1" clip-path="url(#clipPath2)"/>
      <path d="M575.8126 507.1 L587.8126 512.1 L584.8126 507.1 L587.8126 502.1 Z" clip-path="url(#clipPath2)" stroke="none"/>
      <path fill="none" d="M871.7366 480.3918 L1056.463 480.3918" clip-path="url(#clipPath2)"/>
      <path d="M1064.463 480.3918 L1052.463 475.3918 L1055.463 480.3918 L1052.463 485.3918 Z" clip-path="url(#clipPath2)" stroke="none"/>
    </g>
  </g>
</svg>
