<?xml version="1.0" encoding="us-ascii" standalone="no"?><svg xmlns="http://www.w3.org/2000/svg" xmlns:xlink="http://www.w3.org/1999/xlink" contentStyleType="text/css" height="549px" preserveAspectRatio="none" style="width:1171px;height:549px;background:#FFFFFF;" version="1.1" viewBox="0 0 1171 549" width="1171px" zoomAndPan="magnify"><defs/><g><text fill="#000000" font-family="sans-serif" font-size="25" font-weight="bold" lengthAdjust="spacing" textLength="284" x="442.5" y="39.1699">Wallet Token Creation</text><rect fill="#FFFFFF" height="29.3105" style="stroke:#181818;stroke-width:1.0;" width="10" x="34.5" y="134.7305"/><rect fill="#FFFFFF" height="156.2422" style="stroke:#181818;stroke-width:1.0;" width="10" x="34.5" y="251.9727"/><rect fill="#FFFFFF" height="29.3105" style="stroke:#181818;stroke-width:1.0;" width="10" x="1077.5" y="193.3516"/><line style="stroke:#181818;stroke-width:0.5;stroke-dasharray:5.0,5.0;" x1="39" x2="39" y1="103.4199" y2="497.8359"/><line style="stroke:#181818;stroke-width:0.5;stroke-dasharray:5.0,5.0;" x1="644.5" x2="644.5" y1="103.4199" y2="497.8359"/><line style="stroke:#181818;stroke-width:0.5;stroke-dasharray:5.0,5.0;" x1="1082" x2="1082" y1="103.4199" y2="497.8359"/><rect fill="#E2E2F0" height="46.9766" rx="2.5" ry="2.5" style="stroke:#181818;stroke-width:0.5;" width="69" x="5" y="55.4434"/><text fill="#000000" font-family="sans-serif" font-size="14" font-style="italic" lengthAdjust="spacing" textLength="55" x="12" y="75.9785">&#171;Wallet&#187;</text><text fill="#000000" font-family="sans-serif" font-size="14" font-weight="bold" lengthAdjust="spacing" textLength="45" x="17" y="92.4668">Wallet</text><rect fill="#E2E2F0" height="46.9766" rx="2.5" ry="2.5" style="stroke:#181818;stroke-width:0.5;" width="69" x="5" y="496.8359"/><text fill="#000000" font-family="sans-serif" font-size="14" font-style="italic" lengthAdjust="spacing" textLength="55" x="12" y="517.3711">&#171;Wallet&#187;</text><text fill="#000000" font-family="sans-serif" font-size="14" font-weight="bold" lengthAdjust="spacing" textLength="45" x="17" y="533.8594">Wallet</text><rect fill="#E2E2F0" height="46.9766" rx="2.5" ry="2.5" style="stroke:#181818;stroke-width:0.5;" width="110" x="589.5" y="55.4434"/><text fill="#000000" font-family="sans-serif" font-size="14" font-style="italic" lengthAdjust="spacing" textLength="42" x="623.5" y="75.9785">&#171;App&#187;</text><text fill="#000000" font-family="sans-serif" font-size="14" font-weight="bold" lengthAdjust="spacing" textLength="96" x="596.5" y="92.4668">Certified App</text><rect fill="#E2E2F0" height="46.9766" rx="2.5" ry="2.5" style="stroke:#181818;stroke-width:0.5;" width="110" x="589.5" y="496.8359"/><text fill="#000000" font-family="sans-serif" font-size="14" font-style="italic" lengthAdjust="spacing" textLength="42" x="623.5" y="517.3711">&#171;App&#187;</text><text fill="#000000" font-family="sans-serif" font-size="14" font-weight="bold" lengthAdjust="spacing" textLength="96" x="596.5" y="533.8594">Certified App</text><rect fill="#E2E2F0" height="46.9766" rx="2.5" ry="2.5" style="stroke:#181818;stroke-width:0.5;" width="165" x="1000" y="55.4434"/><text fill="#000000" font-family="sans-serif" font-size="14" font-style="italic" lengthAdjust="spacing" textLength="57" x="1054" y="75.9785">&#171;Server&#187;</text><text fill="#000000" font-family="sans-serif" font-size="14" font-weight="bold" lengthAdjust="spacing" textLength="151" x="1007" y="92.4668">Certified App Service</text><rect fill="#E2E2F0" height="46.9766" rx="2.5" ry="2.5" style="stroke:#181818;stroke-width:0.5;" width="165" x="1000" y="496.8359"/><text fill="#000000" font-family="sans-serif" font-size="14" font-style="italic" lengthAdjust="spacing" textLength="57" x="1054" y="517.3711">&#171;Server&#187;</text><text fill="#000000" font-family="sans-serif" font-size="14" font-weight="bold" lengthAdjust="spacing" textLength="151" x="1007" y="533.8594">Certified App Service</text><rect fill="#FFFFFF" height="29.3105" style="stroke:#181818;stroke-width:1.0;" width="10" x="34.5" y="134.7305"/><rect fill="#FFFFFF" height="156.2422" style="stroke:#181818;stroke-width:1.0;" width="10" x="34.5" y="251.9727"/><rect fill="#FFFFFF" height="29.3105" style="stroke:#181818;stroke-width:1.0;" width="10" x="1077.5" y="193.3516"/><polygon fill="#181818" points="55.5,130.7305,45.5,134.7305,55.5,138.7305,51.5,134.7305" style="stroke:#181818;stroke-width:1.0;"/><line style="stroke:#181818;stroke-width:1.0;" x1="49.5" x2="643.5" y1="134.7305" y2="134.7305"/><text fill="#000000" font-family="sans-serif" font-size="13" font-weight="bold" lengthAdjust="spacing" textLength="19" x="61.5" y="129.9883">(1)</text><text fill="#000000" font-family="sans-serif" font-size="13" lengthAdjust="spacing" textLength="160" x="84.5" y="129.9883">Request WalletTokenSeed</text><polygon fill="#181818" points="632.5,160.041,642.5,164.041,632.5,168.041,636.5,164.041" style="stroke:#181818;stroke-width:1.0;"/><line style="stroke:#181818;stroke-width:1.0;stroke-dasharray:2.0,2.0;" x1="39.5" x2="638.5" y1="164.041" y2="164.041"/><text fill="#000000" font-family="sans-serif" font-size="13" font-weight="bold" lengthAdjust="spacing" textLength="19" x="46.5" y="159.2988">(2)</text><text fill="#000000" font-family="sans-serif" font-size="13" lengthAdjust="spacing" textLength="156" x="69.5" y="159.2988">Provide WalletTokenSeed</text><polygon fill="#181818" points="1065.5,189.3516,1075.5,193.3516,1065.5,197.3516,1069.5,193.3516" style="stroke:#181818;stroke-width:1.0;"/><line style="stroke:#181818;stroke-width:1.0;" x1="644.5" x2="1071.5" y1="193.3516" y2="193.3516"/><text fill="#000000" font-family="sans-serif" font-size="13" font-weight="bold" lengthAdjust="spacing" textLength="19" x="651.5" y="188.6094">(3)</text><text fill="#000000" font-family="sans-serif" font-size="13" lengthAdjust="spacing" textLength="278" x="674.5" y="188.6094">Request WalletTokenData (WalletTokenSeed)</text><polygon fill="#181818" points="655.5,218.6621,645.5,222.6621,655.5,226.6621,651.5,222.6621" style="stroke:#181818;stroke-width:1.0;"/><line style="stroke:#181818;stroke-width:1.0;stroke-dasharray:2.0,2.0;" x1="649.5" x2="1081.5" y1="222.6621" y2="222.6621"/><text fill="#000000" font-family="sans-serif" font-size="13" font-weight="bold" lengthAdjust="spacing" textLength="19" x="661.5" y="217.9199">(4)</text><text fill="#000000" font-family="sans-serif" font-size="13" lengthAdjust="spacing" textLength="156" x="684.5" y="217.9199">Provide WalletTokenData</text><polygon fill="#181818" points="55.5,247.9727,45.5,251.9727,55.5,255.9727,51.5,251.9727" style="stroke:#181818;stroke-width:1.0;"/><line style="stroke:#181818;stroke-width:1.0;" x1="49.5" x2="643.5" y1="251.9727" y2="251.9727"/><text fill="#000000" font-family="sans-serif" font-size="13" font-weight="bold" lengthAdjust="spacing" textLength="19" x="61.5" y="247.2305">(5)</text><text fill="#000000" font-family="sans-serif" font-size="13" lengthAdjust="spacing" textLength="306" x="84.5" y="247.2305">Request WalletToken Creation (WalletTokenData)</text><line style="stroke:#181818;stroke-width:1.0;" x1="44.5" x2="86.5" y1="281.2832" y2="281.2832"/><line style="stroke:#181818;stroke-width:1.0;" x1="86.5" x2="86.5" y1="281.2832" y2="294.2832"/><line style="stroke:#181818;stroke-width:1.0;" x1="45.5" x2="86.5" y1="294.2832" y2="294.2832"/><polygon fill="#181818" points="55.5,290.2832,45.5,294.2832,55.5,298.2832,51.5,294.2832" style="stroke:#181818;stroke-width:1.0;"/><text fill="#000000" font-family="sans-serif" font-size="13" font-weight="bold" lengthAdjust="spacing" textLength="19" x="51.5" y="276.541">(6)</text><text fill="#000000" font-family="sans-serif" font-size="13" lengthAdjust="spacing" textLength="99" x="74.5" y="276.541">Generate Nonce</text><line style="stroke:#181818;stroke-width:1.0;" x1="44.5" x2="86.5" y1="323.5938" y2="323.5938"/><line style="stroke:#181818;stroke-width:1.0;" x1="86.5" x2="86.5" y1="323.5938" y2="336.5938"/><line style="stroke:#181818;stroke-width:1.0;" x1="45.5" x2="86.5" y1="336.5938" y2="336.5938"/><polygon fill="#181818" points="55.5,332.5938,45.5,336.5938,55.5,340.5938,51.5,336.5938" style="stroke:#181818;stroke-width:1.0;"/><text fill="#000000" font-family="sans-serif" font-size="13" font-weight="bold" lengthAdjust="spacing" textLength="19" x="51.5" y="318.8516">(7)</text><text fill="#000000" font-family="sans-serif" font-size="13" lengthAdjust="spacing" textLength="558" x="74.5" y="318.8516">Create WalletToken by combining WalletTokenData and Nonce (WalletTokenData, Nonce)</text><line style="stroke:#181818;stroke-width:1.0;" x1="44.5" x2="86.5" y1="365.9043" y2="365.9043"/><line style="stroke:#181818;stroke-width:1.0;" x1="86.5" x2="86.5" y1="365.9043" y2="378.9043"/><line style="stroke:#181818;stroke-width:1.0;" x1="45.5" x2="86.5" y1="378.9043" y2="378.9043"/><polygon fill="#181818" points="55.5,374.9043,45.5,378.9043,55.5,382.9043,51.5,378.9043" style="stroke:#181818;stroke-width:1.0;"/><text fill="#000000" font-family="sans-serif" font-size="13" font-weight="bold" lengthAdjust="spacing" textLength="19" x="51.5" y="361.1621">(8)</text><text fill="#000000" font-family="sans-serif" font-size="13" lengthAdjust="spacing" textLength="113" x="74.5" y="361.1621">Store WalletToken</text><polygon fill="#181818" points="632.5,404.2148,642.5,408.2148,632.5,412.2148,636.5,408.2148" style="stroke:#181818;stroke-width:1.0;"/><line style="stroke:#181818;stroke-width:1.0;stroke-dasharray:2.0,2.0;" x1="39.5" x2="638.5" y1="408.2148" y2="408.2148"/><text fill="#000000" font-family="sans-serif" font-size="13" font-weight="bold" lengthAdjust="spacing" textLength="19" x="46.5" y="403.4727">(9)</text><text fill="#000000" font-family="sans-serif" font-size="13" lengthAdjust="spacing" textLength="90" x="69.5" y="403.4727">Provide Nonce</text><line style="stroke:#181818;stroke-width:1.0;" x1="644.5" x2="686.5" y1="437.5254" y2="437.5254"/><line style="stroke:#181818;stroke-width:1.0;" x1="686.5" x2="686.5" y1="437.5254" y2="450.5254"/><line style="stroke:#181818;stroke-width:1.0;" x1="645.5" x2="686.5" y1="450.5254" y2="450.5254"/><polygon fill="#181818" points="655.5,446.5254,645.5,450.5254,655.5,454.5254,651.5,450.5254" style="stroke:#181818;stroke-width:1.0;"/><text fill="#000000" font-family="sans-serif" font-size="13" font-weight="bold" lengthAdjust="spacing" textLength="28" x="651.5" y="432.7832">(10)</text><text fill="#000000" font-family="sans-serif" font-size="13" lengthAdjust="spacing" textLength="392" x="683.5" y="432.7832">Create WalletToken by combining WalletTokenData and Nonce</text><polygon fill="#181818" points="50.5,475.8359,40.5,479.8359,50.5,483.8359,46.5,479.8359" style="stroke:#181818;stroke-width:1.0;"/><line style="stroke:#181818;stroke-width:1.0;" x1="44.5" x2="643.5" y1="479.8359" y2="479.8359"/><text fill="#000000" font-family="sans-serif" font-size="13" font-weight="bold" lengthAdjust="spacing" textLength="28" x="56.5" y="475.0938">(11)</text><text fill="#000000" font-family="sans-serif" font-size="13" lengthAdjust="spacing" textLength="243" x="88.5" y="475.0938">Submit WalletToken when using Wallet</text><!--SRC=[fP51IyGm48NFvbSCzRBjMXO4BoK4P0Ll8bRmF4b73RP9JTDTzDURjEikxRBkmKiWC_EzzpBnsjV4BdYdlwculX4lMDVauTb-a86r8_JQ6hwARS78LE07WBNel5QwHUCXoR8Hox84i8Cjri3vM19YFhgcS7tLLC5js-u8XG48rpFJK9BRQ4LxgWrOh94B9FRUchwHv23XKYmkKxwI8c4igESYfbek2tYYpvuw3sEyuPqb1NaMK-TXJc6U5_3ex4PND1_RQGNd4rftw14MCofbCUgVuf4x6tJ_8HE7YAPZ_04ku9uCEVG43zOechG6XOapo2zGjf7QQFDsz1GCNpwe75bUZVMfS-cjcwYVMEiOx7UP_uXrs5amxsMZfmlRleUZxmuIx0S0]--></g></svg>