<?xml version="1.0" encoding="us-ascii" standalone="no"?><svg xmlns="http://www.w3.org/2000/svg" xmlns:xlink="http://www.w3.org/1999/xlink" contentStyleType="text/css" height="750px" preserveAspectRatio="none" style="width:843px;height:750px;background:#FFFFFF;" version="1.1" viewBox="0 0 843 750" width="843px" zoomAndPan="magnify"><defs/><g><text fill="#000000" font-family="sans-serif" font-size="25" font-weight="bold" lengthAdjust="spacing" textLength="332" x="251.75" y="39.1699">Issuance Initiated by User</text><rect fill="#FFFFFF" height="518.2793" style="stroke:#181818;stroke-width:1.0;" width="10" x="264" y="141.9316"/><rect fill="#FFFFFF" height="71.6211" style="stroke:#181818;stroke-width:1.0;" width="10" x="535" y="251.1738"/><rect fill="#FFFFFF" height="44.3105" style="stroke:#181818;stroke-width:1.0;" width="10" x="791" y="615.9004"/><rect fill="none" height="46.6211" style="stroke:#000000;stroke-width:1.5;" width="297" x="10" y="409.416"/><line style="stroke:#181818;stroke-width:0.5;stroke-dasharray:5.0,5.0;" x1="39" x2="39" y1="131.9316" y2="669.2109"/><line style="stroke:#181818;stroke-width:0.5;stroke-dasharray:5.0,5.0;" x1="269" x2="269" y1="131.9316" y2="669.2109"/><line style="stroke:#181818;stroke-width:0.5;stroke-dasharray:5.0,5.0;" x1="540" x2="540" y1="131.9316" y2="669.2109"/><line style="stroke:#181818;stroke-width:0.5;stroke-dasharray:5.0,5.0;" x1="795.5" x2="795.5" y1="131.9316" y2="669.2109"/><text fill="#000000" font-family="sans-serif" font-size="14" font-weight="bold" lengthAdjust="spacing" textLength="32" x="20" y="128.9785">User</text><ellipse cx="39" cy="63.9434" fill="#E2E2F0" rx="8" ry="8" style="stroke:#181818;stroke-width:0.5;"/><path d="M39,71.9434 L39,98.9434 M26,79.9434 L52,79.9434 M39,98.9434 L26,113.9434 M39,98.9434 L52,113.9434 " fill="none" style="stroke:#181818;stroke-width:0.5;"/><text fill="#000000" font-family="sans-serif" font-size="14" font-weight="bold" lengthAdjust="spacing" textLength="32" x="20" y="681.7461">User</text><ellipse cx="39" cy="693.1992" fill="#E2E2F0" rx="8" ry="8" style="stroke:#181818;stroke-width:0.5;"/><path d="M39,701.1992 L39,728.1992 M26,709.1992 L52,709.1992 M39,728.1992 L26,743.1992 M39,728.1992 L52,743.1992 " fill="none" style="stroke:#181818;stroke-width:0.5;"/><rect fill="#E2E2F0" height="46.9766" rx="2.5" ry="2.5" style="stroke:#181818;stroke-width:0.5;" width="56" x="241" y="83.9551"/><text fill="#000000" font-family="sans-serif" font-size="14" font-style="italic" lengthAdjust="spacing" textLength="42" x="248" y="104.4902">&#171;App&#187;</text><text fill="#000000" font-family="sans-serif" font-size="14" font-weight="bold" lengthAdjust="spacing" textLength="38" x="250" y="120.9785">CApp</text><rect fill="#E2E2F0" height="46.9766" rx="2.5" ry="2.5" style="stroke:#181818;stroke-width:0.5;" width="56" x="241" y="668.2109"/><text fill="#000000" font-family="sans-serif" font-size="14" font-style="italic" lengthAdjust="spacing" textLength="42" x="248" y="688.7461">&#171;App&#187;</text><text fill="#000000" font-family="sans-serif" font-size="14" font-weight="bold" lengthAdjust="spacing" textLength="38" x="250" y="705.2344">CApp</text><rect fill="#E2E2F0" height="46.9766" rx="2.5" ry="2.5" style="stroke:#181818;stroke-width:0.5;" width="106" x="487" y="83.9551"/><text fill="#000000" font-family="sans-serif" font-size="14" font-style="italic" lengthAdjust="spacing" textLength="57" x="511.5" y="104.4902">&#171;Server&#187;</text><text fill="#000000" font-family="sans-serif" font-size="14" font-weight="bold" lengthAdjust="spacing" textLength="92" x="494" y="120.9785">List Provider</text><rect fill="#E2E2F0" height="46.9766" rx="2.5" ry="2.5" style="stroke:#181818;stroke-width:0.5;" width="106" x="487" y="668.2109"/><text fill="#000000" font-family="sans-serif" font-size="14" font-style="italic" lengthAdjust="spacing" textLength="57" x="511.5" y="688.7461">&#171;Server&#187;</text><text fill="#000000" font-family="sans-serif" font-size="14" font-weight="bold" lengthAdjust="spacing" textLength="92" x="494" y="705.2344">List Provider</text><rect fill="#E2E2F0" height="46.9766" rx="2.5" ry="2.5" style="stroke:#181818;stroke-width:0.5;" width="71" x="760.5" y="83.9551"/><text fill="#000000" font-family="sans-serif" font-size="14" font-style="italic" lengthAdjust="spacing" textLength="57" x="767.5" y="104.4902">&#171;Server&#187;</text><text fill="#000000" font-family="sans-serif" font-size="14" font-weight="bold" lengthAdjust="spacing" textLength="28" x="782" y="120.9785">TAS</text><rect fill="#E2E2F0" height="46.9766" rx="2.5" ry="2.5" style="stroke:#181818;stroke-width:0.5;" width="71" x="760.5" y="668.2109"/><text fill="#000000" font-family="sans-serif" font-size="14" font-style="italic" lengthAdjust="spacing" textLength="57" x="767.5" y="688.7461">&#171;Server&#187;</text><text fill="#000000" font-family="sans-serif" font-size="14" font-weight="bold" lengthAdjust="spacing" textLength="28" x="782" y="705.2344">TAS</text><rect fill="#FFFFFF" height="518.2793" style="stroke:#181818;stroke-width:1.0;" width="10" x="264" y="141.9316"/><rect fill="#FFFFFF" height="71.6211" style="stroke:#181818;stroke-width:1.0;" width="10" x="535" y="251.1738"/><rect fill="#FFFFFF" height="44.3105" style="stroke:#181818;stroke-width:1.0;" width="10" x="791" y="615.9004"/><rect fill="#EEEEEE" height="3" style="stroke:#EEEEEE;stroke-width:1.0;" width="836.5" x="0" y="162.5869"/><line style="stroke:#000000;stroke-width:1.0;" x1="0" x2="836.5" y1="162.5869" y2="162.5869"/><line style="stroke:#000000;stroke-width:1.0;" x1="0" x2="836.5" y1="165.5869" y2="165.5869"/><rect fill="#EEEEEE" height="23.3105" style="stroke:#000000;stroke-width:2.0;" width="101" x="367.75" y="151.9316"/><text fill="#000000" font-family="sans-serif" font-size="13" font-weight="bold" lengthAdjust="spacing" textLength="83" x="373.75" y="168.5">(C) Initiation</text><polygon fill="#0000FF" points="252,202.5527,262,206.5527,252,206.5527" style="stroke:#0000FF;stroke-width:1.0;"/><line style="stroke:#0000FF;stroke-width:1.0;" x1="39" x2="263" y1="206.5527" y2="206.5527"/><text fill="#000000" font-family="sans-serif" font-size="13" font-weight="bold" lengthAdjust="spacing" textLength="19" x="46" y="201.8105">(1)</text><text fill="#000000" font-family="sans-serif" font-size="13" lengthAdjust="spacing" textLength="178" x="69" y="201.8105">Request List of Issuable VCs</text><polygon fill="#181818" points="523,247.1738,533,251.1738,523,255.1738,527,251.1738" style="stroke:#181818;stroke-width:1.0;"/><line style="stroke:#181818;stroke-width:1.0;" x1="274" x2="529" y1="251.1738" y2="251.1738"/><text fill="#000000" font-family="sans-serif" font-size="13" font-weight="bold" lengthAdjust="spacing" textLength="19" x="281" y="238.7764">(2)</text><text fill="#000000" font-family="sans-serif" font-size="13" lengthAdjust="spacing" textLength="173" x="304" y="231.1211">Search and Retrieve VC Plan</text><text fill="#000000" font-family="sans-serif" font-size="13" lengthAdjust="spacing" textLength="95" x="304" y="246.4316">{searchCriteria}</text><line style="stroke:#181818;stroke-width:1.0;" x1="545" x2="587" y1="280.4844" y2="280.4844"/><line style="stroke:#181818;stroke-width:1.0;" x1="587" x2="587" y1="280.4844" y2="293.4844"/><line style="stroke:#181818;stroke-width:1.0;" x1="546" x2="587" y1="293.4844" y2="293.4844"/><polygon fill="#181818" points="556,289.4844,546,293.4844,556,297.4844,552,293.4844" style="stroke:#181818;stroke-width:1.0;"/><text fill="#000000" font-family="sans-serif" font-size="13" font-weight="bold" lengthAdjust="spacing" textLength="19" x="552" y="275.7422">(3)</text><text fill="#000000" font-family="sans-serif" font-size="13" lengthAdjust="spacing" textLength="209" x="575" y="275.7422">vcPlanList = Retrieve VC Plan List</text><polygon fill="#181818" points="285,318.7949,275,322.7949,285,326.7949,281,322.7949" style="stroke:#181818;stroke-width:1.0;"/><line style="stroke:#181818;stroke-width:1.0;stroke-dasharray:2.0,2.0;" x1="279" x2="539" y1="322.7949" y2="322.7949"/><text fill="#000000" font-family="sans-serif" font-size="13" font-weight="bold" lengthAdjust="spacing" textLength="19" x="291" y="318.0527">(4)</text><text fill="#000000" font-family="sans-serif" font-size="13" lengthAdjust="spacing" textLength="71" x="314" y="318.0527">{vcPlanList}</text><line style="stroke:#181818;stroke-width:1.0;" x1="274" x2="316" y1="352.1055" y2="352.1055"/><line style="stroke:#181818;stroke-width:1.0;" x1="316" x2="316" y1="352.1055" y2="365.1055"/><line style="stroke:#181818;stroke-width:1.0;" x1="275" x2="316" y1="365.1055" y2="365.1055"/><polygon fill="#181818" points="285,361.1055,275,365.1055,285,369.1055,281,365.1055" style="stroke:#181818;stroke-width:1.0;"/><text fill="#000000" font-family="sans-serif" font-size="13" font-weight="bold" lengthAdjust="spacing" textLength="19" x="281" y="347.3633">(5)</text><text fill="#000000" font-family="sans-serif" font-size="13" lengthAdjust="spacing" textLength="125" x="304" y="347.3633">Display VC Plan List</text><polygon fill="#0000FF" points="252,390.416,262,394.416,252,394.416" style="stroke:#0000FF;stroke-width:1.0;"/><line style="stroke:#0000FF;stroke-width:1.0;" x1="39" x2="263" y1="394.416" y2="394.416"/><text fill="#000000" font-family="sans-serif" font-size="13" font-weight="bold" lengthAdjust="spacing" textLength="19" x="46" y="389.6738">(6)</text><text fill="#000000" font-family="sans-serif" font-size="13" lengthAdjust="spacing" textLength="88" x="69" y="389.6738">Select VC Plan</text><path d="M10,409.416 L77,409.416 L77,416.7266 L67,426.7266 L10,426.7266 L10,409.416 " fill="#EEEEEE" style="stroke:#000000;stroke-width:1.5;"/><rect fill="none" height="46.6211" style="stroke:#000000;stroke-width:1.5;" width="297" x="10" y="409.416"/><text fill="#000000" font-family="sans-serif" font-size="13" font-weight="bold" lengthAdjust="spacing" textLength="22" x="25" y="422.9844">opt</text><text fill="#000000" font-family="sans-serif" font-size="11" font-weight="bold" lengthAdjust="spacing" textLength="207" x="92" y="422.0508">[When Multiple Issuers are Provided]</text><polygon fill="#0000FF" points="252,444.0371,262,448.0371,252,448.0371" style="stroke:#0000FF;stroke-width:1.0;"/><line style="stroke:#0000FF;stroke-width:1.0;" x1="39" x2="263" y1="448.0371" y2="448.0371"/><text fill="#000000" font-family="sans-serif" font-size="13" font-weight="bold" lengthAdjust="spacing" textLength="19" x="46" y="443.2949">(7)</text><text fill="#000000" font-family="sans-serif" font-size="13" lengthAdjust="spacing" textLength="79" x="69" y="443.2949">Select Issuer</text><line style="stroke:#181818;stroke-width:1.0;" x1="274" x2="316" y1="514.9688" y2="514.9688"/><line style="stroke:#181818;stroke-width:1.0;" x1="316" x2="316" y1="514.9688" y2="527.9688"/><line style="stroke:#181818;stroke-width:1.0;" x1="275" x2="316" y1="527.9688" y2="527.9688"/><polygon fill="#181818" points="285,523.9688,275,527.9688,285,531.9688,281,527.9688" style="stroke:#181818;stroke-width:1.0;"/><text fill="#000000" font-family="sans-serif" font-size="13" font-weight="bold" lengthAdjust="spacing" textLength="19" x="281" y="494.916">(8)</text><text fill="#000000" font-family="sans-serif" font-size="13" lengthAdjust="spacing" textLength="192" x="304" y="479.6055">Prepare Issuance Request Data</text><ellipse cx="309.5" cy="490.1582" fill="#000000" rx="2.5" ry="2.5" style="stroke:#000000;stroke-width:0.0;"/><text fill="#000000" font-family="sans-serif" font-size="13" lengthAdjust="spacing" textLength="189" x="316" y="494.916">vcPlanId = Selected VC Plan id</text><ellipse cx="309.5" cy="505.4688" fill="#000000" rx="2.5" ry="2.5" style="stroke:#000000;stroke-width:0.0;"/><text fill="#000000" font-family="sans-serif" font-size="13" lengthAdjust="spacing" textLength="178" x="316" y="510.2266">issuer = Selected Issuer DID</text><rect fill="#EEEEEE" height="3" style="stroke:#EEEEEE;stroke-width:1.0;" width="836.5" x="0" y="556.624"/><line style="stroke:#000000;stroke-width:1.0;" x1="0" x2="836.5" y1="556.624" y2="556.624"/><line style="stroke:#000000;stroke-width:1.0;" x1="0" x2="836.5" y1="559.624" y2="559.624"/><rect fill="#EEEEEE" height="23.3105" style="stroke:#000000;stroke-width:2.0;" width="101" x="367.75" y="545.9688"/><text fill="#000000" font-family="sans-serif" font-size="13" font-weight="bold" lengthAdjust="spacing" textLength="83" x="373.75" y="562.5371">(D) Issuance</text><polygon fill="#181818" points="779,611.9004,789,615.9004,779,619.9004,783,615.9004" style="stroke:#181818;stroke-width:1.0;"/><line style="stroke:#181818;stroke-width:1.0;" x1="274" x2="785" y1="615.9004" y2="615.9004"/><text fill="#000000" font-family="sans-serif" font-size="13" font-weight="bold" lengthAdjust="spacing" textLength="19" x="281" y="603.5029">(9)</text><text fill="#000000" font-family="sans-serif" font-size="13" lengthAdjust="spacing" textLength="168" x="304" y="595.8477">D1. Request Start Issuance</text><text fill="#000000" font-family="sans-serif" font-size="13" lengthAdjust="spacing" textLength="114" x="304" y="611.1582">{vcPlanId[, issuer]}</text><path d="M239,628.9004 L239,653.9004 L824,653.9004 L824,638.9004 L814,628.9004 L239,628.9004 " fill="#FEFFDD" style="stroke:#181818;stroke-width:0.5;"/><path d="M814,628.9004 L814,638.9004 L824,638.9004 L814,628.9004 " fill="#FEFFDD" style="stroke:#181818;stroke-width:0.5;"/><text fill="#000000" font-family="sans-serif" font-size="13" lengthAdjust="spacing" textLength="119" x="467.75" y="646.4688">The rest is omitted</text><!--SRC=[TL9DQzn03BtFhn2RIzRv8eLUZ6r8rvU55fOuRG_P7CQsoWgSiJCZ6vAm_xsQiRtPDic0mJDwJtfF4XCtg41EukW5uozVixLplJOLmjeGasQieNo6dmvjSkKncK9J0mUYqZstfdyiqS8YARFJasLoLMOB2LJSobiKUM8KBK0xwELNTTeoLTHfmpwykkcwALnfI1AvPjd_eE_a63Qs7QW-96iwGHTe1xJl2NStnGHZ-OvmAatXTBMSlL5h84s3MXh4gcXGoik4Y_kJRqsF3rjvYk4MdteK3K58-mT2Zye6uTVAAIN2Bp8lwEmiXWArhNQWfKUto9Pmy2ZODDfipQiBqPKbHajw7peln42FOQWyB1H9tx53SMMHUslWzGswdmLueJcvhj7F_t8-C5HWWnNFCDLs3BztQE17tp1rOimxHEj0MvmxNmUrdoSRANuxZXLjB7O-oM6jvbxccZLCPskYoVow5kjZGbcysGRLnqWAXOvnOsd8r_auuNpvLi_FTvJZTy6FAB- -FAWeM3Rd09O9pJBkpwSw3tjbMbcDLZP879txD37SxH2iJq0EsaTYKV4N]--></g></svg>