<?xml version="1.0" encoding="us-ascii" standalone="no"?><svg xmlns="http://www.w3.org/2000/svg" xmlns:xlink="http://www.w3.org/1999/xlink" contentStyleType="text/css" height="1484px" preserveAspectRatio="none" style="width:982px;height:1484px;background:#FFFFFF;" version="1.1" viewBox="0 0 982 1484" width="982px" zoomAndPan="magnify"><defs/><g><text fill="#000000" font-family="sans-serif" font-size="25" font-weight="bold" lengthAdjust="spacing" textLength="352" x="311" y="39.1699">Issuance Initiated by Issuer</text><rect fill="#FFFFFF" height="359.9922" style="stroke:#181818;stroke-width:1.0;" width="10" x="43" y="1063.2441"/><rect fill="#FFFFFF" height="44.3105" style="stroke:#181818;stroke-width:1.0;" width="10" x="331" y="1378.9258"/><rect fill="#FFFFFF" height="813.248" style="stroke:#181818;stroke-width:1.0;" width="10" x="412" y="113.4199"/><rect fill="#FFFFFF" height="58.6211" style="stroke:#181818;stroke-width:1.0;" width="10" x="701" y="667.873"/><rect fill="#FFFFFF" height="58.6211" style="stroke:#181818;stroke-width:1.0;" width="10" x="701" y="853.0469"/><rect fill="none" height="178.1738" style="stroke:#000000;stroke-width:1.5;" width="593.5" x="371.5" y="741.4941"/><rect fill="none" height="206.1289" style="stroke:#000000;stroke-width:1.5;" width="256" x="10" y="1024.623"/><line style="stroke:#181818;stroke-width:0.5;stroke-dasharray:5.0,5.0;" x1="48" x2="48" y1="103.4199" y2="951.668"/><line style="stroke:#A80036;stroke-width:1.0;stroke-dasharray:1.0,4.0;" x1="48" x2="48" y1="951.668" y2="992.623"/><line style="stroke:#181818;stroke-width:0.5;stroke-dasharray:5.0,5.0;" x1="48" x2="48" y1="992.623" y2="1432.2363"/><line style="stroke:#181818;stroke-width:0.5;stroke-dasharray:5.0,5.0;" x1="335.5" x2="335.5" y1="103.4199" y2="951.668"/><line style="stroke:#A80036;stroke-width:1.0;stroke-dasharray:1.0,4.0;" x1="335.5" x2="335.5" y1="951.668" y2="992.623"/><line style="stroke:#181818;stroke-width:0.5;stroke-dasharray:5.0,5.0;" x1="335.5" x2="335.5" y1="992.623" y2="1432.2363"/><line style="stroke:#181818;stroke-width:0.5;stroke-dasharray:5.0,5.0;" x1="416.5" x2="416.5" y1="103.4199" y2="951.668"/><line style="stroke:#A80036;stroke-width:1.0;stroke-dasharray:1.0,4.0;" x1="416.5" x2="416.5" y1="951.668" y2="992.623"/><line style="stroke:#181818;stroke-width:0.5;stroke-dasharray:5.0,5.0;" x1="416.5" x2="416.5" y1="992.623" y2="1432.2363"/><line style="stroke:#181818;stroke-width:0.5;stroke-dasharray:5.0,5.0;" x1="705.5" x2="705.5" y1="103.4199" y2="951.668"/><line style="stroke:#A80036;stroke-width:1.0;stroke-dasharray:1.0,4.0;" x1="705.5" x2="705.5" y1="951.668" y2="992.623"/><line style="stroke:#181818;stroke-width:0.5;stroke-dasharray:5.0,5.0;" x1="705.5" x2="705.5" y1="992.623" y2="1432.2363"/><rect fill="#E2E2F0" height="46.9766" rx="2.5" ry="2.5" style="stroke:#181818;stroke-width:0.5;" width="56" x="20" y="55.4434"/><text fill="#000000" font-family="sans-serif" font-size="14" font-style="italic" lengthAdjust="spacing" textLength="42" x="27" y="75.9785">&#171;App&#187;</text><text fill="#000000" font-family="sans-serif" font-size="14" font-weight="bold" lengthAdjust="spacing" textLength="38" x="29" y="92.4668">CApp</text><rect fill="#E2E2F0" height="46.9766" rx="2.5" ry="2.5" style="stroke:#181818;stroke-width:0.5;" width="56" x="20" y="1431.2363"/><text fill="#000000" font-family="sans-serif" font-size="14" font-style="italic" lengthAdjust="spacing" textLength="42" x="27" y="1451.7715">&#171;App&#187;</text><text fill="#000000" font-family="sans-serif" font-size="14" font-weight="bold" lengthAdjust="spacing" textLength="38" x="29" y="1468.2598">CApp</text><rect fill="#E2E2F0" height="46.9766" rx="2.5" ry="2.5" style="stroke:#181818;stroke-width:0.5;" width="71" x="300.5" y="55.4434"/><text fill="#000000" font-family="sans-serif" font-size="14" font-style="italic" lengthAdjust="spacing" textLength="57" x="307.5" y="75.9785">&#171;Server&#187;</text><text fill="#000000" font-family="sans-serif" font-size="14" font-weight="bold" lengthAdjust="spacing" textLength="28" x="322" y="92.4668">TAS</text><rect fill="#E2E2F0" height="46.9766" rx="2.5" ry="2.5" style="stroke:#181818;stroke-width:0.5;" width="71" x="300.5" y="1431.2363"/><text fill="#000000" font-family="sans-serif" font-size="14" font-style="italic" lengthAdjust="spacing" textLength="57" x="307.5" y="1451.7715">&#171;Server&#187;</text><text fill="#000000" font-family="sans-serif" font-size="14" font-weight="bold" lengthAdjust="spacing" textLength="28" x="322" y="1468.2598">TAS</text><rect fill="#E2E2F0" height="46.9766" rx="2.5" ry="2.5" style="stroke:#181818;stroke-width:0.5;" width="71" x="381.5" y="55.4434"/><text fill="#000000" font-family="sans-serif" font-size="14" font-style="italic" lengthAdjust="spacing" textLength="57" x="388.5" y="75.9785">&#171;Server&#187;</text><text fill="#000000" font-family="sans-serif" font-size="14" font-weight="bold" lengthAdjust="spacing" textLength="44" x="395" y="92.4668">Issuer</text><rect fill="#E2E2F0" height="46.9766" rx="2.5" ry="2.5" style="stroke:#181818;stroke-width:0.5;" width="71" x="381.5" y="1431.2363"/><text fill="#000000" font-family="sans-serif" font-size="14" font-style="italic" lengthAdjust="spacing" textLength="57" x="388.5" y="1451.7715">&#171;Server&#187;</text><text fill="#000000" font-family="sans-serif" font-size="14" font-weight="bold" lengthAdjust="spacing" textLength="44" x="395" y="1468.2598">Issuer</text><rect fill="#E2E2F0" height="46.9766" rx="2.5" ry="2.5" style="stroke:#181818;stroke-width:0.5;" width="165" x="623.5" y="55.4434"/><text fill="#000000" font-family="sans-serif" font-size="14" font-style="italic" lengthAdjust="spacing" textLength="57" x="677.5" y="75.9785">&#171;Server&#187;</text><text fill="#000000" font-family="sans-serif" font-size="14" font-weight="bold" lengthAdjust="spacing" textLength="151" x="630.5" y="92.4668">Notification Provider</text><rect fill="#E2E2F0" height="46.9766" rx="2.5" ry="2.5" style="stroke:#181818;stroke-width:0.5;" width="165" x="623.5" y="1431.2363"/><text fill="#000000" font-family="sans-serif" font-size="14" font-style="italic" lengthAdjust="spacing" textLength="57" x="677.5" y="1451.7715">&#171;Server&#187;</text><text fill="#000000" font-family="sans-serif" font-size="14" font-weight="bold" lengthAdjust="spacing" textLength="151" x="630.5" y="1468.2598">Notification Provider</text><rect fill="#FFFFFF" height="359.9922" style="stroke:#181818;stroke-width:1.0;" width="10" x="43" y="1063.2441"/><rect fill="#FFFFFF" height="44.3105" style="stroke:#181818;stroke-width:1.0;" width="10" x="331" y="1378.9258"/><rect fill="#FFFFFF" height="813.248" style="stroke:#181818;stroke-width:1.0;" width="10" x="412" y="113.4199"/><rect fill="#FFFFFF" height="58.6211" style="stroke:#181818;stroke-width:1.0;" width="10" x="701" y="667.873"/><rect fill="#FFFFFF" height="58.6211" style="stroke:#181818;stroke-width:1.0;" width="10" x="701" y="853.0469"/><rect fill="#FEFFDD" height="115" style="stroke:#181818;stroke-width:0.5;" width="263" x="285" y="118.4199"/><text fill="#000000" font-family="sans-serif" font-size="13" font-weight="bold" lengthAdjust="spacing" textLength="255" x="289" y="134.9883">[Pre-acquired Information (per User)]</text><line style="stroke:#181818;stroke-width:1.0;" x1="285" x2="379.5" y1="145.3857" y2="145.3857"/><text fill="#000000" font-family="sans-serif" font-size="13" lengthAdjust="spacing" textLength="66" x="383.5" y="149.7988">Mandatory</text><line style="stroke:#181818;stroke-width:1.0;" x1="453.5" x2="548" y1="145.3857" y2="145.3857"/><ellipse cx="294.5" cy="160.8516" fill="#000000" rx="2.5" ry="2.5" style="stroke:#000000;stroke-width:0.0;"/><text fill="#000000" font-family="sans-serif" font-size="13" lengthAdjust="spacing" textLength="217" x="301" y="165.6094">userId = Issuer-side User Account</text><ellipse cx="294.5" cy="176.1621" fill="#000000" rx="2.5" ry="2.5" style="stroke:#000000;stroke-width:0.0;"/><text fill="#000000" font-family="sans-serif" font-size="13" lengthAdjust="spacing" textLength="200" x="301" y="180.9199">userEmail = User Email Address</text><line style="stroke:#181818;stroke-width:1.0;" x1="285" x2="385.5" y1="191.3174" y2="191.3174"/><text fill="#000000" font-family="sans-serif" font-size="13" lengthAdjust="spacing" textLength="54" x="389.5" y="195.7305">Optional</text><line style="stroke:#181818;stroke-width:1.0;" x1="447.5" x2="548" y1="191.3174" y2="191.3174"/><ellipse cx="294.5" cy="206.7832" fill="#000000" rx="2.5" ry="2.5" style="stroke:#000000;stroke-width:0.0;"/><text fill="#000000" font-family="sans-serif" font-size="13" lengthAdjust="spacing" textLength="136" x="301" y="211.541">holderDid = User DID</text><ellipse cx="294.5" cy="222.0938" fill="#000000" rx="2.5" ry="2.5" style="stroke:#000000;stroke-width:0.0;"/><text fill="#000000" font-family="sans-serif" font-size="13" lengthAdjust="spacing" textLength="215" x="301" y="226.8516">userMobile = User Mobile Number</text><rect fill="#EEEEEE" height="3" style="stroke:#EEEEEE;stroke-width:1.0;" width="975" x="0" y="259.249"/><line style="stroke:#000000;stroke-width:1.0;" x1="0" x2="975" y1="259.249" y2="259.249"/><line style="stroke:#000000;stroke-width:1.0;" x1="0" x2="975" y1="262.249" y2="262.249"/><rect fill="#EEEEEE" height="23.3105" style="stroke:#000000;stroke-width:2.0;" width="101" x="437" y="248.5938"/><text fill="#000000" font-family="sans-serif" font-size="13" font-weight="bold" lengthAdjust="spacing" textLength="83" x="443" y="265.1621">(C) Initiation</text><line style="stroke:#181818;stroke-width:1.0;" x1="422" x2="464" y1="364.457" y2="364.457"/><line style="stroke:#181818;stroke-width:1.0;" x1="464" x2="464" y1="364.457" y2="377.457"/><line style="stroke:#181818;stroke-width:1.0;" x1="423" x2="464" y1="377.457" y2="377.457"/><polygon fill="#181818" points="433,373.457,423,377.457,433,381.457,429,377.457" style="stroke:#181818;stroke-width:1.0;"/><text fill="#000000" font-family="sans-serif" font-size="13" font-weight="bold" lengthAdjust="spacing" textLength="19" x="429" y="329.0938">(1)</text><text fill="#000000" font-family="sans-serif" font-size="13" lengthAdjust="spacing" textLength="113" x="452" y="298.4727">Create Issue Offer</text><ellipse cx="457.5" cy="309.0254" fill="#000000" rx="2.5" ry="2.5" style="stroke:#000000;stroke-width:0.0;"/><text fill="#000000" font-family="sans-serif" font-size="13" lengthAdjust="spacing" textLength="153" x="464" y="313.7832">offerId = Offer Identifier</text><ellipse cx="457.5" cy="324.3359" fill="#000000" rx="2.5" ry="2.5" style="stroke:#000000;stroke-width:0.0;"/><text fill="#000000" font-family="sans-serif" font-size="13" lengthAdjust="spacing" textLength="133" x="464" y="329.0938">vcPlanId = VC Plan id</text><ellipse cx="457.5" cy="339.6465" fill="#000000" rx="2.5" ry="2.5" style="stroke:#000000;stroke-width:0.0;"/><text fill="#000000" font-family="sans-serif" font-size="13" lengthAdjust="spacing" textLength="122" x="464" y="344.4043">issuer = Issuer DID</text><ellipse cx="457.5" cy="354.957" fill="#000000" rx="2.5" ry="2.5" style="stroke:#000000;stroke-width:0.0;"/><text fill="#000000" font-family="sans-serif" font-size="13" lengthAdjust="spacing" textLength="191" x="464" y="359.7148">validUntil = Set Validity Period</text><line style="stroke:#181818;stroke-width:1.0;" x1="422" x2="464" y1="422.0781" y2="422.0781"/><line style="stroke:#181818;stroke-width:1.0;" x1="464" x2="464" y1="422.0781" y2="435.0781"/><line style="stroke:#181818;stroke-width:1.0;" x1="423" x2="464" y1="435.0781" y2="435.0781"/><polygon fill="#181818" points="433,431.0781,423,435.0781,433,439.0781,429,435.0781" style="stroke:#181818;stroke-width:1.0;"/><text fill="#000000" font-family="sans-serif" font-size="13" font-weight="bold" lengthAdjust="spacing" textLength="19" x="429" y="409.6807">(2)</text><text fill="#000000" font-family="sans-serif" font-size="13" lengthAdjust="spacing" textLength="111" x="452" y="402.0254">Map Offer to User</text><ellipse cx="457.5" cy="412.5781" fill="#000000" rx="2.5" ry="2.5" style="stroke:#000000;stroke-width:0.0;"/><text fill="#000000" font-family="sans-serif" font-size="13" lengthAdjust="spacing" textLength="97" x="464" y="417.3359">offerId ~ userId</text><line style="stroke:#181818;stroke-width:1.0;" x1="422" x2="464" y1="495.0098" y2="495.0098"/><line style="stroke:#181818;stroke-width:1.0;" x1="464" x2="464" y1="495.0098" y2="508.0098"/><line style="stroke:#181818;stroke-width:1.0;" x1="423" x2="464" y1="508.0098" y2="508.0098"/><polygon fill="#181818" points="433,504.0098,423,508.0098,433,512.0098,429,508.0098" style="stroke:#181818;stroke-width:1.0;"/><text fill="#000000" font-family="sans-serif" font-size="13" font-weight="bold" lengthAdjust="spacing" textLength="19" x="429" y="474.957">(3)</text><text fill="#000000" font-family="sans-serif" font-size="13" lengthAdjust="spacing" textLength="128" x="452" y="459.6465">Create Offer Payload</text><ellipse cx="457.5" cy="470.1992" fill="#000000" rx="2.5" ry="2.5" style="stroke:#000000;stroke-width:0.0;"/><text fill="#000000" font-family="sans-serif" font-size="13" lengthAdjust="spacing" textLength="170" x="464" y="474.957">(IssueOfferPayload)payload</text><text fill="#000000" font-family="sans-serif" font-size="13" lengthAdjust="spacing" textLength="238" x="456" y="490.2676">= {offerId, vcPlanId, issuer, validUntil}</text><line style="stroke:#181818;stroke-width:1.0;" x1="422" x2="464" y1="552.6309" y2="552.6309"/><line style="stroke:#181818;stroke-width:1.0;" x1="464" x2="464" y1="552.6309" y2="565.6309"/><line style="stroke:#181818;stroke-width:1.0;" x1="423" x2="464" y1="565.6309" y2="565.6309"/><polygon fill="#181818" points="433,561.6309,423,565.6309,433,569.6309,429,565.6309" style="stroke:#181818;stroke-width:1.0;"/><text fill="#000000" font-family="sans-serif" font-size="13" font-weight="bold" lengthAdjust="spacing" textLength="19" x="429" y="540.2334">(4)</text><text fill="#000000" font-family="sans-serif" font-size="13" lengthAdjust="spacing" textLength="149" x="452" y="532.5781">Generate Offer QR Code</text><ellipse cx="457.5" cy="543.1309" fill="#000000" rx="2.5" ry="2.5" style="stroke:#000000;stroke-width:0.0;"/><text fill="#000000" font-family="sans-serif" font-size="13" lengthAdjust="spacing" textLength="127" x="464" y="547.8887">qr = GenQr(payload)</text><path d="M645,532.165 L645,557.165 L864,557.165 L864,542.165 L854,532.165 L645,532.165 " fill="#FEFFDD" style="stroke:#181818;stroke-width:0.5;"/><path d="M854,532.165 L854,542.165 L864,542.165 L854,532.165 " fill="#FEFFDD" style="stroke:#181818;stroke-width:0.5;"/><text fill="#000000" font-family="sans-serif" font-size="13" lengthAdjust="spacing" textLength="198" x="651" y="549.7334">QR Code format is out of scope</text><line style="stroke:#181818;stroke-width:1.0;" x1="422" x2="464" y1="610.252" y2="610.252"/><line style="stroke:#181818;stroke-width:1.0;" x1="464" x2="464" y1="610.252" y2="623.252"/><line style="stroke:#181818;stroke-width:1.0;" x1="423" x2="464" y1="623.252" y2="623.252"/><polygon fill="#181818" points="433,619.252,423,623.252,433,627.252,429,623.252" style="stroke:#181818;stroke-width:1.0;"/><text fill="#000000" font-family="sans-serif" font-size="13" font-weight="bold" lengthAdjust="spacing" textLength="19" x="429" y="597.8545">(5)</text><text fill="#000000" font-family="sans-serif" font-size="13" lengthAdjust="spacing" textLength="136" x="452" y="590.1992">Create Email Message</text><ellipse cx="457.5" cy="600.752" fill="#000000" rx="2.5" ry="2.5" style="stroke:#000000;stroke-width:0.0;"/><text fill="#000000" font-family="sans-serif" font-size="13" lengthAdjust="spacing" textLength="183" x="464" y="605.5098">emailMsg = GenEmailMsg(qr)</text><path d="M659,589.7861 L659,614.7861 L917,614.7861 L917,599.7861 L907,589.7861 L659,589.7861 " fill="#FEFFDD" style="stroke:#181818;stroke-width:0.5;"/><path d="M907,589.7861 L907,599.7861 L917,599.7861 L907,589.7861 " fill="#FEFFDD" style="stroke:#181818;stroke-width:0.5;"/><text fill="#000000" font-family="sans-serif" font-size="13" lengthAdjust="spacing" textLength="237" x="665" y="607.3545">Email message format is out of scope</text><polygon fill="#181818" points="689,663.873,699,667.873,689,671.873,693,667.873" style="stroke:#181818;stroke-width:1.0;"/><line style="stroke:#181818;stroke-width:1.0;" x1="422" x2="695" y1="667.873" y2="667.873"/><text fill="#000000" font-family="sans-serif" font-size="13" font-weight="bold" lengthAdjust="spacing" textLength="19" x="429" y="655.4756">(6)</text><text fill="#000000" font-family="sans-serif" font-size="13" lengthAdjust="spacing" textLength="142" x="452" y="647.8203">Request Email Sending</text><text fill="#000000" font-family="sans-serif" font-size="13" lengthAdjust="spacing" textLength="137" x="452" y="663.1309">{userEmail, emailMsg}</text><polygon fill="#0000FF" points="963,693.1836,973,697.1836,963,697.1836" style="stroke:#0000FF;stroke-width:1.0;"/><line style="stroke:#0000FF;stroke-width:1.0;stroke-dasharray:2.0,2.0;" x1="711" x2="974" y1="697.1836" y2="697.1836"/><text fill="#000000" font-family="sans-serif" font-size="13" font-weight="bold" lengthAdjust="spacing" textLength="19" x="718" y="692.4414">(7)</text><text fill="#000000" font-family="sans-serif" font-size="13" lengthAdjust="spacing" textLength="150" x="741" y="692.4414">Send Email to userEmail</text><polygon fill="#181818" points="433,722.4941,423,726.4941,433,730.4941,429,726.4941" style="stroke:#181818;stroke-width:1.0;"/><line style="stroke:#181818;stroke-width:1.0;stroke-dasharray:2.0,2.0;" x1="427" x2="705" y1="726.4941" y2="726.4941"/><text fill="#000000" font-family="sans-serif" font-size="13" font-weight="bold" lengthAdjust="spacing" textLength="19" x="439" y="721.752">(8)</text><text fill="#000000" font-family="sans-serif" font-size="13" lengthAdjust="spacing" textLength="60" x="462" y="721.752">Response</text><path d="M371.5,741.4941 L438.5,741.4941 L438.5,748.8047 L428.5,758.8047 L371.5,758.8047 L371.5,741.4941 " fill="#EEEEEE" style="stroke:#000000;stroke-width:1.5;"/><rect fill="none" height="178.1738" style="stroke:#000000;stroke-width:1.5;" width="593.5" x="371.5" y="741.4941"/><text fill="#000000" font-family="sans-serif" font-size="13" font-weight="bold" lengthAdjust="spacing" textLength="22" x="386.5" y="755.0625">opt</text><text fill="#000000" font-family="sans-serif" font-size="11" font-weight="bold" lengthAdjust="spacing" textLength="145" x="453.5" y="754.1289">[If holderDid is available]</text><line style="stroke:#181818;stroke-width:1.0;" x1="422" x2="464" y1="795.4258" y2="795.4258"/><line style="stroke:#181818;stroke-width:1.0;" x1="464" x2="464" y1="795.4258" y2="808.4258"/><line style="stroke:#181818;stroke-width:1.0;" x1="423" x2="464" y1="808.4258" y2="808.4258"/><polygon fill="#181818" points="433,804.4258,423,808.4258,433,812.4258,429,808.4258" style="stroke:#181818;stroke-width:1.0;"/><text fill="#000000" font-family="sans-serif" font-size="13" font-weight="bold" lengthAdjust="spacing" textLength="19" x="429" y="783.0283">(9)</text><text fill="#000000" font-family="sans-serif" font-size="13" lengthAdjust="spacing" textLength="135" x="452" y="775.373">Create PUSH Message</text><ellipse cx="457.5" cy="785.9258" fill="#000000" rx="2.5" ry="2.5" style="stroke:#000000;stroke-width:0.0;"/><text fill="#000000" font-family="sans-serif" font-size="13" lengthAdjust="spacing" textLength="212" x="464" y="790.6836">pushMsg = GenPushMsg(payload)</text><path d="M688,774.96 L688,799.96 L945,799.96 L945,784.96 L935,774.96 L688,774.96 " fill="#FEFFDD" style="stroke:#181818;stroke-width:0.5;"/><path d="M935,774.96 L935,784.96 L945,784.96 L935,774.96 " fill="#FEFFDD" style="stroke:#181818;stroke-width:0.5;"/><text fill="#000000" font-family="sans-serif" font-size="13" lengthAdjust="spacing" textLength="236" x="694" y="792.5283">PUSH message format is out of scope</text><polygon fill="#181818" points="689,849.0469,699,853.0469,689,857.0469,693,853.0469" style="stroke:#181818;stroke-width:1.0;"/><line style="stroke:#181818;stroke-width:1.0;" x1="422" x2="695" y1="853.0469" y2="853.0469"/><text fill="#000000" font-family="sans-serif" font-size="13" font-weight="bold" lengthAdjust="spacing" textLength="28" x="429" y="840.6494">(10)</text><text fill="#000000" font-family="sans-serif" font-size="13" lengthAdjust="spacing" textLength="141" x="461" y="832.9941">Request PUSH Sending</text><text fill="#000000" font-family="sans-serif" font-size="13" lengthAdjust="spacing" textLength="135" x="461" y="848.3047">{holderDid, pushMsg}</text><polygon fill="#0000FF" points="963,878.3574,973,882.3574,963,882.3574" style="stroke:#0000FF;stroke-width:1.0;"/><line style="stroke:#0000FF;stroke-width:1.0;stroke-dasharray:2.0,2.0;" x1="711" x2="974" y1="882.3574" y2="882.3574"/><text fill="#000000" font-family="sans-serif" font-size="13" font-weight="bold" lengthAdjust="spacing" textLength="28" x="718" y="877.6152">(11)</text><text fill="#000000" font-family="sans-serif" font-size="13" lengthAdjust="spacing" textLength="150" x="750" y="877.6152">Send PUSH to holderDid</text><polygon fill="#181818" points="433,907.668,423,911.668,433,915.668,429,911.668" style="stroke:#181818;stroke-width:1.0;"/><line style="stroke:#181818;stroke-width:1.0;stroke-dasharray:2.0,2.0;" x1="427" x2="705" y1="911.668" y2="911.668"/><text fill="#000000" font-family="sans-serif" font-size="13" font-weight="bold" lengthAdjust="spacing" textLength="28" x="439" y="906.9258">(12)</text><text fill="#000000" font-family="sans-serif" font-size="13" lengthAdjust="spacing" textLength="4" x="471" y="906.9258">&#160;</text><text fill="#000000" font-family="sans-serif" font-size="11" lengthAdjust="spacing" textLength="107" x="323.5" y="976.3027">a few moments later</text><path d="M10,1024.623 L72,1024.623 L72,1031.9336 L62,1041.9336 L10,1041.9336 L10,1024.623 " fill="#EEEEEE" style="stroke:#000000;stroke-width:1.5;"/><rect fill="none" height="206.1289" style="stroke:#000000;stroke-width:1.5;" width="256" x="10" y="1024.623"/><text fill="#000000" font-family="sans-serif" font-size="13" font-weight="bold" lengthAdjust="spacing" textLength="17" x="25" y="1038.1914">alt</text><text fill="#000000" font-family="sans-serif" font-size="11" font-weight="bold" lengthAdjust="spacing" textLength="142" x="87" y="1037.2578">[When Email is Received]</text><polygon fill="#0000FF" points="64,1064.2441,54,1064.2441,64,1068.2441" style="stroke:#0000FF;stroke-width:1.0;"/><line style="stroke:#0000FF;stroke-width:1.0;stroke-dasharray:2.0,2.0;" x1="53" x2="195" y1="1063.2441" y2="1063.2441"/><text fill="#000000" font-family="sans-serif" font-size="13" font-weight="bold" lengthAdjust="spacing" textLength="28" x="70" y="1058.502">(13)</text><text fill="#000000" font-family="sans-serif" font-size="13" lengthAdjust="spacing" textLength="87" x="102" y="1058.502">Scan QR Code</text><line style="stroke:#181818;stroke-width:1.0;" x1="53" x2="95" y1="1107.8652" y2="1107.8652"/><line style="stroke:#181818;stroke-width:1.0;" x1="95" x2="95" y1="1107.8652" y2="1120.8652"/><line style="stroke:#181818;stroke-width:1.0;" x1="54" x2="95" y1="1120.8652" y2="1120.8652"/><polygon fill="#181818" points="64,1116.8652,54,1120.8652,64,1124.8652,60,1120.8652" style="stroke:#181818;stroke-width:1.0;"/><text fill="#000000" font-family="sans-serif" font-size="13" font-weight="bold" lengthAdjust="spacing" textLength="28" x="60" y="1095.4678">(14)</text><text fill="#000000" font-family="sans-serif" font-size="13" lengthAdjust="spacing" textLength="113" x="92" y="1087.8125">Parse QR Message</text><ellipse cx="97.5" cy="1098.3652" fill="#000000" rx="2.5" ry="2.5" style="stroke:#000000;stroke-width:0.0;"/><text fill="#000000" font-family="sans-serif" font-size="13" lengthAdjust="spacing" textLength="150" x="104" y="1103.123">payload = Read payload</text><line style="stroke:#000000;stroke-width:1.0;stroke-dasharray:2.0,2.0;" x1="10" x2="266" y1="1129.8652" y2="1129.8652"/><text fill="#000000" font-family="sans-serif" font-size="11" font-weight="bold" lengthAdjust="spacing" textLength="140" x="15" y="1140.5">[When PUSH is Received]</text><polygon fill="#0000FF" points="64,1166.1309,54,1166.1309,64,1170.1309" style="stroke:#0000FF;stroke-width:1.0;"/><line style="stroke:#0000FF;stroke-width:1.0;stroke-dasharray:2.0,2.0;" x1="53" x2="250" y1="1165.1309" y2="1165.1309"/><text fill="#000000" font-family="sans-serif" font-size="13" font-weight="bold" lengthAdjust="spacing" textLength="28" x="70" y="1160.3887">(15)</text><text fill="#000000" font-family="sans-serif" font-size="13" lengthAdjust="spacing" textLength="142" x="102" y="1160.3887">Receive PUSH Message</text><line style="stroke:#181818;stroke-width:1.0;" x1="53" x2="95" y1="1209.752" y2="1209.752"/><line style="stroke:#181818;stroke-width:1.0;" x1="95" x2="95" y1="1209.752" y2="1222.752"/><line style="stroke:#181818;stroke-width:1.0;" x1="54" x2="95" y1="1222.752" y2="1222.752"/><polygon fill="#181818" points="64,1218.752,54,1222.752,64,1226.752,60,1222.752" style="stroke:#181818;stroke-width:1.0;"/><text fill="#000000" font-family="sans-serif" font-size="13" font-weight="bold" lengthAdjust="spacing" textLength="28" x="60" y="1197.3545">(16)</text><text fill="#000000" font-family="sans-serif" font-size="13" lengthAdjust="spacing" textLength="128" x="92" y="1189.6992">Parse PUSH Message</text><ellipse cx="97.5" cy="1200.252" fill="#000000" rx="2.5" ry="2.5" style="stroke:#000000;stroke-width:0.0;"/><text fill="#000000" font-family="sans-serif" font-size="13" lengthAdjust="spacing" textLength="150" x="104" y="1205.0098">payload = Read payload</text><rect fill="#EEEEEE" height="3" style="stroke:#EEEEEE;stroke-width:1.0;" width="975" x="0" y="1258.4072"/><line style="stroke:#000000;stroke-width:1.0;" x1="0" x2="975" y1="1258.4072" y2="1258.4072"/><line style="stroke:#000000;stroke-width:1.0;" x1="0" x2="975" y1="1261.4072" y2="1261.4072"/><rect fill="#EEEEEE" height="23.3105" style="stroke:#000000;stroke-width:2.0;" width="101" x="437" y="1247.752"/><text fill="#000000" font-family="sans-serif" font-size="13" font-weight="bold" lengthAdjust="spacing" textLength="83" x="443" y="1264.3203">(D) Issuance</text><polygon fill="#181818" points="319,1374.9258,329,1378.9258,319,1382.9258,323,1378.9258" style="stroke:#181818;stroke-width:1.0;"/><line style="stroke:#181818;stroke-width:1.0;" x1="53" x2="325" y1="1378.9258" y2="1378.9258"/><text fill="#000000" font-family="sans-serif" font-size="13" font-weight="bold" lengthAdjust="spacing" textLength="28" x="60" y="1335.9072">(17)</text><text fill="#000000" font-family="sans-serif" font-size="13" lengthAdjust="spacing" textLength="168" x="92" y="1297.6309">D1. Request Start Issuance</text><text fill="#000000" font-family="sans-serif" font-size="13" lengthAdjust="spacing" textLength="4" x="92" y="1312.9414">{</text><text fill="#000000" font-family="sans-serif" font-size="13" lengthAdjust="spacing" textLength="179" x="108" y="1328.252">vcPlanId = payload.vcPlanId,</text><text fill="#000000" font-family="sans-serif" font-size="13" lengthAdjust="spacing" textLength="151" x="108" y="1343.5625">issuer = payload.issuer,</text><text fill="#000000" font-family="sans-serif" font-size="13" lengthAdjust="spacing" textLength="16" x="92" y="1358.873">&#160;&#160;&#160;&#160;</text><text fill="#000000" font-family="sans-serif" font-size="13" font-weight="bold" lengthAdjust="spacing" textLength="45" x="108" y="1358.873">offerId</text><text fill="#000000" font-family="sans-serif" font-size="13" lengthAdjust="spacing" textLength="109" x="157" y="1358.873">= payload.offerId</text><text fill="#000000" font-family="sans-serif" font-size="13" lengthAdjust="spacing" textLength="4" x="92" y="1374.1836">}</text><path d="M18,1391.9258 L18,1416.9258 L364,1416.9258 L364,1401.9258 L354,1391.9258 L18,1391.9258 " fill="#FEFFDD" style="stroke:#181818;stroke-width:0.5;"/><path d="M354,1391.9258 L354,1401.9258 L364,1401.9258 L354,1391.9258 " fill="#FEFFDD" style="stroke:#181818;stroke-width:0.5;"/><text fill="#000000" font-family="sans-serif" font-size="13" lengthAdjust="spacing" textLength="119" x="127.25" y="1409.4941">The rest is omitted</text><!--SRC=[XLRVRzem47xtNt7g7WOPC6tINX0mTJ1jFD2oqdOFwnvCSe2bO0V7OM9jzxVlx3XEA5kBX8Xzt_tuFfyl665IP42VGIv-O__zXz4qpmikOuIf54PmWmai3s1tKG_UMjI8eKp0E5V62wDaiLsYXhF1SjHwrHwyNOxE67lDOwDeCufkSjHHT0OyXu8UMSQr4R78k3JMF3xFCc-EEGm6j1oDdeAkpnSUO-Wx62nGxr6VuiewFNI_UWPveOnOYPWReIJCjTgB93XAiZLTcQOT14Kh2khqYg8VSurT7kyAeKcZgLmflIsZjJB2MTRjdr7aqDqkpBXCE2boe4KPmQanJM3erUtcL8BpW_CuLeKq3TpdBHSfGPsvN9mdYSOyhn9SPZOvJ-lu6vKIfub8Ah_9TD88ELDBaM9bywiBTvRkX1rfneP3Q8tRLJjOViCXdNjin9wwm-f1EdT7zD27iKQxv_Z0vMf5SVtdJaQWx8OZN9gc2Kfx2CUeVJnFkNImsp7OPo063O1mQWNPBAiZVvwAv8O2MxaMQE3MRWXpW3bgeP96kJEU-LACAbNuHxL__3cTqYnTv_oGAdvKOSjLvipUsiwUegYuUv-Y4pXtFBbEWyLZ8_4NbAZhrD-kOAoePngfTrOOWdtJBP-opLppQh7Uc7vmARkLqe4g3765F5OPdVO9oRBNPjHeV7sK2QrXbg_BV9_zghNJnmbB_wtt_rzQdzTTl3Tl-d25km9puxqNr8v2hk_aVRWAdP3_qRMqy-p-UFKfBV1dzmxwpidxq-a6HwRH55fIXZnJCgVSAZCmNJLk2rN7zmJbIpySJqIPtoo-FjMaqYKhyasGPLukwhFmjGPvNAINrAbhE178-TVw11ATgevIdcSaSX58eU3g74gLx1nW2JOlEtjuU62zNe_32d_1Lctf3kUGabNJhhCodXhula7fvIS-LnYZs6CPcyRyNQZZewEpYEcQ-zwiC4GtvgGGrpbQczVRQUnlqv02quzVCam9wH8xKY_axLVMe-FyP_OcuBdyf9QRbvCsXFUedPPbFFlgicGdxthX_1Q6NairEFJHVMDIsDElXw9FrgjdnX4oJCSALqsK8rGK-TaJHGreDV82z97LBxwOToo3Fbnlg7jjxRPFjyBGNmJs5m00]--></g></svg>