<?xml version="1.0" encoding="UTF-8"?><svg xmlns="http://www.w3.org/2000/svg" xmlns:xlink="http://www.w3.org/1999/xlink" fill-opacity="1" color-rendering="auto" color-interpolation="auto" text-rendering="auto" stroke="black" stroke-linecap="square" width="797" stroke-miterlimit="10" shape-rendering="auto" stroke-opacity="1" fill="black" stroke-dasharray="none" font-weight="normal" stroke-width="1" height="215" font-family="'Dialog'" font-style="normal" stroke-linejoin="miter" font-size="12px" stroke-dashoffset="0" image-rendering="auto">
  <!--Generated by ySVG 2.6-->
  <defs id="genericDefs"/>
  <g>
    <defs id="defs1">
      <clipPath clipPathUnits="userSpaceOnUse" id="clipPath1">
        <path d="M0 0 L797 0 L797 215 L0 215 L0 0 Z"/>
      </clipPath>
      <clipPath clipPathUnits="userSpaceOnUse" id="clipPath2">
        <path d="M163 175 L960 175 L960 390 L163 390 L163 175 Z"/>
      </clipPath>
    </defs>
    <g fill="white" text-rendering="geometricPrecision" shape-rendering="geometricPrecision" transform="matrix(1,0,0,1,-163,-175)" stroke="white">
      <rect x="198" width="125" height="170" y="205" clip-path="url(#clipPath2)" stroke="none"/>
    </g>
    <g text-rendering="geometricPrecision" stroke-miterlimit="1.45" shape-rendering="geometricPrecision" transform="matrix(1,0,0,1,-163,-175)" stroke-linecap="butt">
      <rect fill="none" x="198" width="125" height="170" y="205" clip-path="url(#clipPath2)"/>
      <text x="248.6797" font-size="16px" y="286.625" clip-path="url(#clipPath2)" font-family="sans-serif" stroke="none" font-weight="bold" xml:space="preserve">(A)</text>
      <text x="249.2109" font-size="16px" y="305.4688" clip-path="url(#clipPath2)" font-family="sans-serif" stroke="none" font-weight="bold" xml:space="preserve">VC</text>
      <text x="202.6592" xml:space="preserve" y="341.6699" clip-path="url(#clipPath2)" font-family="sans-serif" stroke="none">(Ex: driver's license)</text>
    </g>
    <g fill="white" text-rendering="geometricPrecision" shape-rendering="geometricPrecision" transform="matrix(1,0,0,1,-163,-175)" stroke="white">
      <rect x="509" width="125" height="70" y="305" clip-path="url(#clipPath2)" stroke="none"/>
    </g>
    <g stroke-linecap="butt" transform="matrix(1,0,0,1,-163,-175)" fill="blue" text-rendering="geometricPrecision" shape-rendering="geometricPrecision" stroke-dasharray="12,4" stroke="blue" stroke-width="2" stroke-miterlimit="1.45">
      <rect fill="none" x="509" width="125" height="70" y="305" clip-path="url(#clipPath2)"/>
    </g>
    <g font-size="16px" stroke-linecap="butt" transform="matrix(1,0,0,1,-163,-175)" text-rendering="geometricPrecision" font-family="sans-serif" shape-rendering="geometricPrecision" font-weight="bold" stroke-miterlimit="1.45">
      <text x="559.8711" xml:space="preserve" y="336.625" clip-path="url(#clipPath2)" stroke="none">(C)</text>
      <text x="526.3438" xml:space="preserve" y="355.4688" clip-path="url(#clipPath2)" stroke="none">VC Schema</text>
    </g>
    <g fill="white" text-rendering="geometricPrecision" shape-rendering="geometricPrecision" transform="matrix(1,0,0,1,-163,-175)" stroke="white">
      <rect x="820" width="125" height="70" y="205" clip-path="url(#clipPath2)" stroke="none"/>
    </g>
    <g text-rendering="geometricPrecision" stroke-miterlimit="1.45" shape-rendering="geometricPrecision" transform="matrix(1,0,0,1,-163,-175)" stroke-linecap="butt">
      <rect fill="none" x="820" width="125" height="70" y="205" clip-path="url(#clipPath2)"/>
      <text x="871.5312" font-size="16px" y="236.625" clip-path="url(#clipPath2)" font-family="sans-serif" stroke="none" font-weight="bold" xml:space="preserve">(B)</text>
      <text x="840.8086" font-size="16px" y="255.4688" clip-path="url(#clipPath2)" font-family="sans-serif" stroke="none" font-weight="bold" xml:space="preserve">VC format</text>
    </g>
    <g fill="white" text-rendering="geometricPrecision" shape-rendering="geometricPrecision" transform="matrix(1,0,0,1,-163,-175)" stroke="white">
      <rect x="820" width="125" height="70" y="305" clip-path="url(#clipPath2)" stroke="none"/>
    </g>
    <g stroke-linecap="butt" transform="matrix(1,0,0,1,-163,-175)" fill="blue" text-rendering="geometricPrecision" shape-rendering="geometricPrecision" stroke-dasharray="12,4" stroke="blue" stroke-width="2" stroke-miterlimit="1.45">
      <rect fill="none" x="820" width="125" height="70" y="305" clip-path="url(#clipPath2)"/>
    </g>
    <g font-size="16px" stroke-linecap="butt" transform="matrix(1,0,0,1,-163,-175)" text-rendering="geometricPrecision" font-family="sans-serif" shape-rendering="geometricPrecision" font-weight="bold" stroke-miterlimit="1.45">
      <text x="870.2266" xml:space="preserve" y="327.2031" clip-path="url(#clipPath2)" stroke="none">(D)</text>
      <text x="837.3438" xml:space="preserve" y="346.0469" clip-path="url(#clipPath2)" stroke="none">VC Schema</text>
      <text x="854.7344" xml:space="preserve" y="364.8906" clip-path="url(#clipPath2)" stroke="none">format</text>
    </g>
    <g fill="rgb(255,204,0)" text-rendering="geometricPrecision" shape-rendering="geometricPrecision" transform="matrix(1,0,0,1,-163,-175)" stroke="rgb(255,204,0)">
      <path d="M214 220.5 L224.8 213.2942 L245.1769 213 L235.6 205.5 L245.1769 198 L224.8 197.7058 L214 190.5 L203.2 197.7058 L182.8231 198 L192.4 205.5 L182.8231 213 L203.2 213.2942 Z" fill-rule="evenodd" clip-path="url(#clipPath2)" stroke="none"/>
    </g>
    <g text-rendering="geometricPrecision" stroke-miterlimit="1.45" shape-rendering="geometricPrecision" transform="matrix(1,0,0,1,-163,-175)" stroke-linecap="butt">
      <path fill="none" d="M214 220.5 L224.8 213.2942 L245.1769 213 L235.6 205.5 L245.1769 198 L224.8 197.7058 L214 190.5 L203.2 197.7058 L182.8231 198 L192.4 205.5 L182.8231 213 L203.2 213.2942 Z" fill-rule="evenodd" clip-path="url(#clipPath2)"/>
      <text x="199.8086" xml:space="preserve" y="210.0352" clip-path="url(#clipPath2)" font-family="sans-serif" stroke="none">JSON</text>
    </g>
    <g fill="rgb(204,255,204)" text-rendering="geometricPrecision" shape-rendering="geometricPrecision" transform="matrix(1,0,0,1,-163,-175)" stroke="rgb(204,255,204)">
      <path d="M829 220.5 L839.8 213.2942 L860.1769 213 L850.6 205.5 L860.1769 198 L839.8 197.7058 L829 190.5 L818.2 197.7058 L797.8231 198 L807.4 205.5 L797.8231 213 L818.2 213.2942 Z" fill-rule="evenodd" clip-path="url(#clipPath2)" stroke="none"/>
    </g>
    <g text-rendering="geometricPrecision" stroke-miterlimit="1.45" shape-rendering="geometricPrecision" transform="matrix(1,0,0,1,-163,-175)" stroke-linecap="butt">
      <path fill="none" d="M829 220.5 L839.8 213.2942 L860.1769 213 L850.6 205.5 L860.1769 198 L839.8 197.7058 L829 190.5 L818.2 197.7058 L797.8231 198 L807.4 205.5 L797.8231 213 L818.2 213.2942 Z" fill-rule="evenodd" clip-path="url(#clipPath2)"/>
      <text x="816.6133" xml:space="preserve" y="210.0352" clip-path="url(#clipPath2)" font-family="sans-serif" stroke="none">OSD</text>
    </g>
    <g fill="rgb(204,255,204)" text-rendering="geometricPrecision" shape-rendering="geometricPrecision" transform="matrix(1,0,0,1,-163,-175)" stroke="rgb(204,255,204)">
      <path d="M829 320 L839.8 312.7942 L860.1769 312.5 L850.6 305 L860.1769 297.5 L839.8 297.2058 L829 290 L818.2 297.2058 L797.8231 297.5 L807.4 305 L797.8231 312.5 L818.2 312.7942 Z" fill-rule="evenodd" clip-path="url(#clipPath2)" stroke="none"/>
    </g>
    <g text-rendering="geometricPrecision" stroke-miterlimit="1.45" shape-rendering="geometricPrecision" transform="matrix(1,0,0,1,-163,-175)" stroke-linecap="butt">
      <path fill="none" d="M829 320 L839.8 312.7942 L860.1769 312.5 L850.6 305 L860.1769 297.5 L839.8 297.2058 L829 290 L818.2 297.2058 L797.8231 297.5 L807.4 305 L797.8231 312.5 L818.2 312.7942 Z" fill-rule="evenodd" clip-path="url(#clipPath2)"/>
      <text x="816.6133" xml:space="preserve" y="309.5352" clip-path="url(#clipPath2)" font-family="sans-serif" stroke="none">OSD</text>
    </g>
    <g fill="rgb(255,204,0)" text-rendering="geometricPrecision" shape-rendering="geometricPrecision" transform="matrix(1,0,0,1,-163,-175)" stroke="rgb(255,204,0)">
      <path d="M518 320 L528.8 312.7942 L549.1769 312.5 L539.6 305 L549.1769 297.5 L528.8 297.2058 L518 290 L507.2 297.2058 L486.8231 297.5 L496.4 305 L486.8231 312.5 L507.2 312.7942 Z" fill-rule="evenodd" clip-path="url(#clipPath2)" stroke="none"/>
    </g>
    <g text-rendering="geometricPrecision" stroke-miterlimit="1.45" shape-rendering="geometricPrecision" transform="matrix(1,0,0,1,-163,-175)" stroke-linecap="butt">
      <path fill="none" d="M518 320 L528.8 312.7942 L549.1769 312.5 L539.6 305 L549.1769 297.5 L528.8 297.2058 L518 290 L507.2 297.2058 L486.8231 297.5 L496.4 305 L486.8231 312.5 L507.2 312.7942 Z" fill-rule="evenodd" clip-path="url(#clipPath2)"/>
      <text x="503.8086" xml:space="preserve" y="309.5352" clip-path="url(#clipPath2)" font-family="sans-serif" stroke="none">JSON</text>
      <path fill="none" stroke-dasharray="6,2" d="M509 340 L331.0239 340" clip-path="url(#clipPath2)"/>
      <path stroke-dasharray="6,2" d="M323.0239 340 L335.0239 345 L332.0239 340 L335.0239 335 Z" clip-path="url(#clipPath2)" stroke="none"/>
      <text x="373.2734" xml:space="preserve" y="319.3359" clip-path="url(#clipPath2)" font-family="sans-serif" stroke="none">VC Claim</text>
      <text x="373.2734" xml:space="preserve" y="333.4688" clip-path="url(#clipPath2)" font-family="sans-serif" stroke="none">item definition</text>
      <path fill="none" stroke-dasharray="6,2" d="M820 240 L331.0271 240" clip-path="url(#clipPath2)"/>
      <path stroke-dasharray="6,2" d="M323.0271 240 L335.0271 245 L332.0271 240 L335.0271 235 Z" clip-path="url(#clipPath2)" stroke="none"/>
      <text x="484.8809" xml:space="preserve" y="233.4688" clip-path="url(#clipPath2)" font-family="sans-serif" stroke="none">VC's JSON structure definition</text>
      <path fill="none" stroke-dasharray="6,2" d="M820 340 L642 340" clip-path="url(#clipPath2)"/>
      <path stroke-dasharray="6,2" d="M634 340 L646 345 L643 340 L646 335 Z" clip-path="url(#clipPath2)" stroke="none"/>
      <text x="654.7861" xml:space="preserve" y="319.3359" clip-path="url(#clipPath2)" font-family="sans-serif" stroke="none">VC Schema's </text>
      <text x="654.7861" xml:space="preserve" y="333.4688" clip-path="url(#clipPath2)" font-family="sans-serif" stroke="none">JSON structure definition</text>
    </g>
  </g>
</svg>
