<?xml version="1.0" encoding="UTF-8"?><svg xmlns="http://www.w3.org/2000/svg" xmlns:xlink="http://www.w3.org/1999/xlink" fill-opacity="1" color-rendering="auto" color-interpolation="auto" text-rendering="auto" stroke="black" stroke-linecap="square" width="624" stroke-miterlimit="10" shape-rendering="auto" stroke-opacity="1" fill="black" stroke-dasharray="none" font-weight="normal" stroke-width="1" height="328" font-family="'Dialog'" font-style="normal" stroke-linejoin="miter" font-size="12px" stroke-dashoffset="0" image-rendering="auto">
  <!--Generated by ySVG 2.6-->
  <defs id="genericDefs"/>
  <g>
    <defs id="defs1">
      <linearGradient x1="865.99" gradientUnits="userSpaceOnUse" x2="985.4045" y1="277.1217" y2="317.1217" id="linearGradient1" spreadMethod="reflect">
        <stop stop-opacity="1" stop-color="rgb(232,238,247)" offset="0%"/>
        <stop stop-opacity="1" stop-color="rgb(183,201,227)" offset="100%"/>
      </linearGradient>
      <linearGradient x1="865.99" gradientUnits="userSpaceOnUse" x2="985.4045" y1="337.1865" y2="377.1865" id="linearGradient2" spreadMethod="reflect">
        <stop stop-opacity="1" stop-color="white" offset="0%"/>
        <stop stop-opacity="1" stop-color="white" offset="100%"/>
      </linearGradient>
      <linearGradient x1="468.3731" gradientUnits="userSpaceOnUse" x2="587.7877" y1="277.1217" y2="317.1217" id="linearGradient3" spreadMethod="reflect">
        <stop stop-opacity="1" stop-color="rgb(232,238,247)" offset="0%"/>
        <stop stop-opacity="1" stop-color="rgb(183,201,227)" offset="100%"/>
      </linearGradient>
      <linearGradient x1="468.3731" gradientUnits="userSpaceOnUse" x2="587.7877" y1="336.6541" y2="376.6541" id="linearGradient4" spreadMethod="reflect">
        <stop stop-opacity="1" stop-color="rgb(232,238,247)" offset="0%"/>
        <stop stop-opacity="1" stop-color="rgb(183,201,227)" offset="100%"/>
      </linearGradient>
      <linearGradient x1="468.3731" gradientUnits="userSpaceOnUse" x2="587.7877" y1="401.1865" y2="441.1865" id="linearGradient5" spreadMethod="reflect">
        <stop stop-opacity="1" stop-color="white" offset="0%"/>
        <stop stop-opacity="1" stop-color="white" offset="100%"/>
      </linearGradient>
      <linearGradient x1="632.7877" gradientUnits="userSpaceOnUse" x2="752.2023" y1="277.1217" y2="317.1217" id="linearGradient6" spreadMethod="reflect">
        <stop stop-opacity="1" stop-color="rgb(232,238,247)" offset="0%"/>
        <stop stop-opacity="1" stop-color="rgb(183,201,227)" offset="100%"/>
      </linearGradient>
      <linearGradient x1="632.7877" gradientUnits="userSpaceOnUse" x2="752.2023" y1="336.6541" y2="376.6541" id="linearGradient7" spreadMethod="reflect">
        <stop stop-opacity="1" stop-color="white" offset="0%"/>
        <stop stop-opacity="1" stop-color="white" offset="100%"/>
      </linearGradient>
      <clipPath clipPathUnits="userSpaceOnUse" id="clipPath1">
        <path d="M0 0 L624 0 L624 328 L0 328 L0 0 Z"/>
      </clipPath>
      <clipPath clipPathUnits="userSpaceOnUse" id="clipPath2">
        <path d="M423 188 L1047 188 L1047 516 L423 516 L423 188 Z"/>
      </clipPath>
    </defs>
    <g fill="white" text-rendering="geometricPrecision" shape-rendering="geometricPrecision" transform="translate(-423,-188)" stroke="white">
      <rect x="423" width="624" height="328" y="188" clip-path="url(#clipPath2)" stroke="none"/>
    </g>
    <g fill="rgb(245,245,245)" text-rendering="geometricPrecision" shape-rendering="geometricPrecision" transform="matrix(1,0,0,1,-423,-188)" stroke="rgb(245,245,245)">
      <rect x="818.99" y="203.7897" clip-path="url(#clipPath2)" width="212.49" rx="4" ry="4" height="271.332" stroke="none"/>
      <rect x="818.99" y="203.7897" clip-path="url(#clipPath2)" fill="rgb(235,235,235)" width="212.49" height="21.666" stroke="none"/>
    </g>
    <g font-size="15px" stroke-linecap="butt" transform="matrix(1,0,0,1,-423,-188)" text-rendering="geometricPrecision" font-family="sans-serif" shape-rendering="geometricPrecision" stroke-miterlimit="1.45">
      <text x="888.709" xml:space="preserve" y="220.2916" clip-path="url(#clipPath2)" stroke="none">B Provider</text>
      <rect x="818.99" y="203.7897" clip-path="url(#clipPath2)" fill="none" width="212.49" stroke-dasharray="6,2" rx="4" ry="4" height="271.332"/>
    </g>
    <g fill="rgb(225,225,225)" text-rendering="geometricPrecision" shape-rendering="geometricPrecision" transform="matrix(1,0,0,1,-423,-188)" stroke="rgb(225,225,225)">
      <rect x="850.99" y="240.4557" clip-path="url(#clipPath2)" width="151.7877" rx="4" ry="4" height="210.7308" stroke="none"/>
      <rect x="850.99" y="240.4557" clip-path="url(#clipPath2)" fill="rgb(235,235,235)" width="151.7877" height="21.666" stroke="none"/>
    </g>
    <g font-size="15px" stroke-linecap="butt" transform="matrix(1,0,0,1,-423,-188)" text-rendering="geometricPrecision" font-family="sans-serif" shape-rendering="geometricPrecision" stroke-miterlimit="1.45">
      <text x="901.5273" xml:space="preserve" y="256.9576" clip-path="url(#clipPath2)" stroke="none">Service</text>
      <rect x="850.99" y="240.4557" clip-path="url(#clipPath2)" fill="none" width="151.7877" stroke-dasharray="6,2" rx="4" ry="4" height="210.7308"/>
    </g>
    <g fill="url(#linearGradient1)" text-rendering="geometricPrecision" shape-rendering="geometricPrecision" transform="matrix(1,0,0,1,-423,-188)" stroke="url(#linearGradient1)">
      <path d="M865.99 277.1217 L985.4045 277.1217 L985.4045 317.1217 L865.99 317.1217 Z" stroke="none" clip-path="url(#clipPath2)"/>
    </g>
    <g text-rendering="geometricPrecision" stroke-miterlimit="1.45" shape-rendering="geometricPrecision" transform="matrix(1,0,0,1,-423,-188)" stroke-linecap="butt">
      <path fill="none" d="M865.99 277.1217 L985.4045 277.1217 L985.4045 317.1217 L865.99 317.1217 Z" clip-path="url(#clipPath2)"/>
      <text x="909.3643" xml:space="preserve" y="301.6569" clip-path="url(#clipPath2)" font-family="sans-serif" stroke="none">Entity</text>
    </g>
    <g fill="url(#linearGradient2)" text-rendering="geometricPrecision" shape-rendering="geometricPrecision" transform="matrix(1,0,0,1,-423,-188)" stroke="url(#linearGradient2)">
      <path d="M865.99 337.1865 L985.4045 337.1865 L985.4045 377.1865 L865.99 377.1865 Z" stroke="none" clip-path="url(#clipPath2)"/>
    </g>
    <g text-rendering="geometricPrecision" stroke-miterlimit="1.45" shape-rendering="geometricPrecision" transform="matrix(1,0,0,1,-423,-188)" stroke-linecap="butt">
      <path fill="none" d="M865.99 337.1865 L985.4045 337.1865 L985.4045 377.1865 L865.99 377.1865 Z" clip-path="url(#clipPath2)"/>
      <text x="908.1953" xml:space="preserve" y="361.7216" clip-path="url(#clipPath2)" font-family="sans-serif" stroke="none">Wallet</text>
    </g>
    <g fill="rgb(245,245,245)" text-rendering="geometricPrecision" shape-rendering="geometricPrecision" transform="matrix(1,0,0,1,-423,-188)" stroke="rgb(245,245,245)">
      <rect x="438.3731" y="203.7897" clip-path="url(#clipPath2)" width="350.6168" rx="4" ry="4" height="296.332" stroke="none"/>
      <rect x="438.3731" y="203.7897" clip-path="url(#clipPath2)" fill="rgb(235,235,235)" width="350.6168" height="21.666" stroke="none"/>
    </g>
    <g font-size="15px" stroke-linecap="butt" transform="matrix(1,0,0,1,-423,-188)" text-rendering="geometricPrecision" font-family="sans-serif" shape-rendering="geometricPrecision" stroke-miterlimit="1.45">
      <text x="576.2951" xml:space="preserve" y="220.2916" clip-path="url(#clipPath2)" stroke="none">A Provider</text>
      <rect x="438.3731" y="203.7897" clip-path="url(#clipPath2)" fill="none" width="350.6168" stroke-dasharray="6,2" rx="4" ry="4" height="296.332"/>
    </g>
    <g fill="rgb(225,225,225)" text-rendering="geometricPrecision" shape-rendering="geometricPrecision" transform="matrix(1,0,0,1,-423,-188)" stroke="rgb(225,225,225)">
      <rect x="453.3731" y="240.4557" clip-path="url(#clipPath2)" width="149.4146" rx="4" ry="4" height="241.7308" stroke="none"/>
      <rect x="453.3731" y="240.4557" clip-path="url(#clipPath2)" fill="rgb(235,235,235)" width="149.4146" height="21.666" stroke="none"/>
    </g>
    <g font-size="15px" stroke-linecap="butt" transform="matrix(1,0,0,1,-423,-188)" text-rendering="geometricPrecision" font-family="sans-serif" shape-rendering="geometricPrecision" stroke-miterlimit="1.45">
      <text x="502.724" xml:space="preserve" y="256.9576" clip-path="url(#clipPath2)" stroke="none">Service</text>
      <rect x="453.3731" y="240.4557" clip-path="url(#clipPath2)" fill="none" width="149.4146" stroke-dasharray="6,2" rx="4" ry="4" height="241.7308"/>
    </g>
    <g fill="url(#linearGradient3)" text-rendering="geometricPrecision" shape-rendering="geometricPrecision" transform="matrix(1,0,0,1,-423,-188)" stroke="url(#linearGradient3)">
      <path d="M468.3731 277.1217 L587.7877 277.1217 L587.7877 317.1217 L468.3731 317.1217 Z" stroke="none" clip-path="url(#clipPath2)"/>
    </g>
    <g text-rendering="geometricPrecision" stroke-miterlimit="1.45" shape-rendering="geometricPrecision" transform="matrix(1,0,0,1,-423,-188)" stroke-linecap="butt">
      <path fill="none" d="M468.3731 277.1217 L587.7877 277.1217 L587.7877 317.1217 L468.3731 317.1217 Z" clip-path="url(#clipPath2)"/>
      <text x="511.7474" xml:space="preserve" y="301.6569" clip-path="url(#clipPath2)" font-family="sans-serif" stroke="none">Entity</text>
    </g>
    <g fill="url(#linearGradient4)" text-rendering="geometricPrecision" shape-rendering="geometricPrecision" transform="matrix(1,0,0,1,-423,-188)" stroke="url(#linearGradient4)">
      <path d="M468.3731 336.6541 L587.7877 336.6541 L587.7877 376.6541 L468.3731 376.6541 Z" stroke="none" clip-path="url(#clipPath2)"/>
    </g>
    <g text-rendering="geometricPrecision" stroke-miterlimit="1.45" shape-rendering="geometricPrecision" transform="matrix(1,0,0,1,-423,-188)" stroke-linecap="butt">
      <path fill="none" d="M468.3731 336.6541 L587.7877 336.6541 L587.7877 376.6541 L468.3731 376.6541 Z" clip-path="url(#clipPath2)"/>
      <text x="511.7474" xml:space="preserve" y="361.1892" clip-path="url(#clipPath2)" font-family="sans-serif" stroke="none">Entity</text>
    </g>
    <g fill="url(#linearGradient5)" text-rendering="geometricPrecision" shape-rendering="geometricPrecision" transform="matrix(1,0,0,1,-423,-188)" stroke="url(#linearGradient5)">
      <path d="M468.3731 401.1865 L587.7877 401.1865 L587.7877 441.1865 L468.3731 441.1865 Z" stroke="none" clip-path="url(#clipPath2)"/>
    </g>
    <g text-rendering="geometricPrecision" stroke-miterlimit="1.45" shape-rendering="geometricPrecision" transform="matrix(1,0,0,1,-423,-188)" stroke-linecap="butt">
      <path fill="none" d="M468.3731 401.1865 L587.7877 401.1865 L587.7877 441.1865 L468.3731 441.1865 Z" clip-path="url(#clipPath2)"/>
      <text x="510.5785" xml:space="preserve" y="425.7216" clip-path="url(#clipPath2)" font-family="sans-serif" stroke="none">Wallet</text>
    </g>
    <g fill="rgb(225,225,225)" text-rendering="geometricPrecision" shape-rendering="geometricPrecision" transform="matrix(1,0,0,1,-423,-188)" stroke="rgb(225,225,225)">
      <rect x="617.7877" y="240.4557" clip-path="url(#clipPath2)" width="151.7877" rx="4" ry="4" height="160.7308" stroke="none"/>
      <rect x="617.7877" y="240.4557" clip-path="url(#clipPath2)" fill="rgb(235,235,235)" width="151.7877" height="21.666" stroke="none"/>
    </g>
    <g font-size="15px" stroke-linecap="butt" transform="matrix(1,0,0,1,-423,-188)" text-rendering="geometricPrecision" font-family="sans-serif" shape-rendering="geometricPrecision" stroke-miterlimit="1.45">
      <text x="668.3251" xml:space="preserve" y="256.9576" clip-path="url(#clipPath2)" stroke="none">Service</text>
      <rect x="617.7877" y="240.4557" clip-path="url(#clipPath2)" fill="none" width="151.7877" stroke-dasharray="6,2" rx="4" ry="4" height="160.7308"/>
    </g>
    <g fill="url(#linearGradient6)" text-rendering="geometricPrecision" shape-rendering="geometricPrecision" transform="matrix(1,0,0,1,-423,-188)" stroke="url(#linearGradient6)">
      <path d="M632.7877 277.1217 L752.2023 277.1217 L752.2023 317.1217 L632.7877 317.1217 Z" stroke="none" clip-path="url(#clipPath2)"/>
    </g>
    <g text-rendering="geometricPrecision" stroke-miterlimit="1.45" shape-rendering="geometricPrecision" transform="matrix(1,0,0,1,-423,-188)" stroke-linecap="butt">
      <path fill="none" d="M632.7877 277.1217 L752.2023 277.1217 L752.2023 317.1217 L632.7877 317.1217 Z" clip-path="url(#clipPath2)"/>
      <text x="676.162" xml:space="preserve" y="301.6569" clip-path="url(#clipPath2)" font-family="sans-serif" stroke="none">Entity</text>
    </g>
    <g fill="url(#linearGradient7)" text-rendering="geometricPrecision" shape-rendering="geometricPrecision" transform="matrix(1,0,0,1,-423,-188)" stroke="url(#linearGradient7)">
      <path d="M632.7877 336.6541 L752.2023 336.6541 L752.2023 376.6541 L632.7877 376.6541 Z" stroke="none" clip-path="url(#clipPath2)"/>
    </g>
    <g text-rendering="geometricPrecision" stroke-miterlimit="1.45" shape-rendering="geometricPrecision" transform="matrix(1,0,0,1,-423,-188)" stroke-linecap="butt">
      <path fill="none" d="M632.7877 336.6541 L752.2023 336.6541 L752.2023 376.6541 L632.7877 376.6541 Z" clip-path="url(#clipPath2)"/>
      <text x="674.993" xml:space="preserve" y="361.1892" clip-path="url(#clipPath2)" font-family="sans-serif" stroke="none">Wallet</text>
    </g>
  </g>
</svg>
