<svg xmlns="http://www.w3.org/2000/svg" xmlns:xlink="http://www.w3.org/1999/xlink" contentStyleType="text/css" height="654px" preserveAspectRatio="none" style="width:397px;height:654px;background:#FFFFFF;" version="1.1" viewBox="0 0 397 654" width="397px" zoomAndPan="magnify"><defs/><g><rect fill="none" height="432.2031" style="stroke:#000000;stroke-width:1.5;" width="380.8837" x="10" y="111.5625"/><line style="stroke:#181818;stroke-width:0.5;stroke-dasharray:5.0,5.0;" x1="63" x2="63" y1="36.2969" y2="619.0313"/><line style="stroke:#181818;stroke-width:0.5;stroke-dasharray:5.0,5.0;" x1="216.6581" x2="216.6581" y1="36.2969" y2="619.0313"/><rect fill="#E2E2F0" height="30.2969" rx="2.5" ry="2.5" style="stroke:#181818;stroke-width:0.5;" width="86.3311" x="20" y="5"/><text fill="#000000" font-family="sans-serif" font-size="14" lengthAdjust="spacing" textLength="72.3311" x="27" y="24.9951">Client App</text><rect fill="#E2E2F0" height="30.2969" rx="2.5" ry="2.5" style="stroke:#181818;stroke-width:0.5;" width="86.3311" x="20" y="618.0313"/><text fill="#000000" font-family="sans-serif" font-size="14" lengthAdjust="spacing" textLength="72.3311" x="27" y="638.0264">Client App</text><rect fill="#E2E2F0" height="30.2969" rx="2.5" ry="2.5" style="stroke:#181818;stroke-width:0.5;" width="91.376" x="171.6581" y="5"/><text fill="#000000" font-family="sans-serif" font-size="14" lengthAdjust="spacing" textLength="77.376" x="178.6581" y="24.9951">TAS Server</text><rect fill="#E2E2F0" height="30.2969" rx="2.5" ry="2.5" style="stroke:#181818;stroke-width:0.5;" width="91.376" x="171.6581" y="618.0313"/><text fill="#000000" font-family="sans-serif" font-size="14" lengthAdjust="spacing" textLength="77.376" x="178.6581" y="638.0264">TAS Server</text><line style="stroke:#181818;stroke-width:1.0;" x1="215.3461" x2="205.3461" y1="67.4297" y2="63.4297"/><line style="stroke:#181818;stroke-width:1.0;" x1="215.3461" x2="205.3461" y1="67.4297" y2="71.4297"/><line style="stroke:#181818;stroke-width:1.0;" x1="63.1655" x2="216.3461" y1="67.4297" y2="67.4297"/><text fill="#000000" font-family="sans-serif" font-size="13" lengthAdjust="spacing" textLength="101.3952" x="70.1655" y="62.3638">PII &#46321;&#47197; &#50836;&#52397; (PII)</text><line style="stroke:#181818;stroke-width:1.0;" x1="64.1655" x2="74.1655" y1="96.5625" y2="92.5625"/><line style="stroke:#181818;stroke-width:1.0;" x1="64.1655" x2="74.1655" y1="96.5625" y2="100.5625"/><line style="stroke:#181818;stroke-width:1.0;stroke-dasharray:2.0,2.0;" x1="63.1655" x2="216.3461" y1="96.5625" y2="96.5625"/><text fill="#000000" font-family="sans-serif" font-size="13" lengthAdjust="spacing" textLength="130.1806" x="80.1655" y="91.4966">&#44208;&#44284; &#51204;&#45804; (&#44592;&#46321;&#47197; &#50668;&#48512;)</text><path d="M10,111.5625 L74.4429,111.5625 L74.4429,118.6953 L64.4429,128.6953 L10,128.6953 L10,111.5625 " fill="#EEEEEE" style="stroke:#000000;stroke-width:1.5;"/><rect fill="none" height="432.2031" style="stroke:#000000;stroke-width:1.5;" width="380.8837" x="10" y="111.5625"/><text fill="#000000" font-family="sans-serif" font-size="13" font-weight="bold" lengthAdjust="spacing" textLength="19.4429" x="25" y="124.6294">alt</text><text fill="#000000" font-family="sans-serif" font-size="11" font-weight="bold" lengthAdjust="spacing" textLength="122.7426" x="89.4429" y="123.7729">[&#44592;&#51316; &#50900;&#47131; &#49324;&#50857;&#54616;&#45716; &#44221;&#50864;]</text><line style="stroke:#181818;stroke-width:1.0;" x1="215.3461" x2="205.3461" y1="149.8281" y2="145.8281"/><line style="stroke:#181818;stroke-width:1.0;" x1="215.3461" x2="205.3461" y1="149.8281" y2="153.8281"/><line style="stroke:#181818;stroke-width:1.0;" x1="63.1655" x2="216.3461" y1="149.8281" y2="149.8281"/><text fill="#000000" font-family="sans-serif" font-size="13" lengthAdjust="spacing" textLength="108.077" x="70.1655" y="144.7622">&#44592;&#51316; &#50900;&#47131; &#49324;&#50857; &#50836;&#52397;</text><line style="stroke:#181818;stroke-width:1.0;" x1="217.3461" x2="259.3461" y1="178.9609" y2="178.9609"/><line style="stroke:#181818;stroke-width:1.0;" x1="259.3461" x2="259.3461" y1="178.9609" y2="191.9609"/><line style="stroke:#181818;stroke-width:1.0;" x1="218.3461" x2="259.3461" y1="191.9609" y2="191.9609"/><polygon fill="#181818" points="228.3461,187.9609,218.3461,191.9609,228.3461,195.9609,224.3461,191.9609" style="stroke:#181818;stroke-width:1.0;"/><text fill="#000000" font-family="sans-serif" font-size="13" lengthAdjust="spacing" textLength="122.3529" x="224.3461" y="173.895">&#51221;&#48372; &#44081;&#49888; (&#49324;&#50857;&#51088;, &#50545;)</text><line style="stroke:#181818;stroke-width:1.0;" x1="64.1655" x2="74.1655" y1="221.0938" y2="217.0938"/><line style="stroke:#181818;stroke-width:1.0;" x1="64.1655" x2="74.1655" y1="221.0938" y2="225.0938"/><line style="stroke:#181818;stroke-width:1.0;stroke-dasharray:2.0,2.0;" x1="63.1655" x2="216.3461" y1="221.0938" y2="221.0938"/><text fill="#000000" font-family="sans-serif" font-size="13" lengthAdjust="spacing" textLength="18.7573" x="80.1655" y="216.0278">OK</text><line style="stroke:#000000;stroke-width:1.0;stroke-dasharray:2.0,2.0;" x1="10" x2="390.8837" y1="230.0938" y2="230.0938"/><text fill="#000000" font-family="sans-serif" font-size="11" font-weight="bold" lengthAdjust="spacing" textLength="196.2438" x="15" y="240.3042">[&#49352;&#47196;&#50868; &#50900;&#47131; &#46321;&#47197;&#54616;&#45716; &#44221;&#50864; (1&#51064; 1&#45800;&#47568;)]</text><line style="stroke:#181818;stroke-width:1.0;" x1="215.3461" x2="205.3461" y1="265.0313" y2="261.0313"/><line style="stroke:#181818;stroke-width:1.0;" x1="215.3461" x2="205.3461" y1="265.0313" y2="269.0313"/><line style="stroke:#181818;stroke-width:1.0;" x1="63.1655" x2="216.3461" y1="265.0313" y2="265.0313"/><text fill="#000000" font-family="sans-serif" font-size="13" lengthAdjust="spacing" textLength="105.0705" x="70.1655" y="259.9653">DIDDoc &#46321;&#47197; &#50836;&#52397;</text><line style="stroke:#181818;stroke-width:1.0;" x1="217.3461" x2="259.3461" y1="294.1641" y2="294.1641"/><line style="stroke:#181818;stroke-width:1.0;" x1="259.3461" x2="259.3461" y1="294.1641" y2="307.1641"/><line style="stroke:#181818;stroke-width:1.0;" x1="218.3461" x2="259.3461" y1="307.1641" y2="307.1641"/><polygon fill="#181818" points="228.3461,303.1641,218.3461,307.1641,228.3461,311.1641,224.3461,307.1641" style="stroke:#181818;stroke-width:1.0;"/><text fill="#000000" font-family="sans-serif" font-size="13" lengthAdjust="spacing" textLength="137.2552" x="224.3461" y="289.0981">&#44592;&#51316; &#50900;&#47131;, DIDDoc &#54224;&#44592;</text><line style="stroke:#181818;stroke-width:1.0;" x1="217.3461" x2="259.3461" y1="336.2969" y2="336.2969"/><line style="stroke:#181818;stroke-width:1.0;" x1="259.3461" x2="259.3461" y1="336.2969" y2="349.2969"/><line style="stroke:#181818;stroke-width:1.0;" x1="218.3461" x2="259.3461" y1="349.2969" y2="349.2969"/><polygon fill="#181818" points="228.3461,345.2969,218.3461,349.2969,228.3461,353.2969,224.3461,349.2969" style="stroke:#181818;stroke-width:1.0;"/><text fill="#000000" font-family="sans-serif" font-size="13" lengthAdjust="spacing" textLength="154.5376" x="224.3461" y="331.231">&#51221;&#48372; &#44081;&#49888; (&#49324;&#50857;&#51088;, &#50900;&#47131;, &#50545;)</text><line style="stroke:#181818;stroke-width:1.0;" x1="64.1655" x2="74.1655" y1="378.4297" y2="374.4297"/><line style="stroke:#181818;stroke-width:1.0;" x1="64.1655" x2="74.1655" y1="378.4297" y2="382.4297"/><line style="stroke:#181818;stroke-width:1.0;stroke-dasharray:2.0,2.0;" x1="63.1655" x2="216.3461" y1="378.4297" y2="378.4297"/><text fill="#000000" font-family="sans-serif" font-size="13" lengthAdjust="spacing" textLength="18.7573" x="80.1655" y="373.3638">OK</text><line style="stroke:#000000;stroke-width:1.0;stroke-dasharray:2.0,2.0;" x1="10" x2="390.8837" y1="387.4297" y2="387.4297"/><text fill="#000000" font-family="sans-serif" font-size="11" font-weight="bold" lengthAdjust="spacing" textLength="198.7099" x="15" y="397.6401">[&#49352;&#47196;&#50868; &#50900;&#47131; &#46321;&#47197;&#54616;&#45716; &#44221;&#50864; (1&#51064; &#45796;&#45800;&#47568;)]</text><line style="stroke:#181818;stroke-width:1.0;" x1="215.3461" x2="205.3461" y1="422.3672" y2="418.3672"/><line style="stroke:#181818;stroke-width:1.0;" x1="215.3461" x2="205.3461" y1="422.3672" y2="426.3672"/><line style="stroke:#181818;stroke-width:1.0;" x1="63.1655" x2="216.3461" y1="422.3672" y2="422.3672"/><text fill="#000000" font-family="sans-serif" font-size="13" lengthAdjust="spacing" textLength="105.0705" x="70.1655" y="417.3013">DIDDoc &#46321;&#47197; &#50836;&#52397;</text><line style="stroke:#181818;stroke-width:1.0;" x1="217.3461" x2="259.3461" y1="451.5" y2="451.5"/><line style="stroke:#181818;stroke-width:1.0;" x1="259.3461" x2="259.3461" y1="451.5" y2="464.5"/><line style="stroke:#181818;stroke-width:1.0;" x1="218.3461" x2="259.3461" y1="464.5" y2="464.5"/><polygon fill="#181818" points="228.3461,460.5,218.3461,464.5,228.3461,468.5,224.3461,464.5" style="stroke:#181818;stroke-width:1.0;"/><text fill="#000000" font-family="sans-serif" font-size="13" lengthAdjust="spacing" textLength="137.2552" x="224.3461" y="446.4341">&#44592;&#51316; &#50900;&#47131;, DIDDoc &#54224;&#44592;</text><line style="stroke:#181818;stroke-width:1.0;" x1="217.3461" x2="259.3461" y1="493.6328" y2="493.6328"/><line style="stroke:#181818;stroke-width:1.0;" x1="259.3461" x2="259.3461" y1="493.6328" y2="506.6328"/><line style="stroke:#181818;stroke-width:1.0;" x1="218.3461" x2="259.3461" y1="506.6328" y2="506.6328"/><polygon fill="#181818" points="228.3461,502.6328,218.3461,506.6328,228.3461,510.6328,224.3461,506.6328" style="stroke:#181818;stroke-width:1.0;"/><text fill="#000000" font-family="sans-serif" font-size="13" lengthAdjust="spacing" textLength="154.5376" x="224.3461" y="488.5669">&#51221;&#48372; &#44081;&#49888; (&#49324;&#50857;&#51088;, &#50900;&#47131;, &#50545;)</text><line style="stroke:#181818;stroke-width:1.0;" x1="64.1655" x2="74.1655" y1="535.7656" y2="531.7656"/><line style="stroke:#181818;stroke-width:1.0;" x1="64.1655" x2="74.1655" y1="535.7656" y2="539.7656"/><line style="stroke:#181818;stroke-width:1.0;stroke-dasharray:2.0,2.0;" x1="63.1655" x2="216.3461" y1="535.7656" y2="535.7656"/><text fill="#000000" font-family="sans-serif" font-size="13" lengthAdjust="spacing" textLength="18.7573" x="80.1655" y="530.6997">OK</text><line style="stroke:#181818;stroke-width:1.0;" x1="215.3461" x2="205.3461" y1="571.8984" y2="567.8984"/><line style="stroke:#181818;stroke-width:1.0;" x1="215.3461" x2="205.3461" y1="571.8984" y2="575.8984"/><line style="stroke:#181818;stroke-width:1.0;" x1="63.1655" x2="216.3461" y1="571.8984" y2="571.8984"/><text fill="#000000" font-family="sans-serif" font-size="13" lengthAdjust="spacing" textLength="51.9724" x="70.1655" y="566.8325">&#54869;&#51064; &#50836;&#52397;</text><line style="stroke:#181818;stroke-width:1.0;" x1="64.1655" x2="74.1655" y1="601.0313" y2="597.0313"/><line style="stroke:#181818;stroke-width:1.0;" x1="64.1655" x2="74.1655" y1="601.0313" y2="605.0313"/><line style="stroke:#181818;stroke-width:1.0;stroke-dasharray:2.0,2.0;" x1="63.1655" x2="216.3461" y1="601.0313" y2="601.0313"/><text fill="#000000" font-family="sans-serif" font-size="13" lengthAdjust="spacing" textLength="18.7573" x="80.1655" y="595.9653">OK</text><!--SRC=[rP8nIyD068Rt-nKVcH9eXwuT2iKimK6X_e5GCmH2FTBWBEeWPZ1WWffQIK1G8KBI5kcWVoZtvJzuboRMs2w2YxVTlU_xtVCUHtNRCOScrKSEw9I2FWPfnp8DlkrJAX7wJNUuAFI3_W06Xdris18X8jJkzKgn2_kQ1kmwO_4KCFHnzWeoFrA8KDl29knTo6TfFdy7ZCwPcu2SBzCwT9EmjnE5ZxKSuCSOBm0dFeicWAS9XYz5SCikVJxW0yEK05zDW6sP2gLqbo2r6QE0pHUGfncw4SWhDpvuBS0WKzR-DVZUBZ6iiG5uTi7YUmo_RbhnD-X0xk1q2HtcFhCdJza2gsggUZHiFjWcPQDIgmuLLnuNVjMf6l27tPZx-9_QZGv__jVYBX0zAhYDo2S0]--></g></svg>