<?xml version="1.0" encoding="us-ascii" standalone="no"?><svg xmlns="http://www.w3.org/2000/svg" xmlns:xlink="http://www.w3.org/1999/xlink" contentStyleType="text/css" height="676px" preserveAspectRatio="none" style="width:1006px;height:676px;background:#FFFFFF;" version="1.1" viewBox="0 0 1006 676" width="1006px" zoomAndPan="magnify"><defs/><g><text fill="#000000" font-family="sans-serif" font-size="25" font-weight="bold" lengthAdjust="spacing" textLength="140" x="435.25" y="39.1699">&#49436;&#48260;&#53664;&#53360; &#49373;&#49457;</text><rect fill="#FFFFFF" height="29.3105" style="stroke:#181818;stroke-width:1.0;" width="10" x="34.5" y="134.7305"/><rect fill="#FFFFFF" height="29.3105" style="stroke:#181818;stroke-width:1.0;" width="10" x="614.5" y="193.3516"/><rect fill="#FFFFFF" height="198.5527" style="stroke:#181818;stroke-width:1.0;" width="10" x="705.5" y="294.2832"/><line style="stroke:#181818;stroke-width:0.5;stroke-dasharray:5.0,5.0;" x1="39" x2="39" y1="103.4199" y2="624.7676"/><line style="stroke:#181818;stroke-width:0.5;stroke-dasharray:5.0,5.0;" x1="222.5" x2="222.5" y1="103.4199" y2="624.7676"/><line style="stroke:#181818;stroke-width:0.5;stroke-dasharray:5.0,5.0;" x1="619" x2="619" y1="103.4199" y2="624.7676"/><line style="stroke:#181818;stroke-width:0.5;stroke-dasharray:5.0,5.0;" x1="710" x2="710" y1="103.4199" y2="624.7676"/><rect fill="#E2E2F0" height="46.9766" rx="2.5" ry="2.5" style="stroke:#181818;stroke-width:0.5;" width="69" x="5" y="55.4434"/><text fill="#000000" font-family="sans-serif" font-size="14" font-style="italic" lengthAdjust="spacing" textLength="55" x="12" y="75.9785">&#171;Wallet&#187;</text><text fill="#000000" font-family="sans-serif" font-size="14" font-weight="bold" lengthAdjust="spacing" textLength="24" x="27.5" y="92.4668">&#50900;&#47131;</text><rect fill="#E2E2F0" height="46.9766" rx="2.5" ry="2.5" style="stroke:#181818;stroke-width:0.5;" width="69" x="5" y="623.7676"/><text fill="#000000" font-family="sans-serif" font-size="14" font-style="italic" lengthAdjust="spacing" textLength="55" x="12" y="644.3027">&#171;Wallet&#187;</text><text fill="#000000" font-family="sans-serif" font-size="14" font-weight="bold" lengthAdjust="spacing" textLength="24" x="27.5" y="660.791">&#50900;&#47131;</text><rect fill="#E2E2F0" height="46.9766" rx="2.5" ry="2.5" style="stroke:#181818;stroke-width:0.5;" width="56" x="194.5" y="55.4434"/><text fill="#000000" font-family="sans-serif" font-size="14" font-style="italic" lengthAdjust="spacing" textLength="42" x="201.5" y="75.9785">&#171;App&#187;</text><text fill="#000000" font-family="sans-serif" font-size="14" font-weight="bold" lengthAdjust="spacing" textLength="36" x="204.5" y="92.4668">&#51064;&#44032;&#50545;</text><rect fill="#E2E2F0" height="46.9766" rx="2.5" ry="2.5" style="stroke:#181818;stroke-width:0.5;" width="56" x="194.5" y="623.7676"/><text fill="#000000" font-family="sans-serif" font-size="14" font-style="italic" lengthAdjust="spacing" textLength="42" x="201.5" y="644.3027">&#171;App&#187;</text><text fill="#000000" font-family="sans-serif" font-size="14" font-weight="bold" lengthAdjust="spacing" textLength="36" x="204.5" y="660.791">&#51064;&#44032;&#50545;</text><rect fill="#E2E2F0" height="46.9766" rx="2.5" ry="2.5" style="stroke:#181818;stroke-width:0.5;" width="91" x="574" y="55.4434"/><text fill="#000000" font-family="sans-serif" font-size="14" font-style="italic" lengthAdjust="spacing" textLength="57" x="591" y="75.9785">&#171;Server&#187;</text><text fill="#000000" font-family="sans-serif" font-size="14" font-weight="bold" lengthAdjust="spacing" textLength="77" x="581" y="92.4668">&#51064;&#44032;&#50545; &#49436;&#48708;&#49828;</text><rect fill="#E2E2F0" height="46.9766" rx="2.5" ry="2.5" style="stroke:#181818;stroke-width:0.5;" width="91" x="574" y="623.7676"/><text fill="#000000" font-family="sans-serif" font-size="14" font-style="italic" lengthAdjust="spacing" textLength="57" x="591" y="644.3027">&#171;Server&#187;</text><text fill="#000000" font-family="sans-serif" font-size="14" font-weight="bold" lengthAdjust="spacing" textLength="77" x="581" y="660.791">&#51064;&#44032;&#50545; &#49436;&#48708;&#49828;</text><rect fill="#E2E2F0" height="46.9766" rx="2.5" ry="2.5" style="stroke:#181818;stroke-width:0.5;" width="71" x="675" y="55.4434"/><text fill="#000000" font-family="sans-serif" font-size="14" font-style="italic" lengthAdjust="spacing" textLength="57" x="682" y="75.9785">&#171;Server&#187;</text><text fill="#000000" font-family="sans-serif" font-size="14" font-weight="bold" lengthAdjust="spacing" textLength="20" x="700.5" y="92.4668">TA</text><rect fill="#E2E2F0" height="46.9766" rx="2.5" ry="2.5" style="stroke:#181818;stroke-width:0.5;" width="71" x="675" y="623.7676"/><text fill="#000000" font-family="sans-serif" font-size="14" font-style="italic" lengthAdjust="spacing" textLength="57" x="682" y="644.3027">&#171;Server&#187;</text><text fill="#000000" font-family="sans-serif" font-size="14" font-weight="bold" lengthAdjust="spacing" textLength="20" x="700.5" y="660.791">TA</text><rect fill="#FFFFFF" height="29.3105" style="stroke:#181818;stroke-width:1.0;" width="10" x="34.5" y="134.7305"/><rect fill="#FFFFFF" height="29.3105" style="stroke:#181818;stroke-width:1.0;" width="10" x="614.5" y="193.3516"/><rect fill="#FFFFFF" height="198.5527" style="stroke:#181818;stroke-width:1.0;" width="10" x="705.5" y="294.2832"/><polygon fill="#181818" points="55.5,130.7305,45.5,134.7305,55.5,138.7305,51.5,134.7305" style="stroke:#181818;stroke-width:1.0;"/><line style="stroke:#181818;stroke-width:1.0;" x1="49.5" x2="221.5" y1="134.7305" y2="134.7305"/><text fill="#000000" font-family="sans-serif" font-size="13" font-weight="bold" lengthAdjust="spacing" textLength="19" x="61.5" y="129.9883">(1)</text><text fill="#000000" font-family="sans-serif" font-size="13" lengthAdjust="spacing" textLength="131" x="84.5" y="129.9883">SignedWalletInfo &#50836;&#52397;</text><polygon fill="#181818" points="210.5,160.041,220.5,164.041,210.5,168.041,214.5,164.041" style="stroke:#181818;stroke-width:1.0;"/><line style="stroke:#181818;stroke-width:1.0;stroke-dasharray:2.0,2.0;" x1="39.5" x2="216.5" y1="164.041" y2="164.041"/><text fill="#000000" font-family="sans-serif" font-size="13" font-weight="bold" lengthAdjust="spacing" textLength="19" x="46.5" y="159.2988">(2)</text><text fill="#000000" font-family="sans-serif" font-size="13" lengthAdjust="spacing" textLength="131" x="69.5" y="159.2988">SignedWalletInfo &#51204;&#45804;</text><polygon fill="#181818" points="602.5,189.3516,612.5,193.3516,602.5,197.3516,606.5,193.3516" style="stroke:#181818;stroke-width:1.0;"/><line style="stroke:#181818;stroke-width:1.0;" x1="222.5" x2="608.5" y1="193.3516" y2="193.3516"/><text fill="#000000" font-family="sans-serif" font-size="13" font-weight="bold" lengthAdjust="spacing" textLength="19" x="229.5" y="188.6094">(3)</text><text fill="#000000" font-family="sans-serif" font-size="13" lengthAdjust="spacing" textLength="129" x="252.5" y="188.6094">AttestedAppInfo &#50836;&#52397;</text><polygon fill="#181818" points="233.5,218.6621,223.5,222.6621,233.5,226.6621,229.5,222.6621" style="stroke:#181818;stroke-width:1.0;"/><line style="stroke:#181818;stroke-width:1.0;stroke-dasharray:2.0,2.0;" x1="227.5" x2="618.5" y1="222.6621" y2="222.6621"/><text fill="#000000" font-family="sans-serif" font-size="13" font-weight="bold" lengthAdjust="spacing" textLength="19" x="239.5" y="217.9199">(4)</text><text fill="#000000" font-family="sans-serif" font-size="13" lengthAdjust="spacing" textLength="129" x="262.5" y="217.9199">AttestedAppInfo &#51204;&#45804;</text><line style="stroke:#181818;stroke-width:1.0;" x1="222.5" x2="264.5" y1="251.9727" y2="251.9727"/><line style="stroke:#181818;stroke-width:1.0;" x1="264.5" x2="264.5" y1="251.9727" y2="264.9727"/><line style="stroke:#181818;stroke-width:1.0;" x1="223.5" x2="264.5" y1="264.9727" y2="264.9727"/><polygon fill="#181818" points="233.5,260.9727,223.5,264.9727,233.5,268.9727,229.5,264.9727" style="stroke:#181818;stroke-width:1.0;"/><text fill="#000000" font-family="sans-serif" font-size="13" font-weight="bold" lengthAdjust="spacing" textLength="19" x="229.5" y="247.2305">(5)</text><text fill="#000000" font-family="sans-serif" font-size="13" lengthAdjust="spacing" textLength="360" x="252.5" y="247.2305">ServerTokenSeed &#49373;&#49457; (SignedWalletInfo, AttestedAppInfo)</text><polygon fill="#181818" points="693.5,290.2832,703.5,294.2832,693.5,298.2832,697.5,294.2832" style="stroke:#181818;stroke-width:1.0;"/><line style="stroke:#181818;stroke-width:1.0;" x1="222.5" x2="699.5" y1="294.2832" y2="294.2832"/><text fill="#000000" font-family="sans-serif" font-size="13" font-weight="bold" lengthAdjust="spacing" textLength="19" x="229.5" y="289.541">(6)</text><text fill="#000000" font-family="sans-serif" font-size="13" lengthAdjust="spacing" textLength="247" x="252.5" y="289.541">ServerToken &#49373;&#49457; &#50836;&#52397; (ServerTokenSeed)</text><line style="stroke:#181818;stroke-width:1.0;" x1="715.5" x2="757.5" y1="323.5938" y2="323.5938"/><line style="stroke:#181818;stroke-width:1.0;" x1="757.5" x2="757.5" y1="323.5938" y2="336.5938"/><line style="stroke:#181818;stroke-width:1.0;" x1="716.5" x2="757.5" y1="336.5938" y2="336.5938"/><polygon fill="#181818" points="726.5,332.5938,716.5,336.5938,726.5,340.5938,722.5,336.5938" style="stroke:#181818;stroke-width:1.0;"/><text fill="#000000" font-family="sans-serif" font-size="13" font-weight="bold" lengthAdjust="spacing" textLength="19" x="722.5" y="318.8516">(7)</text><text fill="#000000" font-family="sans-serif" font-size="13" lengthAdjust="spacing" textLength="250" x="745.5" y="318.8516">ServerTokenData &#49373;&#49457; (ServerTokenSeed)</text><line style="stroke:#181818;stroke-width:1.0;" x1="715.5" x2="757.5" y1="365.9043" y2="365.9043"/><line style="stroke:#181818;stroke-width:1.0;" x1="757.5" x2="757.5" y1="365.9043" y2="378.9043"/><line style="stroke:#181818;stroke-width:1.0;" x1="716.5" x2="757.5" y1="378.9043" y2="378.9043"/><polygon fill="#181818" points="726.5,374.9043,716.5,378.9043,726.5,382.9043,722.5,378.9043" style="stroke:#181818;stroke-width:1.0;"/><text fill="#000000" font-family="sans-serif" font-size="13" font-weight="bold" lengthAdjust="spacing" textLength="19" x="722.5" y="361.1621">(8)</text><text fill="#000000" font-family="sans-serif" font-size="13" lengthAdjust="spacing" textLength="221" x="745.5" y="361.1621">ServerToken &#49373;&#49457; (ServerTokenData)</text><line style="stroke:#181818;stroke-width:1.0;" x1="715.5" x2="757.5" y1="408.2148" y2="408.2148"/><line style="stroke:#181818;stroke-width:1.0;" x1="757.5" x2="757.5" y1="408.2148" y2="421.2148"/><line style="stroke:#181818;stroke-width:1.0;" x1="716.5" x2="757.5" y1="421.2148" y2="421.2148"/><polygon fill="#181818" points="726.5,417.2148,716.5,421.2148,726.5,425.2148,722.5,421.2148" style="stroke:#181818;stroke-width:1.0;"/><text fill="#000000" font-family="sans-serif" font-size="13" font-weight="bold" lengthAdjust="spacing" textLength="19" x="722.5" y="403.4727">(9)</text><text fill="#000000" font-family="sans-serif" font-size="13" lengthAdjust="spacing" textLength="38" x="745.5" y="403.4727">IV &#49373;&#49457;</text><line style="stroke:#181818;stroke-width:1.0;" x1="715.5" x2="757.5" y1="450.5254" y2="450.5254"/><line style="stroke:#181818;stroke-width:1.0;" x1="757.5" x2="757.5" y1="450.5254" y2="463.5254"/><line style="stroke:#181818;stroke-width:1.0;" x1="716.5" x2="757.5" y1="463.5254" y2="463.5254"/><polygon fill="#181818" points="726.5,459.5254,716.5,463.5254,726.5,467.5254,722.5,463.5254" style="stroke:#181818;stroke-width:1.0;"/><text fill="#000000" font-family="sans-serif" font-size="13" font-weight="bold" lengthAdjust="spacing" textLength="28" x="722.5" y="445.7832">(10)</text><text fill="#000000" font-family="sans-serif" font-size="13" lengthAdjust="spacing" textLength="245" x="754.5" y="445.7832">ServerTokenData &#50516;&#54840;&#54868; (SessionKey, IV)</text><path d="M340,437.7148 L340,462.7148 L700,462.7148 L700,447.7148 L690,437.7148 L340,437.7148 " fill="#FEFFDD" style="stroke:#181818;stroke-width:0.5;"/><path d="M690,437.7148 L690,447.7148 L700,447.7148 L690,437.7148 " fill="#FEFFDD" style="stroke:#181818;stroke-width:0.5;"/><text fill="#000000" font-family="sans-serif" font-size="13" lengthAdjust="spacing" textLength="339" x="346" y="455.2832">TA&#50752; &#51064;&#44032;&#50545;&#51008; &#49436;&#48260;&#53664;&#53360; &#48156;&#44553; &#51204;&#50640; &#51060;&#48120; &#49464;&#49496;&#53412;&#47484; &#44368;&#54872;&#54620; &#49345;&#53468;&#51060;&#45796;.</text><polygon fill="#181818" points="233.5,488.8359,223.5,492.8359,233.5,496.8359,229.5,492.8359" style="stroke:#181818;stroke-width:1.0;"/><line style="stroke:#181818;stroke-width:1.0;stroke-dasharray:2.0,2.0;" x1="227.5" x2="709.5" y1="492.8359" y2="492.8359"/><text fill="#000000" font-family="sans-serif" font-size="13" font-weight="bold" lengthAdjust="spacing" textLength="28" x="239.5" y="488.0938">(11)</text><text fill="#000000" font-family="sans-serif" font-size="13" lengthAdjust="spacing" textLength="204" x="271.5" y="488.0938">&#50516;&#54840;&#54868;&#46108; ServerTokenData &#51204;&#45804; (IV)</text><line style="stroke:#181818;stroke-width:1.0;" x1="222.5" x2="264.5" y1="522.1465" y2="522.1465"/><line style="stroke:#181818;stroke-width:1.0;" x1="264.5" x2="264.5" y1="522.1465" y2="535.1465"/><line style="stroke:#181818;stroke-width:1.0;" x1="223.5" x2="264.5" y1="535.1465" y2="535.1465"/><polygon fill="#181818" points="233.5,531.1465,223.5,535.1465,233.5,539.1465,229.5,535.1465" style="stroke:#181818;stroke-width:1.0;"/><text fill="#000000" font-family="sans-serif" font-size="13" font-weight="bold" lengthAdjust="spacing" textLength="28" x="229.5" y="517.4043">(12)</text><text fill="#000000" font-family="sans-serif" font-size="13" lengthAdjust="spacing" textLength="143" x="261.5" y="517.4043">ServerTokenData &#48373;&#54840;&#54868;</text><line style="stroke:#181818;stroke-width:1.0;" x1="222.5" x2="264.5" y1="564.457" y2="564.457"/><line style="stroke:#181818;stroke-width:1.0;" x1="264.5" x2="264.5" y1="564.457" y2="577.457"/><line style="stroke:#181818;stroke-width:1.0;" x1="223.5" x2="264.5" y1="577.457" y2="577.457"/><polygon fill="#181818" points="233.5,573.457,223.5,577.457,233.5,581.457,229.5,577.457" style="stroke:#181818;stroke-width:1.0;"/><text fill="#000000" font-family="sans-serif" font-size="13" font-weight="bold" lengthAdjust="spacing" textLength="28" x="229.5" y="559.7148">(13)</text><text fill="#000000" font-family="sans-serif" font-size="13" lengthAdjust="spacing" textLength="221" x="261.5" y="559.7148">ServerToken &#49373;&#49457; (ServerTokenData)</text><polygon fill="#181818" points="698.5,602.7676,708.5,606.7676,698.5,610.7676,702.5,606.7676" style="stroke:#181818;stroke-width:1.0;"/><line style="stroke:#181818;stroke-width:1.0;" x1="222.5" x2="704.5" y1="606.7676" y2="606.7676"/><text fill="#000000" font-family="sans-serif" font-size="13" font-weight="bold" lengthAdjust="spacing" textLength="28" x="229.5" y="602.0254">(14)</text><text fill="#000000" font-family="sans-serif" font-size="13" lengthAdjust="spacing" textLength="161" x="261.5" y="602.0254">TA &#50836;&#52397;&#49884; ServerToken &#51228;&#52636;</text><!--SRC=[ZPBDJi9058NNpbFSu0PGD35nGvecJTmObn1T3p2QnjesTDJe2hIQA1iM445BmW9t6l4tDV69wFGTdAbZ-GrXstxdt7Fk7QfJWw0bnT7FINPZKsMk5xovuNKthFQ1NNQO-wgiYvyg8cO9Q8GZ6vUfNjHjR598fDFieH5q7zBf1607Jh41YhA73ODGLPr2E_wWNs7DLqaNCOSrsvv3WiZqxRBRNgonkIX7oYUaFAtBQnAZU9J2nzGoZuyAf0m9fQ0cbrFAUa5D8CGJP5IHUcKb2pdzm2Ibl_3Rvhu5xBx1tfu1YLOPpXLn9ZCBwxf1xKbwyNp2IwEKE9IKUBiHAoJI3vsce74ZFYegaBSEYPaZf2Hl0id92AkJLYbfGd5KR6ZpRo6h9IScf12LkZ7L5kQVu-4BIMRXmcOKtzwLrBofpKROyiDsGpWvZcwPE-HibKjJoBGe0OFiqopaDTQkGFngMAS2Ouyvw7i3_qOicDtLEVSHlFYSyDbLAxpe1Oy_CFYiX-rMsFHuf6fuwGccrbkBaiK7YyC4TMywQNGzI8feCqyOKS7xvvz5pC22Uol6Eyfhydwiverhknxxyj0l]--></g></svg>