<?xml version="1.0" encoding="us-ascii" standalone="no"?><svg xmlns="http://www.w3.org/2000/svg" xmlns:xlink="http://www.w3.org/1999/xlink" contentStyleType="text/css" height="460px" preserveAspectRatio="none" style="width:823px;height:460px;background:#FFFFFF;" version="1.1" viewBox="0 0 823 460" width="823px" zoomAndPan="magnify"><defs/><g><rect fill="none" height="21.1992" style="stroke:none;stroke-width:1.0;" width="790" x="15" y="12.2969"/><ellipse cx="153.5" cy="48.4961" fill="#222222" rx="10" ry="10" style="stroke:#222222;stroke-width:1.0;"/><rect fill="#F1F1F1" height="34.1328" rx="12.5" ry="12.5" style="stroke:#181818;stroke-width:0.5;" width="117" x="95" y="78.4961"/><text fill="#000000" font-family="sans-serif" font-size="12" font-weight="bold" lengthAdjust="spacing" textLength="20" x="105" y="100.0977">A1.</text><text fill="#000000" font-family="sans-serif" font-size="12" lengthAdjust="spacing" textLength="73" x="129" y="100.0977">Define Claim</text><rect fill="#F1F1F1" height="34.1328" rx="12.5" ry="12.5" style="stroke:#181818;stroke-width:0.5;" width="220" x="43.5" y="132.6289"/><text fill="#000000" font-family="sans-serif" font-size="12" font-weight="bold" lengthAdjust="spacing" textLength="20" x="53.5" y="154.2305">A2.</text><text fill="#000000" font-family="sans-serif" font-size="12" lengthAdjust="spacing" textLength="176" x="77.5" y="154.2305">Define and Publish VC Schema</text><rect fill="#F1F1F1" height="34.1328" rx="12.5" ry="12.5" style="stroke:#181818;stroke-width:0.5;" width="159" x="74" y="186.7617"/><text fill="#000000" font-family="sans-serif" font-size="12" font-weight="bold" lengthAdjust="spacing" textLength="20" x="84" y="208.3633">A3.</text><text fill="#000000" font-family="sans-serif" font-size="12" lengthAdjust="spacing" textLength="115" x="108" y="208.3633">Select Plan Manager</text><rect fill="#F1F1F1" height="34.1328" rx="12.5" ry="12.5" style="stroke:#181818;stroke-width:0.5;" width="265" x="21" y="240.8945"/><text fill="#000000" font-family="sans-serif" font-size="12" font-weight="bold" lengthAdjust="spacing" textLength="20" x="31" y="262.4961">A4.</text><text fill="#000000" font-family="sans-serif" font-size="12" lengthAdjust="spacing" textLength="221" x="55" y="262.4961">(Optional) Select Representative Issuer</text><line style="stroke:#000000;stroke-width:1.5;" x1="15" x2="15" y1="12.2969" y2="448.8906"/><path d="M473,285.0273 L473,308.9932 L453,312.9932 L473,316.9932 L473,340.959 A0,0 0 0 0 473,340.959 L779,340.959 A0,0 0 0 0 779,340.959 L779,295.0273 L769,285.0273 L473,285.0273 A0,0 0 0 0 473,285.0273 " fill="#FEFFDD" style="stroke:#181818;stroke-width:0.5;"/><path d="M769,285.0273 L769,295.0273 L779,295.0273 L769,285.0273 " fill="#FEFFDD" style="stroke:#181818;stroke-width:0.5;"/><text fill="#000000" font-family="sans-serif" font-size="13" lengthAdjust="spacing" textLength="285" x="479" y="302.5957">[List Service Provider Admin Console and API]</text><ellipse cx="484.5" cy="313.1484" fill="#000000" rx="2.5" ry="2.5" style="stroke:#000000;stroke-width:0.0;"/><text fill="#000000" font-family="sans-serif" font-size="13" lengthAdjust="spacing" textLength="199" x="491" y="317.9063">Register/Modify/Delete VC Plan</text><ellipse cx="484.5" cy="328.459" fill="#000000" rx="2.5" ry="2.5" style="stroke:#000000;stroke-width:0.0;"/><text fill="#000000" font-family="sans-serif" font-size="13" lengthAdjust="spacing" textLength="141" x="491" y="333.2168">Change VC Plan Status</text><rect fill="#F1F1F1" height="34.1328" rx="12.5" ry="12.5" style="stroke:#181818;stroke-width:0.5;" width="138" x="315" y="295.9268"/><text fill="#000000" font-family="sans-serif" font-size="12" font-weight="bold" lengthAdjust="spacing" textLength="19" x="325" y="317.5283">B1.</text><text fill="#000000" font-family="sans-serif" font-size="12" lengthAdjust="spacing" textLength="95" x="348" y="317.5283">Register VC Plan</text><path d="M492,350.959 L492,374.9248 L472,378.9248 L492,382.9248 L492,406.8906 A0,0 0 0 0 492,406.8906 L798,406.8906 A0,0 0 0 0 798,406.8906 L798,360.959 L788,350.959 L492,350.959 A0,0 0 0 0 492,350.959 " fill="#FEFFDD" style="stroke:#181818;stroke-width:0.5;"/><path d="M788,350.959 L788,360.959 L798,360.959 L788,350.959 " fill="#FEFFDD" style="stroke:#181818;stroke-width:0.5;"/><text fill="#000000" font-family="sans-serif" font-size="13" lengthAdjust="spacing" textLength="285" x="498" y="368.5273">[List Service Provider Admin Console and API]</text><ellipse cx="503.5" cy="379.0801" fill="#000000" rx="2.5" ry="2.5" style="stroke:#000000;stroke-width:0.0;"/><text fill="#000000" font-family="sans-serif" font-size="13" lengthAdjust="spacing" textLength="190" x="510" y="383.8379">Register/Modify/Delete Issuer</text><ellipse cx="503.5" cy="394.3906" fill="#000000" rx="2.5" ry="2.5" style="stroke:#000000;stroke-width:0.0;"/><text fill="#000000" font-family="sans-serif" font-size="13" lengthAdjust="spacing" textLength="132" x="510" y="399.1484">Change Issuer Status</text><rect fill="#F1F1F1" height="34.1328" rx="12.5" ry="12.5" style="stroke:#181818;stroke-width:0.5;" width="176" x="296" y="361.8584"/><text fill="#000000" font-family="sans-serif" font-size="12" font-weight="bold" lengthAdjust="spacing" textLength="19" x="306" y="383.46">B2.</text><text fill="#000000" font-family="sans-serif" font-size="12" lengthAdjust="spacing" textLength="133" x="329" y="383.46">Register VC Plan Issuer</text><ellipse cx="384" cy="437.8906" fill="none" rx="11" ry="11" style="stroke:#222222;stroke-width:1.0;"/><ellipse cx="384" cy="437.8906" fill="#222222" rx="6" ry="6" style="stroke:#222222;stroke-width:1.0;"/><line style="stroke:#000000;stroke-width:1.5;" x1="290" x2="290" y1="12.2969" y2="448.8906"/><line style="stroke:#000000;stroke-width:1.5;" x1="803" x2="803" y1="12.2969" y2="448.8906"/><line style="stroke:#181818;stroke-width:1.0;" x1="153.5" x2="153.5" y1="58.4961" y2="78.4961"/><polygon fill="#181818" points="149.5,68.4961,153.5,78.4961,157.5,68.4961,153.5,72.4961" style="stroke:#181818;stroke-width:1.0;"/><line style="stroke:#181818;stroke-width:1.0;" x1="153.5" x2="153.5" y1="112.6289" y2="132.6289"/><polygon fill="#181818" points="149.5,122.6289,153.5,132.6289,157.5,122.6289,153.5,126.6289" style="stroke:#181818;stroke-width:1.0;"/><line style="stroke:#181818;stroke-width:1.0;" x1="153.5" x2="153.5" y1="166.7617" y2="186.7617"/><polygon fill="#181818" points="149.5,176.7617,153.5,186.7617,157.5,176.7617,153.5,180.7617" style="stroke:#181818;stroke-width:1.0;"/><line style="stroke:#181818;stroke-width:1.0;" x1="153.5" x2="153.5" y1="220.8945" y2="240.8945"/><polygon fill="#181818" points="149.5,230.8945,153.5,240.8945,157.5,230.8945,153.5,234.8945" style="stroke:#181818;stroke-width:1.0;"/><line style="stroke:#181818;stroke-width:1.0;" x1="384" x2="384" y1="330.0596" y2="361.8584"/><polygon fill="#181818" points="380,351.8584,384,361.8584,388,351.8584,384,355.8584" style="stroke:#181818;stroke-width:1.0;"/><line style="stroke:#181818;stroke-width:1.0;" x1="384" x2="384" y1="395.9912" y2="426.8906"/><polygon fill="#181818" points="380,416.8906,384,426.8906,388,416.8906,384,420.8906" style="stroke:#181818;stroke-width:1.0;"/><line style="stroke:#181818;stroke-width:1.0;" x1="153.5" x2="153.5" y1="275.0273" y2="280.0273"/><line style="stroke:#181818;stroke-width:1.0;" x1="153.5" x2="384" y1="280.0273" y2="280.0273"/><line style="stroke:#181818;stroke-width:1.0;" x1="384" x2="384" y1="280.0273" y2="295.9268"/><polygon fill="#181818" points="380,285.9268,384,295.9268,388,285.9268,384,289.9268" style="stroke:#181818;stroke-width:1.0;"/><text fill="#000000" font-family="sans-serif" font-size="18" lengthAdjust="spacing" textLength="234" x="35.5" y="29.6992">Issuing Service Consortium</text><text fill="#000000" font-family="sans-serif" font-size="18" lengthAdjust="spacing" textLength="173" x="460" y="29.6992">List Service Provider</text><!--SRC=[jOynJyD038Nt-nKU8GCLXObE8LqgKH4r4WjYE1etiNJnHNTE9AJyUEvo9O3eYiVdv-VlJJll1-86AdGZ7H4AozuweQ6Rb1VjH3raMNvxasMmnHDnS1XDtMQMrpzapJMKmxiXty9B0TMnnKudsrsqLMZmA50QpR3Nh1jqQNiVjrVFlP1bRQw_Z0Vi7NfaqK8ZGkIC5sfw8YyBRkdiI3MwAKOzpfW7R883NQI8tpQAhI0uQbfH4ERrOWBaTKUS-fjK9oztR_F5T-XgRsiwVQos0JA4db-SJKMhkLb4g0Bwu1M6f4YWPiJr9SIbtV-HfW-_GPFsXzEBxJy1]--></g></svg>