<?xml version="1.0" encoding="us-ascii" standalone="no"?><svg xmlns="http://www.w3.org/2000/svg" xmlns:xlink="http://www.w3.org/1999/xlink" contentStyleType="text/css" height="803px" preserveAspectRatio="none" style="width:676px;height:803px;background:#FFFFFF;" version="1.1" viewBox="0 0 676 803" width="676px" zoomAndPan="magnify"><defs/><g><text fill="#000000" font-family="sans-serif" font-size="25" font-weight="bold" lengthAdjust="spacing" textLength="278.8125" x="194.6719" y="43.8452">&#49324;&#50857;&#51088;&#50640; &#51032;&#54620; &#48156;&#44553; &#44060;&#49884;</text><rect fill="#FFFFFF" height="561.6602" style="stroke:#181818;stroke-width:1.0;" width="10" x="203.6563" y="149.5679"/><rect fill="#FFFFFF" height="76.7119" style="stroke:#181818;stroke-width:1.0;" width="10" x="427.6563" y="268.9917"/><rect fill="#FFFFFF" height="46.856" style="stroke:#181818;stroke-width:1.0;" width="10" x="623.6563" y="664.3721"/><rect fill="none" height="51.8208" style="stroke:#000000;stroke-width:1.5;" width="237.3125" x="10" y="437.4155"/><line style="stroke:#181818;stroke-width:0.5;stroke-dasharray:5.0,5.0;" x1="44" x2="44" y1="139.5679" y2="720.228"/><line style="stroke:#181818;stroke-width:0.5;stroke-dasharray:5.0,5.0;" x1="208" x2="208" y1="139.5679" y2="720.228"/><line style="stroke:#181818;stroke-width:0.5;stroke-dasharray:5.0,5.0;" x1="432.5625" x2="432.5625" y1="139.5679" y2="720.228"/><line style="stroke:#181818;stroke-width:0.5;stroke-dasharray:5.0,5.0;" x1="628.1563" x2="628.1563" y1="139.5679" y2="720.228"/><text fill="#000000" font-family="sans-serif" font-size="14" font-weight="bold" lengthAdjust="spacing" textLength="43.3125" x="20" y="136.4917">&#49324;&#50857;&#51088;</text><ellipse cx="44.6563" cy="68.8384" fill="#E2E2F0" rx="8" ry="8" style="stroke:#181818;stroke-width:0.5;"/><path d="M44.6563,76.8384 L44.6563,103.8384 M31.6563,84.8384 L57.6563,84.8384 M44.6563,103.8384 L31.6563,118.8384 M44.6563,103.8384 L57.6563,118.8384 " fill="none" style="stroke:#181818;stroke-width:0.5;"/><text fill="#000000" font-family="sans-serif" font-size="14" font-weight="bold" lengthAdjust="spacing" textLength="43.3125" x="20" y="735.3813">&#49324;&#50857;&#51088;</text><ellipse cx="44.6563" cy="746.9575" fill="#E2E2F0" rx="8" ry="8" style="stroke:#181818;stroke-width:0.5;"/><path d="M44.6563,754.9575 L44.6563,781.9575 M31.6563,762.9575 L57.6563,762.9575 M44.6563,781.9575 L31.6563,796.9575 M44.6563,781.9575 L57.6563,796.9575 " fill="none" style="stroke:#181818;stroke-width:0.5;"/><rect fill="#E2E2F0" height="52.459" rx="2.5" ry="2.5" style="stroke:#181818;stroke-width:0.5;" width="57.3125" x="180" y="86.1089"/><text fill="#000000" font-family="sans-serif" font-size="14" font-style="italic" lengthAdjust="spacing" textLength="41" x="188.1563" y="109.2622">&#171;App&#187;</text><text fill="#000000" font-family="sans-serif" font-size="14" font-weight="bold" lengthAdjust="spacing" textLength="43.3125" x="187" y="128.4917">&#51064;&#44032;&#50545;</text><rect fill="#E2E2F0" height="52.459" rx="2.5" ry="2.5" style="stroke:#181818;stroke-width:0.5;" width="57.3125" x="180" y="719.228"/><text fill="#000000" font-family="sans-serif" font-size="14" font-style="italic" lengthAdjust="spacing" textLength="41" x="188.1563" y="742.3813">&#171;App&#187;</text><text fill="#000000" font-family="sans-serif" font-size="14" font-weight="bold" lengthAdjust="spacing" textLength="43.3125" x="187" y="761.6108">&#51064;&#44032;&#50545;</text><rect fill="#E2E2F0" height="52.459" rx="2.5" ry="2.5" style="stroke:#181818;stroke-width:0.5;" width="90.1875" x="387.5625" y="86.1089"/><text fill="#000000" font-family="sans-serif" font-size="14" font-style="italic" lengthAdjust="spacing" textLength="57" x="404.1563" y="109.2622">&#171;Server&#187;</text><text fill="#000000" font-family="sans-serif" font-size="14" font-weight="bold" lengthAdjust="spacing" textLength="76.1875" x="394.5625" y="128.4917">&#47785;&#47197; &#49324;&#50629;&#51088;</text><rect fill="#E2E2F0" height="52.459" rx="2.5" ry="2.5" style="stroke:#181818;stroke-width:0.5;" width="90.1875" x="387.5625" y="719.228"/><text fill="#000000" font-family="sans-serif" font-size="14" font-style="italic" lengthAdjust="spacing" textLength="57" x="404.1563" y="742.3813">&#171;Server&#187;</text><text fill="#000000" font-family="sans-serif" font-size="14" font-weight="bold" lengthAdjust="spacing" textLength="76.1875" x="394.5625" y="761.6108">&#47785;&#47197; &#49324;&#50629;&#51088;</text><rect fill="#E2E2F0" height="52.459" rx="2.5" ry="2.5" style="stroke:#181818;stroke-width:0.5;" width="71" x="593.1563" y="86.1089"/><text fill="#000000" font-family="sans-serif" font-size="14" font-style="italic" lengthAdjust="spacing" textLength="57" x="600.1563" y="109.2622">&#171;Server&#187;</text><text fill="#000000" font-family="sans-serif" font-size="14" font-weight="bold" lengthAdjust="spacing" textLength="26" x="615.6563" y="128.4917">TAS</text><rect fill="#E2E2F0" height="52.459" rx="2.5" ry="2.5" style="stroke:#181818;stroke-width:0.5;" width="71" x="593.1563" y="719.228"/><text fill="#000000" font-family="sans-serif" font-size="14" font-style="italic" lengthAdjust="spacing" textLength="57" x="600.1563" y="742.3813">&#171;Server&#187;</text><text fill="#000000" font-family="sans-serif" font-size="14" font-weight="bold" lengthAdjust="spacing" textLength="26" x="615.6563" y="761.6108">TAS</text><rect fill="#FFFFFF" height="561.6602" style="stroke:#181818;stroke-width:1.0;" width="10" x="203.6563" y="149.5679"/><rect fill="#FFFFFF" height="76.7119" style="stroke:#181818;stroke-width:1.0;" width="10" x="427.6563" y="268.9917"/><rect fill="#FFFFFF" height="46.856" style="stroke:#181818;stroke-width:1.0;" width="10" x="623.6563" y="664.3721"/><rect fill="#EEEEEE" height="3" style="stroke:#EEEEEE;stroke-width:1.0;" width="669.1563" x="0" y="171.4958"/><line style="stroke:#000000;stroke-width:1.0;" x1="0" x2="669.1563" y1="171.4958" y2="171.4958"/><line style="stroke:#000000;stroke-width:1.0;" x1="0" x2="669.1563" y1="174.4958" y2="174.4958"/><rect fill="#EEEEEE" height="25.856" style="stroke:#000000;stroke-width:2.0;" width="96.625" x="286.2656" y="159.5679"/><text fill="#000000" font-family="sans-serif" font-size="13" font-weight="bold" lengthAdjust="spacing" textLength="78.625" x="292.2656" y="178.5674">(C) &#44060;&#49884; &#45800;&#44228;</text><polygon fill="#0000FF" points="191.6563,215.2798,201.6563,219.2798,191.6563,219.2798" style="stroke:#0000FF;stroke-width:1.0;"/><line style="stroke:#0000FF;stroke-width:1.0;" x1="44.6563" x2="202.6563" y1="219.2798" y2="219.2798"/><text fill="#000000" font-family="sans-serif" font-size="13" font-weight="bold" lengthAdjust="spacing" textLength="15" x="51.6563" y="214.4233">(1)</text><text fill="#000000" font-family="sans-serif" font-size="13" lengthAdjust="spacing" textLength="116" x="70.6563" y="214.4233">&#48156;&#44553; &#44032;&#45733; &#47785;&#47197; &#50836;&#52397;</text><polygon fill="#181818" points="415.6563,264.9917,425.6563,268.9917,415.6563,272.9917,419.6563,268.9917" style="stroke:#181818;stroke-width:1.0;"/><line style="stroke:#181818;stroke-width:1.0;" x1="213.6563" x2="421.6563" y1="268.9917" y2="268.9917"/><text fill="#000000" font-family="sans-serif" font-size="13" font-weight="bold" lengthAdjust="spacing" textLength="15" x="220.6563" y="255.2073">(2)</text><text fill="#000000" font-family="sans-serif" font-size="13" lengthAdjust="spacing" textLength="125" x="239.6563" y="246.2793">VC Plan &#44160;&#49353; &#48143; &#51312;&#54924;</text><text fill="#000000" font-family="sans-serif" font-size="13" lengthAdjust="spacing" textLength="60" x="239.6563" y="264.1353">{&#44160;&#49353;&#51312;&#44148;}</text><line style="stroke:#181818;stroke-width:1.0;" x1="437.6563" x2="479.6563" y1="300.8477" y2="300.8477"/><line style="stroke:#181818;stroke-width:1.0;" x1="479.6563" x2="479.6563" y1="300.8477" y2="313.8477"/><line style="stroke:#181818;stroke-width:1.0;" x1="438.6563" x2="479.6563" y1="313.8477" y2="313.8477"/><polygon fill="#181818" points="448.6563,309.8477,438.6563,313.8477,448.6563,317.8477,444.6563,313.8477" style="stroke:#181818;stroke-width:1.0;"/><text fill="#000000" font-family="sans-serif" font-size="13" font-weight="bold" lengthAdjust="spacing" textLength="15" x="444.6563" y="295.9912">(3)</text><text fill="#000000" font-family="sans-serif" font-size="13" lengthAdjust="spacing" textLength="153" x="463.6563" y="295.9912">vcPlanList = VC Plan &#51312;&#54924;</text><polygon fill="#181818" points="224.6563,341.7036,214.6563,345.7036,224.6563,349.7036,220.6563,345.7036" style="stroke:#181818;stroke-width:1.0;"/><line style="stroke:#181818;stroke-width:1.0;stroke-dasharray:2.0,2.0;" x1="218.6563" x2="431.6563" y1="345.7036" y2="345.7036"/><text fill="#000000" font-family="sans-serif" font-size="13" font-weight="bold" lengthAdjust="spacing" textLength="15" x="230.6563" y="340.8472">(4)</text><text fill="#000000" font-family="sans-serif" font-size="13" lengthAdjust="spacing" textLength="67" x="249.6563" y="340.8472">{vcPlanList}</text><line style="stroke:#181818;stroke-width:1.0;" x1="213.6563" x2="255.6563" y1="377.5596" y2="377.5596"/><line style="stroke:#181818;stroke-width:1.0;" x1="255.6563" x2="255.6563" y1="377.5596" y2="390.5596"/><line style="stroke:#181818;stroke-width:1.0;" x1="214.6563" x2="255.6563" y1="390.5596" y2="390.5596"/><polygon fill="#181818" points="224.6563,386.5596,214.6563,390.5596,224.6563,394.5596,220.6563,390.5596" style="stroke:#181818;stroke-width:1.0;"/><text fill="#000000" font-family="sans-serif" font-size="13" font-weight="bold" lengthAdjust="spacing" textLength="15" x="220.6563" y="372.7031">(5)</text><text fill="#000000" font-family="sans-serif" font-size="13" lengthAdjust="spacing" textLength="108" x="239.6563" y="372.7031">VC Plan &#47785;&#47197; &#54364;&#52636;</text><polygon fill="#0000FF" points="191.6563,418.4155,201.6563,422.4155,191.6563,422.4155" style="stroke:#0000FF;stroke-width:1.0;"/><line style="stroke:#0000FF;stroke-width:1.0;" x1="44.6563" x2="202.6563" y1="422.4155" y2="422.4155"/><text fill="#000000" font-family="sans-serif" font-size="13" font-weight="bold" lengthAdjust="spacing" textLength="15" x="51.6563" y="417.5591">(6)</text><text fill="#000000" font-family="sans-serif" font-size="13" lengthAdjust="spacing" textLength="78" x="70.6563" y="417.5591">VC Plan &#49440;&#53469;</text><path d="M10,437.4155 L75,437.4155 L75,447.2715 L65,457.2715 L10,457.2715 L10,437.4155 " fill="#EEEEEE" style="stroke:#000000;stroke-width:1.5;"/><rect fill="none" height="51.8208" style="stroke:#000000;stroke-width:1.5;" width="237.3125" x="10" y="437.4155"/><text fill="#000000" font-family="sans-serif" font-size="13" font-weight="bold" lengthAdjust="spacing" textLength="20" x="25" y="453.415">opt</text><text fill="#000000" font-family="sans-serif" font-size="11" font-weight="bold" lengthAdjust="spacing" textLength="104.75" x="90" y="452.1074">[&#48373;&#49688; &#51060;&#49800;&#50612; &#51228;&#44277;&#49884;]</text><polygon fill="#0000FF" points="191.6563,477.2363,201.6563,481.2363,191.6563,481.2363" style="stroke:#0000FF;stroke-width:1.0;"/><line style="stroke:#0000FF;stroke-width:1.0;" x1="44.6563" x2="202.6563" y1="481.2363" y2="481.2363"/><text fill="#000000" font-family="sans-serif" font-size="13" font-weight="bold" lengthAdjust="spacing" textLength="15" x="51.6563" y="476.3799">(7)</text><text fill="#000000" font-family="sans-serif" font-size="13" lengthAdjust="spacing" textLength="69" x="70.6563" y="476.3799">&#51060;&#49800;&#50612; &#49440;&#53469;</text><line style="stroke:#181818;stroke-width:1.0;" x1="213.6563" x2="255.6563" y1="555.8042" y2="555.8042"/><line style="stroke:#181818;stroke-width:1.0;" x1="255.6563" x2="255.6563" y1="555.8042" y2="568.8042"/><line style="stroke:#181818;stroke-width:1.0;" x1="214.6563" x2="255.6563" y1="568.8042" y2="568.8042"/><polygon fill="#181818" points="224.6563,564.8042,214.6563,568.8042,224.6563,572.8042,220.6563,568.8042" style="stroke:#181818;stroke-width:1.0;"/><text fill="#000000" font-family="sans-serif" font-size="13" font-weight="bold" lengthAdjust="spacing" textLength="15" x="220.6563" y="533.0918">(8)</text><text fill="#000000" font-family="sans-serif" font-size="13" lengthAdjust="spacing" textLength="129" x="239.6563" y="515.2358">&#48156;&#44553; &#50836;&#52397; &#45936;&#51060;&#53552; &#51456;&#48708;</text><ellipse cx="245.1563" cy="528.4482" fill="#000000" rx="2.5" ry="2.5" style="stroke:#000000;stroke-width:0.0;"/><text fill="#000000" font-family="sans-serif" font-size="13" lengthAdjust="spacing" textLength="169" x="251.6563" y="533.0918">vcPlanId = &#49440;&#53469;&#46108; VC Plan id</text><ellipse cx="245.1563" cy="546.3042" fill="#000000" rx="2.5" ry="2.5" style="stroke:#000000;stroke-width:0.0;"/><text fill="#000000" font-family="sans-serif" font-size="13" lengthAdjust="spacing" textLength="158" x="251.6563" y="550.9478">issuer = &#49440;&#53469;&#46108; &#51060;&#49800;&#50612; DID</text><rect fill="#EEEEEE" height="3" style="stroke:#EEEEEE;stroke-width:1.0;" width="669.1563" x="0" y="598.7322"/><line style="stroke:#000000;stroke-width:1.0;" x1="0" x2="669.1563" y1="598.7322" y2="598.7322"/><line style="stroke:#000000;stroke-width:1.0;" x1="0" x2="669.1563" y1="601.7322" y2="601.7322"/><rect fill="#EEEEEE" height="25.856" style="stroke:#000000;stroke-width:2.0;" width="96.625" x="286.2656" y="586.8042"/><text fill="#000000" font-family="sans-serif" font-size="13" font-weight="bold" lengthAdjust="spacing" textLength="78.625" x="292.2656" y="605.8037">(D) &#48156;&#44553; &#45800;&#44228;</text><polygon fill="#181818" points="611.6563,660.3721,621.6563,664.3721,611.6563,668.3721,615.6563,664.3721" style="stroke:#181818;stroke-width:1.0;"/><line style="stroke:#181818;stroke-width:1.0;" x1="213.6563" x2="617.6563" y1="664.3721" y2="664.3721"/><text fill="#000000" font-family="sans-serif" font-size="13" font-weight="bold" lengthAdjust="spacing" textLength="15" x="220.6563" y="650.5876">(9)</text><text fill="#000000" font-family="sans-serif" font-size="13" lengthAdjust="spacing" textLength="110" x="239.6563" y="641.6597">D1. &#48156;&#44553; &#49884;&#51089; &#50836;&#52397;</text><text fill="#000000" font-family="sans-serif" font-size="13" lengthAdjust="spacing" textLength="107" x="239.6563" y="659.5156">{vcPlanId[, issuer]}</text><path d="M179,677.3721 L179,704.3721 L658,704.3721 L658,687.3721 L648,677.3721 L179,677.3721 " fill="#FEFFDD" style="stroke:#181818;stroke-width:0.5;"/><path d="M648,677.3721 L648,687.3721 L658,687.3721 L648,677.3721 " fill="#FEFFDD" style="stroke:#181818;stroke-width:0.5;"/><text fill="#000000" font-family="sans-serif" font-size="13" lengthAdjust="spacing" textLength="56" x="386.0781" y="697.3716">&#51060;&#54616; &#49373;&#47029;</text><!--SRC=[RPBVIzjG5CUVT_-AGtsnKISRxAKa0RKlmXu6ZhrO7zBsFWIw92GtVL0APNQWTcCLrYdbjYXiCCS6KUlGVocv-HyyDxyQDWDvoCdt-xsVSyvb9kjGyaprp7rQU_bA5nz-YycLc8t4sGZ4z3mUSuW27juVGnXmCUJgkfJgX5fjO8cP63wpBVzzaxfGKPlwyb9LNM_g5VpHOZRM5AL8LPGA61xu7dM9OxZCR9cEOR54CxqFWxuONsUQbW6gkk4uklwlClfr5LrEGOQUVLo4TXmqx52tIzt_FMytTZ8PmxUa8ve6orlLh3k8XZ_3sm5eMa9lTWr6aOGGIGnhkqkR7P_kDR1KMuob7vtyW1ngybNS_244wTTqYRIoKeDtM_2cOrWGtlJ5uJ4Qlu2u3EB9fuPraDRmCxoUzmZWWwR4MeDkIzfUcnu3hGX9dSIbp7SjE5XeUlcf4YvNPrZnAHT_-LDT5B63Y_XmIco7GNHx9uxESVjpSN8alir1NF0GQqEUy3qHKfAcCNWxoZJPgDBXGFGvG4Cy241yxqSF0yYUXgLaBM-tiU4qAXhnWj5ibwMcv_b8KXOkEEhRzNIrzMf-UccrAPcy2N8zzHVF2y8X5xFJ31Ita-FihcR7xVM8PUETiF7sO6khCYJfFnxZn91YTlS8]--></g></svg>