<?xml version="1.0" encoding="UTF-8"?><svg xmlns="http://www.w3.org/2000/svg" xmlns:xlink="http://www.w3.org/1999/xlink" fill-opacity="1" color-rendering="auto" color-interpolation="auto" text-rendering="auto" stroke="black" stroke-linecap="square" width="902" stroke-miterlimit="10" shape-rendering="auto" stroke-opacity="1" fill="black" stroke-dasharray="none" font-weight="normal" stroke-width="1" height="555" font-family="'Dialog'" font-style="normal" stroke-linejoin="miter" font-size="12px" stroke-dashoffset="0" image-rendering="auto">
  <!--Generated by ySVG 2.6-->
  <defs id="genericDefs"/>
  <g>
    <defs id="defs1">
      <clipPath clipPathUnits="userSpaceOnUse" id="clipPath1">
        <path d="M0 0 L902 0 L902 555 L0 555 L0 0 Z"/>
      </clipPath>
      <clipPath clipPathUnits="userSpaceOnUse" id="clipPath2">
        <path d="M552 -68 L1454 -68 L1454 487 L552 487 L552 -68 Z"/>
      </clipPath>
    </defs>
    <g fill="white" text-rendering="geometricPrecision" shape-rendering="geometricPrecision" transform="matrix(1,0,0,1,-552,68)" stroke="white">
      <rect x="567.0775" width="871.2706" height="523.956" y="-52.6437" clip-path="url(#clipPath2)" stroke="none"/>
    </g>
    <g fill="rgb(235,235,235)" text-rendering="geometricPrecision" shape-rendering="geometricPrecision" transform="matrix(1,0,0,1,-552,68)" stroke="rgb(235,235,235)">
      <rect x="567.0775" width="871.2706" height="21.666" y="-52.6437" clip-path="url(#clipPath2)" stroke="none"/>
    </g>
    <g font-size="15px" stroke-linecap="butt" transform="matrix(1,0,0,1,-552,68)" text-rendering="geometricPrecision" font-family="sans-serif" shape-rendering="geometricPrecision" stroke-miterlimit="1.45">
      <text x="956.5703" xml:space="preserve" y="-36.1417" clip-path="url(#clipPath2)" stroke="none">Open Source</text>
      <rect fill="none" x="567.0775" width="871.2706" height="523.956" y="-52.6437" clip-path="url(#clipPath2)"/>
    </g>
    <g fill="rgb(235,235,235)" text-rendering="geometricPrecision" shape-rendering="geometricPrecision" transform="matrix(1,0,0,1,-552,68)" stroke="rgb(235,235,235)">
      <rect x="582.0775" width="841.2706" height="472.29" y="-15.9777" clip-path="url(#clipPath2)" stroke="none"/>
      <rect x="582.0775" width="841.2706" height="21.666" y="-15.9777" clip-path="url(#clipPath2)" stroke="none"/>
    </g>
    <g font-size="15px" stroke-linecap="butt" transform="matrix(1,0,0,1,-552,68)" text-rendering="geometricPrecision" font-family="sans-serif" shape-rendering="geometricPrecision" stroke-miterlimit="1.45">
      <text x="961.5434" xml:space="preserve" y="0.5243" clip-path="url(#clipPath2)" stroke="none">Application</text>
      <rect fill="none" x="582.0775" width="841.2706" height="472.29" y="-15.9777" clip-path="url(#clipPath2)"/>
    </g>
    <g fill="silver" text-rendering="geometricPrecision" shape-rendering="geometricPrecision" transform="matrix(1,0,0,1,-552,68)" stroke="silver">
      <rect x="598.9194" width="807.9874" height="89.1" y="20.6883" clip-path="url(#clipPath2)" stroke="none"/>
    </g>
    <g text-rendering="geometricPrecision" stroke-miterlimit="1.45" shape-rendering="geometricPrecision" transform="matrix(1,0,0,1,-552,68)" stroke-linecap="butt">
      <rect fill="none" x="598.9194" width="807.9874" height="89.1" y="20.6883" clip-path="url(#clipPath2)"/>
      <text x="985.083" xml:space="preserve" y="69.7735" clip-path="url(#clipPath2)" font-family="sans-serif" stroke="none">&lt;CA&gt;</text>
    </g>
    <g fill="silver" text-rendering="geometricPrecision" shape-rendering="geometricPrecision" transform="matrix(1,0,0,1,-552,68)" stroke="silver">
      <rect x="1147.8994" width="207.9571" height="48.159" y="41.1588" clip-path="url(#clipPath2)" stroke="none"/>
    </g>
    <g text-rendering="geometricPrecision" stroke-miterlimit="1.45" shape-rendering="geometricPrecision" transform="matrix(1,0,0,1,-552,68)" stroke-linecap="butt">
      <rect fill="none" x="1147.8994" width="207.9571" height="48.159" y="41.1588" clip-path="url(#clipPath2)"/>
      <text x="1220.5068" xml:space="preserve" y="62.7071" clip-path="url(#clipPath2)" font-family="sans-serif" stroke="none">&lt;CA SDK&gt;</text>
      <text x="1194.4443" xml:space="preserve" y="76.8399" clip-path="url(#clipPath2)" font-family="sans-serif" stroke="none">network, urlscheme</text>
    </g>
    <g fill="silver" text-rendering="geometricPrecision" shape-rendering="geometricPrecision" transform="matrix(1,0,0,1,-552,68)" stroke="silver">
      <rect x="598.9194" width="422.8365" height="275.9473" y="145.7883" clip-path="url(#clipPath2)" stroke="none"/>
    </g>
    <g text-rendering="geometricPrecision" stroke-miterlimit="1.45" shape-rendering="geometricPrecision" transform="matrix(1,0,0,1,-552,68)" stroke-linecap="butt">
      <rect fill="none" x="598.9194" width="422.8365" height="275.9473" y="145.7883" clip-path="url(#clipPath2)"/>
      <text x="760.571" xml:space="preserve" y="168.1683" clip-path="url(#clipPath2)" font-family="sans-serif" stroke="none">&lt;WalletAPI SDK&gt;</text>
      <text x="808.4391" xml:space="preserve" y="182.3011" clip-path="url(#clipPath2)" font-family="sans-serif" stroke="none"> </text>
      <text x="808.4391" xml:space="preserve" y="196.4339" clip-path="url(#clipPath2)" font-family="sans-serif" stroke="none"> </text>
      <text x="808.4391" xml:space="preserve" y="210.5667" clip-path="url(#clipPath2)" font-family="sans-serif" stroke="none"> </text>
      <text x="808.4391" xml:space="preserve" y="224.6995" clip-path="url(#clipPath2)" font-family="sans-serif" stroke="none"> </text>
      <text x="808.4391" xml:space="preserve" y="238.8323" clip-path="url(#clipPath2)" font-family="sans-serif" stroke="none"> </text>
      <text x="808.4391" xml:space="preserve" y="252.9651" clip-path="url(#clipPath2)" font-family="sans-serif" stroke="none"> </text>
      <text x="808.4391" xml:space="preserve" y="267.098" clip-path="url(#clipPath2)" font-family="sans-serif" stroke="none"> </text>
      <text x="808.4391" xml:space="preserve" y="281.2308" clip-path="url(#clipPath2)" font-family="sans-serif" stroke="none"> </text>
      <text x="808.4391" xml:space="preserve" y="295.3636" clip-path="url(#clipPath2)" font-family="sans-serif" stroke="none"> </text>
      <text x="808.4391" xml:space="preserve" y="309.4964" clip-path="url(#clipPath2)" font-family="sans-serif" stroke="none"> </text>
      <text x="808.4391" xml:space="preserve" y="323.6292" clip-path="url(#clipPath2)" font-family="sans-serif" stroke="none"> </text>
      <text x="808.4391" xml:space="preserve" y="337.762" clip-path="url(#clipPath2)" font-family="sans-serif" stroke="none"> </text>
      <text x="808.4391" xml:space="preserve" y="351.8948" clip-path="url(#clipPath2)" font-family="sans-serif" stroke="none"> </text>
      <text x="808.4391" xml:space="preserve" y="366.0276" clip-path="url(#clipPath2)" font-family="sans-serif" stroke="none"> </text>
      <text x="808.4391" xml:space="preserve" y="380.1605" clip-path="url(#clipPath2)" font-family="sans-serif" stroke="none"> </text>
      <text x="808.4391" xml:space="preserve" y="394.2933" clip-path="url(#clipPath2)" font-family="sans-serif" stroke="none"> </text>
      <text x="808.4391" xml:space="preserve" y="408.4261" clip-path="url(#clipPath2)" font-family="sans-serif" stroke="none"> </text>
    </g>
    <g fill="white" text-rendering="geometricPrecision" shape-rendering="geometricPrecision" transform="matrix(1,0,0,1,-552,68)" stroke="white">
      <rect x="624.8388" width="252.8365" height="220.159" y="187.5767" clip-path="url(#clipPath2)" stroke="none"/>
    </g>
    <g text-rendering="geometricPrecision" stroke-miterlimit="1.45" shape-rendering="geometricPrecision" transform="matrix(1,0,0,1,-552,68)" stroke-linecap="butt">
      <rect fill="none" x="624.8388" width="252.8365" height="220.159" y="187.5767" clip-path="url(#clipPath2)"/>
      <text x="702.715" xml:space="preserve" y="232.0352" clip-path="url(#clipPath2)" font-family="sans-serif" stroke="none">&lt;service wallet&gt;</text>
    </g>
    <g fill="silver" text-rendering="geometricPrecision" shape-rendering="geometricPrecision" transform="matrix(1,0,0,1,-552,68)" stroke="silver">
      <rect x="641.7181" width="222.9571" height="34.159" y="255.8947" clip-path="url(#clipPath2)" stroke="none"/>
    </g>
    <g text-rendering="geometricPrecision" stroke-miterlimit="1.45" shape-rendering="geometricPrecision" transform="matrix(1,0,0,1,-552,68)" stroke-linecap="butt">
      <rect fill="none" x="641.7181" width="222.9571" height="34.159" y="255.8947" clip-path="url(#clipPath2)"/>
      <text x="672.2289" xml:space="preserve" y="277.5093" clip-path="url(#clipPath2)" font-family="sans-serif" stroke="none">manage unlock/lock status </text>
    </g>
    <g fill="silver" text-rendering="geometricPrecision" shape-rendering="geometricPrecision" transform="matrix(1,0,0,1,-552,68)" stroke="silver">
      <rect x="641.7181" width="222.9571" height="34.159" y="299.842" clip-path="url(#clipPath2)" stroke="none"/>
    </g>
    <g text-rendering="geometricPrecision" stroke-miterlimit="1.45" shape-rendering="geometricPrecision" transform="matrix(1,0,0,1,-552,68)" stroke-linecap="butt">
      <rect fill="none" x="641.7181" width="222.9571" height="34.159" y="299.842" clip-path="url(#clipPath2)"/>
      <text x="643.808" xml:space="preserve" y="321.4567" clip-path="url(#clipPath2)" font-family="sans-serif" stroke="none">generate, validate, query wallet token</text>
    </g>
    <g fill="silver" text-rendering="geometricPrecision" shape-rendering="geometricPrecision" transform="matrix(1,0,0,1,-552,68)" stroke="silver">
      <rect x="641.7181" width="222.9571" height="34.159" y="348.7894" clip-path="url(#clipPath2)" stroke="none"/>
    </g>
    <g text-rendering="geometricPrecision" stroke-miterlimit="1.45" shape-rendering="geometricPrecision" transform="matrix(1,0,0,1,-552,68)" stroke-linecap="butt">
      <rect fill="none" x="641.7181" width="222.9571" height="34.159" y="348.7894" clip-path="url(#clipPath2)"/>
      <text x="681.5746" xml:space="preserve" y="370.4041" clip-path="url(#clipPath2)" font-family="sans-serif" stroke="none">utils (msg-TAS, DB, B/C)</text>
    </g>
    <g fill="white" text-rendering="geometricPrecision" shape-rendering="geometricPrecision" transform="matrix(1,0,0,1,-552,68)" stroke="white">
      <rect x="894.6752" width="114.9171" height="220.159" y="187.5767" clip-path="url(#clipPath2)" stroke="none"/>
    </g>
    <g text-rendering="geometricPrecision" stroke-miterlimit="1.45" shape-rendering="geometricPrecision" transform="matrix(1,0,0,1,-552,68)" stroke-linecap="butt">
      <rect fill="none" x="894.6752" width="114.9171" height="220.159" y="187.5767" clip-path="url(#clipPath2)"/>
      <text x="896.0186" xml:space="preserve" y="295.1249" clip-path="url(#clipPath2)" font-family="sans-serif" stroke="none">&lt;Core Wallet SDK&gt;</text>
      <text x="904.3184" xml:space="preserve" y="309.2578" clip-path="url(#clipPath2)" font-family="sans-serif" stroke="none">DID, VC, VP, Key</text>
    </g>
    <g fill="white" text-rendering="geometricPrecision" shape-rendering="geometricPrecision" transform="matrix(1,0,0,1,-552,68)" stroke="white">
      <rect x="1040.3504" width="109.9171" height="275.9473" y="145.7883" clip-path="url(#clipPath2)" stroke="none"/>
    </g>
    <g text-rendering="geometricPrecision" stroke-miterlimit="1.45" shape-rendering="geometricPrecision" transform="matrix(1,0,0,1,-552,68)" stroke-linecap="butt">
      <rect fill="none" x="1040.3504" width="109.9171" height="275.9473" y="145.7883" clip-path="url(#clipPath2)"/>
      <text x="1056.9799" xml:space="preserve" y="274.1644" clip-path="url(#clipPath2)" font-family="sans-serif" stroke="none">&lt;Utlity SDK&gt;</text>
      <text x="1075.0414" xml:space="preserve" y="288.2972" clip-path="url(#clipPath2)" font-family="sans-serif" stroke="none">crypto,</text>
      <text x="1066.7797" xml:space="preserve" y="302.43" clip-path="url(#clipPath2)" font-family="sans-serif" stroke="none">multibase</text>
    </g>
    <g fill="white" text-rendering="geometricPrecision" shape-rendering="geometricPrecision" transform="matrix(1,0,0,1,-552,68)" stroke="white">
      <rect x="1167.1701" width="109.9171" height="275.9473" y="145.7883" clip-path="url(#clipPath2)" stroke="none"/>
    </g>
    <g text-rendering="geometricPrecision" stroke-miterlimit="1.45" shape-rendering="geometricPrecision" transform="matrix(1,0,0,1,-552,68)" stroke-linecap="butt">
      <rect fill="none" x="1167.1701" width="109.9171" height="275.9473" y="145.7883" clip-path="url(#clipPath2)"/>
      <text x="1166.0134" xml:space="preserve" y="260.0316" clip-path="url(#clipPath2)" font-family="sans-serif" stroke="none">&lt;Core Wallet SDK&gt;</text>
      <text x="1205.658" xml:space="preserve" y="274.1644" clip-path="url(#clipPath2)" font-family="sans-serif" stroke="none">Http, </text>
      <text x="1199.2478" xml:space="preserve" y="288.2972" clip-path="url(#clipPath2)" font-family="sans-serif" stroke="none">Socket, </text>
      <text x="1206.531" xml:space="preserve" y="302.43" clip-path="url(#clipPath2)" font-family="sans-serif" stroke="none">NFC, </text>
      <text x="1212.2263" xml:space="preserve" y="316.5628" clip-path="url(#clipPath2)" font-family="sans-serif" stroke="none">BLE</text>
    </g>
    <g fill="white" text-rendering="geometricPrecision" shape-rendering="geometricPrecision" transform="matrix(1,0,0,1,-552,68)" stroke="white">
      <rect x="1296.9897" width="109.9171" height="275.9473" y="145.7883" clip-path="url(#clipPath2)" stroke="none"/>
    </g>
    <g text-rendering="geometricPrecision" stroke-miterlimit="1.45" shape-rendering="geometricPrecision" transform="matrix(1,0,0,1,-552,68)" stroke-linecap="butt">
      <rect fill="none" x="1296.9897" width="109.9171" height="275.9473" y="145.7883" clip-path="url(#clipPath2)"/>
      <text x="1297.7959" xml:space="preserve" y="281.2308" clip-path="url(#clipPath2)" font-family="sans-serif" stroke="none">&lt;DataModel SDK&gt;</text>
      <text x="1323.5186" xml:space="preserve" y="295.3636" clip-path="url(#clipPath2)" font-family="sans-serif" stroke="none">VO object</text>
    </g>
  </g>
</svg>
