<?xml version="1.0" encoding="UTF-8"?><svg xmlns="http://www.w3.org/2000/svg" xmlns:xlink="http://www.w3.org/1999/xlink" fill-opacity="1" color-rendering="auto" color-interpolation="auto" text-rendering="auto" stroke="black" stroke-linecap="square" width="791" stroke-miterlimit="10" shape-rendering="auto" stroke-opacity="1" fill="black" stroke-dasharray="none" font-weight="normal" stroke-width="1" height="619" font-family="'Dialog'" font-style="normal" stroke-linejoin="miter" font-size="12px" stroke-dashoffset="0" image-rendering="auto">
  <!--Generated by ySVG 2.6-->
  <defs id="genericDefs"/>
  <g>
    <defs id="defs1">
      <linearGradient x1="76.833" gradientUnits="userSpaceOnUse" x2="196.2475" y1="549.999" y2="589.999" id="linearGradient1" spreadMethod="reflect">
        <stop stop-opacity="1" stop-color="rgb(232,238,247)" offset="0%"/>
        <stop stop-opacity="1" stop-color="rgb(183,201,227)" offset="100%"/>
      </linearGradient>
      <linearGradient x1="66.3867" gradientUnits="userSpaceOnUse" x2="206.6937" y1="644.9072" y2="684.9072" id="linearGradient2" spreadMethod="reflect">
        <stop stop-opacity="1" stop-color="rgb(232,238,247)" offset="0%"/>
        <stop stop-opacity="1" stop-color="rgb(183,201,227)" offset="100%"/>
      </linearGradient>
      <linearGradient x1="66.3867" gradientUnits="userSpaceOnUse" x2="206.6937" y1="763.799" y2="803.799" id="linearGradient3" spreadMethod="reflect">
        <stop stop-opacity="1" stop-color="rgb(232,238,247)" offset="0%"/>
        <stop stop-opacity="1" stop-color="rgb(183,201,227)" offset="100%"/>
      </linearGradient>
      <linearGradient x1="66.3867" gradientUnits="userSpaceOnUse" x2="206.6937" y1="872.2452" y2="912.2452" id="linearGradient4" spreadMethod="reflect">
        <stop stop-opacity="1" stop-color="rgb(232,238,247)" offset="0%"/>
        <stop stop-opacity="1" stop-color="rgb(183,201,227)" offset="100%"/>
      </linearGradient>
      <linearGradient x1="76.833" gradientUnits="userSpaceOnUse" x2="196.2475" y1="961.7386" y2="1001.7386" id="linearGradient5" spreadMethod="reflect">
        <stop stop-opacity="1" stop-color="rgb(232,238,247)" offset="0%"/>
        <stop stop-opacity="1" stop-color="rgb(183,201,227)" offset="100%"/>
      </linearGradient>
      <clipPath clipPathUnits="userSpaceOnUse" id="clipPath1">
        <path d="M0 0 L791 0 L791 619 L0 619 L0 0 Z"/>
      </clipPath>
      <clipPath clipPathUnits="userSpaceOnUse" id="clipPath2">
        <path d="M-183 424 L608 424 L608 1043 L-183 1043 L-183 424 Z"/>
      </clipPath>
    </defs>
    <g fill="white" text-rendering="geometricPrecision" shape-rendering="geometricPrecision" transform="translate(183,-424)" stroke="white">
      <rect x="-183" width="791" height="619" y="424" clip-path="url(#clipPath2)" stroke="none"/>
    </g>
    <g fill="white" text-rendering="geometricPrecision" shape-rendering="geometricPrecision" transform="matrix(1,0,0,1,183,-424)" stroke="white">
      <rect x="-167.1024" width="759.693" height="587.5261" y="439.5921" clip-path="url(#clipPath2)" stroke="none"/>
      <rect x="-167.1024" y="439.5921" clip-path="url(#clipPath2)" fill="rgb(235,235,235)" width="759.693" height="21.666" stroke="none"/>
    </g>
    <g font-size="15px" stroke-linecap="butt" transform="matrix(1,0,0,1,183,-424)" text-rendering="geometricPrecision" font-family="sans-serif" shape-rendering="geometricPrecision" stroke-miterlimit="1.45">
      <text x="169.073" xml:space="preserve" y="456.0941" clip-path="url(#clipPath2)" stroke="none">월렛 생명 주기</text>
      <rect fill="none" x="-167.1024" width="759.693" height="587.5261" y="439.5921" clip-path="url(#clipPath2)"/>
    </g>
    <g fill="white" text-rendering="geometricPrecision" shape-rendering="geometricPrecision" transform="matrix(1,0,0,1,183,-424)" stroke="white">
      <rect x="248.7965" width="314.7891" height="520.4804" y="481.2581" clip-path="url(#clipPath2)" stroke="none"/>
    </g>
    <g text-rendering="geometricPrecision" stroke-miterlimit="1.45" stroke-dasharray="6,2" shape-rendering="geometricPrecision" transform="matrix(1,0,0,1,183,-424)" stroke-linecap="butt">
      <rect fill="none" x="248.7965" width="314.7891" height="520.4804" y="481.2581" clip-path="url(#clipPath2)"/>
      <text x="254.7965" y="498.8597" clip-path="url(#clipPath2)" font-family="sans-serif" stroke-dasharray="none" stroke="none" xml:space="preserve">설명</text>
    </g>
    <g fill="white" text-rendering="geometricPrecision" shape-rendering="geometricPrecision" transform="matrix(1,0,0,1,183,-424)" stroke="white">
      <rect x="-141.2115" width="150.1972" height="520.4804" y="481.2581" clip-path="url(#clipPath2)" stroke="none"/>
    </g>
    <g text-rendering="geometricPrecision" stroke-miterlimit="1.45" stroke-dasharray="6,2" shape-rendering="geometricPrecision" transform="matrix(1,0,0,1,183,-424)" stroke-linecap="butt">
      <rect fill="none" x="-141.2115" width="150.1972" height="520.4804" y="481.2581" clip-path="url(#clipPath2)"/>
      <text x="-135.2115" y="498.8597" clip-path="url(#clipPath2)" font-family="sans-serif" stroke-dasharray="none" stroke="none" xml:space="preserve">purpose </text>
    </g>
    <g fill="white" text-rendering="geometricPrecision" shape-rendering="geometricPrecision" transform="matrix(1,0,0,1,183,-424)" stroke="white">
      <rect x="248.7965" width="314.7891" height="108.6004" y="613.1261" clip-path="url(#clipPath2)" stroke="none"/>
    </g>
    <g text-rendering="geometricPrecision" stroke-miterlimit="1.45" stroke-dasharray="6,2" shape-rendering="geometricPrecision" transform="matrix(1,0,0,1,183,-424)" stroke-linecap="butt">
      <rect fill="none" x="248.7965" width="314.7891" height="108.6004" y="613.1261" clip-path="url(#clipPath2)"/>
    </g>
    <g fill="white" text-rendering="geometricPrecision" shape-rendering="geometricPrecision" transform="matrix(1,0,0,1,183,-424)" stroke="white">
      <rect x="257.7713" width="293.8931" height="50.0483" y="667.1755" clip-path="url(#clipPath2)" stroke="none"/>
    </g>
    <g text-rendering="geometricPrecision" stroke-miterlimit="1.45" stroke-dasharray="6,2" shape-rendering="geometricPrecision" transform="matrix(1,0,0,1,183,-424)" stroke-linecap="butt">
      <rect fill="none" x="257.7713" width="293.8931" height="50.0483" y="667.1755" clip-path="url(#clipPath2)"/>
      <text x="263.7713" y="689.6685" clip-path="url(#clipPath2)" font-family="sans-serif" stroke-dasharray="none" stroke="none" xml:space="preserve">앱 재시작 시 월렛 상태가 잠금일 경우 </text>
      <text x="263.7713" y="703.8013" clip-path="url(#clipPath2)" font-family="sans-serif" stroke-dasharray="none" stroke="none" xml:space="preserve">기등록 된 사용자로컬 (PIN, BIO) 인증 후 잠금 해제 수행</text>
    </g>
    <g fill="white" text-rendering="geometricPrecision" shape-rendering="geometricPrecision" transform="matrix(1,0,0,1,183,-424)" stroke="white">
      <rect x="248.7965" width="314.7891" height="40" y="550.2418" clip-path="url(#clipPath2)" stroke="none"/>
    </g>
    <g text-rendering="geometricPrecision" stroke-miterlimit="1.45" stroke-dasharray="6,2" shape-rendering="geometricPrecision" transform="matrix(1,0,0,1,183,-424)" stroke-linecap="butt">
      <rect fill="none" x="248.7965" width="314.7891" height="40" y="550.2418" clip-path="url(#clipPath2)"/>
      <text x="261.2639" y="574.777" clip-path="url(#clipPath2)" font-family="sans-serif" stroke-dasharray="none" stroke="none" xml:space="preserve">월렛 생성 시 walletId, DeviceKey 생성</text>
    </g>
    <g fill="white" text-rendering="geometricPrecision" shape-rendering="geometricPrecision" transform="matrix(1,0,0,1,183,-424)" stroke="white">
      <rect x="248.7965" width="314.7891" height="52.3327" y="867.4768" clip-path="url(#clipPath2)" stroke="none"/>
    </g>
    <g text-rendering="geometricPrecision" stroke-miterlimit="1.45" stroke-dasharray="6,2" shape-rendering="geometricPrecision" transform="matrix(1,0,0,1,183,-424)" stroke-linecap="butt">
      <rect fill="none" x="248.7965" width="314.7891" height="52.3327" y="867.4768" clip-path="url(#clipPath2)"/>
      <text x="260.9192" y="891.1119" clip-path="url(#clipPath2)" font-family="sans-serif" stroke-dasharray="none" stroke="none" xml:space="preserve"> 월랫 잠금 상태 일 경우 PIN 인증 수행 후</text>
      <text x="260.9192" y="905.2447" clip-path="url(#clipPath2)" font-family="sans-serif" stroke-dasharray="none" stroke="none" xml:space="preserve"> 비개인화 월렛토큰으로 사용자 언바인딩 수행</text>
    </g>
    <g fill="white" text-rendering="geometricPrecision" shape-rendering="geometricPrecision" transform="matrix(1,0,0,1,183,-424)" stroke="white">
      <rect x="248.7965" width="314.7891" height="52.3327" y="757.6326" clip-path="url(#clipPath2)" stroke="none"/>
    </g>
    <g text-rendering="geometricPrecision" stroke-miterlimit="1.45" stroke-dasharray="6,2" shape-rendering="geometricPrecision" transform="matrix(1,0,0,1,183,-424)" stroke-linecap="butt">
      <rect fill="none" x="248.7965" width="314.7891" height="52.3327" y="757.6326" clip-path="url(#clipPath2)"/>
      <text x="260.9192" y="788.3342" clip-path="url(#clipPath2)" font-family="sans-serif" stroke-dasharray="none" stroke="none" xml:space="preserve">유저등록, VC발급/조회, VP 생성/제출 등의 월렛토큰 활용</text>
    </g>
    <g fill="white" text-rendering="geometricPrecision" shape-rendering="geometricPrecision" transform="matrix(1,0,0,1,183,-424)" stroke="white">
      <rect x="248.7965" width="314.7891" height="40" y="961.7386" clip-path="url(#clipPath2)" stroke="none"/>
    </g>
    <g text-rendering="geometricPrecision" stroke-miterlimit="1.45" stroke-dasharray="6,2" shape-rendering="geometricPrecision" transform="matrix(1,0,0,1,183,-424)" stroke-linecap="butt">
      <rect fill="none" x="248.7965" width="314.7891" height="40" y="961.7386" clip-path="url(#clipPath2)"/>
      <text x="261.0175" y="986.2737" clip-path="url(#clipPath2)" font-family="sans-serif" stroke-dasharray="none" stroke="none" xml:space="preserve">월렛 생성 전 상태로 변경</text>
    </g>
    <g fill="white" text-rendering="geometricPrecision" shape-rendering="geometricPrecision" transform="matrix(1,0,0,1,183,-424)" stroke="white">
      <circle r="15" clip-path="url(#clipPath2)" cx="136.5402" cy="496.2581" stroke="none"/>
    </g>
    <g text-rendering="geometricPrecision" stroke-miterlimit="1.45" shape-rendering="geometricPrecision" transform="matrix(1,0,0,1,183,-424)" stroke-linecap="butt">
      <circle fill="none" r="15" clip-path="url(#clipPath2)" cx="136.5402" cy="496.2581"/>
    </g>
    <g fill="white" text-rendering="geometricPrecision" shape-rendering="geometricPrecision" transform="matrix(1,0,0,1,183,-424)" stroke="white">
      <rect x="-141.2115" width="150.1972" height="52.3327" y="638.7408" clip-path="url(#clipPath2)" stroke="none"/>
    </g>
    <g text-rendering="geometricPrecision" stroke-miterlimit="1.45" stroke-dasharray="6,2" shape-rendering="geometricPrecision" transform="matrix(1,0,0,1,183,-424)" stroke-linecap="butt">
      <rect fill="none" x="-141.2115" width="150.1972" height="52.3327" y="638.7408" clip-path="url(#clipPath2)"/>
      <text x="-135.2115" y="655.3095" clip-path="url(#clipPath2)" font-family="sans-serif" stroke-dasharray="none" stroke="none" xml:space="preserve">개인화(1)</text>
      <text x="-135.2115" y="669.4423" clip-path="url(#clipPath2)" font-family="sans-serif" stroke-dasharray="none" stroke="none" xml:space="preserve">개인화+월렛잠금설정(3)</text>
      <text x="-135.2115" y="683.5751" clip-path="url(#clipPath2)" font-family="sans-serif" stroke-dasharray="none" stroke="none" xml:space="preserve">월렛잠금설정(4)</text>
    </g>
    <g fill="white" text-rendering="geometricPrecision" shape-rendering="geometricPrecision" transform="matrix(1,0,0,1,183,-424)" stroke="white">
      <rect x="-141.2115" width="150.1972" height="145.4144" y="698.3206" clip-path="url(#clipPath2)" stroke="none"/>
    </g>
    <g text-rendering="geometricPrecision" stroke-miterlimit="1.45" stroke-dasharray="6,2" shape-rendering="geometricPrecision" transform="matrix(1,0,0,1,183,-424)" stroke-linecap="butt">
      <rect fill="none" x="-141.2115" width="150.1972" height="145.4144" y="698.3206" clip-path="url(#clipPath2)"/>
      <text x="-146.7373" y="711.9653" clip-path="url(#clipPath2)" font-family="sans-serif" stroke-dasharray="none" stroke="none" xml:space="preserve">DID생성(5)</text>
      <text x="-146.7373" y="726.0981" clip-path="url(#clipPath2)" font-family="sans-serif" stroke-dasharray="none" stroke="none" xml:space="preserve">DID갱신(6)</text>
      <text x="-146.7373" y="740.2309" clip-path="url(#clipPath2)" font-family="sans-serif" stroke-dasharray="none" stroke="none" xml:space="preserve">DID복구(7)</text>
      <text x="-146.7373" y="754.3637" clip-path="url(#clipPath2)" font-family="sans-serif" stroke-dasharray="none" stroke="none" xml:space="preserve">VC발급(8)</text>
      <text x="-146.7373" y="768.4965" clip-path="url(#clipPath2)" font-family="sans-serif" stroke-dasharray="none" stroke="none" xml:space="preserve">VC삭제(9)</text>
      <text x="-146.7373" y="782.6293" clip-path="url(#clipPath2)" font-family="sans-serif" stroke-dasharray="none" stroke="none" xml:space="preserve">VP제출(10)</text>
      <text x="-146.7373" y="796.7621" clip-path="url(#clipPath2)" font-family="sans-serif" stroke-dasharray="none" stroke="none" xml:space="preserve">VC목록조회(11)</text>
      <text x="-146.7373" y="810.895" clip-path="url(#clipPath2)" font-family="sans-serif" stroke-dasharray="none" stroke="none" xml:space="preserve">VC상세정보조회(12)</text>
      <text x="-146.7373" y="825.0278" clip-path="url(#clipPath2)" font-family="sans-serif" stroke-dasharray="none" stroke="none" xml:space="preserve">DID발급+VC발급(13)</text>
      <text x="-146.7373" y="839.1606" clip-path="url(#clipPath2)" font-family="sans-serif" stroke-dasharray="none" stroke="none" xml:space="preserve">VC목록조회+VP제출(14)</text>
    </g>
    <g fill="white" text-rendering="geometricPrecision" shape-rendering="geometricPrecision" transform="matrix(1,0,0,1,183,-424)" stroke="white">
      <rect x="-141.2115" width="150.1972" height="40" y="870.7093" clip-path="url(#clipPath2)" stroke="none"/>
    </g>
    <g text-rendering="geometricPrecision" stroke-miterlimit="1.45" stroke-dasharray="6,2" shape-rendering="geometricPrecision" transform="matrix(1,0,0,1,183,-424)" stroke-linecap="butt">
      <rect fill="none" x="-141.2115" width="150.1972" height="40" y="870.7093" clip-path="url(#clipPath2)"/>
      <text x="-135.2115" y="895.2444" clip-path="url(#clipPath2)" font-family="sans-serif" stroke-dasharray="none" stroke="none" xml:space="preserve">비개인화(2)</text>
    </g>
    <g fill="white" text-rendering="geometricPrecision" shape-rendering="geometricPrecision" transform="matrix(1,0,0,1,183,-424)" stroke="white">
      <rect x="257.7713" width="293.8931" height="40" y="620.2418" clip-path="url(#clipPath2)" stroke="none"/>
    </g>
    <g text-rendering="geometricPrecision" stroke-miterlimit="1.45" stroke-dasharray="6,2" shape-rendering="geometricPrecision" transform="matrix(1,0,0,1,183,-424)" stroke-linecap="butt">
      <rect fill="none" x="257.7713" width="293.8931" height="40" y="620.2418" clip-path="url(#clipPath2)"/>
      <text x="263.7713" y="637.5778" clip-path="url(#clipPath2)" font-family="sans-serif" stroke-dasharray="none" stroke="none" xml:space="preserve">앱 최초 실행시 개인화 월렛토큰으로 사용자 바인딩</text>
      <text x="263.7713" y="651.7106" clip-path="url(#clipPath2)" font-family="sans-serif" stroke-dasharray="none" stroke="none" xml:space="preserve">선택사항으로 월랫잠금 토큰으로 잠금형태의 월렛 설정</text>
    </g>
    <g fill="url(#linearGradient1)" text-rendering="geometricPrecision" shape-rendering="geometricPrecision" transform="matrix(1,0,0,1,183,-424)" stroke="url(#linearGradient1)">
      <rect x="76.833" y="549.999" clip-path="url(#clipPath2)" width="119.4146" rx="20" ry="20" height="40" stroke="none"/>
    </g>
    <g text-rendering="geometricPrecision" stroke-miterlimit="1.45" shape-rendering="geometricPrecision" transform="matrix(1,0,0,1,183,-424)" stroke-linecap="butt">
      <rect x="76.833" y="549.999" clip-path="url(#clipPath2)" fill="none" width="119.4146" rx="20" ry="20" height="40"/>
      <text x="113.8818" xml:space="preserve" y="574.5342" clip-path="url(#clipPath2)" font-family="sans-serif" stroke="none">월렛 생성</text>
    </g>
    <g fill="url(#linearGradient2)" text-rendering="geometricPrecision" shape-rendering="geometricPrecision" transform="matrix(1,0,0,1,183,-424)" stroke="url(#linearGradient2)">
      <path d="M66.3867 644.9072 L206.6937 644.9072 L206.6937 684.9072 L66.3867 684.9072 Z" stroke="none" clip-path="url(#clipPath2)"/>
    </g>
    <g text-rendering="geometricPrecision" stroke-miterlimit="1.45" shape-rendering="geometricPrecision" transform="matrix(1,0,0,1,183,-424)" stroke-linecap="butt">
      <path fill="none" d="M66.3867 644.9072 L206.6937 644.9072 L206.6937 684.9072 L66.3867 684.9072 Z" clip-path="url(#clipPath2)"/>
      <text x="82.805" xml:space="preserve" y="669.4423" clip-path="url(#clipPath2)" font-family="sans-serif" stroke="none">개인화 (opt 잠금유무)</text>
    </g>
    <g fill="url(#linearGradient3)" text-rendering="geometricPrecision" shape-rendering="geometricPrecision" transform="matrix(1,0,0,1,183,-424)" stroke="url(#linearGradient3)">
      <path d="M66.3867 763.799 L206.6937 763.799 L206.6937 803.799 L66.3867 803.799 Z" stroke="none" clip-path="url(#clipPath2)"/>
    </g>
    <g text-rendering="geometricPrecision" stroke-miterlimit="1.45" shape-rendering="geometricPrecision" transform="matrix(1,0,0,1,183,-424)" stroke-linecap="butt">
      <path fill="none" d="M66.3867 763.799 L206.6937 763.799 L206.6937 803.799 L66.3867 803.799 Z" clip-path="url(#clipPath2)"/>
      <text x="113.8818" xml:space="preserve" y="788.3342" clip-path="url(#clipPath2)" font-family="sans-serif" stroke="none">월렛 운영</text>
    </g>
    <g fill="url(#linearGradient4)" text-rendering="geometricPrecision" shape-rendering="geometricPrecision" transform="matrix(1,0,0,1,183,-424)" stroke="url(#linearGradient4)">
      <path d="M66.3867 872.2452 L206.6937 872.2452 L206.6937 912.2452 L66.3867 912.2452 Z" stroke="none" clip-path="url(#clipPath2)"/>
    </g>
    <g text-rendering="geometricPrecision" stroke-miterlimit="1.45" shape-rendering="geometricPrecision" transform="matrix(1,0,0,1,183,-424)" stroke-linecap="butt">
      <path fill="none" d="M66.3867 872.2452 L206.6937 872.2452 L206.6937 912.2452 L66.3867 912.2452 Z" clip-path="url(#clipPath2)"/>
      <text x="115.7802" xml:space="preserve" y="896.7804" clip-path="url(#clipPath2)" font-family="sans-serif" stroke="none">비개인화</text>
    </g>
    <g fill="url(#linearGradient5)" text-rendering="geometricPrecision" shape-rendering="geometricPrecision" transform="matrix(1,0,0,1,183,-424)" stroke="url(#linearGradient5)">
      <rect x="76.833" y="961.7386" clip-path="url(#clipPath2)" width="119.4146" rx="20" ry="20" height="40" stroke="none"/>
    </g>
    <g text-rendering="geometricPrecision" stroke-miterlimit="1.45" shape-rendering="geometricPrecision" transform="matrix(1,0,0,1,183,-424)" stroke-linecap="butt">
      <rect x="76.833" y="961.7386" clip-path="url(#clipPath2)" fill="none" width="119.4146" rx="20" ry="20" height="40"/>
      <text x="113.8818" xml:space="preserve" y="986.2737" clip-path="url(#clipPath2)" font-family="sans-serif" stroke="none">월렛 삭제</text>
    </g>
    <g text-rendering="geometricPrecision" stroke-miterlimit="1.45" shape-rendering="geometricPrecision" transform="matrix(1,0,0,1,183,-424)" stroke-linecap="butt">
      <path fill="none" d="M136.5402 511.2581 L136.5402 539.0076" clip-path="url(#clipPath2)"/>
      <path d="M136.5402 550.0076 L142.5402 538.0076 L130.5402 538.0076 Z" clip-path="url(#clipPath2)" stroke="none"/>
    </g>
    <g text-rendering="geometricPrecision" stroke-miterlimit="1.45" shape-rendering="geometricPrecision" transform="matrix(1,0,0,1,183,-424)" stroke-linecap="butt">
      <path fill="none" d="M136.5402 589.9724 L136.5402 633.8929" clip-path="url(#clipPath2)"/>
      <path d="M136.5402 644.8929 L142.5402 632.8929 L130.5402 632.8929 Z" clip-path="url(#clipPath2)" stroke="none"/>
    </g>
    <g text-rendering="geometricPrecision" stroke-miterlimit="1.45" shape-rendering="geometricPrecision" transform="matrix(1,0,0,1,183,-424)" stroke-linecap="butt">
      <path fill="none" d="M136.5402 684.9063 L136.5402 752.7597" clip-path="url(#clipPath2)"/>
      <path d="M136.5402 763.7597 L142.5402 751.7597 L130.5402 751.7597 Z" clip-path="url(#clipPath2)" stroke="none"/>
    </g>
    <g text-rendering="geometricPrecision" stroke-miterlimit="1.45" shape-rendering="geometricPrecision" transform="matrix(1,0,0,1,183,-424)" stroke-linecap="butt">
      <path fill="none" d="M136.5402 803.7885 L136.5402 861.2474" clip-path="url(#clipPath2)"/>
      <path d="M136.5402 872.2474 L142.5402 860.2474 L130.5402 860.2474 Z" clip-path="url(#clipPath2)" stroke="none"/>
    </g>
    <g text-rendering="geometricPrecision" stroke-miterlimit="1.45" shape-rendering="geometricPrecision" transform="matrix(1,0,0,1,183,-424)" stroke-linecap="butt">
      <path fill="none" d="M66.404 892.2452 L38.9857 892.2452 L34.6107 891.6202 L31.4857 889.7452 L29.6107 886.6202 L28.9857 882.2452 L28.9857 674.9072 L29.6107 670.5322 L31.4857 667.4072 L34.6107 665.5322 L38.9857 664.9072 L55.404 664.9072" clip-path="url(#clipPath2)"/>
      <path d="M66.404 664.9072 L54.404 658.9072 L54.404 670.9072 Z" clip-path="url(#clipPath2)" stroke="none"/>
    </g>
    <g text-rendering="geometricPrecision" stroke-miterlimit="1.45" shape-rendering="geometricPrecision" transform="matrix(1,0,0,1,183,-424)" stroke-linecap="butt">
      <path fill="none" d="M136.5402 912.2152 L136.5402 950.7438" clip-path="url(#clipPath2)"/>
      <path d="M136.5402 961.7438 L142.5402 949.7438 L130.5402 949.7438 Z" clip-path="url(#clipPath2)" stroke="none"/>
    </g>
    <g text-rendering="geometricPrecision" stroke-miterlimit="1.45" shape-rendering="geometricPrecision" transform="matrix(1,0,0,1,183,-424)" stroke-linecap="butt">
      <path fill="none" d="M76.8574 981.7386 L24.3294 981.7386 L19.9544 981.1136 L16.8294 979.2386 L14.9544 976.1136 L14.3294 971.7386 L14.3294 513.8483 L14.9544 509.4733 L16.8294 506.3483 L19.9544 504.4733 L24.3294 503.8483 L110.5402 503.8483" clip-path="url(#clipPath2)"/>
      <path d="M121.5402 503.8483 L109.5402 497.8483 L109.5402 509.8483 Z" clip-path="url(#clipPath2)" stroke="none"/>
    </g>
  </g>
</svg>
