<?xml version="1.0" encoding="UTF-8"?><svg xmlns="http://www.w3.org/2000/svg" xmlns:xlink="http://www.w3.org/1999/xlink" fill-opacity="1" color-rendering="auto" color-interpolation="auto" text-rendering="auto" stroke="black" stroke-linecap="square" width="1132" stroke-miterlimit="10" shape-rendering="auto" stroke-opacity="1" fill="black" stroke-dasharray="none" font-weight="normal" stroke-width="1" height="618" font-family="'Dialog'" font-style="normal" stroke-linejoin="miter" font-size="12px" stroke-dashoffset="0" image-rendering="auto">
  <!--Generated by ySVG 2.6-->
  <defs id="genericDefs"/>
  <g>
    <defs id="defs1">
      <linearGradient x1="13.2789" gradientUnits="userSpaceOnUse" x2="132.6935" y1="538.6381" y2="578.6381" id="linearGradient1" spreadMethod="reflect">
        <stop stop-opacity="1" stop-color="rgb(232,238,247)" offset="0%"/>
        <stop stop-opacity="1" stop-color="rgb(183,201,227)" offset="100%"/>
      </linearGradient>
      <linearGradient x1="2.8327" gradientUnits="userSpaceOnUse" x2="143.1397" y1="633.5462" y2="673.5462" id="linearGradient2" spreadMethod="reflect">
        <stop stop-opacity="1" stop-color="rgb(232,238,247)" offset="0%"/>
        <stop stop-opacity="1" stop-color="rgb(183,201,227)" offset="100%"/>
      </linearGradient>
      <linearGradient x1="2.8327" gradientUnits="userSpaceOnUse" x2="143.1397" y1="752.438" y2="792.438" id="linearGradient3" spreadMethod="reflect">
        <stop stop-opacity="1" stop-color="rgb(232,238,247)" offset="0%"/>
        <stop stop-opacity="1" stop-color="rgb(183,201,227)" offset="100%"/>
      </linearGradient>
      <linearGradient x1="2.8327" gradientUnits="userSpaceOnUse" x2="143.1397" y1="860.8843" y2="900.8843" id="linearGradient4" spreadMethod="reflect">
        <stop stop-opacity="1" stop-color="rgb(232,238,247)" offset="0%"/>
        <stop stop-opacity="1" stop-color="rgb(183,201,227)" offset="100%"/>
      </linearGradient>
      <linearGradient x1="13.2789" gradientUnits="userSpaceOnUse" x2="132.6935" y1="950.3776" y2="990.3776" id="linearGradient5" spreadMethod="reflect">
        <stop stop-opacity="1" stop-color="rgb(232,238,247)" offset="0%"/>
        <stop stop-opacity="1" stop-color="rgb(183,201,227)" offset="100%"/>
      </linearGradient>
      <clipPath clipPathUnits="userSpaceOnUse" id="clipPath1">
        <path d="M0 0 L1132 0 L1132 618 L0 618 L0 0 Z"/>
      </clipPath>
      <clipPath clipPathUnits="userSpaceOnUse" id="clipPath2">
        <path d="M-334 413 L798 413 L798 1031 L-334 1031 L-334 413 Z"/>
      </clipPath>
    </defs>
    <g fill="white" text-rendering="geometricPrecision" shape-rendering="geometricPrecision" transform="translate(334,-413)" stroke="white">
      <rect x="-334" width="1132" height="618" y="413" clip-path="url(#clipPath2)" stroke="none"/>
    </g>
    <g fill="white" text-rendering="geometricPrecision" shape-rendering="geometricPrecision" transform="matrix(1,0,0,1,334,-413)" stroke="white">
      <rect x="-318.1655" width="1100.4165" height="587.5261" y="428.2311" clip-path="url(#clipPath2)" stroke="none"/>
      <rect x="-318.1655" y="428.2311" clip-path="url(#clipPath2)" fill="rgb(235,235,235)" width="1100.4165" height="21.666" stroke="none"/>
    </g>
    <g font-size="15px" stroke-linecap="butt" transform="matrix(1,0,0,1,334,-413)" text-rendering="geometricPrecision" font-family="sans-serif" shape-rendering="geometricPrecision" stroke-miterlimit="1.45">
      <text x="176.7412" xml:space="preserve" y="444.7331" clip-path="url(#clipPath2)" stroke="none">Wallet Lifecycle</text>
      <rect fill="none" x="-318.1655" width="1100.4165" height="587.5261" y="428.2311" clip-path="url(#clipPath2)"/>
    </g>
    <g fill="white" text-rendering="geometricPrecision" shape-rendering="geometricPrecision" transform="matrix(1,0,0,1,334,-413)" stroke="white">
      <rect x="185.2424" width="314.7891" height="520.4804" y="469.8971" clip-path="url(#clipPath2)" stroke="none"/>
    </g>
    <g text-rendering="geometricPrecision" stroke-miterlimit="1.45" stroke-dasharray="6,2" shape-rendering="geometricPrecision" transform="matrix(1,0,0,1,334,-413)" stroke-linecap="butt">
      <rect fill="none" x="185.2424" width="314.7891" height="520.4804" y="469.8971" clip-path="url(#clipPath2)"/>
      <text x="191.2424" y="487.4987" clip-path="url(#clipPath2)" font-family="sans-serif" stroke-dasharray="none" stroke="none" xml:space="preserve">Overview</text>
    </g>
    <g fill="white" text-rendering="geometricPrecision" shape-rendering="geometricPrecision" transform="matrix(1,0,0,1,334,-413)" stroke="white">
      <rect x="-303.1655" width="240.5972" height="520.4804" y="469.8971" clip-path="url(#clipPath2)" stroke="none"/>
    </g>
    <g text-rendering="geometricPrecision" stroke-miterlimit="1.45" stroke-dasharray="6,2" shape-rendering="geometricPrecision" transform="matrix(1,0,0,1,334,-413)" stroke-linecap="butt">
      <rect fill="none" x="-303.1655" width="240.5972" height="520.4804" y="469.8971" clip-path="url(#clipPath2)"/>
      <text x="-297.1655" y="487.4987" clip-path="url(#clipPath2)" font-family="sans-serif" stroke-dasharray="none" stroke="none" xml:space="preserve">purpose </text>
    </g>
    <g fill="white" text-rendering="geometricPrecision" shape-rendering="geometricPrecision" transform="matrix(1,0,0,1,334,-413)" stroke="white">
      <rect x="185.2424" width="314.7891" height="108.6004" y="601.7651" clip-path="url(#clipPath2)" stroke="none"/>
    </g>
    <g text-rendering="geometricPrecision" stroke-miterlimit="1.45" stroke-dasharray="6,2" shape-rendering="geometricPrecision" transform="matrix(1,0,0,1,334,-413)" stroke-linecap="butt">
      <rect fill="none" x="185.2424" width="314.7891" height="108.6004" y="601.7651" clip-path="url(#clipPath2)"/>
    </g>
    <g fill="white" text-rendering="geometricPrecision" shape-rendering="geometricPrecision" transform="matrix(1,0,0,1,334,-413)" stroke="white">
      <rect x="194.2173" width="293.8931" height="50.0483" y="655.8146" clip-path="url(#clipPath2)" stroke="none"/>
    </g>
    <g text-rendering="geometricPrecision" stroke-miterlimit="1.45" stroke-dasharray="6,2" shape-rendering="geometricPrecision" transform="matrix(1,0,0,1,334,-413)" stroke-linecap="butt">
      <rect fill="none" x="194.2173" width="293.8931" height="50.0483" y="655.8146" clip-path="url(#clipPath2)"/>
      <text x="200.2173" y="678.3075" clip-path="url(#clipPath2)" font-family="sans-serif" stroke-dasharray="none" stroke="none" xml:space="preserve">If the wallet is locked when the app restarts, </text>
      <text x="200.2173" y="692.4403" clip-path="url(#clipPath2)" font-family="sans-serif" stroke-dasharray="none" stroke="none" xml:space="preserve">unlock it after authenticating with the registered local user (PIN, BIO)</text>
    </g>
    <g fill="white" text-rendering="geometricPrecision" shape-rendering="geometricPrecision" transform="matrix(1,0,0,1,334,-413)" stroke="white">
      <rect x="185.2424" width="314.7891" height="40" y="538.8809" clip-path="url(#clipPath2)" stroke="none"/>
    </g>
    <g text-rendering="geometricPrecision" stroke-miterlimit="1.45" stroke-dasharray="6,2" shape-rendering="geometricPrecision" transform="matrix(1,0,0,1,334,-413)" stroke-linecap="butt">
      <rect fill="none" x="185.2424" width="314.7891" height="40" y="538.8809" clip-path="url(#clipPath2)"/>
      <text x="131.6941" y="563.416" clip-path="url(#clipPath2)" font-family="sans-serif" stroke-dasharray="none" stroke="none" xml:space="preserve"> when creating the wallet, walletId, DeviceKey generation</text>
    </g>
    <g fill="white" text-rendering="geometricPrecision" shape-rendering="geometricPrecision" transform="matrix(1,0,0,1,334,-413)" stroke="white">
      <rect x="185.2424" width="314.7891" height="52.3327" y="856.1158" clip-path="url(#clipPath2)" stroke="none"/>
    </g>
    <g text-rendering="geometricPrecision" stroke-miterlimit="1.45" stroke-dasharray="6,2" shape-rendering="geometricPrecision" transform="matrix(1,0,0,1,334,-413)" stroke-linecap="butt">
      <rect fill="none" x="185.2424" width="314.7891" height="52.3327" y="856.1158" clip-path="url(#clipPath2)"/>
      <text x="197.3651" y="879.7509" clip-path="url(#clipPath2)" font-family="sans-serif" stroke-dasharray="none" stroke="none" xml:space="preserve">  If the wallet is locked, authenticate with PIN</text>
      <text x="197.3651" y="893.8837" clip-path="url(#clipPath2)" font-family="sans-serif" stroke-dasharray="none" stroke="none" xml:space="preserve"> unbind the user with a depersonalized wallet token</text>
    </g>
    <g fill="white" text-rendering="geometricPrecision" shape-rendering="geometricPrecision" transform="matrix(1,0,0,1,334,-413)" stroke="white">
      <rect x="185.2424" width="314.7891" height="52.3327" y="746.2717" clip-path="url(#clipPath2)" stroke="none"/>
    </g>
    <g text-rendering="geometricPrecision" stroke-miterlimit="1.45" stroke-dasharray="6,2" shape-rendering="geometricPrecision" transform="matrix(1,0,0,1,334,-413)" stroke-linecap="butt">
      <rect fill="none" x="185.2424" width="314.7891" height="52.3327" y="746.2717" clip-path="url(#clipPath2)"/>
      <text x="197.3651" y="776.9731" clip-path="url(#clipPath2)" font-family="sans-serif" stroke-dasharray="none" stroke="none" xml:space="preserve">Utilization of wallet token for user registration, VC issue Offer/Query, VP creation/Presentation</text>
    </g>
    <g fill="white" text-rendering="geometricPrecision" shape-rendering="geometricPrecision" transform="matrix(1,0,0,1,334,-413)" stroke="white">
      <rect x="185.2424" width="314.7891" height="40" y="950.3776" clip-path="url(#clipPath2)" stroke="none"/>
    </g>
    <g text-rendering="geometricPrecision" stroke-miterlimit="1.45" stroke-dasharray="6,2" shape-rendering="geometricPrecision" transform="matrix(1,0,0,1,334,-413)" stroke-linecap="butt">
      <rect fill="none" x="185.2424" width="314.7891" height="40" y="950.3776" clip-path="url(#clipPath2)"/>
      <text x="197.4635" y="974.9128" clip-path="url(#clipPath2)" font-family="sans-serif" stroke-dasharray="none" stroke="none" xml:space="preserve">Change to pre-wallet creation state</text>
    </g>
    <g fill="white" text-rendering="geometricPrecision" shape-rendering="geometricPrecision" transform="matrix(1,0,0,1,334,-413)" stroke="white">
      <circle r="15" clip-path="url(#clipPath2)" cx="72.9862" cy="484.8971" stroke="none"/>
    </g>
    <g text-rendering="geometricPrecision" stroke-miterlimit="1.45" shape-rendering="geometricPrecision" transform="matrix(1,0,0,1,334,-413)" stroke-linecap="butt">
      <circle fill="none" r="15" clip-path="url(#clipPath2)" cx="72.9862" cy="484.8971"/>
    </g>
    <g fill="white" text-rendering="geometricPrecision" shape-rendering="geometricPrecision" transform="matrix(1,0,0,1,334,-413)" stroke="white">
      <rect x="-300.3655" width="232.5972" height="52.3327" y="612.9799" clip-path="url(#clipPath2)" stroke="none"/>
    </g>
    <g text-rendering="geometricPrecision" stroke-miterlimit="1.45" stroke-dasharray="6,2" shape-rendering="geometricPrecision" transform="matrix(1,0,0,1,334,-413)" stroke-linecap="butt">
      <rect fill="none" x="-300.3655" width="232.5972" height="52.3327" y="612.9799" clip-path="url(#clipPath2)"/>
      <text x="-294.3655" y="629.5485" clip-path="url(#clipPath2)" font-family="sans-serif" stroke-dasharray="none" stroke="none" xml:space="preserve">Personalization(1)</text>
      <text x="-294.3655" y="643.6813" clip-path="url(#clipPath2)" font-family="sans-serif" stroke-dasharray="none" stroke="none" xml:space="preserve">Personalization+Wallet Lock Setting(3)</text>
      <text x="-294.3655" y="657.8141" clip-path="url(#clipPath2)" font-family="sans-serif" stroke-dasharray="none" stroke="none" xml:space="preserve">Wallet Lock Setting(4)</text>
    </g>
    <g fill="white" text-rendering="geometricPrecision" shape-rendering="geometricPrecision" transform="matrix(1,0,0,1,334,-413)" stroke="white">
      <rect x="-297.5655" width="229.7972" height="152.6614" y="679.7125" clip-path="url(#clipPath2)" stroke="none"/>
    </g>
    <g text-rendering="geometricPrecision" stroke-miterlimit="1.45" stroke-dasharray="6,2" shape-rendering="geometricPrecision" transform="matrix(1,0,0,1,334,-413)" stroke-linecap="butt">
      <rect fill="none" x="-297.5655" width="229.7972" height="152.6614" y="679.7125" clip-path="url(#clipPath2)"/>
      <text x="-297.0647" y="696.9808" clip-path="url(#clipPath2)" font-family="sans-serif" stroke-dasharray="none" stroke="none" xml:space="preserve">DID Issueance(5)</text>
      <text x="-297.0647" y="711.1136" clip-path="url(#clipPath2)" font-family="sans-serif" stroke-dasharray="none" stroke="none" xml:space="preserve">DID Update(6)</text>
      <text x="-297.0647" y="725.2464" clip-path="url(#clipPath2)" font-family="sans-serif" stroke-dasharray="none" stroke="none" xml:space="preserve">DID Restore(7)</text>
      <text x="-297.0647" y="739.3792" clip-path="url(#clipPath2)" font-family="sans-serif" stroke-dasharray="none" stroke="none" xml:space="preserve">VC Issuance(8)</text>
      <text x="-297.0647" y="753.512" clip-path="url(#clipPath2)" font-family="sans-serif" stroke-dasharray="none" stroke="none" xml:space="preserve">VC Deletion(9)</text>
      <text x="-297.0647" y="767.6448" clip-path="url(#clipPath2)" font-family="sans-serif" stroke-dasharray="none" stroke="none" xml:space="preserve">VP Presentation(10)</text>
      <text x="-297.0647" y="781.7776" clip-path="url(#clipPath2)" font-family="sans-serif" stroke-dasharray="none" stroke="none" xml:space="preserve">VC List Query(11)</text>
      <text x="-297.0647" y="795.9105" clip-path="url(#clipPath2)" font-family="sans-serif" stroke-dasharray="none" stroke="none" xml:space="preserve">VC Detail Query(12)</text>
      <text x="-297.0647" y="810.0433" clip-path="url(#clipPath2)" font-family="sans-serif" stroke-dasharray="none" stroke="none" xml:space="preserve">DID Issuance+VCIssuance(13)</text>
      <text x="-297.0647" y="824.1761" clip-path="url(#clipPath2)" font-family="sans-serif" stroke-dasharray="none" stroke="none" xml:space="preserve">VC List+VPPresentation(14)</text>
    </g>
    <g fill="white" text-rendering="geometricPrecision" shape-rendering="geometricPrecision" transform="matrix(1,0,0,1,334,-413)" stroke="white">
      <rect x="-300.3655" width="228.1972" height="40" y="859.3483" clip-path="url(#clipPath2)" stroke="none"/>
    </g>
    <g text-rendering="geometricPrecision" stroke-miterlimit="1.45" stroke-dasharray="6,2" shape-rendering="geometricPrecision" transform="matrix(1,0,0,1,334,-413)" stroke-linecap="butt">
      <rect fill="none" x="-300.3655" width="228.1972" height="40" y="859.3483" clip-path="url(#clipPath2)"/>
      <text x="-294.3655" y="883.8835" clip-path="url(#clipPath2)" font-family="sans-serif" stroke-dasharray="none" stroke="none" xml:space="preserve">Depersonalization(2)</text>
    </g>
    <g fill="white" text-rendering="geometricPrecision" shape-rendering="geometricPrecision" transform="matrix(1,0,0,1,334,-413)" stroke="white">
      <rect x="194.2173" width="293.8931" height="40" y="608.8809" clip-path="url(#clipPath2)" stroke="none"/>
    </g>
    <g text-rendering="geometricPrecision" stroke-miterlimit="1.45" stroke-dasharray="6,2" shape-rendering="geometricPrecision" transform="matrix(1,0,0,1,334,-413)" stroke-linecap="butt">
      <rect fill="none" x="194.2173" width="293.8931" height="40" y="608.8809" clip-path="url(#clipPath2)"/>
      <text x="200.2173" y="626.2168" clip-path="url(#clipPath2)" font-family="sans-serif" stroke-dasharray="none" stroke="none" xml:space="preserve">Bind the user with a personalized wallet token when the app is first executed</text>
      <text x="200.2173" y="640.3496" clip-path="url(#clipPath2)" font-family="sans-serif" stroke-dasharray="none" stroke="none" xml:space="preserve">optionally set the wallet as locked with a wallet lock token</text>
    </g>
    <g fill="url(#linearGradient1)" text-rendering="geometricPrecision" shape-rendering="geometricPrecision" transform="matrix(1,0,0,1,334,-413)" stroke="url(#linearGradient1)">
      <rect x="13.2789" y="538.6381" clip-path="url(#clipPath2)" width="119.4146" rx="20" ry="20" height="40" stroke="none"/>
    </g>
    <g text-rendering="geometricPrecision" stroke-miterlimit="1.45" shape-rendering="geometricPrecision" transform="matrix(1,0,0,1,334,-413)" stroke-linecap="butt">
      <rect x="13.2789" y="538.6381" clip-path="url(#clipPath2)" fill="none" width="119.4146" rx="20" ry="20" height="40"/>
      <text x="28.9354" xml:space="preserve" y="563.1732" clip-path="url(#clipPath2)" font-family="sans-serif" stroke="none">Wallet Creation</text>
    </g>
    <g fill="url(#linearGradient2)" text-rendering="geometricPrecision" shape-rendering="geometricPrecision" transform="matrix(1,0,0,1,334,-413)" stroke="url(#linearGradient2)">
      <path d="M2.8327 633.5462 L143.1397 633.5462 L143.1397 673.5462 L2.8327 673.5462 Z" stroke="none" clip-path="url(#clipPath2)"/>
    </g>
    <g text-rendering="geometricPrecision" stroke-miterlimit="1.45" shape-rendering="geometricPrecision" transform="matrix(1,0,0,1,334,-413)" stroke-linecap="butt">
      <path fill="none" d="M2.8327 633.5462 L143.1397 633.5462 L143.1397 673.5462 L2.8327 673.5462 Z" clip-path="url(#clipPath2)"/>
      <text x="-26.7199" xml:space="preserve" y="658.0814" clip-path="url(#clipPath2)" font-family="sans-serif" stroke="none">Personalization (opt optional lock)</text>
    </g>
    <g fill="url(#linearGradient3)" text-rendering="geometricPrecision" shape-rendering="geometricPrecision" transform="matrix(1,0,0,1,334,-413)" stroke="url(#linearGradient3)">
      <path d="M2.8327 752.438 L143.1397 752.438 L143.1397 792.438 L2.8327 792.438 Z" stroke="none" clip-path="url(#clipPath2)"/>
    </g>
    <g text-rendering="geometricPrecision" stroke-miterlimit="1.45" shape-rendering="geometricPrecision" transform="matrix(1,0,0,1,334,-413)" stroke-linecap="butt">
      <path fill="none" d="M2.8327 752.438 L143.1397 752.438 L143.1397 792.438 L2.8327 792.438 Z" clip-path="url(#clipPath2)"/>
      <text x="24.6493" xml:space="preserve" y="776.9731" clip-path="url(#clipPath2)" font-family="sans-serif" stroke="none">Wallet Operation</text>
    </g>
    <g fill="url(#linearGradient4)" text-rendering="geometricPrecision" shape-rendering="geometricPrecision" transform="matrix(1,0,0,1,334,-413)" stroke="url(#linearGradient4)">
      <path d="M2.8327 860.8843 L143.1397 860.8843 L143.1397 900.8843 L2.8327 900.8843 Z" stroke="none" clip-path="url(#clipPath2)"/>
    </g>
    <g text-rendering="geometricPrecision" stroke-miterlimit="1.45" shape-rendering="geometricPrecision" transform="matrix(1,0,0,1,334,-413)" stroke-linecap="butt">
      <path fill="none" d="M2.8327 860.8843 L143.1397 860.8843 L143.1397 900.8843 L2.8327 900.8843 Z" clip-path="url(#clipPath2)"/>
      <text x="20.1844" xml:space="preserve" y="885.4194" clip-path="url(#clipPath2)" font-family="sans-serif" stroke="none">Depersonalization</text>
    </g>
    <g fill="url(#linearGradient5)" text-rendering="geometricPrecision" shape-rendering="geometricPrecision" transform="matrix(1,0,0,1,334,-413)" stroke="url(#linearGradient5)">
      <rect x="13.2789" y="950.3776" clip-path="url(#clipPath2)" width="119.4146" rx="20" ry="20" height="40" stroke="none"/>
    </g>
    <g text-rendering="geometricPrecision" stroke-miterlimit="1.45" shape-rendering="geometricPrecision" transform="matrix(1,0,0,1,334,-413)" stroke-linecap="butt">
      <rect x="13.2789" y="950.3776" clip-path="url(#clipPath2)" fill="none" width="119.4146" rx="20" ry="20" height="40"/>
      <text x="29.284" xml:space="preserve" y="974.9128" clip-path="url(#clipPath2)" font-family="sans-serif" stroke="none">Wallet Deletion</text>
    </g>
    <g text-rendering="geometricPrecision" stroke-miterlimit="1.45" shape-rendering="geometricPrecision" transform="matrix(1,0,0,1,334,-413)" stroke-linecap="butt">
      <path fill="none" d="M72.9862 499.8972 L72.9862 527.6467" clip-path="url(#clipPath2)"/>
      <path d="M72.9862 538.6467 L78.9862 526.6467 L66.9862 526.6467 Z" clip-path="url(#clipPath2)" stroke="none"/>
    </g>
    <g text-rendering="geometricPrecision" stroke-miterlimit="1.45" shape-rendering="geometricPrecision" transform="matrix(1,0,0,1,334,-413)" stroke-linecap="butt">
      <path fill="none" d="M72.9862 578.6114 L72.9862 622.5319" clip-path="url(#clipPath2)"/>
      <path d="M72.9862 633.5319 L78.9862 621.5319 L66.9862 621.5319 Z" clip-path="url(#clipPath2)" stroke="none"/>
    </g>
    <g text-rendering="geometricPrecision" stroke-miterlimit="1.45" shape-rendering="geometricPrecision" transform="matrix(1,0,0,1,334,-413)" stroke-linecap="butt">
      <path fill="none" d="M72.9862 673.5453 L72.9862 741.3987" clip-path="url(#clipPath2)"/>
      <path d="M72.9862 752.3987 L78.9862 740.3987 L66.9862 740.3987 Z" clip-path="url(#clipPath2)" stroke="none"/>
    </g>
    <g text-rendering="geometricPrecision" stroke-miterlimit="1.45" shape-rendering="geometricPrecision" transform="matrix(1,0,0,1,334,-413)" stroke-linecap="butt">
      <path fill="none" d="M72.9862 792.4275 L72.9862 849.8865" clip-path="url(#clipPath2)"/>
      <path d="M72.9862 860.8865 L78.9862 848.8865 L66.9862 848.8865 Z" clip-path="url(#clipPath2)" stroke="none"/>
    </g>
    <g text-rendering="geometricPrecision" stroke-miterlimit="1.45" shape-rendering="geometricPrecision" transform="matrix(1,0,0,1,334,-413)" stroke-linecap="butt">
      <path fill="none" d="M2.8499 880.8843 L-24.5683 880.8843 L-28.9433 880.2593 L-32.0683 878.3843 L-33.9433 875.2593 L-34.5683 870.8843 L-34.5683 663.5462 L-33.9433 659.1712 L-32.0683 656.0462 L-28.9433 654.1712 L-24.5683 653.5462 L-8.1501 653.5462" clip-path="url(#clipPath2)"/>
      <path d="M2.8499 653.5462 L-9.1501 647.5462 L-9.1501 659.5462 Z" clip-path="url(#clipPath2)" stroke="none"/>
    </g>
    <g text-rendering="geometricPrecision" stroke-miterlimit="1.45" shape-rendering="geometricPrecision" transform="matrix(1,0,0,1,334,-413)" stroke-linecap="butt">
      <path fill="none" d="M72.9862 900.8542 L72.9862 939.3828" clip-path="url(#clipPath2)"/>
      <path d="M72.9862 950.3828 L78.9862 938.3828 L66.9862 938.3828 Z" clip-path="url(#clipPath2)" stroke="none"/>
    </g>
    <g text-rendering="geometricPrecision" stroke-miterlimit="1.45" shape-rendering="geometricPrecision" transform="matrix(1,0,0,1,334,-413)" stroke-linecap="butt">
      <path fill="none" d="M13.2702 970.3776 L-36.0247 970.3776 L-40.3997 969.7526 L-43.5247 967.8776 L-45.3997 964.7526 L-46.0247 960.3776 L-46.0247 502.4873 L-45.3997 498.1123 L-43.5247 494.9873 L-40.3997 493.1123 L-36.0247 492.4873 L46.9862 492.4873" clip-path="url(#clipPath2)"/>
      <path d="M57.9862 492.4873 L45.9862 486.4873 L45.9862 498.4873 Z" clip-path="url(#clipPath2)" stroke="none"/>
    </g>
  </g>
</svg>
