<?xml version="1.0" encoding="us-ascii" standalone="no"?><svg xmlns="http://www.w3.org/2000/svg" xmlns:xlink="http://www.w3.org/1999/xlink" contentStyleType="text/css" height="679px" preserveAspectRatio="none" style="width:821px;height:679px;background:#FFFFFF;" version="1.1" viewBox="0 0 821 679" width="821px" zoomAndPan="magnify"><defs/><g><ellipse cx="410.5" cy="20" fill="#222222" rx="10" ry="10" style="stroke:#222222;stroke-width:1.0;"/><rect fill="#555555" height="6" rx="2.5" ry="2.5" style="stroke:#555555;stroke-width:1.0;" width="799" x="11" y="50"/><rect fill="none" height="159.7539" style="stroke:#000000;stroke-width:1.5;" width="299" x="23" y="84.5547"/><path d="M74,84.5547 L74,94.043 L64,104.043 L23,104.043 " fill="none" style="stroke:#000000;stroke-width:1.5;"/><text fill="#000000" font-family="sans-serif" font-size="14" lengthAdjust="spacing" textLength="41" x="26" y="99.0898">Issuer</text><rect fill="#F1F1F1" height="34.1328" rx="12.5" ry="12.5" style="stroke:#181818;stroke-width:0.5;" width="179" x="83" y="121.043"/><text fill="#000000" font-family="sans-serif" font-size="12" font-weight="bold" lengthAdjust="spacing" textLength="31" x="93" y="142.6445">C1.1.</text><text fill="#000000" font-family="sans-serif" font-size="12" lengthAdjust="spacing" textLength="124" x="128" y="142.6445">Create Issuance Offer</text><rect fill="#F1F1F1" height="34.1328" rx="12.5" ry="12.5" style="stroke:#181818;stroke-width:0.5;" width="279" x="33" y="190.1758"/><text fill="#000000" font-family="sans-serif" font-size="12" font-weight="bold" lengthAdjust="spacing" textLength="31" x="43" y="211.7773">C1.2.</text><text fill="#000000" font-family="sans-serif" font-size="12" lengthAdjust="spacing" textLength="224" x="78" y="211.7773">Send Issuance Offer (Email, PUSH, etc.)</text><rect fill="none" height="190.3086" style="stroke:#000000;stroke-width:1.5;" width="448" x="350" y="66"/><path d="M398,66 L398,75.4883 L388,85.4883 L350,85.4883 " fill="none" style="stroke:#000000;stroke-width:1.5;"/><text fill="#000000" font-family="sans-serif" font-size="14" lengthAdjust="spacing" textLength="38" x="353" y="80.5352">CApp</text><path d="M578,102.4883 L578,134.1094 L558,138.1094 L578,142.1094 L578,173.7305 A0,0 0 0 0 578,173.7305 L788,173.7305 A0,0 0 0 0 788,173.7305 L788,112.4883 L778,102.4883 L578,102.4883 A0,0 0 0 0 578,102.4883 " fill="#FEFFDD" style="stroke:#181818;stroke-width:0.5;"/><path d="M778,102.4883 L778,112.4883 L788,112.4883 L778,102.4883 " fill="#FEFFDD" style="stroke:#181818;stroke-width:0.5;"/><text fill="#000000" font-family="sans-serif" font-size="13" lengthAdjust="spacing" textLength="189" x="584" y="120.0566">[CApp &#8594; List Service Provider]</text><ellipse cx="589.5" cy="130.6094" fill="#000000" rx="2.5" ry="2.5" style="stroke:#000000;stroke-width:0.0;"/><text fill="#000000" font-family="sans-serif" font-size="13" lengthAdjust="spacing" textLength="83" x="596" y="135.3672">List Category</text><ellipse cx="589.5" cy="145.9199" fill="#000000" rx="2.5" ry="2.5" style="stroke:#000000;stroke-width:0.0;"/><text fill="#000000" font-family="sans-serif" font-size="13" lengthAdjust="spacing" textLength="92" x="596" y="150.6777">Search VC Plan</text><ellipse cx="589.5" cy="161.2305" fill="#000000" rx="2.5" ry="2.5" style="stroke:#000000;stroke-width:0.0;"/><text fill="#000000" font-family="sans-serif" font-size="13" lengthAdjust="spacing" textLength="74" x="596" y="165.9883">List VC Plan</text><rect fill="#F1F1F1" height="34.1328" rx="12.5" ry="12.5" style="stroke:#181818;stroke-width:0.5;" width="198" x="360" y="121.043"/><text fill="#000000" font-family="sans-serif" font-size="12" font-weight="bold" lengthAdjust="spacing" textLength="31" x="370" y="142.6445">C2.1.</text><text fill="#000000" font-family="sans-serif" font-size="12" lengthAdjust="spacing" textLength="143" x="405" y="142.6445">Search and View VC Plan</text><rect fill="#F1F1F1" height="34.1328" rx="12.5" ry="12.5" style="stroke:#181818;stroke-width:0.5;" width="184" x="367" y="208.7305"/><text fill="#000000" font-family="sans-serif" font-size="12" font-weight="bold" lengthAdjust="spacing" textLength="31" x="377" y="230.332">C2.2.</text><text fill="#000000" font-family="sans-serif" font-size="12" lengthAdjust="spacing" textLength="129" x="412" y="230.332">Select VC Plan to Issue</text><rect fill="#555555" height="6" rx="2.5" ry="2.5" style="stroke:#555555;stroke-width:1.0;" width="799" x="11" y="276.3086"/><path d="M518,299.0645 L518,315.375 L498,319.375 L518,323.375 L518,339.6855 A0,0 0 0 0 518,339.6855 L659,339.6855 A0,0 0 0 0 659,339.6855 L659,309.0645 L649,299.0645 L518,299.0645 A0,0 0 0 0 518,299.0645 " fill="#FEFFDD" style="stroke:#181818;stroke-width:0.5;"/><path d="M649,299.0645 L649,309.0645 L659,309.0645 L649,299.0645 " fill="#FEFFDD" style="stroke:#181818;stroke-width:0.5;"/><text fill="#000000" font-family="sans-serif" font-size="13" lengthAdjust="spacing" textLength="87" x="524" y="316.6328">[CApp &#8594; TAS]</text><ellipse cx="529.5" cy="327.1855" fill="#000000" rx="2.5" ry="2.5" style="stroke:#000000;stroke-width:0.0;"/><text fill="#000000" font-family="sans-serif" font-size="13" lengthAdjust="spacing" textLength="108" x="536" y="331.9434">Propose Issue VC</text><rect fill="#F1F1F1" height="34.1328" rx="12.5" ry="12.5" style="stroke:#181818;stroke-width:0.5;" width="175" x="323" y="302.3086"/><text fill="#000000" font-family="sans-serif" font-size="12" font-weight="bold" lengthAdjust="spacing" textLength="21" x="333" y="323.9102">D1.</text><text fill="#000000" font-family="sans-serif" font-size="12" lengthAdjust="spacing" textLength="130" x="358" y="323.9102">Request Start Issuance</text><path d="M469.5,356.4414 L469.5,372.752 L449.5,376.752 L469.5,380.752 L469.5,397.0625 A0,0 0 0 0 469.5,397.0625 L592.5,397.0625 A0,0 0 0 0 592.5,397.0625 L592.5,366.4414 L582.5,356.4414 L469.5,356.4414 A0,0 0 0 0 469.5,356.4414 " fill="#FEFFDD" style="stroke:#181818;stroke-width:0.5;"/><path d="M582.5,356.4414 L582.5,366.4414 L592.5,366.4414 L582.5,356.4414 " fill="#FEFFDD" style="stroke:#181818;stroke-width:0.5;"/><text fill="#000000" font-family="sans-serif" font-size="13" lengthAdjust="spacing" textLength="87" x="475.5" y="374.0098">[CApp &#8594; TAS]</text><ellipse cx="481" cy="384.5625" fill="#000000" rx="2.5" ry="2.5" style="stroke:#000000;stroke-width:0.0;"/><text fill="#000000" font-family="sans-serif" font-size="13" lengthAdjust="spacing" textLength="90" x="487.5" y="389.3203">Request ECDH</text><rect fill="#F1F1F1" height="34.1328" rx="12.5" ry="12.5" style="stroke:#181818;stroke-width:0.5;" width="78" x="371.5" y="359.6855"/><text fill="#000000" font-family="sans-serif" font-size="12" font-weight="bold" lengthAdjust="spacing" textLength="21" x="381.5" y="381.2871">D2.</text><text fill="#000000" font-family="sans-serif" font-size="12" lengthAdjust="spacing" textLength="33" x="406.5" y="381.2871">ECDH</text><path d="M553,413.8184 L553,430.1289 L533,434.1289 L553,438.1289 L553,454.4395 A0,0 0 0 0 553,454.4395 L723,454.4395 A0,0 0 0 0 723,454.4395 L723,423.8184 L713,413.8184 L553,413.8184 A0,0 0 0 0 553,413.8184 " fill="#FEFFDD" style="stroke:#181818;stroke-width:0.5;"/><path d="M713,413.8184 L713,423.8184 L723,423.8184 L713,413.8184 " fill="#FEFFDD" style="stroke:#181818;stroke-width:0.5;"/><text fill="#000000" font-family="sans-serif" font-size="13" lengthAdjust="spacing" textLength="87" x="559" y="431.3867">[CApp &#8594; TAS]</text><ellipse cx="564.5" cy="441.9395" fill="#000000" rx="2.5" ry="2.5" style="stroke:#000000;stroke-width:0.0;"/><text fill="#000000" font-family="sans-serif" font-size="13" lengthAdjust="spacing" textLength="137" x="571" y="446.6973">Request Create Token</text><rect fill="#F1F1F1" height="34.1328" rx="12.5" ry="12.5" style="stroke:#181818;stroke-width:0.5;" width="245" x="288" y="417.0625"/><text fill="#000000" font-family="sans-serif" font-size="12" font-weight="bold" lengthAdjust="spacing" textLength="21" x="298" y="438.6641">D3.</text><text fill="#000000" font-family="sans-serif" font-size="12" lengthAdjust="spacing" textLength="200" x="323" y="438.6641">Create Wallet Token, Server Token</text><path d="M513,471.1953 L513,487.5059 L493,491.5059 L513,495.5059 L513,511.8164 A0,0 0 0 0 513,511.8164 L677,511.8164 A0,0 0 0 0 677,511.8164 L677,481.1953 L667,471.1953 L513,471.1953 A0,0 0 0 0 513,471.1953 " fill="#FEFFDD" style="stroke:#181818;stroke-width:0.5;"/><path d="M667,471.1953 L667,481.1953 L677,481.1953 L667,471.1953 " fill="#FEFFDD" style="stroke:#181818;stroke-width:0.5;"/><text fill="#000000" font-family="sans-serif" font-size="13" lengthAdjust="spacing" textLength="87" x="519" y="488.7637">[CApp &#8594; TAS]</text><ellipse cx="524.5" cy="499.3164" fill="#000000" rx="2.5" ry="2.5" style="stroke:#000000;stroke-width:0.0;"/><text fill="#000000" font-family="sans-serif" font-size="13" lengthAdjust="spacing" textLength="131" x="531" y="504.0742">Request Issue Profile</text><rect fill="#F1F1F1" height="34.1328" rx="12.5" ry="12.5" style="stroke:#181818;stroke-width:0.5;" width="165" x="328" y="474.4395"/><text fill="#000000" font-family="sans-serif" font-size="12" font-weight="bold" lengthAdjust="spacing" textLength="21" x="338" y="496.041">D4.</text><text fill="#000000" font-family="sans-serif" font-size="12" lengthAdjust="spacing" textLength="120" x="363" y="496.041">Request Issue Profile</text><path d="M543.5,528.5723 L543.5,544.8828 L523.5,548.8828 L543.5,552.8828 L543.5,569.1934 A0,0 0 0 0 543.5,569.1934 L684.5,569.1934 A0,0 0 0 0 684.5,569.1934 L684.5,538.5723 L674.5,528.5723 L543.5,528.5723 A0,0 0 0 0 543.5,528.5723 " fill="#FEFFDD" style="stroke:#181818;stroke-width:0.5;"/><path d="M674.5,528.5723 L674.5,538.5723 L684.5,538.5723 L674.5,528.5723 " fill="#FEFFDD" style="stroke:#181818;stroke-width:0.5;"/><text fill="#000000" font-family="sans-serif" font-size="13" lengthAdjust="spacing" textLength="91" x="549.5" y="546.1406">[Wallet &#8594; TAS]</text><ellipse cx="555" cy="556.6934" fill="#000000" rx="2.5" ry="2.5" style="stroke:#000000;stroke-width:0.0;"/><text fill="#000000" font-family="sans-serif" font-size="13" lengthAdjust="spacing" textLength="108" x="561.5" y="561.4512">Request Issue VC</text><rect fill="#F1F1F1" height="34.1328" rx="12.5" ry="12.5" style="stroke:#181818;stroke-width:0.5;" width="226" x="297.5" y="531.8164"/><text fill="#000000" font-family="sans-serif" font-size="12" font-weight="bold" lengthAdjust="spacing" textLength="21" x="307.5" y="553.418">D5.</text><text fill="#000000" font-family="sans-serif" font-size="12" lengthAdjust="spacing" textLength="181" x="332.5" y="553.418">DID Auth and Request Issuance</text><path d="M507,585.9492 L507,602.2598 L487,606.2598 L507,610.2598 L507,626.5703 A0,0 0 0 0 507,626.5703 L649,626.5703 A0,0 0 0 0 649,626.5703 L649,595.9492 L639,585.9492 L507,585.9492 A0,0 0 0 0 507,585.9492 " fill="#FEFFDD" style="stroke:#181818;stroke-width:0.5;"/><path d="M639,585.9492 L639,595.9492 L649,595.9492 L639,585.9492 " fill="#FEFFDD" style="stroke:#181818;stroke-width:0.5;"/><text fill="#000000" font-family="sans-serif" font-size="13" lengthAdjust="spacing" textLength="87" x="513" y="603.5176">[CApp &#8594; TAS]</text><ellipse cx="518.5" cy="614.0703" fill="#000000" rx="2.5" ry="2.5" style="stroke:#000000;stroke-width:0.0;"/><text fill="#000000" font-family="sans-serif" font-size="13" lengthAdjust="spacing" textLength="109" x="525" y="618.8281">Confirm Issue VC</text><rect fill="#F1F1F1" height="34.1328" rx="12.5" ry="12.5" style="stroke:#181818;stroke-width:0.5;" width="153" x="334" y="589.1934"/><text fill="#000000" font-family="sans-serif" font-size="12" font-weight="bold" lengthAdjust="spacing" textLength="21" x="344" y="610.7949">D6.</text><text fill="#000000" font-family="sans-serif" font-size="12" lengthAdjust="spacing" textLength="108" x="369" y="610.7949">Complete Issuance</text><ellipse cx="410.5" cy="657.5703" fill="none" rx="11" ry="11" style="stroke:#222222;stroke-width:1.0;"/><ellipse cx="410.5" cy="657.5703" fill="#222222" rx="6" ry="6" style="stroke:#222222;stroke-width:1.0;"/><line style="stroke:#181818;stroke-width:1.0;" x1="172.5" x2="172.5" y1="155.1758" y2="190.1758"/><polygon fill="#181818" points="168.5,180.1758,172.5,190.1758,176.5,180.1758,172.5,184.1758" style="stroke:#181818;stroke-width:1.0;"/><line style="stroke:#181818;stroke-width:1.0;" x1="459" x2="459" y1="155.1758" y2="208.7305"/><polygon fill="#181818" points="455,198.7305,459,208.7305,463,198.7305,459,202.7305" style="stroke:#181818;stroke-width:1.0;"/><line style="stroke:#181818;stroke-width:1.0;" x1="172.5" x2="172.5" y1="56" y2="121.043"/><polygon fill="#181818" points="168.5,111.043,172.5,121.043,176.5,111.043,172.5,115.043" style="stroke:#181818;stroke-width:1.0;"/><line style="stroke:#181818;stroke-width:1.0;" x1="459" x2="459" y1="56" y2="121.043"/><polygon fill="#181818" points="455,111.043,459,121.043,463,111.043,459,115.043" style="stroke:#181818;stroke-width:1.0;"/><line style="stroke:#181818;stroke-width:1.0;" x1="172.5" x2="172.5" y1="224.3086" y2="276.3086"/><polygon fill="#181818" points="168.5,266.3086,172.5,276.3086,176.5,266.3086,172.5,270.3086" style="stroke:#181818;stroke-width:1.0;"/><line style="stroke:#181818;stroke-width:1.0;" x1="459" x2="459" y1="242.8633" y2="276.3086"/><polygon fill="#181818" points="455,266.3086,459,276.3086,463,266.3086,459,270.3086" style="stroke:#181818;stroke-width:1.0;"/><line style="stroke:#181818;stroke-width:1.0;" x1="410.5" x2="410.5" y1="30" y2="50"/><polygon fill="#181818" points="406.5,40,410.5,50,414.5,40,410.5,44" style="stroke:#181818;stroke-width:1.0;"/><line style="stroke:#181818;stroke-width:1.0;" x1="410.5" x2="410.5" y1="282.3086" y2="302.3086"/><polygon fill="#181818" points="406.5,292.3086,410.5,302.3086,414.5,292.3086,410.5,296.3086" style="stroke:#181818;stroke-width:1.0;"/><line style="stroke:#181818;stroke-width:1.0;" x1="410.5" x2="410.5" y1="336.4414" y2="359.6855"/><polygon fill="#181818" points="406.5,349.6855,410.5,359.6855,414.5,349.6855,410.5,353.6855" style="stroke:#181818;stroke-width:1.0;"/><line style="stroke:#181818;stroke-width:1.0;" x1="410.5" x2="410.5" y1="393.8184" y2="417.0625"/><polygon fill="#181818" points="406.5,407.0625,410.5,417.0625,414.5,407.0625,410.5,411.0625" style="stroke:#181818;stroke-width:1.0;"/><line style="stroke:#181818;stroke-width:1.0;" x1="410.5" x2="410.5" y1="451.1953" y2="474.4395"/><polygon fill="#181818" points="406.5,464.4395,410.5,474.4395,414.5,464.4395,410.5,468.4395" style="stroke:#181818;stroke-width:1.0;"/><line style="stroke:#181818;stroke-width:1.0;" x1="410.5" x2="410.5" y1="508.5723" y2="531.8164"/><polygon fill="#181818" points="406.5,521.8164,410.5,531.8164,414.5,521.8164,410.5,525.8164" style="stroke:#181818;stroke-width:1.0;"/><line style="stroke:#181818;stroke-width:1.0;" x1="410.5" x2="410.5" y1="565.9492" y2="589.1934"/><polygon fill="#181818" points="406.5,579.1934,410.5,589.1934,414.5,579.1934,410.5,583.1934" style="stroke:#181818;stroke-width:1.0;"/><line style="stroke:#181818;stroke-width:1.0;" x1="410.5" x2="410.5" y1="623.3262" y2="646.5703"/><polygon fill="#181818" points="406.5,636.5703,410.5,646.5703,414.5,636.5703,410.5,640.5703" style="stroke:#181818;stroke-width:1.0;"/><!--SRC=[bLBDJW8n4BxtAIQST4D8m9-3dCWk2IGc4XVnO3mqoomqBEtQBHXZlFe0Fg9FOgTT_Yenqjjkv_kTLePhmrYkz8A1FQNz54Oe2OrXLQrGD-3TNT2vYQAutMgteWXYZTmWq0oN6S9TdgFk1fCTcanHJeCvEEilkIYQC7f81qr0axNEFVR3EG4-uqA6Vk9UMOPkEjvDYbndS-1MQIBm5IOnZ0ekTtwaicQrcCtDzXUT9-A4xyylk1MLiJHwBQp9aLPhCKNzV30S-Q7Ovfuf_HRSrHPgvMF0y8fw8LyiI5ItLc2snO1HhaBSj4HOjpDcCOdhu1vVLaWXQAFRmhiiYBwBFEwbFc14WKjL-NMY5MKxRyJl7FNZPF0_jeqJGWHC5tjlvv4N1HeOgmNAfklUlWptTPfCJUUGWTpbVZ4-d8sQYm9FapY01XfNf94C4-YjZ7-2-wZZEwYZ_wdsQmlNhZkrB2qKJrnmh6GkzF8OTMLK-GC0]--></g></svg>