<?xml version="1.0" encoding="us-ascii" standalone="no"?><svg xmlns="http://www.w3.org/2000/svg" xmlns:xlink="http://www.w3.org/1999/xlink" contentStyleType="text/css" height="407px" preserveAspectRatio="none" style="width:242px;height:407px;background:#FFFFFF;" version="1.1" viewBox="0 0 242 407" width="242px" zoomAndPan="magnify"><defs/><g><text fill="#000000" font-family="sans-serif" font-size="14" font-weight="bold" lengthAdjust="spacing" textLength="73" x="10" y="26.1533">item-name</text><path d="M48,57.8442 C48,63.8442 50,65.8442 56,65.8442 " fill="none" style="stroke:#181818;stroke-width:1.5;"/><line style="stroke:#181818;stroke-width:1.5;" x1="48" x2="48" y1="52.2295" y2="57.8442"/><path d="M48,52.2295 C48,46.2295 50,44.2295 56,44.2295 " fill="none" style="stroke:#181818;stroke-width:1.5;"/><line style="stroke:#181818;stroke-width:1.5;" x1="55" x2="182" y1="44.2295" y2="44.2295"/><path d="M129.2,44.2295 L129.2,41.2295 L123.2,44.2295 L129.2,47.2295 L129.2,44.2295 " fill="#181818" style="stroke:#181818;stroke-width:1.5;"/><path d="M189,57.8442 C189,63.8442 187,65.8442 181,65.8442 " fill="none" style="stroke:#181818;stroke-width:1.5;"/><line style="stroke:#181818;stroke-width:1.5;" x1="189" x2="189" y1="52.2295" y2="57.8442"/><path d="M181,44.2295 C187,44.2295 189,46.2295 189,52.2295 " fill="none" style="stroke:#181818;stroke-width:1.5;"/><line style="stroke:#181818;stroke-width:1.5;" x1="40" x2="55" y1="65.8442" y2="65.8442"/><line style="stroke:#181818;stroke-width:1.5;" x1="182" x2="197" y1="65.8442" y2="65.8442"/><rect fill="#F1F1F1" height="29.2295" rx="5" ry="5" style="stroke:#181818;stroke-width:1.5;" width="54" x="79" y="51.2295"/><text fill="#000000" font-family="sans-serif" font-size="14" lengthAdjust="spacing" textLength="44" x="84" y="72.3828">ALPHA</text><line style="stroke:#181818;stroke-width:1.5;" x1="55" x2="79" y1="65.8442" y2="65.8442"/><line style="stroke:#181818;stroke-width:1.5;" x1="133" x2="182" y1="65.8442" y2="65.8442"/><rect fill="#F1F1F1" height="29.2295" rx="5" ry="5" style="stroke:#181818;stroke-width:1.5;" width="46" x="79" y="90.459"/><text fill="#000000" font-family="sans-serif" font-size="14" lengthAdjust="spacing" textLength="36" x="84" y="111.6123">DIGIT</text><path d="M67,93.0737 C67,102.0737 70,105.0737 79,105.0737 " fill="none" style="stroke:#181818;stroke-width:1.5;"/><line style="stroke:#181818;stroke-width:1.5;" x1="125" x2="158" y1="105.0737" y2="105.0737"/><path d="M139.5,105.0737 L139.5,102.0737 L145.5,105.0737 L139.5,108.0737 L139.5,105.0737 " fill="#181818" style="stroke:#181818;stroke-width:1.5;"/><path d="M170,93.0737 C170,102.0737 167,105.0737 158,105.0737 " fill="none" style="stroke:#181818;stroke-width:1.5;"/><rect fill="none" height="29.2295" style="stroke:#181818;stroke-width:0.5;" width="18" x="109.5" y="129.6885"/><text fill="#000000" font-family="sans-serif" font-size="14" lengthAdjust="spacing" textLength="8" x="114.5" y="150.8418">_</text><path d="M79,178.918 L79,206.7739 A0,0 0 0 0 79,206.7739 L158,206.7739 A0,0 0 0 0 158,206.7739 L158,188.918 L148,178.918 L122.5,178.918 L118.5,158.918 L114.5,178.918 L79,178.918 A0,0 0 0 0 79,178.918 " fill="#FEFFDD" style="stroke:#181818;stroke-width:0.5;"/><path d="M148,178.918 L148,188.918 L158,188.918 L148,178.918 " fill="#FEFFDD" style="stroke:#181818;stroke-width:0.5;"/><text fill="#000000" font-family="sans-serif" font-size="13" lengthAdjust="spacing" textLength="50" x="89" y="198.9175">underbar</text><line style="stroke:#181818;stroke-width:1.5;" x1="79" x2="109.5" y1="144.3032" y2="144.3032"/><path d="M92.25,144.3032 L92.25,141.3032 L98.25,144.3032 L92.25,147.3032 L92.25,144.3032 " fill="#181818" style="stroke:#181818;stroke-width:1.5;"/><line style="stroke:#181818;stroke-width:1.5;" x1="127.5" x2="158" y1="144.3032" y2="144.3032"/><path d="M140.75,144.3032 L140.75,141.3032 L146.75,144.3032 L140.75,147.3032 L140.75,144.3032 " fill="#181818" style="stroke:#181818;stroke-width:1.5;"/><path d="M67,132.3032 C67,141.3032 70,144.3032 79,144.3032 " fill="none" style="stroke:#181818;stroke-width:1.5;"/><line style="stroke:#181818;stroke-width:1.5;" x1="158" x2="158" y1="144.3032" y2="144.3032"/><path d="M170,132.3032 C170,141.3032 167,144.3032 158,144.3032 " fill="none" style="stroke:#181818;stroke-width:1.5;"/><rect fill="none" height="29.2295" style="stroke:#181818;stroke-width:0.5;" width="15" x="100" y="216.7739"/><text fill="#000000" font-family="sans-serif" font-size="14" lengthAdjust="spacing" textLength="5" x="105" y="237.9272">-</text><path d="M79,266.0034 L79,293.8594 A0,0 0 0 0 79,293.8594 L136,293.8594 A0,0 0 0 0 136,293.8594 L136,276.0034 L126,266.0034 L111.5,266.0034 L107.5,246.0034 L103.5,266.0034 L79,266.0034 A0,0 0 0 0 79,266.0034 " fill="#FEFFDD" style="stroke:#181818;stroke-width:0.5;"/><path d="M126,266.0034 L126,276.0034 L136,276.0034 L126,266.0034 " fill="#FEFFDD" style="stroke:#181818;stroke-width:0.5;"/><text fill="#000000" font-family="sans-serif" font-size="13" lengthAdjust="spacing" textLength="28" x="89" y="286.0029">dash</text><line style="stroke:#181818;stroke-width:1.5;" x1="79" x2="100" y1="231.3887" y2="231.3887"/><line style="stroke:#181818;stroke-width:1.5;" x1="115" x2="136" y1="231.3887" y2="231.3887"/><path d="M67,219.3887 C67,228.3887 70,231.3887 79,231.3887 " fill="none" style="stroke:#181818;stroke-width:1.5;"/><line style="stroke:#181818;stroke-width:1.5;" x1="136" x2="158" y1="231.3887" y2="231.3887"/><path d="M170,219.3887 C170,228.3887 167,231.3887 158,231.3887 " fill="none" style="stroke:#181818;stroke-width:1.5;"/><rect fill="none" height="29.2295" style="stroke:#181818;stroke-width:0.5;" width="14" x="95.5" y="303.8594"/><text fill="#000000" font-family="sans-serif" font-size="14" lengthAdjust="spacing" textLength="4" x="100.5" y="325.0127">.</text><path d="M79,353.0889 L79,380.9448 A0,0 0 0 0 79,380.9448 L126,380.9448 A0,0 0 0 0 126,380.9448 L126,363.0889 L116,353.0889 L106.5,353.0889 L102.5,333.0889 L98.5,353.0889 L79,353.0889 A0,0 0 0 0 79,353.0889 " fill="#FEFFDD" style="stroke:#181818;stroke-width:0.5;"/><path d="M116,353.0889 L116,363.0889 L126,363.0889 L116,353.0889 " fill="#FEFFDD" style="stroke:#181818;stroke-width:0.5;"/><text fill="#000000" font-family="sans-serif" font-size="13" lengthAdjust="spacing" textLength="18" x="89" y="373.0884">dot</text><line style="stroke:#181818;stroke-width:1.5;" x1="79" x2="95.5" y1="318.4741" y2="318.4741"/><line style="stroke:#181818;stroke-width:1.5;" x1="109.5" x2="126" y1="318.4741" y2="318.4741"/><line style="stroke:#181818;stroke-width:1.5;" x1="126" x2="158" y1="318.4741" y2="318.4741"/><path d="M140,318.4741 L140,315.4741 L146,318.4741 L140,321.4741 L140,318.4741 " fill="#181818" style="stroke:#181818;stroke-width:1.5;"/><path d="M67,306.4741 C67,315.4741 70,318.4741 79,318.4741 " fill="none" style="stroke:#181818;stroke-width:1.5;"/><line style="stroke:#181818;stroke-width:1.5;" x1="67" x2="67" y1="77.8442" y2="306.4741"/><path d="M55,65.8442 C64,65.8442 67,68.8442 67,77.8442 " fill="none" style="stroke:#181818;stroke-width:1.5;"/><path d="M170,306.4741 C170,315.4741 167,318.4741 158,318.4741 " fill="none" style="stroke:#181818;stroke-width:1.5;"/><line style="stroke:#181818;stroke-width:1.5;" x1="170" x2="170" y1="77.8442" y2="306.4741"/><path d="M170,77.8442 C170,68.8442 173,65.8442 182,65.8442 " fill="none" style="stroke:#181818;stroke-width:1.5;"/><ellipse cx="14" cy="65.8442" fill="none" rx="4" ry="4" style="stroke:#181818;stroke-width:2.0;"/><ellipse cx="227" cy="65.8442" fill="#181818" rx="4" ry="4" style="stroke:#181818;stroke-width:1.0;"/><line style="stroke:#181818;stroke-width:1.5;" x1="18" x2="40" y1="65.8442" y2="65.8442"/><line style="stroke:#181818;stroke-width:1.5;" x1="197" x2="223" y1="65.8442" y2="65.8442"/><path d="M208,65.8442 L208,62.8442 L214,65.8442 L208,68.8442 L208,65.8442 " fill="#181818" style="stroke:#181818;stroke-width:1.5;"/><!--SRC=[HOvRJy9048NVzrTCU6f9sXIi9DIOW5QGNc93aTTcIuUwaSwQxIw94V-xMo_nQSvyC-VCB7hDbSQQZa2IDAgk4XgxYdY7R53UeE0MFfPPyRY42yIRzMPdwwWQWJC6GmsgcYiOkmFqlc73-vTVuFy0gMt_wTsm1Lg3FSTOSUAad_CCpgXw8Gac_ZIOXlwLir82LbZ3P0P168L155n3MkvW6BlCMHSPzDAe0q8ZUgr4RRJrkopXPmvRGrfq6C7J6r8Ifty07kWibAGEIRDad_ylp4BlJcWeKTbFO9-p68_SdBHr76GZg8qWB-VXd6MSMiDRc_qgsRsqkUezWdJx1G00]--></g></svg>