<?xml version="1.0" encoding="us-ascii" standalone="no"?><svg xmlns="http://www.w3.org/2000/svg" xmlns:xlink="http://www.w3.org/1999/xlink" contentStyleType="text/css" height="195px" preserveAspectRatio="none" style="width:795px;height:195px;background:#FFFFFF;" version="1.1" viewBox="0 0 795 195" width="795px" zoomAndPan="magnify"><defs/><g><text fill="#000000" font-family="sans-serif" font-size="14" font-weight="bold" lengthAdjust="spacing" textLength="31" x="10" y="26.1533">uuid</text><line style="stroke:#181818;stroke-width:1.5;" x1="40" x2="40" y1="80.8442" y2="80.8442"/><path d="M48,72.8442 C48,78.8442 50,80.8442 56,80.8442 " fill="none" style="stroke:#181818;stroke-width:1.5;"/><line style="stroke:#181818;stroke-width:1.5;" x1="48" x2="48" y1="67.2295" y2="72.8442"/><path d="M48,67.2295 C48,61.2295 50,59.2295 56,59.2295 " fill="none" style="stroke:#181818;stroke-width:1.5;"/><line style="stroke:#181818;stroke-width:1.5;" x1="55" x2="123" y1="59.2295" y2="59.2295"/><path d="M93.8,59.2295 L93.8,56.2295 L87.8,59.2295 L93.8,62.2295 L93.8,59.2295 " fill="#181818" style="stroke:#181818;stroke-width:1.5;"/><path d="M130,72.8442 C130,78.8442 128,80.8442 122,80.8442 " fill="none" style="stroke:#181818;stroke-width:1.5;"/><line style="stroke:#181818;stroke-width:1.5;" x1="130" x2="130" y1="67.2295" y2="72.8442"/><path d="M122,59.2295 C128,59.2295 130,61.2295 130,67.2295 " fill="none" style="stroke:#181818;stroke-width:1.5;"/><line style="stroke:#181818;stroke-width:1.5;" x1="40" x2="55" y1="80.8442" y2="80.8442"/><line style="stroke:#181818;stroke-width:1.5;" x1="123" x2="138" y1="80.8442" y2="80.8442"/><rect fill="#F1F1F1" height="29.2295" rx="5" ry="5" style="stroke:#181818;stroke-width:1.5;" width="68" x="55" y="66.2295"/><text fill="#000000" font-family="sans-serif" font-size="14" lengthAdjust="spacing" textLength="58" x="60" y="87.3828">hex-octet</text><path d="M40,54.2295 C40,50.4795 41.25,49.2295 45,49.2295 " fill="none" style="stroke:#181818;stroke-width:0.5;"/><path d="M89,44.2295 C89,47.9795 87.75,49.2295 84,49.2295 " fill="none" style="stroke:#181818;stroke-width:0.5;"/><path d="M89,44.2295 C89,47.9795 90.25,49.2295 94,49.2295 " fill="none" style="stroke:#181818;stroke-width:0.5;"/><path d="M133,49.2295 C136.75,49.2295 138,50.4795 138,54.2295 " fill="none" style="stroke:#181818;stroke-width:0.5;"/><line style="stroke:#181818;stroke-width:0.5;" x1="45" x2="84" y1="49.2295" y2="49.2295"/><line style="stroke:#181818;stroke-width:0.5;" x1="94" x2="133" y1="49.2295" y2="49.2295"/><text fill="#000000" font-family="sans-serif" font-size="12" lengthAdjust="spacing" textLength="14" x="82" y="41.8662">4&#215;</text><line style="stroke:#181818;stroke-width:1.5;" x1="138" x2="158" y1="80.8442" y2="80.8442"/><rect fill="none" height="29.2295" style="stroke:#181818;stroke-width:0.5;" width="15" x="158" y="66.2295"/><text fill="#000000" font-family="sans-serif" font-size="14" lengthAdjust="spacing" textLength="5" x="163" y="87.3828">-</text><line style="stroke:#181818;stroke-width:1.5;" x1="173" x2="193" y1="80.8442" y2="80.8442"/><path d="M201,72.8442 C201,78.8442 203,80.8442 209,80.8442 " fill="none" style="stroke:#181818;stroke-width:1.5;"/><line style="stroke:#181818;stroke-width:1.5;" x1="201" x2="201" y1="67.2295" y2="72.8442"/><path d="M201,67.2295 C201,61.2295 203,59.2295 209,59.2295 " fill="none" style="stroke:#181818;stroke-width:1.5;"/><line style="stroke:#181818;stroke-width:1.5;" x1="208" x2="276" y1="59.2295" y2="59.2295"/><path d="M246.8,59.2295 L246.8,56.2295 L240.8,59.2295 L246.8,62.2295 L246.8,59.2295 " fill="#181818" style="stroke:#181818;stroke-width:1.5;"/><path d="M283,72.8442 C283,78.8442 281,80.8442 275,80.8442 " fill="none" style="stroke:#181818;stroke-width:1.5;"/><line style="stroke:#181818;stroke-width:1.5;" x1="283" x2="283" y1="67.2295" y2="72.8442"/><path d="M275,59.2295 C281,59.2295 283,61.2295 283,67.2295 " fill="none" style="stroke:#181818;stroke-width:1.5;"/><line style="stroke:#181818;stroke-width:1.5;" x1="193" x2="208" y1="80.8442" y2="80.8442"/><line style="stroke:#181818;stroke-width:1.5;" x1="276" x2="291" y1="80.8442" y2="80.8442"/><rect fill="#F1F1F1" height="29.2295" rx="5" ry="5" style="stroke:#181818;stroke-width:1.5;" width="68" x="208" y="66.2295"/><text fill="#000000" font-family="sans-serif" font-size="14" lengthAdjust="spacing" textLength="58" x="213" y="87.3828">hex-octet</text><path d="M193,54.2295 C193,50.4795 194.25,49.2295 198,49.2295 " fill="none" style="stroke:#181818;stroke-width:0.5;"/><path d="M242,44.2295 C242,47.9795 240.75,49.2295 237,49.2295 " fill="none" style="stroke:#181818;stroke-width:0.5;"/><path d="M242,44.2295 C242,47.9795 243.25,49.2295 247,49.2295 " fill="none" style="stroke:#181818;stroke-width:0.5;"/><path d="M286,49.2295 C289.75,49.2295 291,50.4795 291,54.2295 " fill="none" style="stroke:#181818;stroke-width:0.5;"/><line style="stroke:#181818;stroke-width:0.5;" x1="198" x2="237" y1="49.2295" y2="49.2295"/><line style="stroke:#181818;stroke-width:0.5;" x1="247" x2="286" y1="49.2295" y2="49.2295"/><text fill="#000000" font-family="sans-serif" font-size="12" lengthAdjust="spacing" textLength="14" x="235" y="41.8662">2&#215;</text><line style="stroke:#181818;stroke-width:1.5;" x1="291" x2="311" y1="80.8442" y2="80.8442"/><rect fill="none" height="29.2295" style="stroke:#181818;stroke-width:0.5;" width="15" x="311" y="66.2295"/><text fill="#000000" font-family="sans-serif" font-size="14" lengthAdjust="spacing" textLength="5" x="316" y="87.3828">-</text><line style="stroke:#181818;stroke-width:1.5;" x1="326" x2="346" y1="80.8442" y2="80.8442"/><path d="M354,72.8442 C354,78.8442 356,80.8442 362,80.8442 " fill="none" style="stroke:#181818;stroke-width:1.5;"/><line style="stroke:#181818;stroke-width:1.5;" x1="354" x2="354" y1="67.2295" y2="72.8442"/><path d="M354,67.2295 C354,61.2295 356,59.2295 362,59.2295 " fill="none" style="stroke:#181818;stroke-width:1.5;"/><line style="stroke:#181818;stroke-width:1.5;" x1="361" x2="429" y1="59.2295" y2="59.2295"/><path d="M399.8,59.2295 L399.8,56.2295 L393.8,59.2295 L399.8,62.2295 L399.8,59.2295 " fill="#181818" style="stroke:#181818;stroke-width:1.5;"/><path d="M436,72.8442 C436,78.8442 434,80.8442 428,80.8442 " fill="none" style="stroke:#181818;stroke-width:1.5;"/><line style="stroke:#181818;stroke-width:1.5;" x1="436" x2="436" y1="67.2295" y2="72.8442"/><path d="M428,59.2295 C434,59.2295 436,61.2295 436,67.2295 " fill="none" style="stroke:#181818;stroke-width:1.5;"/><line style="stroke:#181818;stroke-width:1.5;" x1="346" x2="361" y1="80.8442" y2="80.8442"/><line style="stroke:#181818;stroke-width:1.5;" x1="429" x2="444" y1="80.8442" y2="80.8442"/><rect fill="#F1F1F1" height="29.2295" rx="5" ry="5" style="stroke:#181818;stroke-width:1.5;" width="68" x="361" y="66.2295"/><text fill="#000000" font-family="sans-serif" font-size="14" lengthAdjust="spacing" textLength="58" x="366" y="87.3828">hex-octet</text><path d="M346,54.2295 C346,50.4795 347.25,49.2295 351,49.2295 " fill="none" style="stroke:#181818;stroke-width:0.5;"/><path d="M395,44.2295 C395,47.9795 393.75,49.2295 390,49.2295 " fill="none" style="stroke:#181818;stroke-width:0.5;"/><path d="M395,44.2295 C395,47.9795 396.25,49.2295 400,49.2295 " fill="none" style="stroke:#181818;stroke-width:0.5;"/><path d="M439,49.2295 C442.75,49.2295 444,50.4795 444,54.2295 " fill="none" style="stroke:#181818;stroke-width:0.5;"/><line style="stroke:#181818;stroke-width:0.5;" x1="351" x2="390" y1="49.2295" y2="49.2295"/><line style="stroke:#181818;stroke-width:0.5;" x1="400" x2="439" y1="49.2295" y2="49.2295"/><text fill="#000000" font-family="sans-serif" font-size="12" lengthAdjust="spacing" textLength="14" x="388" y="41.8662">2&#215;</text><line style="stroke:#181818;stroke-width:1.5;" x1="444" x2="464" y1="80.8442" y2="80.8442"/><rect fill="none" height="29.2295" style="stroke:#181818;stroke-width:0.5;" width="15" x="464" y="66.2295"/><text fill="#000000" font-family="sans-serif" font-size="14" lengthAdjust="spacing" textLength="5" x="469" y="87.3828">-</text><line style="stroke:#181818;stroke-width:1.5;" x1="479" x2="499" y1="80.8442" y2="80.8442"/><path d="M507,72.8442 C507,78.8442 509,80.8442 515,80.8442 " fill="none" style="stroke:#181818;stroke-width:1.5;"/><line style="stroke:#181818;stroke-width:1.5;" x1="507" x2="507" y1="67.2295" y2="72.8442"/><path d="M507,67.2295 C507,61.2295 509,59.2295 515,59.2295 " fill="none" style="stroke:#181818;stroke-width:1.5;"/><line style="stroke:#181818;stroke-width:1.5;" x1="514" x2="582" y1="59.2295" y2="59.2295"/><path d="M552.8,59.2295 L552.8,56.2295 L546.8,59.2295 L552.8,62.2295 L552.8,59.2295 " fill="#181818" style="stroke:#181818;stroke-width:1.5;"/><path d="M589,72.8442 C589,78.8442 587,80.8442 581,80.8442 " fill="none" style="stroke:#181818;stroke-width:1.5;"/><line style="stroke:#181818;stroke-width:1.5;" x1="589" x2="589" y1="67.2295" y2="72.8442"/><path d="M581,59.2295 C587,59.2295 589,61.2295 589,67.2295 " fill="none" style="stroke:#181818;stroke-width:1.5;"/><line style="stroke:#181818;stroke-width:1.5;" x1="499" x2="514" y1="80.8442" y2="80.8442"/><line style="stroke:#181818;stroke-width:1.5;" x1="582" x2="597" y1="80.8442" y2="80.8442"/><rect fill="#F1F1F1" height="29.2295" rx="5" ry="5" style="stroke:#181818;stroke-width:1.5;" width="68" x="514" y="66.2295"/><text fill="#000000" font-family="sans-serif" font-size="14" lengthAdjust="spacing" textLength="58" x="519" y="87.3828">hex-octet</text><path d="M499,54.2295 C499,50.4795 500.25,49.2295 504,49.2295 " fill="none" style="stroke:#181818;stroke-width:0.5;"/><path d="M548,44.2295 C548,47.9795 546.75,49.2295 543,49.2295 " fill="none" style="stroke:#181818;stroke-width:0.5;"/><path d="M548,44.2295 C548,47.9795 549.25,49.2295 553,49.2295 " fill="none" style="stroke:#181818;stroke-width:0.5;"/><path d="M592,49.2295 C595.75,49.2295 597,50.4795 597,54.2295 " fill="none" style="stroke:#181818;stroke-width:0.5;"/><line style="stroke:#181818;stroke-width:0.5;" x1="504" x2="543" y1="49.2295" y2="49.2295"/><line style="stroke:#181818;stroke-width:0.5;" x1="553" x2="592" y1="49.2295" y2="49.2295"/><text fill="#000000" font-family="sans-serif" font-size="12" lengthAdjust="spacing" textLength="14" x="541" y="41.8662">2&#215;</text><line style="stroke:#181818;stroke-width:1.5;" x1="597" x2="617" y1="80.8442" y2="80.8442"/><rect fill="none" height="29.2295" style="stroke:#181818;stroke-width:0.5;" width="15" x="617" y="66.2295"/><text fill="#000000" font-family="sans-serif" font-size="14" lengthAdjust="spacing" textLength="5" x="622" y="87.3828">-</text><line style="stroke:#181818;stroke-width:1.5;" x1="632" x2="652" y1="80.8442" y2="80.8442"/><path d="M660,72.8442 C660,78.8442 662,80.8442 668,80.8442 " fill="none" style="stroke:#181818;stroke-width:1.5;"/><line style="stroke:#181818;stroke-width:1.5;" x1="660" x2="660" y1="67.2295" y2="72.8442"/><path d="M660,67.2295 C660,61.2295 662,59.2295 668,59.2295 " fill="none" style="stroke:#181818;stroke-width:1.5;"/><line style="stroke:#181818;stroke-width:1.5;" x1="667" x2="735" y1="59.2295" y2="59.2295"/><path d="M705.8,59.2295 L705.8,56.2295 L699.8,59.2295 L705.8,62.2295 L705.8,59.2295 " fill="#181818" style="stroke:#181818;stroke-width:1.5;"/><path d="M742,72.8442 C742,78.8442 740,80.8442 734,80.8442 " fill="none" style="stroke:#181818;stroke-width:1.5;"/><line style="stroke:#181818;stroke-width:1.5;" x1="742" x2="742" y1="67.2295" y2="72.8442"/><path d="M734,59.2295 C740,59.2295 742,61.2295 742,67.2295 " fill="none" style="stroke:#181818;stroke-width:1.5;"/><line style="stroke:#181818;stroke-width:1.5;" x1="652" x2="667" y1="80.8442" y2="80.8442"/><line style="stroke:#181818;stroke-width:1.5;" x1="735" x2="750" y1="80.8442" y2="80.8442"/><rect fill="#F1F1F1" height="29.2295" rx="5" ry="5" style="stroke:#181818;stroke-width:1.5;" width="68" x="667" y="66.2295"/><text fill="#000000" font-family="sans-serif" font-size="14" lengthAdjust="spacing" textLength="58" x="672" y="87.3828">hex-octet</text><path d="M652,54.2295 C652,50.4795 653.25,49.2295 657,49.2295 " fill="none" style="stroke:#181818;stroke-width:0.5;"/><path d="M701,44.2295 C701,47.9795 699.75,49.2295 696,49.2295 " fill="none" style="stroke:#181818;stroke-width:0.5;"/><path d="M701,44.2295 C701,47.9795 702.25,49.2295 706,49.2295 " fill="none" style="stroke:#181818;stroke-width:0.5;"/><path d="M745,49.2295 C748.75,49.2295 750,50.4795 750,54.2295 " fill="none" style="stroke:#181818;stroke-width:0.5;"/><line style="stroke:#181818;stroke-width:0.5;" x1="657" x2="696" y1="49.2295" y2="49.2295"/><line style="stroke:#181818;stroke-width:0.5;" x1="706" x2="745" y1="49.2295" y2="49.2295"/><text fill="#000000" font-family="sans-serif" font-size="12" lengthAdjust="spacing" textLength="14" x="694" y="41.8662">6&#215;</text><ellipse cx="14" cy="80.8442" fill="none" rx="4" ry="4" style="stroke:#181818;stroke-width:2.0;"/><ellipse cx="780" cy="80.8442" fill="#181818" rx="4" ry="4" style="stroke:#181818;stroke-width:1.0;"/><line style="stroke:#181818;stroke-width:1.5;" x1="18" x2="40" y1="80.8442" y2="80.8442"/><line style="stroke:#181818;stroke-width:1.5;" x1="750" x2="776" y1="80.8442" y2="80.8442"/><path d="M761,80.8442 L761,77.8442 L767,80.8442 L761,83.8442 L761,80.8442 " fill="#181818" style="stroke:#181818;stroke-width:1.5;"/><text fill="#000000" font-family="sans-serif" font-size="14" font-weight="bold" lengthAdjust="spacing" textLength="67" x="10" y="126.6123">hex-octet</text><line style="stroke:#181818;stroke-width:1.5;" x1="40" x2="40" y1="154.3032" y2="154.3032"/><rect fill="#F1F1F1" height="29.2295" rx="5" ry="5" style="stroke:#181818;stroke-width:1.5;" width="60" x="40" y="139.6885"/><text fill="#000000" font-family="sans-serif" font-size="14" lengthAdjust="spacing" textLength="50" x="45" y="160.8418">HEXDIG</text><line style="stroke:#181818;stroke-width:1.5;" x1="100" x2="120" y1="154.3032" y2="154.3032"/><rect fill="#F1F1F1" height="29.2295" rx="5" ry="5" style="stroke:#181818;stroke-width:1.5;" width="60" x="120" y="139.6885"/><text fill="#000000" font-family="sans-serif" font-size="14" lengthAdjust="spacing" textLength="50" x="125" y="160.8418">HEXDIG</text><ellipse cx="14" cy="154.3032" fill="none" rx="4" ry="4" style="stroke:#181818;stroke-width:2.0;"/><ellipse cx="210" cy="154.3032" fill="#181818" rx="4" ry="4" style="stroke:#181818;stroke-width:1.0;"/><line style="stroke:#181818;stroke-width:1.5;" x1="18" x2="40" y1="154.3032" y2="154.3032"/><line style="stroke:#181818;stroke-width:1.5;" x1="180" x2="206" y1="154.3032" y2="154.3032"/><path d="M191,154.3032 L191,151.3032 L197,154.3032 L191,157.3032 L191,154.3032 " fill="#181818" style="stroke:#181818;stroke-width:1.5;"/><!--SRC=[dOvFJy904CNl-oacdC2qfDIr2IKcH0je_qH2bNWpstQe6s6NR6U9V7ksYShToypaD_FUl7b7mX1MQWTqFkA7jR9XVO5xu3UV-Ethcf0y6FW33y9_aUXAPknlT0-U5k_9yyhxwJCsHzNqKHXRxuMYjoA74vfEQWMJSHY4V7mxN1e9IwnW4a70Onx4mHravIlqwn4RhjOvTDgQ6g6H7HbPMNBw4Kl5IS36Af87ZE7bY2fDiby02tMIHgi3AcBfjhWUHDn_a0Gb6fS4jWLBS2VidfoYrerKRGn5EULJbWlLMj4wxo_D7hNpDUSOiiq5]--></g></svg>