<?xml version="1.0" encoding="us-ascii" standalone="no"?><svg xmlns="http://www.w3.org/2000/svg" xmlns:xlink="http://www.w3.org/1999/xlink" contentStyleType="text/css" height="605px" preserveAspectRatio="none" style="width:570px;height:605px;background:#FFFFFF;" version="1.1" viewBox="0 0 570 605" width="570px" zoomAndPan="magnify"><defs/><g><text fill="#000000" font-family="sans-serif" font-size="14" font-weight="bold" lengthAdjust="spacing" textLength="88" x="10" y="26.1533">utc-datetime</text><line style="stroke:#181818;stroke-width:1.5;" x1="40" x2="40" y1="53.8442" y2="53.8442"/><rect fill="#F1F1F1" height="29.2295" rx="5" ry="5" style="stroke:#181818;stroke-width:1.5;" width="61" x="40" y="39.2295"/><text fill="#000000" font-family="sans-serif" font-size="14" lengthAdjust="spacing" textLength="51" x="45" y="60.3828">full-date</text><line style="stroke:#181818;stroke-width:1.5;" x1="101" x2="121" y1="53.8442" y2="53.8442"/><rect fill="none" height="29.2295" style="stroke:#181818;stroke-width:0.5;" width="19" x="121" y="39.2295"/><text fill="#000000" font-family="sans-serif" font-size="14" lengthAdjust="spacing" textLength="9" x="126" y="60.3828">T</text><line style="stroke:#181818;stroke-width:1.5;" x1="140" x2="160" y1="53.8442" y2="53.8442"/><rect fill="#F1F1F1" height="29.2295" rx="5" ry="5" style="stroke:#181818;stroke-width:1.5;" width="59" x="160" y="39.2295"/><text fill="#000000" font-family="sans-serif" font-size="14" lengthAdjust="spacing" textLength="49" x="165" y="60.3828">full-time</text><ellipse cx="14" cy="53.8442" fill="none" rx="4" ry="4" style="stroke:#181818;stroke-width:2.0;"/><ellipse cx="249" cy="53.8442" fill="#181818" rx="4" ry="4" style="stroke:#181818;stroke-width:1.0;"/><line style="stroke:#181818;stroke-width:1.5;" x1="18" x2="40" y1="53.8442" y2="53.8442"/><line style="stroke:#181818;stroke-width:1.5;" x1="219" x2="245" y1="53.8442" y2="53.8442"/><path d="M230,53.8442 L230,50.8442 L236,53.8442 L230,56.8442 L230,53.8442 " fill="#181818" style="stroke:#181818;stroke-width:1.5;"/><text fill="#000000" font-family="sans-serif" font-size="14" font-weight="bold" lengthAdjust="spacing" textLength="58" x="10" y="99.6123">full-date</text><line style="stroke:#181818;stroke-width:1.5;" x1="40" x2="40" y1="127.3032" y2="127.3032"/><rect fill="#F1F1F1" height="29.2295" rx="5" ry="5" style="stroke:#181818;stroke-width:1.5;" width="89" x="40" y="112.6885"/><text fill="#000000" font-family="sans-serif" font-size="14" lengthAdjust="spacing" textLength="79" x="45" y="133.8418">date-fullyear</text><line style="stroke:#181818;stroke-width:1.5;" x1="129" x2="149" y1="127.3032" y2="127.3032"/><rect fill="none" height="29.2295" style="stroke:#181818;stroke-width:0.5;" width="15" x="149" y="112.6885"/><text fill="#000000" font-family="sans-serif" font-size="14" lengthAdjust="spacing" textLength="5" x="154" y="133.8418">-</text><line style="stroke:#181818;stroke-width:1.5;" x1="164" x2="184" y1="127.3032" y2="127.3032"/><rect fill="#F1F1F1" height="29.2295" rx="5" ry="5" style="stroke:#181818;stroke-width:1.5;" width="82" x="184" y="112.6885"/><text fill="#000000" font-family="sans-serif" font-size="14" lengthAdjust="spacing" textLength="72" x="189" y="133.8418">date-month</text><line style="stroke:#181818;stroke-width:1.5;" x1="266" x2="286" y1="127.3032" y2="127.3032"/><rect fill="none" height="29.2295" style="stroke:#181818;stroke-width:0.5;" width="15" x="286" y="112.6885"/><text fill="#000000" font-family="sans-serif" font-size="14" lengthAdjust="spacing" textLength="5" x="291" y="133.8418">-</text><line style="stroke:#181818;stroke-width:1.5;" x1="301" x2="321" y1="127.3032" y2="127.3032"/><rect fill="#F1F1F1" height="29.2295" rx="5" ry="5" style="stroke:#181818;stroke-width:1.5;" width="77" x="321" y="112.6885"/><text fill="#000000" font-family="sans-serif" font-size="14" lengthAdjust="spacing" textLength="67" x="326" y="133.8418">date-mday</text><ellipse cx="14" cy="127.3032" fill="none" rx="4" ry="4" style="stroke:#181818;stroke-width:2.0;"/><ellipse cx="428" cy="127.3032" fill="#181818" rx="4" ry="4" style="stroke:#181818;stroke-width:1.0;"/><line style="stroke:#181818;stroke-width:1.5;" x1="18" x2="40" y1="127.3032" y2="127.3032"/><line style="stroke:#181818;stroke-width:1.5;" x1="398" x2="424" y1="127.3032" y2="127.3032"/><path d="M409,127.3032 L409,124.3032 L415,127.3032 L409,130.3032 L409,127.3032 " fill="#181818" style="stroke:#181818;stroke-width:1.5;"/><text fill="#000000" font-family="sans-serif" font-size="14" font-weight="bold" lengthAdjust="spacing" textLength="57" x="10" y="173.0713">full-time</text><line style="stroke:#181818;stroke-width:1.5;" x1="40" x2="40" y1="200.7622" y2="200.7622"/><rect fill="#F1F1F1" height="29.2295" rx="5" ry="5" style="stroke:#181818;stroke-width:1.5;" width="80" x="40" y="186.1475"/><text fill="#000000" font-family="sans-serif" font-size="14" lengthAdjust="spacing" textLength="70" x="45" y="207.3008">partial-time</text><line style="stroke:#181818;stroke-width:1.5;" x1="120" x2="140" y1="200.7622" y2="200.7622"/><rect fill="#F1F1F1" height="29.2295" rx="5" ry="5" style="stroke:#181818;stroke-width:1.5;" width="76" x="140" y="186.1475"/><text fill="#000000" font-family="sans-serif" font-size="14" lengthAdjust="spacing" textLength="66" x="145" y="207.3008">time-offset</text><ellipse cx="14" cy="200.7622" fill="none" rx="4" ry="4" style="stroke:#181818;stroke-width:2.0;"/><ellipse cx="246" cy="200.7622" fill="#181818" rx="4" ry="4" style="stroke:#181818;stroke-width:1.0;"/><line style="stroke:#181818;stroke-width:1.5;" x1="18" x2="40" y1="200.7622" y2="200.7622"/><line style="stroke:#181818;stroke-width:1.5;" x1="216" x2="242" y1="200.7622" y2="200.7622"/><path d="M227,200.7622 L227,197.7622 L233,200.7622 L227,203.7622 L227,200.7622 " fill="#181818" style="stroke:#181818;stroke-width:1.5;"/><text fill="#000000" font-family="sans-serif" font-size="14" font-weight="bold" lengthAdjust="spacing" textLength="79" x="10" y="246.5303">partial-time</text><line style="stroke:#181818;stroke-width:1.5;" x1="40" x2="40" y1="290.2212" y2="290.2212"/><rect fill="#F1F1F1" height="29.2295" rx="5" ry="5" style="stroke:#181818;stroke-width:1.5;" width="70" x="40" y="275.6064"/><text fill="#000000" font-family="sans-serif" font-size="14" lengthAdjust="spacing" textLength="60" x="45" y="296.7598">time-hour</text><line style="stroke:#181818;stroke-width:1.5;" x1="110" x2="130" y1="290.2212" y2="290.2212"/><rect fill="none" height="29.2295" style="stroke:#181818;stroke-width:0.5;" width="14" x="130" y="275.6064"/><text fill="#000000" font-family="sans-serif" font-size="14" lengthAdjust="spacing" textLength="4" x="135" y="296.7598">:</text><line style="stroke:#181818;stroke-width:1.5;" x1="144" x2="164" y1="290.2212" y2="290.2212"/><rect fill="#F1F1F1" height="29.2295" rx="5" ry="5" style="stroke:#181818;stroke-width:1.5;" width="83" x="164" y="275.6064"/><text fill="#000000" font-family="sans-serif" font-size="14" lengthAdjust="spacing" textLength="73" x="169" y="296.7598">time-minute</text><line style="stroke:#181818;stroke-width:1.5;" x1="247" x2="267" y1="290.2212" y2="290.2212"/><rect fill="none" height="29.2295" style="stroke:#181818;stroke-width:0.5;" width="14" x="267" y="275.6064"/><text fill="#000000" font-family="sans-serif" font-size="14" lengthAdjust="spacing" textLength="4" x="272" y="296.7598">:</text><line style="stroke:#181818;stroke-width:1.5;" x1="281" x2="301" y1="290.2212" y2="290.2212"/><rect fill="#F1F1F1" height="29.2295" rx="5" ry="5" style="stroke:#181818;stroke-width:1.5;" width="87" x="301" y="275.6064"/><text fill="#000000" font-family="sans-serif" font-size="14" lengthAdjust="spacing" textLength="77" x="306" y="296.7598">time-second</text><line style="stroke:#181818;stroke-width:1.5;" x1="388" x2="408" y1="290.2212" y2="290.2212"/><path d="M416,282.2212 C416,288.2212 414,290.2212 408,290.2212 " fill="none" style="stroke:#181818;stroke-width:1.5;"/><line style="stroke:#181818;stroke-width:1.5;" x1="416" x2="416" y1="272.6064" y2="282.2212"/><path d="M416,272.6064 C416,266.6064 418,264.6064 424,264.6064 " fill="none" style="stroke:#181818;stroke-width:1.5;"/><line style="stroke:#181818;stroke-width:1.5;" x1="424" x2="509" y1="264.6064" y2="264.6064"/><path d="M456,264.6064 L456,261.6064 L462,264.6064 L456,267.6064 L456,264.6064 " fill="#181818" style="stroke:#181818;stroke-width:1.5;"/><path d="M517,282.2212 C517,288.2212 519,290.2212 525,290.2212 " fill="none" style="stroke:#181818;stroke-width:1.5;"/><line style="stroke:#181818;stroke-width:1.5;" x1="517" x2="517" y1="272.6064" y2="282.2212"/><path d="M509,264.6064 C515,264.6064 517,266.6064 517,272.6064 " fill="none" style="stroke:#181818;stroke-width:1.5;"/><line style="stroke:#181818;stroke-width:1.5;" x1="408" x2="423" y1="290.2212" y2="290.2212"/><line style="stroke:#181818;stroke-width:1.5;" x1="510" x2="525" y1="290.2212" y2="290.2212"/><rect fill="#F1F1F1" height="29.2295" rx="5" ry="5" style="stroke:#181818;stroke-width:1.5;" width="87" x="423" y="275.6064"/><text fill="#000000" font-family="sans-serif" font-size="14" lengthAdjust="spacing" textLength="77" x="428" y="296.7598">time-secfrac</text><ellipse cx="14" cy="290.2212" fill="none" rx="4" ry="4" style="stroke:#181818;stroke-width:2.0;"/><ellipse cx="555" cy="290.2212" fill="#181818" rx="4" ry="4" style="stroke:#181818;stroke-width:1.0;"/><line style="stroke:#181818;stroke-width:1.5;" x1="18" x2="40" y1="290.2212" y2="290.2212"/><line style="stroke:#181818;stroke-width:1.5;" x1="525" x2="551" y1="290.2212" y2="290.2212"/><path d="M536,290.2212 L536,287.2212 L542,290.2212 L536,293.2212 L536,290.2212 " fill="#181818" style="stroke:#181818;stroke-width:1.5;"/><text fill="#000000" font-family="sans-serif" font-size="14" font-weight="bold" lengthAdjust="spacing" textLength="76" x="10" y="335.9893">time-offset</text><rect fill="none" height="29.2295" style="stroke:#181818;stroke-width:0.5;" width="18" x="64" y="349.0654"/><text fill="#000000" font-family="sans-serif" font-size="14" lengthAdjust="spacing" textLength="8" x="69" y="370.2188">Z</text><line style="stroke:#181818;stroke-width:1.5;" x1="40" x2="64" y1="363.6802" y2="363.6802"/><line style="stroke:#181818;stroke-width:1.5;" x1="82" x2="191" y1="363.6802" y2="363.6802"/><rect fill="#F1F1F1" height="29.2295" rx="5" ry="5" style="stroke:#181818;stroke-width:1.5;" width="103" x="64" y="388.2949"/><text fill="#000000" font-family="sans-serif" font-size="14" lengthAdjust="spacing" textLength="93" x="69" y="409.4482">time-numoffset</text><line style="stroke:#181818;stroke-width:1.5;" x1="167" x2="167" y1="402.9097" y2="402.9097"/><path d="M52,390.9097 C52,399.9097 55,402.9097 64,402.9097 " fill="none" style="stroke:#181818;stroke-width:1.5;"/><line style="stroke:#181818;stroke-width:1.5;" x1="52" x2="52" y1="375.6802" y2="390.9097"/><path d="M40,363.6802 C49,363.6802 52,366.6802 52,375.6802 " fill="none" style="stroke:#181818;stroke-width:1.5;"/><path d="M179,390.9097 C179,399.9097 176,402.9097 167,402.9097 " fill="none" style="stroke:#181818;stroke-width:1.5;"/><line style="stroke:#181818;stroke-width:1.5;" x1="179" x2="179" y1="375.6802" y2="390.9097"/><path d="M179,375.6802 C179,366.6802 182,363.6802 191,363.6802 " fill="none" style="stroke:#181818;stroke-width:1.5;"/><ellipse cx="14" cy="363.6802" fill="none" rx="4" ry="4" style="stroke:#181818;stroke-width:2.0;"/><ellipse cx="221" cy="363.6802" fill="#181818" rx="4" ry="4" style="stroke:#181818;stroke-width:1.0;"/><line style="stroke:#181818;stroke-width:1.5;" x1="18" x2="40" y1="363.6802" y2="363.6802"/><line style="stroke:#181818;stroke-width:1.5;" x1="191" x2="217" y1="363.6802" y2="363.6802"/><path d="M202,363.6802 L202,360.6802 L208,363.6802 L202,366.6802 L202,363.6802 " fill="#181818" style="stroke:#181818;stroke-width:1.5;"/><text fill="#000000" font-family="sans-serif" font-size="14" font-weight="bold" lengthAdjust="spacing" textLength="106" x="10" y="448.6777">time-numoffset</text><line style="stroke:#181818;stroke-width:1.5;" x1="40" x2="40" y1="476.3687" y2="476.3687"/><rect fill="none" height="29.2295" style="stroke:#181818;stroke-width:0.5;" width="18" x="64" y="461.7539"/><text fill="#000000" font-family="sans-serif" font-size="14" lengthAdjust="spacing" textLength="8" x="69" y="482.9072">+</text><line style="stroke:#181818;stroke-width:1.5;" x1="40" x2="64" y1="476.3687" y2="476.3687"/><line style="stroke:#181818;stroke-width:1.5;" x1="82" x2="106" y1="476.3687" y2="476.3687"/><rect fill="none" height="29.2295" style="stroke:#181818;stroke-width:0.5;" width="15" x="64" y="500.9834"/><text fill="#000000" font-family="sans-serif" font-size="14" lengthAdjust="spacing" textLength="5" x="69" y="522.1367">-</text><line style="stroke:#181818;stroke-width:1.5;" x1="79" x2="82" y1="515.5981" y2="515.5981"/><path d="M52,503.5981 C52,512.5981 55,515.5981 64,515.5981 " fill="none" style="stroke:#181818;stroke-width:1.5;"/><line style="stroke:#181818;stroke-width:1.5;" x1="52" x2="52" y1="488.3687" y2="503.5981"/><path d="M40,476.3687 C49,476.3687 52,479.3687 52,488.3687 " fill="none" style="stroke:#181818;stroke-width:1.5;"/><path d="M94,503.5981 C94,512.5981 91,515.5981 82,515.5981 " fill="none" style="stroke:#181818;stroke-width:1.5;"/><line style="stroke:#181818;stroke-width:1.5;" x1="94" x2="94" y1="488.3687" y2="503.5981"/><path d="M94,488.3687 C94,479.3687 97,476.3687 106,476.3687 " fill="none" style="stroke:#181818;stroke-width:1.5;"/><line style="stroke:#181818;stroke-width:1.5;" x1="106" x2="126" y1="476.3687" y2="476.3687"/><rect fill="#F1F1F1" height="29.2295" rx="5" ry="5" style="stroke:#181818;stroke-width:1.5;" width="70" x="126" y="461.7539"/><text fill="#000000" font-family="sans-serif" font-size="14" lengthAdjust="spacing" textLength="60" x="131" y="482.9072">time-hour</text><line style="stroke:#181818;stroke-width:1.5;" x1="196" x2="216" y1="476.3687" y2="476.3687"/><rect fill="none" height="29.2295" style="stroke:#181818;stroke-width:0.5;" width="14" x="216" y="461.7539"/><text fill="#000000" font-family="sans-serif" font-size="14" lengthAdjust="spacing" textLength="4" x="221" y="482.9072">:</text><line style="stroke:#181818;stroke-width:1.5;" x1="230" x2="250" y1="476.3687" y2="476.3687"/><rect fill="#F1F1F1" height="29.2295" rx="5" ry="5" style="stroke:#181818;stroke-width:1.5;" width="83" x="250" y="461.7539"/><text fill="#000000" font-family="sans-serif" font-size="14" lengthAdjust="spacing" textLength="73" x="255" y="482.9072">time-minute</text><ellipse cx="14" cy="476.3687" fill="none" rx="4" ry="4" style="stroke:#181818;stroke-width:2.0;"/><ellipse cx="363" cy="476.3687" fill="#181818" rx="4" ry="4" style="stroke:#181818;stroke-width:1.0;"/><line style="stroke:#181818;stroke-width:1.5;" x1="18" x2="40" y1="476.3687" y2="476.3687"/><line style="stroke:#181818;stroke-width:1.5;" x1="333" x2="359" y1="476.3687" y2="476.3687"/><path d="M344,476.3687 L344,473.3687 L350,476.3687 L344,479.3687 L344,476.3687 " fill="#181818" style="stroke:#181818;stroke-width:1.5;"/><path d="M10,550.2129 L10,578.0688 L384,578.0688 L384,560.2129 L374,550.2129 L10,550.2129 " fill="#FEFFDD" style="stroke:#181818;stroke-width:0.5;"/><path d="M374,550.2129 L374,560.2129 L384,560.2129 L374,550.2129 " fill="#FEFFDD" style="stroke:#181818;stroke-width:0.5;"/><text fill="#000000" font-family="sans-serif" font-size="13" lengthAdjust="spacing" textLength="345" x="20" y="570.2124">&#52649;&#48516;&#55176; &#51032;&#48120; &#51204;&#45804;&#51060; &#44032;&#45733;&#54616;&#48064;&#47196; &#51060;&#54616; date-fullyear &#46321;&#51008; &#49373;&#47029;</text><!--SRC=[VL5DQzH06BxFhtZ8QRScPLjZeLaAHMk5_S3IhJqeKcQJoNPmCxDCPXOMF2pOW-XH10zkqOC7GL2X5d-JIV-3CzaFknTp6F9ylC_xJBAVQweqwuiKUZ9YPqR7PmdLJFEC4Gk29G2mXzGCXnNZmpln_3bsQfEi95JF7jnxuDW9eyhw0-klk4mAVRv697Io25XigW96jXYdSyw7EmEPfZdJJK9kQvMvai-bSPiYRs7Fk31LrnMJirYAnCUp9KeLZPytoQtq-NBlgOUNynbXijNUTSBwQjuTPxINgVl_As5dQniehxyMrnStbwzHpZuKtt-Z_7HHlFrMpgxmvyUqUFFbvhsbfyNdZzPmPS7wLqJnxcSvcw9yDIikVs6ZJlQPIDpF8-HeI8L-qkrWp5JEfS3MvdPZEzoyMpjK78UiZwqTDC8eR4IDUsZtJk3aEgazEkeWjvrZXeJdMl6-qNQ-JbfqJ75iXBj5XCSZ9be7xIM1XsBCbHGP4vgqJhl_33jXS9zhz9YoJN3Q9GSifMQexKGi4ou64RgztN2NTAWO63gmsIyaUI1jhff4Q1__1G00]--></g></svg>