<?xml version="1.0" encoding="UTF-8"?><svg xmlns="http://www.w3.org/2000/svg" xmlns:xlink="http://www.w3.org/1999/xlink" fill-opacity="1" color-rendering="auto" color-interpolation="auto" text-rendering="auto" stroke="black" stroke-linecap="square" width="846" stroke-miterlimit="10" shape-rendering="auto" stroke-opacity="1" fill="black" stroke-dasharray="none" font-weight="normal" stroke-width="1" height="429" font-family="'Dialog'" font-style="normal" stroke-linejoin="miter" font-size="12px" stroke-dashoffset="0" image-rendering="auto">
  <!--Generated by ySVG 2.6-->
  <defs id="genericDefs"/>
  <g>
    <defs id="defs1">
      <clipPath clipPathUnits="userSpaceOnUse" id="clipPath1">
        <path d="M0 0 L846 0 L846 429 L0 429 L0 0 Z"/>
      </clipPath>
      <clipPath clipPathUnits="userSpaceOnUse" id="clipPath2">
        <path d="M315 248 L1161 248 L1161 677 L315 677 L315 248 Z"/>
      </clipPath>
    </defs>
    <g fill="white" text-rendering="geometricPrecision" shape-rendering="geometricPrecision" transform="translate(-315,-248)" stroke="white">
      <rect x="315" width="846" height="429" y="248" clip-path="url(#clipPath2)" stroke="none"/>
    </g>
    <g text-rendering="geometricPrecision" stroke-miterlimit="1.45" shape-rendering="geometricPrecision" transform="matrix(1,0,0,1,-315,-248)" stroke-linecap="butt">
      <rect fill="none" x="572.3" width="496" height="54.576" y="263.288" clip-path="url(#clipPath2)"/>
      <text x="789.2805" xml:space="preserve" y="295.1111" clip-path="url(#clipPath2)" font-family="sans-serif" stroke="none">Blockchain</text>
    </g>
    <g fill="rgb(204,204,204)" text-rendering="geometricPrecision" shape-rendering="geometricPrecision" transform="matrix(1,0,0,1,-315,-248)" stroke="rgb(204,204,204)">
      <rect x="897.724" width="103.216" height="54.576" y="479.616" clip-path="url(#clipPath2)" stroke="none"/>
    </g>
    <g text-rendering="geometricPrecision" stroke-miterlimit="1.45" shape-rendering="geometricPrecision" transform="matrix(1,0,0,1,-315,-248)" stroke-linecap="butt">
      <rect fill="none" x="897.724" width="103.216" height="54.576" y="479.616" clip-path="url(#clipPath2)"/>
      <text x="945.8808" xml:space="preserve" y="511.4391" clip-path="url(#clipPath2)" font-family="sans-serif" stroke="none">B</text>
      <rect fill="none" x="603.02" width="103.216" height="54.576" y="479.616" clip-path="url(#clipPath2)"/>
      <text x="648.001" xml:space="preserve" y="511.4391" clip-path="url(#clipPath2)" font-family="sans-serif" stroke="none">aa</text>
      <path fill="none" d="M986.932 373.22 L1011.004 373.22 L1011.004 388.22 L1026.004 388.22 L1026.004 424.26 L986.932 424.26 Z" clip-path="url(#clipPath2)"/>
      <path fill="none" d="M1011.004 373.22 L1011.004 388.22 L1026.004 388.22 Z" clip-path="url(#clipPath2)" fill-rule="evenodd"/>
      <text x="973.452" xml:space="preserve" y="360.4632" clip-path="url(#clipPath2)" font-family="sans-serif" stroke="none">A's DID Doc 조회</text>
      <path fill="none" d="M749.58 342.264 L839.38 342.264 L839.38 357.264 L854.38 357.264 L854.38 412.264 L749.58 412.264 Z" clip-path="url(#clipPath2)"/>
      <path fill="none" d="M839.38 342.264 L839.38 357.264 L854.38 357.264 Z" clip-path="url(#clipPath2)" fill-rule="evenodd"/>
      <text x="753.6753" xml:space="preserve" y="360.5999" clip-path="url(#clipPath2)" font-family="sans-serif" stroke="none">Data</text>
      <text x="753.6753" xml:space="preserve" y="374.7328" clip-path="url(#clipPath2)" font-family="sans-serif" stroke="none">Proof:</text>
      <text x="753.6753" xml:space="preserve" y="388.8656" clip-path="url(#clipPath2)" font-family="sans-serif" stroke="none">   aa's Public Key</text>
      <text x="753.6753" xml:space="preserve" y="402.9984" clip-path="url(#clipPath2)" font-family="sans-serif" stroke="none">   aa's Sign</text>
      <rect fill="none" x="330.34" width="103.216" height="54.576" y="479.616" clip-path="url(#clipPath2)"/>
      <text x="377.8083" xml:space="preserve" y="511.4391" clip-path="url(#clipPath2)" font-family="sans-serif" stroke="none">A</text>
      <rect fill="none" x="602.228" width="104.8" height="76.176" y="585.472" clip-path="url(#clipPath2)"/>
      <text x="606.3233" xml:space="preserve" y="606.8959" clip-path="url(#clipPath2)" font-family="sans-serif" stroke="none">aa's 인증서:</text>
      <text x="606.3233" xml:space="preserve" y="621.0287" clip-path="url(#clipPath2)" font-family="sans-serif" stroke="none">   aa's 정보</text>
      <text x="606.3233" xml:space="preserve" y="635.1616" clip-path="url(#clipPath2)" font-family="sans-serif" stroke="none">   aa's Public Key</text>
      <text x="606.3233" xml:space="preserve" y="649.2944" clip-path="url(#clipPath2)" font-family="sans-serif" stroke="none">   A's Sign</text>
    </g>
    <g fill="rgb(255,204,0)" text-rendering="geometricPrecision" shape-rendering="geometricPrecision" transform="matrix(1,0,0,1,-315,-248)" stroke="rgb(255,204,0)">
      <path d="M694.028 573.392 L696.488 569.4528 L701.1294 569.292 L698.948 565.192 L701.1294 561.092 L696.488 560.9312 L694.028 556.992 L691.568 560.9312 L686.9266 561.092 L689.108 565.192 L686.9266 569.292 L691.568 569.4528 Z" fill-rule="evenodd" clip-path="url(#clipPath2)" stroke="none"/>
    </g>
    <g text-rendering="geometricPrecision" stroke-miterlimit="1.45" shape-rendering="geometricPrecision" transform="matrix(1,0,0,1,-315,-248)" stroke-linecap="butt">
      <path fill="none" d="M694.028 573.392 L696.488 569.4528 L701.1294 569.292 L698.948 565.192 L701.1294 561.092 L696.488 560.9312 L694.028 556.992 L691.568 560.9312 L686.9266 561.092 L689.108 565.192 L686.9266 569.292 L691.568 569.4528 Z" fill-rule="evenodd" clip-path="url(#clipPath2)"/>
      <rect fill="none" x="749.58" width="104.8" height="76.176" y="422.592" clip-path="url(#clipPath2)"/>
      <text x="753.6753" xml:space="preserve" y="444.0159" clip-path="url(#clipPath2)" font-family="sans-serif" stroke="none">aa's 인증서:</text>
      <text x="753.6753" xml:space="preserve" y="458.1487" clip-path="url(#clipPath2)" font-family="sans-serif" stroke="none">   aa's 정보</text>
      <text x="753.6753" xml:space="preserve" y="472.2816" clip-path="url(#clipPath2)" font-family="sans-serif" stroke="none">   aa's Public Key</text>
      <text x="753.6753" xml:space="preserve" y="486.4144" clip-path="url(#clipPath2)" font-family="sans-serif" stroke="none">   A's Sign</text>
    </g>
    <g fill="rgb(255,204,0)" text-rendering="geometricPrecision" shape-rendering="geometricPrecision" transform="matrix(1,0,0,1,-315,-248)" stroke="rgb(255,204,0)">
      <path d="M841.38 443.792 L843.84 439.8528 L848.4814 439.692 L846.3 435.592 L848.4814 431.492 L843.84 431.3311 L841.38 427.392 L838.92 431.3311 L834.2786 431.492 L836.46 435.592 L834.2786 439.692 L838.92 439.8528 Z" fill-rule="evenodd" clip-path="url(#clipPath2)" stroke="none"/>
    </g>
    <g text-rendering="geometricPrecision" stroke-miterlimit="1.45" shape-rendering="geometricPrecision" transform="matrix(1,0,0,1,-315,-248)" stroke-linecap="butt">
      <path fill="none" d="M841.38 443.792 L843.84 439.8528 L848.4814 439.692 L846.3 435.592 L848.4814 431.492 L843.84 431.3311 L841.38 427.392 L838.92 431.3311 L834.2786 431.492 L836.46 435.592 L834.2786 439.692 L838.92 439.8528 Z" fill-rule="evenodd" clip-path="url(#clipPath2)"/>
    </g>
    <g fill="silver" text-rendering="geometricPrecision" shape-rendering="geometricPrecision" transform="matrix(1,0,0,1,-315,-248)" stroke="silver">
      <path d="M749.976 522.816 L839.776 522.816 L839.776 537.816 L854.776 537.816 L854.776 592.816 L749.976 592.816 Z" stroke="none" clip-path="url(#clipPath2)"/>
      <path fill="white" d="M839.776 522.816 L839.776 537.816 L854.776 537.816 Z" clip-path="url(#clipPath2)" fill-rule="evenodd" stroke="none"/>
    </g>
    <g text-rendering="geometricPrecision" stroke-miterlimit="1.45" shape-rendering="geometricPrecision" transform="matrix(1,0,0,1,-315,-248)" stroke-linecap="butt">
      <path fill="none" d="M749.976 522.816 L839.776 522.816 L839.776 537.816 L854.776 537.816 L854.776 592.816 L749.976 592.816 Z" clip-path="url(#clipPath2)"/>
      <path fill="none" d="M839.776 522.816 L839.776 537.816 L854.776 537.816 Z" clip-path="url(#clipPath2)" fill-rule="evenodd"/>
      <text x="774.4678" xml:space="preserve" y="541.1519" clip-path="url(#clipPath2)" font-family="sans-serif" stroke="none">Data</text>
      <text x="774.4678" xml:space="preserve" y="555.2847" clip-path="url(#clipPath2)" font-family="sans-serif" stroke="none">Proof:</text>
      <text x="774.4678" xml:space="preserve" y="569.4175" clip-path="url(#clipPath2)" font-family="sans-serif" stroke="none">   B's KID</text>
      <text x="774.4678" xml:space="preserve" y="583.5504" clip-path="url(#clipPath2)" font-family="sans-serif" stroke="none">   B's Sign</text>
    </g>
    <g fill="silver" text-rendering="geometricPrecision" shape-rendering="geometricPrecision" transform="matrix(1,0,0,1,-315,-248)" stroke="silver">
      <path d="M550.6934 361.224 L574.7654 361.224 L574.7654 376.224 L589.7654 376.224 L589.7654 412.264 L550.6934 412.264 Z" stroke="none" clip-path="url(#clipPath2)"/>
      <path fill="white" d="M574.7654 361.224 L574.7654 376.224 L589.7654 376.224 Z" clip-path="url(#clipPath2)" fill-rule="evenodd" stroke="none"/>
    </g>
    <g text-rendering="geometricPrecision" stroke-miterlimit="1.45" shape-rendering="geometricPrecision" transform="matrix(1,0,0,1,-315,-248)" stroke-linecap="butt">
      <path fill="none" d="M550.6934 361.224 L574.7654 361.224 L574.7654 376.224 L589.7654 376.224 L589.7654 412.264 L550.6934 412.264 Z" clip-path="url(#clipPath2)"/>
      <path fill="none" d="M574.7654 361.224 L574.7654 376.224 L589.7654 376.224 Z" clip-path="url(#clipPath2)" fill-rule="evenodd"/>
      <text x="537.9019" xml:space="preserve" y="348.4672" clip-path="url(#clipPath2)" font-family="sans-serif" stroke="none">B's DID Doc 조회</text>
      <path fill="none" d="M966.0403 534.1672 L965.9518 535.6598 L966.5898 540.144 L968.0651 544.3466 L970.3011 548.1613 L973.2209 551.4818 L976.7479 554.2018 L980.8051 556.2153 L985.316 557.416 L989.9758 557.6922 L994.46 557.0543 L998.6626 555.5789 L1002.4772 553.343 L1005.7977 550.4231 L1008.5178 546.8962 L1010.5314 542.8389 L1011.732 538.328 L1012.0082 533.6683 L1011.3702 529.184 L1009.8949 524.9814 L1007.6589 521.1667 L1006.9012 520.3051 L1006.8212 520.245" clip-path="url(#clipPath2)" stroke="blue"/>
      <path fill="blue" d="M1000.8525 514.9182 L1006.4763 526.6389 L1007.5673 520.9108 L1013.1348 519.178 Z" clip-path="url(#clipPath2)" stroke="none"/>
      <text x="991.0744" y="570.2272" clip-path="url(#clipPath2)" fill="blue" font-family="sans-serif" stroke="none" xml:space="preserve">- aa's 인증서의 A's Sign 검증</text>
      <text x="991.0744" y="584.36" clip-path="url(#clipPath2)" fill="blue" font-family="sans-serif" stroke="none" xml:space="preserve">- aa's Sign 검증</text>
      <path fill="none" d="M949.332 471.616 L949.332 325.8961" clip-path="url(#clipPath2)"/>
      <path d="M949.332 479.616 L954.332 467.616 L949.332 470.616 L944.332 467.616 Z" clip-path="url(#clipPath2)" stroke="none"/>
      <path d="M949.332 317.8961 L944.332 329.8961 L949.332 326.8961 L954.332 329.8961 Z" clip-path="url(#clipPath2)" stroke="none"/>
      <path fill="none" d="M603.019 515.6716 L602.3146 515.9879 L598.6046 518.6509 L595.5372 521.9308 L593.1716 525.7095 L591.5667 529.8687 L590.7817 534.2903 L590.8758 538.8561 L591.908 543.448 L593.8359 547.7414 L596.499 551.4514 L599.7789 554.5187 L603.5576 556.8845 L607.7167 558.4893 L612.1384 559.2743 L616.7042 559.1802 L621.296 558.148 L625.5894 556.2201 L629.2994 553.5571 L632.3668 550.2771 L634.7325 546.4985 L636.3373 542.3392 L636.372 542.1439 L636.3699 542.0439" clip-path="url(#clipPath2)" stroke="blue"/>
      <path fill="blue" d="M637.0536 534.0731 L631.0464 545.6019 L636.2845 543.0402 L641.0098 546.4565 Z" clip-path="url(#clipPath2)" stroke="none"/>
      <text x="496.0003" y="575.4471" clip-path="url(#clipPath2)" fill="blue" font-family="sans-serif" stroke="none" xml:space="preserve">B's Sign 검증</text>
      <path fill="none" d="M706.236 506.904 L889.724 506.904" clip-path="url(#clipPath2)"/>
      <path d="M897.724 506.904 L885.724 501.904 L888.724 506.904 L885.724 511.904 Z" clip-path="url(#clipPath2)" stroke="none"/>
      <path fill="none" d="M654.628 471.616 L654.628 325.8938" clip-path="url(#clipPath2)"/>
      <path d="M654.628 479.616 L659.628 467.616 L654.628 470.616 L649.628 467.616 Z" clip-path="url(#clipPath2)" stroke="none"/>
      <path d="M654.628 317.8938 L649.628 329.8938 L654.628 326.8938 L659.628 329.8938 Z" clip-path="url(#clipPath2)" stroke="none"/>
      <path fill="none" d="M433.556 506.904 L595.02 506.904" clip-path="url(#clipPath2)"/>
      <path d="M603.02 506.904 L591.02 501.904 L594.02 506.904 L591.02 511.904 Z" clip-path="url(#clipPath2)" stroke="none"/>
      <text x="476.6281" xml:space="preserve" y="497.4391" clip-path="url(#clipPath2)" font-family="sans-serif" stroke="none">aa's 인증서 전달</text>
      <path fill="none" stroke-dasharray="6,2" d="M654.628 534.192 L654.628 585.472" clip-path="url(#clipPath2)"/>
      <path fill="none" stroke-dasharray="6,2" d="M801.98 412.2515 L801.98 422.592" clip-path="url(#clipPath2)"/>
    </g>
  </g>
</svg>
