<?xml version="1.0" encoding="us-ascii" standalone="no"?><svg xmlns="http://www.w3.org/2000/svg" xmlns:xlink="http://www.w3.org/1999/xlink" contentStyleType="text/css" height="123px" preserveAspectRatio="none" style="width:602px;height:123px;background:#FFFFFF;" version="1.1" viewBox="0 0 602 123" width="602px" zoomAndPan="magnify"><defs/><g><text fill="#000000" font-family="sans-serif" font-size="14" font-weight="bold" lengthAdjust="spacing" textLength="46" x="10" y="26.1533">did-url</text><line style="stroke:#181818;stroke-width:1.5;" x1="40" x2="40" y1="81.8442" y2="81.8442"/><rect fill="#F1F1F1" height="29.2295" rx="5" ry="5" style="stroke:#181818;stroke-width:1.5;" width="29" x="40" y="67.2295"/><text fill="#000000" font-family="sans-serif" font-size="14" lengthAdjust="spacing" textLength="19" x="45" y="88.3828">did</text><line style="stroke:#181818;stroke-width:1.5;" x1="69" x2="89" y1="81.8442" y2="81.8442"/><path d="M97,73.8442 C97,79.8442 95,81.8442 89,81.8442 " fill="none" style="stroke:#181818;stroke-width:1.5;"/><line style="stroke:#181818;stroke-width:1.5;" x1="97" x2="97" y1="52.2295" y2="73.8442"/><path d="M97,52.2295 C97,46.2295 99,44.2295 105,44.2295 " fill="none" style="stroke:#181818;stroke-width:1.5;"/><line style="stroke:#181818;stroke-width:1.5;" x1="105" x2="231" y1="44.2295" y2="44.2295"/><path d="M153.4,44.2295 L153.4,41.2295 L159.4,44.2295 L153.4,47.2295 L153.4,44.2295 " fill="#181818" style="stroke:#181818;stroke-width:1.5;"/><path d="M239,73.8442 C239,79.8442 241,81.8442 247,81.8442 " fill="none" style="stroke:#181818;stroke-width:1.5;"/><line style="stroke:#181818;stroke-width:1.5;" x1="239" x2="239" y1="52.2295" y2="73.8442"/><path d="M231,44.2295 C237,44.2295 239,46.2295 239,52.2295 " fill="none" style="stroke:#181818;stroke-width:1.5;"/><line style="stroke:#181818;stroke-width:1.5;" x1="89" x2="104" y1="81.8442" y2="81.8442"/><line style="stroke:#181818;stroke-width:1.5;" x1="232" x2="247" y1="81.8442" y2="81.8442"/><path d="M112,73.8442 C112,79.8442 114,81.8442 120,81.8442 " fill="none" style="stroke:#181818;stroke-width:1.5;"/><line style="stroke:#181818;stroke-width:1.5;" x1="112" x2="112" y1="68.2295" y2="73.8442"/><path d="M112,68.2295 C112,62.2295 114,60.2295 120,60.2295 " fill="none" style="stroke:#181818;stroke-width:1.5;"/><line style="stroke:#181818;stroke-width:1.5;" x1="119" x2="217" y1="60.2295" y2="60.2295"/><path d="M175.8,60.2295 L175.8,57.2295 L169.8,60.2295 L175.8,63.2295 L175.8,60.2295 " fill="#181818" style="stroke:#181818;stroke-width:1.5;"/><path d="M224,73.8442 C224,79.8442 222,81.8442 216,81.8442 " fill="none" style="stroke:#181818;stroke-width:1.5;"/><line style="stroke:#181818;stroke-width:1.5;" x1="224" x2="224" y1="68.2295" y2="73.8442"/><path d="M216,60.2295 C222,60.2295 224,62.2295 224,68.2295 " fill="none" style="stroke:#181818;stroke-width:1.5;"/><line style="stroke:#181818;stroke-width:1.5;" x1="104" x2="119" y1="81.8442" y2="81.8442"/><line style="stroke:#181818;stroke-width:1.5;" x1="217" x2="232" y1="81.8442" y2="81.8442"/><line style="stroke:#181818;stroke-width:1.5;" x1="119" x2="119" y1="81.8442" y2="81.8442"/><rect fill="none" height="29.2295" style="stroke:#181818;stroke-width:0.5;" width="14" x="119" y="67.2295"/><text fill="#000000" font-family="sans-serif" font-size="14" lengthAdjust="spacing" textLength="4" x="124" y="88.3828">/</text><line style="stroke:#181818;stroke-width:1.5;" x1="133" x2="153" y1="81.8442" y2="81.8442"/><rect fill="#F1F1F1" height="29.2295" rx="5" ry="5" style="stroke:#181818;stroke-width:1.5;" width="64" x="153" y="67.2295"/><text fill="#000000" font-family="sans-serif" font-size="14" lengthAdjust="spacing" textLength="54" x="158" y="88.3828">segment</text><line style="stroke:#181818;stroke-width:1.5;" x1="247" x2="267" y1="81.8442" y2="81.8442"/><path d="M275,73.8442 C275,79.8442 273,81.8442 267,81.8442 " fill="none" style="stroke:#181818;stroke-width:1.5;"/><line style="stroke:#181818;stroke-width:1.5;" x1="275" x2="275" y1="64.2295" y2="73.8442"/><path d="M275,64.2295 C275,58.2295 277,56.2295 283,56.2295 " fill="none" style="stroke:#181818;stroke-width:1.5;"/><line style="stroke:#181818;stroke-width:1.5;" x1="283" x2="387" y1="56.2295" y2="56.2295"/><path d="M322.6,56.2295 L322.6,53.2295 L328.6,56.2295 L322.6,59.2295 L322.6,56.2295 " fill="#181818" style="stroke:#181818;stroke-width:1.5;"/><path d="M395,73.8442 C395,79.8442 397,81.8442 403,81.8442 " fill="none" style="stroke:#181818;stroke-width:1.5;"/><line style="stroke:#181818;stroke-width:1.5;" x1="395" x2="395" y1="64.2295" y2="73.8442"/><path d="M387,56.2295 C393,56.2295 395,58.2295 395,64.2295 " fill="none" style="stroke:#181818;stroke-width:1.5;"/><line style="stroke:#181818;stroke-width:1.5;" x1="267" x2="282" y1="81.8442" y2="81.8442"/><line style="stroke:#181818;stroke-width:1.5;" x1="388" x2="403" y1="81.8442" y2="81.8442"/><line style="stroke:#181818;stroke-width:1.5;" x1="282" x2="282" y1="81.8442" y2="81.8442"/><rect fill="none" height="29.2295" style="stroke:#181818;stroke-width:0.5;" width="18" x="282" y="67.2295"/><text fill="#000000" font-family="sans-serif" font-size="14" lengthAdjust="spacing" textLength="8" x="287" y="88.3828">?</text><line style="stroke:#181818;stroke-width:1.5;" x1="300" x2="320" y1="81.8442" y2="81.8442"/><rect fill="#F1F1F1" height="29.2295" rx="5" ry="5" style="stroke:#181818;stroke-width:1.5;" width="68" x="320" y="67.2295"/><text fill="#000000" font-family="sans-serif" font-size="14" lengthAdjust="spacing" textLength="58" x="325" y="88.3828">query-list</text><line style="stroke:#181818;stroke-width:1.5;" x1="403" x2="423" y1="81.8442" y2="81.8442"/><path d="M431,73.8442 C431,79.8442 429,81.8442 423,81.8442 " fill="none" style="stroke:#181818;stroke-width:1.5;"/><line style="stroke:#181818;stroke-width:1.5;" x1="431" x2="431" y1="64.2295" y2="73.8442"/><path d="M431,64.2295 C431,58.2295 433,56.2295 439,56.2295 " fill="none" style="stroke:#181818;stroke-width:1.5;"/><line style="stroke:#181818;stroke-width:1.5;" x1="439" x2="541" y1="56.2295" y2="56.2295"/><path d="M477.8,56.2295 L477.8,53.2295 L483.8,56.2295 L477.8,59.2295 L477.8,56.2295 " fill="#181818" style="stroke:#181818;stroke-width:1.5;"/><path d="M549,73.8442 C549,79.8442 551,81.8442 557,81.8442 " fill="none" style="stroke:#181818;stroke-width:1.5;"/><line style="stroke:#181818;stroke-width:1.5;" x1="549" x2="549" y1="64.2295" y2="73.8442"/><path d="M541,56.2295 C547,56.2295 549,58.2295 549,64.2295 " fill="none" style="stroke:#181818;stroke-width:1.5;"/><line style="stroke:#181818;stroke-width:1.5;" x1="423" x2="438" y1="81.8442" y2="81.8442"/><line style="stroke:#181818;stroke-width:1.5;" x1="542" x2="557" y1="81.8442" y2="81.8442"/><line style="stroke:#181818;stroke-width:1.5;" x1="438" x2="438" y1="81.8442" y2="81.8442"/><rect fill="none" height="29.2295" style="stroke:#181818;stroke-width:0.5;" width="18" x="438" y="67.2295"/><text fill="#000000" font-family="sans-serif" font-size="14" lengthAdjust="spacing" textLength="8" x="443" y="88.3828">#</text><line style="stroke:#181818;stroke-width:1.5;" x1="456" x2="476" y1="81.8442" y2="81.8442"/><rect fill="#F1F1F1" height="29.2295" rx="5" ry="5" style="stroke:#181818;stroke-width:1.5;" width="66" x="476" y="67.2295"/><text fill="#000000" font-family="sans-serif" font-size="14" lengthAdjust="spacing" textLength="56" x="481" y="88.3828">fragment</text><ellipse cx="14" cy="81.8442" fill="none" rx="4" ry="4" style="stroke:#181818;stroke-width:2.0;"/><ellipse cx="587" cy="81.8442" fill="#181818" rx="4" ry="4" style="stroke:#181818;stroke-width:1.0;"/><line style="stroke:#181818;stroke-width:1.5;" x1="18" x2="40" y1="81.8442" y2="81.8442"/><line style="stroke:#181818;stroke-width:1.5;" x1="557" x2="583" y1="81.8442" y2="81.8442"/><path d="M568,81.8442 L568,78.8442 L574,81.8442 L568,84.8442 L568,81.8442 " fill="#181818" style="stroke:#181818;stroke-width:1.5;"/><!--SRC=[HKxRIiD047tVhnZYImj9JMiiD28MhHLomT9eNwIKJJC9Y-bktPqDXEA_kn74fpDpRfob8Qu9Ira3zMSyLA8wMDqoXu53k0Tt-N3nhZqV33OdbFJjmuVtuFulYxeFMc5eFr1NZger__NixzWIPJKKCxPfkQJtF8CEjH5AmdGo2sVHv6QqrWBMMC9q3c4KHs4Sta9QlC4WZzdePPE1KLOVqSqmf4LfoUN7BE4TXwsL94uOm-iPPR9A_mXubftGIWuxMBBB_mtpA7WK10LgjmHsELjXpMrBBd5KbP1D37cnY1OiuxAnl77TduezATUh-nZIxGy0]--></g></svg>