<?xml version="1.0" encoding="UTF-8"?><svg xmlns="http://www.w3.org/2000/svg" xmlns:xlink="http://www.w3.org/1999/xlink" fill-opacity="1" color-rendering="auto" color-interpolation="auto" text-rendering="auto" stroke="black" stroke-linecap="square" width="670" stroke-miterlimit="10" shape-rendering="auto" stroke-opacity="1" fill="black" stroke-dasharray="none" font-weight="normal" stroke-width="1" height="215" font-family="'Dialog'" font-style="normal" stroke-linejoin="miter" font-size="12px" stroke-dashoffset="0" image-rendering="auto">
  <!--Generated by ySVG 2.6-->
  <defs id="genericDefs"/>
  <g>
    <defs id="defs1">
      <clipPath clipPathUnits="userSpaceOnUse" id="clipPath1">
        <path d="M0 0 L670 0 L670 215 L0 215 L0 0 Z"/>
      </clipPath>
      <clipPath clipPathUnits="userSpaceOnUse" id="clipPath2">
        <path d="M218 175 L888 175 L888 390 L218 390 L218 175 Z"/>
      </clipPath>
    </defs>
    <g fill="white" text-rendering="geometricPrecision" shape-rendering="geometricPrecision" transform="translate(-218,-175)" stroke="white">
      <rect x="218" width="670" height="215" y="175" clip-path="url(#clipPath2)" stroke="none"/>
    </g>
    <g fill="white" text-rendering="geometricPrecision" shape-rendering="geometricPrecision" transform="matrix(1,0,0,1,-218,-175)" stroke="white">
      <rect x="270" width="107" height="170" y="205" clip-path="url(#clipPath2)" stroke="none"/>
    </g>
    <g text-rendering="geometricPrecision" stroke-miterlimit="1.45" shape-rendering="geometricPrecision" transform="matrix(1,0,0,1,-218,-175)" stroke-linecap="butt">
      <rect fill="none" x="270" width="107" height="170" y="205" clip-path="url(#clipPath2)"/>
      <text x="312.3945" font-size="16px" y="286.1328" clip-path="url(#clipPath2)" font-family="sans-serif" stroke="none" font-weight="bold" xml:space="preserve">(A)</text>
      <text x="312.3867" font-size="16px" y="307.4141" clip-path="url(#clipPath2)" font-family="sans-serif" stroke="none" font-weight="bold" xml:space="preserve">VC</text>
      <text x="280.1699" xml:space="preserve" y="341.3008" clip-path="url(#clipPath2)" font-family="sans-serif" stroke="none">(예: 운전면허증)</text>
    </g>
    <g fill="white" text-rendering="geometricPrecision" shape-rendering="geometricPrecision" transform="matrix(1,0,0,1,-218,-175)" stroke="white">
      <rect x="518" width="107" height="70" y="305" clip-path="url(#clipPath2)" stroke="none"/>
    </g>
    <g stroke-linecap="butt" transform="matrix(1,0,0,1,-218,-175)" fill="blue" text-rendering="geometricPrecision" shape-rendering="geometricPrecision" stroke-dasharray="12,4" stroke="blue" stroke-width="2" stroke-miterlimit="1.45">
      <rect fill="none" x="518" width="107" height="70" y="305" clip-path="url(#clipPath2)"/>
    </g>
    <g font-size="16px" stroke-linecap="butt" transform="matrix(1,0,0,1,-218,-175)" text-rendering="geometricPrecision" font-family="sans-serif" shape-rendering="geometricPrecision" font-weight="bold" stroke-miterlimit="1.45">
      <text x="560.3945" xml:space="preserve" y="336.1328" clip-path="url(#clipPath2)" stroke="none">(C)</text>
      <text x="527.4805" xml:space="preserve" y="357.4141" clip-path="url(#clipPath2)" stroke="none">VC Schema</text>
    </g>
    <g fill="white" text-rendering="geometricPrecision" shape-rendering="geometricPrecision" transform="matrix(1,0,0,1,-218,-175)" stroke="white">
      <rect x="766" width="107" height="70" y="205" clip-path="url(#clipPath2)" stroke="none"/>
    </g>
    <g text-rendering="geometricPrecision" stroke-miterlimit="1.45" shape-rendering="geometricPrecision" transform="matrix(1,0,0,1,-218,-175)" stroke-linecap="butt">
      <rect fill="none" x="766" width="107" height="70" y="205" clip-path="url(#clipPath2)"/>
      <text x="808.3945" font-size="16px" y="236.1328" clip-path="url(#clipPath2)" font-family="sans-serif" stroke="none" font-weight="bold" xml:space="preserve">(B)</text>
      <text x="781.2734" font-size="16px" y="257.4141" clip-path="url(#clipPath2)" font-family="sans-serif" stroke="none" font-weight="bold" xml:space="preserve">VC format</text>
    </g>
    <g fill="white" text-rendering="geometricPrecision" shape-rendering="geometricPrecision" transform="matrix(1,0,0,1,-218,-175)" stroke="white">
      <rect x="766" width="107" height="70" y="305" clip-path="url(#clipPath2)" stroke="none"/>
    </g>
    <g stroke-linecap="butt" transform="matrix(1,0,0,1,-218,-175)" fill="blue" text-rendering="geometricPrecision" shape-rendering="geometricPrecision" stroke-dasharray="12,4" stroke="blue" stroke-width="2" stroke-miterlimit="1.45">
      <rect fill="none" x="766" width="107" height="70" y="305" clip-path="url(#clipPath2)"/>
    </g>
    <g font-size="16px" stroke-linecap="butt" transform="matrix(1,0,0,1,-218,-175)" text-rendering="geometricPrecision" font-family="sans-serif" shape-rendering="geometricPrecision" font-weight="bold" stroke-miterlimit="1.45">
      <text x="808.3945" xml:space="preserve" y="325.4922" clip-path="url(#clipPath2)" stroke="none">(D)</text>
      <text x="775.4805" xml:space="preserve" y="346.7734" clip-path="url(#clipPath2)" stroke="none">VC Schema</text>
      <text x="794.6094" xml:space="preserve" y="368.0547" clip-path="url(#clipPath2)" stroke="none">format</text>
    </g>
    <g fill="rgb(255,204,0)" text-rendering="geometricPrecision" shape-rendering="geometricPrecision" transform="matrix(1,0,0,1,-218,-175)" stroke="rgb(255,204,0)">
      <path d="M269.5 220.5 L280.2998 213.2942 L300.677 213 L291.1 205.5 L300.677 198 L280.2998 197.7058 L269.5 190.5 L258.7001 197.7058 L238.323 198 L247.8998 205.5 L238.323 213 L258.7001 213.2942 Z" fill-rule="evenodd" clip-path="url(#clipPath2)" stroke="none"/>
    </g>
    <g text-rendering="geometricPrecision" stroke-miterlimit="1.45" shape-rendering="geometricPrecision" transform="matrix(1,0,0,1,-218,-175)" stroke-linecap="butt">
      <path fill="none" d="M269.5 220.5 L280.2998 213.2942 L300.677 213 L291.1 205.5 L300.677 198 L280.2998 197.7058 L269.5 190.5 L258.7001 197.7058 L238.323 198 L247.8998 205.5 L238.323 213 L258.7001 213.2942 Z" fill-rule="evenodd" clip-path="url(#clipPath2)"/>
      <text x="253.498" xml:space="preserve" y="210.5801" clip-path="url(#clipPath2)" font-family="sans-serif" stroke="none">JSON</text>
    </g>
    <g fill="rgb(204,255,204)" text-rendering="geometricPrecision" shape-rendering="geometricPrecision" transform="matrix(1,0,0,1,-218,-175)" stroke="rgb(204,255,204)">
      <path d="M766 220.5 L776.8 213.2942 L797.1769 213 L787.6 205.5 L797.1769 198 L776.8 197.7058 L766 190.5 L755.2 197.7058 L734.8231 198 L744.4 205.5 L734.8231 213 L755.2 213.2942 Z" fill-rule="evenodd" clip-path="url(#clipPath2)" stroke="none"/>
    </g>
    <g text-rendering="geometricPrecision" stroke-miterlimit="1.45" shape-rendering="geometricPrecision" transform="matrix(1,0,0,1,-218,-175)" stroke-linecap="butt">
      <path fill="none" d="M766 220.5 L776.8 213.2942 L797.1769 213 L787.6 205.5 L797.1769 198 L776.8 197.7058 L766 190.5 L755.2 197.7058 L734.8231 198 L744.4 205.5 L734.8231 213 L755.2 213.2942 Z" fill-rule="evenodd" clip-path="url(#clipPath2)"/>
      <text x="752.998" xml:space="preserve" y="210.5801" clip-path="url(#clipPath2)" font-family="sans-serif" stroke="none">OSD</text>
    </g>
    <g fill="rgb(204,255,204)" text-rendering="geometricPrecision" shape-rendering="geometricPrecision" transform="matrix(1,0,0,1,-218,-175)" stroke="rgb(204,255,204)">
      <path d="M766 320 L776.8 312.7943 L797.1769 312.5 L787.6 305 L797.1769 297.5 L776.8 297.2057 L766 290 L755.2 297.2057 L734.8231 297.5 L744.4 305 L734.8231 312.5 L755.2 312.7943 Z" fill-rule="evenodd" clip-path="url(#clipPath2)" stroke="none"/>
    </g>
    <g text-rendering="geometricPrecision" stroke-miterlimit="1.45" shape-rendering="geometricPrecision" transform="matrix(1,0,0,1,-218,-175)" stroke-linecap="butt">
      <path fill="none" d="M766 320 L776.8 312.7943 L797.1769 312.5 L787.6 305 L797.1769 297.5 L776.8 297.2057 L766 290 L755.2 297.2057 L734.8231 297.5 L744.4 305 L734.8231 312.5 L755.2 312.7943 Z" fill-rule="evenodd" clip-path="url(#clipPath2)"/>
      <text x="752.998" xml:space="preserve" y="310.0801" clip-path="url(#clipPath2)" font-family="sans-serif" stroke="none">OSD</text>
    </g>
    <g fill="rgb(255,204,0)" text-rendering="geometricPrecision" shape-rendering="geometricPrecision" transform="matrix(1,0,0,1,-218,-175)" stroke="rgb(255,204,0)">
      <path d="M518 320 L528.8 312.7942 L549.1769 312.5 L539.6 305 L549.1769 297.5 L528.8 297.2057 L518 290 L507.2 297.2057 L486.8231 297.5 L496.4 305 L486.8231 312.5 L507.2 312.7942 Z" fill-rule="evenodd" clip-path="url(#clipPath2)" stroke="none"/>
    </g>
    <g text-rendering="geometricPrecision" stroke-miterlimit="1.45" shape-rendering="geometricPrecision" transform="matrix(1,0,0,1,-218,-175)" stroke-linecap="butt">
      <path fill="none" d="M518 320 L528.8 312.7942 L549.1769 312.5 L539.6 305 L549.1769 297.5 L528.8 297.2057 L518 290 L507.2 297.2057 L486.8231 297.5 L496.4 305 L486.8231 312.5 L507.2 312.7942 Z" fill-rule="evenodd" clip-path="url(#clipPath2)"/>
      <text x="501.998" xml:space="preserve" y="310.0801" clip-path="url(#clipPath2)" font-family="sans-serif" stroke="none">JSON</text>
      <path fill="none" stroke-dasharray="6,2" d="M518 340 L384.9729 340" clip-path="url(#clipPath2)"/>
      <path stroke-dasharray="6,2" d="M376.9729 340 L388.9729 345 L385.9729 340 L388.9729 335 Z" clip-path="url(#clipPath2)" stroke="none"/>
      <text x="421.833" xml:space="preserve" y="317.1387" clip-path="url(#clipPath2)" font-family="sans-serif" stroke="none">VC Claim</text>
      <text x="421.833" xml:space="preserve" y="333.0996" clip-path="url(#clipPath2)" font-family="sans-serif" stroke="none">항목 정의</text>
      <path fill="none" stroke-dasharray="6,2" d="M766 240 L385.003 240" clip-path="url(#clipPath2)"/>
      <path stroke-dasharray="6,2" d="M377.003 240 L389.003 245 L386.003 240 L389.003 235 Z" clip-path="url(#clipPath2)" stroke="none"/>
      <text x="512.1621" xml:space="preserve" y="233.0996" clip-path="url(#clipPath2)" font-family="sans-serif" stroke="none">VC의 JSON 구조 정의</text>
      <path fill="none" stroke-dasharray="6,2" d="M766 340 L633 340" clip-path="url(#clipPath2)"/>
      <path stroke-dasharray="6,2" d="M625 340 L637 345 L634 340 L637 335 Z" clip-path="url(#clipPath2)" stroke="none"/>
      <text x="652.1641" xml:space="preserve" y="317.1387" clip-path="url(#clipPath2)" font-family="sans-serif" stroke="none">VC Schema의</text>
      <text x="652.1641" xml:space="preserve" y="333.0996" clip-path="url(#clipPath2)" font-family="sans-serif" stroke="none">JSON 구조 정의</text>
    </g>
  </g>
</svg>
