<?xml version="1.0" encoding="us-ascii" standalone="no"?><svg xmlns="http://www.w3.org/2000/svg" xmlns:xlink="http://www.w3.org/1999/xlink" contentStyleType="text/css" height="201px" preserveAspectRatio="none" style="width:369px;height:201px;background:#FFFFFF;" version="1.1" viewBox="0 0 369 201" width="369px" zoomAndPan="magnify"><defs/><g><text fill="#000000" font-family="sans-serif" font-size="14" font-weight="bold" lengthAdjust="spacing" textLength="64" x="10" y="26.1533">identifier</text><line style="stroke:#181818;stroke-width:1.5;" x1="40" x2="40" y1="81.8442" y2="81.8442"/><rect fill="#F1F1F1" height="29.2295" rx="5" ry="5" style="stroke:#181818;stroke-width:1.5;" width="54" x="64" y="67.2295"/><text fill="#000000" font-family="sans-serif" font-size="14" lengthAdjust="spacing" textLength="44" x="69" y="88.3828">ALPHA</text><line style="stroke:#181818;stroke-width:1.5;" x1="40" x2="64" y1="81.8442" y2="81.8442"/><line style="stroke:#181818;stroke-width:1.5;" x1="118" x2="142" y1="81.8442" y2="81.8442"/><rect fill="none" height="29.2295" style="stroke:#181818;stroke-width:0.5;" width="18" x="64" y="106.459"/><text fill="#000000" font-family="sans-serif" font-size="14" lengthAdjust="spacing" textLength="8" x="69" y="127.6123">_</text><line style="stroke:#181818;stroke-width:1.5;" x1="82" x2="118" y1="121.0737" y2="121.0737"/><path d="M98,121.0737 L98,118.0737 L104,121.0737 L98,124.0737 L98,121.0737 " fill="#181818" style="stroke:#181818;stroke-width:1.5;"/><path d="M52,109.0737 C52,118.0737 55,121.0737 64,121.0737 " fill="none" style="stroke:#181818;stroke-width:1.5;"/><line style="stroke:#181818;stroke-width:1.5;" x1="52" x2="52" y1="93.8442" y2="109.0737"/><path d="M40,81.8442 C49,81.8442 52,84.8442 52,93.8442 " fill="none" style="stroke:#181818;stroke-width:1.5;"/><path d="M130,109.0737 C130,118.0737 127,121.0737 118,121.0737 " fill="none" style="stroke:#181818;stroke-width:1.5;"/><line style="stroke:#181818;stroke-width:1.5;" x1="130" x2="130" y1="93.8442" y2="109.0737"/><path d="M130,93.8442 C130,84.8442 133,81.8442 142,81.8442 " fill="none" style="stroke:#181818;stroke-width:1.5;"/><line style="stroke:#181818;stroke-width:1.5;" x1="142" x2="162" y1="81.8442" y2="81.8442"/><path d="M170,73.8442 C170,79.8442 168,81.8442 162,81.8442 " fill="none" style="stroke:#181818;stroke-width:1.5;"/><line style="stroke:#181818;stroke-width:1.5;" x1="170" x2="170" y1="52.2295" y2="73.8442"/><path d="M170,52.2295 C170,46.2295 172,44.2295 178,44.2295 " fill="none" style="stroke:#181818;stroke-width:1.5;"/><line style="stroke:#181818;stroke-width:1.5;" x1="178" x2="308" y1="44.2295" y2="44.2295"/><path d="M228,44.2295 L228,41.2295 L234,44.2295 L228,47.2295 L228,44.2295 " fill="#181818" style="stroke:#181818;stroke-width:1.5;"/><path d="M316,73.8442 C316,79.8442 318,81.8442 324,81.8442 " fill="none" style="stroke:#181818;stroke-width:1.5;"/><line style="stroke:#181818;stroke-width:1.5;" x1="316" x2="316" y1="52.2295" y2="73.8442"/><path d="M308,44.2295 C314,44.2295 316,46.2295 316,52.2295 " fill="none" style="stroke:#181818;stroke-width:1.5;"/><line style="stroke:#181818;stroke-width:1.5;" x1="162" x2="177" y1="81.8442" y2="81.8442"/><line style="stroke:#181818;stroke-width:1.5;" x1="309" x2="324" y1="81.8442" y2="81.8442"/><path d="M185,73.8442 C185,79.8442 187,81.8442 193,81.8442 " fill="none" style="stroke:#181818;stroke-width:1.5;"/><line style="stroke:#181818;stroke-width:1.5;" x1="185" x2="185" y1="68.2295" y2="73.8442"/><path d="M185,68.2295 C185,62.2295 187,60.2295 193,60.2295 " fill="none" style="stroke:#181818;stroke-width:1.5;"/><line style="stroke:#181818;stroke-width:1.5;" x1="192" x2="294" y1="60.2295" y2="60.2295"/><path d="M251.2,60.2295 L251.2,57.2295 L245.2,60.2295 L251.2,63.2295 L251.2,60.2295 " fill="#181818" style="stroke:#181818;stroke-width:1.5;"/><path d="M301,73.8442 C301,79.8442 299,81.8442 293,81.8442 " fill="none" style="stroke:#181818;stroke-width:1.5;"/><line style="stroke:#181818;stroke-width:1.5;" x1="301" x2="301" y1="68.2295" y2="73.8442"/><path d="M293,60.2295 C299,60.2295 301,62.2295 301,68.2295 " fill="none" style="stroke:#181818;stroke-width:1.5;"/><line style="stroke:#181818;stroke-width:1.5;" x1="177" x2="192" y1="81.8442" y2="81.8442"/><line style="stroke:#181818;stroke-width:1.5;" x1="294" x2="309" y1="81.8442" y2="81.8442"/><rect fill="#F1F1F1" height="29.2295" rx="5" ry="5" style="stroke:#181818;stroke-width:1.5;" width="54" x="216" y="67.2295"/><text fill="#000000" font-family="sans-serif" font-size="14" lengthAdjust="spacing" textLength="44" x="221" y="88.3828">ALPHA</text><line style="stroke:#181818;stroke-width:1.5;" x1="192" x2="216" y1="81.8442" y2="81.8442"/><line style="stroke:#181818;stroke-width:1.5;" x1="270" x2="294" y1="81.8442" y2="81.8442"/><rect fill="#F1F1F1" height="29.2295" rx="5" ry="5" style="stroke:#181818;stroke-width:1.5;" width="46" x="216" y="106.459"/><text fill="#000000" font-family="sans-serif" font-size="14" lengthAdjust="spacing" textLength="36" x="221" y="127.6123">DIGIT</text><path d="M204,109.0737 C204,118.0737 207,121.0737 216,121.0737 " fill="none" style="stroke:#181818;stroke-width:1.5;"/><line style="stroke:#181818;stroke-width:1.5;" x1="262" x2="270" y1="121.0737" y2="121.0737"/><path d="M282,109.0737 C282,118.0737 279,121.0737 270,121.0737 " fill="none" style="stroke:#181818;stroke-width:1.5;"/><rect fill="none" height="29.2295" style="stroke:#181818;stroke-width:0.5;" width="18" x="216" y="145.6885"/><text fill="#000000" font-family="sans-serif" font-size="14" lengthAdjust="spacing" textLength="8" x="221" y="166.8418">_</text><line style="stroke:#181818;stroke-width:1.5;" x1="234" x2="270" y1="160.3032" y2="160.3032"/><path d="M250,160.3032 L250,157.3032 L256,160.3032 L250,163.3032 L250,160.3032 " fill="#181818" style="stroke:#181818;stroke-width:1.5;"/><path d="M204,148.3032 C204,157.3032 207,160.3032 216,160.3032 " fill="none" style="stroke:#181818;stroke-width:1.5;"/><line style="stroke:#181818;stroke-width:1.5;" x1="204" x2="204" y1="93.8442" y2="148.3032"/><path d="M192,81.8442 C201,81.8442 204,84.8442 204,93.8442 " fill="none" style="stroke:#181818;stroke-width:1.5;"/><path d="M282,148.3032 C282,157.3032 279,160.3032 270,160.3032 " fill="none" style="stroke:#181818;stroke-width:1.5;"/><line style="stroke:#181818;stroke-width:1.5;" x1="282" x2="282" y1="93.8442" y2="148.3032"/><path d="M282,93.8442 C282,84.8442 285,81.8442 294,81.8442 " fill="none" style="stroke:#181818;stroke-width:1.5;"/><ellipse cx="14" cy="81.8442" fill="none" rx="4" ry="4" style="stroke:#181818;stroke-width:2.0;"/><ellipse cx="354" cy="81.8442" fill="#181818" rx="4" ry="4" style="stroke:#181818;stroke-width:1.0;"/><line style="stroke:#181818;stroke-width:1.5;" x1="18" x2="40" y1="81.8442" y2="81.8442"/><line style="stroke:#181818;stroke-width:1.5;" x1="324" x2="350" y1="81.8442" y2="81.8442"/><path d="M335,81.8442 L335,78.8442 L341,81.8442 L335,84.8442 L335,81.8442 " fill="#181818" style="stroke:#181818;stroke-width:1.5;"/><!--SRC=[HOxHQi9044NVzoikFYNGIhIfO4f1srHhJAWOwwjip2GiDRDbimcKjl_UbIA-pToPUpYprafZgU0AhDcIQGwg9BQgKcJ4TSGZl7cwUPtZ1uF3mB_1zsMDLylLxZ_-VH0pulAC4s9pacpVinGzcLPfncWu3iRXyCvR68K55HXD48HH64J1FTRv3kUpBxpb9aMhEtCabAgrHXMTTNrV9BANs7PEgQ48Rv_4IRo-17ZXNXdDZLCMoJwxFap2soTbaPDn9jXd8gPATYVh6aTTAguZPFaqd8fKSjt9sh4_j7ZMZck-8gotVm00]--></g></svg>