<?xml version="1.0" encoding="us-ascii" standalone="no"?><svg xmlns="http://www.w3.org/2000/svg" xmlns:xlink="http://www.w3.org/1999/xlink" contentStyleType="text/css" height="329px" preserveAspectRatio="none" style="width:535px;height:329px;background:#FFFFFF;" version="1.1" viewBox="0 0 535 329" width="535px" zoomAndPan="magnify"><defs/><g><rect fill="none" height="21.1992" style="stroke:none;stroke-width:1.0;" width="502" x="15" y="12.2969"/><ellipse cx="109.5" cy="48.4961" fill="#222222" rx="10" ry="10" style="stroke:#222222;stroke-width:1.0;"/><rect fill="#F1F1F1" height="34.1328" rx="12.5" ry="12.5" style="stroke:#181818;stroke-width:0.5;" width="177" x="21" y="78.4961"/><text fill="#000000" font-family="sans-serif" font-size="12" lengthAdjust="spacing" textLength="157" x="31" y="100.0977">Create DID Document Body</text><rect fill="#F1F1F1" height="34.1328" rx="12.5" ry="12.5" style="stroke:#181818;stroke-width:0.5;" width="173" x="23" y="132.6289"/><text fill="#000000" font-family="sans-serif" font-size="12" lengthAdjust="spacing" textLength="153" x="33" y="154.2305">Generate Holder Signature</text><line style="stroke:#000000;stroke-width:1.5;" x1="15" x2="15" y1="12.2969" y2="317.0273"/><rect fill="#F1F1F1" height="34.1328" rx="12.5" ry="12.5" style="stroke:#181818;stroke-width:0.5;" width="303" x="208" y="186.7617"/><text fill="#000000" font-family="sans-serif" font-size="12" lengthAdjust="spacing" textLength="283" x="218" y="208.3633">Verify Holder Signature and Remove it from Body</text><rect fill="#F1F1F1" height="34.1328" rx="12.5" ry="12.5" style="stroke:#181818;stroke-width:0.5;" width="281" x="219" y="240.8945"/><text fill="#000000" font-family="sans-serif" font-size="12" lengthAdjust="spacing" textLength="261" x="229" y="262.4961">Store DID Document Body in Trust Repository</text><ellipse cx="359.5" cy="306.0273" fill="none" rx="11" ry="11" style="stroke:#222222;stroke-width:1.0;"/><ellipse cx="359.5" cy="306.0273" fill="#222222" rx="6" ry="6" style="stroke:#222222;stroke-width:1.0;"/><line style="stroke:#000000;stroke-width:1.5;" x1="202" x2="202" y1="12.2969" y2="317.0273"/><line style="stroke:#000000;stroke-width:1.5;" x1="515" x2="515" y1="12.2969" y2="317.0273"/><line style="stroke:#181818;stroke-width:1.0;" x1="109.5" x2="109.5" y1="58.4961" y2="78.4961"/><polygon fill="#181818" points="105.5,68.4961,109.5,78.4961,113.5,68.4961,109.5,72.4961" style="stroke:#181818;stroke-width:1.0;"/><line style="stroke:#181818;stroke-width:1.0;" x1="109.5" x2="109.5" y1="112.6289" y2="132.6289"/><polygon fill="#181818" points="105.5,122.6289,109.5,132.6289,113.5,122.6289,109.5,126.6289" style="stroke:#181818;stroke-width:1.0;"/><line style="stroke:#181818;stroke-width:1.0;" x1="359.5" x2="359.5" y1="220.8945" y2="240.8945"/><polygon fill="#181818" points="355.5,230.8945,359.5,240.8945,363.5,230.8945,359.5,234.8945" style="stroke:#181818;stroke-width:1.0;"/><line style="stroke:#181818;stroke-width:1.0;" x1="359.5" x2="359.5" y1="275.0273" y2="295.0273"/><polygon fill="#181818" points="355.5,285.0273,359.5,295.0273,363.5,285.0273,359.5,289.0273" style="stroke:#181818;stroke-width:1.0;"/><line style="stroke:#181818;stroke-width:1.0;" x1="109.5" x2="109.5" y1="166.7617" y2="171.7617"/><line style="stroke:#181818;stroke-width:1.0;" x1="109.5" x2="359.5" y1="171.7617" y2="171.7617"/><line style="stroke:#181818;stroke-width:1.0;" x1="359.5" x2="359.5" y1="171.7617" y2="186.7617"/><polygon fill="#181818" points="355.5,176.7617,359.5,186.7617,363.5,176.7617,359.5,180.7617" style="stroke:#181818;stroke-width:1.0;"/><text fill="#000000" font-family="sans-serif" font-size="18" lengthAdjust="spacing" textLength="57" x="80" y="29.6992">Holder</text><text fill="#000000" font-family="sans-serif" font-size="18" lengthAdjust="spacing" textLength="86" x="315.5" y="29.6992">Controller</text><!--SRC=[ROqn3e9044NxFSLqtW4w8L5RCVORTj19bXao-p4XuV12Z9NM_xtt3va748nS7azG4kSUOXhMi-N4leQ2w0XLunp1r5vQQgsVHrRGqT9IX-h4ohwF7uKwUMZ4x5o7i3QcSCjvJrLtTXcM7uwY9hhoQ2yc0GrkuxVTmVpFAudIpUU2JPkio4PjT85DRm00]--></g></svg>