<?xml version="1.0" encoding="us-ascii" standalone="no"?><svg xmlns="http://www.w3.org/2000/svg" xmlns:xlink="http://www.w3.org/1999/xlink" contentStyleType="text/css" height="108px" preserveAspectRatio="none" style="width:680px;height:108px;background:#FFFFFF;" version="1.1" viewBox="0 0 680 108" width="680px" zoomAndPan="magnify"><defs/><g><g id="ACTIVATED"><rect fill="#F1F1F1" height="50" rx="12.5" ry="12.5" style="stroke:#181818;stroke-width:0.5;" width="99" x="61.5" y="52.17"/><line style="stroke:#181818;stroke-width:0.5;" x1="61.5" x2="160.5" y1="78.6583" y2="78.6583"/><text fill="#000000" font-family="sans-serif" font-size="14" lengthAdjust="spacing" textLength="79" x="71.5" y="70.7052">ACTIVATED</text></g><g id="DEACTIVATED"><rect fill="#F1F1F1" height="50" rx="12.5" ry="12.5" style="stroke:#181818;stroke-width:0.5;" width="117" x="195.5" y="52.17"/><line style="stroke:#181818;stroke-width:0.5;" x1="195.5" x2="312.5" y1="78.6583" y2="78.6583"/><text fill="#000000" font-family="sans-serif" font-size="14" lengthAdjust="spacing" textLength="97" x="205.5" y="70.7052">DEACTIVATED</text></g><g id="REVOKED"><rect fill="#F1F1F1" height="50" rx="12.5" ry="12.5" style="stroke:#181818;stroke-width:0.5;" width="84" x="348" y="52.17"/><line style="stroke:#181818;stroke-width:0.5;" x1="348" x2="432" y1="78.6583" y2="78.6583"/><text fill="#000000" font-family="sans-serif" font-size="14" lengthAdjust="spacing" textLength="64" x="358" y="70.7052">REVOKED</text></g><g id="TERMINATED"><rect fill="#F1F1F1" height="50.6211" rx="12.5" ry="12.5" style="stroke:#181818;stroke-width:0.5;" width="150" x="467" y="51.86"/><line style="stroke:#181818;stroke-width:0.5;" x1="467" x2="617" y1="78.3483" y2="78.3483"/><text fill="#000000" font-family="sans-serif" font-size="14" lengthAdjust="spacing" textLength="89" x="497.5" y="70.3952">TERMINATED</text><text fill="#000000" font-family="sans-serif" font-size="12" lengthAdjust="spacing" textLength="130" x="472" y="94.9498">Termination Start Date</text></g><ellipse cx="16" cy="77.17" fill="#222222" rx="10" ry="10" style="stroke:#222222;stroke-width:1.0;"/><ellipse cx="663" cy="77.17" fill="none" rx="11" ry="11" style="stroke:#222222;stroke-width:1.0;"/><ellipse cx="663" cy="77.17" fill="#222222" rx="6" ry="6" style="stroke:#222222;stroke-width:1.0;"/><!--link *start* to ACTIVATED--><g id="link_*start*_ACTIVATED"><path d="M26.39,77.17 C37.96,77.17 43.53,77.17 55.09,77.17 " fill="none" id="*start*-to-ACTIVATED" style="stroke:#181818;stroke-width:1.0;"/><polygon fill="#181818" points="61.09,77.17,52.09,73.17,56.09,77.17,52.09,81.17,61.09,77.17" style="stroke:#181818;stroke-width:1.0;"/></g><!--link ACTIVATED to DEACTIVATED--><g id="link_ACTIVATED_DEACTIVATED"><path d="M160.99,94.22 C172.38,96.02 177.7859,96.9465 189.1659,95.8865 " fill="none" id="ACTIVATED-to-DEACTIVATED" style="stroke:#181818;stroke-width:1.0;"/><polygon fill="#181818" points="195.14,95.33,185.8078,92.1819,190.1616,95.7937,186.5498,100.1475,195.14,95.33" style="stroke:#181818;stroke-width:1.0;"/></g><!--link DEACTIVATED to ACTIVATED--><g id="link_DEACTIVATED_ACTIVATED"><path d="M195.14,59.01 C183.76,57.95 178.3065,57.3834 166.9165,59.1834 " fill="none" id="DEACTIVATED-to-ACTIVATED" style="stroke:#181818;stroke-width:1.0;"/><polygon fill="#181818" points="160.99,60.12,170.5041,62.6661,165.9287,59.3395,169.2553,54.7642,160.99,60.12" style="stroke:#181818;stroke-width:1.0;"/></g><!--link ACTIVATED to REVOKED--><g id="link_ACTIVATED_REVOKED"><path d="M140.52,51.72 C155.84,40.19 175.51,27.82 195.5,21.86 C245.33,7 262.98,6 312.5,21.86 C331.23,27.86 344.6725,36.4108 358.6425,47.9408 " fill="none" id="ACTIVATED-to-REVOKED" style="stroke:#181818;stroke-width:1.0;"/><polygon fill="#181818" points="363.27,51.76,358.875,42.9462,359.4138,48.5773,353.7826,49.1161,363.27,51.76" style="stroke:#181818;stroke-width:1.0;"/></g><!--link DEACTIVATED to REVOKED--><g id="link_DEACTIVATED_REVOKED"><path d="M312.97,77.17 C324.5,77.17 330.04,77.17 341.57,77.17 " fill="none" id="DEACTIVATED-to-REVOKED" style="stroke:#181818;stroke-width:1.0;"/><polygon fill="#181818" points="347.57,77.17,338.57,73.17,342.57,77.17,338.57,81.17,347.57,77.17" style="stroke:#181818;stroke-width:1.0;"/></g><!--link REVOKED to TERMINATED--><g id="link_REVOKED_TERMINATED"><path d="M432.45,77.17 C443.86,77.17 449.28,77.17 460.69,77.17 " fill="none" id="REVOKED-to-TERMINATED" style="stroke:#181818;stroke-width:1.0;"/><polygon fill="#181818" points="466.69,77.17,457.69,73.17,461.69,77.17,457.69,81.17,466.69,77.17" style="stroke:#181818;stroke-width:1.0;"/></g><!--link TERMINATED to *end*--><g id="link_TERMINATED_*end*"><path d="M617.15,77.17 C628.61,77.17 634.08,77.17 645.54,77.17 " fill="none" id="TERMINATED-to-*end*" style="stroke:#181818;stroke-width:1.0;"/><polygon fill="#181818" points="651.54,77.17,642.54,73.17,646.54,77.17,642.54,81.17,651.54,77.17" style="stroke:#181818;stroke-width:1.0;"/></g><!--SRC=[Aov9B4bLS7GEyGnp375ruIe6yrrSqKM2NCFylU6y4DSWNqy_aBI2bK98Qb5kPbvYIMP-da9mIM9HYO8BK0qNLxHMh8Ak7PBPS1P86DaA50cOJLn8Ab3DGPE0Qu0oG6881t8XkHKe0NGK0000]--></g></svg>