<?xml version="1.0" encoding="us-ascii" standalone="no"?><svg xmlns="http://www.w3.org/2000/svg" xmlns:xlink="http://www.w3.org/1999/xlink" contentStyleType="text/css" height="1415px" preserveAspectRatio="none" style="width:962px;height:1415px;background:#FFFFFF;" version="1.1" viewBox="0 0 962 1415" width="962px" zoomAndPan="magnify"><defs/><g><text fill="#000000" font-family="sans-serif" font-size="25" font-weight="bold" lengthAdjust="spacing" textLength="161.6875" x="396.1563" y="43.8452">&#50900;&#47131;&#53664;&#53360; &#49373;&#49457;</text><rect fill="#FFFFFF" height="219.9917" style="stroke:#181818;stroke-width:1.0;" width="10" x="35" y="345.645"/><rect fill="#FFFFFF" height="192.9917" style="stroke:#181818;stroke-width:1.0;" width="10" x="35" y="1048.188"/><rect fill="#FFFFFF" height="1224.9502" style="stroke:#181818;stroke-width:1.0;" width="10" x="342" y="123.7974"/><rect fill="#FFFFFF" height="291.4155" style="stroke:#181818;stroke-width:1.0;" width="10" x="635" y="661.2046"/><line style="stroke:#181818;stroke-width:0.5;stroke-dasharray:5.0,5.0;" x1="40" x2="40" y1="113.7974" y2="1357.7476"/><line style="stroke:#181818;stroke-width:0.5;stroke-dasharray:5.0,5.0;" x1="346.3438" x2="346.3438" y1="113.7974" y2="1357.7476"/><line style="stroke:#181818;stroke-width:0.5;stroke-dasharray:5.0,5.0;" x1="639.6875" x2="639.6875" y1="113.7974" y2="1357.7476"/><rect fill="#E2E2F0" height="52.459" rx="2.5" ry="2.5" style="stroke:#181818;stroke-width:0.5;" width="70" x="5" y="60.3384"/><text fill="#000000" font-family="sans-serif" font-size="14" font-style="italic" lengthAdjust="spacing" textLength="56" x="12" y="83.4917">&#171;Wallet&#187;</text><text fill="#000000" font-family="sans-serif" font-size="14" font-weight="bold" lengthAdjust="spacing" textLength="28.875" x="25.5625" y="102.7212">&#50900;&#47131;</text><rect fill="#E2E2F0" height="52.459" rx="2.5" ry="2.5" style="stroke:#181818;stroke-width:0.5;" width="70" x="5" y="1356.7476"/><text fill="#000000" font-family="sans-serif" font-size="14" font-style="italic" lengthAdjust="spacing" textLength="56" x="12" y="1379.9009">&#171;Wallet&#187;</text><text fill="#000000" font-family="sans-serif" font-size="14" font-weight="bold" lengthAdjust="spacing" textLength="28.875" x="25.5625" y="1399.1304">&#50900;&#47131;</text><rect fill="#E2E2F0" height="52.459" rx="2.5" ry="2.5" style="stroke:#181818;stroke-width:0.5;" width="57.3125" x="318.3438" y="60.3384"/><text fill="#000000" font-family="sans-serif" font-size="14" font-style="italic" lengthAdjust="spacing" textLength="41" x="326.5" y="83.4917">&#171;App&#187;</text><text fill="#000000" font-family="sans-serif" font-size="14" font-weight="bold" lengthAdjust="spacing" textLength="43.3125" x="325.3438" y="102.7212">&#51064;&#44032;&#50545;</text><rect fill="#E2E2F0" height="52.459" rx="2.5" ry="2.5" style="stroke:#181818;stroke-width:0.5;" width="57.3125" x="318.3438" y="1356.7476"/><text fill="#000000" font-family="sans-serif" font-size="14" font-style="italic" lengthAdjust="spacing" textLength="41" x="326.5" y="1379.9009">&#171;App&#187;</text><text fill="#000000" font-family="sans-serif" font-size="14" font-weight="bold" lengthAdjust="spacing" textLength="43.3125" x="325.3438" y="1399.1304">&#51064;&#44032;&#50545;</text><rect fill="#E2E2F0" height="52.459" rx="2.5" ry="2.5" style="stroke:#181818;stroke-width:0.5;" width="104.625" x="587.6875" y="60.3384"/><text fill="#000000" font-family="sans-serif" font-size="14" font-style="italic" lengthAdjust="spacing" textLength="57" x="611.5" y="83.4917">&#171;Server&#187;</text><text fill="#000000" font-family="sans-serif" font-size="14" font-weight="bold" lengthAdjust="spacing" textLength="90.625" x="594.6875" y="102.7212">&#51064;&#44032;&#50545; &#49324;&#50629;&#51088;</text><rect fill="#E2E2F0" height="52.459" rx="2.5" ry="2.5" style="stroke:#181818;stroke-width:0.5;" width="104.625" x="587.6875" y="1356.7476"/><text fill="#000000" font-family="sans-serif" font-size="14" font-style="italic" lengthAdjust="spacing" textLength="57" x="611.5" y="1379.9009">&#171;Server&#187;</text><text fill="#000000" font-family="sans-serif" font-size="14" font-weight="bold" lengthAdjust="spacing" textLength="90.625" x="594.6875" y="1399.1304">&#51064;&#44032;&#50545; &#49324;&#50629;&#51088;</text><rect fill="#FFFFFF" height="219.9917" style="stroke:#181818;stroke-width:1.0;" width="10" x="35" y="345.645"/><rect fill="#FFFFFF" height="192.9917" style="stroke:#181818;stroke-width:1.0;" width="10" x="35" y="1048.188"/><rect fill="#FFFFFF" height="1224.9502" style="stroke:#181818;stroke-width:1.0;" width="10" x="342" y="123.7974"/><rect fill="#FFFFFF" height="291.4155" style="stroke:#181818;stroke-width:1.0;" width="10" x="635" y="661.2046"/><rect fill="#FEFFDD" height="43" style="stroke:#181818;stroke-width:0.5;" width="217" x="238" y="128.7974"/><text fill="#000000" font-family="sans-serif" font-size="13" font-weight="bold" lengthAdjust="spacing" textLength="82" x="242" y="147.7969">[Pre-defined]</text><ellipse cx="247.5" cy="161.0093" fill="#000000" rx="2.5" ry="2.5" style="stroke:#000000;stroke-width:0.0;"/><text fill="#000000" font-family="sans-serif" font-size="13" lengthAdjust="spacing" textLength="197" x="254" y="165.6528">PKG_NAME = &#51064;&#44032;&#50545;&#51032; &#54056;&#53412;&#51648;&#47749;</text><rect fill="#FEFFDD" height="43" style="stroke:#181818;stroke-width:0.5;" width="215" x="532" y="128.7974"/><text fill="#000000" font-family="sans-serif" font-size="13" font-weight="bold" lengthAdjust="spacing" textLength="82" x="536" y="147.7969">[Pre-defined]</text><ellipse cx="541.5" cy="161.0093" fill="#000000" rx="2.5" ry="2.5" style="stroke:#000000;stroke-width:0.0;"/><text fill="#000000" font-family="sans-serif" font-size="13" lengthAdjust="spacing" textLength="195" x="548" y="165.6528">PII = &#51064;&#44032;&#50545; &#49548;&#50976;&#51088;&#51032; &#44060;&#51064;&#49885;&#48324;&#51088;</text><rect fill="#EEEEEE" height="3" style="stroke:#EEEEEE;stroke-width:1.0;" width="955" x="0" y="199.4373"/><line style="stroke:#000000;stroke-width:1.0;" x1="0" x2="955" y1="199.4373" y2="199.4373"/><line style="stroke:#000000;stroke-width:1.0;" x1="0" x2="955" y1="202.4373" y2="202.4373"/><rect fill="#EEEEEE" height="25.856" style="stroke:#000000;stroke-width:2.0;" width="146" x="404.5" y="187.5093"/><text fill="#000000" font-family="sans-serif" font-size="13" font-weight="bold" lengthAdjust="spacing" textLength="128" x="410.5" y="206.5088">1. WalletTokenSeed</text><line style="stroke:#181818;stroke-width:1.0;" x1="352" x2="394" y1="282.9331" y2="282.9331"/><line style="stroke:#181818;stroke-width:1.0;" x1="394" x2="394" y1="282.9331" y2="295.9331"/><line style="stroke:#181818;stroke-width:1.0;" x1="353" x2="394" y1="295.9331" y2="295.9331"/><polygon fill="#181818" points="363,291.9331,353,295.9331,363,299.9331,359,295.9331" style="stroke:#181818;stroke-width:1.0;"/><text fill="#000000" font-family="sans-serif" font-size="13" font-weight="bold" lengthAdjust="spacing" textLength="15" x="359" y="260.2207">(1)</text><text fill="#000000" font-family="sans-serif" font-size="13" lengthAdjust="spacing" textLength="26" x="378" y="242.3647">&#51456;&#48708;</text><ellipse cx="383.5" cy="255.5771" fill="#000000" rx="2.5" ry="2.5" style="stroke:#000000;stroke-width:0.0;"/><text fill="#000000" font-family="sans-serif" font-size="13" lengthAdjust="spacing" textLength="161" x="390" y="260.2207">purpose = &#50857;&#46020;&#50640; &#47582;&#44172; &#51648;&#51221;</text><ellipse cx="383.5" cy="273.4331" fill="#000000" rx="2.5" ry="2.5" style="stroke:#000000;stroke-width:0.0;"/><text fill="#000000" font-family="sans-serif" font-size="13" lengthAdjust="spacing" textLength="144" x="390" y="278.0767">pkgName = PKG_NAME</text><polygon fill="#181818" points="56,341.645,46,345.645,56,349.645,52,345.645" style="stroke:#181818;stroke-width:1.0;"/><line style="stroke:#181818;stroke-width:1.0;" x1="50" x2="341" y1="345.645" y2="345.645"/><text fill="#000000" font-family="sans-serif" font-size="13" font-weight="bold" lengthAdjust="spacing" textLength="15" x="62" y="331.8606">(2)</text><text fill="#000000" font-family="sans-serif" font-size="13" lengthAdjust="spacing" textLength="138" x="81" y="322.9326">&#50900;&#47131;&#53664;&#53360; &#49884;&#46300; &#49373;&#49457;&#50836;&#52397;</text><text fill="#000000" font-family="sans-serif" font-size="13" lengthAdjust="spacing" textLength="117" x="81" y="340.7886">{purpose, pkgName}</text><line style="stroke:#181818;stroke-width:1.0;" x1="45" x2="87" y1="377.501" y2="377.501"/><line style="stroke:#181818;stroke-width:1.0;" x1="87" x2="87" y1="377.501" y2="390.501"/><line style="stroke:#181818;stroke-width:1.0;" x1="46" x2="87" y1="390.501" y2="390.501"/><polygon fill="#181818" points="56,386.501,46,390.501,56,394.501,52,390.501" style="stroke:#181818;stroke-width:1.0;"/><text fill="#000000" font-family="sans-serif" font-size="13" font-weight="bold" lengthAdjust="spacing" textLength="15" x="52" y="372.6445">(3)</text><text fill="#000000" font-family="sans-serif" font-size="13" lengthAdjust="spacing" textLength="182" x="71" y="372.6445">purpose, pkgName &#50976;&#54952;&#49457; &#54869;&#51064;</text><path d="M265,362.145 L265,389.145 L603,389.145 L603,372.145 L593,362.145 L265,362.145 " fill="#FEFFDD" style="stroke:#181818;stroke-width:0.5;"/><path d="M593,362.145 L593,372.145 L603,372.145 L593,362.145 " fill="#FEFFDD" style="stroke:#181818;stroke-width:0.5;"/><text fill="#000000" font-family="sans-serif" font-size="13" lengthAdjust="spacing" textLength="317" x="271" y="382.1445">pkgName &#44050;&#51012; &#54869;&#51064;&#54616;&#50668; &#51064;&#44032;&#46104;&#51648; &#50506;&#51008; &#50545;&#51032; &#51217;&#44540; &#52264;&#45800;</text><line style="stroke:#181818;stroke-width:1.0;" x1="45" x2="87" y1="458.0688" y2="458.0688"/><line style="stroke:#181818;stroke-width:1.0;" x1="87" x2="87" y1="458.0688" y2="471.0688"/><line style="stroke:#181818;stroke-width:1.0;" x1="46" x2="87" y1="471.0688" y2="471.0688"/><polygon fill="#181818" points="56,467.0688,46,471.0688,56,475.0688,52,471.0688" style="stroke:#181818;stroke-width:1.0;"/><text fill="#000000" font-family="sans-serif" font-size="13" font-weight="bold" lengthAdjust="spacing" textLength="15" x="52" y="435.3564">(4)</text><text fill="#000000" font-family="sans-serif" font-size="13" lengthAdjust="spacing" textLength="69" x="71" y="417.5005">&#45936;&#51060;&#53552; &#51456;&#48708;</text><ellipse cx="76.5" cy="430.7129" fill="#000000" rx="2.5" ry="2.5" style="stroke:#000000;stroke-width:0.0;"/><text fill="#000000" font-family="sans-serif" font-size="13" lengthAdjust="spacing" textLength="119" x="83" y="435.3564">validUntil = &#50976;&#54952;&#51068;&#49884;</text><ellipse cx="76.5" cy="448.5688" fill="#000000" rx="2.5" ry="2.5" style="stroke:#000000;stroke-width:0.0;"/><text fill="#000000" font-family="sans-serif" font-size="13" lengthAdjust="spacing" textLength="107" x="83" y="453.2124">nonce = &#45212;&#49688; &#49373;&#49457;</text><line style="stroke:#181818;stroke-width:1.0;" x1="45" x2="87" y1="520.7808" y2="520.7808"/><line style="stroke:#181818;stroke-width:1.0;" x1="87" x2="87" y1="520.7808" y2="533.7808"/><line style="stroke:#181818;stroke-width:1.0;" x1="46" x2="87" y1="533.7808" y2="533.7808"/><polygon fill="#181818" points="56,529.7808,46,533.7808,56,537.7808,52,533.7808" style="stroke:#181818;stroke-width:1.0;"/><text fill="#000000" font-family="sans-serif" font-size="13" font-weight="bold" lengthAdjust="spacing" textLength="15" x="52" y="506.9963">(5)</text><text fill="#000000" font-family="sans-serif" font-size="13" lengthAdjust="spacing" textLength="138" x="71" y="498.0684">(WalletTokenSeed)seed</text><text fill="#000000" font-family="sans-serif" font-size="13" lengthAdjust="spacing" textLength="227" x="75" y="515.9243">= {pupose, validUntil, pkgName, nonce}</text><polygon fill="#181818" points="330,561.6367,340,565.6367,330,569.6367,334,565.6367" style="stroke:#181818;stroke-width:1.0;"/><line style="stroke:#181818;stroke-width:1.0;stroke-dasharray:2.0,2.0;" x1="40" x2="336" y1="565.6367" y2="565.6367"/><text fill="#000000" font-family="sans-serif" font-size="13" font-weight="bold" lengthAdjust="spacing" textLength="15" x="47" y="560.7803">(6)</text><text fill="#000000" font-family="sans-serif" font-size="13" lengthAdjust="spacing" textLength="36" x="66" y="560.7803">{seed}</text><rect fill="#EEEEEE" height="3" style="stroke:#EEEEEE;stroke-width:1.0;" width="955" x="0" y="595.5647"/><line style="stroke:#000000;stroke-width:1.0;" x1="0" x2="955" y1="595.5647" y2="595.5647"/><line style="stroke:#000000;stroke-width:1.0;" x1="0" x2="955" y1="598.5647" y2="598.5647"/><rect fill="#EEEEEE" height="25.856" style="stroke:#000000;stroke-width:2.0;" width="142" x="406.5" y="583.6367"/><text fill="#000000" font-family="sans-serif" font-size="13" font-weight="bold" lengthAdjust="spacing" textLength="124" x="412.5" y="602.6362">2. WalletTokenData</text><polygon fill="#181818" points="623,657.2046,633,661.2046,623,665.2046,627,661.2046" style="stroke:#181818;stroke-width:1.0;"/><line style="stroke:#181818;stroke-width:1.0;" x1="352" x2="629" y1="661.2046" y2="661.2046"/><text fill="#000000" font-family="sans-serif" font-size="13" font-weight="bold" lengthAdjust="spacing" textLength="15" x="359" y="647.4202">(7)</text><text fill="#000000" font-family="sans-serif" font-size="13" lengthAdjust="spacing" textLength="151" x="378" y="638.4922">&#50900;&#47131;&#53664;&#53360; &#45936;&#51060;&#53552; &#49373;&#49457;&#50836;&#52397;</text><text fill="#000000" font-family="sans-serif" font-size="13" lengthAdjust="spacing" textLength="36" x="378" y="656.3481">{seed}</text><line style="stroke:#181818;stroke-width:1.0;" x1="645" x2="687" y1="764.4844" y2="764.4844"/><line style="stroke:#181818;stroke-width:1.0;" x1="687" x2="687" y1="764.4844" y2="777.4844"/><line style="stroke:#181818;stroke-width:1.0;" x1="646" x2="687" y1="777.4844" y2="777.4844"/><polygon fill="#181818" points="656,773.4844,646,777.4844,656,781.4844,652,777.4844" style="stroke:#181818;stroke-width:1.0;"/><text fill="#000000" font-family="sans-serif" font-size="13" font-weight="bold" lengthAdjust="spacing" textLength="15" x="652" y="723.916">(8)</text><text fill="#000000" font-family="sans-serif" font-size="13" lengthAdjust="spacing" textLength="69" x="671" y="688.2041">&#45936;&#51060;&#53552; &#51456;&#48708;</text><ellipse cx="676.5" cy="701.4165" fill="#000000" rx="2.5" ry="2.5" style="stroke:#000000;stroke-width:0.0;"/><text fill="#000000" font-family="sans-serif" font-size="13" lengthAdjust="spacing" textLength="207" x="683" y="706.0601">sha256_pii = multibase(sha256(PII))</text><ellipse cx="676.5" cy="719.2725" fill="#000000" rx="2.5" ry="2.5" style="stroke:#000000;stroke-width:0.0;"/><text fill="#000000" font-family="sans-serif" font-size="13" lengthAdjust="spacing" textLength="129" x="683" y="723.916">provider = &#49324;&#50629;&#51088; &#51221;&#48372;</text><ellipse cx="676.5" cy="737.1284" fill="#000000" rx="2.5" ry="2.5" style="stroke:#000000;stroke-width:0.0;"/><text fill="#000000" font-family="sans-serif" font-size="13" lengthAdjust="spacing" textLength="107" x="683" y="741.772">nonce = &#45212;&#49688; &#49373;&#49457;</text><ellipse cx="676.5" cy="754.9844" fill="#000000" rx="2.5" ry="2.5" style="stroke:#000000;stroke-width:0.0;"/><text fill="#000000" font-family="sans-serif" font-size="13" lengthAdjust="spacing" textLength="260" x="683" y="759.6279">dataset = {seed, sha256_pii, provider, nonce}</text><line style="stroke:#181818;stroke-width:1.0;" x1="645" x2="687" y1="845.0522" y2="845.0522"/><line style="stroke:#181818;stroke-width:1.0;" x1="687" x2="687" y1="845.0522" y2="858.0522"/><line style="stroke:#181818;stroke-width:1.0;" x1="646" x2="687" y1="858.0522" y2="858.0522"/><polygon fill="#181818" points="656,854.0522,646,858.0522,656,862.0522,652,858.0522" style="stroke:#181818;stroke-width:1.0;"/><text fill="#000000" font-family="sans-serif" font-size="13" font-weight="bold" lengthAdjust="spacing" textLength="15" x="652" y="822.3398">(9)</text><text fill="#000000" font-family="sans-serif" font-size="13" lengthAdjust="spacing" textLength="112" x="671" y="804.4839">&#51064;&#44032;&#50545; &#49324;&#50629;&#51088; &#49436;&#47749;</text><ellipse cx="676.5" cy="817.6963" fill="#000000" rx="2.5" ry="2.5" style="stroke:#000000;stroke-width:0.0;"/><text fill="#000000" font-family="sans-serif" font-size="13" lengthAdjust="spacing" textLength="159" x="683" y="822.3398">priKey = Attestation &#44060;&#51064;&#53412;</text><ellipse cx="676.5" cy="835.5522" fill="#000000" rx="2.5" ry="2.5" style="stroke:#000000;stroke-width:0.0;"/><text fill="#000000" font-family="sans-serif" font-size="13" lengthAdjust="spacing" textLength="202" x="683" y="840.1958">proof = signAssert(dataset, priKey)</text><line style="stroke:#181818;stroke-width:1.0;" x1="645" x2="687" y1="907.7642" y2="907.7642"/><line style="stroke:#181818;stroke-width:1.0;" x1="687" x2="687" y1="907.7642" y2="920.7642"/><line style="stroke:#181818;stroke-width:1.0;" x1="646" x2="687" y1="920.7642" y2="920.7642"/><polygon fill="#181818" points="656,916.7642,646,920.7642,656,924.7642,652,920.7642" style="stroke:#181818;stroke-width:1.0;"/><text fill="#000000" font-family="sans-serif" font-size="13" font-weight="bold" lengthAdjust="spacing" textLength="22" x="652" y="893.9797">(10)</text><text fill="#000000" font-family="sans-serif" font-size="13" lengthAdjust="spacing" textLength="127" x="678" y="885.0518">(WalletTokenData)wtd</text><text fill="#000000" font-family="sans-serif" font-size="13" lengthAdjust="spacing" textLength="249" x="682" y="902.9077">= {seed, sha256_pii, provider, nonce, proof}</text><polygon fill="#181818" points="363,948.6201,353,952.6201,363,956.6201,359,952.6201" style="stroke:#181818;stroke-width:1.0;"/><line style="stroke:#181818;stroke-width:1.0;stroke-dasharray:2.0,2.0;" x1="357" x2="639" y1="952.6201" y2="952.6201"/><text fill="#000000" font-family="sans-serif" font-size="13" font-weight="bold" lengthAdjust="spacing" textLength="22" x="369" y="947.7637">(11)</text><text fill="#000000" font-family="sans-serif" font-size="13" lengthAdjust="spacing" textLength="28" x="395" y="947.7637">{wtd}</text><rect fill="#EEEEEE" height="3" style="stroke:#EEEEEE;stroke-width:1.0;" width="955" x="0" y="982.5481"/><line style="stroke:#000000;stroke-width:1.0;" x1="0" x2="955" y1="982.5481" y2="982.5481"/><line style="stroke:#000000;stroke-width:1.0;" x1="0" x2="955" y1="985.5481" y2="985.5481"/><rect fill="#EEEEEE" height="25.856" style="stroke:#000000;stroke-width:2.0;" width="111" x="422" y="970.6201"/><text fill="#000000" font-family="sans-serif" font-size="13" font-weight="bold" lengthAdjust="spacing" textLength="93" x="428" y="989.6196">3. walletToken</text><polygon fill="#181818" points="56,1044.188,46,1048.188,56,1052.188,52,1048.188" style="stroke:#181818;stroke-width:1.0;"/><line style="stroke:#181818;stroke-width:1.0;" x1="50" x2="341" y1="1048.188" y2="1048.188"/><text fill="#000000" font-family="sans-serif" font-size="13" font-weight="bold" lengthAdjust="spacing" textLength="22" x="62" y="1034.4036">(12)</text><text fill="#000000" font-family="sans-serif" font-size="13" lengthAdjust="spacing" textLength="108" x="88" y="1025.4756">&#50900;&#47131;&#53664;&#53360; &#49373;&#49457;&#50836;&#52397;</text><text fill="#000000" font-family="sans-serif" font-size="13" lengthAdjust="spacing" textLength="28" x="88" y="1043.3315">{wtd}</text><line style="stroke:#181818;stroke-width:1.0;" x1="45" x2="87" y1="1115.7559" y2="1115.7559"/><line style="stroke:#181818;stroke-width:1.0;" x1="87" x2="87" y1="1115.7559" y2="1128.7559"/><line style="stroke:#181818;stroke-width:1.0;" x1="46" x2="87" y1="1128.7559" y2="1128.7559"/><polygon fill="#181818" points="56,1124.7559,46,1128.7559,56,1132.7559,52,1128.7559" style="stroke:#181818;stroke-width:1.0;"/><text fill="#000000" font-family="sans-serif" font-size="13" font-weight="bold" lengthAdjust="spacing" textLength="22" x="52" y="1093.0435">(13)</text><text fill="#000000" font-family="sans-serif" font-size="13" lengthAdjust="spacing" textLength="209" x="78" y="1075.1875">&#51064;&#44032;&#50545; &#49324;&#50629;&#51088; Attestation &#49436;&#47749; &#44160;&#51613;</text><ellipse cx="83.5" cy="1088.3999" fill="#000000" rx="2.5" ry="2.5" style="stroke:#000000;stroke-width:0.0;"/><text fill="#000000" font-family="sans-serif" font-size="13" lengthAdjust="spacing" textLength="194" x="90" y="1093.0435">(&#50741;&#49496;)&#49324;&#50629;&#51088; &#44032;&#51077;&#51613;&#47749;&#49436; VC &#44160;&#51613;</text><ellipse cx="83.5" cy="1106.2559" fill="#000000" rx="2.5" ry="2.5" style="stroke:#000000;stroke-width:0.0;"/><text fill="#000000" font-family="sans-serif" font-size="13" lengthAdjust="spacing" textLength="82" x="90" y="1110.8994">wtd.proof &#44160;&#51613;</text><line style="stroke:#181818;stroke-width:1.0;" x1="45" x2="87" y1="1196.3237" y2="1196.3237"/><line style="stroke:#181818;stroke-width:1.0;" x1="87" x2="87" y1="1196.3237" y2="1209.3237"/><line style="stroke:#181818;stroke-width:1.0;" x1="46" x2="87" y1="1209.3237" y2="1209.3237"/><polygon fill="#181818" points="56,1205.3237,46,1209.3237,56,1213.3237,52,1209.3237" style="stroke:#181818;stroke-width:1.0;"/><text fill="#000000" font-family="sans-serif" font-size="13" font-weight="bold" lengthAdjust="spacing" textLength="22" x="52" y="1173.6113">(14)</text><text fill="#000000" font-family="sans-serif" font-size="13" lengthAdjust="spacing" textLength="82" x="78" y="1155.7554">&#50900;&#47131;&#53664;&#53360; &#49373;&#49457;</text><ellipse cx="83.5" cy="1168.9678" fill="#000000" rx="2.5" ry="2.5" style="stroke:#000000;stroke-width:0.0;"/><text fill="#000000" font-family="sans-serif" font-size="13" lengthAdjust="spacing" textLength="141" x="90" y="1173.6113">resultNonce = &#45212;&#49688; &#49373;&#49457;</text><ellipse cx="83.5" cy="1186.8237" fill="#000000" rx="2.5" ry="2.5" style="stroke:#000000;stroke-width:0.0;"/><text fill="#000000" font-family="sans-serif" font-size="13" lengthAdjust="spacing" textLength="231" x="90" y="1191.4673">walletToken = sha256(wtd, resultNonce)</text><polygon fill="#181818" points="330,1237.1797,340,1241.1797,330,1245.1797,334,1241.1797" style="stroke:#181818;stroke-width:1.0;"/><line style="stroke:#181818;stroke-width:1.0;stroke-dasharray:2.0,2.0;" x1="40" x2="336" y1="1241.1797" y2="1241.1797"/><text fill="#000000" font-family="sans-serif" font-size="13" font-weight="bold" lengthAdjust="spacing" textLength="22" x="47" y="1236.3232">(15)</text><text fill="#000000" font-family="sans-serif" font-size="13" lengthAdjust="spacing" textLength="77" x="73" y="1236.3232">{resultNonce}</text><line style="stroke:#181818;stroke-width:1.0;" x1="352" x2="394" y1="1290.8916" y2="1290.8916"/><line style="stroke:#181818;stroke-width:1.0;" x1="394" x2="394" y1="1290.8916" y2="1303.8916"/><line style="stroke:#181818;stroke-width:1.0;" x1="353" x2="394" y1="1303.8916" y2="1303.8916"/><polygon fill="#181818" points="363,1299.8916,353,1303.8916,363,1307.8916,359,1303.8916" style="stroke:#181818;stroke-width:1.0;"/><text fill="#000000" font-family="sans-serif" font-size="13" font-weight="bold" lengthAdjust="spacing" textLength="22" x="359" y="1277.1072">(16)</text><text fill="#000000" font-family="sans-serif" font-size="13" lengthAdjust="spacing" textLength="82" x="385" y="1268.1792">&#50900;&#47131;&#53664;&#53360; &#49373;&#49457;</text><ellipse cx="390.5" cy="1281.3916" fill="#000000" rx="2.5" ry="2.5" style="stroke:#000000;stroke-width:0.0;"/><text fill="#000000" font-family="sans-serif" font-size="13" lengthAdjust="spacing" textLength="231" x="397" y="1286.0352">walletToken = sha256(wtd, resultNonce)</text><polygon fill="#32CD32" points="20,1316.8916,365,1316.8916,375,1328.8916,365,1341.8916,20,1341.8916,10,1328.8916,20,1316.8916" style="stroke:#181818;stroke-width:0.5;"/><text fill="#000000" font-family="sans-serif" font-size="13" lengthAdjust="spacing" textLength="188" x="98.8281" y="1335.8911">&#50900;&#47131;&#50640; &#51217;&#44540; &#49884; walletToken &#51228;&#52636;</text><!--SRC=[bLLTInj157tk_eeXlYHhL6gn3o49XBQ8s8fWFnvgaKqowc2ok-nEb5O2gKsaL4jjQp3LhEH1Qbein8z-WRyeE_aFlRExsUnkej9zINRctdFkEVVEB2KqXuLRSPsymh7nYIGxs3KR1vtDHkTr2x4t1YkVniVuPbB0SXPHAroG2bIH2_aqrb0edaw6XoBniNGo90Ygf56I8QeaKnGIHHjD54D8qj6Qb4Fn-3CfbyCqcUmBDVwqMoLMFNMYCn84frJrcaZ4DaxONeKTxhWvAYJDOMqLQv0dI1bALYMAOKCGD5c1VmfiyLS4ZoW-dzNmI1Ol4XbdNuYYlOfcfoSNPbAF7g04ShcOKKETxMPduuWTbypl5SiD2r8OGpvezNhigIalB6ARswpU00cSeDsgmmxRCippCYnvE8H40jqUHRPvZvKLBCzXd4M9X220KID9u8qXTbGo_vOvpxmi8hMWgOgEETl-D_D3cUtj8FFui7ssZK02QrJTm9Mb6IdF0xl2kw2yOyF30EmRYgsw-Rdkp0RRtsLdF-RbTOSjsaKhMdevW8qJGy481Bex-qq0GPqlLT1jPLXEQcHfcSRSm7Rh4pFAJbIdMcDx9uw3vauDj21MVSSC_cErYJK-jdzV8jPgcblDlZBCzorcN7JABOzTtOUxiIhbIFQ9J4cEEsUNQ5o2w62WhCWPRfgvKMTlQuuVVNJXGCiYEk-R3memm3xRcnwxwrFKPYeA6gO5JKRh7A5eJSIuRoBkIrJoJOJQtpoFUd__R51U4C-pqwysY-lNbwNnYRiBAY4W85_8KPAMT1osbyCmvv68DrpLb5MIXHEIw1rRQ5NLFB-uqLLlG1PKwfXoqtZDKKyTKPV4zImeQC3TWLYv3WVQNokPnY-18aKfrgb4YI8xXnCkW80gPH42TR8aftGTQpJi51XrK29zDOG3FOkiqQn_6cuK5hM9UpC14FP8t1dbSzU5zup3uBFi7m8B9JZ1Wopp-kBOrpuhiQz6y924MUqdgzGYlLIETLY1K4Y2LFJqtXMfKCoeRQ-ztrzOlv8WXePr6CoPwsRAfVEwvdWVXXgYNf28QxXdiUYxWmSNzHyCmdBlQm8fKVub77f8ydXImrYsNB19-8NUlUlWUlB2iqQT_QfRtmyBxHy0]--></g></svg>