<?xml version="1.0" encoding="us-ascii" standalone="no"?><svg xmlns="http://www.w3.org/2000/svg" xmlns:xlink="http://www.w3.org/1999/xlink" contentStyleType="text/css" height="1475px" preserveAspectRatio="none" style="width:893px;height:1475px;background:#FFFFFF;" version="1.1" viewBox="0 0 893 1475" width="893px" zoomAndPan="magnify"><defs/><g><text fill="#000000" font-family="sans-serif" font-size="25" font-weight="bold" lengthAdjust="spacing" textLength="362" x="261.75" y="43.8452">Summary of Issue VC Protocol</text><rect fill="#FDF5E6" height="1408.374" style="stroke:#181818;stroke-width:0.5;" width="292.5" x="16" y="61.3384"/><text fill="#000000" font-family="sans-serif" font-size="13" font-weight="bold" lengthAdjust="spacing" textLength="75" x="122.75" y="76.3379">User Mobile</text><rect fill="#FFFFFF" height="1257.6001" style="stroke:#181818;stroke-width:1.0;" width="10" x="42.5" y="146.6533"/><rect fill="#FFFFFF" height="320.4155" style="stroke:#181818;stroke-width:1.0;" width="10" x="248.5" y="911.7021"/><rect fill="#FFFFFF" height="140.4238" style="stroke:#181818;stroke-width:1.0;" width="10" x="441.5" y="377.0068"/><rect fill="#FFFFFF" height="31.856" style="stroke:#181818;stroke-width:1.0;" width="10" x="441.5" y="549.2866"/><rect fill="#FFFFFF" height="31.856" style="stroke:#181818;stroke-width:1.0;" width="10" x="441.5" y="612.9985"/><rect fill="#FFFFFF" height="140.4238" style="stroke:#181818;stroke-width:1.0;" width="10" x="441.5" y="721.5664"/><rect fill="#FFFFFF" height="158.2798" style="stroke:#181818;stroke-width:1.0;" width="10" x="441.5" y="961.4141"/><rect fill="#FFFFFF" height="113.4238" style="stroke:#181818;stroke-width:1.0;" width="10" x="441.5" y="1281.8296"/><rect fill="#FFFFFF" height="76.7119" style="stroke:#181818;stroke-width:1.0;" width="10" x="657.5" y="408.8628"/><rect fill="#FFFFFF" height="76.7119" style="stroke:#181818;stroke-width:1.0;" width="10" x="657.5" y="753.4224"/><rect fill="#FFFFFF" height="94.5679" style="stroke:#181818;stroke-width:1.0;" width="10" x="657.5" y="993.27"/><rect fill="#FFFFFF" height="31.856" style="stroke:#181818;stroke-width:1.0;" width="10" x="657.5" y="1331.5415"/><rect fill="none" height="100.7856" style="stroke:#000000;stroke-width:1.5;" width="261.5" x="10" y="199.5093"/><line style="stroke:#181818;stroke-width:0.5;stroke-dasharray:5.0,5.0;" x1="47" x2="47" y1="136.6533" y2="1413.2534"/><line style="stroke:#181818;stroke-width:0.5;stroke-dasharray:5.0,5.0;" x1="253.5" x2="253.5" y1="136.6533" y2="1413.2534"/><line style="stroke:#181818;stroke-width:0.5;stroke-dasharray:5.0,5.0;" x1="446" x2="446" y1="136.6533" y2="1413.2534"/><line style="stroke:#181818;stroke-width:0.5;stroke-dasharray:5.0,5.0;" x1="662.5" x2="662.5" y1="136.6533" y2="1413.2534"/><rect fill="#E2E2F0" height="52.459" rx="2.5" ry="2.5" style="stroke:#181818;stroke-width:0.5;" width="55" x="20" y="83.1943"/><text fill="#000000" font-family="sans-serif" font-size="14" font-style="italic" lengthAdjust="spacing" textLength="41" x="27" y="106.3477">&#171;App&#187;</text><text fill="#000000" font-family="sans-serif" font-size="14" font-weight="bold" lengthAdjust="spacing" textLength="37" x="29" y="125.5771">CApp</text><rect fill="#E2E2F0" height="52.459" rx="2.5" ry="2.5" style="stroke:#181818;stroke-width:0.5;" width="55" x="20" y="1412.2534"/><text fill="#000000" font-family="sans-serif" font-size="14" font-style="italic" lengthAdjust="spacing" textLength="41" x="27" y="1435.4067">&#171;App&#187;</text><text fill="#000000" font-family="sans-serif" font-size="14" font-weight="bold" lengthAdjust="spacing" textLength="37" x="29" y="1454.6362">CApp</text><rect fill="#E2E2F0" height="52.459" rx="2.5" ry="2.5" style="stroke:#181818;stroke-width:0.5;" width="102" x="202.5" y="83.1943"/><text fill="#000000" font-family="sans-serif" font-size="14" font-style="italic" lengthAdjust="spacing" textLength="44" x="231.5" y="106.3477">&#171;SDK&#187;</text><text fill="#000000" font-family="sans-serif" font-size="14" font-weight="bold" lengthAdjust="spacing" textLength="88" x="209.5" y="125.5771">Client Wallet</text><rect fill="#E2E2F0" height="52.459" rx="2.5" ry="2.5" style="stroke:#181818;stroke-width:0.5;" width="102" x="202.5" y="1412.2534"/><text fill="#000000" font-family="sans-serif" font-size="14" font-style="italic" lengthAdjust="spacing" textLength="44" x="231.5" y="1435.4067">&#171;SDK&#187;</text><text fill="#000000" font-family="sans-serif" font-size="14" font-weight="bold" lengthAdjust="spacing" textLength="88" x="209.5" y="1454.6362">Client Wallet</text><rect fill="#E2E2F0" height="52.459" rx="2.5" ry="2.5" style="stroke:#181818;stroke-width:0.5;" width="95" x="399" y="83.1943"/><text fill="#000000" font-family="sans-serif" font-size="14" font-style="italic" lengthAdjust="spacing" textLength="57" x="418" y="106.3477">&#171;Server&#187;</text><text fill="#000000" font-family="sans-serif" font-size="14" font-weight="bold" lengthAdjust="spacing" textLength="81" x="406" y="125.5771">Trust Agent</text><rect fill="#E2E2F0" height="52.459" rx="2.5" ry="2.5" style="stroke:#181818;stroke-width:0.5;" width="95" x="399" y="1412.2534"/><text fill="#000000" font-family="sans-serif" font-size="14" font-style="italic" lengthAdjust="spacing" textLength="57" x="418" y="1435.4067">&#171;Server&#187;</text><text fill="#000000" font-family="sans-serif" font-size="14" font-weight="bold" lengthAdjust="spacing" textLength="81" x="406" y="1454.6362">Trust Agent</text><rect fill="#E2E2F0" height="52.459" rx="2.5" ry="2.5" style="stroke:#181818;stroke-width:0.5;" width="116" x="604.5" y="83.1943"/><text fill="#000000" font-family="sans-serif" font-size="14" font-style="italic" lengthAdjust="spacing" textLength="57" x="634" y="106.3477">&#171;Server&#187;</text><text fill="#000000" font-family="sans-serif" font-size="14" font-weight="bold" lengthAdjust="spacing" textLength="102" x="611.5" y="125.5771">Issuer Service</text><rect fill="#E2E2F0" height="52.459" rx="2.5" ry="2.5" style="stroke:#181818;stroke-width:0.5;" width="116" x="604.5" y="1412.2534"/><text fill="#000000" font-family="sans-serif" font-size="14" font-style="italic" lengthAdjust="spacing" textLength="57" x="634" y="1435.4067">&#171;Server&#187;</text><text fill="#000000" font-family="sans-serif" font-size="14" font-weight="bold" lengthAdjust="spacing" textLength="102" x="611.5" y="1454.6362">Issuer Service</text><rect fill="#FFFFFF" height="1257.6001" style="stroke:#181818;stroke-width:1.0;" width="10" x="42.5" y="146.6533"/><rect fill="#FFFFFF" height="320.4155" style="stroke:#181818;stroke-width:1.0;" width="10" x="248.5" y="911.7021"/><rect fill="#FFFFFF" height="140.4238" style="stroke:#181818;stroke-width:1.0;" width="10" x="441.5" y="377.0068"/><rect fill="#FFFFFF" height="31.856" style="stroke:#181818;stroke-width:1.0;" width="10" x="441.5" y="549.2866"/><rect fill="#FFFFFF" height="31.856" style="stroke:#181818;stroke-width:1.0;" width="10" x="441.5" y="612.9985"/><rect fill="#FFFFFF" height="140.4238" style="stroke:#181818;stroke-width:1.0;" width="10" x="441.5" y="721.5664"/><rect fill="#FFFFFF" height="158.2798" style="stroke:#181818;stroke-width:1.0;" width="10" x="441.5" y="961.4141"/><rect fill="#FFFFFF" height="113.4238" style="stroke:#181818;stroke-width:1.0;" width="10" x="441.5" y="1281.8296"/><rect fill="#FFFFFF" height="76.7119" style="stroke:#181818;stroke-width:1.0;" width="10" x="657.5" y="408.8628"/><rect fill="#FFFFFF" height="76.7119" style="stroke:#181818;stroke-width:1.0;" width="10" x="657.5" y="753.4224"/><rect fill="#FFFFFF" height="94.5679" style="stroke:#181818;stroke-width:1.0;" width="10" x="657.5" y="993.27"/><rect fill="#FFFFFF" height="31.856" style="stroke:#181818;stroke-width:1.0;" width="10" x="657.5" y="1331.5415"/><rect fill="#EEEEEE" height="3" style="stroke:#EEEEEE;stroke-width:1.0;" width="886.5" x="0" y="168.5813"/><line style="stroke:#000000;stroke-width:1.0;" x1="0" x2="886.5" y1="168.5813" y2="168.5813"/><line style="stroke:#000000;stroke-width:1.0;" x1="0" x2="886.5" y1="171.5813" y2="171.5813"/><rect fill="#EEEEEE" height="25.856" style="stroke:#000000;stroke-width:2.0;" width="95" x="395.75" y="156.6533"/><text fill="#000000" font-family="sans-serif" font-size="13" font-weight="bold" lengthAdjust="spacing" textLength="77" x="401.75" y="175.6528">(C) Initiation</text><path d="M10,199.5093 L71,199.5093 L71,209.3652 L61,219.3652 L10,219.3652 L10,199.5093 " fill="#EEEEEE" style="stroke:#000000;stroke-width:1.5;"/><rect fill="none" height="100.7856" style="stroke:#000000;stroke-width:1.5;" width="261.5" x="10" y="199.5093"/><text fill="#000000" font-family="sans-serif" font-size="13" font-weight="bold" lengthAdjust="spacing" textLength="16" x="25" y="215.5088">alt</text><text fill="#000000" font-family="sans-serif" font-size="11" font-weight="bold" lengthAdjust="spacing" textLength="65" x="86" y="214.2012">[Issuer-init]</text><polygon fill="#0000FF" points="63.5,239.3301,53.5,243.3301,63.5,247.3301,59.5,243.3301" style="stroke:#0000FF;stroke-width:1.0;"/><line style="stroke:#0000FF;stroke-width:1.0;" x1="57.5" x2="241.5" y1="243.3301" y2="243.3301"/><text fill="#000000" font-family="sans-serif" font-size="13" font-weight="bold" lengthAdjust="spacing" textLength="15" x="69.5" y="238.4736">(1)</text><text fill="#000000" font-family="sans-serif" font-size="13" lengthAdjust="spacing" textLength="147" x="88.5" y="238.4736">Obtain IssueOfferPayload</text><line style="stroke:#000000;stroke-width:1.0;stroke-dasharray:2.0,2.0;" x1="10" x2="271.5" y1="252.3301" y2="252.3301"/><text fill="#000000" font-family="sans-serif" font-size="11" font-weight="bold" lengthAdjust="spacing" textLength="55" x="15" y="265.022">[User-init]</text><polygon fill="#0000FF" points="63.5,288.2949,53.5,292.2949,63.5,296.2949,59.5,292.2949" style="stroke:#0000FF;stroke-width:1.0;"/><line style="stroke:#0000FF;stroke-width:1.0;" x1="57.5" x2="273.5" y1="292.2949" y2="292.2949"/><text fill="#000000" font-family="sans-serif" font-size="13" font-weight="bold" lengthAdjust="spacing" textLength="15" x="69.5" y="287.4385">(2)</text><text fill="#000000" font-family="sans-serif" font-size="13" lengthAdjust="spacing" textLength="179" x="88.5" y="287.4385">Select VC Plan, Issuer by user</text><rect fill="#EEEEEE" height="3" style="stroke:#EEEEEE;stroke-width:1.0;" width="886.5" x="0" y="329.2229"/><line style="stroke:#000000;stroke-width:1.0;" x1="0" x2="886.5" y1="329.2229" y2="329.2229"/><line style="stroke:#000000;stroke-width:1.0;" x1="0" x2="886.5" y1="332.2229" y2="332.2229"/><rect fill="#EEEEEE" height="25.856" style="stroke:#000000;stroke-width:2.0;" width="102" x="392.25" y="317.2949"/><text fill="#000000" font-family="sans-serif" font-size="13" font-weight="bold" lengthAdjust="spacing" textLength="84" x="398.25" y="336.2944">(D) Issueance</text><polygon fill="#181818" points="429.5,373.0068,439.5,377.0068,429.5,381.0068,433.5,377.0068" style="stroke:#181818;stroke-width:1.0;"/><line style="stroke:#181818;stroke-width:1.0;" x1="52.5" x2="435.5" y1="377.0068" y2="377.0068"/><text fill="#000000" font-family="sans-serif" font-size="13" font-weight="bold" lengthAdjust="spacing" textLength="15" x="59.5" y="372.1504">(3)</text><text fill="#FF4500" font-family="sans-serif" font-size="13" lengthAdjust="spacing" textLength="138" x="78.5" y="372.1504">[API] Propose Issue VC</text><polygon fill="#181818" points="645.5,404.8628,655.5,408.8628,645.5,412.8628,649.5,408.8628" style="stroke:#181818;stroke-width:1.0;"/><line style="stroke:#181818;stroke-width:1.0;" x1="451.5" x2="651.5" y1="408.8628" y2="408.8628"/><text fill="#000000" font-family="sans-serif" font-size="13" font-weight="bold" lengthAdjust="spacing" textLength="15" x="458.5" y="404.0063">(4)</text><text fill="#FF4500" font-family="sans-serif" font-size="13" lengthAdjust="spacing" textLength="162" x="477.5" y="404.0063">[API] Inspect Propose Issue</text><line style="stroke:#181818;stroke-width:1.0;" x1="667.5" x2="709.5" y1="440.7188" y2="440.7188"/><line style="stroke:#181818;stroke-width:1.0;" x1="709.5" x2="709.5" y1="440.7188" y2="453.7188"/><line style="stroke:#181818;stroke-width:1.0;" x1="668.5" x2="709.5" y1="453.7188" y2="453.7188"/><polygon fill="#181818" points="678.5,449.7188,668.5,453.7188,678.5,457.7188,674.5,453.7188" style="stroke:#181818;stroke-width:1.0;"/><text fill="#000000" font-family="sans-serif" font-size="13" font-weight="bold" lengthAdjust="spacing" textLength="15" x="674.5" y="435.8623">(5)</text><text fill="#000000" font-family="sans-serif" font-size="13" lengthAdjust="spacing" textLength="164" x="693.5" y="435.8623">refId = Generate reference id</text><polygon fill="#181818" points="462.5,481.5747,452.5,485.5747,462.5,489.5747,458.5,485.5747" style="stroke:#181818;stroke-width:1.0;"/><line style="stroke:#181818;stroke-width:1.0;stroke-dasharray:2.0,2.0;" x1="456.5" x2="661.5" y1="485.5747" y2="485.5747"/><text fill="#000000" font-family="sans-serif" font-size="13" font-weight="bold" lengthAdjust="spacing" textLength="15" x="468.5" y="480.7183">(6)</text><text fill="#000000" font-family="sans-serif" font-size="13" lengthAdjust="spacing" textLength="32" x="487.5" y="480.7183">{refId}</text><polygon fill="#181818" points="63.5,513.4307,53.5,517.4307,63.5,521.4307,59.5,517.4307" style="stroke:#181818;stroke-width:1.0;"/><line style="stroke:#181818;stroke-width:1.0;stroke-dasharray:2.0,2.0;" x1="57.5" x2="445.5" y1="517.4307" y2="517.4307"/><text fill="#000000" font-family="sans-serif" font-size="13" font-weight="bold" lengthAdjust="spacing" textLength="15" x="69.5" y="512.5742">(7)</text><text fill="#000000" font-family="sans-serif" font-size="13" lengthAdjust="spacing" textLength="32" x="88.5" y="512.5742">{refId}</text><polygon fill="#181818" points="429.5,545.2866,439.5,549.2866,429.5,553.2866,433.5,549.2866" style="stroke:#181818;stroke-width:1.0;"/><line style="stroke:#181818;stroke-width:1.0;" x1="52.5" x2="435.5" y1="549.2866" y2="549.2866"/><text fill="#000000" font-family="sans-serif" font-size="13" font-weight="bold" lengthAdjust="spacing" textLength="15" x="59.5" y="544.4302">(8)</text><text fill="#FF4500" font-family="sans-serif" font-size="13" lengthAdjust="spacing" textLength="121" x="78.5" y="544.4302">[API] Request ECDH</text><polygon fill="#181818" points="63.5,577.1426,53.5,581.1426,63.5,585.1426,59.5,581.1426" style="stroke:#181818;stroke-width:1.0;"/><line style="stroke:#181818;stroke-width:1.0;stroke-dasharray:2.0,2.0;" x1="57.5" x2="445.5" y1="581.1426" y2="581.1426"/><text fill="#000000" font-family="sans-serif" font-size="13" font-weight="bold" lengthAdjust="spacing" textLength="15" x="69.5" y="576.2861">(9)</text><text fill="#000000" font-family="sans-serif" font-size="13" lengthAdjust="spacing" textLength="19" x="88.5" y="576.2861">OK</text><polygon fill="#181818" points="429.5,608.9985,439.5,612.9985,429.5,616.9985,433.5,612.9985" style="stroke:#181818;stroke-width:1.0;"/><line style="stroke:#181818;stroke-width:1.0;" x1="52.5" x2="435.5" y1="612.9985" y2="612.9985"/><text fill="#000000" font-family="sans-serif" font-size="13" font-weight="bold" lengthAdjust="spacing" textLength="22" x="59.5" y="608.1421">(10)</text><text fill="#FF4500" font-family="sans-serif" font-size="13" lengthAdjust="spacing" textLength="162" x="85.5" y="608.1421">[API] Request Create Token</text><polygon fill="#181818" points="63.5,640.8545,53.5,644.8545,63.5,648.8545,59.5,644.8545" style="stroke:#181818;stroke-width:1.0;"/><line style="stroke:#181818;stroke-width:1.0;stroke-dasharray:2.0,2.0;" x1="57.5" x2="445.5" y1="644.8545" y2="644.8545"/><text fill="#000000" font-family="sans-serif" font-size="13" font-weight="bold" lengthAdjust="spacing" textLength="22" x="69.5" y="639.998">(11)</text><text fill="#000000" font-family="sans-serif" font-size="13" lengthAdjust="spacing" textLength="104" x="95.5" y="639.998">{serverTokenData}</text><line style="stroke:#181818;stroke-width:1.0;" x1="52.5" x2="94.5" y1="676.7104" y2="676.7104"/><line style="stroke:#181818;stroke-width:1.0;" x1="94.5" x2="94.5" y1="676.7104" y2="689.7104"/><line style="stroke:#181818;stroke-width:1.0;" x1="53.5" x2="94.5" y1="689.7104" y2="689.7104"/><polygon fill="#181818" points="63.5,685.7104,53.5,689.7104,63.5,693.7104,59.5,689.7104" style="stroke:#181818;stroke-width:1.0;"/><text fill="#000000" font-family="sans-serif" font-size="13" font-weight="bold" lengthAdjust="spacing" textLength="22" x="59.5" y="671.854">(12)</text><text fill="#000000" font-family="sans-serif" font-size="13" lengthAdjust="spacing" textLength="127" x="85.5" y="671.854">Calculate serverToken</text><polygon fill="#181818" points="429.5,717.5664,439.5,721.5664,429.5,725.5664,433.5,721.5664" style="stroke:#181818;stroke-width:1.0;"/><line style="stroke:#181818;stroke-width:1.0;" x1="52.5" x2="435.5" y1="721.5664" y2="721.5664"/><text fill="#000000" font-family="sans-serif" font-size="13" font-weight="bold" lengthAdjust="spacing" textLength="22" x="59.5" y="716.71">(13)</text><text fill="#FF4500" font-family="sans-serif" font-size="13" lengthAdjust="spacing" textLength="156" x="85.5" y="716.71">[API] Request Issue Profile</text><polygon fill="#181818" points="645.5,749.4224,655.5,753.4224,645.5,757.4224,649.5,753.4224" style="stroke:#181818;stroke-width:1.0;"/><line style="stroke:#181818;stroke-width:1.0;" x1="451.5" x2="651.5" y1="753.4224" y2="753.4224"/><text fill="#000000" font-family="sans-serif" font-size="13" font-weight="bold" lengthAdjust="spacing" textLength="22" x="458.5" y="748.5659">(14)</text><text fill="#FF4500" font-family="sans-serif" font-size="13" lengthAdjust="spacing" textLength="161" x="484.5" y="748.5659">[API] Generate Issue Profile</text><line style="stroke:#181818;stroke-width:1.0;" x1="667.5" x2="709.5" y1="785.2783" y2="785.2783"/><line style="stroke:#181818;stroke-width:1.0;" x1="709.5" x2="709.5" y1="785.2783" y2="798.2783"/><line style="stroke:#181818;stroke-width:1.0;" x1="668.5" x2="709.5" y1="798.2783" y2="798.2783"/><polygon fill="#181818" points="678.5,794.2783,668.5,798.2783,678.5,802.2783,674.5,798.2783" style="stroke:#181818;stroke-width:1.0;"/><text fill="#000000" font-family="sans-serif" font-size="13" font-weight="bold" lengthAdjust="spacing" textLength="22" x="674.5" y="780.4219">(15)</text><text fill="#000000" font-family="sans-serif" font-size="13" lengthAdjust="spacing" textLength="174" x="700.5" y="780.4219">profile = Generate IssueProfile</text><polygon fill="#181818" points="462.5,826.1343,452.5,830.1343,462.5,834.1343,458.5,830.1343" style="stroke:#181818;stroke-width:1.0;"/><line style="stroke:#181818;stroke-width:1.0;stroke-dasharray:2.0,2.0;" x1="456.5" x2="661.5" y1="830.1343" y2="830.1343"/><text fill="#000000" font-family="sans-serif" font-size="13" font-weight="bold" lengthAdjust="spacing" textLength="22" x="468.5" y="825.2778">(16)</text><text fill="#000000" font-family="sans-serif" font-size="13" lengthAdjust="spacing" textLength="42" x="494.5" y="825.2778">{profile}</text><polygon fill="#181818" points="63.5,857.9902,53.5,861.9902,63.5,865.9902,59.5,861.9902" style="stroke:#181818;stroke-width:1.0;"/><line style="stroke:#181818;stroke-width:1.0;stroke-dasharray:2.0,2.0;" x1="57.5" x2="445.5" y1="861.9902" y2="861.9902"/><text fill="#000000" font-family="sans-serif" font-size="13" font-weight="bold" lengthAdjust="spacing" textLength="22" x="69.5" y="857.1338">(17)</text><text fill="#000000" font-family="sans-serif" font-size="13" lengthAdjust="spacing" textLength="42" x="95.5" y="857.1338">{profile}</text><polygon fill="#181818" points="236.5,907.7021,246.5,911.7021,236.5,915.7021,240.5,911.7021" style="stroke:#181818;stroke-width:1.0;"/><line style="stroke:#181818;stroke-width:1.0;" x1="52.5" x2="242.5" y1="911.7021" y2="911.7021"/><text fill="#000000" font-family="sans-serif" font-size="13" font-weight="bold" lengthAdjust="spacing" textLength="22" x="59.5" y="897.9177">(18)</text><text fill="#000000" font-family="sans-serif" font-size="13" lengthAdjust="spacing" textLength="120" x="85.5" y="888.9897">Request to issue VC</text><text fill="#000000" font-family="sans-serif" font-size="13" lengthAdjust="spacing" textLength="151" x="85.5" y="906.8457">{refId, profile, serverToken}</text><polygon fill="#181818" points="429.5,957.4141,439.5,961.4141,429.5,965.4141,433.5,961.4141" style="stroke:#181818;stroke-width:1.0;"/><line style="stroke:#181818;stroke-width:1.0;" x1="258.5" x2="435.5" y1="961.4141" y2="961.4141"/><text fill="#000000" font-family="sans-serif" font-size="13" font-weight="bold" lengthAdjust="spacing" textLength="22" x="265.5" y="947.6296">(19)</text><text fill="#FF4500" font-family="sans-serif" font-size="13" lengthAdjust="spacing" textLength="138" x="291.5" y="938.7017">[API] Request Issue VC</text><text fill="#000000" font-family="sans-serif" font-size="13" lengthAdjust="spacing" textLength="109" x="291.5" y="956.5576">{refId, serverToken}</text><polygon fill="#181818" points="645.5,989.27,655.5,993.27,645.5,997.27,649.5,993.27" style="stroke:#181818;stroke-width:1.0;"/><line style="stroke:#181818;stroke-width:1.0;" x1="451.5" x2="651.5" y1="993.27" y2="993.27"/><text fill="#000000" font-family="sans-serif" font-size="13" font-weight="bold" lengthAdjust="spacing" textLength="22" x="458.5" y="988.4136">(20)</text><text fill="#FF4500" font-family="sans-serif" font-size="13" lengthAdjust="spacing" textLength="86" x="484.5" y="988.4136">[API] Issue VC</text><text fill="#000000" font-family="sans-serif" font-size="13" lengthAdjust="spacing" textLength="32" x="574.5" y="988.4136">{refId}</text><line style="stroke:#181818;stroke-width:1.0;" x1="667.5" x2="709.5" y1="1042.9819" y2="1042.9819"/><line style="stroke:#181818;stroke-width:1.0;" x1="709.5" x2="709.5" y1="1042.9819" y2="1055.9819"/><line style="stroke:#181818;stroke-width:1.0;" x1="668.5" x2="709.5" y1="1055.9819" y2="1055.9819"/><polygon fill="#181818" points="678.5,1051.9819,668.5,1055.9819,678.5,1059.9819,674.5,1055.9819" style="stroke:#181818;stroke-width:1.0;"/><text fill="#000000" font-family="sans-serif" font-size="13" font-weight="bold" lengthAdjust="spacing" textLength="22" x="674.5" y="1029.1975">(21)</text><ellipse cx="706" cy="1015.626" fill="#000000" rx="2.5" ry="2.5" style="stroke:#000000;stroke-width:0.0;"/><text fill="#000000" font-family="sans-serif" font-size="13" lengthAdjust="spacing" textLength="81" x="712.5" y="1020.2695">vc = Issue VC</text><ellipse cx="706" cy="1033.4819" fill="#000000" rx="2.5" ry="2.5" style="stroke:#000000;stroke-width:0.0;"/><text fill="#000000" font-family="sans-serif" font-size="13" lengthAdjust="spacing" textLength="116" x="712.5" y="1038.1255">encVc = encrypt(vc)</text><polygon fill="#181818" points="462.5,1083.8379,452.5,1087.8379,462.5,1091.8379,458.5,1087.8379" style="stroke:#181818;stroke-width:1.0;"/><line style="stroke:#181818;stroke-width:1.0;stroke-dasharray:2.0,2.0;" x1="456.5" x2="661.5" y1="1087.8379" y2="1087.8379"/><text fill="#000000" font-family="sans-serif" font-size="13" font-weight="bold" lengthAdjust="spacing" textLength="22" x="468.5" y="1082.9814">(22)</text><text fill="#000000" font-family="sans-serif" font-size="13" lengthAdjust="spacing" textLength="45" x="494.5" y="1082.9814">{encVc}</text><polygon fill="#181818" points="269.5,1115.6938,259.5,1119.6938,269.5,1123.6938,265.5,1119.6938" style="stroke:#181818;stroke-width:1.0;"/><line style="stroke:#181818;stroke-width:1.0;stroke-dasharray:2.0,2.0;" x1="263.5" x2="445.5" y1="1119.6938" y2="1119.6938"/><text fill="#000000" font-family="sans-serif" font-size="13" font-weight="bold" lengthAdjust="spacing" textLength="22" x="275.5" y="1114.8374">(23)</text><text fill="#000000" font-family="sans-serif" font-size="13" lengthAdjust="spacing" textLength="45" x="301.5" y="1114.8374">{encVc}</text><line style="stroke:#181818;stroke-width:1.0;" x1="258.5" x2="300.5" y1="1187.2617" y2="1187.2617"/><line style="stroke:#181818;stroke-width:1.0;" x1="300.5" x2="300.5" y1="1187.2617" y2="1200.2617"/><line style="stroke:#181818;stroke-width:1.0;" x1="259.5" x2="300.5" y1="1200.2617" y2="1200.2617"/><polygon fill="#181818" points="269.5,1196.2617,259.5,1200.2617,269.5,1204.2617,265.5,1200.2617" style="stroke:#181818;stroke-width:1.0;"/><text fill="#000000" font-family="sans-serif" font-size="13" font-weight="bold" lengthAdjust="spacing" textLength="22" x="265.5" y="1164.5493">(24)</text><ellipse cx="297" cy="1142.0498" fill="#000000" rx="2.5" ry="2.5" style="stroke:#000000;stroke-width:0.0;"/><text fill="#000000" font-family="sans-serif" font-size="13" lengthAdjust="spacing" textLength="116" x="303.5" y="1146.6934">vc = decrypt(encVc)</text><ellipse cx="297" cy="1159.9058" fill="#000000" rx="2.5" ry="2.5" style="stroke:#000000;stroke-width:0.0;"/><text fill="#000000" font-family="sans-serif" font-size="13" lengthAdjust="spacing" textLength="47" x="303.5" y="1164.5493">Store vc</text><ellipse cx="297" cy="1177.7617" fill="#000000" rx="2.5" ry="2.5" style="stroke:#000000;stroke-width:0.0;"/><text fill="#000000" font-family="sans-serif" font-size="13" lengthAdjust="spacing" textLength="116" x="303.5" y="1182.4053">vcId = Extract VC id</text><polygon fill="#181818" points="63.5,1228.1177,53.5,1232.1177,63.5,1236.1177,59.5,1232.1177" style="stroke:#181818;stroke-width:1.0;"/><line style="stroke:#181818;stroke-width:1.0;stroke-dasharray:2.0,2.0;" x1="57.5" x2="252.5" y1="1232.1177" y2="1232.1177"/><text fill="#000000" font-family="sans-serif" font-size="13" font-weight="bold" lengthAdjust="spacing" textLength="22" x="69.5" y="1227.2612">(25)</text><text fill="#000000" font-family="sans-serif" font-size="13" lengthAdjust="spacing" textLength="30" x="95.5" y="1227.2612">{vcId}</text><polygon fill="#181818" points="429.5,1277.8296,439.5,1281.8296,429.5,1285.8296,433.5,1281.8296" style="stroke:#181818;stroke-width:1.0;"/><line style="stroke:#181818;stroke-width:1.0;" x1="52.5" x2="435.5" y1="1281.8296" y2="1281.8296"/><text fill="#000000" font-family="sans-serif" font-size="13" font-weight="bold" lengthAdjust="spacing" textLength="22" x="59.5" y="1268.0452">(26)</text><text fill="#FF4500" font-family="sans-serif" font-size="13" lengthAdjust="spacing" textLength="134" x="85.5" y="1259.1172">[API] Confirm Issue VC</text><text fill="#000000" font-family="sans-serif" font-size="13" lengthAdjust="spacing" textLength="30" x="89.5" y="1276.9731">{vcId}</text><polygon fill="#181818" points="645.5,1327.5415,655.5,1331.5415,645.5,1335.5415,649.5,1331.5415" style="stroke:#181818;stroke-width:1.0;"/><line style="stroke:#181818;stroke-width:1.0;" x1="451.5" x2="651.5" y1="1331.5415" y2="1331.5415"/><text fill="#000000" font-family="sans-serif" font-size="13" font-weight="bold" lengthAdjust="spacing" textLength="22" x="458.5" y="1317.7571">(27)</text><text fill="#FF4500" font-family="sans-serif" font-size="13" lengthAdjust="spacing" textLength="110" x="484.5" y="1308.8291">[API] Complete VC</text><text fill="#000000" font-family="sans-serif" font-size="13" lengthAdjust="spacing" textLength="30" x="488.5" y="1326.6851">{vcId}</text><polygon fill="#181818" points="462.5,1359.3975,452.5,1363.3975,462.5,1367.3975,458.5,1363.3975" style="stroke:#181818;stroke-width:1.0;"/><line style="stroke:#181818;stroke-width:1.0;stroke-dasharray:2.0,2.0;" x1="456.5" x2="661.5" y1="1363.3975" y2="1363.3975"/><text fill="#000000" font-family="sans-serif" font-size="13" font-weight="bold" lengthAdjust="spacing" textLength="22" x="468.5" y="1358.541">(28)</text><text fill="#000000" font-family="sans-serif" font-size="13" lengthAdjust="spacing" textLength="19" x="494.5" y="1358.541">OK</text><polygon fill="#181818" points="63.5,1391.2534,53.5,1395.2534,63.5,1399.2534,59.5,1395.2534" style="stroke:#181818;stroke-width:1.0;"/><line style="stroke:#181818;stroke-width:1.0;stroke-dasharray:2.0,2.0;" x1="57.5" x2="445.5" y1="1395.2534" y2="1395.2534"/><text fill="#000000" font-family="sans-serif" font-size="13" font-weight="bold" lengthAdjust="spacing" textLength="22" x="69.5" y="1390.397">(29)</text><text fill="#000000" font-family="sans-serif" font-size="13" lengthAdjust="spacing" textLength="19" x="95.5" y="1390.397">OK</text><!--SRC=[XLJBRjim43oNNx5rBhQJ8421NWnPHIe7hP4M3k8qFIGvKDGg84gJAaMvTeFyUvUKB3zgnmJq8cTsTeTBEUaKidTHAV_YuCF7U5hDPjmkmUGmBiiAuJw16skS4KP55nuLCzGPkC1Zl796LxCKBNIYDEwUzAABDEumzZx3N6e4NiWxNBYkeriF8efYx61YkNx6MypYXykRyHFunUWYhCMCfMO1FqgA-DsaKY6SJ5JsZGjaGAFWraaX2wuTTFhzvB8e-lqEy184XoYYppZU2rGIwUqdLmfTm_Z35L6ce-kuhec4sGxjpbQbWyjduZOaHnUHqCxH4cy77popu9Ubm8OYooqA6mwXc_HWhAMJt4cZOJWaAuMJS-wG2c5SkTf-Uou95GhozJsSV5OLFfr_6i0aTLpg6ZN9SxGtVAaCpnYg4eD_1wbJL2XSs5d5zLcZ1EaIAg9vA-eSHxrwYMk18KMASnu71qvF1-tMTgW_2aEYguRfz8Agnn7SLxy57-koyFfRj8RZXoVKl05OpCSP3E4BQhJU79f0YpuXcGM6HLTP3Iy1-SfsFW-bV8k_AwITlKf6NqcwOKskZn8IYpwDE_CBzPhuKeRD3RCZxdWhBFW04gv4fJnh0tLKg3QJFChf31nnj7Ld7sdNqg9UtJGrq1hMbgaDTcrhEz6axu-GJsMLjJDU97J1ewutuMobUBPP_slGyVJZ9lYEMaVxByYRlTO6Q5i2DiQcBtsO2pAb_Ulj6O-w3zHxznv7JxiiN7SkrZQlN0gOLtPWgYcQ7greXdMmWEhjIawTiUY1E_Dp4Sx6rS9PNfzdEXChGRzukFyJetDfPri6hpXl-PcOMK4_q7sKzHbQl_q3]--></g></svg>