<?xml version="1.0" encoding="us-ascii" standalone="no"?><svg xmlns="http://www.w3.org/2000/svg" xmlns:xlink="http://www.w3.org/1999/xlink" contentStyleType="text/css" height="2056px" preserveAspectRatio="none" style="width:1047px;height:2056px;background:#FFFFFF;" version="1.1" viewBox="0 0 1047 2056" width="1047px" zoomAndPan="magnify"><defs/><g><text fill="#000000" font-family="sans-serif" font-size="25" font-weight="bold" lengthAdjust="spacing" textLength="244.125" x="397.7656" y="43.8452">VP &#51228;&#52636; - Direct &#47784;&#46300;</text><rect fill="#FDF5E6" height="1988.6724" style="stroke:#181818;stroke-width:0.5;" width="334.6563" x="151" y="61.3384"/><text fill="#000000" font-family="sans-serif" font-size="13" font-weight="bold" lengthAdjust="spacing" textLength="40.2188" x="296.2188" y="76.3379">&#47784;&#48148;&#51068;</text><rect fill="#FFFFFF" height="1809.2134" style="stroke:#181818;stroke-width:1.0;" width="10" x="178.6563" y="149.5679"/><rect fill="#FFFFFF" height="202.1357" style="stroke:#181818;stroke-width:1.0;" width="10" x="441.6563" y="614.2632"/><rect fill="#FFFFFF" height="421.6953" style="stroke:#181818;stroke-width:1.0;" width="10" x="441.6563" y="1142.1025"/><rect fill="#FFFFFF" height="219.9917" style="stroke:#181818;stroke-width:1.0;" width="10" x="758.6563" y="290.8477"/><rect fill="#FFFFFF" height="336.2715" style="stroke:#181818;stroke-width:1.0;" width="10" x="758.6563" y="1613.5098"/><line style="stroke:#181818;stroke-width:0.5;stroke-dasharray:5.0,5.0;" x1="29" x2="29" y1="139.5679" y2="1967.7813"/><line style="stroke:#181818;stroke-width:0.5;stroke-dasharray:5.0,5.0;" x1="183" x2="183" y1="139.5679" y2="1967.7813"/><line style="stroke:#181818;stroke-width:0.5;stroke-dasharray:5.0,5.0;" x1="446.6563" x2="446.6563" y1="139.5679" y2="1967.7813"/><line style="stroke:#181818;stroke-width:0.5;stroke-dasharray:5.0,5.0;" x1="763.5625" x2="763.5625" y1="139.5679" y2="1967.7813"/><text fill="#000000" font-family="sans-serif" font-size="14" font-weight="bold" lengthAdjust="spacing" textLength="43.3125" x="5" y="136.4917">&#49324;&#50857;&#51088;</text><ellipse cx="29.6563" cy="68.8384" fill="#E2E2F0" rx="8" ry="8" style="stroke:#181818;stroke-width:0.5;"/><path d="M29.6563,76.8384 L29.6563,103.8384 M16.6563,84.8384 L42.6563,84.8384 M29.6563,103.8384 L16.6563,118.8384 M29.6563,103.8384 L42.6563,118.8384 " fill="none" style="stroke:#181818;stroke-width:0.5;"/><text fill="#000000" font-family="sans-serif" font-size="14" font-weight="bold" lengthAdjust="spacing" textLength="43.3125" x="5" y="1982.9346">&#49324;&#50857;&#51088;</text><ellipse cx="29.6563" cy="1994.5107" fill="#E2E2F0" rx="8" ry="8" style="stroke:#181818;stroke-width:0.5;"/><path d="M29.6563,2002.5107 L29.6563,2029.5107 M16.6563,2010.5107 L42.6563,2010.5107 M29.6563,2029.5107 L16.6563,2044.5107 M29.6563,2029.5107 L42.6563,2044.5107 " fill="none" style="stroke:#181818;stroke-width:0.5;"/><rect fill="#E2E2F0" height="52.459" rx="2.5" ry="2.5" style="stroke:#181818;stroke-width:0.5;" width="57.3125" x="155" y="86.1089"/><text fill="#000000" font-family="sans-serif" font-size="14" font-style="italic" lengthAdjust="spacing" textLength="41" x="163.1563" y="109.2622">&#171;App&#187;</text><text fill="#000000" font-family="sans-serif" font-size="14" font-weight="bold" lengthAdjust="spacing" textLength="43.3125" x="162" y="128.4917">&#51064;&#44032;&#50545;</text><rect fill="#E2E2F0" height="52.459" rx="2.5" ry="2.5" style="stroke:#181818;stroke-width:0.5;" width="57.3125" x="155" y="1966.7813"/><text fill="#000000" font-family="sans-serif" font-size="14" font-style="italic" lengthAdjust="spacing" textLength="41" x="163.1563" y="1989.9346">&#171;App&#187;</text><text fill="#000000" font-family="sans-serif" font-size="14" font-weight="bold" lengthAdjust="spacing" textLength="43.3125" x="162" y="2009.1641">&#51064;&#44032;&#50545;</text><rect fill="#E2E2F0" height="52.459" rx="2.5" ry="2.5" style="stroke:#181818;stroke-width:0.5;" width="70" x="411.6563" y="86.1089"/><text fill="#000000" font-family="sans-serif" font-size="14" font-style="italic" lengthAdjust="spacing" textLength="56" x="418.6563" y="109.2622">&#171;Wallet&#187;</text><text fill="#000000" font-family="sans-serif" font-size="14" font-weight="bold" lengthAdjust="spacing" textLength="28.875" x="432.2188" y="128.4917">&#50900;&#47131;</text><rect fill="#E2E2F0" height="52.459" rx="2.5" ry="2.5" style="stroke:#181818;stroke-width:0.5;" width="70" x="411.6563" y="1966.7813"/><text fill="#000000" font-family="sans-serif" font-size="14" font-style="italic" lengthAdjust="spacing" textLength="56" x="418.6563" y="1989.9346">&#171;Wallet&#187;</text><text fill="#000000" font-family="sans-serif" font-size="14" font-weight="bold" lengthAdjust="spacing" textLength="28.875" x="432.2188" y="2009.1641">&#50900;&#47131;</text><rect fill="#E2E2F0" height="52.459" rx="2.5" ry="2.5" style="stroke:#181818;stroke-width:0.5;" width="90.1875" x="718.5625" y="86.1089"/><text fill="#000000" font-family="sans-serif" font-size="14" font-style="italic" lengthAdjust="spacing" textLength="57" x="735.1563" y="109.2622">&#171;Server&#187;</text><text fill="#000000" font-family="sans-serif" font-size="14" font-weight="bold" lengthAdjust="spacing" textLength="76.1875" x="725.5625" y="128.4917">&#44160;&#51613; &#49324;&#50629;&#51088;</text><rect fill="#E2E2F0" height="52.459" rx="2.5" ry="2.5" style="stroke:#181818;stroke-width:0.5;" width="90.1875" x="718.5625" y="1966.7813"/><text fill="#000000" font-family="sans-serif" font-size="14" font-style="italic" lengthAdjust="spacing" textLength="57" x="735.1563" y="1989.9346">&#171;Server&#187;</text><text fill="#000000" font-family="sans-serif" font-size="14" font-weight="bold" lengthAdjust="spacing" textLength="76.1875" x="725.5625" y="2009.1641">&#44160;&#51613; &#49324;&#50629;&#51088;</text><rect fill="#FFFFFF" height="1809.2134" style="stroke:#181818;stroke-width:1.0;" width="10" x="178.6563" y="149.5679"/><rect fill="#FFFFFF" height="202.1357" style="stroke:#181818;stroke-width:1.0;" width="10" x="441.6563" y="614.2632"/><rect fill="#FFFFFF" height="421.6953" style="stroke:#181818;stroke-width:1.0;" width="10" x="441.6563" y="1142.1025"/><rect fill="#FFFFFF" height="219.9917" style="stroke:#181818;stroke-width:1.0;" width="10" x="758.6563" y="290.8477"/><rect fill="#FFFFFF" height="336.2715" style="stroke:#181818;stroke-width:1.0;" width="10" x="758.6563" y="1613.5098"/><polygon fill="#32CD32" points="159,154.5679,787,154.5679,797,175.5679,787,197.5679,159,197.5679,149,175.5679,159,154.5679" style="stroke:#181818;stroke-width:0.5;"/><text fill="#000000" font-family="sans-serif" font-size="13" lengthAdjust="spacing" textLength="203" x="319.375" y="173.5674">Offer &#45800;&#44228; &#49688;&#54665;&#51004;&#47196; &#50500;&#47000; &#51221;&#48372; &#54925;&#46301;</text><ellipse cx="324.875" cy="186.7798" fill="#000000" rx="2.5" ry="2.5" style="stroke:#000000;stroke-width:0.0;"/><text fill="#000000" font-family="sans-serif" font-size="13" lengthAdjust="spacing" textLength="296" x="331.375" y="191.4233">device, service, (optional)offerId, (optional)passcode</text><rect fill="#EEEEEE" height="3" style="stroke:#EEEEEE;stroke-width:1.0;" width="1040.6563" x="0" y="225.2078"/><line style="stroke:#000000;stroke-width:1.0;" x1="0" x2="1040.6563" y1="225.2078" y2="225.2078"/><line style="stroke:#000000;stroke-width:1.0;" x1="0" x2="1040.6563" y1="228.2078" y2="228.2078"/><rect fill="#EEEEEE" height="25.856" style="stroke:#000000;stroke-width:2.0;" width="130" x="455.3281" y="213.2798"/><text fill="#000000" font-family="sans-serif" font-size="13" font-weight="bold" lengthAdjust="spacing" textLength="112" x="461.3281" y="232.2793">1. Request Profile</text><polygon fill="#181818" points="746.6563,286.8477,756.6563,290.8477,746.6563,294.8477,750.6563,290.8477" style="stroke:#181818;stroke-width:1.0;"/><line style="stroke:#181818;stroke-width:1.0;" x1="188.6563" x2="752.6563" y1="290.8477" y2="290.8477"/><text fill="#000000" font-family="sans-serif" font-size="13" font-weight="bold" lengthAdjust="spacing" textLength="15" x="195.6563" y="277.0632">(1)</text><text fill="#000000" font-family="sans-serif" font-size="13" lengthAdjust="spacing" textLength="88" x="214.6563" y="268.1353">Request Profile</text><text fill="#000000" font-family="sans-serif" font-size="13" lengthAdjust="spacing" textLength="42" x="214.6563" y="285.9912">{offerId}</text><line style="stroke:#181818;stroke-width:1.0;" x1="768.6563" x2="810.6563" y1="322.7036" y2="322.7036"/><line style="stroke:#181818;stroke-width:1.0;" x1="810.6563" x2="810.6563" y1="322.7036" y2="335.7036"/><line style="stroke:#181818;stroke-width:1.0;" x1="769.6563" x2="810.6563" y1="335.7036" y2="335.7036"/><polygon fill="#181818" points="779.6563,331.7036,769.6563,335.7036,779.6563,339.7036,775.6563,335.7036" style="stroke:#181818;stroke-width:1.0;"/><text fill="#000000" font-family="sans-serif" font-size="13" font-weight="bold" lengthAdjust="spacing" textLength="15" x="775.6563" y="317.8472">(2)</text><text fill="#000000" font-family="sans-serif" font-size="13" lengthAdjust="spacing" textLength="107" x="794.6563" y="317.8472">offerId &#50976;&#54952;&#49457; &#54869;&#51064;</text><line style="stroke:#181818;stroke-width:1.0;" x1="768.6563" x2="810.6563" y1="421.1274" y2="421.1274"/><line style="stroke:#181818;stroke-width:1.0;" x1="810.6563" x2="810.6563" y1="421.1274" y2="434.1274"/><line style="stroke:#181818;stroke-width:1.0;" x1="769.6563" x2="810.6563" y1="434.1274" y2="434.1274"/><polygon fill="#181818" points="779.6563,430.1274,769.6563,434.1274,779.6563,438.1274,775.6563,434.1274" style="stroke:#181818;stroke-width:1.0;"/><text fill="#000000" font-family="sans-serif" font-size="13" font-weight="bold" lengthAdjust="spacing" textLength="15" x="775.6563" y="389.4871">(3)</text><text fill="#000000" font-family="sans-serif" font-size="13" lengthAdjust="spacing" textLength="139" x="794.6563" y="362.7031">Profile &#44288;&#47144; &#45936;&#51060;&#53552; &#51456;&#48708;</text><ellipse cx="800.1563" cy="375.9155" fill="#000000" rx="2.5" ry="2.5" style="stroke:#000000;stroke-width:0.0;"/><text fill="#000000" font-family="sans-serif" font-size="13" lengthAdjust="spacing" textLength="197" x="806.6563" y="380.5591">verifierNonce = &#51228;&#52636;&#50857; nonce &#49373;&#49457;</text><ellipse cx="800.1563" cy="393.7715" fill="#000000" rx="2.5" ry="2.5" style="stroke:#000000;stroke-width:0.0;"/><text fill="#000000" font-family="sans-serif" font-size="13" lengthAdjust="spacing" textLength="222" x="806.6563" y="398.415">(ReqE2e)reqE2e = E2E &#50836;&#52397;&#51221;&#48372; &#49373;&#49457;</text><ellipse cx="800.1563" cy="411.6274" fill="#000000" rx="2.5" ry="2.5" style="stroke:#000000;stroke-width:0.0;"/><text fill="#000000" font-family="sans-serif" font-size="13" lengthAdjust="spacing" textLength="112" x="806.6563" y="416.271">&#44592;&#53440; &#45936;&#51060;&#53552;&#45716; &#49373;&#47029;</text><line style="stroke:#181818;stroke-width:1.0;" x1="768.6563" x2="810.6563" y1="465.9834" y2="465.9834"/><line style="stroke:#181818;stroke-width:1.0;" x1="810.6563" x2="810.6563" y1="465.9834" y2="478.9834"/><line style="stroke:#181818;stroke-width:1.0;" x1="769.6563" x2="810.6563" y1="478.9834" y2="478.9834"/><polygon fill="#181818" points="779.6563,474.9834,769.6563,478.9834,779.6563,482.9834,775.6563,478.9834" style="stroke:#181818;stroke-width:1.0;"/><text fill="#000000" font-family="sans-serif" font-size="13" font-weight="bold" lengthAdjust="spacing" textLength="15" x="775.6563" y="461.127">(4)</text><text fill="#000000" font-family="sans-serif" font-size="13" lengthAdjust="spacing" textLength="193" x="794.6563" y="461.127">(VerifyProfile)profile = Profile &#49373;&#49457;</text><polygon fill="#181818" points="199.6563,506.8394,189.6563,510.8394,199.6563,514.8394,195.6563,510.8394" style="stroke:#181818;stroke-width:1.0;"/><line style="stroke:#181818;stroke-width:1.0;stroke-dasharray:2.0,2.0;" x1="193.6563" x2="762.6563" y1="510.8394" y2="510.8394"/><text fill="#000000" font-family="sans-serif" font-size="13" font-weight="bold" lengthAdjust="spacing" textLength="15" x="205.6563" y="505.9829">(5)</text><text fill="#000000" font-family="sans-serif" font-size="13" lengthAdjust="spacing" textLength="42" x="224.6563" y="505.9829">{profile}</text><polygon fill="#32CD32" points="164,523.8394,465,523.8394,475,544.8394,465,566.8394,164,566.8394,154,544.8394,164,523.8394" style="stroke:#181818;stroke-width:0.5;"/><text fill="#000000" font-family="sans-serif" font-size="13" lengthAdjust="spacing" textLength="227" x="201.3281" y="542.8389">&#50900;&#47131;&#53664;&#53360; &#49373;&#49457; {purpose = "PresentVp"}</text><ellipse cx="206.8281" cy="556.0513" fill="#000000" rx="2.5" ry="2.5" style="stroke:#000000;stroke-width:0.0;"/><text fill="#000000" font-family="sans-serif" font-size="13" lengthAdjust="spacing" textLength="136" x="213.3281" y="560.6948">walletToken = &#50900;&#47131;&#53664;&#53360;</text><polygon fill="#181818" points="429.6563,610.2632,439.6563,614.2632,429.6563,618.2632,433.6563,614.2632" style="stroke:#181818;stroke-width:1.0;"/><line style="stroke:#181818;stroke-width:1.0;" x1="188.6563" x2="435.6563" y1="614.2632" y2="614.2632"/><text fill="#000000" font-family="sans-serif" font-size="13" font-weight="bold" lengthAdjust="spacing" textLength="15" x="195.6563" y="600.4788">(6)</text><text fill="#000000" font-family="sans-serif" font-size="13" lengthAdjust="spacing" textLength="134" x="214.6563" y="591.5508">&#51228;&#52636;&#44032;&#45733; VC &#47785;&#47197; &#51312;&#54924;</text><text fill="#000000" font-family="sans-serif" font-size="13" lengthAdjust="spacing" textLength="118" x="214.6563" y="609.4067">{walletToken, profile}</text><line style="stroke:#181818;stroke-width:1.0;" x1="451.6563" x2="493.6563" y1="646.1191" y2="646.1191"/><line style="stroke:#181818;stroke-width:1.0;" x1="493.6563" x2="493.6563" y1="646.1191" y2="659.1191"/><line style="stroke:#181818;stroke-width:1.0;" x1="452.6563" x2="493.6563" y1="659.1191" y2="659.1191"/><polygon fill="#181818" points="462.6563,655.1191,452.6563,659.1191,462.6563,663.1191,458.6563,659.1191" style="stroke:#181818;stroke-width:1.0;"/><text fill="#000000" font-family="sans-serif" font-size="13" font-weight="bold" lengthAdjust="spacing" textLength="15" x="458.6563" y="641.2627">(7)</text><text fill="#000000" font-family="sans-serif" font-size="13" lengthAdjust="spacing" textLength="141" x="477.6563" y="641.2627">walletToken &#50976;&#54952;&#49457; &#54869;&#51064;</text><line style="stroke:#181818;stroke-width:1.0;" x1="451.6563" x2="493.6563" y1="690.9751" y2="690.9751"/><line style="stroke:#181818;stroke-width:1.0;" x1="493.6563" x2="493.6563" y1="690.9751" y2="703.9751"/><line style="stroke:#181818;stroke-width:1.0;" x1="452.6563" x2="493.6563" y1="703.9751" y2="703.9751"/><polygon fill="#181818" points="462.6563,699.9751,452.6563,703.9751,462.6563,707.9751,458.6563,703.9751" style="stroke:#181818;stroke-width:1.0;"/><text fill="#000000" font-family="sans-serif" font-size="13" font-weight="bold" lengthAdjust="spacing" textLength="15" x="458.6563" y="686.1187">(8)</text><text fill="#000000" font-family="sans-serif" font-size="13" lengthAdjust="spacing" textLength="96" x="477.6563" y="686.1187">profile.proof &#44160;&#51613;</text><line style="stroke:#181818;stroke-width:1.0;" x1="451.6563" x2="493.6563" y1="771.543" y2="771.543"/><line style="stroke:#181818;stroke-width:1.0;" x1="493.6563" x2="493.6563" y1="771.543" y2="784.543"/><line style="stroke:#181818;stroke-width:1.0;" x1="452.6563" x2="493.6563" y1="784.543" y2="784.543"/><polygon fill="#181818" points="462.6563,780.543,452.6563,784.543,462.6563,788.543,458.6563,784.543" style="stroke:#181818;stroke-width:1.0;"/><text fill="#000000" font-family="sans-serif" font-size="13" font-weight="bold" lengthAdjust="spacing" textLength="15" x="458.6563" y="748.8306">(9)</text><text fill="#000000" font-family="sans-serif" font-size="13" lengthAdjust="spacing" textLength="149" x="477.6563" y="730.9746">filter &#51312;&#44148;&#50640; &#47582;&#45716; VC &#44160;&#49353;</text><ellipse cx="483.1563" cy="744.187" fill="#000000" rx="2.5" ry="2.5" style="stroke:#000000;stroke-width:0.0;"/><text fill="#000000" font-family="sans-serif" font-size="13" lengthAdjust="spacing" textLength="157" x="489.6563" y="748.8306">(VpCandidate[ ])candidates</text><text fill="#000000" font-family="sans-serif" font-size="13" lengthAdjust="spacing" textLength="120" x="493.6563" y="766.6865">= &#54980;&#48372; VC &#47785;&#47197; &#49373;&#49457;</text><polygon fill="#181818" points="199.6563,812.3989,189.6563,816.3989,199.6563,820.3989,195.6563,816.3989" style="stroke:#181818;stroke-width:1.0;"/><line style="stroke:#181818;stroke-width:1.0;stroke-dasharray:2.0,2.0;" x1="193.6563" x2="445.6563" y1="816.3989" y2="816.3989"/><text fill="#000000" font-family="sans-serif" font-size="13" font-weight="bold" lengthAdjust="spacing" textLength="22" x="205.6563" y="811.5425">(10)</text><text fill="#000000" font-family="sans-serif" font-size="13" lengthAdjust="spacing" textLength="71" x="231.6563" y="811.5425">{candidates}</text><line style="stroke:#181818;stroke-width:1.0;" x1="188.6563" x2="230.6563" y1="848.2549" y2="848.2549"/><line style="stroke:#181818;stroke-width:1.0;" x1="230.6563" x2="230.6563" y1="848.2549" y2="861.2549"/><line style="stroke:#181818;stroke-width:1.0;" x1="189.6563" x2="230.6563" y1="861.2549" y2="861.2549"/><polygon fill="#181818" points="199.6563,857.2549,189.6563,861.2549,199.6563,865.2549,195.6563,861.2549" style="stroke:#181818;stroke-width:1.0;"/><text fill="#000000" font-family="sans-serif" font-size="13" font-weight="bold" lengthAdjust="spacing" textLength="22" x="195.6563" y="843.3984">(11)</text><text fill="#000000" font-family="sans-serif" font-size="13" lengthAdjust="spacing" textLength="108" x="221.6563" y="843.3984">&#54980;&#48372; VC &#47785;&#47197; &#52636;&#47141;</text><polygon fill="#0000FF" points="166.6563,889.1108,176.6563,893.1108,166.6563,893.1108" style="stroke:#0000FF;stroke-width:1.0;"/><line style="stroke:#0000FF;stroke-width:1.0;" x1="29.6563" x2="177.6563" y1="893.1108" y2="893.1108"/><text fill="#000000" font-family="sans-serif" font-size="13" font-weight="bold" lengthAdjust="spacing" textLength="22" x="36.6563" y="888.2544">(12)</text><text fill="#000000" font-family="sans-serif" font-size="13" lengthAdjust="spacing" textLength="48" x="62.6563" y="888.2544">VC &#49440;&#53469;</text><line style="stroke:#181818;stroke-width:1.0;" x1="188.6563" x2="230.6563" y1="924.9668" y2="924.9668"/><line style="stroke:#181818;stroke-width:1.0;" x1="230.6563" x2="230.6563" y1="924.9668" y2="937.9668"/><line style="stroke:#181818;stroke-width:1.0;" x1="189.6563" x2="230.6563" y1="937.9668" y2="937.9668"/><polygon fill="#181818" points="199.6563,933.9668,189.6563,937.9668,199.6563,941.9668,195.6563,937.9668" style="stroke:#181818;stroke-width:1.0;"/><text fill="#000000" font-family="sans-serif" font-size="13" font-weight="bold" lengthAdjust="spacing" textLength="22" x="195.6563" y="920.1104">(13)</text><text fill="#000000" font-family="sans-serif" font-size="13" lengthAdjust="spacing" textLength="113" x="221.6563" y="920.1104">vcId = &#49440;&#53469;&#46108; VC id</text><polygon fill="#0000FF" points="166.6563,965.8228,176.6563,969.8228,166.6563,969.8228" style="stroke:#0000FF;stroke-width:1.0;"/><line style="stroke:#0000FF;stroke-width:1.0;" x1="29.6563" x2="177.6563" y1="969.8228" y2="969.8228"/><text fill="#000000" font-family="sans-serif" font-size="13" font-weight="bold" lengthAdjust="spacing" textLength="22" x="36.6563" y="964.9663">(14)</text><text fill="#000000" font-family="sans-serif" font-size="13" lengthAdjust="spacing" textLength="99" x="62.6563" y="964.9663">&#51228;&#52636; &#53364;&#47112;&#51076; &#49440;&#53469;</text><line style="stroke:#181818;stroke-width:1.0;" x1="188.6563" x2="230.6563" y1="1001.6787" y2="1001.6787"/><line style="stroke:#181818;stroke-width:1.0;" x1="230.6563" x2="230.6563" y1="1001.6787" y2="1014.6787"/><line style="stroke:#181818;stroke-width:1.0;" x1="189.6563" x2="230.6563" y1="1014.6787" y2="1014.6787"/><polygon fill="#181818" points="199.6563,1010.6787,189.6563,1014.6787,199.6563,1018.6787,195.6563,1014.6787" style="stroke:#181818;stroke-width:1.0;"/><text fill="#000000" font-family="sans-serif" font-size="13" font-weight="bold" lengthAdjust="spacing" textLength="22" x="195.6563" y="996.8223">(15)</text><text fill="#000000" font-family="sans-serif" font-size="13" lengthAdjust="spacing" textLength="213" x="221.6563" y="996.8223">claimCodes = &#51228;&#52636; &#53364;&#47112;&#51076; &#53076;&#46300; &#47785;&#47197;</text><polygon fill="#0000FF" points="166.6563,1042.5347,176.6563,1046.5347,166.6563,1046.5347" style="stroke:#0000FF;stroke-width:1.0;"/><line style="stroke:#0000FF;stroke-width:1.0;" x1="29.6563" x2="177.6563" y1="1046.5347" y2="1046.5347"/><text fill="#000000" font-family="sans-serif" font-size="13" font-weight="bold" lengthAdjust="spacing" textLength="22" x="36.6563" y="1041.6782">(16)</text><text fill="#000000" font-family="sans-serif" font-size="13" lengthAdjust="spacing" textLength="56" x="62.6563" y="1041.6782">&#51228;&#52636; &#46041;&#51032;</text><rect fill="#EEEEEE" height="3" style="stroke:#EEEEEE;stroke-width:1.0;" width="1040.6563" x="0" y="1076.4626"/><line style="stroke:#000000;stroke-width:1.0;" x1="0" x2="1040.6563" y1="1076.4626" y2="1076.4626"/><line style="stroke:#000000;stroke-width:1.0;" x1="0" x2="1040.6563" y1="1079.4626" y2="1079.4626"/><rect fill="#EEEEEE" height="25.856" style="stroke:#000000;stroke-width:2.0;" width="125" x="457.8281" y="1064.5347"/><text fill="#000000" font-family="sans-serif" font-size="13" font-weight="bold" lengthAdjust="spacing" textLength="107" x="463.8281" y="1083.5342">2. Request Verify</text><polygon fill="#181818" points="429.6563,1138.1025,439.6563,1142.1025,429.6563,1146.1025,433.6563,1142.1025" style="stroke:#181818;stroke-width:1.0;"/><line style="stroke:#181818;stroke-width:1.0;" x1="188.6563" x2="435.6563" y1="1142.1025" y2="1142.1025"/><text fill="#000000" font-family="sans-serif" font-size="13" font-weight="bold" lengthAdjust="spacing" textLength="22" x="195.6563" y="1128.3181">(17)</text><text fill="#000000" font-family="sans-serif" font-size="13" lengthAdjust="spacing" textLength="78" x="221.6563" y="1119.3901">VP &#51228;&#52636; &#50836;&#52397;</text><text fill="#000000" font-family="sans-serif" font-size="13" lengthAdjust="spacing" textLength="182" x="221.6563" y="1137.2461">{walletToken, vcId, claimCodes}</text><line style="stroke:#181818;stroke-width:1.0;" x1="451.6563" x2="493.6563" y1="1173.9585" y2="1173.9585"/><line style="stroke:#181818;stroke-width:1.0;" x1="493.6563" x2="493.6563" y1="1173.9585" y2="1186.9585"/><line style="stroke:#181818;stroke-width:1.0;" x1="452.6563" x2="493.6563" y1="1186.9585" y2="1186.9585"/><polygon fill="#181818" points="462.6563,1182.9585,452.6563,1186.9585,462.6563,1190.9585,458.6563,1186.9585" style="stroke:#181818;stroke-width:1.0;"/><text fill="#000000" font-family="sans-serif" font-size="13" font-weight="bold" lengthAdjust="spacing" textLength="22" x="458.6563" y="1169.1021">(18)</text><text fill="#000000" font-family="sans-serif" font-size="13" lengthAdjust="spacing" textLength="141" x="484.6563" y="1169.1021">walletToken &#50976;&#54952;&#49457; &#54869;&#51064;</text><line style="stroke:#181818;stroke-width:1.0;" x1="451.6563" x2="493.6563" y1="1325.9502" y2="1325.9502"/><line style="stroke:#181818;stroke-width:1.0;" x1="493.6563" x2="493.6563" y1="1325.9502" y2="1338.9502"/><line style="stroke:#181818;stroke-width:1.0;" x1="452.6563" x2="493.6563" y1="1338.9502" y2="1338.9502"/><polygon fill="#181818" points="462.6563,1334.9502,452.6563,1338.9502,462.6563,1342.9502,458.6563,1338.9502" style="stroke:#181818;stroke-width:1.0;"/><text fill="#000000" font-family="sans-serif" font-size="13" font-weight="bold" lengthAdjust="spacing" textLength="22" x="458.6563" y="1267.5259">(19)</text><text fill="#000000" font-family="sans-serif" font-size="13" lengthAdjust="spacing" textLength="108" x="484.6563" y="1213.958">E2E&#50857; ECDH &#49688;&#54665;</text><ellipse cx="490.1563" cy="1227.1704" fill="#000000" rx="2.5" ry="2.5" style="stroke:#000000;stroke-width:0.0;"/><text fill="#000000" font-family="sans-serif" font-size="13" lengthAdjust="spacing" textLength="187" x="496.6563" y="1231.814">_, pubKeyE2E = ECC &#53412;&#49933; &#49373;&#49457;</text><ellipse cx="490.1563" cy="1245.0264" fill="#000000" rx="2.5" ry="2.5" style="stroke:#000000;stroke-width:0.0;"/><text fill="#000000" font-family="sans-serif" font-size="13" lengthAdjust="spacing" textLength="196" x="496.6563" y="1249.6699">e2eKey = profile &#45236; E2E &#45936;&#51060;&#53552;&#47196;</text><text fill="#000000" font-family="sans-serif" font-size="13" lengthAdjust="spacing" textLength="82" x="492.6563" y="1267.5259">&#50516;&#54840;&#54868;&#53412; &#49373;&#49457;</text><ellipse cx="490.1563" cy="1280.7383" fill="#000000" rx="2.5" ry="2.5" style="stroke:#000000;stroke-width:0.0;"/><text fill="#000000" font-family="sans-serif" font-size="13" lengthAdjust="spacing" textLength="66" x="496.6563" y="1285.3818">iv = IV &#49373;&#49457;</text><ellipse cx="490.1563" cy="1298.5942" fill="#000000" rx="2.5" ry="2.5" style="stroke:#000000;stroke-width:0.0;"/><text fill="#000000" font-family="sans-serif" font-size="13" lengthAdjust="spacing" textLength="207" x="496.6563" y="1303.2378">(AccE2e)accE2e = {pubKeyE2E, iv}</text><ellipse cx="490.1563" cy="1316.4502" fill="#000000" rx="2.5" ry="2.5" style="stroke:#000000;stroke-width:0.0;"/><text fill="#000000" font-family="sans-serif" font-size="13" lengthAdjust="spacing" textLength="133" x="496.6563" y="1321.0938">signKeyAgree(accE2e)</text><line style="stroke:#181818;stroke-width:1.0;" x1="451.6563" x2="493.6563" y1="1388.6621" y2="1388.6621"/><line style="stroke:#181818;stroke-width:1.0;" x1="493.6563" x2="493.6563" y1="1388.6621" y2="1401.6621"/><line style="stroke:#181818;stroke-width:1.0;" x1="452.6563" x2="493.6563" y1="1401.6621" y2="1401.6621"/><polygon fill="#181818" points="462.6563,1397.6621,452.6563,1401.6621,462.6563,1405.6621,458.6563,1401.6621" style="stroke:#181818;stroke-width:1.0;"/><text fill="#000000" font-family="sans-serif" font-size="13" font-weight="bold" lengthAdjust="spacing" textLength="22" x="458.6563" y="1374.8777">(20)</text><text fill="#000000" font-family="sans-serif" font-size="13" lengthAdjust="spacing" textLength="48" x="484.6563" y="1365.9497">VP &#49373;&#49457;</text><ellipse cx="490.1563" cy="1379.1621" fill="#000000" rx="2.5" ry="2.5" style="stroke:#000000;stroke-width:0.0;"/><text fill="#000000" font-family="sans-serif" font-size="13" lengthAdjust="spacing" textLength="255" x="496.6563" y="1383.8057">vp = GenVp(vcId, claimCodes, verifierNonce)</text><polygon fill="#0000FF" points="429.6563,1447.374,439.6563,1451.374,429.6563,1451.374" style="stroke:#0000FF;stroke-width:1.0;"/><line style="stroke:#0000FF;stroke-width:1.0;" x1="29.6563" x2="440.6563" y1="1451.374" y2="1451.374"/><text fill="#000000" font-family="sans-serif" font-size="13" font-weight="bold" lengthAdjust="spacing" textLength="22" x="36.6563" y="1437.5896">(21)</text><text fill="#000000" font-family="sans-serif" font-size="13" lengthAdjust="spacing" textLength="69" x="62.6563" y="1428.6616">&#49324;&#50857;&#51088; &#51064;&#51613;</text><text fill="#000000" font-family="sans-serif" font-size="13" lengthAdjust="spacing" textLength="104" x="62.6563" y="1446.5176">(authType&#50640; &#47582;&#44172;)</text><line style="stroke:#181818;stroke-width:1.0;" x1="451.6563" x2="493.6563" y1="1518.9419" y2="1518.9419"/><line style="stroke:#181818;stroke-width:1.0;" x1="493.6563" x2="493.6563" y1="1518.9419" y2="1531.9419"/><line style="stroke:#181818;stroke-width:1.0;" x1="452.6563" x2="493.6563" y1="1531.9419" y2="1531.9419"/><polygon fill="#181818" points="462.6563,1527.9419,452.6563,1531.9419,462.6563,1535.9419,458.6563,1531.9419" style="stroke:#181818;stroke-width:1.0;"/><text fill="#000000" font-family="sans-serif" font-size="13" font-weight="bold" lengthAdjust="spacing" textLength="22" x="458.6563" y="1496.2295">(22)</text><text fill="#000000" font-family="sans-serif" font-size="13" lengthAdjust="spacing" textLength="108" x="484.6563" y="1478.3735">VP &#49436;&#47749; &#48143; &#50516;&#54840;&#54868;</text><ellipse cx="490.1563" cy="1491.5859" fill="#000000" rx="2.5" ry="2.5" style="stroke:#000000;stroke-width:0.0;"/><text fill="#000000" font-family="sans-serif" font-size="13" lengthAdjust="spacing" textLength="82" x="496.6563" y="1496.2295">signAssert(vp)</text><ellipse cx="490.1563" cy="1509.4419" fill="#000000" rx="2.5" ry="2.5" style="stroke:#000000;stroke-width:0.0;"/><text fill="#000000" font-family="sans-serif" font-size="13" lengthAdjust="spacing" textLength="162" x="496.6563" y="1514.0854">encVp = enc(vp, e2eKey, iv)</text><polygon fill="#181818" points="199.6563,1559.7979,189.6563,1563.7979,199.6563,1567.7979,195.6563,1563.7979" style="stroke:#181818;stroke-width:1.0;"/><line style="stroke:#181818;stroke-width:1.0;stroke-dasharray:2.0,2.0;" x1="193.6563" x2="445.6563" y1="1563.7979" y2="1563.7979"/><text fill="#000000" font-family="sans-serif" font-size="13" font-weight="bold" lengthAdjust="spacing" textLength="22" x="205.6563" y="1558.9414">(23)</text><text fill="#000000" font-family="sans-serif" font-size="13" lengthAdjust="spacing" textLength="97" x="231.6563" y="1558.9414">{accE2e, encVp}</text><polygon fill="#181818" points="746.6563,1609.5098,756.6563,1613.5098,746.6563,1617.5098,750.6563,1613.5098" style="stroke:#181818;stroke-width:1.0;"/><line style="stroke:#181818;stroke-width:1.0;" x1="188.6563" x2="752.6563" y1="1613.5098" y2="1613.5098"/><text fill="#000000" font-family="sans-serif" font-size="13" font-weight="bold" lengthAdjust="spacing" textLength="22" x="195.6563" y="1599.7253">(24)</text><text fill="#000000" font-family="sans-serif" font-size="13" lengthAdjust="spacing" textLength="85" x="221.6563" y="1590.7974">Request Verify</text><text fill="#000000" font-family="sans-serif" font-size="13" lengthAdjust="spacing" textLength="97" x="221.6563" y="1608.6533">{accE2e, encVp}</text><line style="stroke:#181818;stroke-width:1.0;" x1="768.6563" x2="810.6563" y1="1698.9336" y2="1698.9336"/><line style="stroke:#181818;stroke-width:1.0;" x1="810.6563" x2="810.6563" y1="1698.9336" y2="1711.9336"/><line style="stroke:#181818;stroke-width:1.0;" x1="769.6563" x2="810.6563" y1="1711.9336" y2="1711.9336"/><polygon fill="#181818" points="779.6563,1707.9336,769.6563,1711.9336,779.6563,1715.9336,775.6563,1711.9336" style="stroke:#181818;stroke-width:1.0;"/><text fill="#000000" font-family="sans-serif" font-size="13" font-weight="bold" lengthAdjust="spacing" textLength="22" x="775.6563" y="1667.2932">(25)</text><text fill="#000000" font-family="sans-serif" font-size="13" lengthAdjust="spacing" textLength="95" x="801.6563" y="1640.5093">E2E ECDH &#49688;&#54665;</text><ellipse cx="807.1563" cy="1653.7217" fill="#000000" rx="2.5" ry="2.5" style="stroke:#000000;stroke-width:0.0;"/><text fill="#000000" font-family="sans-serif" font-size="13" lengthAdjust="spacing" textLength="149" x="813.6563" y="1658.3652">accE2e.proof &#51080;&#51004;&#47732; &#44160;&#51613;</text><ellipse cx="807.1563" cy="1671.5776" fill="#000000" rx="2.5" ry="2.5" style="stroke:#000000;stroke-width:0.0;"/><text fill="#000000" font-family="sans-serif" font-size="13" lengthAdjust="spacing" textLength="142" x="813.6563" y="1676.2212">e2eKey = &#50516;&#54840;&#54868;&#53412; &#49373;&#49457;</text><ellipse cx="807.1563" cy="1689.4336" fill="#000000" rx="2.5" ry="2.5" style="stroke:#000000;stroke-width:0.0;"/><text fill="#000000" font-family="sans-serif" font-size="13" lengthAdjust="spacing" textLength="80" x="813.6563" y="1694.0771">iv = accE2e.iv</text><line style="stroke:#181818;stroke-width:1.0;" x1="768.6563" x2="810.6563" y1="1761.6455" y2="1761.6455"/><line style="stroke:#181818;stroke-width:1.0;" x1="810.6563" x2="810.6563" y1="1761.6455" y2="1774.6455"/><line style="stroke:#181818;stroke-width:1.0;" x1="769.6563" x2="810.6563" y1="1774.6455" y2="1774.6455"/><polygon fill="#181818" points="779.6563,1770.6455,769.6563,1774.6455,779.6563,1778.6455,775.6563,1774.6455" style="stroke:#181818;stroke-width:1.0;"/><text fill="#000000" font-family="sans-serif" font-size="13" font-weight="bold" lengthAdjust="spacing" textLength="22" x="775.6563" y="1747.8611">(26)</text><text fill="#000000" font-family="sans-serif" font-size="13" lengthAdjust="spacing" textLength="80" x="801.6563" y="1738.9331">encVp &#48373;&#54840;&#54868;</text><ellipse cx="807.1563" cy="1752.1455" fill="#000000" rx="2.5" ry="2.5" style="stroke:#000000;stroke-width:0.0;"/><text fill="#000000" font-family="sans-serif" font-size="13" lengthAdjust="spacing" textLength="212" x="813.6563" y="1756.7891">vp = dec(debase(encVp), e2eKey, iv)</text><line style="stroke:#181818;stroke-width:1.0;" x1="768.6563" x2="810.6563" y1="1860.0693" y2="1860.0693"/><line style="stroke:#181818;stroke-width:1.0;" x1="810.6563" x2="810.6563" y1="1860.0693" y2="1873.0693"/><line style="stroke:#181818;stroke-width:1.0;" x1="769.6563" x2="810.6563" y1="1873.0693" y2="1873.0693"/><polygon fill="#181818" points="779.6563,1869.0693,769.6563,1873.0693,779.6563,1877.0693,775.6563,1873.0693" style="stroke:#181818;stroke-width:1.0;"/><text fill="#000000" font-family="sans-serif" font-size="13" font-weight="bold" lengthAdjust="spacing" textLength="22" x="775.6563" y="1828.429">(27)</text><text fill="#000000" font-family="sans-serif" font-size="13" lengthAdjust="spacing" textLength="48" x="801.6563" y="1801.645">VP &#44160;&#51613;</text><ellipse cx="807.1563" cy="1814.8574" fill="#000000" rx="2.5" ry="2.5" style="stroke:#000000;stroke-width:0.0;"/><text fill="#000000" font-family="sans-serif" font-size="13" lengthAdjust="spacing" textLength="74" x="813.6563" y="1819.501">vp.proof &#44160;&#51613;</text><ellipse cx="807.1563" cy="1832.7134" fill="#000000" rx="2.5" ry="2.5" style="stroke:#000000;stroke-width:0.0;"/><text fill="#000000" font-family="sans-serif" font-size="13" lengthAdjust="spacing" textLength="147" x="813.6563" y="1837.3569">VC &#49373;&#50528;&#51452;&#44592; &#50976;&#54952;&#49457; &#54869;&#51064;</text><ellipse cx="807.1563" cy="1850.5693" fill="#000000" rx="2.5" ry="2.5" style="stroke:#000000;stroke-width:0.0;"/><text fill="#000000" font-family="sans-serif" font-size="13" lengthAdjust="spacing" textLength="138" x="813.6563" y="1855.2129">VC &#45236; &#51060;&#49800;&#50612; &#49436;&#47749; &#44160;&#51613;</text><line style="stroke:#181818;stroke-width:1.0;" x1="768.6563" x2="810.6563" y1="1904.9253" y2="1904.9253"/><line style="stroke:#181818;stroke-width:1.0;" x1="810.6563" x2="810.6563" y1="1904.9253" y2="1917.9253"/><line style="stroke:#181818;stroke-width:1.0;" x1="769.6563" x2="810.6563" y1="1917.9253" y2="1917.9253"/><polygon fill="#181818" points="779.6563,1913.9253,769.6563,1917.9253,779.6563,1921.9253,775.6563,1917.9253" style="stroke:#181818;stroke-width:1.0;"/><text fill="#000000" font-family="sans-serif" font-size="13" font-weight="bold" lengthAdjust="spacing" textLength="22" x="775.6563" y="1900.0688">(28)</text><text fill="#000000" font-family="sans-serif" font-size="13" lengthAdjust="spacing" textLength="138" x="801.6563" y="1900.0688">VP &#51200;&#51109; &#48143; &#49436;&#48708;&#49828; &#51228;&#44277;</text><polygon fill="#181818" points="199.6563,1945.7813,189.6563,1949.7813,199.6563,1953.7813,195.6563,1949.7813" style="stroke:#181818;stroke-width:1.0;"/><line style="stroke:#181818;stroke-width:1.0;stroke-dasharray:2.0,2.0;" x1="193.6563" x2="762.6563" y1="1949.7813" y2="1949.7813"/><text fill="#000000" font-family="sans-serif" font-size="13" font-weight="bold" lengthAdjust="spacing" textLength="22" x="205.6563" y="1944.9248">(29)</text><text fill="#000000" font-family="sans-serif" font-size="13" lengthAdjust="spacing" textLength="19" x="231.6563" y="1944.9248">OK</text><!--SRC=[fLNVRzfM57wU_ugZv0KeQRL8Uq60bD6egrejqLgnXwQQZBcqreZjsOOkYv1eGgSqIzH8XJO_014jsP9gaqX2gbJA_Y7kzV-mSwyDs8RqfJnWiBzppdVFzvrZMxMBHFegQQc_aSJiD-di8h1EatrimWpSLKsYs40_dD2tpUGT3abBHCk3BO8akMJhMcavHqoOIkRIaUbeyaukFOKF55l7Ux4OM_k7xP-ozauiDWMo1IMBc59E_rNaxDPPwngc5uhvXx929C2F8PksggY6hDaYl7NLxrPPuymBLsH89kSC8vsUY3weqyw11tqX5n7xermi4ZljiiQwKYYaVrvbVxM0qtp_QaIpNC3OHyGi4nDZfUUQRXFGyHyoYFEdqm_LPNBF94GJH1OA1Nn6_pZfNzI0RUmwxrwpvZKzR09hr6Xx5rlQe1SzSFQtwTkM28b1dfHLXSG1M-B-YEY6hUgQN8pgFD_zlF-M8LkMekU9E8aW94cf57nz6tuWlvI8PSEYgHVK8e5KIWYWbcKahSYIX5sRINFMjsubmkWbRTKhLX6q42Mm2V1k0sjsdFqJLZi3Pw-1WeHWWwhzNfLsJe1kTrchvzIwm8wgz5CDV9ybBGROGxMW4lDxNLEGgkSrz0XeuWvRR_5IeQW8ifwV9L5JN31iVdOUs7wTdV_hTNPoNF-gwwnNHwJePfqZQVioT8f8blDQyGuJDGQj71xFpI-Pn2wP6gnwWCgODxZjGkPmRUdytd5UTWSyLusIQUWMhp2rQ1ABQ7RMcAfupdWXNFjO_vbel4M-UB_whgoy8DVLRIHE2zqyXcm61-oK7gAp3xlE_XQgxCiPXo5zNezdS1Cb0fKd2ky7UrbkurKlW3jAOo14sDWRvD4_wx7tEq3_RdCPa2AFM7yzfdNMoCXQNisZVP_0qwWo-6C5aVmx1Sv1ZSllEt1Gg55qPT0nHKvC2FlOf9rZIU8B2cQUJ7zRB96dImAB85RhEEijNtnPmSb8UVVfJfE3rFp4S6-REYzxjBF1shNnP4fHLfSpEDlMS23yyF_gk7qzdf-hGD_iiTQks0gpewtW6biiXQ1XHelU7QImH_WHupvkNsWMd5W-vVEPkzzv6p8i_4_eorBk0LdXmuqZdic0itR4jhPl66uoIn2CoC6qqhMUM0oZSSS57F8CQzITtIjdhuwfRyYhbZ7d_UnDgsXEKVWgaiK5aQj3qd4ChOJnblfCmyTppt0VHDoWw5Xpk1OJgvKDh72FQ5aZ4jOZ7jobKKba3Tb3P1- -X065mHbTqYBuvdx-UCKWta3spxUy-32hMfD-U0Mq-sRKkKaddBEmhXqf6z4nbJGbom-1LtmSzrJZhOeEXzHjIzp5LcvuORb6HfU6qC55plMVu37En8tpjXLhR_0tz6dFsriJZVKPimoDucLLoo4YxhdfnMMmQKDHyqI9v4bEjaX4GAF1rWIJeHBZDCj6OFFw7_6LXNGR7VRdDRu3nwOpXEM3WnF3DZVOkzv0Szy-3n1XdIfh7xkMGEId6jiyufkaVt4v47JXWVG_]--></g></svg>