<?xml version="1.0" encoding="UTF-8"?><svg xmlns="http://www.w3.org/2000/svg" xmlns:xlink="http://www.w3.org/1999/xlink" fill-opacity="1" color-rendering="auto" color-interpolation="auto" text-rendering="auto" stroke="black" stroke-linecap="square" width="491" stroke-miterlimit="10" shape-rendering="auto" stroke-opacity="1" fill="black" stroke-dasharray="none" font-weight="normal" stroke-width="1" height="336" font-family="'Dialog'" font-style="normal" stroke-linejoin="miter" font-size="12px" stroke-dashoffset="0" image-rendering="auto">
  <!--Generated by ySVG 2.6-->
  <defs id="genericDefs"/>
  <g>
    <defs id="defs1">
      <linearGradient x1="607.7471" gradientUnits="userSpaceOnUse" x2="700.1616" y1="325.8575" y2="356.8134" id="linearGradient1" spreadMethod="reflect">
        <stop stop-opacity="1" stop-color="white" offset="0%"/>
        <stop stop-opacity="1" stop-color="white" offset="100%"/>
      </linearGradient>
      <linearGradient x1="723.3224" gradientUnits="userSpaceOnUse" x2="815.737" y1="325.8575" y2="356.8134" id="linearGradient2" spreadMethod="reflect">
        <stop stop-opacity="1" stop-color="white" offset="0%"/>
        <stop stop-opacity="1" stop-color="white" offset="100%"/>
      </linearGradient>
      <linearGradient x1="839.8946" gradientUnits="userSpaceOnUse" x2="932.3091" y1="325.8575" y2="356.8134" id="linearGradient3" spreadMethod="reflect">
        <stop stop-opacity="1" stop-color="white" offset="0%"/>
        <stop stop-opacity="1" stop-color="white" offset="100%"/>
      </linearGradient>
      <linearGradient x1="723.3224" gradientUnits="userSpaceOnUse" x2="815.737" y1="392.8134" y2="423.7693" id="linearGradient4" spreadMethod="reflect">
        <stop stop-opacity="1" stop-color="white" offset="0%"/>
        <stop stop-opacity="1" stop-color="white" offset="100%"/>
      </linearGradient>
      <linearGradient x1="607.7471" gradientUnits="userSpaceOnUse" x2="700.1616" y1="206.6762" y2="237.632" id="linearGradient5" spreadMethod="reflect">
        <stop stop-opacity="1" stop-color="white" offset="0%"/>
        <stop stop-opacity="1" stop-color="white" offset="100%"/>
      </linearGradient>
      <linearGradient x1="723.3224" gradientUnits="userSpaceOnUse" x2="815.737" y1="206.6762" y2="237.632" id="linearGradient6" spreadMethod="reflect">
        <stop stop-opacity="1" stop-color="white" offset="0%"/>
        <stop stop-opacity="1" stop-color="white" offset="100%"/>
      </linearGradient>
      <linearGradient x1="539.8906" gradientUnits="userSpaceOnUse" x2="569.3052" y1="418.7626" y2="445.7626" id="linearGradient7" spreadMethod="reflect">
        <stop stop-opacity="1" stop-color="white" offset="0%"/>
        <stop stop-opacity="1" stop-color="white" offset="100%"/>
      </linearGradient>
      <linearGradient x1="723.3224" gradientUnits="userSpaceOnUse" x2="815.737" y1="480.632" y2="511.5879" id="linearGradient8" spreadMethod="reflect">
        <stop stop-opacity="1" stop-color="white" offset="0%"/>
        <stop stop-opacity="1" stop-color="white" offset="100%"/>
      </linearGradient>
      <clipPath clipPathUnits="userSpaceOnUse" id="clipPath1">
        <path d="M0 0 L491 0 L491 336 L0 336 L0 0 Z"/>
      </clipPath>
      <clipPath clipPathUnits="userSpaceOnUse" id="clipPath2">
        <path d="M477 191 L968 191 L968 527 L477 527 L477 191 Z"/>
      </clipPath>
      <clipPath clipPathUnits="userSpaceOnUse" id="clipPath3">
        <path d="M-30.957 -405.0427 L773.5008 -405.0427 L773.5008 205.5382 L-30.957 205.5382 L-30.957 -405.0427 Z"/>
      </clipPath>
      <clipPath clipPathUnits="userSpaceOnUse" id="clipPath4">
        <path d="M-30.957 -239.8093 L773.5008 -239.8093 L773.5008 370.7715 L-30.957 370.7715 L-30.957 -239.8093 Z"/>
      </clipPath>
    </defs>
    <g fill="white" text-rendering="geometricPrecision" shape-rendering="geometricPrecision" transform="translate(-477,-191)" stroke="white">
      <rect x="477" width="491" height="336" y="191" clip-path="url(#clipPath2)" stroke="none"/>
    </g>
    <g fill="rgb(245,245,245)" text-rendering="geometricPrecision" shape-rendering="geometricPrecision" transform="matrix(1,0,0,1,-477,-191)" stroke="rgb(245,245,245)">
      <rect x="578.7471" y="277.3" clip-path="url(#clipPath2)" width="373.4146" rx="4" ry="4" height="181.2669" stroke="none"/>
      <rect x="578.7471" y="277.3" clip-path="url(#clipPath2)" fill="rgb(235,235,235)" width="373.4146" height="21.666" stroke="none"/>
    </g>
    <g font-size="15px" stroke-linecap="butt" transform="matrix(1,0,0,1,-477,-191)" text-rendering="geometricPrecision" font-family="sans-serif" shape-rendering="geometricPrecision" stroke-miterlimit="1.45">
      <text x="709.4241" xml:space="preserve" y="293.802" clip-path="url(#clipPath2)" stroke="none">User A's Mobile</text>
      <rect x="578.7471" y="277.3" clip-path="url(#clipPath2)" fill="none" width="373.4146" stroke-dasharray="6,2" rx="4" ry="4" height="181.2669"/>
    </g>
    <g fill="url(#linearGradient1)" text-rendering="geometricPrecision" shape-rendering="geometricPrecision" transform="matrix(1,0,0,1,-477,-191)" stroke="url(#linearGradient1)">
      <path d="M607.7471 325.8575 L700.1616 325.8575 L700.1616 356.8134 L607.7471 356.8134 Z" stroke="none" clip-path="url(#clipPath2)"/>
    </g>
    <g text-rendering="geometricPrecision" stroke-miterlimit="1.45" shape-rendering="geometricPrecision" transform="matrix(1,0,0,1,-477,-191)" stroke-linecap="butt">
      <path fill="none" d="M607.7471 325.8575 L700.1616 325.8575 L700.1616 356.8134 L607.7471 356.8134 Z" clip-path="url(#clipPath2)"/>
      <text x="636.2239" xml:space="preserve" y="345.8706" clip-path="url(#clipPath2)" font-family="sans-serif" stroke="none">A App</text>
    </g>
    <g fill="url(#linearGradient2)" text-rendering="geometricPrecision" shape-rendering="geometricPrecision" transform="matrix(1,0,0,1,-477,-191)" stroke="url(#linearGradient2)">
      <path d="M723.3224 325.8575 L815.737 325.8575 L815.737 356.8134 L723.3224 356.8134 Z" stroke="none" clip-path="url(#clipPath2)"/>
    </g>
    <g text-rendering="geometricPrecision" stroke-miterlimit="1.45" shape-rendering="geometricPrecision" transform="matrix(1,0,0,1,-477,-191)" stroke-linecap="butt">
      <path fill="none" d="M723.3224 325.8575 L815.737 325.8575 L815.737 356.8134 L723.3224 356.8134 Z" clip-path="url(#clipPath2)"/>
      <text x="752.4877" xml:space="preserve" y="345.8706" clip-path="url(#clipPath2)" font-family="sans-serif" stroke="none">B App</text>
    </g>
    <g fill="url(#linearGradient3)" text-rendering="geometricPrecision" shape-rendering="geometricPrecision" transform="matrix(1,0,0,1,-477,-191)" stroke="url(#linearGradient3)">
      <path d="M839.8946 325.8575 L932.3091 325.8575 L932.3091 356.8134 L839.8946 356.8134 Z" stroke="none" clip-path="url(#clipPath2)"/>
    </g>
    <g text-rendering="geometricPrecision" stroke-miterlimit="1.45" shape-rendering="geometricPrecision" transform="matrix(1,0,0,1,-477,-191)" stroke-linecap="butt">
      <path fill="none" d="M839.8946 325.8575 L932.3091 325.8575 L932.3091 356.8134 L839.8946 356.8134 Z" clip-path="url(#clipPath2)"/>
      <text x="868.3597" xml:space="preserve" y="345.8706" clip-path="url(#clipPath2)" font-family="sans-serif" stroke="none">C App</text>
    </g>
    <g fill="url(#linearGradient4)" text-rendering="geometricPrecision" shape-rendering="geometricPrecision" transform="matrix(1,0,0,1,-477,-191)" stroke="url(#linearGradient4)">
      <path d="M723.3224 392.8134 L815.737 392.8134 L815.737 423.7693 L723.3224 423.7693 Z" stroke="none" clip-path="url(#clipPath2)"/>
    </g>
    <g text-rendering="geometricPrecision" stroke-miterlimit="1.45" shape-rendering="geometricPrecision" transform="matrix(1,0,0,1,-477,-191)" stroke-linecap="butt">
      <path fill="none" d="M723.3224 392.8134 L815.737 392.8134 L815.737 423.7693 L723.3224 423.7693 Z" clip-path="url(#clipPath2)"/>
      <text x="732.0444" xml:space="preserve" y="412.8265" clip-path="url(#clipPath2)" font-family="sans-serif" stroke="none">D Wallet App</text>
    </g>
    <g fill="rgb(255,204,0)" text-rendering="geometricPrecision" shape-rendering="geometricPrecision" transform="matrix(1,0,0,1,-477,-191)" stroke="rgb(255,204,0)">
      <ellipse rx="10.5" ry="9.5" clip-path="url(#clipPath2)" cx="689.6616" cy="423.3932" stroke="none"/>
    </g>
    <g text-rendering="geometricPrecision" stroke-miterlimit="1.45" shape-rendering="geometricPrecision" transform="matrix(1,0,0,1,-477,-191)" stroke-linecap="butt">
      <ellipse rx="10.5" fill="none" ry="9.5" clip-path="url(#clipPath2)" cx="689.6616" cy="423.3932"/>
      <text x="680.7349" xml:space="preserve" y="427.9284" clip-path="url(#clipPath2)" font-family="sans-serif" stroke="none">WT</text>
    </g>
    <g fill="rgb(153,204,0)" text-rendering="geometricPrecision" shape-rendering="geometricPrecision" transform="matrix(1,0,0,1,-477,-191)" stroke="rgb(153,204,0)">
      <ellipse rx="10.5" ry="9.5" clip-path="url(#clipPath2)" cx="787.96" cy="374.8134" stroke="none"/>
    </g>
    <g text-rendering="geometricPrecision" stroke-miterlimit="1.45" shape-rendering="geometricPrecision" transform="matrix(1,0,0,1,-477,-191)" stroke-linecap="butt">
      <ellipse rx="10.5" fill="none" ry="9.5" clip-path="url(#clipPath2)" cx="787.96" cy="374.8134"/>
      <text x="779.0332" xml:space="preserve" y="379.3485" clip-path="url(#clipPath2)" font-family="sans-serif" stroke="none">WT</text>
    </g>
    <g text-rendering="geometricPrecision" shape-rendering="geometricPrecision" transform="matrix(0.6103,0,0,0.5503,18.8946,222.8932)">
      <g clip-path="url(#clipPath3)">
        <svg xml:space="preserve" opacity="1" writing-mode="lr-tb" stop-color="rgb(0, 0, 0)" shape-rendering="auto" glyph-orientation-horizontal="0deg" color-profile="auto" lighting-color="rgb(255, 255, 255)" color="rgb(0, 0, 0)" font-weight="400" alignment-baseline="auto" font-style="normal" version="1.1" color-interpolation-filters="linearrgb" text-anchor="start" stroke-linecap="butt" color-interpolation="srgb" font-variant="normal" word-spacing="normal" fill-opacity="1" text-rendering="auto" clip-path="none" text-decoration="none" letter-spacing="normal" viewBox="0 0 57 67" glyph-orientation-vertical="auto" display="inline" font-size-adjust="none" overflow="hidden" fill="rgb(0, 0, 0)" font-stretch="normal" stroke-dasharray="none" id="svg1.Ebene_1" stroke-miterlimit="4" stop-opacity="1" color-rendering="auto" font-size="12" pointer-events="visiblepainted" mask="none" direction="ltr" baseline-shift="baseline" enable-background="new 0 0 57 67" fill-rule="nonzero" image-rendering="auto" stroke-dashoffset="0" width="57px" marker-end="none" clip="auto" cursor="auto" stroke="none" filter="none" visibility="visible" kerning="auto" stroke-width="1" font-family="&quot;Arial&quot;,&quot;Helvetica&quot;,sans-serif" flood-opacity="1" clip-rule="nonzero" src="none" height="67px" unicode-bidi="normal" stroke-linejoin="miter" stroke-opacity="1" flood-color="rgb(0, 0, 0)" dominant-baseline="auto" marker-start="none" x="0px" marker-mid="none" y="0px">
<g>
	
		<linearGradient gradientTransform="matrix(1 0 0 1 0.3203 -3091.7656)" x1="26.3398" x2="27.5807" gradientUnits="userSpaceOnUse" y1="3115.7266" y2="3145.5239" id="svg1.SVGID_1_">
		<stop offset="0.2711" style="stop-color:#FFAB4F"/>
		<stop offset="1" style="stop-color:#FFD28F"/>
	</linearGradient>
	<path fill="url(#svg1.SVGID_1_)" d="M49.529,51.225c-4.396-4.396-10.951-5.884-12.063-6.109   V37.8H19.278c0,0,0.038,6.903,0,6.868c0,0-6.874,0.997-12.308,6.432C1.378,56.691,0.5,62.77,0.5,62.77   c0,1.938,1.575,3.492,3.523,3.492h48.51c1.947,0,3.521-1.558,3.521-3.492C56.055,62.768,54.211,55.906,49.529,51.225z" stroke-miterlimit="10" stroke="#ED9135"/>
	
		<radialGradient gradientTransform="matrix(1 0 0 1 0.3203 -3091.7656)" gradientUnits="userSpaceOnUse" r="23.425" cx="27.5835" id="svg1.face_x5F_white_1_" cy="3117.4922" fx="23.0139" fy="3115.0024">
		<stop offset="0" style="stop-color:#FFD28F"/>
		<stop offset="1" style="stop-color:#FFAB4F"/>
	</radialGradient>
	<path fill="url(#svg1.face_x5F_white_1_)" id="svg1.face_x5F_white_3_" d="M43.676,23.357   c0.086,10.199-6.738,18.52-15.25,18.586c-8.5,0.068-15.464-8.146-15.55-18.344C12.794,13.4,19.618,5.079,28.123,5.012   C36.627,4.945,43.59,13.158,43.676,23.357z" stroke-miterlimit="10" stroke="#ED9135"/>
	
		<linearGradient gradientTransform="matrix(0.275 0 0 -0.2733 -1752.8849 -3350.4617)" x1="6468.5" x2="6492.1294" gradientUnits="userSpaceOnUse" y1="-12286.8594" y2="-12380.3086" id="svg1.face_highlight_1_">
		<stop offset="0" style="stop-color:#FFFFFF;stop-opacity:0.24"/>
		<stop offset="1" style="stop-color:#FFFFFF;stop-opacity:0.16"/>
	</linearGradient>
	<path fill="url(#svg1.face_highlight_1_)" id="svg1.face_highlight_3_" d="M28.415,5.625c-6.035,0.047-10.747,4.493-12.787,10.386   c-0.664,1.919-0.294,4.043,0.98,5.629c2.73,3.398,5.729,6.283,9.461,8.088c3.137,1.518,7.535,2.385,11.893,1.247   c2.274-0.592,3.988-2.459,4.375-4.766c0.187-1.094,0.293-2.289,0.283-3.553C42.54,13.244,36.729,5.56,28.415,5.625z"/>
	<path fill="#5C5C5C" d="M28.372,0.5   C17.537,0.5,8.269,7.748,9.153,26.125c0.563,6.563,5.862,12.042,9.366,13.531c-2.929-10.968-0.304-25.021-0.585-25.526   c-0.281-0.505,3.536,6.728,3.536,6.728l3.183-8.312c5.541,4.28,0.393,11.309,1.049,11.058c4.26-1.631,5.34-9.228,5.34-9.228   s2.729,3.657,2.701,5.504c-0.054,3.562,2.194-6.067,2.194-6.067l1.027,2.031c6.727,9.822,3.684,16.208,1.648,22.781   c15.666-0.703,12.291-10.48,9.66-18.407C43.59,6.092,39.206,0.5,28.372,0.5z" id="svg1.Hair_Female_1_Black_1_" stroke="#353535" stroke-linecap="round" stroke-linejoin="round"/>
	
		<linearGradient gradientTransform="matrix(0.9852 0 0 -0.9852 -34.4844 -3031.9851)" x1="95.9063" x2="31.5133" gradientUnits="userSpaceOnUse" y1="-3134.2153" y2="-3134.2153" id="svg1.body_1_">
		<stop offset="0" style="stop-color:#49AD33"/>
		<stop offset="1" style="stop-color:#C2DA92"/>
	</linearGradient>
	<path fill="url(#svg1.body_1_)" d="M0.5,62.768c0,1.938,1.575,3.494,3.523,3.494h48.51   c1.947,0,3.521-1.559,3.521-3.494c0,0-1.844-6.861-6.525-11.543c-4.815-4.813-8.244-5.146-8.244-5.146   c-1.444,6.983-8.555,8.786-13.007,8.786s-11.322-2.643-11.941-9.439c0,0-4.559,1.199-9.367,5.674   C1.378,56.689,0.5,62.768,0.5,62.768z" id="svg1.body_8_" stroke="#008D33"/>
</g>
</svg>
      </g>
    </g>
    <g text-rendering="geometricPrecision" stroke-miterlimit="1.45" shape-rendering="geometricPrecision" font-family="sans-serif" transform="matrix(1,0,0,1,-477,-191)" stroke-linecap="butt">
      <text x="494.8083" xml:space="preserve" y="468.2336" clip-path="url(#clipPath2)" stroke="none">User B</text>
    </g>
    <g fill="url(#linearGradient5)" text-rendering="geometricPrecision" shape-rendering="geometricPrecision" transform="matrix(1,0,0,1,-477,-191)" stroke="url(#linearGradient5)">
      <path d="M607.7471 206.6762 L700.1616 206.6762 L700.1616 237.632 L607.7471 237.632 Z" stroke="none" clip-path="url(#clipPath2)"/>
    </g>
    <g text-rendering="geometricPrecision" stroke-miterlimit="1.45" shape-rendering="geometricPrecision" transform="matrix(1,0,0,1,-477,-191)" stroke-linecap="butt">
      <path fill="none" d="M607.7471 206.6762 L700.1616 206.6762 L700.1616 237.632 L607.7471 237.632 Z" clip-path="url(#clipPath2)"/>
      <text x="607.4397" xml:space="preserve" y="219.6229" clip-path="url(#clipPath2)" font-family="sans-serif" stroke="none">A Certified App </text>
      <text x="633.6692" xml:space="preserve" y="233.7557" clip-path="url(#clipPath2)" font-family="sans-serif" stroke="none">Service</text>
    </g>
    <g fill="url(#linearGradient6)" text-rendering="geometricPrecision" shape-rendering="geometricPrecision" transform="matrix(1,0,0,1,-477,-191)" stroke="url(#linearGradient6)">
      <path d="M723.3224 206.6762 L815.737 206.6762 L815.737 237.632 L723.3224 237.632 Z" stroke="none" clip-path="url(#clipPath2)"/>
    </g>
    <g text-rendering="geometricPrecision" stroke-miterlimit="1.45" shape-rendering="geometricPrecision" transform="matrix(1,0,0,1,-477,-191)" stroke-linecap="butt">
      <path fill="none" d="M723.3224 206.6762 L815.737 206.6762 L815.737 237.632 L723.3224 237.632 Z" clip-path="url(#clipPath2)"/>
      <text x="723.7036" xml:space="preserve" y="219.6229" clip-path="url(#clipPath2)" font-family="sans-serif" stroke="none">B Certified App </text>
      <text x="749.2446" xml:space="preserve" y="233.7557" clip-path="url(#clipPath2)" font-family="sans-serif" stroke="none">Service</text>
    </g>
    <g fill="rgb(245,245,245)" text-rendering="geometricPrecision" shape-rendering="geometricPrecision" transform="matrix(1,0,0,1,-477,-191)" stroke="rgb(245,245,245)">
      <path d="M854.46 394.7913 L883.8745 394.7913 L883.8745 421.7913 L854.46 421.7913 Z" stroke="none" clip-path="url(#clipPath2)"/>
    </g>
    <g stroke-linecap="butt" font-size="18px" transform="matrix(1,0,0,1,-477,-191)" fill="red" text-rendering="geometricPrecision" font-family="sans-serif" shape-rendering="geometricPrecision" stroke="red" font-weight="bold" stroke-miterlimit="1.45">
      <text x="863.1643" xml:space="preserve" y="415.0941" clip-path="url(#clipPath2)" stroke="none">X</text>
    </g>
    <g text-rendering="geometricPrecision" shape-rendering="geometricPrecision" transform="matrix(0.6103,0,0,0.5503,18.8946,131.966)">
      <g clip-path="url(#clipPath4)">
        <svg xml:space="preserve" opacity="1" writing-mode="lr-tb" stop-color="rgb(0, 0, 0)" shape-rendering="auto" glyph-orientation-horizontal="0deg" color-profile="auto" lighting-color="rgb(255, 255, 255)" color="rgb(0, 0, 0)" font-weight="400" alignment-baseline="auto" font-style="normal" version="1.1" color-interpolation-filters="linearrgb" text-anchor="start" stroke-linecap="butt" color-interpolation="srgb" font-variant="normal" word-spacing="normal" fill-opacity="1" text-rendering="auto" clip-path="none" text-decoration="none" letter-spacing="normal" viewBox="0 0 57 67" glyph-orientation-vertical="auto" display="inline" font-size-adjust="none" overflow="hidden" fill="rgb(0, 0, 0)" font-stretch="normal" stroke-dasharray="none" id="svg2.Ebene_1" stroke-miterlimit="4" stop-opacity="1" color-rendering="auto" font-size="12" pointer-events="visiblepainted" mask="none" direction="ltr" baseline-shift="baseline" enable-background="new 0 0 57 67" fill-rule="nonzero" image-rendering="auto" stroke-dashoffset="0" width="57px" marker-end="none" clip="auto" cursor="auto" stroke="none" filter="none" visibility="visible" kerning="auto" stroke-width="1" font-family="&quot;Arial&quot;,&quot;Helvetica&quot;,sans-serif" flood-opacity="1" clip-rule="nonzero" src="none" height="67px" unicode-bidi="normal" stroke-linejoin="miter" stroke-opacity="1" flood-color="rgb(0, 0, 0)" dominant-baseline="auto" marker-start="none" x="0px" marker-mid="none" y="0px">
<g>
	
		<linearGradient gradientTransform="matrix(1 0 0 1 0.3203 -3091.7656)" x1="26.3398" x2="27.5807" gradientUnits="userSpaceOnUse" y1="3115.7266" y2="3145.5239" id="svg2.SVGID_1_">
		<stop offset="0.2711" style="stop-color:#FFAB4F"/>
		<stop offset="1" style="stop-color:#FFD28F"/>
	</linearGradient>
	<path fill="url(#svg2.SVGID_1_)" d="M49.529,51.225c-4.396-4.396-10.951-5.884-12.063-6.109   V37.8H19.278c0,0,0.038,6.903,0,6.868c0,0-6.874,0.997-12.308,6.432C1.378,56.691,0.5,62.77,0.5,62.77   c0,1.938,1.575,3.492,3.523,3.492h48.51c1.947,0,3.521-1.558,3.521-3.492C56.055,62.768,54.211,55.906,49.529,51.225z" stroke-miterlimit="10" stroke="#ED9135"/>
	
		<radialGradient gradientTransform="matrix(1 0 0 1 0.3203 -3091.7656)" gradientUnits="userSpaceOnUse" r="23.425" cx="27.5835" id="svg2.face_x5F_white_1_" cy="3117.4922" fx="23.0139" fy="3115.0024">
		<stop offset="0" style="stop-color:#FFD28F"/>
		<stop offset="1" style="stop-color:#FFAB4F"/>
	</radialGradient>
	<path fill="url(#svg2.face_x5F_white_1_)" id="svg2.face_x5F_white_3_" d="M43.676,23.357   c0.086,10.199-6.738,18.52-15.25,18.586c-8.5,0.068-15.464-8.146-15.55-18.344C12.794,13.4,19.618,5.079,28.123,5.012   C36.627,4.945,43.59,13.158,43.676,23.357z" stroke-miterlimit="10" stroke="#ED9135"/>
	
		<linearGradient gradientTransform="matrix(0.275 0 0 -0.2733 -1752.8849 -3350.4617)" x1="6468.5" x2="6492.1294" gradientUnits="userSpaceOnUse" y1="-12286.8594" y2="-12380.3086" id="svg2.face_highlight_1_">
		<stop offset="0" style="stop-color:#FFFFFF;stop-opacity:0.24"/>
		<stop offset="1" style="stop-color:#FFFFFF;stop-opacity:0.16"/>
	</linearGradient>
	<path fill="url(#svg2.face_highlight_1_)" id="svg2.face_highlight_3_" d="M28.415,5.625c-6.035,0.047-10.747,4.493-12.787,10.386   c-0.664,1.919-0.294,4.043,0.98,5.629c2.73,3.398,5.729,6.283,9.461,8.088c3.137,1.518,7.535,2.385,11.893,1.247   c2.274-0.592,3.988-2.459,4.375-4.766c0.187-1.094,0.293-2.289,0.283-3.553C42.54,13.244,36.729,5.56,28.415,5.625z"/>
	<path fill="#CC9869" d="M28.372,0.5   C17.537,0.5,8.269,7.748,9.153,26.125c0.563,6.563,5.862,12.042,9.366,13.531c-2.929-10.968-0.304-25.021-0.585-25.526   c-0.281-0.505,3.536,6.728,3.536,6.728l3.183-8.312c5.541,4.28,0.393,11.309,1.049,11.058c4.26-1.631,5.34-9.228,5.34-9.228   s2.729,3.657,2.701,5.504c-0.054,3.562,2.194-6.067,2.194-6.067l1.027,2.031c6.727,9.822,3.684,16.208,1.648,22.781   c15.666-0.703,12.291-10.48,9.66-18.407C43.59,6.092,39.206,0.5,28.372,0.5z" id="svg2.Hair_Female_1_Brown_4_" stroke="#99724F" stroke-linecap="round" stroke-linejoin="round"/>
	
		<radialGradient gradientTransform="matrix(1 0 0 -1 0.04 66.1543)" id="svg2.collar_x5F_body_1_" r="32.4004" cx="15.2412" gradientUnits="userSpaceOnUse" cy="11.9829">
		<stop offset="0" style="stop-color:#FCB57A"/>
		<stop offset="1" style="stop-color:#FF8C36"/>
	</radialGradient>
	<path fill="url(#svg2.collar_x5F_body_1_)" d="M0.5,62.768c0,1.938,1.575,3.494,3.523,3.494   h48.51c1.947,0,3.521-1.559,3.521-3.494c0,0-1.844-6.861-6.525-11.543c-4.815-4.813-11.244-6.146-11.244-6.146   c-1.771,1.655-5.61,2.802-10.063,2.802c-4.453,0-8.292-1.146-10.063-2.802c0,0-5.755,0.586-11.189,6.021   C1.378,56.689,0.5,62.768,0.5,62.768z" id="svg2.collar_x5F_body_2_" stroke="#E55E03"/>
	
		<radialGradient gradientTransform="matrix(1 0 0 -1 0.04 66.1543)" id="svg2.collar_x5F_r_1_" r="9.2823" cx="31.5801" gradientUnits="userSpaceOnUse" cy="17.957">
		<stop offset="0" style="stop-color:#FCB57A"/>
		<stop offset="1" style="stop-color:#FF8C36"/>
	</radialGradient>
	<path fill="url(#svg2.collar_x5F_r_1_)" d="M38.159,41.381c0,0-0.574,2.369-3.013,4.441   c-2.108,1.795-5.783,2.072-5.783,2.072l3.974,6.217c0,0,2.957-1.637,5.009-3.848c1.922-2.072,1.37-5.479,1.37-5.479L38.159,41.381z   " id="svg2.collar_x5F_r_2_" stroke="#E55E03"/>
	
		<radialGradient gradientTransform="matrix(1 0 0 -1 0.04 66.1543)" id="svg2.collar_x5F_l_1_" r="9.2843" cx="19.2178" gradientUnits="userSpaceOnUse" cy="17.916">
		<stop offset="0" style="stop-color:#FCB57A"/>
		<stop offset="1" style="stop-color:#FF8C36"/>
	</radialGradient>
	<path fill="url(#svg2.collar_x5F_l_1_)" d="M18.63,41.422c0,0,0.576,2.369,3.012,4.441   c2.109,1.793,5.785,2.072,5.785,2.072l-3.974,6.217c0,0-2.957-1.637-5.007-3.85c-1.922-2.072-1.37-5.48-1.37-5.48L18.63,41.422z" id="svg2.collar_x5F_l_2_" stroke="#E55E03"/>
	
		<linearGradient gradientTransform="matrix(0.9852 0 0 -0.9852 -34.4844 -3031.9851)" x1="95.9063" x2="31.5133" gradientUnits="userSpaceOnUse" y1="-3134.0396" y2="-3134.0396" id="svg2.body_1_">
		<stop offset="0" style="stop-color:#49AD33"/>
		<stop offset="1" style="stop-color:#C2DA92"/>
	</linearGradient>
	<path fill="url(#svg2.body_1_)" d="M0.5,62.768c0,1.938,1.575,3.494,3.523,3.494h48.51   c1.947,0,3.521-1.559,3.521-3.494c0,0-1.844-6.861-6.525-11.543c-4.815-4.813-11.244-6.146-11.244-6.146   c-1.771,1.655-5.61,2.802-10.063,2.802c-4.453,0-8.292-1.146-10.063-2.802c0,0-5.755,0.586-11.189,6.021   C1.378,56.689,0.5,62.768,0.5,62.768z" id="svg2.body_15_" stroke="#008D33"/>
	
		<linearGradient gradientTransform="matrix(1 0 0 1 0.3203 -3091.7656)" x1="41.0879" x2="15.0673" gradientUnits="userSpaceOnUse" y1="3138.3994" y2="3138.3994" id="svg2.turtleneck_1_">
		<stop offset="0" style="stop-color:#49AD33"/>
		<stop offset="1" style="stop-color:#C2DA92"/>
	</linearGradient>
	<path fill="url(#svg2.turtleneck_1_)" d="M39.715,44.786l-1.557-3.405   c0,0-0.574,2.369-3.012,4.441c-2.109,1.795-6.785,2.072-6.785,2.072s-4.753-0.356-6.722-2.031   c-2.436-2.072-3.012-4.441-3.012-4.441l-1.555,3.404c0,0-0.552,1.404,1.37,3.479c1.025,1.105,5.203,3.611,9.682,3.582   c4.479-0.029,9.264-2.594,10.218-3.623C40.266,46.191,39.715,44.786,39.715,44.786z" id="svg2.turtleneck_11_" stroke="#008D33"/>
	
		<radialGradient gradientTransform="matrix(0.9852 0 0 -0.9852 -34.4844 -3031.9851)" id="svg2.body_2_" r="32.8877" cx="50.5117" gradientUnits="userSpaceOnUse" cy="-3132.519">
		<stop offset="0" style="stop-color:#FCB57A"/>
		<stop offset="1" style="stop-color:#FF8C36"/>
	</radialGradient>
	<path fill="url(#svg2.body_2_)" d="M0.5,62.768c0,1.938,1.575,3.494,3.523,3.494h48.51   c1.947,0,3.521-1.559,3.521-3.494c0,0-1.844-6.861-6.525-11.543c-4.815-4.813-11.244-6.146-11.244-6.146   c-1.771,1.655-5.61,2.802-10.063,2.802c-4.453,0-8.292-1.146-10.063-2.802c0,0-5.755,0.586-11.189,6.021   C1.378,56.689,0.5,62.768,0.5,62.768z" id="svg2.body_14_" stroke="#E55E03"/>
	
		<radialGradient gradientTransform="matrix(1 0 0 1 0.3203 -3091.7656)" id="svg2.turtleneck_2_" r="13.5363" cx="22.7432" gradientUnits="userSpaceOnUse" cy="3139.1426">
		<stop offset="0" style="stop-color:#FCB57A"/>
		<stop offset="1" style="stop-color:#FF8C36"/>
	</radialGradient>
	<path fill="url(#svg2.turtleneck_2_)" d="M39.715,44.786l-1.557-3.405   c0,0-0.574,2.369-3.012,4.441c-2.109,1.795-6.785,2.072-6.785,2.072s-4.753-0.356-6.722-2.031   c-2.436-2.072-3.012-4.441-3.012-4.441l-1.555,3.404c0,0-0.552,1.404,1.37,3.479c1.025,1.105,5.203,3.611,9.682,3.582   c4.479-0.029,9.264-2.594,10.218-3.623C40.266,46.191,39.715,44.786,39.715,44.786z" id="svg2.turtleneck_10_" stroke="#E55E03"/>
</g>
</svg>
      </g>
    </g>
    <g text-rendering="geometricPrecision" stroke-miterlimit="1.45" shape-rendering="geometricPrecision" font-family="sans-serif" transform="matrix(1,0,0,1,-477,-191)" stroke-linecap="butt">
      <text x="494.1199" xml:space="preserve" y="377.3064" clip-path="url(#clipPath2)" stroke="none">User A</text>
    </g>
    <g fill="url(#linearGradient7)" text-rendering="geometricPrecision" shape-rendering="geometricPrecision" transform="matrix(1,0,0,1,-477,-191)" stroke="url(#linearGradient7)">
      <path d="M539.8906 418.7626 L569.3052 418.7626 L569.3052 445.7626 L539.8906 445.7626 Z" stroke="none" clip-path="url(#clipPath2)"/>
    </g>
    <g stroke-linecap="butt" font-size="18px" transform="matrix(1,0,0,1,-477,-191)" fill="red" text-rendering="geometricPrecision" font-family="sans-serif" shape-rendering="geometricPrecision" stroke="red" font-weight="bold" stroke-miterlimit="1.45">
      <text x="548.595" xml:space="preserve" y="439.0654" clip-path="url(#clipPath2)" stroke="none">X</text>
    </g>
    <g fill="url(#linearGradient8)" text-rendering="geometricPrecision" shape-rendering="geometricPrecision" transform="matrix(1,0,0,1,-477,-191)" stroke="url(#linearGradient8)">
      <path d="M723.3224 480.632 L815.737 480.632 L815.737 511.5879 L723.3224 511.5879 Z" stroke="none" clip-path="url(#clipPath2)"/>
    </g>
    <g text-rendering="geometricPrecision" stroke-miterlimit="1.45" shape-rendering="geometricPrecision" transform="matrix(1,0,0,1,-477,-191)" stroke-linecap="butt">
      <path fill="none" d="M723.3224 480.632 L815.737 480.632 L815.737 511.5879 L723.3224 511.5879 Z" clip-path="url(#clipPath2)"/>
      <text x="723.4516" xml:space="preserve" y="500.6451" clip-path="url(#clipPath2)" font-family="sans-serif" stroke="none">D Wallet Service</text>
    </g>
    <g text-rendering="geometricPrecision" stroke-miterlimit="1.45" shape-rendering="geometricPrecision" transform="matrix(1,0,0,1,-477,-191)" stroke-linecap="butt">
      <path fill="none" d="M653.9543 356.7994 L653.9543 408.2913 L715.3391 408.2913" clip-path="url(#clipPath2)"/>
      <path d="M723.3391 408.2913 L711.3391 403.2913 L714.3391 408.2913 L711.3391 413.2913 Z" clip-path="url(#clipPath2)" stroke="none"/>
      <path fill="none" d="M769.5297 356.7994 L769.5297 384.8287" clip-path="url(#clipPath2)"/>
      <path d="M769.5297 392.8287 L774.5297 380.8287 L769.5297 383.8287 L764.5297 380.8287 Z" clip-path="url(#clipPath2)" stroke="none"/>
      <path fill="none" stroke-dasharray="6,2" d="M886.1019 356.7994 L886.1019 408.2913 L823.7203 408.2913" clip-path="url(#clipPath2)" stroke="red"/>
      <path fill="red" stroke-dasharray="6,2" d="M815.7203 408.2913 L827.7203 413.2913 L824.7203 408.2913 L827.7203 403.2913 Z" clip-path="url(#clipPath2)" stroke="none"/>
      <path fill="none" stroke-dasharray="6,2" d="M526.7905 432.2626 L627.2471 432.2626 L627.2471 364.8304" clip-path="url(#clipPath2)" stroke="red"/>
      <path fill="red" stroke-dasharray="6,2" d="M627.2471 356.8304 L622.2471 368.8304 L627.2471 365.8304 L632.2471 368.8304 Z" clip-path="url(#clipPath2)" stroke="none"/>
      <path fill="none" stroke-dasharray="6,2" d="M526.7905 432.2626 L627.2471 432.2626 L627.2471 379.0157 L743.1716 379.0157 L743.1716 364.827" clip-path="url(#clipPath2)" stroke="red"/>
      <path fill="red" stroke-dasharray="6,2" d="M743.1716 356.827 L738.1716 368.827 L743.1716 365.827 L748.1716 368.827 Z" clip-path="url(#clipPath2)" stroke="none"/>
      <path fill="none" stroke-dasharray="6,2" d="M653.9543 245.6046 L653.9543 317.8619" clip-path="url(#clipPath2)"/>
      <path stroke-dasharray="6,2" d="M653.9543 237.6046 L648.9543 249.6046 L653.9543 246.6046 L658.9543 249.6046 Z" clip-path="url(#clipPath2)" stroke="none"/>
      <path stroke-dasharray="6,2" d="M653.9543 325.8619 L658.9543 313.8619 L653.9543 316.8619 L648.9543 313.8619 Z" clip-path="url(#clipPath2)" stroke="none"/>
      <path fill="none" stroke-dasharray="6,2" d="M769.5297 245.6046 L769.5297 317.8619" clip-path="url(#clipPath2)"/>
      <path stroke-dasharray="6,2" d="M769.5297 237.6046 L764.5297 249.6046 L769.5297 246.6046 L774.5297 249.6046 Z" clip-path="url(#clipPath2)" stroke="none"/>
      <path stroke-dasharray="6,2" d="M769.5297 325.8619 L774.5297 313.8619 L769.5297 316.8619 L764.5297 313.8619 Z" clip-path="url(#clipPath2)" stroke="none"/>
      <path fill="none" d="M513.1716 322.9347 L513.1716 309.0157 L630.1716 309.0157 L630.1716 317.8663" clip-path="url(#clipPath2)" stroke="blue"/>
      <path fill="blue" d="M630.1716 325.8663 L635.1716 313.8663 L630.1716 316.8663 L625.1716 313.8663 Z" clip-path="url(#clipPath2)" stroke="none"/>
      <path fill="none" d="M513.1716 322.9347 L513.1716 309.0157 L753.1716 309.0157 L753.1716 317.8614" clip-path="url(#clipPath2)" stroke="blue"/>
      <path fill="blue" d="M753.1716 325.8614 L758.1716 313.8614 L753.1716 316.8614 L748.1716 313.8614 Z" clip-path="url(#clipPath2)" stroke="none"/>
      <path fill="none" stroke-dasharray="6,2" d="M769.5297 431.7711 L769.5297 472.6038" clip-path="url(#clipPath2)"/>
      <path stroke-dasharray="6,2" d="M769.5297 423.7711 L764.5297 435.7711 L769.5297 432.7711 L774.5297 435.7711 Z" clip-path="url(#clipPath2)" stroke="none"/>
      <path stroke-dasharray="6,2" d="M769.5297 480.6038 L774.5297 468.6038 L769.5297 471.6038 L764.5297 468.6038 Z" clip-path="url(#clipPath2)" stroke="none"/>
    </g>
  </g>
</svg>
