<?xml version="1.0" encoding="UTF-8"?><svg xmlns="http://www.w3.org/2000/svg" xmlns:xlink="http://www.w3.org/1999/xlink" fill-opacity="1" color-rendering="auto" color-interpolation="auto" text-rendering="auto" stroke="black" stroke-linecap="square" width="256" stroke-miterlimit="10" shape-rendering="auto" stroke-opacity="1" fill="black" stroke-dasharray="none" font-weight="normal" stroke-width="1" height="373" font-family="'Dialog'" font-style="normal" stroke-linejoin="miter" font-size="12px" stroke-dashoffset="0" image-rendering="auto">
  <!--Generated by ySVG 2.6-->
  <defs id="genericDefs"/>
  <g>
    <defs id="defs1">
      <linearGradient x1="686.6709" gradientUnits="userSpaceOnUse" x2="806.0854" y1="283.3729" y2="323.3729" id="linearGradient1" spreadMethod="reflect">
        <stop stop-opacity="1" stop-color="rgb(232,238,247)" offset="0%"/>
        <stop stop-opacity="1" stop-color="rgb(183,201,227)" offset="100%"/>
      </linearGradient>
      <linearGradient x1="686.6709" gradientUnits="userSpaceOnUse" x2="806.0854" y1="378.4377" y2="410.4377" id="linearGradient2" spreadMethod="reflect">
        <stop stop-opacity="1" stop-color="white" offset="0%"/>
        <stop stop-opacity="1" stop-color="white" offset="100%"/>
      </linearGradient>
      <linearGradient x1="686.6709" gradientUnits="userSpaceOnUse" x2="806.0854" y1="424.5024" y2="456.5024" id="linearGradient3" spreadMethod="reflect">
        <stop stop-opacity="1" stop-color="white" offset="0%"/>
        <stop stop-opacity="1" stop-color="white" offset="100%"/>
      </linearGradient>
      <linearGradient x1="686.6709" gradientUnits="userSpaceOnUse" x2="806.0854" y1="470.5672" y2="502.5672" id="linearGradient4" spreadMethod="reflect">
        <stop stop-opacity="1" stop-color="white" offset="0%"/>
        <stop stop-opacity="1" stop-color="white" offset="100%"/>
      </linearGradient>
      <clipPath clipPathUnits="userSpaceOnUse" id="clipPath1">
        <path d="M0 0 L256 0 L256 373 L0 373 L0 0 Z"/>
      </clipPath>
      <clipPath clipPathUnits="userSpaceOnUse" id="clipPath2">
        <path d="M620 195 L876 195 L876 568 L620 568 L620 195 Z"/>
      </clipPath>
    </defs>
    <g fill="white" text-rendering="geometricPrecision" shape-rendering="geometricPrecision" transform="translate(-620,-195)" stroke="white">
      <rect x="620" width="256" height="373" y="195" clip-path="url(#clipPath2)" stroke="none"/>
    </g>
    <g fill="rgb(245,245,245)" text-rendering="geometricPrecision" shape-rendering="geometricPrecision" transform="matrix(1,0,0,1,-620,-195)" stroke="rgb(245,245,245)">
      <rect x="635.4843" y="210.0409" clip-path="url(#clipPath2)" width="224.6765" rx="4" ry="4" height="342.3968" stroke="none"/>
      <rect x="635.4843" y="210.0409" clip-path="url(#clipPath2)" fill="rgb(235,235,235)" width="224.6765" height="21.666" stroke="none"/>
    </g>
    <g font-size="15px" stroke-linecap="butt" transform="matrix(1,0,0,1,-620,-195)" text-rendering="geometricPrecision" font-family="sans-serif" shape-rendering="geometricPrecision" stroke-miterlimit="1.45">
      <text x="717.9837" xml:space="preserve" y="226.5428" clip-path="url(#clipPath2)" stroke="none">Provider</text>
      <rect x="635.4843" y="210.0409" clip-path="url(#clipPath2)" fill="none" width="224.6765" stroke-dasharray="6,2" rx="4" ry="4" height="342.3968"/>
    </g>
    <g fill="rgb(225,225,225)" text-rendering="geometricPrecision" shape-rendering="geometricPrecision" transform="matrix(1,0,0,1,-620,-195)" stroke="rgb(225,225,225)">
      <rect x="656.6709" y="246.7069" clip-path="url(#clipPath2)" width="188.49" rx="4" ry="4" height="290.7308" stroke="none"/>
      <rect x="656.6709" y="246.7069" clip-path="url(#clipPath2)" fill="rgb(235,235,235)" width="188.49" height="21.666" stroke="none"/>
    </g>
    <g font-size="15px" stroke-linecap="butt" transform="matrix(1,0,0,1,-620,-195)" text-rendering="geometricPrecision" font-family="sans-serif" shape-rendering="geometricPrecision" stroke-miterlimit="1.45">
      <text x="725.5594" xml:space="preserve" y="263.2089" clip-path="url(#clipPath2)" stroke="none">Service</text>
      <rect x="656.6709" y="246.7069" clip-path="url(#clipPath2)" fill="none" width="188.49" stroke-dasharray="6,2" rx="4" ry="4" height="290.7308"/>
    </g>
    <g fill="url(#linearGradient1)" text-rendering="geometricPrecision" shape-rendering="geometricPrecision" transform="matrix(1,0,0,1,-620,-195)" stroke="url(#linearGradient1)">
      <path d="M686.6709 283.3729 L806.0854 283.3729 L806.0854 323.3729 L686.6709 323.3729 Z" stroke="none" clip-path="url(#clipPath2)"/>
    </g>
    <g text-rendering="geometricPrecision" stroke-miterlimit="1.45" shape-rendering="geometricPrecision" transform="matrix(1,0,0,1,-620,-195)" stroke-linecap="butt">
      <path fill="none" d="M686.6709 283.3729 L806.0854 283.3729 L806.0854 323.3729 L686.6709 323.3729 Z" clip-path="url(#clipPath2)"/>
      <text x="730.0452" xml:space="preserve" y="307.9081" clip-path="url(#clipPath2)" font-family="sans-serif" stroke="none">Entity</text>
    </g>
    <g fill="rgb(215,215,215)" text-rendering="geometricPrecision" shape-rendering="geometricPrecision" transform="matrix(1,0,0,1,-620,-195)" stroke="rgb(215,215,215)">
      <rect x="671.6709" y="341.7717" clip-path="url(#clipPath2)" width="149.4146" rx="4" ry="4" height="175.7955" stroke="none"/>
      <rect x="671.6709" y="341.7717" clip-path="url(#clipPath2)" fill="white" width="149.4146" height="21.666" stroke="none"/>
    </g>
    <g font-size="15px" stroke-linecap="butt" transform="matrix(1,0,0,1,-620,-195)" text-rendering="geometricPrecision" font-family="sans-serif" shape-rendering="geometricPrecision" stroke-miterlimit="1.45">
      <text x="724.5007" xml:space="preserve" y="358.2736" clip-path="url(#clipPath2)" stroke="none">Wallet</text>
      <rect x="671.6709" y="341.7717" clip-path="url(#clipPath2)" fill="none" width="149.4146" stroke-dasharray="6,2" rx="4" ry="4" height="175.7955"/>
    </g>
    <g fill="url(#linearGradient2)" text-rendering="geometricPrecision" shape-rendering="geometricPrecision" transform="matrix(1,0,0,1,-620,-195)" stroke="url(#linearGradient2)">
      <path d="M686.6709 378.4377 L806.0854 378.4377 L806.0854 410.4377 L686.6709 410.4377 Z" stroke="none" clip-path="url(#clipPath2)"/>
    </g>
    <g text-rendering="geometricPrecision" stroke-miterlimit="1.45" shape-rendering="geometricPrecision" transform="matrix(1,0,0,1,-620,-195)" stroke-linecap="butt">
      <path fill="none" d="M686.6709 378.4377 L806.0854 378.4377 L806.0854 410.4377 L686.6709 410.4377 Z" clip-path="url(#clipPath2)"/>
      <text x="735.6614" xml:space="preserve" y="398.9728" clip-path="url(#clipPath2)" font-family="sans-serif" stroke="none">DID</text>
    </g>
    <g fill="url(#linearGradient3)" text-rendering="geometricPrecision" shape-rendering="geometricPrecision" transform="matrix(1,0,0,1,-620,-195)" stroke="url(#linearGradient3)">
      <path d="M686.6709 424.5024 L806.0854 424.5024 L806.0854 456.5024 L686.6709 456.5024 Z" stroke="none" clip-path="url(#clipPath2)"/>
    </g>
    <g text-rendering="geometricPrecision" stroke-miterlimit="1.45" shape-rendering="geometricPrecision" transform="matrix(1,0,0,1,-620,-195)" stroke-linecap="butt">
      <path fill="none" d="M686.6709 424.5024 L806.0854 424.5024 L806.0854 456.5024 L686.6709 456.5024 Z" clip-path="url(#clipPath2)"/>
      <text x="716.3049" xml:space="preserve" y="445.0376" clip-path="url(#clipPath2)" font-family="sans-serif" stroke="none">Key Pair(s)</text>
    </g>
    <g fill="url(#linearGradient4)" text-rendering="geometricPrecision" shape-rendering="geometricPrecision" transform="matrix(1,0,0,1,-620,-195)" stroke="url(#linearGradient4)">
      <path d="M686.6709 470.5672 L806.0854 470.5672 L806.0854 502.5672 L686.6709 502.5672 Z" stroke="none" clip-path="url(#clipPath2)"/>
    </g>
    <g text-rendering="geometricPrecision" stroke-miterlimit="1.45" shape-rendering="geometricPrecision" transform="matrix(1,0,0,1,-620,-195)" stroke-linecap="butt">
      <path fill="none" d="M686.6709 470.5672 L806.0854 470.5672 L806.0854 502.5672 L686.6709 502.5672 Z" clip-path="url(#clipPath2)"/>
      <text x="706.5532" xml:space="preserve" y="491.1023" clip-path="url(#clipPath2)" font-family="sans-serif" stroke="none">가입증명서 (VC)</text>
    </g>
  </g>
</svg>
