<?xml version="1.0" encoding="UTF-8"?><svg xmlns="http://www.w3.org/2000/svg" xmlns:xlink="http://www.w3.org/1999/xlink" fill-opacity="1" color-rendering="auto" color-interpolation="auto" text-rendering="auto" stroke="black" stroke-linecap="square" width="720" stroke-miterlimit="10" shape-rendering="auto" stroke-opacity="1" fill="black" stroke-dasharray="none" font-weight="normal" stroke-width="1" height="315" font-family="'Dialog'" font-style="normal" stroke-linejoin="miter" font-size="12px" stroke-dashoffset="0" image-rendering="auto">
  <!--Generated by ySVG 2.6-->
  <defs id="genericDefs"/>
  <g>
    <defs id="defs1">
      <clipPath clipPathUnits="userSpaceOnUse" id="clipPath1">
        <path d="M0 0 L720 0 L720 315 L0 315 L0 0 Z"/>
      </clipPath>
      <clipPath clipPathUnits="userSpaceOnUse" id="clipPath2">
        <path d="M411 240 L1131 240 L1131 555 L411 555 L411 240 Z"/>
      </clipPath>
      <clipPath clipPathUnits="userSpaceOnUse" id="clipPath3">
        <path d="M-156.0394 -532.9177 L5230.2354 -532.9177 L5230.2354 1823.6851 L-156.0394 1823.6851 L-156.0394 -532.9177 Z"/>
      </clipPath>
    </defs>
    <g fill="rgb(204,255,204)" text-rendering="geometricPrecision" shape-rendering="geometricPrecision" transform="matrix(1,0,0,1,-411,-240)" stroke="rgb(204,255,204)">
      <rect x="426" width="352" height="41" y="405.296" clip-path="url(#clipPath2)" stroke="none"/>
    </g>
    <g stroke-linecap="butt" transform="matrix(1,0,0,1,-411,-240)" fill="red" text-rendering="geometricPrecision" font-family="sans-serif" shape-rendering="geometricPrecision" stroke="red" font-weight="bold" stroke-miterlimit="1.45">
      <text x="613.75" xml:space="preserve" y="430.3312" clip-path="url(#clipPath2)" stroke="none">App2App Communication</text>
    </g>
    <g text-rendering="geometricPrecision" shape-rendering="geometricPrecision" transform="matrix(0.1337,0,0,0.1337,20.8583,71.2335)">
      <g clip-path="url(#clipPath3)">
        <svg opacity="1" writing-mode="lr-tb" stop-color="rgb(0, 0, 0)" shape-rendering="auto" glyph-orientation-horizontal="0deg" color-profile="auto" lighting-color="rgb(255, 255, 255)" color="rgb(0, 0, 0)" font-weight="400" alignment-baseline="auto" font-style="normal" version="1.0" color-interpolation-filters="linearrgb" text-anchor="start" stroke-linecap="butt" color-interpolation="srgb" font-variant="normal" word-spacing="normal" fill-opacity="1" text-rendering="auto" clip-path="none" text-decoration="none" letter-spacing="normal" viewBox="0 0 698.000000 1280.000000" glyph-orientation-vertical="auto" display="inline" font-size-adjust="none" fill="rgb(0, 0, 0)" overflow="hidden" font-stretch="normal" stroke-dasharray="none" stroke-miterlimit="4" stop-opacity="1" color-rendering="auto" font-size="12" mask="none" direction="ltr" baseline-shift="baseline" pointer-events="visiblepainted" enable-background="accumulate" fill-rule="nonzero" image-rendering="auto" stroke-dashoffset="0" width="698.000000pt" marker-end="none" clip="auto" cursor="auto" stroke="none" filter="none" visibility="visible" kerning="auto" stroke-width="1" font-family="&quot;Arial&quot;,&quot;Helvetica&quot;,sans-serif" preserveAspectRatio="xMidYMid meet" flood-opacity="1" clip-rule="nonzero" src="none" height="1280.000000pt" unicode-bidi="normal" stroke-linejoin="miter" stroke-opacity="1" flood-color="rgb(0, 0, 0)" dominant-baseline="auto" marker-start="none" marker-mid="none">
          
          <metadata>
Created by potrace 1.15, written by Peter Selinger 2001-2017
</metadata>
          
          <g fill="#000000" transform="translate(0.000000,1280.000000) scale(0.100000,-0.100000)" stroke="none">
            
            <path d="M875 12785 c-188 -34 -328 -109 -477 -253 -126 -122 -210 -257 -268 -432 -56 -165 -60 -226 -60 -867 0 -498 -2 -583 -14 -583 -8 0 -24 -12 -35 -26 -21 -27 -21 -27 -21 -1259 0 -1232 0 -1232 21 -1259 11 -14 27 -26 35 -26 12 0 14 -481 14 -3547 0 -3893 -4 -3644 60 -3833 59 -177 144 -313 273 -437 138 -133 299 -216 477 -249 111 -20 5099 -20 5210 0 178 33 339 116 477 249 154 147 248 317 306 547 l21 85 3 4023 3 4022 24 0 c59 0 56 -24 56 415 0 439 3 415 -55 415 l-24 0 -4 1068 c-3 1045 -3 1069 -24 1152 -24 98 -58 192 -98 270 -105 208 -312 401 -513 479 -169 65 1 61 -2786 60 -2024 -1 -2545 -3 -2601 -14z m4716 -370 c64 -34 89 -128 50 -191 -20 -32 -74 -64 -110 -64 -40 0 -90 28 -111 62 -24 40 -27 114 -4 147 40 56 116 76 175 46z m-489 -72 c40 -36 8 -113 -49 -113 -55 0 -85 70 -46 112 20 22 70 23 95 1z m-3117 -28 c65 -64 -12 -173 -93 -131 -34 17 -42 34 -42 81 0 67 87 99 135 50z m2689 -34 c49 -16 38 -27 -44 -40 -89 -15 -2201 -15 -2290 0 -106 17 -99 33 20 49 30 4 555 7 1165 6 878 -1 1118 -4 1149 -15z m1960 -597 l46 -7 0 -5362 0 -5362 -142 -6 c-187 -9 -5919 -9 -6105 0 l-143 6 0 5363 0 5363 33 4 c54 7 6261 7 6311 1z m-2309 -10971 c176 -94 170 -342 -10 -424 -38 -18 -85 -19 -828 -19 -869 0 -827 -3 -895 63 -51 48 -74 101 -74 166 0 115 69 205 177 232 17 4 381 7 810 6 779 -2 780 -2 820 -24z"/>
            
          </g>
          
        </svg>
      </g>
    </g>
    <g fill="silver" text-rendering="geometricPrecision" shape-rendering="geometricPrecision" transform="matrix(1,0,0,1,-411,-240)" stroke="silver">
      <rect x="445" width="95" height="41" y="355" clip-path="url(#clipPath2)" stroke="none"/>
    </g>
    <g text-rendering="geometricPrecision" stroke-miterlimit="1.45" stroke-width="2" shape-rendering="geometricPrecision" transform="matrix(1,0,0,1,-411,-240)" stroke-linecap="butt">
      <rect fill="none" x="445" width="95" height="41" y="355" clip-path="url(#clipPath2)"/>
      <text x="475.8564" y="380.0352" clip-path="url(#clipPath2)" font-family="sans-serif" stroke="none" font-weight="bold" stroke-width="1" xml:space="preserve">CApp</text>
    </g>
    <g fill="silver" text-rendering="geometricPrecision" shape-rendering="geometricPrecision" transform="matrix(1,0,0,1,-411,-240)" stroke="silver">
      <rect x="923" width="105" height="228.125" y="311.2335" clip-path="url(#clipPath2)" stroke="none"/>
    </g>
    <g text-rendering="geometricPrecision" stroke-miterlimit="1.45" stroke-width="2" shape-rendering="geometricPrecision" transform="matrix(1,0,0,1,-411,-240)" stroke-linecap="butt">
      <rect fill="none" x="923" width="105" height="228.125" y="311.2335" clip-path="url(#clipPath2)"/>
      <text x="952.4316" y="422.7648" clip-path="url(#clipPath2)" font-family="sans-serif" stroke="none" font-weight="bold" stroke-width="1" xml:space="preserve">Verifier</text>
      <text x="956.0264" y="436.8976" clip-path="url(#clipPath2)" font-family="sans-serif" stroke="none" font-weight="bold" stroke-width="1" xml:space="preserve">Server</text>
    </g>
    <g fill="silver" text-rendering="geometricPrecision" shape-rendering="geometricPrecision" transform="matrix(1,0,0,1,-411,-240)" stroke="silver">
      <rect x="445" width="95" height="41" y="461" clip-path="url(#clipPath2)" stroke="none"/>
    </g>
    <g text-rendering="geometricPrecision" stroke-miterlimit="1.45" stroke-width="2" shape-rendering="geometricPrecision" transform="matrix(1,0,0,1,-411,-240)" stroke-linecap="butt">
      <rect fill="none" x="445" width="95" height="41" y="461" clip-path="url(#clipPath2)"/>
      <text x="456.2627" y="486.0352" clip-path="url(#clipPath2)" font-family="sans-serif" stroke="none" font-weight="bold" stroke-width="1" xml:space="preserve">Service App</text>
    </g>
    <g font-size="20px" stroke-linecap="butt" transform="matrix(1,0,0,1,-411,-240)" text-rendering="geometricPrecision" font-family="sans-serif" shape-rendering="geometricPrecision" font-weight="bold" stroke-miterlimit="1.45">
      <text x="463.3199" xml:space="preserve" y="278.7921" clip-path="url(#clipPath2)" stroke="none">Indirect Mode where the Service Device is the "Service App"</text>
      <path fill="none" d="M492.5 396 L492.5 453" clip-path="url(#clipPath2)"/>
      <path d="M492.5 461 L497.5 449 L492.5 452 L487.5 449 Z" stroke="none" clip-path="url(#clipPath2)"/>
      <text x="496.5" font-size="12px" y="433.0352" clip-path="url(#clipPath2)" stroke="none" font-weight="normal" xml:space="preserve">Presentaion of VP</text>
      <path fill="none" d="M540 481.5 L915.0029 481.5" clip-path="url(#clipPath2)"/>
      <path d="M923.0029 481.5 L911.0029 476.5 L914.0029 481.5 L911.0029 486.5 Z" stroke="none" clip-path="url(#clipPath2)"/>
      <text x="678.3877" font-size="12px" y="474.9688" clip-path="url(#clipPath2)" stroke="none" font-weight="normal" xml:space="preserve">Presentation of VP</text>
    </g>
  </g>
</svg>
