<?xml version="1.0" encoding="us-ascii" standalone="no"?><svg xmlns="http://www.w3.org/2000/svg" xmlns:xlink="http://www.w3.org/1999/xlink" contentStyleType="text/css" height="570px" preserveAspectRatio="none" style="width:906px;height:570px;background:#FFFFFF;" version="1.1" viewBox="0 0 906 570" width="906px" zoomAndPan="magnify"><defs/><g><rect fill="none" height="347.0605" style="stroke:#000000;stroke-width:1.5;" width="889" x="10" y="112.1094"/><line style="stroke:#181818;stroke-width:0.5;stroke-dasharray:5.0,5.0;" x1="63" x2="63" y1="36.4883" y2="534.791"/><line style="stroke:#181818;stroke-width:0.5;stroke-dasharray:5.0,5.0;" x1="331" x2="331" y1="36.4883" y2="534.791"/><rect fill="#E2E2F0" height="30.4883" rx="2.5" ry="2.5" style="stroke:#181818;stroke-width:0.5;" width="86" x="20" y="5"/><text fill="#000000" font-family="sans-serif" font-size="14" lengthAdjust="spacing" textLength="72" x="27" y="25.5352">Client App</text><rect fill="#E2E2F0" height="30.4883" rx="2.5" ry="2.5" style="stroke:#181818;stroke-width:0.5;" width="86" x="20" y="533.791"/><text fill="#000000" font-family="sans-serif" font-size="14" lengthAdjust="spacing" textLength="72" x="27" y="554.3262">Client App</text><rect fill="#E2E2F0" height="30.4883" rx="2.5" ry="2.5" style="stroke:#181818;stroke-width:0.5;" width="88" x="287" y="5"/><text fill="#000000" font-family="sans-serif" font-size="14" lengthAdjust="spacing" textLength="74" x="294" y="25.5352">TAS Server</text><rect fill="#E2E2F0" height="30.4883" rx="2.5" ry="2.5" style="stroke:#181818;stroke-width:0.5;" width="88" x="287" y="533.791"/><text fill="#000000" font-family="sans-serif" font-size="14" lengthAdjust="spacing" textLength="74" x="294" y="554.3262">TAS Server</text><line style="stroke:#181818;stroke-width:1.0;" x1="329" x2="319" y1="67.7988" y2="63.7988"/><line style="stroke:#181818;stroke-width:1.0;" x1="329" x2="319" y1="67.7988" y2="71.7988"/><line style="stroke:#181818;stroke-width:1.0;" x1="63" x2="330" y1="67.7988" y2="67.7988"/><text fill="#000000" font-family="sans-serif" font-size="13" lengthAdjust="spacing" textLength="176" x="70" y="63.0566">PII Registration Request (PII)</text><line style="stroke:#181818;stroke-width:1.0;" x1="64" x2="74" y1="97.1094" y2="93.1094"/><line style="stroke:#181818;stroke-width:1.0;" x1="64" x2="74" y1="97.1094" y2="101.1094"/><line style="stroke:#181818;stroke-width:1.0;stroke-dasharray:2.0,2.0;" x1="63" x2="330" y1="97.1094" y2="97.1094"/><text fill="#000000" font-family="sans-serif" font-size="13" lengthAdjust="spacing" textLength="244" x="80" y="92.3672">Response (Whether Already Registered)</text><path d="M10,112.1094 L72,112.1094 L72,119.4199 L62,129.4199 L10,129.4199 L10,112.1094 " fill="#EEEEEE" style="stroke:#000000;stroke-width:1.5;"/><rect fill="none" height="347.0605" style="stroke:#000000;stroke-width:1.5;" width="889" x="10" y="112.1094"/><text fill="#000000" font-family="sans-serif" font-size="13" font-weight="bold" lengthAdjust="spacing" textLength="17" x="25" y="125.6777">alt</text><text fill="#000000" font-family="sans-serif" font-size="11" font-weight="bold" lengthAdjust="spacing" textLength="175" x="87" y="124.7441">[When using an existing wallet]</text><line style="stroke:#181818;stroke-width:1.0;" x1="329" x2="319" y1="150.7305" y2="146.7305"/><line style="stroke:#181818;stroke-width:1.0;" x1="329" x2="319" y1="150.7305" y2="154.7305"/><line style="stroke:#181818;stroke-width:1.0;" x1="63" x2="330" y1="150.7305" y2="150.7305"/><text fill="#000000" font-family="sans-serif" font-size="13" lengthAdjust="spacing" textLength="189" x="70" y="145.9883">Request to use existing wallet</text><path d="M336,163.7305 L336,188.7305 L589,188.7305 L589,173.7305 L579,163.7305 L336,163.7305 " fill="#FEFFDD" style="stroke:#181818;stroke-width:0.5;"/><path d="M579,163.7305 L579,173.7305 L589,173.7305 L579,163.7305 " fill="#FEFFDD" style="stroke:#181818;stroke-width:0.5;"/><text fill="#000000" font-family="sans-serif" font-size="13" lengthAdjust="spacing" textLength="232" x="342" y="181.2988">File wallet cannot use existing wallet</text><path d="M336,199.041 L336,224.041 L889,224.041 L889,209.041 L879,199.041 L336,199.041 " fill="#FEFFDD" style="stroke:#181818;stroke-width:0.5;"/><path d="M879,199.041 L879,209.041 L889,209.041 L879,199.041 " fill="#FEFFDD" style="stroke:#181818;stroke-width:0.5;"/><text fill="#000000" font-family="sans-serif" font-size="13" lengthAdjust="spacing" textLength="532" x="342" y="216.6094">App wallet cannot use existing wallet if the device is different from the previous one</text><line style="stroke:#181818;stroke-width:1.0;" x1="331" x2="373" y1="250.6621" y2="250.6621"/><line style="stroke:#181818;stroke-width:1.0;" x1="373" x2="373" y1="250.6621" y2="263.6621"/><line style="stroke:#181818;stroke-width:1.0;" x1="332" x2="373" y1="263.6621" y2="263.6621"/><polygon fill="#181818" points="342,259.6621,332,263.6621,342,267.6621,338,263.6621" style="stroke:#181818;stroke-width:1.0;"/><text fill="#000000" font-family="sans-serif" font-size="13" lengthAdjust="spacing" textLength="192" x="338" y="245.9199">Update information (user, app)</text><line style="stroke:#181818;stroke-width:1.0;" x1="64" x2="74" y1="292.9727" y2="288.9727"/><line style="stroke:#181818;stroke-width:1.0;" x1="64" x2="74" y1="292.9727" y2="296.9727"/><line style="stroke:#181818;stroke-width:1.0;stroke-dasharray:2.0,2.0;" x1="63" x2="330" y1="292.9727" y2="292.9727"/><text fill="#000000" font-family="sans-serif" font-size="13" lengthAdjust="spacing" textLength="18" x="80" y="288.2305">OK</text><line style="stroke:#000000;stroke-width:1.0;stroke-dasharray:2.0,2.0;" x1="10" x2="899" y1="301.9727" y2="301.9727"/><text fill="#000000" font-family="sans-serif" font-size="11" font-weight="bold" lengthAdjust="spacing" textLength="176" x="15" y="312.6074">[When registering a new wallet]</text><line style="stroke:#181818;stroke-width:1.0;" x1="329" x2="319" y1="337.2383" y2="333.2383"/><line style="stroke:#181818;stroke-width:1.0;" x1="329" x2="319" y1="337.2383" y2="341.2383"/><line style="stroke:#181818;stroke-width:1.0;" x1="63" x2="330" y1="337.2383" y2="337.2383"/><text fill="#000000" font-family="sans-serif" font-size="13" lengthAdjust="spacing" textLength="183" x="70" y="332.4961">DIDDoc Registration Request</text><line style="stroke:#181818;stroke-width:1.0;" x1="331" x2="373" y1="366.5488" y2="366.5488"/><line style="stroke:#181818;stroke-width:1.0;" x1="373" x2="373" y1="366.5488" y2="379.5488"/><line style="stroke:#181818;stroke-width:1.0;" x1="332" x2="373" y1="379.5488" y2="379.5488"/><polygon fill="#181818" points="342,375.5488,332,379.5488,342,383.5488,338,379.5488" style="stroke:#181818;stroke-width:1.0;"/><text fill="#000000" font-family="sans-serif" font-size="13" lengthAdjust="spacing" textLength="198" x="338" y="361.8066">Revoke existing wallet, DIDDoc</text><line style="stroke:#181818;stroke-width:1.0;" x1="331" x2="373" y1="408.8594" y2="408.8594"/><line style="stroke:#181818;stroke-width:1.0;" x1="373" x2="373" y1="408.8594" y2="421.8594"/><line style="stroke:#181818;stroke-width:1.0;" x1="332" x2="373" y1="421.8594" y2="421.8594"/><polygon fill="#181818" points="342,417.8594,332,421.8594,342,425.8594,338,421.8594" style="stroke:#181818;stroke-width:1.0;"/><text fill="#000000" font-family="sans-serif" font-size="13" lengthAdjust="spacing" textLength="237" x="338" y="404.1172">Update information (user, wallet, app)</text><line style="stroke:#181818;stroke-width:1.0;" x1="64" x2="74" y1="451.1699" y2="447.1699"/><line style="stroke:#181818;stroke-width:1.0;" x1="64" x2="74" y1="451.1699" y2="455.1699"/><line style="stroke:#181818;stroke-width:1.0;stroke-dasharray:2.0,2.0;" x1="63" x2="330" y1="451.1699" y2="451.1699"/><text fill="#000000" font-family="sans-serif" font-size="13" lengthAdjust="spacing" textLength="18" x="80" y="446.4277">OK</text><line style="stroke:#181818;stroke-width:1.0;" x1="329" x2="319" y1="487.4805" y2="483.4805"/><line style="stroke:#181818;stroke-width:1.0;" x1="329" x2="319" y1="487.4805" y2="491.4805"/><line style="stroke:#181818;stroke-width:1.0;" x1="63" x2="330" y1="487.4805" y2="487.4805"/><text fill="#000000" font-family="sans-serif" font-size="13" lengthAdjust="spacing" textLength="126" x="70" y="482.7383">Verification Request</text><line style="stroke:#181818;stroke-width:1.0;" x1="64" x2="74" y1="516.791" y2="512.791"/><line style="stroke:#181818;stroke-width:1.0;" x1="64" x2="74" y1="516.791" y2="520.791"/><line style="stroke:#181818;stroke-width:1.0;stroke-dasharray:2.0,2.0;" x1="63" x2="330" y1="516.791" y2="516.791"/><text fill="#000000" font-family="sans-serif" font-size="13" lengthAdjust="spacing" textLength="18" x="80" y="512.0488">OK</text><!--SRC=[bPBDRi8m48JlUOeLfo312t10YeegHJsqWlwShNXDLZMskpQXVVkkqo1AGrkHKwoPyUvyIL2SgA6WN08L0gW8anjBACSgX4aHlkb9nAm_LXlO87V8awB8eVbosOiBUAXhMEEMOcALo3ivlEqn9YX5cHRPDC_kd5g868Dt4Q5yQJ6ro51PHgK_XZkGKKzbX4qW1WVxI6uBoW6-YvhV3yfQJ0N8Sxx8SMxoai9B0USJ0jEsJU3DaBebYuC56kN4SarQWFqV1X9xYw2nemQ18cWoHfeAOCD-ruk1HVNx2DvXNwu7T-ps5BIIwUICvzqNvb8cyImpc9xy9z3tTmLQsQMdo0FRdYKuFFnESLMlLhwv-4N7Qwsnyw-ZlhFXacjg79D_rN7wvx_tB9KCDUTRZfAV]--></g></svg>