<?xml version="1.0" encoding="us-ascii" standalone="no"?><svg xmlns="http://www.w3.org/2000/svg" xmlns:xlink="http://www.w3.org/1999/xlink" contentStyleType="text/css" height="369px" preserveAspectRatio="none" style="width:456px;height:369px;background:#FFFFFF;" version="1.1" viewBox="0 0 456 369" width="456px" zoomAndPan="magnify"><defs/><g><ellipse cx="132.5" cy="20" fill="#222222" rx="10" ry="10" style="stroke:#222222;stroke-width:1.0;"/><path d="M263.5,46.7559 L263.5,63.0664 L243.5,67.0664 L263.5,71.0664 L263.5,87.377 A0,0 0 0 0 263.5,87.377 L433.5,87.377 A0,0 0 0 0 433.5,87.377 L433.5,56.7559 L423.5,46.7559 L263.5,46.7559 A0,0 0 0 0 263.5,46.7559 " fill="#FEFFDD" style="stroke:#181818;stroke-width:0.5;"/><path d="M423.5,46.7559 L423.5,56.7559 L433.5,56.7559 L423.5,46.7559 " fill="#FEFFDD" style="stroke:#181818;stroke-width:0.5;"/><text fill="#000000" font-family="sans-serif" font-size="13" lengthAdjust="spacing" textLength="87" x="269.5" y="64.3242">[CApp &#8594; TAS]</text><ellipse cx="275" cy="74.877" fill="#000000" rx="2.5" ry="2.5" style="stroke:#000000;stroke-width:0.0;"/><text fill="#000000" font-family="sans-serif" font-size="13" lengthAdjust="spacing" textLength="137" x="281.5" y="79.6348">Propose Register User</text><rect fill="#F1F1F1" height="34.1328" rx="12.5" ry="12.5" style="stroke:#181818;stroke-width:0.5;" width="222" x="21.5" y="50"/><text fill="#000000" font-family="sans-serif" font-size="12" font-weight="bold" lengthAdjust="spacing" textLength="19" x="31.5" y="71.6016">B1.</text><text fill="#000000" font-family="sans-serif" font-size="12" lengthAdjust="spacing" textLength="179" x="54.5" y="71.6016">Request Start User Registration</text><path d="M190.5,104.1328 L190.5,120.4434 L170.5,124.4434 L190.5,128.4434 L190.5,144.7539 A0,0 0 0 0 190.5,144.7539 L313.5,144.7539 A0,0 0 0 0 313.5,144.7539 L313.5,114.1328 L303.5,104.1328 L190.5,104.1328 A0,0 0 0 0 190.5,104.1328 " fill="#FEFFDD" style="stroke:#181818;stroke-width:0.5;"/><path d="M303.5,104.1328 L303.5,114.1328 L313.5,114.1328 L303.5,104.1328 " fill="#FEFFDD" style="stroke:#181818;stroke-width:0.5;"/><text fill="#000000" font-family="sans-serif" font-size="13" lengthAdjust="spacing" textLength="87" x="196.5" y="121.7012">[CApp &#8594; TAS]</text><ellipse cx="202" cy="132.2539" fill="#000000" rx="2.5" ry="2.5" style="stroke:#000000;stroke-width:0.0;"/><text fill="#000000" font-family="sans-serif" font-size="13" lengthAdjust="spacing" textLength="90" x="208.5" y="137.0117">Request ECDH</text><rect fill="#F1F1F1" height="34.1328" rx="12.5" ry="12.5" style="stroke:#181818;stroke-width:0.5;" width="76" x="94.5" y="107.377"/><text fill="#000000" font-family="sans-serif" font-size="12" font-weight="bold" lengthAdjust="spacing" textLength="19" x="104.5" y="128.9785">B2.</text><text fill="#000000" font-family="sans-serif" font-size="12" lengthAdjust="spacing" textLength="33" x="127.5" y="128.9785">ECDH</text><path d="M274,161.5098 L274,177.8203 L254,181.8203 L274,185.8203 L274,202.1309 A0,0 0 0 0 274,202.1309 L444,202.1309 A0,0 0 0 0 444,202.1309 L444,171.5098 L434,161.5098 L274,161.5098 A0,0 0 0 0 274,161.5098 " fill="#FEFFDD" style="stroke:#181818;stroke-width:0.5;"/><path d="M434,161.5098 L434,171.5098 L444,171.5098 L434,161.5098 " fill="#FEFFDD" style="stroke:#181818;stroke-width:0.5;"/><text fill="#000000" font-family="sans-serif" font-size="13" lengthAdjust="spacing" textLength="87" x="280" y="179.0781">[CApp &#8594; TAS]</text><ellipse cx="285.5" cy="189.6309" fill="#000000" rx="2.5" ry="2.5" style="stroke:#000000;stroke-width:0.0;"/><text fill="#000000" font-family="sans-serif" font-size="13" lengthAdjust="spacing" textLength="137" x="292" y="194.3887">Request Create Token</text><rect fill="#F1F1F1" height="34.1328" rx="12.5" ry="12.5" style="stroke:#181818;stroke-width:0.5;" width="243" x="11" y="164.7539"/><text fill="#000000" font-family="sans-serif" font-size="12" font-weight="bold" lengthAdjust="spacing" textLength="19" x="21" y="186.3555">B3.</text><text fill="#000000" font-family="sans-serif" font-size="12" lengthAdjust="spacing" textLength="200" x="44" y="186.3555">Create Wallet Token, Server Token</text><path d="M248.5,218.8867 L248.5,235.1973 L228.5,239.1973 L248.5,243.1973 L248.5,259.5078 A0,0 0 0 0 248.5,259.5078 L418.5,259.5078 A0,0 0 0 0 418.5,259.5078 L418.5,228.8867 L408.5,218.8867 L248.5,218.8867 A0,0 0 0 0 248.5,218.8867 " fill="#FEFFDD" style="stroke:#181818;stroke-width:0.5;"/><path d="M408.5,218.8867 L408.5,228.8867 L418.5,228.8867 L408.5,218.8867 " fill="#FEFFDD" style="stroke:#181818;stroke-width:0.5;"/><text fill="#000000" font-family="sans-serif" font-size="13" lengthAdjust="spacing" textLength="91" x="254.5" y="236.4551">[Wallet &#8594; TAS]</text><ellipse cx="260" cy="247.0078" fill="#000000" rx="2.5" ry="2.5" style="stroke:#000000;stroke-width:0.0;"/><text fill="#000000" font-family="sans-serif" font-size="13" lengthAdjust="spacing" textLength="137" x="266.5" y="251.7656">Request Register User</text><rect fill="#F1F1F1" height="34.1328" rx="12.5" ry="12.5" style="stroke:#181818;stroke-width:0.5;" width="192" x="36.5" y="222.1309"/><text fill="#000000" font-family="sans-serif" font-size="12" font-weight="bold" lengthAdjust="spacing" textLength="19" x="46.5" y="243.7324">B4.</text><text fill="#000000" font-family="sans-serif" font-size="12" lengthAdjust="spacing" textLength="149" x="69.5" y="243.7324">Request User Registration</text><path d="M252.5,276.2637 L252.5,292.5742 L232.5,296.5742 L252.5,300.5742 L252.5,316.8848 A0,0 0 0 0 252.5,316.8848 L423.5,316.8848 A0,0 0 0 0 423.5,316.8848 L423.5,286.2637 L413.5,276.2637 L252.5,276.2637 A0,0 0 0 0 252.5,276.2637 " fill="#FEFFDD" style="stroke:#181818;stroke-width:0.5;"/><path d="M413.5,276.2637 L413.5,286.2637 L423.5,286.2637 L413.5,276.2637 " fill="#FEFFDD" style="stroke:#181818;stroke-width:0.5;"/><text fill="#000000" font-family="sans-serif" font-size="13" lengthAdjust="spacing" textLength="87" x="258.5" y="293.832">[CApp &#8594; TAS]</text><ellipse cx="264" cy="304.3848" fill="#000000" rx="2.5" ry="2.5" style="stroke:#000000;stroke-width:0.0;"/><text fill="#000000" font-family="sans-serif" font-size="13" lengthAdjust="spacing" textLength="138" x="270.5" y="309.1426">Confirm Register User</text><rect fill="#F1F1F1" height="34.1328" rx="12.5" ry="12.5" style="stroke:#181818;stroke-width:0.5;" width="200" x="32.5" y="279.5078"/><text fill="#000000" font-family="sans-serif" font-size="12" font-weight="bold" lengthAdjust="spacing" textLength="19" x="42.5" y="301.1094">B5.</text><text fill="#000000" font-family="sans-serif" font-size="12" lengthAdjust="spacing" textLength="157" x="65.5" y="301.1094">Complete User Registration</text><ellipse cx="132.5" cy="347.8848" fill="none" rx="11" ry="11" style="stroke:#222222;stroke-width:1.0;"/><ellipse cx="132.5" cy="347.8848" fill="#222222" rx="6" ry="6" style="stroke:#222222;stroke-width:1.0;"/><line style="stroke:#181818;stroke-width:1.0;" x1="132.5" x2="132.5" y1="30" y2="50"/><polygon fill="#181818" points="128.5,40,132.5,50,136.5,40,132.5,44" style="stroke:#181818;stroke-width:1.0;"/><line style="stroke:#181818;stroke-width:1.0;" x1="132.5" x2="132.5" y1="84.1328" y2="107.377"/><polygon fill="#181818" points="128.5,97.377,132.5,107.377,136.5,97.377,132.5,101.377" style="stroke:#181818;stroke-width:1.0;"/><line style="stroke:#181818;stroke-width:1.0;" x1="132.5" x2="132.5" y1="141.5098" y2="164.7539"/><polygon fill="#181818" points="128.5,154.7539,132.5,164.7539,136.5,154.7539,132.5,158.7539" style="stroke:#181818;stroke-width:1.0;"/><line style="stroke:#181818;stroke-width:1.0;" x1="132.5" x2="132.5" y1="198.8867" y2="222.1309"/><polygon fill="#181818" points="128.5,212.1309,132.5,222.1309,136.5,212.1309,132.5,216.1309" style="stroke:#181818;stroke-width:1.0;"/><line style="stroke:#181818;stroke-width:1.0;" x1="132.5" x2="132.5" y1="256.2637" y2="279.5078"/><polygon fill="#181818" points="128.5,269.5078,132.5,279.5078,136.5,269.5078,132.5,273.5078" style="stroke:#181818;stroke-width:1.0;"/><line style="stroke:#181818;stroke-width:1.0;" x1="132.5" x2="132.5" y1="313.6406" y2="336.8848"/><polygon fill="#181818" points="128.5,326.8848,132.5,336.8848,136.5,326.8848,132.5,330.8848" style="stroke:#181818;stroke-width:1.0;"/><!--SRC=[dP5D2i8m44RtESMiWmZ-RNHLe-1IRCM5k0WurcARn6Jq21x08teIarf12fLgTXdutfjySIGjCJRcVDhhSWuhF5_G4SHX3ck7re_Ip96Lb6arOKeJWitI8p7mPoiYO-1nkqCInRjon65fjT4EgwH710v3jOUGVjdwmJONiqKxv7klaAYH1e4aB4fFsSWyHu94dr1r84PxzVRozfkcmfN9ccxuMLEBWggL6aJVAXgL3zE5yNdyzo-4LeVC5eqYHzey0G00]--></g></svg>