<?xml version="1.0" encoding="UTF-8"?><svg xmlns="http://www.w3.org/2000/svg" xmlns:xlink="http://www.w3.org/1999/xlink" fill-opacity="1" color-rendering="auto" color-interpolation="auto" text-rendering="auto" stroke="black" stroke-linecap="square" width="894" stroke-miterlimit="10" shape-rendering="auto" stroke-opacity="1" fill="black" stroke-dasharray="none" font-weight="normal" stroke-width="1" height="302" font-family="'Dialog'" font-style="normal" stroke-linejoin="miter" font-size="12px" stroke-dashoffset="0" image-rendering="auto">
  <!--Generated by ySVG 2.6-->
  <defs id="genericDefs"/>
  <g>
    <defs id="defs1">
      <clipPath clipPathUnits="userSpaceOnUse" id="clipPath1">
        <path d="M0 0 L894 0 L894 302 L0 302 L0 0 Z"/>
      </clipPath>
      <clipPath clipPathUnits="userSpaceOnUse" id="clipPath2">
        <path d="M300 160 L1194 160 L1194 462 L300 462 L300 160 Z"/>
      </clipPath>
    </defs>
    <g fill="white" text-rendering="geometricPrecision" shape-rendering="geometricPrecision" transform="translate(-300,-160)" stroke="white">
      <rect x="300" width="894" height="302" y="160" clip-path="url(#clipPath2)" stroke="none"/>
    </g>
    <g text-rendering="geometricPrecision" stroke-miterlimit="1.45" shape-rendering="geometricPrecision" transform="matrix(1,0,0,1,-300,-160)" stroke-linecap="butt">
      <rect fill="none" x="403.624" width="103.216" height="254.576" y="192.0991" clip-path="url(#clipPath2)"/>
      <text x="451.0923" xml:space="preserve" y="323.9222" clip-path="url(#clipPath2)" font-family="sans-serif" stroke="none">A</text>
    </g>
    <g fill="rgb(255,204,204)" text-rendering="geometricPrecision" shape-rendering="geometricPrecision" transform="matrix(1,0,0,1,-300,-160)" stroke="rgb(255,204,204)">
      <rect x="696.976" width="103.216" height="254.576" y="192.0991" clip-path="url(#clipPath2)" stroke="none"/>
    </g>
    <g text-rendering="geometricPrecision" stroke-miterlimit="1.45" shape-rendering="geometricPrecision" transform="matrix(1,0,0,1,-300,-160)" stroke-linecap="butt">
      <rect fill="none" x="696.976" width="103.216" height="254.576" y="192.0991" clip-path="url(#clipPath2)"/>
      <text x="744.8281" xml:space="preserve" y="323.9222" clip-path="url(#clipPath2)" font-family="sans-serif" stroke="none">X</text>
      <path fill="none" d="M559.372 175.962 L629.444 175.962 L629.444 190.962 L644.444 190.962 L644.444 227.002 L559.372 227.002 Z" clip-path="url(#clipPath2)"/>
      <path fill="none" d="M629.444 175.962 L629.444 190.962 L644.444 190.962 Z" clip-path="url(#clipPath2)" fill-rule="evenodd"/>
      <text x="565.7791" xml:space="preserve" y="198.9507" clip-path="url(#clipPath2)" font-family="sans-serif" stroke="none">A's Key Data</text>
      <text x="565.7791" xml:space="preserve" y="213.0836" clip-path="url(#clipPath2)" font-family="sans-serif" stroke="none">DH Data</text>
    </g>
    <g fill="rgb(255,204,204)" text-rendering="geometricPrecision" shape-rendering="geometricPrecision" transform="matrix(1,0,0,1,-300,-160)" stroke="rgb(255,204,204)">
      <path d="M852.724 175.962 L922.796 175.962 L922.796 190.962 L937.796 190.962 L937.796 227.002 L852.724 227.002 Z" stroke="none" clip-path="url(#clipPath2)"/>
      <path fill="white" d="M922.796 175.962 L922.796 190.962 L937.796 190.962 Z" clip-path="url(#clipPath2)" fill-rule="evenodd" stroke="none"/>
    </g>
    <g text-rendering="geometricPrecision" stroke-miterlimit="1.45" shape-rendering="geometricPrecision" transform="matrix(1,0,0,1,-300,-160)" stroke-linecap="butt">
      <path fill="none" d="M852.724 175.962 L922.796 175.962 L922.796 190.962 L937.796 190.962 L937.796 227.002 L852.724 227.002 Z" clip-path="url(#clipPath2)"/>
      <path fill="none" d="M922.796 175.962 L922.796 190.962 L937.796 190.962 Z" clip-path="url(#clipPath2)" fill-rule="evenodd"/>
      <text x="859.5149" xml:space="preserve" y="198.9507" clip-path="url(#clipPath2)" font-family="sans-serif" stroke="none">X's Key Data</text>
      <text x="859.5149" xml:space="preserve" y="213.0836" clip-path="url(#clipPath2)" font-family="sans-serif" stroke="none">DH Data</text>
    </g>
    <g fill="rgb(255,204,204)" text-rendering="geometricPrecision" shape-rendering="geometricPrecision" transform="matrix(1,0,0,1,-300,-160)" stroke="rgb(255,204,204)">
      <path d="M559.372 272.1 L629.444 272.1 L629.444 287.1 L644.444 287.1 L644.444 323.14 L559.372 323.14 Z" stroke="none" clip-path="url(#clipPath2)"/>
      <path fill="white" d="M629.444 272.1 L629.444 287.1 L644.444 287.1 Z" clip-path="url(#clipPath2)" fill-rule="evenodd" stroke="none"/>
    </g>
    <g text-rendering="geometricPrecision" stroke-miterlimit="1.45" shape-rendering="geometricPrecision" transform="matrix(1,0,0,1,-300,-160)" stroke-linecap="butt">
      <path fill="none" d="M559.372 272.1 L629.444 272.1 L629.444 287.1 L644.444 287.1 L644.444 323.14 L559.372 323.14 Z" clip-path="url(#clipPath2)"/>
      <path fill="none" d="M629.444 272.1 L629.444 287.1 L644.444 287.1 Z" clip-path="url(#clipPath2)" fill-rule="evenodd"/>
      <text x="566.1629" xml:space="preserve" y="295.0887" clip-path="url(#clipPath2)" font-family="sans-serif" stroke="none">X's Key Data</text>
      <text x="566.1629" xml:space="preserve" y="309.2216" clip-path="url(#clipPath2)" font-family="sans-serif" stroke="none">DH Data</text>
    </g>
    <g fill="silver" text-rendering="geometricPrecision" shape-rendering="geometricPrecision" transform="matrix(1,0,0,1,-300,-160)" stroke="silver">
      <path d="M849.442 272.9679 L919.514 272.9679 L919.514 287.9679 L934.514 287.9679 L934.514 324.0079 L849.442 324.0079 Z" stroke="none" clip-path="url(#clipPath2)"/>
      <path fill="white" d="M919.514 272.9679 L919.514 287.9679 L934.514 287.9679 Z" clip-path="url(#clipPath2)" fill-rule="evenodd" stroke="none"/>
    </g>
    <g text-rendering="geometricPrecision" stroke-miterlimit="1.45" shape-rendering="geometricPrecision" transform="matrix(1,0,0,1,-300,-160)" stroke-linecap="butt">
      <path fill="none" d="M849.442 272.9679 L919.514 272.9679 L919.514 287.9679 L934.514 287.9679 L934.514 324.0079 L849.442 324.0079 Z" clip-path="url(#clipPath2)"/>
      <path fill="none" d="M919.514 272.9679 L919.514 287.9679 L934.514 287.9679 Z" clip-path="url(#clipPath2)" fill-rule="evenodd"/>
      <text x="856.5376" xml:space="preserve" y="295.9567" clip-path="url(#clipPath2)" font-family="sans-serif" stroke="none">B's Key Data</text>
      <text x="856.5376" xml:space="preserve" y="310.0895" clip-path="url(#clipPath2)" font-family="sans-serif" stroke="none">DH Data</text>
    </g>
    <g fill="rgb(204,204,204)" text-rendering="geometricPrecision" shape-rendering="geometricPrecision" transform="matrix(1,0,0,1,-300,-160)" stroke="rgb(204,204,204)">
      <rect x="990.328" width="103.216" height="254.576" y="192.0991" clip-path="url(#clipPath2)" stroke="none"/>
    </g>
    <g text-rendering="geometricPrecision" stroke-miterlimit="1.45" shape-rendering="geometricPrecision" transform="matrix(1,0,0,1,-300,-160)" stroke-linecap="butt">
      <rect fill="none" x="990.328" width="103.216" height="254.576" y="192.0991" clip-path="url(#clipPath2)"/>
      <text x="1038.4849" xml:space="preserve" y="323.9222" clip-path="url(#clipPath2)" font-family="sans-serif" stroke="none">B</text>
      <path fill="none" d="M403.6497 225.6877 L367.7 225.6877 L367.7 272.7748 L395.6487 272.7748" clip-path="url(#clipPath2)"/>
      <path d="M403.6487 272.7748 L391.6487 267.7748 L394.6487 272.7748 L391.6487 277.7748 Z" clip-path="url(#clipPath2)" stroke="none"/>
      <text x="317.9992" xml:space="preserve" y="243.3413" clip-path="url(#clipPath2)" font-family="sans-serif" stroke="none">DH 수행</text>
      <path fill="none" d="M520.8563 415.66 L682.9734 415.66" stroke-width="7" clip-path="url(#clipPath2)" stroke="rgb(255,153,0)"/>
      <path fill="rgb(255,153,0)" d="M506.8563 415.66 L527.8563 424.41 L522.6063 415.66 L527.8563 406.91 Z" stroke-width="7" clip-path="url(#clipPath2)" stroke="none"/>
      <path fill="rgb(255,153,0)" d="M696.9734 415.66 L675.9734 406.91 L681.2234 415.66 L675.9734 424.41 Z" stroke-width="7" clip-path="url(#clipPath2)" stroke="none"/>
      <text x="552.3602" y="441.1952" clip-path="url(#clipPath2)" fill="rgb(255,153,0)" font-family="sans-serif" stroke="none" xml:space="preserve">Secure Channer 생성</text>
      <path fill="none" d="M506.8742 236.9679 L688.9638 236.9679" clip-path="url(#clipPath2)"/>
      <path d="M696.9638 236.9679 L684.9638 231.9679 L687.9638 236.9679 L684.9638 241.9679 Z" clip-path="url(#clipPath2)" stroke="none"/>
      <path fill="none" d="M696.9514 263.1 L514.851 263.1" clip-path="url(#clipPath2)"/>
      <path d="M506.851 263.1 L518.851 268.1 L515.851 263.1 L518.851 258.1 Z" clip-path="url(#clipPath2)" stroke="none"/>
      <path fill="none" d="M1093.5227 232.9943 L1124.7 232.9943 L1124.7 276.0222 L1101.5486 276.0222" clip-path="url(#clipPath2)"/>
      <path d="M1093.5486 276.0222 L1105.5486 281.0222 L1102.5486 276.0222 L1105.5486 271.0222 Z" clip-path="url(#clipPath2)" stroke="none"/>
      <text x="1133.7292" xml:space="preserve" y="247.9545" clip-path="url(#clipPath2)" font-family="sans-serif" stroke="none">DH 수행</text>
      <path fill="none" d="M814.2227 415.7525 L976.2864 415.7525" stroke-width="7" clip-path="url(#clipPath2)" stroke="rgb(255,153,0)"/>
      <path fill="rgb(255,153,0)" d="M800.2227 415.7525 L821.2227 424.5025 L815.9727 415.7525 L821.2227 407.0025 Z" stroke-width="7" clip-path="url(#clipPath2)" stroke="none"/>
      <path fill="rgb(255,153,0)" d="M990.2864 415.7525 L969.2864 407.0025 L974.5364 415.7525 L969.2864 424.5025 Z" stroke-width="7" clip-path="url(#clipPath2)" stroke="none"/>
      <text x="856.6877" y="442.2876" clip-path="url(#clipPath2)" fill="rgb(255,153,0)" font-family="sans-serif" stroke="none" xml:space="preserve">Secure Channer 생성</text>
      <path fill="none" d="M800.1774 236.3918 L982.356 236.3918" clip-path="url(#clipPath2)"/>
      <path d="M990.356 236.3918 L978.356 231.3918 L981.356 236.3918 L978.356 241.3918 Z" clip-path="url(#clipPath2)" stroke="none"/>
      <path fill="none" d="M990.3176 263.9679 L808.223 263.9679" clip-path="url(#clipPath2)"/>
      <path d="M800.223 263.9679 L812.223 268.9679 L809.223 263.9679 L812.223 258.9679 Z" clip-path="url(#clipPath2)" stroke="none"/>
    </g>
  </g>
</svg>
