<?xml version="1.0" encoding="us-ascii" standalone="no"?><svg xmlns="http://www.w3.org/2000/svg" xmlns:xlink="http://www.w3.org/1999/xlink" contentStyleType="text/css" height="103px" preserveAspectRatio="none" style="width:432px;height:103px;background:#FFFFFF;" version="1.1" viewBox="0 0 432 103" width="432px" zoomAndPan="magnify"><defs/><g><g id="ACTIVE"><rect fill="#F1F1F1" height="50" rx="12.5" ry="12.5" style="stroke:#181818;stroke-width:0.5;" width="69" x="61.5" y="47.83"/><line style="stroke:#181818;stroke-width:0.5;" x1="61.5" x2="130.5" y1="77.0595" y2="77.0595"/><text fill="#000000" font-family="sans-serif" font-size="14" lengthAdjust="spacing" textLength="49" x="71.5" y="68.9833">ACTIVE</text></g><g id="INACTIVE"><rect fill="#F1F1F1" height="50" rx="12.5" ry="12.5" style="stroke:#181818;stroke-width:0.5;" width="81" x="165.5" y="47.83"/><line style="stroke:#181818;stroke-width:0.5;" x1="165.5" x2="246.5" y1="77.0595" y2="77.0595"/><text fill="#000000" font-family="sans-serif" font-size="14" lengthAdjust="spacing" textLength="61" x="175.5" y="68.9833">INACTIVE</text></g><g id="REVOKED"><rect fill="#F1F1F1" height="50" rx="12.5" ry="12.5" style="stroke:#181818;stroke-width:0.5;" width="87" x="281.5" y="47.83"/><line style="stroke:#181818;stroke-width:0.5;" x1="281.5" x2="368.5" y1="77.0595" y2="77.0595"/><text fill="#000000" font-family="sans-serif" font-size="14" lengthAdjust="spacing" textLength="67" x="291.5" y="68.9833">REVOKED</text></g><ellipse cx="16" cy="72.83" fill="#222222" rx="10" ry="10" style="stroke:#222222;stroke-width:1.0;"/><ellipse cx="415" cy="72.83" fill="none" rx="11" ry="11" style="stroke:#222222;stroke-width:1.0;"/><ellipse cx="415" cy="72.83" fill="#222222" rx="6" ry="6" style="stroke:#222222;stroke-width:1.0;"/><!--link *start* to ACTIVE--><g id="link_*start*_ACTIVE"><path d="M26,72.83 C37.76,72.83 43.52,72.83 55.27,72.83 " fill="none" id="*start*-to-ACTIVE" style="stroke:#181818;stroke-width:1.0;"/><polygon fill="#181818" points="61.27,72.83,52.27,68.83,56.27,72.83,52.27,76.83,61.27,72.83" style="stroke:#181818;stroke-width:1.0;"/></g><!--link ACTIVE to INACTIVE--><g id="link_ACTIVE_INACTIVE"><path d="M130.8,89.05 C142.36,91.94 148.0039,93.4076 159.5639,91.3376 " fill="none" id="ACTIVE-to-INACTIVE" style="stroke:#181818;stroke-width:1.0;"/><polygon fill="#181818" points="165.47,90.28,155.9059,87.929,160.5483,91.1613,157.316,95.8037,165.47,90.28" style="stroke:#181818;stroke-width:1.0;"/></g><!--link INACTIVE to ACTIVE--><g id="link_INACTIVE_ACTIVE"><path d="M165.47,55.38 C153.91,53.31 148.1809,52.2648 136.6209,55.1548 " fill="none" id="INACTIVE-to-ACTIVE" style="stroke:#181818;stroke-width:1.0;"/><polygon fill="#181818" points="130.8,56.61,140.5014,58.3077,135.6507,55.3973,138.5611,50.5466,130.8,56.61" style="stroke:#181818;stroke-width:1.0;"/></g><!--link ACTIVE to REVOKED--><g id="link_ACTIVE_REVOKED"><path d="M119.55,47.6 C131.97,36.15 148.21,23.85 165.5,17.83 C199.5,6 212.17,7 246.5,17.83 C265.39,23.79 279.0161,32.3154 293.1761,43.7754 " fill="none" id="ACTIVE-to-REVOKED" style="stroke:#181818;stroke-width:1.0;"/><polygon fill="#181818" points="297.84,47.55,293.3605,38.7788,293.9534,44.4045,288.3277,44.9974,297.84,47.55" style="stroke:#181818;stroke-width:1.0;"/></g><!--link INACTIVE to REVOKED--><g id="link_INACTIVE_REVOKED"><path d="M246.91,72.83 C258.4,72.83 263.89,72.83 275.38,72.83 " fill="none" id="INACTIVE-to-REVOKED" style="stroke:#181818;stroke-width:1.0;"/><polygon fill="#181818" points="281.38,72.83,272.38,68.83,276.38,72.83,272.38,76.83,281.38,72.83" style="stroke:#181818;stroke-width:1.0;"/></g><!--link REVOKED to *end*--><g id="link_REVOKED_*end*"><path d="M368.59,72.83 C380.32,72.83 386.04,72.83 397.76,72.83 " fill="none" id="REVOKED-to-*end*" style="stroke:#181818;stroke-width:1.0;"/><polygon fill="#181818" points="403.76,72.83,394.76,68.83,398.76,72.83,394.76,76.83,403.76,72.83" style="stroke:#181818;stroke-width:1.0;"/></g><!--SRC=[Aov9B4bLS7GEyGnpvIe6SppzKBX1hc7-tgukN5pHMh4AkdOmjH0A901NZn22wO598Ub35e8fWz8W8Q0b0000]--></g></svg>