<?xml version="1.0" encoding="UTF-8"?><svg xmlns="http://www.w3.org/2000/svg" xmlns:xlink="http://www.w3.org/1999/xlink" fill-opacity="1" color-rendering="auto" color-interpolation="auto" text-rendering="auto" stroke="black" stroke-linecap="square" width="527" stroke-miterlimit="10" shape-rendering="auto" stroke-opacity="1" fill="black" stroke-dasharray="none" font-weight="normal" stroke-width="1" height="344" font-family="'Dialog'" font-style="normal" stroke-linejoin="miter" font-size="12px" stroke-dashoffset="0" image-rendering="auto">
  <!--Generated by ySVG 2.6-->
  <defs id="genericDefs"/>
  <g>
    <defs id="defs1">
      <clipPath clipPathUnits="userSpaceOnUse" id="clipPath1">
        <path d="M0 0 L527 0 L527 344 L0 344 L0 0 Z"/>
      </clipPath>
      <clipPath clipPathUnits="userSpaceOnUse" id="clipPath2">
        <path d="M502 130 L1029 130 L1029 474 L502 474 L502 130 Z"/>
      </clipPath>
    </defs>
    <g fill="white" text-rendering="geometricPrecision" shape-rendering="geometricPrecision" transform="translate(-502,-130)" stroke="white">
      <rect x="502" width="527" height="344" y="130" clip-path="url(#clipPath2)" stroke="none"/>
    </g>
    <g text-rendering="geometricPrecision" stroke-miterlimit="1.45" shape-rendering="geometricPrecision" transform="matrix(1,0,0,1,-502,-130)" stroke-linecap="butt">
      <rect fill="none" x="517" width="496" height="54.576" y="145.848" clip-path="url(#clipPath2)"/>
      <text x="733.9805" xml:space="preserve" y="177.6712" clip-path="url(#clipPath2)" font-family="sans-serif" stroke="none">Blockchain</text>
      <path fill="none" d="M931.632 255.78 L955.704 255.78 L955.704 270.78 L970.704 270.78 L970.704 306.82 L931.632 306.82 Z" clip-path="url(#clipPath2)"/>
      <path fill="none" d="M955.704 255.78 L955.704 270.78 L970.704 270.78 Z" clip-path="url(#clipPath2)" fill-rule="evenodd"/>
      <text x="918.152" xml:space="preserve" y="243.0232" clip-path="url(#clipPath2)" font-family="sans-serif" stroke="none">A's DID Doc 조회</text>
    </g>
    <g fill="rgb(204,204,204)" text-rendering="geometricPrecision" shape-rendering="geometricPrecision" transform="matrix(1,0,0,1,-502,-130)" stroke="rgb(204,204,204)">
      <rect x="842.424" width="103.216" height="54.576" y="362.176" clip-path="url(#clipPath2)" stroke="none"/>
    </g>
    <g text-rendering="geometricPrecision" stroke-miterlimit="1.45" shape-rendering="geometricPrecision" transform="matrix(1,0,0,1,-502,-130)" stroke-linecap="butt">
      <rect fill="none" x="842.424" width="103.216" height="54.576" y="362.176" clip-path="url(#clipPath2)"/>
      <text x="890.5808" xml:space="preserve" y="393.9991" clip-path="url(#clipPath2)" font-family="sans-serif" stroke="none">B</text>
      <rect fill="none" x="547.72" width="103.216" height="54.576" y="362.176" clip-path="url(#clipPath2)"/>
      <text x="595.1884" xml:space="preserve" y="393.9991" clip-path="url(#clipPath2)" font-family="sans-serif" stroke="none">A</text>
      <path fill="none" d="M694.28 312.824 L782.496 312.824 L782.496 327.824 L797.496 327.824 L797.496 382.824 L694.28 382.824 Z" clip-path="url(#clipPath2)"/>
      <path fill="none" d="M782.496 312.824 L782.496 327.824 L797.496 327.824 Z" clip-path="url(#clipPath2)" fill-rule="evenodd"/>
      <text x="717.2913" xml:space="preserve" y="331.1599" clip-path="url(#clipPath2)" font-family="sans-serif" stroke="none">Data</text>
      <text x="717.2913" xml:space="preserve" y="345.2928" clip-path="url(#clipPath2)" font-family="sans-serif" stroke="none">Proof:</text>
      <text x="717.2913" xml:space="preserve" y="359.4256" clip-path="url(#clipPath2)" font-family="sans-serif" stroke="none">   A's KID</text>
      <text x="717.2913" xml:space="preserve" y="373.5584" clip-path="url(#clipPath2)" font-family="sans-serif" stroke="none">   A's Sign</text>
      <path fill="none" d="M885.5928 416.7814 L887.498 420.466 L890.3448 423.9998 L893.7349 426.8099 L897.5434 428.87 L901.6458 430.1537 L905.9172 430.6349 L910.2332 430.2871 L914.469 429.0843 L918.5 427 L922.0338 424.1531 L922.6224 423.4431 L922.6691 423.3546" clip-path="url(#clipPath2)" stroke="blue"/>
      <path fill="blue" d="M927.0284 416.6467 L916.297 423.984 L922.1242 424.1931 L924.6819 429.4332 Z" clip-path="url(#clipPath2)" stroke="none"/>
      <text x="873.3202" y="453.5352" clip-path="url(#clipPath2)" fill="blue" font-family="sans-serif" stroke="none" xml:space="preserve">A's Sign 검증</text>
      <path fill="none" d="M894.032 354.176 L894.032 208.4561" clip-path="url(#clipPath2)"/>
      <path d="M894.032 362.176 L899.032 350.176 L894.032 353.176 L889.032 350.176 Z" clip-path="url(#clipPath2)" stroke="none"/>
      <path d="M894.032 200.4561 L889.032 212.4561 L894.032 209.4561 L899.032 212.4561 Z" clip-path="url(#clipPath2)" stroke="none"/>
      <path fill="none" d="M650.936 389.464 L834.424 389.464" clip-path="url(#clipPath2)"/>
      <path d="M842.424 389.464 L830.424 384.464 L833.424 389.464 L830.424 394.464 Z" clip-path="url(#clipPath2)" stroke="none"/>
    </g>
  </g>
</svg>
