<?xml version="1.0" encoding="us-ascii" standalone="no"?><svg xmlns="http://www.w3.org/2000/svg" xmlns:xlink="http://www.w3.org/1999/xlink" contentStyleType="text/css" height="105px" preserveAspectRatio="none" style="width:467px;height:105px;background:#FFFFFF;" version="1.1" viewBox="0 0 467 105" width="467px" zoomAndPan="magnify"><defs/><g><g id="ACTIVE"><rect fill="#F1F1F1" height="50.6211" rx="12.5" ry="12.5" style="stroke:#181818;stroke-width:0.5;" width="87" x="60.5" y="49.29"/><line style="stroke:#181818;stroke-width:0.5;" x1="60.5" x2="147.5" y1="75.7783" y2="75.7783"/><text fill="#000000" font-family="sans-serif" font-size="14" lengthAdjust="spacing" textLength="50" x="79" y="67.8252">ACTIVE</text><text fill="#000000" font-family="sans-serif" font-size="12" lengthAdjust="spacing" textLength="67" x="65.5" y="92.3798">ACTIVATED</text></g><g id="INACTIVE"><rect fill="#F1F1F1" height="50.6211" rx="12.5" ry="12.5" style="stroke:#181818;stroke-width:0.5;" width="99" x="182.5" y="49.29"/><line style="stroke:#181818;stroke-width:0.5;" x1="182.5" x2="281.5" y1="75.7783" y2="75.7783"/><text fill="#000000" font-family="sans-serif" font-size="14" lengthAdjust="spacing" textLength="64" x="200" y="67.8252">INACTIVE</text><text fill="#000000" font-family="sans-serif" font-size="12" lengthAdjust="spacing" textLength="79" x="187.5" y="92.3798">INACTIVATED</text></g><g id="REMOVED"><rect fill="#F1F1F1" height="50.6211" rx="12.5" ry="12.5" style="stroke:#181818;stroke-width:0.5;" width="87" x="316.5" y="49.29"/><line style="stroke:#181818;stroke-width:0.5;" x1="316.5" x2="403.5" y1="75.7783" y2="75.7783"/><text fill="#000000" font-family="sans-serif" font-size="14" lengthAdjust="spacing" textLength="67" x="326.5" y="67.8252">REMOVED</text><text fill="#000000" font-family="sans-serif" font-size="12" lengthAdjust="spacing" textLength="58" x="321.5" y="92.3798">REMOVED</text></g><ellipse cx="16" cy="74.6" fill="#222222" rx="10" ry="10" style="stroke:#222222;stroke-width:1.0;"/><ellipse cx="450" cy="74.6" fill="none" rx="11" ry="11" style="stroke:#222222;stroke-width:1.0;"/><ellipse cx="450" cy="74.6" fill="#222222" rx="6" ry="6" style="stroke:#222222;stroke-width:1.0;"/><!--link *start* to ACTIVE--><g id="link_*start*_ACTIVE"><path d="M26.31,74.6 C37.64,74.6 42.97,74.6 54.3,74.6 " fill="none" id="*start*-to-ACTIVE" style="stroke:#181818;stroke-width:1.0;"/><polygon fill="#181818" points="60.3,74.6,51.3,70.6,55.3,74.6,51.3,78.6,60.3,74.6" style="stroke:#181818;stroke-width:1.0;"/></g><!--link ACTIVE to INACTIVE--><g id="link_ACTIVE_INACTIVE"><path d="M147.5,91.63 C159.05,93.83 164.6613,94.9529 176.2113,93.4329 " fill="none" id="ACTIVE-to-INACTIVE" style="stroke:#181818;stroke-width:1.0;"/><polygon fill="#181818" points="182.16,92.65,172.715,89.8585,177.2027,93.3024,173.7588,97.7901,182.16,92.65" style="stroke:#181818;stroke-width:1.0;"/></g><!--link INACTIVE to ACTIVE--><g id="link_INACTIVE_ACTIVE"><path d="M182.16,56.55 C170.61,55.03 164.945,54.2523 153.395,56.4423 " fill="none" id="INACTIVE-to-ACTIVE" style="stroke:#181818;stroke-width:1.0;"/><polygon fill="#181818" points="147.5,57.56,157.0876,59.8134,152.4125,56.6285,155.5973,51.9534,147.5,57.56" style="stroke:#181818;stroke-width:1.0;"/></g><!--link ACTIVE to REMOVED--><g id="link_ACTIVE_REMOVED"><path d="M131.49,48.89 C145.6,37.45 163.75,25.23 182.5,19.29 C224.44,6 239.56,6 281.5,19.29 C300.25,25.23 313.7394,33.6713 327.8494,45.1113 " fill="none" id="ACTIVE-to-REMOVED" style="stroke:#181818;stroke-width:1.0;"/><polygon fill="#181818" points="332.51,48.89,328.0382,40.1149,328.6261,45.7411,322.9999,46.329,332.51,48.89" style="stroke:#181818;stroke-width:1.0;"/></g><!--link INACTIVE to REMOVED--><g id="link_INACTIVE_REMOVED"><path d="M281.5,74.6 C293.05,74.6 298.6,74.6 310.15,74.6 " fill="none" id="INACTIVE-to-REMOVED" style="stroke:#181818;stroke-width:1.0;"/><polygon fill="#181818" points="316.15,74.6,307.15,70.6,311.15,74.6,307.15,78.6,316.15,74.6" style="stroke:#181818;stroke-width:1.0;"/></g><!--link REMOVED to *end*--><g id="link_REMOVED_*end*"><path d="M403.95,74.6 C415.58,74.6 421.21,74.6 432.85,74.6 " fill="none" id="REMOVED-to-*end*" style="stroke:#181818;stroke-width:1.0;"/><polygon fill="#181818" points="438.85,74.6,429.85,70.6,433.85,74.6,429.85,78.6,438.85,74.6" style="stroke:#181818;stroke-width:1.0;"/></g><!--SRC=[Aov9B4bLS7GEyGnpjOBGZY6kBbp5O75FFvWCb8Ka5-Jgwn_cwc85Ot1nHMl5AkZQGGtZWb0W0PWfN306LbKmOv0LmSIWD4W8Q0aN0000]--></g></svg>