<?xml version="1.0" encoding="us-ascii" standalone="no"?><svg xmlns="http://www.w3.org/2000/svg" xmlns:xlink="http://www.w3.org/1999/xlink" contentStyleType="text/css" height="657px" preserveAspectRatio="none" style="width:594px;height:657px;background:#FFFFFF;" version="1.1" viewBox="0 0 594 657" width="594px" zoomAndPan="magnify"><defs/><g><rect fill="none" height="434.6367" style="stroke:#000000;stroke-width:1.5;" width="577" x="10" y="112.1094"/><line style="stroke:#181818;stroke-width:0.5;stroke-dasharray:5.0,5.0;" x1="63" x2="63" y1="36.4883" y2="622.3672"/><line style="stroke:#181818;stroke-width:0.5;stroke-dasharray:5.0,5.0;" x1="331" x2="331" y1="36.4883" y2="622.3672"/><rect fill="#E2E2F0" height="30.4883" rx="2.5" ry="2.5" style="stroke:#181818;stroke-width:0.5;" width="86" x="20" y="5"/><text fill="#000000" font-family="sans-serif" font-size="14" lengthAdjust="spacing" textLength="72" x="27" y="25.5352">Client App</text><rect fill="#E2E2F0" height="30.4883" rx="2.5" ry="2.5" style="stroke:#181818;stroke-width:0.5;" width="86" x="20" y="621.3672"/><text fill="#000000" font-family="sans-serif" font-size="14" lengthAdjust="spacing" textLength="72" x="27" y="641.9023">Client App</text><rect fill="#E2E2F0" height="30.4883" rx="2.5" ry="2.5" style="stroke:#181818;stroke-width:0.5;" width="88" x="287" y="5"/><text fill="#000000" font-family="sans-serif" font-size="14" lengthAdjust="spacing" textLength="74" x="294" y="25.5352">TAS Server</text><rect fill="#E2E2F0" height="30.4883" rx="2.5" ry="2.5" style="stroke:#181818;stroke-width:0.5;" width="88" x="287" y="621.3672"/><text fill="#000000" font-family="sans-serif" font-size="14" lengthAdjust="spacing" textLength="74" x="294" y="641.9023">TAS Server</text><line style="stroke:#181818;stroke-width:1.0;" x1="329" x2="319" y1="67.7988" y2="63.7988"/><line style="stroke:#181818;stroke-width:1.0;" x1="329" x2="319" y1="67.7988" y2="71.7988"/><line style="stroke:#181818;stroke-width:1.0;" x1="63" x2="330" y1="67.7988" y2="67.7988"/><text fill="#000000" font-family="sans-serif" font-size="13" lengthAdjust="spacing" textLength="176" x="70" y="63.0566">PII Registration Request (PII)</text><line style="stroke:#181818;stroke-width:1.0;" x1="64" x2="74" y1="97.1094" y2="93.1094"/><line style="stroke:#181818;stroke-width:1.0;" x1="64" x2="74" y1="97.1094" y2="101.1094"/><line style="stroke:#181818;stroke-width:1.0;stroke-dasharray:2.0,2.0;" x1="63" x2="330" y1="97.1094" y2="97.1094"/><text fill="#000000" font-family="sans-serif" font-size="13" lengthAdjust="spacing" textLength="244" x="80" y="92.3672">Response (Whether Already Registered)</text><path d="M10,112.1094 L72,112.1094 L72,119.4199 L62,129.4199 L10,129.4199 L10,112.1094 " fill="#EEEEEE" style="stroke:#000000;stroke-width:1.5;"/><rect fill="none" height="434.6367" style="stroke:#000000;stroke-width:1.5;" width="577" x="10" y="112.1094"/><text fill="#000000" font-family="sans-serif" font-size="13" font-weight="bold" lengthAdjust="spacing" textLength="17" x="25" y="125.6777">alt</text><text fill="#000000" font-family="sans-serif" font-size="11" font-weight="bold" lengthAdjust="spacing" textLength="175" x="87" y="124.7441">[When using an existing wallet]</text><line style="stroke:#181818;stroke-width:1.0;" x1="329" x2="319" y1="150.7305" y2="146.7305"/><line style="stroke:#181818;stroke-width:1.0;" x1="329" x2="319" y1="150.7305" y2="154.7305"/><line style="stroke:#181818;stroke-width:1.0;" x1="63" x2="330" y1="150.7305" y2="150.7305"/><text fill="#000000" font-family="sans-serif" font-size="13" lengthAdjust="spacing" textLength="189" x="70" y="145.9883">Request to use existing wallet</text><line style="stroke:#181818;stroke-width:1.0;" x1="331" x2="373" y1="180.041" y2="180.041"/><line style="stroke:#181818;stroke-width:1.0;" x1="373" x2="373" y1="180.041" y2="193.041"/><line style="stroke:#181818;stroke-width:1.0;" x1="332" x2="373" y1="193.041" y2="193.041"/><polygon fill="#181818" points="342,189.041,332,193.041,342,197.041,338,193.041" style="stroke:#181818;stroke-width:1.0;"/><text fill="#000000" font-family="sans-serif" font-size="13" lengthAdjust="spacing" textLength="192" x="338" y="175.2988">Update information (user, app)</text><line style="stroke:#181818;stroke-width:1.0;" x1="64" x2="74" y1="222.3516" y2="218.3516"/><line style="stroke:#181818;stroke-width:1.0;" x1="64" x2="74" y1="222.3516" y2="226.3516"/><line style="stroke:#181818;stroke-width:1.0;stroke-dasharray:2.0,2.0;" x1="63" x2="330" y1="222.3516" y2="222.3516"/><text fill="#000000" font-family="sans-serif" font-size="13" lengthAdjust="spacing" textLength="18" x="80" y="217.6094">OK</text><line style="stroke:#000000;stroke-width:1.0;stroke-dasharray:2.0,2.0;" x1="10" x2="587" y1="231.3516" y2="231.3516"/><text fill="#000000" font-family="sans-serif" font-size="11" font-weight="bold" lengthAdjust="spacing" textLength="326" x="15" y="241.9863">[When registering a new wallet (Single device per person)]</text><line style="stroke:#181818;stroke-width:1.0;" x1="329" x2="319" y1="266.6172" y2="262.6172"/><line style="stroke:#181818;stroke-width:1.0;" x1="329" x2="319" y1="266.6172" y2="270.6172"/><line style="stroke:#181818;stroke-width:1.0;" x1="63" x2="330" y1="266.6172" y2="266.6172"/><text fill="#000000" font-family="sans-serif" font-size="13" lengthAdjust="spacing" textLength="183" x="70" y="261.875">DIDDoc Registration Request</text><line style="stroke:#181818;stroke-width:1.0;" x1="331" x2="373" y1="295.9277" y2="295.9277"/><line style="stroke:#181818;stroke-width:1.0;" x1="373" x2="373" y1="295.9277" y2="308.9277"/><line style="stroke:#181818;stroke-width:1.0;" x1="332" x2="373" y1="308.9277" y2="308.9277"/><polygon fill="#181818" points="342,304.9277,332,308.9277,342,312.9277,338,308.9277" style="stroke:#181818;stroke-width:1.0;"/><text fill="#000000" font-family="sans-serif" font-size="13" lengthAdjust="spacing" textLength="201" x="338" y="291.1855">Discard existing wallet, DIDDoc</text><line style="stroke:#181818;stroke-width:1.0;" x1="331" x2="373" y1="338.2383" y2="338.2383"/><line style="stroke:#181818;stroke-width:1.0;" x1="373" x2="373" y1="338.2383" y2="351.2383"/><line style="stroke:#181818;stroke-width:1.0;" x1="332" x2="373" y1="351.2383" y2="351.2383"/><polygon fill="#181818" points="342,347.2383,332,351.2383,342,355.2383,338,351.2383" style="stroke:#181818;stroke-width:1.0;"/><text fill="#000000" font-family="sans-serif" font-size="13" lengthAdjust="spacing" textLength="237" x="338" y="333.4961">Update information (user, wallet, app)</text><line style="stroke:#181818;stroke-width:1.0;" x1="64" x2="74" y1="380.5488" y2="376.5488"/><line style="stroke:#181818;stroke-width:1.0;" x1="64" x2="74" y1="380.5488" y2="384.5488"/><line style="stroke:#181818;stroke-width:1.0;stroke-dasharray:2.0,2.0;" x1="63" x2="330" y1="380.5488" y2="380.5488"/><text fill="#000000" font-family="sans-serif" font-size="13" lengthAdjust="spacing" textLength="18" x="80" y="375.8066">OK</text><line style="stroke:#000000;stroke-width:1.0;stroke-dasharray:2.0,2.0;" x1="10" x2="587" y1="389.5488" y2="389.5488"/><text fill="#000000" font-family="sans-serif" font-size="11" font-weight="bold" lengthAdjust="spacing" textLength="344" x="15" y="400.1836">[When registering a new wallet (Multiple devices per person)]</text><line style="stroke:#181818;stroke-width:1.0;" x1="329" x2="319" y1="424.8145" y2="420.8145"/><line style="stroke:#181818;stroke-width:1.0;" x1="329" x2="319" y1="424.8145" y2="428.8145"/><line style="stroke:#181818;stroke-width:1.0;" x1="63" x2="330" y1="424.8145" y2="424.8145"/><text fill="#000000" font-family="sans-serif" font-size="13" lengthAdjust="spacing" textLength="183" x="70" y="420.0723">DIDDoc Registration Request</text><line style="stroke:#181818;stroke-width:1.0;" x1="331" x2="373" y1="454.125" y2="454.125"/><line style="stroke:#181818;stroke-width:1.0;" x1="373" x2="373" y1="454.125" y2="467.125"/><line style="stroke:#181818;stroke-width:1.0;" x1="332" x2="373" y1="467.125" y2="467.125"/><polygon fill="#181818" points="342,463.125,332,467.125,342,471.125,338,467.125" style="stroke:#181818;stroke-width:1.0;"/><text fill="#000000" font-family="sans-serif" font-size="13" lengthAdjust="spacing" textLength="198" x="338" y="449.3828">Revoke existing wallet, DIDDoc</text><line style="stroke:#181818;stroke-width:1.0;" x1="331" x2="373" y1="496.4355" y2="496.4355"/><line style="stroke:#181818;stroke-width:1.0;" x1="373" x2="373" y1="496.4355" y2="509.4355"/><line style="stroke:#181818;stroke-width:1.0;" x1="332" x2="373" y1="509.4355" y2="509.4355"/><polygon fill="#181818" points="342,505.4355,332,509.4355,342,513.4355,338,509.4355" style="stroke:#181818;stroke-width:1.0;"/><text fill="#000000" font-family="sans-serif" font-size="13" lengthAdjust="spacing" textLength="237" x="338" y="491.6934">Update information (user, wallet, app)</text><line style="stroke:#181818;stroke-width:1.0;" x1="64" x2="74" y1="538.7461" y2="534.7461"/><line style="stroke:#181818;stroke-width:1.0;" x1="64" x2="74" y1="538.7461" y2="542.7461"/><line style="stroke:#181818;stroke-width:1.0;stroke-dasharray:2.0,2.0;" x1="63" x2="330" y1="538.7461" y2="538.7461"/><text fill="#000000" font-family="sans-serif" font-size="13" lengthAdjust="spacing" textLength="18" x="80" y="534.0039">OK</text><line style="stroke:#181818;stroke-width:1.0;" x1="329" x2="319" y1="575.0566" y2="571.0566"/><line style="stroke:#181818;stroke-width:1.0;" x1="329" x2="319" y1="575.0566" y2="579.0566"/><line style="stroke:#181818;stroke-width:1.0;" x1="63" x2="330" y1="575.0566" y2="575.0566"/><text fill="#000000" font-family="sans-serif" font-size="13" lengthAdjust="spacing" textLength="126" x="70" y="570.3145">Verification Request</text><line style="stroke:#181818;stroke-width:1.0;" x1="64" x2="74" y1="604.3672" y2="600.3672"/><line style="stroke:#181818;stroke-width:1.0;" x1="64" x2="74" y1="604.3672" y2="608.3672"/><line style="stroke:#181818;stroke-width:1.0;stroke-dasharray:2.0,2.0;" x1="63" x2="330" y1="604.3672" y2="604.3672"/><text fill="#000000" font-family="sans-serif" font-size="13" lengthAdjust="spacing" textLength="18" x="80" y="599.625">OK</text><!--SRC=[lPBDReCm48JlVeeL9v2I5yWX4YeNL5MjGd_E5juaLbtRjHVIldtN59ecuLArAX8IPcPslq5u6KYtsajB8Bq76I6xCXhvM7gV2VzD9nQJVbysq63eCMH2fD1olHx45TpLDMnmfoC5ITfPFhns60boLWgHJClaJgaLYz4x6n7ofptI7WEK9g1Kx-CC3AWANc48s62XYzhkG5h0DrRJyq4QWoI0hrEGQIyvJk5iO82P_0zUIKBGTkl2ooTwpi6mI7EBe_y8VtijqF3eWIoCl0CVM3oCYo1l-9L1KDZh5i5pHxwZiyKCT5LNbMjdF-0bSQLZAuCwhxOOf_oaufJyPTMRpf3sNsNZNxRTOE-UyR_AMdN-OpzouQrkJoalaXy0]--></g></svg>