<?xml version="1.0" encoding="us-ascii" standalone="no"?><svg xmlns="http://www.w3.org/2000/svg" xmlns:xlink="http://www.w3.org/1999/xlink" contentStyleType="text/css" height="1899px" preserveAspectRatio="none" style="width:1244px;height:1899px;background:#FFFFFF;" version="1.1" viewBox="0 0 1244 1899" width="1244px" zoomAndPan="magnify"><defs/><g><text fill="#000000" font-family="sans-serif" font-size="25" font-weight="bold" lengthAdjust="spacing" textLength="140" x="548" y="39.1699">&#49436;&#48260;&#53664;&#53360; &#49373;&#49457;</text><rect fill="#FFFFFF" height="321.0371" style="stroke:#181818;stroke-width:1.0;" width="10" x="82" y="275.2832"/><rect fill="#FFFFFF" height="1725.1172" style="stroke:#181818;stroke-width:1.0;" width="10" x="361" y="113.4199"/><rect fill="#FFFFFF" height="263.416" style="stroke:#181818;stroke-width:1.0;" width="10" x="651" y="684.252"/><rect fill="#FFFFFF" height="485.832" style="stroke:#181818;stroke-width:1.0;" width="10" x="930" y="1136.5313"/><line style="stroke:#181818;stroke-width:0.5;stroke-dasharray:5.0,5.0;" x1="86.5" x2="86.5" y1="103.4199" y2="1847.5371"/><line style="stroke:#181818;stroke-width:0.5;stroke-dasharray:5.0,5.0;" x1="366" x2="366" y1="103.4199" y2="1847.5371"/><line style="stroke:#181818;stroke-width:0.5;stroke-dasharray:5.0,5.0;" x1="655.5" x2="655.5" y1="103.4199" y2="1847.5371"/><line style="stroke:#181818;stroke-width:0.5;stroke-dasharray:5.0,5.0;" x1="934.5" x2="934.5" y1="103.4199" y2="1847.5371"/><rect fill="#E2E2F0" height="46.9766" rx="2.5" ry="2.5" style="stroke:#181818;stroke-width:0.5;" width="69" x="52.5" y="55.4434"/><text fill="#000000" font-family="sans-serif" font-size="14" font-style="italic" lengthAdjust="spacing" textLength="55" x="59.5" y="75.9785">&#171;Wallet&#187;</text><text fill="#000000" font-family="sans-serif" font-size="14" font-weight="bold" lengthAdjust="spacing" textLength="24" x="75" y="92.4668">&#50900;&#47131;</text><rect fill="#E2E2F0" height="46.9766" rx="2.5" ry="2.5" style="stroke:#181818;stroke-width:0.5;" width="69" x="52.5" y="1846.5371"/><text fill="#000000" font-family="sans-serif" font-size="14" font-style="italic" lengthAdjust="spacing" textLength="55" x="59.5" y="1867.0723">&#171;Wallet&#187;</text><text fill="#000000" font-family="sans-serif" font-size="14" font-weight="bold" lengthAdjust="spacing" textLength="24" x="75" y="1883.5605">&#50900;&#47131;</text><rect fill="#E2E2F0" height="46.9766" rx="2.5" ry="2.5" style="stroke:#181818;stroke-width:0.5;" width="56" x="338" y="55.4434"/><text fill="#000000" font-family="sans-serif" font-size="14" font-style="italic" lengthAdjust="spacing" textLength="42" x="345" y="75.9785">&#171;App&#187;</text><text fill="#000000" font-family="sans-serif" font-size="14" font-weight="bold" lengthAdjust="spacing" textLength="36" x="348" y="92.4668">&#51064;&#44032;&#50545;</text><rect fill="#E2E2F0" height="46.9766" rx="2.5" ry="2.5" style="stroke:#181818;stroke-width:0.5;" width="56" x="338" y="1846.5371"/><text fill="#000000" font-family="sans-serif" font-size="14" font-style="italic" lengthAdjust="spacing" textLength="42" x="345" y="1867.0723">&#171;App&#187;</text><text fill="#000000" font-family="sans-serif" font-size="14" font-weight="bold" lengthAdjust="spacing" textLength="36" x="348" y="1883.5605">&#51064;&#44032;&#50545;</text><rect fill="#E2E2F0" height="46.9766" rx="2.5" ry="2.5" style="stroke:#181818;stroke-width:0.5;" width="91" x="610.5" y="55.4434"/><text fill="#000000" font-family="sans-serif" font-size="14" font-style="italic" lengthAdjust="spacing" textLength="57" x="627.5" y="75.9785">&#171;Server&#187;</text><text fill="#000000" font-family="sans-serif" font-size="14" font-weight="bold" lengthAdjust="spacing" textLength="77" x="617.5" y="92.4668">&#51064;&#44032;&#50545; &#49436;&#48708;&#49828;</text><rect fill="#E2E2F0" height="46.9766" rx="2.5" ry="2.5" style="stroke:#181818;stroke-width:0.5;" width="91" x="610.5" y="1846.5371"/><text fill="#000000" font-family="sans-serif" font-size="14" font-style="italic" lengthAdjust="spacing" textLength="57" x="627.5" y="1867.0723">&#171;Server&#187;</text><text fill="#000000" font-family="sans-serif" font-size="14" font-weight="bold" lengthAdjust="spacing" textLength="77" x="617.5" y="1883.5605">&#51064;&#44032;&#50545; &#49436;&#48708;&#49828;</text><rect fill="#E2E2F0" height="46.9766" rx="2.5" ry="2.5" style="stroke:#181818;stroke-width:0.5;" width="71" x="899.5" y="55.4434"/><text fill="#000000" font-family="sans-serif" font-size="14" font-style="italic" lengthAdjust="spacing" textLength="57" x="906.5" y="75.9785">&#171;Server&#187;</text><text fill="#000000" font-family="sans-serif" font-size="14" font-weight="bold" lengthAdjust="spacing" textLength="20" x="925" y="92.4668">TA</text><rect fill="#E2E2F0" height="46.9766" rx="2.5" ry="2.5" style="stroke:#181818;stroke-width:0.5;" width="71" x="899.5" y="1846.5371"/><text fill="#000000" font-family="sans-serif" font-size="14" font-style="italic" lengthAdjust="spacing" textLength="57" x="906.5" y="1867.0723">&#171;Server&#187;</text><text fill="#000000" font-family="sans-serif" font-size="14" font-weight="bold" lengthAdjust="spacing" textLength="20" x="925" y="1883.5605">TA</text><rect fill="#FFFFFF" height="321.0371" style="stroke:#181818;stroke-width:1.0;" width="10" x="82" y="275.2832"/><rect fill="#FFFFFF" height="1725.1172" style="stroke:#181818;stroke-width:1.0;" width="10" x="361" y="113.4199"/><rect fill="#FFFFFF" height="263.416" style="stroke:#181818;stroke-width:1.0;" width="10" x="651" y="684.252"/><rect fill="#FFFFFF" height="485.832" style="stroke:#181818;stroke-width:1.0;" width="10" x="930" y="1136.5313"/><rect fill="#FEFFDD" height="53" style="stroke:#181818;stroke-width:0.5;" width="164" x="5" y="118.4199"/><text fill="#000000" font-family="sans-serif" font-size="13" font-weight="bold" lengthAdjust="spacing" textLength="92" x="9" y="134.9883">[Pre-defined]</text><ellipse cx="14.5" cy="145.541" fill="#000000" rx="2.5" ry="2.5" style="stroke:#000000;stroke-width:0.0;"/><text fill="#000000" font-family="sans-serif" font-size="13" lengthAdjust="spacing" textLength="126" x="21" y="150.2988">WALLET_ID = &#50900;&#47131; id</text><ellipse cx="14.5" cy="160.8516" fill="#000000" rx="2.5" ry="2.5" style="stroke:#000000;stroke-width:0.0;"/><text fill="#000000" font-family="sans-serif" font-size="13" lengthAdjust="spacing" textLength="144" x="21" y="165.6094">WALLET_DID = &#50900;&#47131; did</text><rect fill="#FEFFDD" height="53" style="stroke:#181818;stroke-width:0.5;" width="252" x="240" y="118.4199"/><text fill="#000000" font-family="sans-serif" font-size="13" font-weight="bold" lengthAdjust="spacing" textLength="92" x="244" y="134.9883">[Pre-defined]</text><ellipse cx="249.5" cy="145.541" fill="#000000" rx="2.5" ry="2.5" style="stroke:#000000;stroke-width:0.0;"/><text fill="#000000" font-family="sans-serif" font-size="13" lengthAdjust="spacing" textLength="111" x="256" y="150.2988">APP_ID = &#51064;&#44032;&#50545; id</text><ellipse cx="249.5" cy="160.8516" fill="#000000" rx="2.5" ry="2.5" style="stroke:#000000;stroke-width:0.0;"/><text fill="#000000" font-family="sans-serif" font-size="13" lengthAdjust="spacing" textLength="232" x="256" y="165.6094">sesKey, padding = TAS&#50752; ECDH&#47196; &#49373;&#49457;</text><rect fill="#FEFFDD" height="38" style="stroke:#181818;stroke-width:0.5;" width="261" x="804" y="118.4199"/><text fill="#000000" font-family="sans-serif" font-size="13" font-weight="bold" lengthAdjust="spacing" textLength="92" x="808" y="134.9883">[Pre-defined]</text><ellipse cx="813.5" cy="145.541" fill="#000000" rx="2.5" ry="2.5" style="stroke:#000000;stroke-width:0.0;"/><text fill="#000000" font-family="sans-serif" font-size="13" lengthAdjust="spacing" textLength="241" x="820" y="150.2988">sesKey, padding = &#51064;&#44032;&#50545;&#44284; ECDH&#47196; &#49373;&#49457;</text><rect fill="#EEEEEE" height="3" style="stroke:#EEEEEE;stroke-width:1.0;" width="1237" x="0" y="198.0068"/><line style="stroke:#000000;stroke-width:1.0;" x1="0" x2="1237" y1="198.0068" y2="198.0068"/><line style="stroke:#000000;stroke-width:1.0;" x1="0" x2="1237" y1="201.0068" y2="201.0068"/><rect fill="#EEEEEE" height="23.3105" style="stroke:#000000;stroke-width:2.0;" width="147" x="545" y="187.3516"/><text fill="#000000" font-family="sans-serif" font-size="13" font-weight="bold" lengthAdjust="spacing" textLength="129" x="551" y="203.9199">1. SignedWalletInfo</text><polygon fill="#32CD32" points="59,225.6621,683,225.6621,693,236.6621,683,248.6621,59,248.6621,49,236.6621,59,225.6621" style="stroke:#181818;stroke-width:0.5;"/><ellipse cx="288.5" cy="237.4727" fill="#000000" rx="2.5" ry="2.5" style="stroke:#000000;stroke-width:0.0;"/><text fill="#000000" font-family="sans-serif" font-size="13" lengthAdjust="spacing" textLength="164" x="295" y="242.2305">walletToken = &#50900;&#47131;&#53664;&#53360; &#49373;&#49457;</text><polygon fill="#181818" points="103,271.2832,93,275.2832,103,279.2832,99,275.2832" style="stroke:#181818;stroke-width:1.0;"/><line style="stroke:#181818;stroke-width:1.0;" x1="97" x2="360" y1="275.2832" y2="275.2832"/><text fill="#000000" font-family="sans-serif" font-size="13" font-weight="bold" lengthAdjust="spacing" textLength="19" x="109" y="270.541">(1)</text><text fill="#000000" font-family="sans-serif" font-size="13" lengthAdjust="spacing" textLength="195" x="132" y="270.541">&#49436;&#47749;&#46108; &#50900;&#47131;&#51221;&#48372; &#50836;&#52397; {walletToken}</text><line style="stroke:#181818;stroke-width:1.0;" x1="92" x2="134" y1="350.5254" y2="350.5254"/><line style="stroke:#181818;stroke-width:1.0;" x1="134" x2="134" y1="350.5254" y2="363.5254"/><line style="stroke:#181818;stroke-width:1.0;" x1="93" x2="134" y1="363.5254" y2="363.5254"/><polygon fill="#181818" points="103,359.5254,93,363.5254,103,367.5254,99,363.5254" style="stroke:#181818;stroke-width:1.0;"/><text fill="#000000" font-family="sans-serif" font-size="13" font-weight="bold" lengthAdjust="spacing" textLength="19" x="99" y="322.8174">(2)</text><text fill="#000000" font-family="sans-serif" font-size="13" lengthAdjust="spacing" textLength="59" x="122" y="299.8516">&#45936;&#51060;&#53552; &#51456;&#48708;</text><ellipse cx="127.5" cy="310.4043" fill="#000000" rx="2.5" ry="2.5" style="stroke:#000000;stroke-width:0.0;"/><text fill="#000000" font-family="sans-serif" font-size="13" lengthAdjust="spacing" textLength="100" x="134" y="315.1621">id = WALLET_ID</text><ellipse cx="127.5" cy="325.7148" fill="#000000" rx="2.5" ry="2.5" style="stroke:#000000;stroke-width:0.0;"/><text fill="#000000" font-family="sans-serif" font-size="13" lengthAdjust="spacing" textLength="118" x="134" y="330.4727">did = WALLET_DID</text><ellipse cx="127.5" cy="341.0254" fill="#000000" rx="2.5" ry="2.5" style="stroke:#000000;stroke-width:0.0;"/><text fill="#000000" font-family="sans-serif" font-size="13" lengthAdjust="spacing" textLength="103" x="134" y="345.7832">wallet = {id, did}</text><line style="stroke:#181818;stroke-width:1.0;" x1="92" x2="134" y1="423.457" y2="423.457"/><line style="stroke:#181818;stroke-width:1.0;" x1="134" x2="134" y1="423.457" y2="436.457"/><line style="stroke:#181818;stroke-width:1.0;" x1="93" x2="134" y1="436.457" y2="436.457"/><polygon fill="#181818" points="103,432.457,93,436.457,103,440.457,99,436.457" style="stroke:#181818;stroke-width:1.0;"/><text fill="#000000" font-family="sans-serif" font-size="13" font-weight="bold" lengthAdjust="spacing" textLength="19" x="99" y="403.4043">(3)</text><text fill="#000000" font-family="sans-serif" font-size="13" lengthAdjust="spacing" textLength="70" x="122" y="388.0938">&#50900;&#47131;&#51221;&#48372; &#49373;&#49457;</text><ellipse cx="127.5" cy="398.6465" fill="#000000" rx="2.5" ry="2.5" style="stroke:#000000;stroke-width:0.0;"/><text fill="#000000" font-family="sans-serif" font-size="13" lengthAdjust="spacing" textLength="104" x="134" y="403.4043">nonce = &#45212;&#49688; &#49373;&#49457;</text><ellipse cx="127.5" cy="413.957" fill="#000000" rx="2.5" ry="2.5" style="stroke:#000000;stroke-width:0.0;"/><text fill="#000000" font-family="sans-serif" font-size="13" lengthAdjust="spacing" textLength="155" x="134" y="418.7148">dataset = {wallet, nonce}</text><line style="stroke:#181818;stroke-width:1.0;" x1="92" x2="134" y1="496.3887" y2="496.3887"/><line style="stroke:#181818;stroke-width:1.0;" x1="134" x2="134" y1="496.3887" y2="509.3887"/><line style="stroke:#181818;stroke-width:1.0;" x1="93" x2="134" y1="509.3887" y2="509.3887"/><polygon fill="#181818" points="103,505.3887,93,509.3887,103,513.3887,99,509.3887" style="stroke:#181818;stroke-width:1.0;"/><text fill="#000000" font-family="sans-serif" font-size="13" font-weight="bold" lengthAdjust="spacing" textLength="19" x="99" y="476.3359">(4)</text><text fill="#000000" font-family="sans-serif" font-size="13" lengthAdjust="spacing" textLength="48" x="122" y="461.0254">&#50900;&#47131; &#49436;&#47749;</text><ellipse cx="127.5" cy="471.5781" fill="#000000" rx="2.5" ry="2.5" style="stroke:#000000;stroke-width:0.0;"/><text fill="#000000" font-family="sans-serif" font-size="13" lengthAdjust="spacing" textLength="154" x="134" y="476.3359">priKey = Assertion &#44060;&#51064;&#53412;</text><ellipse cx="127.5" cy="486.8887" fill="#000000" rx="2.5" ry="2.5" style="stroke:#000000;stroke-width:0.0;"/><text fill="#000000" font-family="sans-serif" font-size="13" lengthAdjust="spacing" textLength="220" x="134" y="491.6465">proof = signAssert(dataset, priKey)</text><line style="stroke:#181818;stroke-width:1.0;" x1="92" x2="134" y1="554.0098" y2="554.0098"/><line style="stroke:#181818;stroke-width:1.0;" x1="134" x2="134" y1="554.0098" y2="567.0098"/><line style="stroke:#181818;stroke-width:1.0;" x1="93" x2="134" y1="567.0098" y2="567.0098"/><polygon fill="#181818" points="103,563.0098,93,567.0098,103,571.0098,99,567.0098" style="stroke:#181818;stroke-width:1.0;"/><text fill="#000000" font-family="sans-serif" font-size="13" font-weight="bold" lengthAdjust="spacing" textLength="19" x="99" y="541.6123">(5)</text><text fill="#000000" font-family="sans-serif" font-size="13" lengthAdjust="spacing" textLength="134" x="122" y="533.957">(SignedWalletInfo)swi</text><text fill="#000000" font-family="sans-serif" font-size="13" lengthAdjust="spacing" textLength="147" x="126" y="549.2676">= {wallet, nonce, proof}</text><polygon fill="#181818" points="349,592.3203,359,596.3203,349,600.3203,353,596.3203" style="stroke:#181818;stroke-width:1.0;"/><line style="stroke:#181818;stroke-width:1.0;stroke-dasharray:2.0,2.0;" x1="87" x2="355" y1="596.3203" y2="596.3203"/><text fill="#000000" font-family="sans-serif" font-size="13" font-weight="bold" lengthAdjust="spacing" textLength="19" x="94" y="591.5781">(6)</text><text fill="#000000" font-family="sans-serif" font-size="13" lengthAdjust="spacing" textLength="29" x="117" y="591.5781">{swi}</text><rect fill="#EEEEEE" height="3" style="stroke:#EEEEEE;stroke-width:1.0;" width="1237" x="0" y="624.9756"/><line style="stroke:#000000;stroke-width:1.0;" x1="0" x2="1237" y1="624.9756" y2="624.9756"/><line style="stroke:#000000;stroke-width:1.0;" x1="0" x2="1237" y1="627.9756" y2="627.9756"/><rect fill="#EEEEEE" height="23.3105" style="stroke:#000000;stroke-width:2.0;" width="145" x="546" y="614.3203"/><text fill="#000000" font-family="sans-serif" font-size="13" font-weight="bold" lengthAdjust="spacing" textLength="127" x="552" y="630.8887">2. AttestedAppInfo</text><polygon fill="#181818" points="639,680.252,649,684.252,639,688.252,643,684.252" style="stroke:#181818;stroke-width:1.0;"/><line style="stroke:#181818;stroke-width:1.0;" x1="371" x2="645" y1="684.252" y2="684.252"/><text fill="#000000" font-family="sans-serif" font-size="13" font-weight="bold" lengthAdjust="spacing" textLength="19" x="378" y="671.8545">(7)</text><text fill="#000000" font-family="sans-serif" font-size="13" lengthAdjust="spacing" textLength="96" x="401" y="664.1992">&#49436;&#47749;&#46108; &#50545;&#51221;&#48372; &#50836;&#52397;</text><text fill="#000000" font-family="sans-serif" font-size="13" lengthAdjust="spacing" textLength="52" x="401" y="679.5098">{APP_ID}</text><line style="stroke:#181818;stroke-width:1.0;" x1="661" x2="703" y1="774.8047" y2="774.8047"/><line style="stroke:#181818;stroke-width:1.0;" x1="703" x2="703" y1="774.8047" y2="787.8047"/><line style="stroke:#181818;stroke-width:1.0;" x1="662" x2="703" y1="787.8047" y2="787.8047"/><polygon fill="#181818" points="672,783.8047,662,787.8047,672,791.8047,668,787.8047" style="stroke:#181818;stroke-width:1.0;"/><text fill="#000000" font-family="sans-serif" font-size="13" font-weight="bold" lengthAdjust="spacing" textLength="19" x="668" y="739.4414">(8)</text><text fill="#000000" font-family="sans-serif" font-size="13" lengthAdjust="spacing" textLength="59" x="691" y="708.8203">&#45936;&#51060;&#53552; &#51456;&#48708;</text><ellipse cx="696.5" cy="719.373" fill="#000000" rx="2.5" ry="2.5" style="stroke:#000000;stroke-width:0.0;"/><text fill="#000000" font-family="sans-serif" font-size="13" lengthAdjust="spacing" textLength="97" x="703" y="724.1309">appId = APP_ID</text><ellipse cx="696.5" cy="734.6836" fill="#000000" rx="2.5" ry="2.5" style="stroke:#000000;stroke-width:0.0;"/><text fill="#000000" font-family="sans-serif" font-size="13" lengthAdjust="spacing" textLength="129" x="703" y="739.4414">provider = &#49324;&#50629;&#51088; &#51221;&#48372;</text><ellipse cx="696.5" cy="749.9941" fill="#000000" rx="2.5" ry="2.5" style="stroke:#000000;stroke-width:0.0;"/><text fill="#000000" font-family="sans-serif" font-size="13" lengthAdjust="spacing" textLength="104" x="703" y="754.752">nonce = &#45212;&#49688; &#49373;&#49457;</text><ellipse cx="696.5" cy="765.3047" fill="#000000" rx="2.5" ry="2.5" style="stroke:#000000;stroke-width:0.0;"/><text fill="#000000" font-family="sans-serif" font-size="13" lengthAdjust="spacing" textLength="213" x="703" y="770.0625">dataset = {appId, provider, nonce}</text><line style="stroke:#181818;stroke-width:1.0;" x1="661" x2="703" y1="847.7363" y2="847.7363"/><line style="stroke:#181818;stroke-width:1.0;" x1="703" x2="703" y1="847.7363" y2="860.7363"/><line style="stroke:#181818;stroke-width:1.0;" x1="662" x2="703" y1="860.7363" y2="860.7363"/><polygon fill="#181818" points="672,856.7363,662,860.7363,672,864.7363,668,860.7363" style="stroke:#181818;stroke-width:1.0;"/><text fill="#000000" font-family="sans-serif" font-size="13" font-weight="bold" lengthAdjust="spacing" textLength="19" x="668" y="827.6836">(9)</text><text fill="#000000" font-family="sans-serif" font-size="13" lengthAdjust="spacing" textLength="96" x="691" y="812.373">&#51064;&#44032;&#50545; &#49324;&#50629;&#51088; &#49436;&#47749;</text><ellipse cx="696.5" cy="822.9258" fill="#000000" rx="2.5" ry="2.5" style="stroke:#000000;stroke-width:0.0;"/><text fill="#000000" font-family="sans-serif" font-size="13" lengthAdjust="spacing" textLength="164" x="703" y="827.6836">priKey = Attestation &#44060;&#51064;&#53412;</text><ellipse cx="696.5" cy="838.2363" fill="#000000" rx="2.5" ry="2.5" style="stroke:#000000;stroke-width:0.0;"/><text fill="#000000" font-family="sans-serif" font-size="13" lengthAdjust="spacing" textLength="220" x="703" y="842.9941">proof = signAssert(dataset, priKey)</text><line style="stroke:#181818;stroke-width:1.0;" x1="661" x2="703" y1="905.3574" y2="905.3574"/><line style="stroke:#181818;stroke-width:1.0;" x1="703" x2="703" y1="905.3574" y2="918.3574"/><line style="stroke:#181818;stroke-width:1.0;" x1="662" x2="703" y1="918.3574" y2="918.3574"/><polygon fill="#181818" points="672,914.3574,662,918.3574,672,922.3574,668,918.3574" style="stroke:#181818;stroke-width:1.0;"/><text fill="#000000" font-family="sans-serif" font-size="13" font-weight="bold" lengthAdjust="spacing" textLength="28" x="668" y="892.96">(10)</text><text fill="#000000" font-family="sans-serif" font-size="13" lengthAdjust="spacing" textLength="129" x="700" y="885.3047">(AttestedAppInfo)aai</text><text fill="#000000" font-family="sans-serif" font-size="13" lengthAdjust="spacing" textLength="205" x="704" y="900.6152">= {appId, provider, nonce, proof}</text><polygon fill="#181818" points="382,943.668,372,947.668,382,951.668,378,947.668" style="stroke:#181818;stroke-width:1.0;"/><line style="stroke:#181818;stroke-width:1.0;stroke-dasharray:2.0,2.0;" x1="376" x2="655" y1="947.668" y2="947.668"/><text fill="#000000" font-family="sans-serif" font-size="13" font-weight="bold" lengthAdjust="spacing" textLength="28" x="388" y="942.9258">(11)</text><text fill="#000000" font-family="sans-serif" font-size="13" lengthAdjust="spacing" textLength="26" x="420" y="942.9258">{aai}</text><rect fill="#EEEEEE" height="3" style="stroke:#EEEEEE;stroke-width:1.0;" width="1237" x="0" y="976.3232"/><line style="stroke:#000000;stroke-width:1.0;" x1="0" x2="1237" y1="976.3232" y2="976.3232"/><line style="stroke:#000000;stroke-width:1.0;" x1="0" x2="1237" y1="979.3232" y2="979.3232"/><rect fill="#EEEEEE" height="23.3105" style="stroke:#000000;stroke-width:2.0;" width="151" x="543" y="965.668"/><text fill="#000000" font-family="sans-serif" font-size="13" font-weight="bold" lengthAdjust="spacing" textLength="133" x="549" y="982.2363">3. ServerTokenSeed</text><line style="stroke:#181818;stroke-width:1.0;" x1="371" x2="413" y1="1050.9102" y2="1050.9102"/><line style="stroke:#181818;stroke-width:1.0;" x1="413" x2="413" y1="1050.9102" y2="1063.9102"/><line style="stroke:#181818;stroke-width:1.0;" x1="372" x2="413" y1="1063.9102" y2="1063.9102"/><polygon fill="#181818" points="382,1059.9102,372,1063.9102,382,1067.9102,378,1063.9102" style="stroke:#181818;stroke-width:1.0;"/><text fill="#000000" font-family="sans-serif" font-size="13" font-weight="bold" lengthAdjust="spacing" textLength="28" x="378" y="1030.8574">(12)</text><text fill="#000000" font-family="sans-serif" font-size="13" lengthAdjust="spacing" textLength="74" x="410" y="1015.5469">&#53664;&#53360; &#49884;&#46300; &#49373;&#49457;</text><ellipse cx="415.5" cy="1026.0996" fill="#000000" rx="2.5" ry="2.5" style="stroke:#000000;stroke-width:0.0;"/><text fill="#000000" font-family="sans-serif" font-size="13" lengthAdjust="spacing" textLength="143" x="422" y="1030.8574">(ServerTokenSeed)seed</text><text fill="#000000" font-family="sans-serif" font-size="13" lengthAdjust="spacing" textLength="128" x="414" y="1046.168">= {purpose, swi, aai}</text><rect fill="#EEEEEE" height="3" style="stroke:#EEEEEE;stroke-width:1.0;" width="1237" x="0" y="1092.5654"/><line style="stroke:#000000;stroke-width:1.0;" x1="0" x2="1237" y1="1092.5654" y2="1092.5654"/><line style="stroke:#000000;stroke-width:1.0;" x1="0" x2="1237" y1="1095.5654" y2="1095.5654"/><rect fill="#EEEEEE" height="23.3105" style="stroke:#000000;stroke-width:2.0;" width="150" x="543.5" y="1081.9102"/><text fill="#000000" font-family="sans-serif" font-size="13" font-weight="bold" lengthAdjust="spacing" textLength="132" x="549.5" y="1098.4785">4. ServerTokenData</text><polygon fill="#181818" points="918,1132.5313,928,1136.5313,918,1140.5313,922,1136.5313" style="stroke:#181818;stroke-width:1.0;"/><line style="stroke:#181818;stroke-width:1.0;" x1="371" x2="924" y1="1136.5313" y2="1136.5313"/><text fill="#000000" font-family="sans-serif" font-size="13" font-weight="bold" lengthAdjust="spacing" textLength="28" x="378" y="1131.7891">(13)</text><text fill="#000000" font-family="sans-serif" font-size="13" lengthAdjust="spacing" textLength="133" x="410" y="1131.7891">&#49436;&#48260;&#53664;&#53360; &#49373;&#49457;&#50836;&#52397; {seed}</text><line style="stroke:#181818;stroke-width:1.0;" x1="940" x2="982" y1="1211.7734" y2="1211.7734"/><line style="stroke:#181818;stroke-width:1.0;" x1="982" x2="982" y1="1211.7734" y2="1224.7734"/><line style="stroke:#181818;stroke-width:1.0;" x1="941" x2="982" y1="1224.7734" y2="1224.7734"/><polygon fill="#181818" points="951,1220.7734,941,1224.7734,951,1228.7734,947,1224.7734" style="stroke:#181818;stroke-width:1.0;"/><text fill="#000000" font-family="sans-serif" font-size="13" font-weight="bold" lengthAdjust="spacing" textLength="28" x="947" y="1184.0654">(14)</text><text fill="#000000" font-family="sans-serif" font-size="13" lengthAdjust="spacing" textLength="48" x="979" y="1161.0996">&#49436;&#47749; &#44160;&#51613;</text><ellipse cx="984.5" cy="1171.6523" fill="#000000" rx="2.5" ry="2.5" style="stroke:#000000;stroke-width:0.0;"/><text fill="#000000" font-family="sans-serif" font-size="13" lengthAdjust="spacing" textLength="118" x="991" y="1176.4102">seed.swi.proof &#44160;&#51613;</text><ellipse cx="984.5" cy="1186.9629" fill="#000000" rx="2.5" ry="2.5" style="stroke:#000000;stroke-width:0.0;"/><text fill="#000000" font-family="sans-serif" font-size="13" lengthAdjust="spacing" textLength="169" x="991" y="1191.7207">(&#50741;&#49496;)&#49324;&#50629;&#51088; &#44032;&#51077;&#51613;&#47749;&#49436; VC &#44160;&#51613;</text><ellipse cx="984.5" cy="1202.2734" fill="#000000" rx="2.5" ry="2.5" style="stroke:#000000;stroke-width:0.0;"/><text fill="#000000" font-family="sans-serif" font-size="13" lengthAdjust="spacing" textLength="115" x="991" y="1207.0313">seed.aai.proof &#44160;&#51613;</text><line style="stroke:#181818;stroke-width:1.0;" x1="940" x2="982" y1="1361.2578" y2="1361.2578"/><line style="stroke:#181818;stroke-width:1.0;" x1="982" x2="982" y1="1361.2578" y2="1374.2578"/><line style="stroke:#181818;stroke-width:1.0;" x1="941" x2="982" y1="1374.2578" y2="1374.2578"/><polygon fill="#181818" points="951,1370.2578,941,1374.2578,951,1378.2578,947,1374.2578" style="stroke:#181818;stroke-width:1.0;"/><text fill="#000000" font-family="sans-serif" font-size="13" font-weight="bold" lengthAdjust="spacing" textLength="28" x="947" y="1302.9287">(15)</text><text fill="#000000" font-family="sans-serif" font-size="13" lengthAdjust="spacing" textLength="156" x="979" y="1249.3418">(ServerTokenData)std = {</text><text fill="#000000" font-family="sans-serif" font-size="13" lengthAdjust="spacing" textLength="157" x="995" y="1264.6523">purpose = seed.purpose,</text><text fill="#000000" font-family="sans-serif" font-size="13" lengthAdjust="spacing" textLength="182" x="995" y="1279.9629">walletId = seed.swi.wallet.id,</text><text fill="#000000" font-family="sans-serif" font-size="13" lengthAdjust="spacing" textLength="163" x="995" y="1295.2734">caAppId = seed.aai.appId,</text><text fill="#000000" font-family="sans-serif" font-size="13" lengthAdjust="spacing" textLength="126" x="995" y="1310.584">validUntil = &#50976;&#54952;&#51068;&#49884;,</text><text fill="#000000" font-family="sans-serif" font-size="13" lengthAdjust="spacing" textLength="133" x="995" y="1325.8945">provider = &#49324;&#50629;&#51088; &#51221;&#48372;,</text><text fill="#000000" font-family="sans-serif" font-size="13" lengthAdjust="spacing" textLength="104" x="995" y="1341.2051">nonce = &#45212;&#49688; &#49373;&#49457;</text><text fill="#000000" font-family="sans-serif" font-size="13" lengthAdjust="spacing" textLength="4" x="987" y="1356.5156">}</text><line style="stroke:#181818;stroke-width:1.0;" x1="940" x2="982" y1="1434.1895" y2="1434.1895"/><line style="stroke:#181818;stroke-width:1.0;" x1="982" x2="982" y1="1434.1895" y2="1447.1895"/><line style="stroke:#181818;stroke-width:1.0;" x1="941" x2="982" y1="1447.1895" y2="1447.1895"/><polygon fill="#181818" points="951,1443.1895,941,1447.1895,951,1451.1895,947,1447.1895" style="stroke:#181818;stroke-width:1.0;"/><text fill="#000000" font-family="sans-serif" font-size="13" font-weight="bold" lengthAdjust="spacing" textLength="28" x="947" y="1414.1367">(16)</text><text fill="#000000" font-family="sans-serif" font-size="13" lengthAdjust="spacing" textLength="59" x="979" y="1398.8262">&#49324;&#50629;&#51088; &#49436;&#47749;</text><ellipse cx="984.5" cy="1409.3789" fill="#000000" rx="2.5" ry="2.5" style="stroke:#000000;stroke-width:0.0;"/><text fill="#000000" font-family="sans-serif" font-size="13" lengthAdjust="spacing" textLength="164" x="991" y="1414.1367">priKey = Attestation &#44060;&#51064;&#53412;</text><ellipse cx="984.5" cy="1424.6895" fill="#000000" rx="2.5" ry="2.5" style="stroke:#000000;stroke-width:0.0;"/><text fill="#000000" font-family="sans-serif" font-size="13" lengthAdjust="spacing" textLength="194" x="991" y="1429.4473">proof = signAssert(std, priKey)</text><line style="stroke:#181818;stroke-width:1.0;" x1="940" x2="982" y1="1491.8105" y2="1491.8105"/><line style="stroke:#181818;stroke-width:1.0;" x1="982" x2="982" y1="1491.8105" y2="1504.8105"/><line style="stroke:#181818;stroke-width:1.0;" x1="941" x2="982" y1="1504.8105" y2="1504.8105"/><polygon fill="#181818" points="951,1500.8105,941,1504.8105,951,1508.8105,947,1504.8105" style="stroke:#181818;stroke-width:1.0;"/><text fill="#000000" font-family="sans-serif" font-size="13" font-weight="bold" lengthAdjust="spacing" textLength="28" x="947" y="1479.4131">(17)</text><text fill="#000000" font-family="sans-serif" font-size="13" lengthAdjust="spacing" textLength="70" x="979" y="1471.7578">&#49436;&#48260;&#53664;&#53360; &#49373;&#49457;</text><ellipse cx="984.5" cy="1482.3105" fill="#000000" rx="2.5" ry="2.5" style="stroke:#000000;stroke-width:0.0;"/><text fill="#000000" font-family="sans-serif" font-size="13" lengthAdjust="spacing" textLength="169" x="991" y="1487.0684">serverToken = sha256(std)</text><line style="stroke:#181818;stroke-width:1.0;" x1="940" x2="982" y1="1580.0527" y2="1580.0527"/><line style="stroke:#181818;stroke-width:1.0;" x1="982" x2="982" y1="1580.0527" y2="1593.0527"/><line style="stroke:#181818;stroke-width:1.0;" x1="941" x2="982" y1="1593.0527" y2="1593.0527"/><polygon fill="#181818" points="951,1589.0527,941,1593.0527,951,1597.0527,947,1593.0527" style="stroke:#181818;stroke-width:1.0;"/><text fill="#000000" font-family="sans-serif" font-size="13" font-weight="bold" lengthAdjust="spacing" textLength="28" x="947" y="1552.3447">(18)</text><text fill="#000000" font-family="sans-serif" font-size="13" lengthAdjust="spacing" textLength="81" x="979" y="1529.3789">&#51025;&#45813;&#51221;&#48372; &#50516;&#54840;&#54868;</text><ellipse cx="984.5" cy="1539.9316" fill="#000000" rx="2.5" ry="2.5" style="stroke:#000000;stroke-width:0.0;"/><text fill="#000000" font-family="sans-serif" font-size="13" lengthAdjust="spacing" textLength="67" x="991" y="1544.6895">iv = IV &#49373;&#49457;</text><ellipse cx="984.5" cy="1555.2422" fill="#000000" rx="2.5" ry="2.5" style="stroke:#000000;stroke-width:0.0;"/><text fill="#000000" font-family="sans-serif" font-size="13" lengthAdjust="spacing" textLength="222" x="991" y="1560">tmp = enc(std, sesKey, iv, padding)</text><ellipse cx="984.5" cy="1570.5527" fill="#000000" rx="2.5" ry="2.5" style="stroke:#000000;stroke-width:0.0;"/><text fill="#000000" font-family="sans-serif" font-size="13" lengthAdjust="spacing" textLength="155" x="991" y="1575.3105">encStd = multibase(tmp)</text><polygon fill="#181818" points="382,1618.3633,372,1622.3633,382,1626.3633,378,1622.3633" style="stroke:#181818;stroke-width:1.0;"/><line style="stroke:#181818;stroke-width:1.0;stroke-dasharray:2.0,2.0;" x1="376" x2="934" y1="1622.3633" y2="1622.3633"/><text fill="#000000" font-family="sans-serif" font-size="13" font-weight="bold" lengthAdjust="spacing" textLength="28" x="388" y="1617.6211">(19)</text><text fill="#000000" font-family="sans-serif" font-size="13" lengthAdjust="spacing" textLength="69" x="420" y="1617.6211">{iv, encStd}</text><rect fill="#EEEEEE" height="3" style="stroke:#EEEEEE;stroke-width:1.0;" width="1237" x="0" y="1651.0186"/><line style="stroke:#000000;stroke-width:1.0;" x1="0" x2="1237" y1="1651.0186" y2="1651.0186"/><line style="stroke:#000000;stroke-width:1.0;" x1="0" x2="1237" y1="1654.0186" y2="1654.0186"/><rect fill="#EEEEEE" height="23.3105" style="stroke:#000000;stroke-width:2.0;" width="119" x="559" y="1640.3633"/><text fill="#000000" font-family="sans-serif" font-size="13" font-weight="bold" lengthAdjust="spacing" textLength="101" x="565" y="1656.9316">5. serverToken</text><line style="stroke:#181818;stroke-width:1.0;" x1="371" x2="413" y1="1725.6055" y2="1725.6055"/><line style="stroke:#181818;stroke-width:1.0;" x1="413" x2="413" y1="1725.6055" y2="1738.6055"/><line style="stroke:#181818;stroke-width:1.0;" x1="372" x2="413" y1="1738.6055" y2="1738.6055"/><polygon fill="#181818" points="382,1734.6055,372,1738.6055,382,1742.6055,378,1738.6055" style="stroke:#181818;stroke-width:1.0;"/><text fill="#000000" font-family="sans-serif" font-size="13" font-weight="bold" lengthAdjust="spacing" textLength="28" x="378" y="1705.5527">(20)</text><text fill="#000000" font-family="sans-serif" font-size="13" lengthAdjust="spacing" textLength="81" x="410" y="1690.2422">&#51025;&#45813;&#51221;&#48372; &#48373;&#54840;&#54868;</text><ellipse cx="415.5" cy="1700.7949" fill="#000000" rx="2.5" ry="2.5" style="stroke:#000000;stroke-width:0.0;"/><text fill="#000000" font-family="sans-serif" font-size="13" lengthAdjust="spacing" textLength="137" x="422" y="1705.5527">tmp = debase(encStd)</text><ellipse cx="415.5" cy="1716.1055" fill="#000000" rx="2.5" ry="2.5" style="stroke:#000000;stroke-width:0.0;"/><text fill="#000000" font-family="sans-serif" font-size="13" lengthAdjust="spacing" textLength="222" x="422" y="1720.8633">std = dec(tmp, sesKey, iv, padding)</text><line style="stroke:#181818;stroke-width:1.0;" x1="371" x2="413" y1="1783.2266" y2="1783.2266"/><line style="stroke:#181818;stroke-width:1.0;" x1="413" x2="413" y1="1783.2266" y2="1796.2266"/><line style="stroke:#181818;stroke-width:1.0;" x1="372" x2="413" y1="1796.2266" y2="1796.2266"/><polygon fill="#181818" points="382,1792.2266,372,1796.2266,382,1800.2266,378,1796.2266" style="stroke:#181818;stroke-width:1.0;"/><text fill="#000000" font-family="sans-serif" font-size="13" font-weight="bold" lengthAdjust="spacing" textLength="28" x="378" y="1770.8291">(21)</text><text fill="#000000" font-family="sans-serif" font-size="13" lengthAdjust="spacing" textLength="70" x="410" y="1763.1738">&#49436;&#48260;&#53664;&#53360; &#49373;&#49457;</text><ellipse cx="415.5" cy="1773.7266" fill="#000000" rx="2.5" ry="2.5" style="stroke:#000000;stroke-width:0.0;"/><text fill="#000000" font-family="sans-serif" font-size="13" lengthAdjust="spacing" textLength="169" x="422" y="1778.4844">serverToken = sha256(std)</text><polygon fill="#32CD32" points="346,1809.2266,953,1809.2266,963,1820.2266,953,1832.2266,346,1832.2266,336,1820.2266,346,1809.2266" style="stroke:#181818;stroke-width:0.5;"/><text fill="#000000" font-family="sans-serif" font-size="13" lengthAdjust="spacing" textLength="183" x="558.25" y="1825.7949">TAS&#50640; &#51217;&#44540; &#49884; serverToken &#51228;&#52636;</text><!--SRC=[jLPTQnj757tk_eh1UT5kDZ9ruZuOII2Yq9hwmI0dUMXA6Ml7yL1vTzaToQJ2u3XoAGs5XDh4ILP11LDAQS4VSJx0lqWx-W-zCxDQxOUafBHPC1ZDkVVSUy-viyieQnBjiv9FVo1B2uiLtWt2i-xmn_xmuGdYZtgyUrgQ5uSLZTWMOXAkuHPpxDRMEl7GN6czKhYYb-RNAtEQvcAFqGPriStGd67mbmTX_wLXp27iestSHANINTni4bQfvA2zTuEJNNvu6g4R6C1Lrvs1HABOzrt-yt4Suq9GdNXjukNZrgeHZC5V0gRX1gDjp0Z4QvfdE_2V0qUYO0t1OnZVh7hacaKsg4siRmr3_OhkLbTMRgrzjrn3PQGwHTHAdzMIXnQSYY5A2cqU9QY0UHPJTNKreebxZvbyudzD7fZ8nPP5xVi0MglM-VDTTEjcxQlmjo1ISHep36CcTJvzNCFW_78wYLOkey-Bg4xlGpeb-hAzuQ1oMTCsKpCsfMvNLkWM-T8Zn8w8jsNCclCziUCHfdmfoJOL6RZbMaKwxEhL9UcBF_V39q4Knlk7uVbhn5ySyBE_KIUHUKUIYJWLleJ2Nqvux_Mm2op7k-0kb7ZksGRC7QePAvyvjPB7jVoveWP8XrgcGESBI9SiEyrciHsxGI19k1VmduwcW2mCqYeknMggk6cCqTIoQLoFWlwGfUhx1FR9iT7W900F3FUEyrZ7sG2e3w8hU26gmepow3doGjOXkhzDqubpBPYAQKVp26jvDkf0o8vqt48HLHaZFYCMt1snuPGzXCqozZWyJNdZdjrHgwQ6909Kt8TzWO5EQ1-jQduoRMg1ty79Ut_nP_lyrHCKKVz7SIMn6JEaL4usaBWsnnLyG78vIlp_Y9wifP0HISTuWkQJEyk93x5A_EjmtSXBNQvsdH0h9VuI6bqVZuFmro0pMT5A8HEk-o97gYQtvRcE3qM0vKmKKzz8KTUW_mIrUD-CV9Tvjuwk946a91DW5JCoAXgSxVBVUzcvYv0YL55K0am65VZH1Ty_qiUI2m-ysWSeP8RywCxDMVcXmLJ-N8c5JDkwpyGMT39gmXDDJZX5P8u7cGEgLPVB5FUeVYkAIpE7R-1gj7jnoP5pSj0sRbBhjireKonYq1- - -8FtBi4F4x0pLdO2-YEs5g492d_gLGGvqckOzLV6a4hvM5AHR1ClB7uX4ar8q7iQFhuONQ671yEZTyFd1xbNPXlIBD-PSfMnBHUEYTrGjOw-DsWx_kRGio40hakRRRMQZAx3NLE0B7fy8uXOXL7RkLXCzvIw558zXESNunx6rLb4agYSUhmXiWQBD0JxvCgJFFzssCdFf0OsvU0pNqdYI- -PSENJmTjBSQ-bql5-mDy4uy-aVm00]--></g></svg>