<?xml version="1.0" encoding="us-ascii" standalone="no"?><svg xmlns="http://www.w3.org/2000/svg" xmlns:xlink="http://www.w3.org/1999/xlink" contentStyleType="text/css" height="388px" preserveAspectRatio="none" style="width:375px;height:388px;background:#FFFFFF;" version="1.1" viewBox="0 0 375 388" width="375px" zoomAndPan="magnify"><defs/><g><ellipse cx="96" cy="20" fill="#222222" rx="10" ry="10" style="stroke:#222222;stroke-width:1.0;"/><path d="M195,45.3853 L195,64.2412 L175,68.2412 L195,72.2412 L195,91.0972 A0,0 0 0 0 195,91.0972 L359,91.0972 A0,0 0 0 0 359,91.0972 L359,55.3853 L349,45.3853 L195,45.3853 A0,0 0 0 0 195,45.3853 " fill="#FEFFDD" style="stroke:#181818;stroke-width:0.5;"/><path d="M349,45.3853 L349,55.3853 L359,55.3853 L349,45.3853 " fill="#FEFFDD" style="stroke:#181818;stroke-width:0.5;"/><text fill="#000000" font-family="sans-serif" font-size="13" lengthAdjust="spacing" textLength="93" x="201" y="65.3848">[&#51064;&#44032;&#50545; &#8594; TAS]</text><ellipse cx="206.5" cy="78.5972" fill="#000000" rx="2.5" ry="2.5" style="stroke:#000000;stroke-width:0.0;"/><text fill="#000000" font-family="sans-serif" font-size="13" lengthAdjust="spacing" textLength="131" x="213" y="83.2407">Propose Register User</text><rect fill="#F1F1F1" height="36.4824" rx="12.5" ry="12.5" style="stroke:#181818;stroke-width:0.5;" width="158" x="17" y="50"/><text fill="#000000" font-family="sans-serif" font-size="12" font-weight="bold" lengthAdjust="spacing" textLength="18" x="27" y="73.8457">B1.</text><text fill="#000000" font-family="sans-serif" font-size="12" lengthAdjust="spacing" textLength="117" x="48" y="73.8457">&#49324;&#50857;&#51088; &#46321;&#47197; &#49884;&#51089; &#50836;&#52397;</text><path d="M154,106.4824 L154,125.3384 L134,129.3384 L154,133.3384 L154,152.1943 A0,0 0 0 0 154,152.1943 L275,152.1943 A0,0 0 0 0 275,152.1943 L275,116.4824 L265,106.4824 L154,106.4824 A0,0 0 0 0 154,106.4824 " fill="#FEFFDD" style="stroke:#181818;stroke-width:0.5;"/><path d="M265,106.4824 L265,116.4824 L275,116.4824 L265,106.4824 " fill="#FEFFDD" style="stroke:#181818;stroke-width:0.5;"/><text fill="#000000" font-family="sans-serif" font-size="13" lengthAdjust="spacing" textLength="93" x="160" y="126.4819">[&#51064;&#44032;&#50545; &#8594; TAS]</text><ellipse cx="165.5" cy="139.6943" fill="#000000" rx="2.5" ry="2.5" style="stroke:#000000;stroke-width:0.0;"/><text fill="#000000" font-family="sans-serif" font-size="13" lengthAdjust="spacing" textLength="88" x="172" y="144.3379">Request ECDH</text><rect fill="#F1F1F1" height="36.4824" rx="12.5" ry="12.5" style="stroke:#181818;stroke-width:0.5;" width="76" x="58" y="111.0972"/><text fill="#000000" font-family="sans-serif" font-size="12" font-weight="bold" lengthAdjust="spacing" textLength="18" x="68" y="134.9429">B2.</text><text fill="#000000" font-family="sans-serif" font-size="12" lengthAdjust="spacing" textLength="35" x="89" y="134.9429">ECDH</text><path d="M201,167.5796 L201,186.4355 L181,190.4355 L201,194.4355 L201,213.2915 A0,0 0 0 0 201,213.2915 L363,213.2915 A0,0 0 0 0 363,213.2915 L363,177.5796 L353,167.5796 L201,167.5796 A0,0 0 0 0 201,167.5796 " fill="#FEFFDD" style="stroke:#181818;stroke-width:0.5;"/><path d="M353,167.5796 L353,177.5796 L363,177.5796 L353,167.5796 " fill="#FEFFDD" style="stroke:#181818;stroke-width:0.5;"/><text fill="#000000" font-family="sans-serif" font-size="13" lengthAdjust="spacing" textLength="93" x="207" y="187.5791">[&#51064;&#44032;&#50545; &#8594; TAS]</text><ellipse cx="212.5" cy="200.7915" fill="#000000" rx="2.5" ry="2.5" style="stroke:#000000;stroke-width:0.0;"/><text fill="#000000" font-family="sans-serif" font-size="13" lengthAdjust="spacing" textLength="129" x="219" y="205.4351">Request Create Token</text><rect fill="#F1F1F1" height="36.4824" rx="12.5" ry="12.5" style="stroke:#181818;stroke-width:0.5;" width="170" x="11" y="172.1943"/><text fill="#000000" font-family="sans-serif" font-size="12" font-weight="bold" lengthAdjust="spacing" textLength="18" x="21" y="196.04">B3.</text><text fill="#000000" font-family="sans-serif" font-size="12" lengthAdjust="spacing" textLength="129" x="42" y="196.04">&#50900;&#47131;&#53664;&#53360;, &#49436;&#48260;&#53664;&#53360; &#49373;&#49457;</text><path d="M181.5,228.6768 L181.5,247.5327 L161.5,251.5327 L181.5,255.5327 L181.5,274.3887 A0,0 0 0 0 181.5,274.3887 L345.5,274.3887 A0,0 0 0 0 345.5,274.3887 L345.5,238.6768 L335.5,228.6768 L181.5,228.6768 A0,0 0 0 0 181.5,228.6768 " fill="#FEFFDD" style="stroke:#181818;stroke-width:0.5;"/><path d="M335.5,228.6768 L335.5,238.6768 L345.5,238.6768 L335.5,228.6768 " fill="#FEFFDD" style="stroke:#181818;stroke-width:0.5;"/><text fill="#000000" font-family="sans-serif" font-size="13" lengthAdjust="spacing" textLength="80" x="187.5" y="248.6763">[&#50900;&#47131; &#8594; TAS]</text><ellipse cx="193" cy="261.8887" fill="#000000" rx="2.5" ry="2.5" style="stroke:#000000;stroke-width:0.0;"/><text fill="#000000" font-family="sans-serif" font-size="13" lengthAdjust="spacing" textLength="131" x="199.5" y="266.5322">Request Register User</text><rect fill="#F1F1F1" height="36.4824" rx="12.5" ry="12.5" style="stroke:#181818;stroke-width:0.5;" width="131" x="30.5" y="233.2915"/><text fill="#000000" font-family="sans-serif" font-size="12" font-weight="bold" lengthAdjust="spacing" textLength="18" x="40.5" y="257.1372">B4.</text><text fill="#000000" font-family="sans-serif" font-size="12" lengthAdjust="spacing" textLength="90" x="61.5" y="257.1372">&#49324;&#50857;&#51088; &#46321;&#47197; &#50836;&#52397;</text><path d="M181.5,289.7739 L181.5,308.6299 L161.5,312.6299 L181.5,316.6299 L181.5,335.4858 A0,0 0 0 0 181.5,335.4858 L341.5,335.4858 A0,0 0 0 0 341.5,335.4858 L341.5,299.7739 L331.5,289.7739 L181.5,289.7739 A0,0 0 0 0 181.5,289.7739 " fill="#FEFFDD" style="stroke:#181818;stroke-width:0.5;"/><path d="M331.5,289.7739 L331.5,299.7739 L341.5,299.7739 L331.5,289.7739 " fill="#FEFFDD" style="stroke:#181818;stroke-width:0.5;"/><text fill="#000000" font-family="sans-serif" font-size="13" lengthAdjust="spacing" textLength="93" x="187.5" y="309.7734">[&#51064;&#44032;&#50545; &#8594; TAS]</text><ellipse cx="193" cy="322.9858" fill="#000000" rx="2.5" ry="2.5" style="stroke:#000000;stroke-width:0.0;"/><text fill="#000000" font-family="sans-serif" font-size="13" lengthAdjust="spacing" textLength="127" x="199.5" y="327.6294">Confirm Register User</text><rect fill="#F1F1F1" height="36.4824" rx="12.5" ry="12.5" style="stroke:#181818;stroke-width:0.5;" width="131" x="30.5" y="294.3887"/><text fill="#000000" font-family="sans-serif" font-size="12" font-weight="bold" lengthAdjust="spacing" textLength="18" x="40.5" y="318.2344">B5.</text><text fill="#000000" font-family="sans-serif" font-size="12" lengthAdjust="spacing" textLength="90" x="61.5" y="318.2344">&#49324;&#50857;&#51088; &#46321;&#47197; &#50756;&#47308;</text><ellipse cx="96" cy="366.4858" fill="none" rx="11" ry="11" style="stroke:#222222;stroke-width:1.0;"/><ellipse cx="96" cy="366.4858" fill="#222222" rx="6" ry="6" style="stroke:#222222;stroke-width:1.0;"/><line style="stroke:#181818;stroke-width:1.0;" x1="96" x2="96" y1="30" y2="50"/><polygon fill="#181818" points="92,40,96,50,100,40,96,44" style="stroke:#181818;stroke-width:1.0;"/><line style="stroke:#181818;stroke-width:1.0;" x1="96" x2="96" y1="86.4824" y2="111.0972"/><polygon fill="#181818" points="92,101.0972,96,111.0972,100,101.0972,96,105.0972" style="stroke:#181818;stroke-width:1.0;"/><line style="stroke:#181818;stroke-width:1.0;" x1="96" x2="96" y1="147.5796" y2="172.1943"/><polygon fill="#181818" points="92,162.1943,96,172.1943,100,162.1943,96,166.1943" style="stroke:#181818;stroke-width:1.0;"/><line style="stroke:#181818;stroke-width:1.0;" x1="96" x2="96" y1="208.6768" y2="233.2915"/><polygon fill="#181818" points="92,223.2915,96,233.2915,100,223.2915,96,227.2915" style="stroke:#181818;stroke-width:1.0;"/><line style="stroke:#181818;stroke-width:1.0;" x1="96" x2="96" y1="269.7739" y2="294.3887"/><polygon fill="#181818" points="92,284.3887,96,294.3887,100,284.3887,96,288.3887" style="stroke:#181818;stroke-width:1.0;"/><line style="stroke:#181818;stroke-width:1.0;" x1="96" x2="96" y1="330.8711" y2="355.4858"/><polygon fill="#181818" points="92,345.4858,96,355.4858,100,345.4858,96,349.4858" style="stroke:#181818;stroke-width:1.0;"/><!--SRC=[Aov9B2hXuhBIqd8orDFIKdZJjERDh9LlvarGU3rvu-k5SnNUTCzvCs-YmfjPKzviMclDbPTVagfGb9cUKSAb00JHR-RkUBMXuStKZGgFsYOfX3W6nuB5jHG2Yl8ByejJ5O9IqpEBIrAB54ABKukuKlDI5416G6mq0jdewkpYGOAvGQc5fQd59M1jQCOPWpqmUyhh1RFVjYrusxX1H-5DovpNcreWF8KtpNFVj6mamoxdejH4e9QG_EpKF3GxJR076gxG0ZiEbpNuWieKkpqpMrulxY71HyxvUMcPHRauhIekoIy00000]--></g></svg>