<?xml version="1.0" encoding="us-ascii" standalone="no"?><svg xmlns="http://www.w3.org/2000/svg" xmlns:xlink="http://www.w3.org/1999/xlink" contentStyleType="text/css" height="489px" preserveAspectRatio="none" style="width:627px;height:489px;background:#FFFFFF;" version="1.1" viewBox="0 0 627 489" width="627px" zoomAndPan="magnify"><defs/><g><rect fill="none" height="24.7236" style="stroke:none;stroke-width:1.0;" width="594.5" x="15" y="12.4551"/><ellipse cx="115" cy="52.1787" fill="#222222" rx="10" ry="10" style="stroke:#222222;stroke-width:1.0;"/><rect fill="#F1F1F1" height="36.4824" rx="12.5" ry="12.5" style="stroke:#181818;stroke-width:0.5;" width="101" x="64.5" y="82.1787"/><text fill="#000000" font-family="sans-serif" font-size="12" font-weight="bold" lengthAdjust="spacing" textLength="18" x="74.5" y="106.0244">A1.</text><text fill="#000000" font-family="sans-serif" font-size="12" lengthAdjust="spacing" textLength="60" x="95.5" y="106.0244">Claim &#51221;&#51032;</text><rect fill="#F1F1F1" height="36.4824" rx="12.5" ry="12.5" style="stroke:#181818;stroke-width:0.5;" width="175" x="27.5" y="138.6611"/><text fill="#000000" font-family="sans-serif" font-size="12" font-weight="bold" lengthAdjust="spacing" textLength="18" x="37.5" y="162.5068">A2.</text><text fill="#000000" font-family="sans-serif" font-size="12" lengthAdjust="spacing" textLength="134" x="58.5" y="162.5068">VC Schema &#51221;&#51032; &#48143; &#44172;&#49884;</text><rect fill="#F1F1F1" height="36.4824" rx="12.5" ry="12.5" style="stroke:#181818;stroke-width:0.5;" width="144" x="43" y="195.1436"/><text fill="#000000" font-family="sans-serif" font-size="12" font-weight="bold" lengthAdjust="spacing" textLength="18" x="53" y="218.9893">A3.</text><text fill="#000000" font-family="sans-serif" font-size="12" lengthAdjust="spacing" textLength="103" x="74" y="218.9893">Plan Manager &#49440;&#51221;</text><rect fill="#F1F1F1" height="36.4824" rx="12.5" ry="12.5" style="stroke:#181818;stroke-width:0.5;" width="188" x="21" y="251.626"/><text fill="#000000" font-family="sans-serif" font-size="12" font-weight="bold" lengthAdjust="spacing" textLength="18" x="31" y="275.4717">A4.</text><text fill="#000000" font-family="sans-serif" font-size="12" lengthAdjust="spacing" textLength="147" x="52" y="275.4717">(Optional) &#45824;&#54364; &#48156;&#44553;&#51088; &#49440;&#51221;</text><line style="stroke:#000000;stroke-width:1.5;" x1="15" x2="15" y1="12.4551" y2="477.2441"/><path d="M370.5,298.1084 L370.5,325.8923 L350.5,329.8923 L370.5,333.8923 L370.5,361.6763 A0,0 0 0 0 370.5,361.6763 L583.5,361.6763 A0,0 0 0 0 583.5,361.6763 L583.5,308.1084 L573.5,298.1084 L370.5,298.1084 A0,0 0 0 0 370.5,298.1084 " fill="#FEFFDD" style="stroke:#181818;stroke-width:0.5;"/><path d="M573.5,298.1084 L573.5,308.1084 L583.5,308.1084 L573.5,298.1084 " fill="#FEFFDD" style="stroke:#181818;stroke-width:0.5;"/><text fill="#000000" font-family="sans-serif" font-size="13" lengthAdjust="spacing" textLength="192" x="376.5" y="318.1079">[&#47785;&#47197; &#49324;&#50629;&#51088; &#44288;&#47532;&#51088; &#53080;&#49556; &#48143; API]</text><ellipse cx="382" cy="331.3203" fill="#000000" rx="2.5" ry="2.5" style="stroke:#000000;stroke-width:0.0;"/><text fill="#000000" font-family="sans-serif" font-size="13" lengthAdjust="spacing" textLength="138" x="388.5" y="335.9639">VC Plan &#46321;&#47197;/&#49688;&#51221;/&#49325;&#51228;</text><ellipse cx="382" cy="349.1763" fill="#000000" rx="2.5" ry="2.5" style="stroke:#000000;stroke-width:0.0;"/><text fill="#000000" font-family="sans-serif" font-size="13" lengthAdjust="spacing" textLength="104" x="388.5" y="353.8198">VC Plan &#49345;&#53468;&#48320;&#44221;</text><rect fill="#F1F1F1" height="36.4824" rx="12.5" ry="12.5" style="stroke:#181818;stroke-width:0.5;" width="112" x="238.5" y="311.6511"/><text fill="#000000" font-family="sans-serif" font-size="12" font-weight="bold" lengthAdjust="spacing" textLength="18" x="248.5" y="335.4968">B1.</text><text fill="#000000" font-family="sans-serif" font-size="12" lengthAdjust="spacing" textLength="71" x="269.5" y="335.4968">VC Plan &#46321;&#47197;</text><path d="M390,371.6763 L390,399.4602 L370,403.4602 L390,407.4602 L390,435.2441 A0,0 0 0 0 390,435.2441 L603,435.2441 A0,0 0 0 0 603,435.2441 L603,381.6763 L593,371.6763 L390,371.6763 A0,0 0 0 0 390,371.6763 " fill="#FEFFDD" style="stroke:#181818;stroke-width:0.5;"/><path d="M593,371.6763 L593,381.6763 L603,381.6763 L593,371.6763 " fill="#FEFFDD" style="stroke:#181818;stroke-width:0.5;"/><text fill="#000000" font-family="sans-serif" font-size="13" lengthAdjust="spacing" textLength="192" x="396" y="391.6758">[&#47785;&#47197; &#49324;&#50629;&#51088; &#44288;&#47532;&#51088; &#53080;&#49556; &#48143; API]</text><ellipse cx="401.5" cy="404.8882" fill="#000000" rx="2.5" ry="2.5" style="stroke:#000000;stroke-width:0.0;"/><text fill="#000000" font-family="sans-serif" font-size="13" lengthAdjust="spacing" textLength="129" x="408" y="409.5317">&#51060;&#49800;&#50612; &#46321;&#47197;/&#49688;&#51221;/&#49325;&#51228;</text><ellipse cx="401.5" cy="422.7441" fill="#000000" rx="2.5" ry="2.5" style="stroke:#000000;stroke-width:0.0;"/><text fill="#000000" font-family="sans-serif" font-size="13" lengthAdjust="spacing" textLength="95" x="408" y="427.3877">&#51060;&#49800;&#50612; &#49345;&#53468;&#48320;&#44221;</text><rect fill="#F1F1F1" height="36.4824" rx="12.5" ry="12.5" style="stroke:#181818;stroke-width:0.5;" width="151" x="219" y="385.219"/><text fill="#000000" font-family="sans-serif" font-size="12" font-weight="bold" lengthAdjust="spacing" textLength="18" x="229" y="409.0647">B2.</text><text fill="#000000" font-family="sans-serif" font-size="12" lengthAdjust="spacing" textLength="110" x="250" y="409.0647">VC Plan &#51060;&#49800;&#50612; &#46321;&#47197;</text><ellipse cx="294.5" cy="466.2441" fill="none" rx="11" ry="11" style="stroke:#222222;stroke-width:1.0;"/><ellipse cx="294.5" cy="466.2441" fill="#222222" rx="6" ry="6" style="stroke:#222222;stroke-width:1.0;"/><line style="stroke:#000000;stroke-width:1.5;" x1="213" x2="213" y1="12.4551" y2="477.2441"/><line style="stroke:#000000;stroke-width:1.5;" x1="608" x2="608" y1="12.4551" y2="477.2441"/><line style="stroke:#181818;stroke-width:1.0;" x1="115" x2="115" y1="62.1787" y2="82.1787"/><polygon fill="#181818" points="111,72.1787,115,82.1787,119,72.1787,115,76.1787" style="stroke:#181818;stroke-width:1.0;"/><line style="stroke:#181818;stroke-width:1.0;" x1="115" x2="115" y1="118.6611" y2="138.6611"/><polygon fill="#181818" points="111,128.6611,115,138.6611,119,128.6611,115,132.6611" style="stroke:#181818;stroke-width:1.0;"/><line style="stroke:#181818;stroke-width:1.0;" x1="115" x2="115" y1="175.1436" y2="195.1436"/><polygon fill="#181818" points="111,185.1436,115,195.1436,119,185.1436,115,189.1436" style="stroke:#181818;stroke-width:1.0;"/><line style="stroke:#181818;stroke-width:1.0;" x1="115" x2="115" y1="231.626" y2="251.626"/><polygon fill="#181818" points="111,241.626,115,251.626,119,241.626,115,245.626" style="stroke:#181818;stroke-width:1.0;"/><line style="stroke:#181818;stroke-width:1.0;" x1="294.5" x2="294.5" y1="348.1335" y2="385.219"/><polygon fill="#181818" points="290.5,375.219,294.5,385.219,298.5,375.219,294.5,379.219" style="stroke:#181818;stroke-width:1.0;"/><line style="stroke:#181818;stroke-width:1.0;" x1="294.5" x2="294.5" y1="421.7014" y2="455.2441"/><polygon fill="#181818" points="290.5,445.2441,294.5,455.2441,298.5,445.2441,294.5,449.2441" style="stroke:#181818;stroke-width:1.0;"/><line style="stroke:#181818;stroke-width:1.0;" x1="115" x2="115" y1="288.1084" y2="293.1084"/><line style="stroke:#181818;stroke-width:1.0;" x1="115" x2="294.5" y1="293.1084" y2="293.1084"/><line style="stroke:#181818;stroke-width:1.0;" x1="294.5" x2="294.5" y1="293.1084" y2="311.6511"/><polygon fill="#181818" points="290.5,301.6511,294.5,311.6511,298.5,301.6511,294.5,305.6511" style="stroke:#181818;stroke-width:1.0;"/><text fill="#000000" font-family="sans-serif" font-size="18" lengthAdjust="spacing" textLength="172" x="28" y="33.2236">&#48156;&#44553; &#49324;&#50629;&#51088; &#52968;&#49548;&#49884;&#50628;</text><text fill="#000000" font-family="sans-serif" font-size="18" lengthAdjust="spacing" textLength="95" x="363" y="33.2236">&#47785;&#47197; &#49324;&#50629;&#51088;</text><!--SRC=[hOuzIyDG58Rt-olEg1aihKvsgfqSYWN1HHmk6jf0UbFIEsQ8RIrL2of-D4CYSH6L2ctD84Z_KExfVp3t9b097JtZUP_pdiSHKp_-lWJiJd1yWS-tW3zlE1ZXjO_ZlaCwdDgSx6fQfRYbQL0rgT4231ynyCfgNPBheoeSdZRr5iqY4DCRYEUo9QMs9LKtAOCQPRIXsu3zC67JT4Uc6mTjRbYCcfiWHkxopeTKJJbbC774nxju2LQwZYpOAsOIweEudoL8cJ2Bws0RZIOdaCnn_XJYo1Ml4zM_y73meAmhzVqJnUSB2pZq4ea2TZynz7C8ziwNFLzykV5yGNHs1l8vKMwblsuOH7WrnAVe_oppbMizLz1wqmwtshy0]--></g></svg>