<?xml version="1.0" encoding="us-ascii" standalone="no"?><svg xmlns="http://www.w3.org/2000/svg" xmlns:xlink="http://www.w3.org/1999/xlink" contentStyleType="text/css" height="443px" preserveAspectRatio="none" style="width:473px;height:443px;background:#FFFFFF;" version="1.1" viewBox="0 0 473 443" width="473px" zoomAndPan="magnify"><defs/><g><text fill="#000000" font-family="sans-serif" font-size="14" font-weight="bold" lengthAdjust="spacing" textLength="81" x="10" y="26.1533">message-id</text><line style="stroke:#181818;stroke-width:1.5;" x1="40" x2="40" y1="53.8442" y2="53.8442"/><rect fill="#F1F1F1" height="29.2295" rx="5" ry="5" style="stroke:#181818;stroke-width:1.5;" width="76" x="40" y="39.2295"/><text fill="#000000" font-family="sans-serif" font-size="14" lengthAdjust="spacing" textLength="66" x="45" y="60.3828">yyyymmdd</text><line style="stroke:#181818;stroke-width:1.5;" x1="116" x2="136" y1="53.8442" y2="53.8442"/><rect fill="#F1F1F1" height="29.2295" rx="5" ry="5" style="stroke:#181818;stroke-width:1.5;" width="62" x="136" y="39.2295"/><text fill="#000000" font-family="sans-serif" font-size="14" lengthAdjust="spacing" textLength="52" x="141" y="60.3828">hhmmss</text><line style="stroke:#181818;stroke-width:1.5;" x1="198" x2="218" y1="53.8442" y2="53.8442"/><rect fill="#F1F1F1" height="29.2295" rx="5" ry="5" style="stroke:#181818;stroke-width:1.5;" width="95" x="218" y="39.2295"/><text fill="#000000" font-family="sans-serif" font-size="14" lengthAdjust="spacing" textLength="85" x="223" y="60.3828">micro-secfrac</text><line style="stroke:#181818;stroke-width:1.5;" x1="313" x2="333" y1="53.8442" y2="53.8442"/><rect fill="#F1F1F1" height="29.2295" rx="5" ry="5" style="stroke:#181818;stroke-width:1.5;" width="95" x="333" y="39.2295"/><text fill="#000000" font-family="sans-serif" font-size="14" lengthAdjust="spacing" textLength="85" x="338" y="60.3828">short-random</text><ellipse cx="14" cy="53.8442" fill="none" rx="4" ry="4" style="stroke:#181818;stroke-width:2.0;"/><ellipse cx="458" cy="53.8442" fill="#181818" rx="4" ry="4" style="stroke:#181818;stroke-width:1.0;"/><line style="stroke:#181818;stroke-width:1.5;" x1="18" x2="40" y1="53.8442" y2="53.8442"/><line style="stroke:#181818;stroke-width:1.5;" x1="428" x2="454" y1="53.8442" y2="53.8442"/><path d="M439,53.8442 L439,50.8442 L445,53.8442 L439,56.8442 L439,53.8442 " fill="#181818" style="stroke:#181818;stroke-width:1.5;"/><text fill="#000000" font-family="sans-serif" font-size="14" font-weight="bold" lengthAdjust="spacing" textLength="70" x="10" y="99.6123">yyyymmdd</text><line style="stroke:#181818;stroke-width:1.5;" x1="40" x2="40" y1="127.3032" y2="127.3032"/><rect fill="#F1F1F1" height="29.2295" rx="5" ry="5" style="stroke:#181818;stroke-width:1.5;" width="89" x="40" y="112.6885"/><text fill="#000000" font-family="sans-serif" font-size="14" lengthAdjust="spacing" textLength="79" x="45" y="133.8418">date-fullyear</text><line style="stroke:#181818;stroke-width:1.5;" x1="129" x2="149" y1="127.3032" y2="127.3032"/><rect fill="#F1F1F1" height="29.2295" rx="5" ry="5" style="stroke:#181818;stroke-width:1.5;" width="82" x="149" y="112.6885"/><text fill="#000000" font-family="sans-serif" font-size="14" lengthAdjust="spacing" textLength="72" x="154" y="133.8418">date-month</text><line style="stroke:#181818;stroke-width:1.5;" x1="231" x2="251" y1="127.3032" y2="127.3032"/><rect fill="#F1F1F1" height="29.2295" rx="5" ry="5" style="stroke:#181818;stroke-width:1.5;" width="77" x="251" y="112.6885"/><text fill="#000000" font-family="sans-serif" font-size="14" lengthAdjust="spacing" textLength="67" x="256" y="133.8418">date-mday</text><ellipse cx="14" cy="127.3032" fill="none" rx="4" ry="4" style="stroke:#181818;stroke-width:2.0;"/><ellipse cx="358" cy="127.3032" fill="#181818" rx="4" ry="4" style="stroke:#181818;stroke-width:1.0;"/><line style="stroke:#181818;stroke-width:1.5;" x1="18" x2="40" y1="127.3032" y2="127.3032"/><line style="stroke:#181818;stroke-width:1.5;" x1="328" x2="354" y1="127.3032" y2="127.3032"/><path d="M339,127.3032 L339,124.3032 L345,127.3032 L339,130.3032 L339,127.3032 " fill="#181818" style="stroke:#181818;stroke-width:1.5;"/><text fill="#000000" font-family="sans-serif" font-size="14" font-weight="bold" lengthAdjust="spacing" textLength="58" x="10" y="173.0713">hhmmss</text><line style="stroke:#181818;stroke-width:1.5;" x1="40" x2="40" y1="200.7622" y2="200.7622"/><rect fill="#F1F1F1" height="29.2295" rx="5" ry="5" style="stroke:#181818;stroke-width:1.5;" width="70" x="40" y="186.1475"/><text fill="#000000" font-family="sans-serif" font-size="14" lengthAdjust="spacing" textLength="60" x="45" y="207.3008">time-hour</text><line style="stroke:#181818;stroke-width:1.5;" x1="110" x2="130" y1="200.7622" y2="200.7622"/><rect fill="#F1F1F1" height="29.2295" rx="5" ry="5" style="stroke:#181818;stroke-width:1.5;" width="83" x="130" y="186.1475"/><text fill="#000000" font-family="sans-serif" font-size="14" lengthAdjust="spacing" textLength="73" x="135" y="207.3008">time-minute</text><line style="stroke:#181818;stroke-width:1.5;" x1="213" x2="233" y1="200.7622" y2="200.7622"/><rect fill="#F1F1F1" height="29.2295" rx="5" ry="5" style="stroke:#181818;stroke-width:1.5;" width="87" x="233" y="186.1475"/><text fill="#000000" font-family="sans-serif" font-size="14" lengthAdjust="spacing" textLength="77" x="238" y="207.3008">time-second</text><ellipse cx="14" cy="200.7622" fill="none" rx="4" ry="4" style="stroke:#181818;stroke-width:2.0;"/><ellipse cx="350" cy="200.7622" fill="#181818" rx="4" ry="4" style="stroke:#181818;stroke-width:1.0;"/><line style="stroke:#181818;stroke-width:1.5;" x1="18" x2="40" y1="200.7622" y2="200.7622"/><line style="stroke:#181818;stroke-width:1.5;" x1="320" x2="346" y1="200.7622" y2="200.7622"/><path d="M331,200.7622 L331,197.7622 L337,200.7622 L331,203.7622 L331,200.7622 " fill="#181818" style="stroke:#181818;stroke-width:1.5;"/><text fill="#000000" font-family="sans-serif" font-size="14" font-weight="bold" lengthAdjust="spacing" textLength="96" x="10" y="246.5303">micro-secfrac</text><path d="M48,293.2212 C48,299.2212 50,301.2212 56,301.2212 " fill="none" style="stroke:#181818;stroke-width:1.5;"/><line style="stroke:#181818;stroke-width:1.5;" x1="48" x2="48" y1="287.6064" y2="293.2212"/><path d="M48,287.6064 C48,281.6064 50,279.6064 56,279.6064 " fill="none" style="stroke:#181818;stroke-width:1.5;"/><line style="stroke:#181818;stroke-width:1.5;" x1="55" x2="101" y1="279.6064" y2="279.6064"/><path d="M80.6,279.6064 L80.6,276.6064 L74.6,279.6064 L80.6,282.6064 L80.6,279.6064 " fill="#181818" style="stroke:#181818;stroke-width:1.5;"/><path d="M108,293.2212 C108,299.2212 106,301.2212 100,301.2212 " fill="none" style="stroke:#181818;stroke-width:1.5;"/><line style="stroke:#181818;stroke-width:1.5;" x1="108" x2="108" y1="287.6064" y2="293.2212"/><path d="M100,279.6064 C106,279.6064 108,281.6064 108,287.6064 " fill="none" style="stroke:#181818;stroke-width:1.5;"/><line style="stroke:#181818;stroke-width:1.5;" x1="40" x2="55" y1="301.2212" y2="301.2212"/><line style="stroke:#181818;stroke-width:1.5;" x1="101" x2="116" y1="301.2212" y2="301.2212"/><rect fill="#F1F1F1" height="29.2295" rx="5" ry="5" style="stroke:#181818;stroke-width:1.5;" width="46" x="55" y="286.6064"/><text fill="#000000" font-family="sans-serif" font-size="14" lengthAdjust="spacing" textLength="36" x="60" y="307.7598">DIGIT</text><path d="M40,274.6064 C40,270.8564 41.25,269.6064 45,269.6064 " fill="none" style="stroke:#181818;stroke-width:0.5;"/><path d="M78,264.6064 C78,268.3564 76.75,269.6064 73,269.6064 " fill="none" style="stroke:#181818;stroke-width:0.5;"/><path d="M78,264.6064 C78,268.3564 79.25,269.6064 83,269.6064 " fill="none" style="stroke:#181818;stroke-width:0.5;"/><path d="M111,269.6064 C114.75,269.6064 116,270.8564 116,274.6064 " fill="none" style="stroke:#181818;stroke-width:0.5;"/><line style="stroke:#181818;stroke-width:0.5;" x1="45" x2="73" y1="269.6064" y2="269.6064"/><line style="stroke:#181818;stroke-width:0.5;" x1="83" x2="111" y1="269.6064" y2="269.6064"/><text fill="#000000" font-family="sans-serif" font-size="12" lengthAdjust="spacing" textLength="14" x="71" y="262.2432">6&#215;</text><ellipse cx="14" cy="301.2212" fill="none" rx="4" ry="4" style="stroke:#181818;stroke-width:2.0;"/><ellipse cx="146" cy="301.2212" fill="#181818" rx="4" ry="4" style="stroke:#181818;stroke-width:1.0;"/><line style="stroke:#181818;stroke-width:1.5;" x1="18" x2="40" y1="301.2212" y2="301.2212"/><line style="stroke:#181818;stroke-width:1.5;" x1="116" x2="142" y1="301.2212" y2="301.2212"/><path d="M127,301.2212 L127,298.2212 L133,301.2212 L127,304.2212 L127,301.2212 " fill="#181818" style="stroke:#181818;stroke-width:1.5;"/><text fill="#000000" font-family="sans-serif" font-size="14" font-weight="bold" lengthAdjust="spacing" textLength="95" x="10" y="346.9893">short-random</text><path d="M48,393.6802 C48,399.6802 50,401.6802 56,401.6802 " fill="none" style="stroke:#181818;stroke-width:1.5;"/><line style="stroke:#181818;stroke-width:1.5;" x1="48" x2="48" y1="388.0654" y2="393.6802"/><path d="M48,388.0654 C48,382.0654 50,380.0654 56,380.0654 " fill="none" style="stroke:#181818;stroke-width:1.5;"/><line style="stroke:#181818;stroke-width:1.5;" x1="55" x2="115" y1="380.0654" y2="380.0654"/><path d="M89,380.0654 L89,377.0654 L83,380.0654 L89,383.0654 L89,380.0654 " fill="#181818" style="stroke:#181818;stroke-width:1.5;"/><path d="M122,393.6802 C122,399.6802 120,401.6802 114,401.6802 " fill="none" style="stroke:#181818;stroke-width:1.5;"/><line style="stroke:#181818;stroke-width:1.5;" x1="122" x2="122" y1="388.0654" y2="393.6802"/><path d="M114,380.0654 C120,380.0654 122,382.0654 122,388.0654 " fill="none" style="stroke:#181818;stroke-width:1.5;"/><line style="stroke:#181818;stroke-width:1.5;" x1="40" x2="55" y1="401.6802" y2="401.6802"/><line style="stroke:#181818;stroke-width:1.5;" x1="115" x2="130" y1="401.6802" y2="401.6802"/><rect fill="#F1F1F1" height="29.2295" rx="5" ry="5" style="stroke:#181818;stroke-width:1.5;" width="60" x="55" y="387.0654"/><text fill="#000000" font-family="sans-serif" font-size="14" lengthAdjust="spacing" textLength="50" x="60" y="408.2188">HEXDIG</text><path d="M40,375.0654 C40,371.3154 41.25,370.0654 45,370.0654 " fill="none" style="stroke:#181818;stroke-width:0.5;"/><path d="M85,365.0654 C85,368.8154 83.75,370.0654 80,370.0654 " fill="none" style="stroke:#181818;stroke-width:0.5;"/><path d="M85,365.0654 C85,368.8154 86.25,370.0654 90,370.0654 " fill="none" style="stroke:#181818;stroke-width:0.5;"/><path d="M125,370.0654 C128.75,370.0654 130,371.3154 130,375.0654 " fill="none" style="stroke:#181818;stroke-width:0.5;"/><line style="stroke:#181818;stroke-width:0.5;" x1="45" x2="80" y1="370.0654" y2="370.0654"/><line style="stroke:#181818;stroke-width:0.5;" x1="90" x2="125" y1="370.0654" y2="370.0654"/><text fill="#000000" font-family="sans-serif" font-size="12" lengthAdjust="spacing" textLength="14" x="78" y="362.7021">8&#215;</text><ellipse cx="14" cy="401.6802" fill="none" rx="4" ry="4" style="stroke:#181818;stroke-width:2.0;"/><ellipse cx="160" cy="401.6802" fill="#181818" rx="4" ry="4" style="stroke:#181818;stroke-width:1.0;"/><line style="stroke:#181818;stroke-width:1.5;" x1="18" x2="40" y1="401.6802" y2="401.6802"/><line style="stroke:#181818;stroke-width:1.5;" x1="130" x2="156" y1="401.6802" y2="401.6802"/><path d="M141,401.6802 L141,398.6802 L147,401.6802 L141,404.6802 L141,401.6802 " fill="#181818" style="stroke:#181818;stroke-width:1.5;"/><!--SRC=[LP7BRi8m44Nt_efP0afGe2agYIgXbaTvH4L0KNV8n1DYDRQHxI3bx-iqH6rdTSSpv_fQdXXBjSMppC1MLpm9D8PUyCGPkKkVCt3r39Kh8HZp8C-5CCO3mLEjV8DffcdgWScLjhwcaYaHatOTeC4PjUXdPL5KIBNNj499cxUQqIecZJL0IrakqCzLwOWVARWiBTuRTxEI36BoBuYZHhtfSh4ynEHlfDhkgVSs-tIpc4nGilhPX6mBAkr7ie4RQiELX45_60p3_aDdhZdCyGo34GHX50PHy0Zh_G7gSPTq5jiD61SjHM3SMCtFfNLybwpeZSAkb7N82DwlA5VJTNi0CtdZMac1qfBLCVbT68N-2xUmH-sIm34XKyneMLX7f8fnUOaWsO_3CTbGUIdTrqJmfSYhShwwYc2z-mO0]--></g></svg>