<?xml version="1.0" encoding="UTF-8"?><svg xmlns="http://www.w3.org/2000/svg" xmlns:xlink="http://www.w3.org/1999/xlink" fill-opacity="1" color-rendering="auto" color-interpolation="auto" text-rendering="auto" stroke="black" stroke-linecap="square" width="387" stroke-miterlimit="10" shape-rendering="auto" stroke-opacity="1" fill="black" stroke-dasharray="none" font-weight="normal" stroke-width="1" height="494" font-family="'Dialog'" font-style="normal" stroke-linejoin="miter" font-size="12px" stroke-dashoffset="0" image-rendering="auto">
  <!--Generated by ySVG 2.6-->
  <defs id="genericDefs"/>
  <g>
    <defs id="defs1">
      <linearGradient x1="-38.0083" gradientUnits="userSpaceOnUse" x2="63.312" y1="578.9728" y2="618.9728" id="linearGradient1" spreadMethod="reflect">
        <stop stop-opacity="1" stop-color="rgb(232,238,247)" offset="0%"/>
        <stop stop-opacity="1" stop-color="rgb(183,201,227)" offset="100%"/>
      </linearGradient>
      <linearGradient x1="-38.0083" gradientUnits="userSpaceOnUse" x2="63.312" y1="852.2103" y2="889.6604" id="linearGradient2" spreadMethod="reflect">
        <stop stop-opacity="1" stop-color="rgb(232,238,247)" offset="0%"/>
        <stop stop-opacity="1" stop-color="rgb(183,201,227)" offset="100%"/>
      </linearGradient>
      <linearGradient x1="-47.0554" gradientUnits="userSpaceOnUse" x2="72.3591" y1="669.8188" y2="709.8188" id="linearGradient3" spreadMethod="reflect">
        <stop stop-opacity="1" stop-color="rgb(232,238,247)" offset="0%"/>
        <stop stop-opacity="1" stop-color="rgb(183,201,227)" offset="100%"/>
      </linearGradient>
      <linearGradient x1="-47.0554" gradientUnits="userSpaceOnUse" x2="72.3591" y1="753.806" y2="793.806" id="linearGradient4" spreadMethod="reflect">
        <stop stop-opacity="1" stop-color="rgb(232,238,247)" offset="0%"/>
        <stop stop-opacity="1" stop-color="rgb(183,201,227)" offset="100%"/>
      </linearGradient>
      <clipPath clipPathUnits="userSpaceOnUse" id="clipPath1">
        <path d="M0 0 L387 0 L387 494 L0 494 L0 0 Z"/>
      </clipPath>
      <clipPath clipPathUnits="userSpaceOnUse" id="clipPath2">
        <path d="M-170 485 L217 485 L217 979 L-170 979 L-170 485 Z"/>
      </clipPath>
    </defs>
    <g fill="white" text-rendering="geometricPrecision" shape-rendering="geometricPrecision" transform="translate(170,-485)" stroke="white">
      <rect x="-170" width="387" height="494" y="485" clip-path="url(#clipPath2)" stroke="none"/>
    </g>
    <g fill="white" text-rendering="geometricPrecision" shape-rendering="geometricPrecision" transform="matrix(1,0,0,1,170,-485)" stroke="white">
      <rect x="-154.5556" width="356.5458" height="463.1134" y="500.1069" clip-path="url(#clipPath2)" stroke="none"/>
      <rect x="-154.5556" y="500.1069" clip-path="url(#clipPath2)" fill="rgb(235,235,235)" width="356.5458" height="21.666" stroke="none"/>
    </g>
    <g font-size="15px" stroke-linecap="butt" transform="matrix(1,0,0,1,170,-485)" text-rendering="geometricPrecision" font-family="sans-serif" shape-rendering="geometricPrecision" stroke-miterlimit="1.45">
      <text x="-39.5419" xml:space="preserve" y="516.6088" clip-path="url(#clipPath2)" stroke="none">DID Doc Lifecycle</text>
      <rect fill="none" x="-154.5556" width="356.5458" height="463.1134" y="500.1069" clip-path="url(#clipPath2)"/>
    </g>
    <g fill="url(#linearGradient1)" text-rendering="geometricPrecision" shape-rendering="geometricPrecision" transform="matrix(1,0,0,1,170,-485)" stroke="url(#linearGradient1)">
      <rect x="-38.0083" y="578.9728" clip-path="url(#clipPath2)" width="101.3203" rx="20" ry="20" height="40" stroke="none"/>
    </g>
    <g text-rendering="geometricPrecision" stroke-miterlimit="1.45" shape-rendering="geometricPrecision" transform="matrix(1,0,0,1,170,-485)" stroke-linecap="butt">
      <rect x="-38.0083" y="578.9728" clip-path="url(#clipPath2)" fill="none" width="101.3203" rx="20" ry="20" height="40"/>
      <text x="-37.7651" xml:space="preserve" y="603.508" clip-path="url(#clipPath2)" font-family="sans-serif" stroke="none">DID Doc Creation</text>
    </g>
    <g fill="url(#linearGradient2)" text-rendering="geometricPrecision" shape-rendering="geometricPrecision" transform="matrix(1,0,0,1,170,-485)" stroke="url(#linearGradient2)">
      <rect x="-38.0083" y="852.2103" clip-path="url(#clipPath2)" width="101.3203" rx="18.7251" ry="18.7251" height="37.4501" stroke="none"/>
    </g>
    <g text-rendering="geometricPrecision" stroke-miterlimit="1.45" shape-rendering="geometricPrecision" transform="matrix(1,0,0,1,170,-485)" stroke-linecap="butt">
      <rect x="-38.0083" y="852.2103" clip-path="url(#clipPath2)" fill="none" width="101.3203" rx="18.7251" ry="18.7251" height="37.4501"/>
      <text x="-19.0503" xml:space="preserve" y="875.4705" clip-path="url(#clipPath2)" font-family="sans-serif" stroke="none">Revocation</text>
    </g>
    <g fill="url(#linearGradient3)" text-rendering="geometricPrecision" shape-rendering="geometricPrecision" transform="matrix(1,0,0,1,170,-485)" stroke="url(#linearGradient3)">
      <path d="M-47.0554 669.8188 L72.3591 669.8188 L72.3591 709.8188 L-47.0554 709.8188 Z" stroke="none" clip-path="url(#clipPath2)"/>
    </g>
    <g text-rendering="geometricPrecision" stroke-miterlimit="1.45" shape-rendering="geometricPrecision" transform="matrix(1,0,0,1,170,-485)" stroke-linecap="butt">
      <path fill="none" d="M-47.0554 669.8188 L72.3591 669.8188 L72.3591 709.8188 L-47.0554 709.8188 Z" clip-path="url(#clipPath2)"/>
      <text x="-22.4194" xml:space="preserve" y="694.3539" clip-path="url(#clipPath2)" font-family="sans-serif" stroke="none">Registration</text>
    </g>
    <g fill="url(#linearGradient4)" text-rendering="geometricPrecision" shape-rendering="geometricPrecision" transform="matrix(1,0,0,1,170,-485)" stroke="url(#linearGradient4)">
      <path d="M-47.0554 753.806 L72.3591 753.806 L72.3591 793.806 L-47.0554 793.806 Z" stroke="none" clip-path="url(#clipPath2)"/>
    </g>
    <g text-rendering="geometricPrecision" stroke-miterlimit="1.45" shape-rendering="geometricPrecision" transform="matrix(1,0,0,1,170,-485)" stroke-linecap="butt">
      <path fill="none" d="M-47.0554 753.806 L72.3591 753.806 L72.3591 793.806 L-47.0554 793.806 Z" clip-path="url(#clipPath2)"/>
      <text x="-7.9585" xml:space="preserve" y="778.3412" clip-path="url(#clipPath2)" font-family="sans-serif" stroke="none">Update</text>
    </g>
    <g text-rendering="geometricPrecision" stroke-miterlimit="1.45" shape-rendering="geometricPrecision" transform="matrix(1,0,0,1,170,-485)" stroke-linecap="butt">
      <path fill="none" d="M12.6519 618.9826 L12.6519 658.8444" clip-path="url(#clipPath2)"/>
      <path d="M12.6519 669.8444 L18.6519 657.8444 L6.6519 657.8444 Z" clip-path="url(#clipPath2)" stroke="none"/>
    </g>
    <g text-rendering="geometricPrecision" stroke-miterlimit="1.45" shape-rendering="geometricPrecision" transform="matrix(1,0,0,1,170,-485)" stroke-linecap="butt">
      <path fill="none" d="M12.6519 709.7904 L12.6519 742.8324" clip-path="url(#clipPath2)"/>
      <path d="M12.6519 753.8324 L18.6519 741.8324 L6.6519 741.8324 Z" clip-path="url(#clipPath2)" stroke="none"/>
    </g>
    <g text-rendering="geometricPrecision" stroke-miterlimit="1.45" shape-rendering="geometricPrecision" transform="matrix(1,0,0,1,170,-485)" stroke-linecap="butt">
      <path fill="none" d="M12.6519 793.7725 L12.6519 841.2098" clip-path="url(#clipPath2)"/>
      <path d="M12.6519 852.2098 L18.6519 840.2098 L6.6519 840.2098 Z" clip-path="url(#clipPath2)" stroke="none"/>
    </g>
  </g>
</svg>
