<?xml version="1.0" encoding="us-ascii" standalone="no"?><svg xmlns="http://www.w3.org/2000/svg" xmlns:xlink="http://www.w3.org/1999/xlink" contentStyleType="text/css" height="1292px" preserveAspectRatio="none" style="width:1128px;height:1292px;background:#FFFFFF;" version="1.1" viewBox="0 0 1128 1292" width="1128px" zoomAndPan="magnify"><defs/><g><text fill="#000000" font-family="sans-serif" font-size="25" font-weight="bold" lengthAdjust="spacing" textLength="316" x="402.25" y="39.1699">Wallet Token Generation</text><rect fill="#FFFFFF" height="202.1738" style="stroke:#181818;stroke-width:1.0;" width="10" x="41.5" y="314.9043"/><rect fill="#FFFFFF" height="175.1738" style="stroke:#181818;stroke-width:1.0;" width="10" x="41.5" y="956.3574"/><rect fill="#FFFFFF" height="1118.043" style="stroke:#181818;stroke-width:1.0;" width="10" x="432.5" y="113.4199"/><rect fill="#FFFFFF" height="263.416" style="stroke:#181818;stroke-width:1.0;" width="10" x="773.5" y="605.0098"/><line style="stroke:#181818;stroke-width:0.5;stroke-dasharray:5.0,5.0;" x1="46" x2="46" y1="103.4199" y2="1240.4629"/><line style="stroke:#181818;stroke-width:0.5;stroke-dasharray:5.0,5.0;" x1="437.5" x2="437.5" y1="103.4199" y2="1240.4629"/><line style="stroke:#181818;stroke-width:0.5;stroke-dasharray:5.0,5.0;" x1="778" x2="778" y1="103.4199" y2="1240.4629"/><rect fill="#E2E2F0" height="46.9766" rx="2.5" ry="2.5" style="stroke:#181818;stroke-width:0.5;" width="69" x="12" y="55.4434"/><text fill="#000000" font-family="sans-serif" font-size="14" font-style="italic" lengthAdjust="spacing" textLength="55" x="19" y="75.9785">&#171;Wallet&#187;</text><text fill="#000000" font-family="sans-serif" font-size="14" font-weight="bold" lengthAdjust="spacing" textLength="45" x="24" y="92.4668">Wallet</text><rect fill="#E2E2F0" height="46.9766" rx="2.5" ry="2.5" style="stroke:#181818;stroke-width:0.5;" width="69" x="12" y="1239.4629"/><text fill="#000000" font-family="sans-serif" font-size="14" font-style="italic" lengthAdjust="spacing" textLength="55" x="19" y="1259.998">&#171;Wallet&#187;</text><text fill="#000000" font-family="sans-serif" font-size="14" font-weight="bold" lengthAdjust="spacing" textLength="45" x="24" y="1276.4863">Wallet</text><rect fill="#E2E2F0" height="46.9766" rx="2.5" ry="2.5" style="stroke:#181818;stroke-width:0.5;" width="110" x="382.5" y="55.4434"/><text fill="#000000" font-family="sans-serif" font-size="14" font-style="italic" lengthAdjust="spacing" textLength="42" x="416.5" y="75.9785">&#171;App&#187;</text><text fill="#000000" font-family="sans-serif" font-size="14" font-weight="bold" lengthAdjust="spacing" textLength="96" x="389.5" y="92.4668">Certified App</text><rect fill="#E2E2F0" height="46.9766" rx="2.5" ry="2.5" style="stroke:#181818;stroke-width:0.5;" width="110" x="382.5" y="1239.4629"/><text fill="#000000" font-family="sans-serif" font-size="14" font-style="italic" lengthAdjust="spacing" textLength="42" x="416.5" y="1259.998">&#171;App&#187;</text><text fill="#000000" font-family="sans-serif" font-size="14" font-weight="bold" lengthAdjust="spacing" textLength="96" x="389.5" y="1276.4863">Certified App</text><rect fill="#E2E2F0" height="46.9766" rx="2.5" ry="2.5" style="stroke:#181818;stroke-width:0.5;" width="165" x="696" y="55.4434"/><text fill="#000000" font-family="sans-serif" font-size="14" font-style="italic" lengthAdjust="spacing" textLength="57" x="750" y="75.9785">&#171;Server&#187;</text><text fill="#000000" font-family="sans-serif" font-size="14" font-weight="bold" lengthAdjust="spacing" textLength="151" x="703" y="92.4668">Certified App Service</text><rect fill="#E2E2F0" height="46.9766" rx="2.5" ry="2.5" style="stroke:#181818;stroke-width:0.5;" width="165" x="696" y="1239.4629"/><text fill="#000000" font-family="sans-serif" font-size="14" font-style="italic" lengthAdjust="spacing" textLength="57" x="750" y="1259.998">&#171;Server&#187;</text><text fill="#000000" font-family="sans-serif" font-size="14" font-weight="bold" lengthAdjust="spacing" textLength="151" x="703" y="1276.4863">Certified App Service</text><rect fill="#FFFFFF" height="202.1738" style="stroke:#181818;stroke-width:1.0;" width="10" x="41.5" y="314.9043"/><rect fill="#FFFFFF" height="175.1738" style="stroke:#181818;stroke-width:1.0;" width="10" x="41.5" y="956.3574"/><rect fill="#FFFFFF" height="1118.043" style="stroke:#181818;stroke-width:1.0;" width="10" x="432.5" y="113.4199"/><rect fill="#FFFFFF" height="263.416" style="stroke:#181818;stroke-width:1.0;" width="10" x="773.5" y="605.0098"/><rect fill="#FEFFDD" height="38" style="stroke:#181818;stroke-width:0.5;" width="323" x="276" y="118.4199"/><text fill="#000000" font-family="sans-serif" font-size="13" font-weight="bold" lengthAdjust="spacing" textLength="92" x="280" y="134.9883">[Pre-defined]</text><ellipse cx="285.5" cy="145.541" fill="#000000" rx="2.5" ry="2.5" style="stroke:#000000;stroke-width:0.0;"/><text fill="#000000" font-family="sans-serif" font-size="13" lengthAdjust="spacing" textLength="303" x="292" y="150.2988">PKG_NAME = Package name of the Certified App</text><rect fill="#FEFFDD" height="38" style="stroke:#181818;stroke-width:0.5;" width="339" x="609" y="118.4199"/><text fill="#000000" font-family="sans-serif" font-size="13" font-weight="bold" lengthAdjust="spacing" textLength="92" x="613" y="134.9883">[Pre-defined]</text><ellipse cx="618.5" cy="145.541" fill="#000000" rx="2.5" ry="2.5" style="stroke:#000000;stroke-width:0.0;"/><text fill="#000000" font-family="sans-serif" font-size="13" lengthAdjust="spacing" textLength="319" x="625" y="150.2988">PII = Personal Identifier of the Certified App Owner</text><rect fill="#EEEEEE" height="3" style="stroke:#EEEEEE;stroke-width:1.0;" width="1121.5" x="0" y="182.6963"/><line style="stroke:#000000;stroke-width:1.0;" x1="0" x2="1121.5" y1="182.6963" y2="182.6963"/><line style="stroke:#000000;stroke-width:1.0;" x1="0" x2="1121.5" y1="185.6963" y2="185.6963"/><rect fill="#EEEEEE" height="23.3105" style="stroke:#000000;stroke-width:2.0;" width="149" x="486.25" y="172.041"/><text fill="#000000" font-family="sans-serif" font-size="13" font-weight="bold" lengthAdjust="spacing" textLength="131" x="492.25" y="188.6094">1. WalletTokenSeed</text><line style="stroke:#181818;stroke-width:1.0;" x1="442.5" x2="484.5" y1="257.2832" y2="257.2832"/><line style="stroke:#181818;stroke-width:1.0;" x1="484.5" x2="484.5" y1="257.2832" y2="270.2832"/><line style="stroke:#181818;stroke-width:1.0;" x1="443.5" x2="484.5" y1="270.2832" y2="270.2832"/><polygon fill="#181818" points="453.5,266.2832,443.5,270.2832,453.5,274.2832,449.5,270.2832" style="stroke:#181818;stroke-width:1.0;"/><text fill="#000000" font-family="sans-serif" font-size="13" font-weight="bold" lengthAdjust="spacing" textLength="19" x="449.5" y="237.2305">(1)</text><text fill="#000000" font-family="sans-serif" font-size="13" lengthAdjust="spacing" textLength="71" x="472.5" y="221.9199">Preparation</text><ellipse cx="478" cy="232.4727" fill="#000000" rx="2.5" ry="2.5" style="stroke:#000000;stroke-width:0.0;"/><text fill="#000000" font-family="sans-serif" font-size="13" lengthAdjust="spacing" textLength="252" x="484.5" y="237.2305">purpose = Specify according to purpose</text><ellipse cx="478" cy="247.7832" fill="#000000" rx="2.5" ry="2.5" style="stroke:#000000;stroke-width:0.0;"/><text fill="#000000" font-family="sans-serif" font-size="13" lengthAdjust="spacing" textLength="146" x="484.5" y="252.541">pkgName = PKG_NAME</text><polygon fill="#181818" points="62.5,310.9043,52.5,314.9043,62.5,318.9043,58.5,314.9043" style="stroke:#181818;stroke-width:1.0;"/><line style="stroke:#181818;stroke-width:1.0;" x1="56.5" x2="431.5" y1="314.9043" y2="314.9043"/><text fill="#000000" font-family="sans-serif" font-size="13" font-weight="bold" lengthAdjust="spacing" textLength="19" x="68.5" y="302.5068">(2)</text><text fill="#000000" font-family="sans-serif" font-size="13" lengthAdjust="spacing" textLength="243" x="91.5" y="294.8516">Request to generate Wallet Token Seed</text><text fill="#000000" font-family="sans-serif" font-size="13" lengthAdjust="spacing" textLength="127" x="91.5" y="310.1621">{purpose, pkgName}</text><line style="stroke:#181818;stroke-width:1.0;" x1="51.5" x2="93.5" y1="344.2148" y2="344.2148"/><line style="stroke:#181818;stroke-width:1.0;" x1="93.5" x2="93.5" y1="344.2148" y2="357.2148"/><line style="stroke:#181818;stroke-width:1.0;" x1="52.5" x2="93.5" y1="357.2148" y2="357.2148"/><polygon fill="#181818" points="62.5,353.2148,52.5,357.2148,62.5,361.2148,58.5,357.2148" style="stroke:#181818;stroke-width:1.0;"/><text fill="#000000" font-family="sans-serif" font-size="13" font-weight="bold" lengthAdjust="spacing" textLength="19" x="58.5" y="339.4727">(3)</text><text fill="#000000" font-family="sans-serif" font-size="13" lengthAdjust="spacing" textLength="173" x="81.5" y="339.4727">Validate purpose, pkgName</text><path d="M266,331.4043 L266,356.4043 L666,356.4043 L666,341.4043 L656,331.4043 L266,331.4043 " fill="#FEFFDD" style="stroke:#181818;stroke-width:0.5;"/><path d="M656,331.4043 L656,341.4043 L666,341.4043 L656,331.4043 " fill="#FEFFDD" style="stroke:#181818;stroke-width:0.5;"/><text fill="#000000" font-family="sans-serif" font-size="13" lengthAdjust="spacing" textLength="379" x="272" y="348.9727">Block access from unauthorized apps by checking pkgName</text><line style="stroke:#181818;stroke-width:1.0;" x1="51.5" x2="93.5" y1="417.1465" y2="417.1465"/><line style="stroke:#181818;stroke-width:1.0;" x1="93.5" x2="93.5" y1="417.1465" y2="430.1465"/><line style="stroke:#181818;stroke-width:1.0;" x1="52.5" x2="93.5" y1="430.1465" y2="430.1465"/><polygon fill="#181818" points="62.5,426.1465,52.5,430.1465,62.5,434.1465,58.5,430.1465" style="stroke:#181818;stroke-width:1.0;"/><text fill="#000000" font-family="sans-serif" font-size="13" font-weight="bold" lengthAdjust="spacing" textLength="19" x="58.5" y="397.0938">(4)</text><text fill="#000000" font-family="sans-serif" font-size="13" lengthAdjust="spacing" textLength="105" x="81.5" y="381.7832">Data preparation</text><ellipse cx="87" cy="392.3359" fill="#000000" rx="2.5" ry="2.5" style="stroke:#000000;stroke-width:0.0;"/><text fill="#000000" font-family="sans-serif" font-size="13" lengthAdjust="spacing" textLength="232" x="93.5" y="397.0938">validUntil = Expiration date and time</text><ellipse cx="87" cy="407.6465" fill="#000000" rx="2.5" ry="2.5" style="stroke:#000000;stroke-width:0.0;"/><text fill="#000000" font-family="sans-serif" font-size="13" lengthAdjust="spacing" textLength="215" x="93.5" y="412.4043">nonce = Generate random number</text><line style="stroke:#181818;stroke-width:1.0;" x1="51.5" x2="93.5" y1="474.7676" y2="474.7676"/><line style="stroke:#181818;stroke-width:1.0;" x1="93.5" x2="93.5" y1="474.7676" y2="487.7676"/><line style="stroke:#181818;stroke-width:1.0;" x1="52.5" x2="93.5" y1="487.7676" y2="487.7676"/><polygon fill="#181818" points="62.5,483.7676,52.5,487.7676,62.5,491.7676,58.5,487.7676" style="stroke:#181818;stroke-width:1.0;"/><text fill="#000000" font-family="sans-serif" font-size="13" font-weight="bold" lengthAdjust="spacing" textLength="19" x="58.5" y="462.3701">(5)</text><text fill="#000000" font-family="sans-serif" font-size="13" lengthAdjust="spacing" textLength="143" x="81.5" y="454.7148">(WalletTokenSeed)seed</text><text fill="#000000" font-family="sans-serif" font-size="13" lengthAdjust="spacing" textLength="255" x="85.5" y="470.0254">= {purpose, validUntil, pkgName, nonce}</text><polygon fill="#181818" points="420.5,513.0781,430.5,517.0781,420.5,521.0781,424.5,517.0781" style="stroke:#181818;stroke-width:1.0;"/><line style="stroke:#181818;stroke-width:1.0;stroke-dasharray:2.0,2.0;" x1="46.5" x2="426.5" y1="517.0781" y2="517.0781"/><text fill="#000000" font-family="sans-serif" font-size="13" font-weight="bold" lengthAdjust="spacing" textLength="19" x="53.5" y="512.3359">(6)</text><text fill="#000000" font-family="sans-serif" font-size="13" lengthAdjust="spacing" textLength="37" x="76.5" y="512.3359">{seed}</text><rect fill="#EEEEEE" height="3" style="stroke:#EEEEEE;stroke-width:1.0;" width="1121.5" x="0" y="545.7334"/><line style="stroke:#000000;stroke-width:1.0;" x1="0" x2="1121.5" y1="545.7334" y2="545.7334"/><line style="stroke:#000000;stroke-width:1.0;" x1="0" x2="1121.5" y1="548.7334" y2="548.7334"/><rect fill="#EEEEEE" height="23.3105" style="stroke:#000000;stroke-width:2.0;" width="148" x="486.75" y="535.0781"/><text fill="#000000" font-family="sans-serif" font-size="13" font-weight="bold" lengthAdjust="spacing" textLength="130" x="492.75" y="551.6465">2. WalletTokenData</text><polygon fill="#181818" points="761.5,601.0098,771.5,605.0098,761.5,609.0098,765.5,605.0098" style="stroke:#181818;stroke-width:1.0;"/><line style="stroke:#181818;stroke-width:1.0;" x1="442.5" x2="767.5" y1="605.0098" y2="605.0098"/><text fill="#000000" font-family="sans-serif" font-size="13" font-weight="bold" lengthAdjust="spacing" textLength="19" x="449.5" y="592.6123">(7)</text><text fill="#000000" font-family="sans-serif" font-size="13" lengthAdjust="spacing" textLength="243" x="472.5" y="584.957">Request to generate Wallet Token Data</text><text fill="#000000" font-family="sans-serif" font-size="13" lengthAdjust="spacing" textLength="37" x="472.5" y="600.2676">{seed}</text><line style="stroke:#181818;stroke-width:1.0;" x1="783.5" x2="825.5" y1="695.5625" y2="695.5625"/><line style="stroke:#181818;stroke-width:1.0;" x1="825.5" x2="825.5" y1="695.5625" y2="708.5625"/><line style="stroke:#181818;stroke-width:1.0;" x1="784.5" x2="825.5" y1="708.5625" y2="708.5625"/><polygon fill="#181818" points="794.5,704.5625,784.5,708.5625,794.5,712.5625,790.5,708.5625" style="stroke:#181818;stroke-width:1.0;"/><text fill="#000000" font-family="sans-serif" font-size="13" font-weight="bold" lengthAdjust="spacing" textLength="19" x="790.5" y="660.1992">(8)</text><text fill="#000000" font-family="sans-serif" font-size="13" lengthAdjust="spacing" textLength="105" x="813.5" y="629.5781">Data preparation</text><ellipse cx="819" cy="640.1309" fill="#000000" rx="2.5" ry="2.5" style="stroke:#000000;stroke-width:0.0;"/><text fill="#000000" font-family="sans-serif" font-size="13" lengthAdjust="spacing" textLength="226" x="825.5" y="644.8887">sha256_pii = multibase(sha256(PII))</text><ellipse cx="819" cy="655.4414" fill="#000000" rx="2.5" ry="2.5" style="stroke:#000000;stroke-width:0.0;"/><text fill="#000000" font-family="sans-serif" font-size="13" lengthAdjust="spacing" textLength="199" x="825.5" y="660.1992">provider = Provider information</text><ellipse cx="819" cy="670.752" fill="#000000" rx="2.5" ry="2.5" style="stroke:#000000;stroke-width:0.0;"/><text fill="#000000" font-family="sans-serif" font-size="13" lengthAdjust="spacing" textLength="215" x="825.5" y="675.5098">nonce = Generate random number</text><ellipse cx="819" cy="686.0625" fill="#000000" rx="2.5" ry="2.5" style="stroke:#000000;stroke-width:0.0;"/><text fill="#000000" font-family="sans-serif" font-size="13" lengthAdjust="spacing" textLength="284" x="825.5" y="690.8203">dataset = {seed, sha256_pii, provider, nonce}</text><line style="stroke:#181818;stroke-width:1.0;" x1="783.5" x2="825.5" y1="768.4941" y2="768.4941"/><line style="stroke:#181818;stroke-width:1.0;" x1="825.5" x2="825.5" y1="768.4941" y2="781.4941"/><line style="stroke:#181818;stroke-width:1.0;" x1="784.5" x2="825.5" y1="781.4941" y2="781.4941"/><polygon fill="#181818" points="794.5,777.4941,784.5,781.4941,794.5,785.4941,790.5,781.4941" style="stroke:#181818;stroke-width:1.0;"/><text fill="#000000" font-family="sans-serif" font-size="13" font-weight="bold" lengthAdjust="spacing" textLength="19" x="790.5" y="748.4414">(9)</text><text fill="#000000" font-family="sans-serif" font-size="13" lengthAdjust="spacing" textLength="153" x="813.5" y="733.1309">CApp provider signature</text><ellipse cx="819" cy="743.6836" fill="#000000" rx="2.5" ry="2.5" style="stroke:#000000;stroke-width:0.0;"/><text fill="#000000" font-family="sans-serif" font-size="13" lengthAdjust="spacing" textLength="200" x="825.5" y="748.4414">priKey = Attestation private key</text><ellipse cx="819" cy="758.9941" fill="#000000" rx="2.5" ry="2.5" style="stroke:#000000;stroke-width:0.0;"/><text fill="#000000" font-family="sans-serif" font-size="13" lengthAdjust="spacing" textLength="220" x="825.5" y="763.752">proof = signAssert(dataset, priKey)</text><line style="stroke:#181818;stroke-width:1.0;" x1="783.5" x2="825.5" y1="826.1152" y2="826.1152"/><line style="stroke:#181818;stroke-width:1.0;" x1="825.5" x2="825.5" y1="826.1152" y2="839.1152"/><line style="stroke:#181818;stroke-width:1.0;" x1="784.5" x2="825.5" y1="839.1152" y2="839.1152"/><polygon fill="#181818" points="794.5,835.1152,784.5,839.1152,794.5,843.1152,790.5,839.1152" style="stroke:#181818;stroke-width:1.0;"/><text fill="#000000" font-family="sans-serif" font-size="13" font-weight="bold" lengthAdjust="spacing" textLength="28" x="790.5" y="813.7178">(10)</text><text fill="#000000" font-family="sans-serif" font-size="13" lengthAdjust="spacing" textLength="137" x="822.5" y="806.0625">(WalletTokenData)wtd</text><text fill="#000000" font-family="sans-serif" font-size="13" lengthAdjust="spacing" textLength="276" x="826.5" y="821.373">= {seed, sha256_pii, provider, nonce, proof}</text><polygon fill="#181818" points="453.5,864.4258,443.5,868.4258,453.5,872.4258,449.5,868.4258" style="stroke:#181818;stroke-width:1.0;"/><line style="stroke:#181818;stroke-width:1.0;stroke-dasharray:2.0,2.0;" x1="447.5" x2="777.5" y1="868.4258" y2="868.4258"/><text fill="#000000" font-family="sans-serif" font-size="13" font-weight="bold" lengthAdjust="spacing" textLength="28" x="459.5" y="863.6836">(11)</text><text fill="#000000" font-family="sans-serif" font-size="13" lengthAdjust="spacing" textLength="31" x="491.5" y="863.6836">{wtd}</text><rect fill="#EEEEEE" height="3" style="stroke:#EEEEEE;stroke-width:1.0;" width="1121.5" x="0" y="897.0811"/><line style="stroke:#000000;stroke-width:1.0;" x1="0" x2="1121.5" y1="897.0811" y2="897.0811"/><line style="stroke:#000000;stroke-width:1.0;" x1="0" x2="1121.5" y1="900.0811" y2="900.0811"/><rect fill="#EEEEEE" height="23.3105" style="stroke:#000000;stroke-width:2.0;" width="116" x="502.75" y="886.4258"/><text fill="#000000" font-family="sans-serif" font-size="13" font-weight="bold" lengthAdjust="spacing" textLength="98" x="508.75" y="902.9941">3. walletToken</text><polygon fill="#181818" points="62.5,952.3574,52.5,956.3574,62.5,960.3574,58.5,956.3574" style="stroke:#181818;stroke-width:1.0;"/><line style="stroke:#181818;stroke-width:1.0;" x1="56.5" x2="431.5" y1="956.3574" y2="956.3574"/><text fill="#000000" font-family="sans-serif" font-size="13" font-weight="bold" lengthAdjust="spacing" textLength="28" x="68.5" y="943.96">(12)</text><text fill="#000000" font-family="sans-serif" font-size="13" lengthAdjust="spacing" textLength="210" x="100.5" y="936.3047">Request to generate Wallet Token</text><text fill="#000000" font-family="sans-serif" font-size="13" lengthAdjust="spacing" textLength="31" x="100.5" y="951.6152">{wtd}</text><line style="stroke:#181818;stroke-width:1.0;" x1="51.5" x2="93.5" y1="1016.2891" y2="1016.2891"/><line style="stroke:#181818;stroke-width:1.0;" x1="93.5" x2="93.5" y1="1016.2891" y2="1029.2891"/><line style="stroke:#181818;stroke-width:1.0;" x1="52.5" x2="93.5" y1="1029.2891" y2="1029.2891"/><polygon fill="#181818" points="62.5,1025.2891,52.5,1029.2891,62.5,1033.2891,58.5,1029.2891" style="stroke:#181818;stroke-width:1.0;"/><text fill="#000000" font-family="sans-serif" font-size="13" font-weight="bold" lengthAdjust="spacing" textLength="28" x="58.5" y="996.2363">(13)</text><text fill="#000000" font-family="sans-serif" font-size="13" lengthAdjust="spacing" textLength="267" x="90.5" y="980.9258">Verify CApp provider Attestation signature</text><ellipse cx="96" cy="991.4785" fill="#000000" rx="2.5" ry="2.5" style="stroke:#000000;stroke-width:0.0;"/><text fill="#000000" font-family="sans-serif" font-size="13" lengthAdjust="spacing" textLength="323" x="102.5" y="996.2363">(Optional) Verify provider registration certificate VC</text><ellipse cx="96" cy="1006.7891" fill="#000000" rx="2.5" ry="2.5" style="stroke:#000000;stroke-width:0.0;"/><text fill="#000000" font-family="sans-serif" font-size="13" lengthAdjust="spacing" textLength="101" x="102.5" y="1011.5469">Verify wtd.proof</text><line style="stroke:#181818;stroke-width:1.0;" x1="51.5" x2="93.5" y1="1089.2207" y2="1089.2207"/><line style="stroke:#181818;stroke-width:1.0;" x1="93.5" x2="93.5" y1="1089.2207" y2="1102.2207"/><line style="stroke:#181818;stroke-width:1.0;" x1="52.5" x2="93.5" y1="1102.2207" y2="1102.2207"/><polygon fill="#181818" points="62.5,1098.2207,52.5,1102.2207,62.5,1106.2207,58.5,1102.2207" style="stroke:#181818;stroke-width:1.0;"/><text fill="#000000" font-family="sans-serif" font-size="13" font-weight="bold" lengthAdjust="spacing" textLength="28" x="58.5" y="1069.168">(14)</text><text fill="#000000" font-family="sans-serif" font-size="13" lengthAdjust="spacing" textLength="140" x="90.5" y="1053.8574">Generate Wallet Token</text><ellipse cx="96" cy="1064.4102" fill="#000000" rx="2.5" ry="2.5" style="stroke:#000000;stroke-width:0.0;"/><text fill="#000000" font-family="sans-serif" font-size="13" lengthAdjust="spacing" textLength="253" x="102.5" y="1069.168">resultNonce = Generate random number</text><ellipse cx="96" cy="1079.7207" fill="#000000" rx="2.5" ry="2.5" style="stroke:#000000;stroke-width:0.0;"/><text fill="#000000" font-family="sans-serif" font-size="13" lengthAdjust="spacing" textLength="255" x="102.5" y="1084.4785">walletToken = sha256(wtd, resultNonce)</text><polygon fill="#181818" points="420.5,1127.5313,430.5,1131.5313,420.5,1135.5313,424.5,1131.5313" style="stroke:#181818;stroke-width:1.0;"/><line style="stroke:#181818;stroke-width:1.0;stroke-dasharray:2.0,2.0;" x1="46.5" x2="426.5" y1="1131.5313" y2="1131.5313"/><text fill="#000000" font-family="sans-serif" font-size="13" font-weight="bold" lengthAdjust="spacing" textLength="28" x="53.5" y="1126.7891">(15)</text><text fill="#000000" font-family="sans-serif" font-size="13" lengthAdjust="spacing" textLength="84" x="85.5" y="1126.7891">{resultNonce}</text><line style="stroke:#181818;stroke-width:1.0;" x1="442.5" x2="484.5" y1="1176.1523" y2="1176.1523"/><line style="stroke:#181818;stroke-width:1.0;" x1="484.5" x2="484.5" y1="1176.1523" y2="1189.1523"/><line style="stroke:#181818;stroke-width:1.0;" x1="443.5" x2="484.5" y1="1189.1523" y2="1189.1523"/><polygon fill="#181818" points="453.5,1185.1523,443.5,1189.1523,453.5,1193.1523,449.5,1189.1523" style="stroke:#181818;stroke-width:1.0;"/><text fill="#000000" font-family="sans-serif" font-size="13" font-weight="bold" lengthAdjust="spacing" textLength="28" x="449.5" y="1163.7549">(16)</text><text fill="#000000" font-family="sans-serif" font-size="13" lengthAdjust="spacing" textLength="153" x="481.5" y="1156.0996">Wallet Token Generation</text><ellipse cx="487" cy="1166.6523" fill="#000000" rx="2.5" ry="2.5" style="stroke:#000000;stroke-width:0.0;"/><text fill="#000000" font-family="sans-serif" font-size="13" lengthAdjust="spacing" textLength="255" x="493.5" y="1171.4102">walletToken = sha256(wtd, resultNonce)</text><polygon fill="#32CD32" points="15,1202.1523,470,1202.1523,480,1213.1523,470,1225.1523,15,1225.1523,5,1213.1523,15,1202.1523" style="stroke:#181818;stroke-width:0.5;"/><text fill="#000000" font-family="sans-serif" font-size="13" lengthAdjust="spacing" textLength="292" x="96.75" y="1218.7207">Submit walletToken when accessing the wallet</text><!--SRC=[bLLHJzim47vUViMflAGXWCR47ggsKiTGXTW0hHjx61DoasjhDNKynsd7KF_xpdOIaXGOoqFLE7VVVVVTPrjpdQ3tff_nFzWxFXb-Pqc26hwcInGmHe6AQPwA_f4967eeOj0snMEvJaM-cgA2JdywzFUw_QFfiEDvaYdD8owPqD090eSO11rW6MnO0ls-MneEsw6dIAypZZ6Cf2mo8aO9zFgFQ9YWMlC8gon9QMOD5MLwBD9ypJJI1yzJ8gL_ANqohq1F4FouLdWGuumBZ7y6WLk5wulntUNeynaCu9f5IpP746n5kJFG2uG60wkDXVQEe552lbpZ_Dp0eyfIGUgSnoWig7go2bnjQ2QrMjvW06yFmKbgnpP12XqCF8-aEnXI_HvGOHBFJj8KlHK1o5p9D4CgFP4OyTazi2XALSp577HQVIwZb_DBq_YWagI4DnFTt-_15_oLOwPDxjpP1g5X9aFhLZmKm649kRKo61G7reCRbl3OfBT3RQGLLl7vGlVWGv96IyCRimncAbr1BiYMYrIHMMDWKcOmlOTeWT7Iz5N7gLVyo3G3sTIeV4ptQyFe6uqb8G7EVajUX5cMp6w95RQJH2eY8zYuL4DH955qUsQ7Wz-QO3SpOsnW4jYZV8-SAdr2LtFhATIv4l1W8BRM8SSDXzX-wmwHhnkXoQCHEbZ3oMGwWET5D5fa2tPyylvESauzhF94yodBq7VBFks0RhSUBbMwvZ7j0B9R-PUBMQfMEyWlgroFf65HJMr4D0s4DL9XLR6IiDtTgTbx5Q-CpmKZZR79cb_WFU6Fj2OP7LLQjEVEahuqEwJTFR10eooZ7UuN_C82fxj3mMzDiBlHSTCS_-mhT8KV7K8GpY3l3eqDI_YQELwxlyaN5cndDwCoXqjJlxf2ErgM6lbNqWImf5k2LFaAvppJXSyYTpv6Xj7DQHkbI2LkXxRt7OBZ9wtUGb6OaMilNsMsCgUXPp4LdtY4TRHkDOhQuhP-TZzp8_zd5M_nU2DHIcZkrRrFT6oD5QAmeapowOhh1k1cGJ_kVBNt0jr6xhEzW2paNm00]--></g></svg>