<?xml version="1.0" encoding="us-ascii" standalone="no"?><svg xmlns="http://www.w3.org/2000/svg" xmlns:xlink="http://www.w3.org/1999/xlink" contentStyleType="text/css" height="460px" preserveAspectRatio="none" style="width:429px;height:460px;background:#FFFFFF;" version="1.1" viewBox="0 0 429 460" width="429px" zoomAndPan="magnify"><defs/><g><ellipse cx="104.5" cy="20" fill="#222222" rx="10" ry="10" style="stroke:#222222;stroke-width:1.0;"/><rect fill="none" height="200.6768" style="stroke:#000000;stroke-width:1.5;" width="299" x="11" y="40"/><path d="M150,40 L150,52.2295 L140,62.2295 L11,62.2295 " fill="none" style="stroke:#000000;stroke-width:1.5;"/><text fill="#000000" font-family="sans-serif" font-size="14" lengthAdjust="spacing" textLength="129" x="14" y="57.1533">Offer &#45800;&#44228; (Offering)</text><path d="M208,83.5427 L208,93.4707 L188,97.4707 L208,101.4707 L208,111.3987 A0,0 0 0 0 208,111.3987 L300,111.3987 A0,0 0 0 0 300,111.3987 L300,93.5427 L290,83.5427 L208,83.5427 A0,0 0 0 0 208,83.5427 " fill="#FEFFDD" style="stroke:#181818;stroke-width:0.5;"/><path d="M290,83.5427 L290,93.5427 L300,93.5427 L290,83.5427 " fill="#FEFFDD" style="stroke:#181818;stroke-width:0.5;"/><text fill="#000000" font-family="sans-serif" font-size="13" lengthAdjust="spacing" textLength="71" x="214" y="103.5422">out of scope</text><rect fill="#F1F1F1" height="36.4824" rx="12.5" ry="12.5" style="stroke:#181818;stroke-width:0.5;" width="167" x="21" y="79.2295"/><text fill="#000000" font-family="sans-serif" font-size="12" font-weight="bold" lengthAdjust="spacing" textLength="18" x="31" y="103.0752">B1.</text><text fill="#000000" font-family="sans-serif" font-size="12" lengthAdjust="spacing" textLength="126" x="52" y="103.0752">&#51228;&#52636; Offer payload &#49373;&#49457;</text><path d="M185,140.0251 L185,149.9531 L165,153.9531 L185,157.9531 L185,167.8811 A0,0 0 0 0 185,167.8811 L277,167.8811 A0,0 0 0 0 277,167.8811 L277,150.0251 L267,140.0251 L185,140.0251 A0,0 0 0 0 185,140.0251 " fill="#FEFFDD" style="stroke:#181818;stroke-width:0.5;"/><path d="M267,140.0251 L267,150.0251 L277,150.0251 L267,140.0251 " fill="#FEFFDD" style="stroke:#181818;stroke-width:0.5;"/><text fill="#000000" font-family="sans-serif" font-size="13" lengthAdjust="spacing" textLength="71" x="191" y="160.0247">out of scope</text><rect fill="#F1F1F1" height="36.4824" rx="12.5" ry="12.5" style="stroke:#181818;stroke-width:0.5;" width="121" x="44" y="135.7119"/><text fill="#000000" font-family="sans-serif" font-size="12" font-weight="bold" lengthAdjust="spacing" textLength="18" x="54" y="159.5576">B2.</text><text fill="#000000" font-family="sans-serif" font-size="12" lengthAdjust="spacing" textLength="80" x="75" y="159.5576">&#51228;&#52636; Offer &#49569;&#49888;</text><path d="M185,196.5076 L185,206.4355 L165,210.4355 L185,214.4355 L185,224.3635 A0,0 0 0 0 185,224.3635 L277,224.3635 A0,0 0 0 0 277,224.3635 L277,206.5076 L267,196.5076 L185,196.5076 A0,0 0 0 0 185,196.5076 " fill="#FEFFDD" style="stroke:#181818;stroke-width:0.5;"/><path d="M267,196.5076 L267,206.5076 L277,206.5076 L267,196.5076 " fill="#FEFFDD" style="stroke:#181818;stroke-width:0.5;"/><text fill="#000000" font-family="sans-serif" font-size="13" lengthAdjust="spacing" textLength="71" x="191" y="216.5071">out of scope</text><rect fill="#F1F1F1" height="36.4824" rx="12.5" ry="12.5" style="stroke:#181818;stroke-width:0.5;" width="121" x="44" y="192.1943"/><text fill="#000000" font-family="sans-serif" font-size="12" font-weight="bold" lengthAdjust="spacing" textLength="18" x="54" y="216.04">B3.</text><text fill="#000000" font-family="sans-serif" font-size="12" lengthAdjust="spacing" textLength="80" x="75" y="216.04">&#51228;&#52636; Offer &#49688;&#49888;</text><rect fill="none" height="156.4238" style="stroke:#000000;stroke-width:1.5;" width="390" x="28.5" y="250.6768"/><path d="M192.5,250.6768 L192.5,262.9063 L182.5,272.9063 L28.5,272.9063 " fill="none" style="stroke:#000000;stroke-width:1.5;"/><text fill="#000000" font-family="sans-serif" font-size="14" lengthAdjust="spacing" textLength="154" x="31.5" y="267.8301">&#51228;&#52636; &#45800;&#44228; (Presentation)</text><path d="M190.5,288.2915 L190.5,307.1475 L170.5,311.1475 L190.5,315.1475 L190.5,334.0034 A0,0 0 0 0 190.5,334.0034 L408.5,334.0034 A0,0 0 0 0 408.5,334.0034 L408.5,298.2915 L398.5,288.2915 L190.5,288.2915 A0,0 0 0 0 190.5,288.2915 " fill="#FEFFDD" style="stroke:#181818;stroke-width:0.5;"/><path d="M398.5,288.2915 L398.5,298.2915 L408.5,298.2915 L398.5,288.2915 " fill="#FEFFDD" style="stroke:#181818;stroke-width:0.5;"/><text fill="#000000" font-family="sans-serif" font-size="13" lengthAdjust="spacing" textLength="197" x="196.5" y="308.291">[&#51064;&#44032;&#50545;, &#51025;&#45824;&#51109;&#52824; &#8594; &#44160;&#51613; &#49324;&#50629;&#51088;]</text><ellipse cx="202" cy="321.5034" fill="#000000" rx="2.5" ry="2.5" style="stroke:#000000;stroke-width:0.0;"/><text fill="#000000" font-family="sans-serif" font-size="13" lengthAdjust="spacing" textLength="88" x="208.5" y="326.147">Request Profile</text><rect fill="#F1F1F1" height="36.4824" rx="12.5" ry="12.5" style="stroke:#181818;stroke-width:0.5;" width="132" x="38.5" y="292.9063"/><text fill="#000000" font-family="sans-serif" font-size="12" font-weight="bold" lengthAdjust="spacing" textLength="18" x="48.5" y="316.752">C1.</text><text fill="#000000" font-family="sans-serif" font-size="12" lengthAdjust="spacing" textLength="91" x="69.5" y="316.752">VerifyProfile &#50836;&#52397;</text><path d="M166,349.3887 L166,368.2446 L146,372.2446 L166,376.2446 L166,395.1006 A0,0 0 0 0 166,395.1006 L384,395.1006 A0,0 0 0 0 384,395.1006 L384,359.3887 L374,349.3887 L166,349.3887 A0,0 0 0 0 166,349.3887 " fill="#FEFFDD" style="stroke:#181818;stroke-width:0.5;"/><path d="M374,349.3887 L374,359.3887 L384,359.3887 L374,349.3887 " fill="#FEFFDD" style="stroke:#181818;stroke-width:0.5;"/><text fill="#000000" font-family="sans-serif" font-size="13" lengthAdjust="spacing" textLength="197" x="172" y="369.3882">[&#51064;&#44032;&#50545;, &#51025;&#45824;&#51109;&#52824; &#8594; &#44160;&#51613; &#49324;&#50629;&#51088;]</text><ellipse cx="177.5" cy="382.6006" fill="#000000" rx="2.5" ry="2.5" style="stroke:#000000;stroke-width:0.0;"/><text fill="#000000" font-family="sans-serif" font-size="13" lengthAdjust="spacing" textLength="85" x="184" y="387.2441">Request Verify</text><rect fill="#F1F1F1" height="36.4824" rx="12.5" ry="12.5" style="stroke:#181818;stroke-width:0.5;" width="83" x="63" y="354.0034"/><text fill="#000000" font-family="sans-serif" font-size="12" font-weight="bold" lengthAdjust="spacing" textLength="18" x="73" y="377.8491">C2.</text><text fill="#000000" font-family="sans-serif" font-size="12" lengthAdjust="spacing" textLength="42" x="94" y="377.8491">VP &#51228;&#52636;</text><ellipse cx="104.5" cy="438.1006" fill="none" rx="11" ry="11" style="stroke:#222222;stroke-width:1.0;"/><ellipse cx="104.5" cy="438.1006" fill="#222222" rx="6" ry="6" style="stroke:#222222;stroke-width:1.0;"/><line style="stroke:#181818;stroke-width:1.0;" x1="104.5" x2="104.5" y1="115.7119" y2="135.7119"/><polygon fill="#181818" points="100.5,125.7119,104.5,135.7119,108.5,125.7119,104.5,129.7119" style="stroke:#181818;stroke-width:1.0;"/><line style="stroke:#181818;stroke-width:1.0;" x1="104.5" x2="104.5" y1="172.1943" y2="192.1943"/><polygon fill="#181818" points="100.5,182.1943,104.5,192.1943,108.5,182.1943,104.5,186.1943" style="stroke:#181818;stroke-width:1.0;"/><line style="stroke:#181818;stroke-width:1.0;" x1="104.5" x2="104.5" y1="30" y2="79.2295"/><polygon fill="#181818" points="100.5,69.2295,104.5,79.2295,108.5,69.2295,104.5,73.2295" style="stroke:#181818;stroke-width:1.0;"/><line style="stroke:#181818;stroke-width:1.0;" x1="104.5" x2="104.5" y1="329.3887" y2="354.0034"/><polygon fill="#181818" points="100.5,344.0034,104.5,354.0034,108.5,344.0034,104.5,348.0034" style="stroke:#181818;stroke-width:1.0;"/><line style="stroke:#181818;stroke-width:1.0;" x1="104.5" x2="104.5" y1="228.6768" y2="292.9063"/><polygon fill="#181818" points="100.5,282.9063,104.5,292.9063,108.5,282.9063,104.5,286.9063" style="stroke:#181818;stroke-width:1.0;"/><line style="stroke:#181818;stroke-width:1.0;" x1="104.5" x2="104.5" y1="390.4858" y2="427.1006"/><polygon fill="#181818" points="100.5,417.1006,104.5,427.1006,108.5,417.1006,104.5,421.1006" style="stroke:#181818;stroke-width:1.0;"/><!--SRC=[Aov9B2hXuYe0afabcVbv2ah-QMcfHGglkrUysjoYe07cPUQbQoefL7Cf086LbfQJePwMbiAR1NFUR9kZ055Ua5YPav-Oel2cUUwRbetMO9Lv-IMf2aMPwHabLWhvfIKA-MaAnSdv1QbSS7ECCCnvqxRmJVS2OlKRO-hlc45OVosAVw7wOHuEA4ejJiqhIGH98dlQ6UpfC61Wf5K65EMdPUQaAhoPDUNDfhNeje6v813zPkwELniQtapTgAFmPkx4rpqDR-OjVRDpXiAZjaaAhpOrl5asL-5DqvetqrlVp9iG2zUcfH2KMbYQMboY0BK7B9EQbmAs0-vxPt3eXGL00u1she3u6TKHm20iBial0000]--></g></svg>