<?xml version="1.0" encoding="us-ascii" standalone="no"?><svg xmlns="http://www.w3.org/2000/svg" xmlns:xlink="http://www.w3.org/1999/xlink" contentStyleType="text/css" height="184px" preserveAspectRatio="none" style="width:538px;height:184px;background:#FFFFFF;" version="1.1" viewBox="0 0 538 184" width="538px" zoomAndPan="magnify"><defs/><g><text fill="#000000" font-family="sans-serif" font-size="14" font-weight="bold" lengthAdjust="spacing" textLength="55" x="10" y="26.1533">API-URL</text><line style="stroke:#181818;stroke-width:1.5;" x1="40" x2="40" y1="53.8442" y2="53.8442"/><rect fill="#F1F1F1" height="29.2295" rx="5" ry="5" style="stroke:#181818;stroke-width:1.5;" width="113" x="40" y="39.2295"/><text fill="#000000" font-family="sans-serif" font-size="14" lengthAdjust="spacing" textLength="103" x="45" y="60.3828">ServiceEndpoint</text><line style="stroke:#181818;stroke-width:1.5;" x1="153" x2="173" y1="53.8442" y2="53.8442"/><rect fill="none" height="29.2295" style="stroke:#181818;stroke-width:0.5;" width="14" x="173" y="39.2295"/><text fill="#000000" font-family="sans-serif" font-size="14" lengthAdjust="spacing" textLength="4" x="178" y="60.3828">/</text><line style="stroke:#181818;stroke-width:1.5;" x1="187" x2="207" y1="53.8442" y2="53.8442"/><rect fill="#F1F1F1" height="29.2295" rx="5" ry="5" style="stroke:#181818;stroke-width:1.5;" width="39" x="207" y="39.2295"/><text fill="#000000" font-family="sans-serif" font-size="14" lengthAdjust="spacing" textLength="29" x="212" y="60.3828">Path</text><ellipse cx="14" cy="53.8442" fill="none" rx="4" ry="4" style="stroke:#181818;stroke-width:2.0;"/><ellipse cx="276" cy="53.8442" fill="#181818" rx="4" ry="4" style="stroke:#181818;stroke-width:1.0;"/><line style="stroke:#181818;stroke-width:1.5;" x1="18" x2="40" y1="53.8442" y2="53.8442"/><line style="stroke:#181818;stroke-width:1.5;" x1="246" x2="272" y1="53.8442" y2="53.8442"/><path d="M257,53.8442 L257,50.8442 L263,53.8442 L257,56.8442 L257,53.8442 " fill="#181818" style="stroke:#181818;stroke-width:1.5;"/><text fill="#000000" font-family="sans-serif" font-size="14" font-weight="bold" lengthAdjust="spacing" textLength="117" x="10" y="99.6123">ServiceEndpoint</text><line style="stroke:#181818;stroke-width:1.5;" x1="40" x2="40" y1="143.3032" y2="143.3032"/><rect fill="#F1F1F1" height="29.2295" rx="5" ry="5" style="stroke:#181818;stroke-width:1.5;" width="62" x="40" y="128.6885"/><text fill="#000000" font-family="sans-serif" font-size="14" lengthAdjust="spacing" textLength="52" x="45" y="149.8418">Protocol</text><line style="stroke:#181818;stroke-width:1.5;" x1="102" x2="122" y1="143.3032" y2="143.3032"/><rect fill="none" height="29.2295" style="stroke:#181818;stroke-width:0.5;" width="22" x="122" y="128.6885"/><text fill="#000000" font-family="sans-serif" font-size="14" lengthAdjust="spacing" textLength="12" x="127" y="149.8418">://</text><line style="stroke:#181818;stroke-width:1.5;" x1="144" x2="164" y1="143.3032" y2="143.3032"/><rect fill="#F1F1F1" height="29.2295" rx="5" ry="5" style="stroke:#181818;stroke-width:1.5;" width="38" x="164" y="128.6885"/><text fill="#000000" font-family="sans-serif" font-size="14" lengthAdjust="spacing" textLength="28" x="169" y="149.8418">Host</text><line style="stroke:#181818;stroke-width:1.5;" x1="202" x2="222" y1="143.3032" y2="143.3032"/><path d="M230,135.3032 C230,141.3032 228,143.3032 222,143.3032 " fill="none" style="stroke:#181818;stroke-width:1.5;"/><line style="stroke:#181818;stroke-width:1.5;" x1="230" x2="230" y1="125.6885" y2="135.3032"/><path d="M230,125.6885 C230,119.6885 232,117.6885 238,117.6885 " fill="none" style="stroke:#181818;stroke-width:1.5;"/><line style="stroke:#181818;stroke-width:1.5;" x1="238" x2="306" y1="117.6885" y2="117.6885"/><path d="M263.2,117.6885 L263.2,114.6885 L269.2,117.6885 L263.2,120.6885 L263.2,117.6885 " fill="#181818" style="stroke:#181818;stroke-width:1.5;"/><path d="M314,135.3032 C314,141.3032 316,143.3032 322,143.3032 " fill="none" style="stroke:#181818;stroke-width:1.5;"/><line style="stroke:#181818;stroke-width:1.5;" x1="314" x2="314" y1="125.6885" y2="135.3032"/><path d="M306,117.6885 C312,117.6885 314,119.6885 314,125.6885 " fill="none" style="stroke:#181818;stroke-width:1.5;"/><line style="stroke:#181818;stroke-width:1.5;" x1="222" x2="237" y1="143.3032" y2="143.3032"/><line style="stroke:#181818;stroke-width:1.5;" x1="307" x2="322" y1="143.3032" y2="143.3032"/><line style="stroke:#181818;stroke-width:1.5;" x1="237" x2="237" y1="143.3032" y2="143.3032"/><rect fill="none" height="29.2295" style="stroke:#181818;stroke-width:0.5;" width="14" x="237" y="128.6885"/><text fill="#000000" font-family="sans-serif" font-size="14" lengthAdjust="spacing" textLength="4" x="242" y="149.8418">:</text><line style="stroke:#181818;stroke-width:1.5;" x1="251" x2="271" y1="143.3032" y2="143.3032"/><rect fill="#F1F1F1" height="29.2295" rx="5" ry="5" style="stroke:#181818;stroke-width:1.5;" width="36" x="271" y="128.6885"/><text fill="#000000" font-family="sans-serif" font-size="14" lengthAdjust="spacing" textLength="26" x="276" y="149.8418">Port</text><line style="stroke:#181818;stroke-width:1.5;" x1="322" x2="342" y1="143.3032" y2="143.3032"/><path d="M350,135.3032 C350,141.3032 348,143.3032 342,143.3032 " fill="none" style="stroke:#181818;stroke-width:1.5;"/><line style="stroke:#181818;stroke-width:1.5;" x1="350" x2="350" y1="125.6885" y2="135.3032"/><path d="M350,125.6885 C350,119.6885 352,117.6885 358,117.6885 " fill="none" style="stroke:#181818;stroke-width:1.5;"/><line style="stroke:#181818;stroke-width:1.5;" x1="358" x2="477" y1="117.6885" y2="117.6885"/><path d="M403.6,117.6885 L403.6,114.6885 L409.6,117.6885 L403.6,120.6885 L403.6,117.6885 " fill="#181818" style="stroke:#181818;stroke-width:1.5;"/><path d="M485,135.3032 C485,141.3032 487,143.3032 493,143.3032 " fill="none" style="stroke:#181818;stroke-width:1.5;"/><line style="stroke:#181818;stroke-width:1.5;" x1="485" x2="485" y1="125.6885" y2="135.3032"/><path d="M477,117.6885 C483,117.6885 485,119.6885 485,125.6885 " fill="none" style="stroke:#181818;stroke-width:1.5;"/><line style="stroke:#181818;stroke-width:1.5;" x1="342" x2="357" y1="143.3032" y2="143.3032"/><line style="stroke:#181818;stroke-width:1.5;" x1="478" x2="493" y1="143.3032" y2="143.3032"/><line style="stroke:#181818;stroke-width:1.5;" x1="357" x2="357" y1="143.3032" y2="143.3032"/><rect fill="none" height="29.2295" style="stroke:#181818;stroke-width:0.5;" width="14" x="357" y="128.6885"/><text fill="#000000" font-family="sans-serif" font-size="14" lengthAdjust="spacing" textLength="4" x="362" y="149.8418">/</text><line style="stroke:#181818;stroke-width:1.5;" x1="371" x2="391" y1="143.3032" y2="143.3032"/><rect fill="#F1F1F1" height="29.2295" rx="5" ry="5" style="stroke:#181818;stroke-width:1.5;" width="87" x="391" y="128.6885"/><text fill="#000000" font-family="sans-serif" font-size="14" lengthAdjust="spacing" textLength="77" x="396" y="149.8418">ContextPath</text><ellipse cx="14" cy="143.3032" fill="none" rx="4" ry="4" style="stroke:#181818;stroke-width:2.0;"/><ellipse cx="523" cy="143.3032" fill="#181818" rx="4" ry="4" style="stroke:#181818;stroke-width:1.0;"/><line style="stroke:#181818;stroke-width:1.5;" x1="18" x2="40" y1="143.3032" y2="143.3032"/><line style="stroke:#181818;stroke-width:1.5;" x1="493" x2="519" y1="143.3032" y2="143.3032"/><path d="M504,143.3032 L504,140.3032 L510,143.3032 L504,146.3032 L504,143.3032 " fill="#181818" style="stroke:#181818;stroke-width:1.5;"/><!--SRC=[NOzTQy9044NVzrSCFYdu4Mqgk5AmzQEj9ZHezQL8MPCnNHfdmsOIxB_lRg4K-ZAmSy-vmyugLfRnH6VmursLkhQ5k4-UU_jj17UmGzle59UKbKOJTw4rQ7KXKVmn5VyoHoVMi4bDuJ0vyE2JgPpprf9UCfQF_k63kI76A_kYurJCa39_NuYaKCJxE886RQKDmR0_2aPX_wQziXfMU8BX689GXe4CRc6pUmKVTqJxCOcWChLD4J9TiTMdcftV4MlLADZMnFg24bvAfFLYyxk09JNQ6heWiLWVuZzW7FOUDF_y7oqSOh70iweBTaPgCasvX7Wt2ISYKfJNAdVTdqRCZUkrNn8sssy0]--></g></svg>