<?xml version="1.0" encoding="UTF-8"?><svg xmlns="http://www.w3.org/2000/svg" xmlns:xlink="http://www.w3.org/1999/xlink" fill-opacity="1" color-rendering="auto" color-interpolation="auto" text-rendering="auto" stroke="black" stroke-linecap="square" width="993" stroke-miterlimit="10" shape-rendering="auto" stroke-opacity="1" fill="black" stroke-dasharray="none" font-weight="normal" stroke-width="1" height="447" font-family="'Dialog'" font-style="normal" stroke-linejoin="miter" font-size="12px" stroke-dashoffset="0" image-rendering="auto">
  <!--Generated by ySVG 2.6-->
  <defs id="genericDefs"/>
  <g>
    <defs id="defs1">
      <clipPath clipPathUnits="userSpaceOnUse" id="clipPath1">
        <path d="M0 0 L993 0 L993 447 L0 447 L0 0 Z"/>
      </clipPath>
      <clipPath clipPathUnits="userSpaceOnUse" id="clipPath2">
        <path d="M280 207 L1273 207 L1273 654 L280 654 L280 207 Z"/>
      </clipPath>
    </defs>
    <g fill="white" text-rendering="geometricPrecision" shape-rendering="geometricPrecision" transform="translate(-280,-207)" stroke="white">
      <rect x="280" width="993" height="447" y="207" clip-path="url(#clipPath2)" stroke="none"/>
    </g>
    <g text-rendering="geometricPrecision" stroke-miterlimit="1.45" shape-rendering="geometricPrecision" transform="matrix(1,0,0,1,-280,-207)" stroke-linecap="butt">
      <rect fill="none" x="537.68" width="496" height="54.576" y="222.788" clip-path="url(#clipPath2)"/>
      <text x="754.6605" xml:space="preserve" y="254.6112" clip-path="url(#clipPath2)" font-family="sans-serif" stroke="none">Blockchain</text>
    </g>
    <g fill="rgb(204,204,204)" text-rendering="geometricPrecision" shape-rendering="geometricPrecision" transform="matrix(1,0,0,1,-280,-207)" stroke="rgb(204,204,204)">
      <rect x="863.104" width="103.216" height="54.576" y="439.116" clip-path="url(#clipPath2)" stroke="none"/>
    </g>
    <g text-rendering="geometricPrecision" stroke-miterlimit="1.45" shape-rendering="geometricPrecision" transform="matrix(1,0,0,1,-280,-207)" stroke-linecap="butt">
      <rect fill="none" x="863.104" width="103.216" height="54.576" y="439.116" clip-path="url(#clipPath2)"/>
      <text x="907.1592" xml:space="preserve" y="470.9391" clip-path="url(#clipPath2)" font-family="sans-serif" stroke="none">bb</text>
      <rect fill="none" x="568.4" width="103.216" height="54.576" y="439.116" clip-path="url(#clipPath2)"/>
      <text x="613.381" xml:space="preserve" y="470.9391" clip-path="url(#clipPath2)" font-family="sans-serif" stroke="none">aa</text>
      <path fill="none" d="M952.312 332.72 L976.384 332.72 L976.384 347.72 L991.384 347.72 L991.384 383.76 L952.312 383.76 Z" clip-path="url(#clipPath2)"/>
      <path fill="none" d="M976.384 332.72 L976.384 347.72 L991.384 347.72 Z" clip-path="url(#clipPath2)" fill-rule="evenodd"/>
      <text x="938.832" xml:space="preserve" y="319.9632" clip-path="url(#clipPath2)" font-family="sans-serif" stroke="none">A's DID Doc 조회</text>
      <path fill="none" d="M714.96 301.764 L804.76 301.764 L804.76 316.764 L819.76 316.764 L819.76 371.764 L714.96 371.764 Z" clip-path="url(#clipPath2)"/>
      <path fill="none" d="M804.76 301.764 L804.76 316.764 L819.76 316.764 Z" clip-path="url(#clipPath2)" fill-rule="evenodd"/>
      <text x="719.0553" xml:space="preserve" y="320.0999" clip-path="url(#clipPath2)" font-family="sans-serif" stroke="none">Data</text>
      <text x="719.0553" xml:space="preserve" y="334.2328" clip-path="url(#clipPath2)" font-family="sans-serif" stroke="none">Proof:</text>
      <text x="719.0553" xml:space="preserve" y="348.3656" clip-path="url(#clipPath2)" font-family="sans-serif" stroke="none">   aa's Public Key</text>
      <text x="719.0553" xml:space="preserve" y="362.4984" clip-path="url(#clipPath2)" font-family="sans-serif" stroke="none">   aa's Sign</text>
      <rect fill="none" x="295.72" width="103.216" height="54.576" y="439.116" clip-path="url(#clipPath2)"/>
      <text x="343.1884" xml:space="preserve" y="470.9391" clip-path="url(#clipPath2)" font-family="sans-serif" stroke="none">A</text>
      <rect fill="none" x="567.608" width="104.8" height="76.176" y="544.972" clip-path="url(#clipPath2)"/>
      <text x="571.7033" xml:space="preserve" y="566.3959" clip-path="url(#clipPath2)" font-family="sans-serif" stroke="none">aa's 인증서:</text>
      <text x="571.7033" xml:space="preserve" y="580.5287" clip-path="url(#clipPath2)" font-family="sans-serif" stroke="none">   aa's 정보</text>
      <text x="571.7033" xml:space="preserve" y="594.6616" clip-path="url(#clipPath2)" font-family="sans-serif" stroke="none">   aa's Public Key</text>
      <text x="571.7033" xml:space="preserve" y="608.7944" clip-path="url(#clipPath2)" font-family="sans-serif" stroke="none">   A's Sign</text>
    </g>
    <g fill="rgb(255,204,0)" text-rendering="geometricPrecision" shape-rendering="geometricPrecision" transform="matrix(1,0,0,1,-280,-207)" stroke="rgb(255,204,0)">
      <path d="M659.408 532.892 L661.868 528.9528 L666.5094 528.792 L664.328 524.692 L666.5094 520.592 L661.868 520.4312 L659.408 516.492 L656.948 520.4312 L652.3066 520.592 L654.488 524.692 L652.3066 528.792 L656.948 528.9528 Z" fill-rule="evenodd" clip-path="url(#clipPath2)" stroke="none"/>
    </g>
    <g text-rendering="geometricPrecision" stroke-miterlimit="1.45" shape-rendering="geometricPrecision" transform="matrix(1,0,0,1,-280,-207)" stroke-linecap="butt">
      <path fill="none" d="M659.408 532.892 L661.868 528.9528 L666.5094 528.792 L664.328 524.692 L666.5094 520.592 L661.868 520.4312 L659.408 516.492 L656.948 520.4312 L652.3066 520.592 L654.488 524.692 L652.3066 528.792 L656.948 528.9528 Z" fill-rule="evenodd" clip-path="url(#clipPath2)"/>
      <rect fill="none" x="714.96" width="104.8" height="76.176" y="382.092" clip-path="url(#clipPath2)"/>
      <text x="719.0553" xml:space="preserve" y="403.5159" clip-path="url(#clipPath2)" font-family="sans-serif" stroke="none">aa's 인증서:</text>
      <text x="719.0553" xml:space="preserve" y="417.6487" clip-path="url(#clipPath2)" font-family="sans-serif" stroke="none">   aa's 정보</text>
      <text x="719.0553" xml:space="preserve" y="431.7816" clip-path="url(#clipPath2)" font-family="sans-serif" stroke="none">   aa's Public Key</text>
      <text x="719.0553" xml:space="preserve" y="445.9144" clip-path="url(#clipPath2)" font-family="sans-serif" stroke="none">   A's Sign</text>
    </g>
    <g fill="rgb(255,204,0)" text-rendering="geometricPrecision" shape-rendering="geometricPrecision" transform="matrix(1,0,0,1,-280,-207)" stroke="rgb(255,204,0)">
      <path d="M806.76 403.292 L809.22 399.3528 L813.8614 399.192 L811.68 395.092 L813.8614 390.992 L809.22 390.8311 L806.76 386.892 L804.3 390.8311 L799.6586 390.992 L801.84 395.092 L799.6586 399.192 L804.3 399.3528 Z" fill-rule="evenodd" clip-path="url(#clipPath2)" stroke="none"/>
    </g>
    <g text-rendering="geometricPrecision" stroke-miterlimit="1.45" shape-rendering="geometricPrecision" transform="matrix(1,0,0,1,-280,-207)" stroke-linecap="butt">
      <path fill="none" d="M806.76 403.292 L809.22 399.3528 L813.8614 399.192 L811.68 395.092 L813.8614 390.992 L809.22 390.8311 L806.76 386.892 L804.3 390.8311 L799.6586 390.992 L801.84 395.092 L799.6586 399.192 L804.3 399.3528 Z" fill-rule="evenodd" clip-path="url(#clipPath2)"/>
    </g>
    <g fill="rgb(204,204,204)" text-rendering="geometricPrecision" shape-rendering="geometricPrecision" transform="matrix(1,0,0,1,-280,-207)" stroke="rgb(204,204,204)">
      <rect x="1154.472" width="103.216" height="54.576" y="439.116" clip-path="url(#clipPath2)" stroke="none"/>
    </g>
    <g text-rendering="geometricPrecision" stroke-miterlimit="1.45" shape-rendering="geometricPrecision" transform="matrix(1,0,0,1,-280,-207)" stroke-linecap="butt">
      <rect fill="none" x="1154.472" width="103.216" height="54.576" y="439.116" clip-path="url(#clipPath2)"/>
      <text x="1202.6288" xml:space="preserve" y="470.9391" clip-path="url(#clipPath2)" font-family="sans-serif" stroke="none">B</text>
    </g>
    <g fill="rgb(204,204,204)" text-rendering="geometricPrecision" shape-rendering="geometricPrecision" transform="matrix(1,0,0,1,-280,-207)" stroke="rgb(204,204,204)">
      <rect x="863.104" width="103.216" height="76.176" y="549.048" clip-path="url(#clipPath2)" stroke="none"/>
    </g>
    <g text-rendering="geometricPrecision" stroke-miterlimit="1.45" shape-rendering="geometricPrecision" transform="matrix(1,0,0,1,-280,-207)" stroke-linecap="butt">
      <rect fill="none" x="863.104" width="103.216" height="76.176" y="549.048" clip-path="url(#clipPath2)"/>
      <text x="865.4815" xml:space="preserve" y="570.4719" clip-path="url(#clipPath2)" font-family="sans-serif" stroke="none">bb's 인증서:</text>
      <text x="865.4815" xml:space="preserve" y="584.6047" clip-path="url(#clipPath2)" font-family="sans-serif" stroke="none">   bb's 정보</text>
      <text x="865.4815" xml:space="preserve" y="598.7375" clip-path="url(#clipPath2)" font-family="sans-serif" stroke="none">   bb's Public Key</text>
      <text x="865.4815" xml:space="preserve" y="612.8704" clip-path="url(#clipPath2)" font-family="sans-serif" stroke="none">   B's Sign</text>
    </g>
    <g fill="rgb(255,204,0)" text-rendering="geometricPrecision" shape-rendering="geometricPrecision" transform="matrix(1,0,0,1,-280,-207)" stroke="rgb(255,204,0)">
      <path d="M950.24 583.844 L952.7 579.9048 L957.3414 579.744 L955.16 575.644 L957.3414 571.544 L952.7 571.3832 L950.24 567.444 L947.78 571.3832 L943.1386 571.544 L945.32 575.644 L943.1386 579.744 L947.78 579.9048 Z" fill-rule="evenodd" clip-path="url(#clipPath2)" stroke="none"/>
    </g>
    <g text-rendering="geometricPrecision" stroke-miterlimit="1.45" shape-rendering="geometricPrecision" transform="matrix(1,0,0,1,-280,-207)" stroke-linecap="butt">
      <path fill="none" d="M950.24 583.844 L952.7 579.9048 L957.3414 579.744 L955.16 575.644 L957.3414 571.544 L952.7 571.3832 L950.24 567.444 L947.78 571.3832 L943.1386 571.544 L945.32 575.644 L943.1386 579.744 L947.78 579.9048 Z" fill-rule="evenodd" clip-path="url(#clipPath2)"/>
    </g>
    <g fill="silver" text-rendering="geometricPrecision" shape-rendering="geometricPrecision" transform="matrix(1,0,0,1,-280,-207)" stroke="silver">
      <path d="M715.356 482.316 L805.156 482.316 L805.156 497.316 L820.156 497.316 L820.156 552.316 L715.356 552.316 Z" stroke="none" clip-path="url(#clipPath2)"/>
      <path fill="white" d="M805.156 482.316 L805.156 497.316 L820.156 497.316 Z" clip-path="url(#clipPath2)" fill-rule="evenodd" stroke="none"/>
    </g>
    <g text-rendering="geometricPrecision" stroke-miterlimit="1.45" shape-rendering="geometricPrecision" transform="matrix(1,0,0,1,-280,-207)" stroke-linecap="butt">
      <path fill="none" d="M715.356 482.316 L805.156 482.316 L805.156 497.316 L820.156 497.316 L820.156 552.316 L715.356 552.316 Z" clip-path="url(#clipPath2)"/>
      <path fill="none" d="M805.156 482.316 L805.156 497.316 L820.156 497.316 Z" clip-path="url(#clipPath2)" fill-rule="evenodd"/>
      <text x="718.5255" xml:space="preserve" y="500.6519" clip-path="url(#clipPath2)" font-family="sans-serif" stroke="none">Data</text>
      <text x="718.5255" xml:space="preserve" y="514.7847" clip-path="url(#clipPath2)" font-family="sans-serif" stroke="none">Proof:</text>
      <text x="718.5255" xml:space="preserve" y="528.9175" clip-path="url(#clipPath2)" font-family="sans-serif" stroke="none">   bb's Public Key</text>
      <text x="718.5255" xml:space="preserve" y="543.0504" clip-path="url(#clipPath2)" font-family="sans-serif" stroke="none">   bb's Sign</text>
    </g>
    <g fill="silver" text-rendering="geometricPrecision" shape-rendering="geometricPrecision" transform="matrix(1,0,0,1,-280,-207)" stroke="silver">
      <rect x="715.356" width="104.8" height="76.176" y="562.644" clip-path="url(#clipPath2)" stroke="none"/>
    </g>
    <g text-rendering="geometricPrecision" stroke-miterlimit="1.45" shape-rendering="geometricPrecision" transform="matrix(1,0,0,1,-280,-207)" stroke-linecap="butt">
      <rect fill="none" x="715.356" width="104.8" height="76.176" y="562.644" clip-path="url(#clipPath2)"/>
      <text x="718.5255" xml:space="preserve" y="584.0679" clip-path="url(#clipPath2)" font-family="sans-serif" stroke="none">bb's 인증서:</text>
      <text x="718.5255" xml:space="preserve" y="598.2007" clip-path="url(#clipPath2)" font-family="sans-serif" stroke="none">   bb's 정보</text>
      <text x="718.5255" xml:space="preserve" y="612.3336" clip-path="url(#clipPath2)" font-family="sans-serif" stroke="none">   bb's Public Key</text>
      <text x="718.5255" xml:space="preserve" y="626.4664" clip-path="url(#clipPath2)" font-family="sans-serif" stroke="none">   B's Sign</text>
    </g>
    <g fill="rgb(255,204,0)" text-rendering="geometricPrecision" shape-rendering="geometricPrecision" transform="matrix(1,0,0,1,-280,-207)" stroke="rgb(255,204,0)">
      <path d="M807.156 583.844 L809.616 579.9048 L814.2574 579.744 L812.076 575.644 L814.2574 571.544 L809.616 571.3832 L807.156 567.444 L804.696 571.3832 L800.0546 571.544 L802.236 575.644 L800.0546 579.744 L804.696 579.9048 Z" fill-rule="evenodd" clip-path="url(#clipPath2)" stroke="none"/>
    </g>
    <g text-rendering="geometricPrecision" stroke-miterlimit="1.45" shape-rendering="geometricPrecision" transform="matrix(1,0,0,1,-280,-207)" stroke-linecap="butt">
      <path fill="none" d="M807.156 583.844 L809.616 579.9048 L814.2574 579.744 L812.076 575.644 L814.2574 571.544 L809.616 571.3832 L807.156 567.444 L804.696 571.3832 L800.0546 571.544 L802.236 575.644 L800.0546 579.744 L804.696 579.9048 Z" fill-rule="evenodd" clip-path="url(#clipPath2)"/>
    </g>
    <g fill="silver" text-rendering="geometricPrecision" shape-rendering="geometricPrecision" transform="matrix(1,0,0,1,-280,-207)" stroke="silver">
      <path d="M515.648 332.72 L539.72 332.72 L539.72 347.72 L554.72 347.72 L554.72 383.76 L515.648 383.76 Z" stroke="none" clip-path="url(#clipPath2)"/>
      <path fill="white" d="M539.72 332.72 L539.72 347.72 L554.72 347.72 Z" clip-path="url(#clipPath2)" fill-rule="evenodd" stroke="none"/>
    </g>
    <g text-rendering="geometricPrecision" stroke-miterlimit="1.45" shape-rendering="geometricPrecision" transform="matrix(1,0,0,1,-280,-207)" stroke-linecap="butt">
      <path fill="none" d="M515.648 332.72 L539.72 332.72 L539.72 347.72 L554.72 347.72 L554.72 383.76 L515.648 383.76 Z" clip-path="url(#clipPath2)"/>
      <path fill="none" d="M539.72 332.72 L539.72 347.72 L554.72 347.72 Z" clip-path="url(#clipPath2)" fill-rule="evenodd"/>
      <text x="502.8564" xml:space="preserve" y="319.9632" clip-path="url(#clipPath2)" font-family="sans-serif" stroke="none">B's DID Doc 조회</text>
      <path fill="none" d="M931.4203 493.6672 L931.3318 495.1598 L931.9698 499.644 L933.4451 503.8466 L935.6811 507.6613 L938.6009 510.9818 L942.1279 513.7018 L946.1851 515.7153 L950.696 516.916 L955.3558 517.1922 L959.8401 516.5543 L964.0426 515.0789 L967.8573 512.843 L971.1777 509.9231 L973.8979 506.3962 L975.9114 502.3389 L977.112 497.828 L977.3882 493.1682 L976.7502 488.684 L975.2749 484.4814 L973.0389 480.6667 L972.2812 479.8051 L972.2013 479.745" clip-path="url(#clipPath2)" stroke="blue"/>
      <path fill="blue" d="M966.2325 474.4183 L971.8564 486.1389 L972.9473 480.4109 L978.5148 478.6779 Z" clip-path="url(#clipPath2)" stroke="none"/>
      <text x="956.4544" y="529.7272" clip-path="url(#clipPath2)" fill="blue" font-family="sans-serif" stroke="none" xml:space="preserve">- aa's 인증서의 A's Sign 검증</text>
      <text x="956.4544" y="543.86" clip-path="url(#clipPath2)" fill="blue" font-family="sans-serif" stroke="none" xml:space="preserve">- aa's Sign 검증</text>
      <path fill="none" d="M914.712 431.116 L914.712 285.3961" clip-path="url(#clipPath2)"/>
      <path d="M914.712 439.116 L919.712 427.116 L914.712 430.116 L909.712 427.116 Z" clip-path="url(#clipPath2)" stroke="none"/>
      <path d="M914.712 277.3961 L909.712 289.3961 L914.712 286.3961 L919.712 289.3961 Z" clip-path="url(#clipPath2)" stroke="none"/>
      <path fill="none" d="M568.399 475.1716 L567.6946 475.4879 L563.9846 478.1509 L560.9172 481.4308 L558.5516 485.2095 L556.9467 489.3687 L556.1617 493.7903 L556.2558 498.3561 L557.288 502.948 L559.2159 507.2414 L561.879 510.9514 L565.1589 514.0187 L568.9376 516.3845 L573.0967 517.9893 L577.5184 518.7743 L582.0842 518.6802 L586.676 517.648 L590.9694 515.7201 L594.6794 513.0571 L597.7468 509.7771 L600.1125 505.9985 L601.7173 501.8392 L601.752 501.6439 L601.7499 501.5439" clip-path="url(#clipPath2)" stroke="blue"/>
      <path fill="blue" d="M602.4336 493.5732 L596.4264 505.102 L601.6645 502.5403 L606.3898 505.9566 Z" clip-path="url(#clipPath2)" stroke="none"/>
      <text x="419.4679" y="527.8807" clip-path="url(#clipPath2)" fill="blue" font-family="sans-serif" stroke="none" xml:space="preserve">- bb's 인증서의 B's Sign 검증</text>
      <text x="419.4679" y="542.0135" clip-path="url(#clipPath2)" fill="blue" font-family="sans-serif" stroke="none" xml:space="preserve">- bb's Sign 검증</text>
      <path fill="none" d="M671.616 466.404 L855.104 466.404" clip-path="url(#clipPath2)"/>
      <path d="M863.104 466.404 L851.104 461.404 L854.104 466.404 L851.104 471.404 Z" clip-path="url(#clipPath2)" stroke="none"/>
      <path fill="none" d="M620.008 431.116 L620.008 285.3957" clip-path="url(#clipPath2)"/>
      <path d="M620.008 439.116 L625.008 427.116 L620.008 430.116 L615.008 427.116 Z" clip-path="url(#clipPath2)" stroke="none"/>
      <path d="M620.008 277.3957 L615.008 289.3957 L620.008 286.3957 L625.008 289.3957 Z" clip-path="url(#clipPath2)" stroke="none"/>
      <path fill="none" d="M398.936 466.404 L560.4 466.404" clip-path="url(#clipPath2)"/>
      <path d="M568.4 466.404 L556.4 461.404 L559.4 466.404 L556.4 471.404 Z" clip-path="url(#clipPath2)" stroke="none"/>
      <text x="442.0081" xml:space="preserve" y="456.9391" clip-path="url(#clipPath2)" font-family="sans-serif" stroke="none">aa's 인증서 전달</text>
      <path fill="none" stroke-dasharray="6,2" d="M620.008 493.692 L620.008 544.972" clip-path="url(#clipPath2)"/>
      <path fill="none" stroke-dasharray="6,2" d="M767.36 371.7515 L767.36 382.092" clip-path="url(#clipPath2)"/>
      <path fill="none" d="M1154.472 466.404 L974.32 466.404" clip-path="url(#clipPath2)"/>
      <path d="M966.32 466.404 L978.32 471.404 L975.32 466.404 L978.32 461.404 Z" clip-path="url(#clipPath2)" stroke="none"/>
      <text x="1018.6638" xml:space="preserve" y="440.9391" clip-path="url(#clipPath2)" font-family="sans-serif" stroke="none">bb's 인증서 전달</text>
      <path fill="none" stroke-dasharray="6,2" d="M914.712 493.692 L914.712 549.048" clip-path="url(#clipPath2)"/>
      <path fill="none" stroke-dasharray="6,2" d="M767.756 552.3035 L767.756 562.644" clip-path="url(#clipPath2)"/>
    </g>
  </g>
</svg>
