<?xml version="1.0" encoding="UTF-8"?><svg xmlns="http://www.w3.org/2000/svg" xmlns:xlink="http://www.w3.org/1999/xlink" fill-opacity="1" color-rendering="auto" color-interpolation="auto" text-rendering="auto" stroke="black" stroke-linecap="square" width="745" stroke-miterlimit="10" shape-rendering="auto" stroke-opacity="1" fill="black" stroke-dasharray="none" font-weight="normal" stroke-width="1" height="1727" font-family="'Dialog'" font-style="normal" stroke-linejoin="miter" font-size="12px" stroke-dashoffset="0" image-rendering="auto">
  <!--Generated by ySVG 2.6-->
  <defs id="genericDefs"/>
  <g>
    <defs id="defs1">
      <clipPath clipPathUnits="userSpaceOnUse" id="clipPath1">
        <path d="M0 0 L745 0 L745 1727 L0 1727 L0 0 Z"/>
      </clipPath>
      <clipPath clipPathUnits="userSpaceOnUse" id="clipPath2">
        <path d="M333 -453 L1078 -453 L1078 1274 L333 1274 L333 -453 Z"/>
      </clipPath>
    </defs>
    <g fill="white" text-rendering="geometricPrecision" shape-rendering="geometricPrecision" transform="translate(-333,453)" stroke="white">
      <rect x="333" width="745" height="1727" y="-453" clip-path="url(#clipPath2)" stroke="none"/>
    </g>
    <g fill="rgb(235,235,235)" text-rendering="geometricPrecision" shape-rendering="geometricPrecision" transform="matrix(1,0,0,1,-333,453)" stroke="rgb(235,235,235)">
      <rect x="515" width="442" height="39.332" y="-437.3806" clip-path="url(#clipPath2)" stroke="none"/>
    </g>
    <g font-size="15px" stroke-linecap="butt" transform="matrix(1,0,0,1,-333,453)" text-rendering="geometricPrecision" font-family="sans-serif" shape-rendering="geometricPrecision" stroke-miterlimit="1.45">
      <text x="670.397" xml:space="preserve" y="-420.8787" clip-path="url(#clipPath2)" stroke="none">&lt;Pre-Condition&gt; </text>
      <text x="668.793" xml:space="preserve" y="-403.2126" clip-path="url(#clipPath2)" stroke="none">Trust Environment</text>
      <rect x="515" y="-437.3806" clip-path="url(#clipPath2)" fill="none" width="442" stroke-dasharray="6,2" rx="4" ry="4" height="136.332"/>
    </g>
    <g text-rendering="geometricPrecision" stroke-miterlimit="1.45" shape-rendering="geometricPrecision" transform="matrix(1,0,0,1,-333,453)" stroke-linecap="butt">
      <path fill="none" d="M668 -383.0486 L773 -383.0486 L773 -316.0486 L668 -316.0486 Z" clip-path="url(#clipPath2)"/>
      <text x="683.7236" xml:space="preserve" y="-359.1462" clip-path="url(#clipPath2)" font-family="sans-serif" stroke="none">Register TAS</text>
      <text x="704.3779" xml:space="preserve" y="-345.0134" clip-path="url(#clipPath2)" font-family="sans-serif" stroke="none"> with </text>
      <text x="689.6299" xml:space="preserve" y="-330.8806" clip-path="url(#clipPath2)" font-family="sans-serif" stroke="none">committee</text>
    </g>
    <g text-rendering="geometricPrecision" stroke-miterlimit="1.45" shape-rendering="geometricPrecision" transform="matrix(1,0,0,1,-333,453)" stroke-linecap="butt">
      <circle fill="none" r="20" clip-path="url(#clipPath2)" cx="570" cy="-349.5486"/>
    </g>
    <g text-rendering="geometricPrecision" stroke-miterlimit="1.45" shape-rendering="geometricPrecision" transform="matrix(1,0,0,1,-333,453)" stroke-linecap="butt">
      <path fill="none" d="M837 -383.0486 L942 -383.0486 L942 -316.0486 L837 -316.0486 Z" clip-path="url(#clipPath2)"/>
      <text x="842.5547" xml:space="preserve" y="-359.1462" clip-path="url(#clipPath2)" font-family="sans-serif" stroke="none">Register Entities</text>
      <text x="875.5518" xml:space="preserve" y="-345.0134" clip-path="url(#clipPath2)" font-family="sans-serif" stroke="none">from</text>
      <text x="878.335" xml:space="preserve" y="-330.8806" clip-path="url(#clipPath2)" font-family="sans-serif" stroke="none">TAS</text>
    </g>
    <g text-rendering="geometricPrecision" stroke-miterlimit="1.45" shape-rendering="geometricPrecision" transform="matrix(1,0,0,1,-333,453)" stroke-linecap="butt">
      <path fill="none" d="M590.025 -349.5486 L659.9724 -349.5486" clip-path="url(#clipPath2)"/>
      <path d="M667.9724 -349.5486 L655.9724 -354.5486 L658.9724 -349.5486 L655.9724 -344.5486 Z" clip-path="url(#clipPath2)" stroke="none"/>
      <path fill="none" d="M773.0237 -349.5486 L828.9776 -349.5486" clip-path="url(#clipPath2)"/>
      <path d="M836.9776 -349.5486 L824.9776 -354.5486 L827.9776 -349.5486 L824.9776 -344.5486 Z" clip-path="url(#clipPath2)" stroke="none"/>
    </g>
    <g fill="rgb(235,235,235)" text-rendering="geometricPrecision" shape-rendering="geometricPrecision" transform="matrix(1,0,0,1,-333,453)" stroke="rgb(235,235,235)">
      <rect x="515" width="442" height="39.332" y="-235.3806" clip-path="url(#clipPath2)" stroke="none"/>
    </g>
    <g font-size="15px" stroke-linecap="butt" transform="matrix(1,0,0,1,-333,453)" text-rendering="geometricPrecision" font-family="sans-serif" shape-rendering="geometricPrecision" stroke-miterlimit="1.45">
      <text x="674.7952" xml:space="preserve" y="-218.8787" clip-path="url(#clipPath2)" stroke="none">&lt;out-of-scope&gt;</text>
      <text x="669.5291" xml:space="preserve" y="-201.2127" clip-path="url(#clipPath2)" stroke="none">User Identification</text>
      <rect x="515" y="-235.3806" clip-path="url(#clipPath2)" fill="none" width="442" stroke-dasharray="6,2" rx="4" ry="4" height="104.332"/>
    </g>
    <g text-rendering="geometricPrecision" stroke-miterlimit="1.45" shape-rendering="geometricPrecision" transform="matrix(1,0,0,1,-333,453)" stroke-linecap="butt">
      <path fill="none" d="M635.5 -181.0486 L836.5 -181.0486 L836.5 -146.0486 L635.5 -146.0486 Z" clip-path="url(#clipPath2)"/>
      <text x="665.21" xml:space="preserve" y="-159.0134" clip-path="url(#clipPath2)" font-family="sans-serif" stroke="none">User identification (KYC)</text>
    </g>
    <g fill="rgb(235,235,235)" text-rendering="geometricPrecision" shape-rendering="geometricPrecision" transform="matrix(1,0,0,1,-333,453)" stroke="rgb(235,235,235)">
      <rect x="542" width="381" height="21.666" y="-62.7146" clip-path="url(#clipPath2)" stroke="none"/>
    </g>
    <g font-size="15px" stroke-linecap="butt" transform="matrix(1,0,0,1,-333,453)" text-rendering="geometricPrecision" font-family="sans-serif" shape-rendering="geometricPrecision" stroke-miterlimit="1.45">
      <text x="659.7375" xml:space="preserve" y="-46.2127" clip-path="url(#clipPath2)" stroke="none">Service Engagemnet</text>
      <rect x="542" y="-62.7146" clip-path="url(#clipPath2)" fill="none" width="381" stroke-dasharray="6,2" rx="4" ry="4" height="268.666"/>
    </g>
    <g text-rendering="geometricPrecision" stroke-miterlimit="1.45" shape-rendering="geometricPrecision" transform="matrix(1,0,0,1,-333,453)" stroke-linecap="butt">
      <rect x="686" y="-26.0486" clip-path="url(#clipPath2)" fill="none" width="100" rx="20" ry="20" height="40"/>
      <text x="702.4785" xml:space="preserve" y="-1.5134" clip-path="url(#clipPath2)" font-family="sans-serif" stroke="none">Launch app</text>
    </g>
    <g text-rendering="geometricPrecision" stroke-miterlimit="1.45" shape-rendering="geometricPrecision" transform="matrix(1,0,0,1,-333,453)" stroke-linecap="butt">
      <path fill="none" d="M557 60.9514 L662 60.9514 L662 113.9514 L557 113.9514 Z" clip-path="url(#clipPath2)"/>
      <text x="571.0186" xml:space="preserve" y="84.9202" clip-path="url(#clipPath2)" font-family="sans-serif" stroke="none">Query Issuer,</text>
      <text x="577.6367" xml:space="preserve" y="99.053" clip-path="url(#clipPath2)" font-family="sans-serif" stroke="none">Verifier list</text>
    </g>
    <g text-rendering="geometricPrecision" stroke-miterlimit="1.45" shape-rendering="geometricPrecision" transform="matrix(1,0,0,1,-333,453)" stroke-linecap="butt">
      <path fill="none" d="M803 60.9514 L908 60.9514 L908 113.9514 L803 113.9514 Z" clip-path="url(#clipPath2)"/>
      <text x="819.6406" xml:space="preserve" y="91.9866" clip-path="url(#clipPath2)" font-family="sans-serif" stroke="none">Select wallet</text>
    </g>
    <g text-rendering="geometricPrecision" stroke-miterlimit="1.45" shape-rendering="geometricPrecision" transform="matrix(1,0,0,1,-333,453)" stroke-linecap="butt">
      <path fill="none" d="M680 137.9514 L785 137.9514 L785 190.9514 L680 190.9514 Z" clip-path="url(#clipPath2)"/>
      <text x="693.0283" xml:space="preserve" y="154.8537" clip-path="url(#clipPath2)" font-family="sans-serif" stroke="none">Scan QR code</text>
      <text x="726.3594" xml:space="preserve" y="168.9866" clip-path="url(#clipPath2)" font-family="sans-serif" stroke="none">or</text>
      <text x="691.3203" xml:space="preserve" y="183.1194" clip-path="url(#clipPath2)" font-family="sans-serif" stroke="none">Push message</text>
    </g>
    <g text-rendering="geometricPrecision" stroke-miterlimit="1.45" shape-rendering="geometricPrecision" transform="matrix(1,0,0,1,-333,453)" stroke-linecap="butt">
      <path fill="none" d="M685.9991 -6.0486 L609.5 -6.0486 L609.5 52.9263" clip-path="url(#clipPath2)"/>
      <path d="M609.5 60.9263 L614.5 48.9263 L609.5 51.9263 L604.5 48.9263 Z" clip-path="url(#clipPath2)" stroke="none"/>
      <path fill="none" d="M785.9764 -6.0486 L855.5 -6.0486 L855.5 52.9263" clip-path="url(#clipPath2)"/>
      <path d="M855.5 60.9263 L860.5 48.9263 L855.5 51.9263 L850.5 48.9263 Z" clip-path="url(#clipPath2)" stroke="none"/>
      <path fill="none" d="M662.0212 87.4514 L732.5 87.4514 L732.5 129.9451" clip-path="url(#clipPath2)"/>
      <path d="M732.5 137.9451 L737.5 125.9451 L732.5 128.9451 L727.5 125.9451 Z" clip-path="url(#clipPath2)" stroke="none"/>
      <path fill="none" d="M802.9788 87.4514 L732.5 87.4514 L732.5 129.958" clip-path="url(#clipPath2)"/>
      <path d="M732.5 137.958 L737.5 125.958 L732.5 128.958 L727.5 125.958 Z" clip-path="url(#clipPath2)" stroke="none"/>
    </g>
    <g fill="rgb(235,235,235)" text-rendering="geometricPrecision" shape-rendering="geometricPrecision" transform="matrix(1,0,0,1,-333,453)" stroke="rgb(235,235,235)">
      <rect x="542" width="381" height="21.666" y="269.2854" clip-path="url(#clipPath2)" stroke="none"/>
    </g>
    <g font-size="15px" stroke-linecap="butt" transform="matrix(1,0,0,1,-333,453)" text-rendering="geometricPrecision" font-family="sans-serif" shape-rendering="geometricPrecision" stroke-miterlimit="1.45">
      <text x="655.0574" xml:space="preserve" y="285.7874" clip-path="url(#clipPath2)" stroke="none">Trust Secure Channel</text>
      <rect x="542" y="269.2854" clip-path="url(#clipPath2)" fill="none" width="381" stroke-dasharray="6,2" rx="4" ry="4" height="378.0144"/>
    </g>
    <g text-rendering="geometricPrecision" stroke-miterlimit="1.45" shape-rendering="geometricPrecision" transform="matrix(1,0,0,1,-333,453)" stroke-linecap="butt">
      <path fill="none" d="M726.4267 305.9514 L766.4267 325.9514 L726.4267 345.9514 L686.4267 325.9514 Z" clip-path="url(#clipPath2)"/>
      <text x="700.499" xml:space="preserve" y="330.4866" clip-path="url(#clipPath2)" font-family="sans-serif" stroke="none">Has DID?</text>
    </g>
    <g text-rendering="geometricPrecision" stroke-miterlimit="1.45" shape-rendering="geometricPrecision" transform="matrix(1,0,0,1,-333,453)" stroke-linecap="butt">
      <path fill="none" d="M591.0524 392.7227 L861.801 392.7227 L861.801 445.7227 L591.0524 445.7227 Z" clip-path="url(#clipPath2)"/>
      <text x="636.4296" xml:space="preserve" y="416.6915" clip-path="url(#clipPath2)" font-family="sans-serif" stroke="none">Optionally, Excute mutual auth</text>
      <text x="622.2236" xml:space="preserve" y="430.8243" clip-path="url(#clipPath2)" font-family="sans-serif" stroke="none">between each Entity using DID Auth</text>
    </g>
    <g text-rendering="geometricPrecision" stroke-miterlimit="1.45" shape-rendering="geometricPrecision" transform="matrix(1,0,0,1,-333,453)" stroke-linecap="butt">
      <path fill="none" d="M591.0524 486.0112 L861.801 486.0112 L861.801 539.0112 L591.0524 539.0112 Z" clip-path="url(#clipPath2)"/>
      <text x="628.8095" xml:space="preserve" y="509.98" clip-path="url(#clipPath2)" font-family="sans-serif" stroke="none">Establish secure channel between</text>
      <text x="629.1904" xml:space="preserve" y="524.1128" clip-path="url(#clipPath2)" font-family="sans-serif" stroke="none">each Entity using key distribution</text>
    </g>
    <g text-rendering="geometricPrecision" stroke-miterlimit="1.45" shape-rendering="geometricPrecision" transform="matrix(1,0,0,1,-333,453)" stroke-linecap="butt">
      <path fill="none" d="M591.0524 579.2997 L861.801 579.2997 L861.801 632.2997 L591.0524 632.2997 Z" clip-path="url(#clipPath2)"/>
      <text x="665.4951" xml:space="preserve" y="610.3349" clip-path="url(#clipPath2)" font-family="sans-serif" stroke="none">Open secure channel</text>
    </g>
    <g text-rendering="geometricPrecision" stroke-miterlimit="1.45" shape-rendering="geometricPrecision" transform="matrix(1,0,0,1,-333,453)" stroke-linecap="butt">
      <path fill="none" d="M721.809 657.9919 L761.809 677.9919 L721.809 697.9919 L681.809 677.9919 Z" clip-path="url(#clipPath2)"/>
      <text x="695.8812" xml:space="preserve" y="682.5271" clip-path="url(#clipPath2)" font-family="sans-serif" stroke="none">Has DID?</text>
    </g>
    <g text-rendering="geometricPrecision" stroke-miterlimit="1.45" shape-rendering="geometricPrecision" transform="matrix(1,0,0,1,-333,453)" stroke-linecap="butt">
      <path fill="none" d="M726.4267 345.9446 L726.4267 384.7095" clip-path="url(#clipPath2)"/>
      <path d="M726.4267 392.7095 L731.4267 380.7095 L726.4267 383.7095 L721.4267 380.7095 Z" clip-path="url(#clipPath2)" stroke="none"/>
      <text x="707.0275" xml:space="preserve" y="369.3517" clip-path="url(#clipPath2)" font-family="sans-serif" stroke="none">Y</text>
      <path fill="none" d="M726.4267 445.6879 L726.4267 477.9842" clip-path="url(#clipPath2)"/>
      <path d="M726.4267 485.9842 L731.4267 473.9842 L726.4267 476.9842 L721.4267 473.9842 Z" clip-path="url(#clipPath2)" stroke="none"/>
      <path fill="none" d="M766.4302 325.9514 L905.1122 325.9514 L905.1122 512.5112 L869.7932 512.5112" clip-path="url(#clipPath2)"/>
      <path d="M861.7932 512.5112 L873.7932 517.5112 L870.7932 512.5112 L873.7932 507.5112 Z" clip-path="url(#clipPath2)" stroke="none"/>
      <text x="798.3007" xml:space="preserve" y="349.3965" clip-path="url(#clipPath2)" font-family="sans-serif" stroke="none">N</text>
      <path fill="none" d="M726.4267 538.9764 L726.4267 571.2727" clip-path="url(#clipPath2)"/>
      <path d="M726.4267 579.2727 L731.4267 567.2727 L726.4267 570.2727 L721.4267 567.2727 Z" clip-path="url(#clipPath2)" stroke="none"/>
      <path fill="none" d="M721.809 632.2902 L721.809 649.9528" clip-path="url(#clipPath2)"/>
      <path d="M721.809 657.9528 L726.809 645.9528 L721.809 648.9528 L716.809 645.9528 Z" clip-path="url(#clipPath2)" stroke="none"/>
    </g>
    <g fill="rgb(245,245,245)" text-rendering="geometricPrecision" shape-rendering="geometricPrecision" transform="matrix(1,0,0,1,-333,453)" stroke="rgb(245,245,245)">
      <rect x="377.9239" y="1096.9839" clip-path="url(#clipPath2)" width="644.1926" rx="4" ry="4" height="161.4665" stroke="none"/>
      <rect x="377.9239" y="1096.9839" clip-path="url(#clipPath2)" fill="rgb(235,235,235)" width="644.1926" height="4" stroke="none"/>
    </g>
    <g text-rendering="geometricPrecision" stroke-miterlimit="1.45" stroke-dasharray="6,2" shape-rendering="geometricPrecision" transform="matrix(1,0,0,1,-333,453)" stroke-linecap="butt">
      <rect x="377.9239" y="1096.9839" clip-path="url(#clipPath2)" fill="none" width="644.1926" rx="4" ry="4" height="161.4665"/>
    </g>
    <g text-rendering="geometricPrecision" stroke-miterlimit="1.45" shape-rendering="geometricPrecision" transform="matrix(1,0,0,1,-333,453)" stroke-linecap="butt">
      <path fill="none" d="M620.2866 1115.9839 L832.5667 1115.9839 L832.5667 1168.9839 L620.2866 1168.9839 Z" clip-path="url(#clipPath2)"/>
      <text x="641.4042" xml:space="preserve" y="1132.8862" clip-path="url(#clipPath2)" font-family="sans-serif" stroke="none">Service stores DID Doc, VC in</text>
      <text x="631.1796" xml:space="preserve" y="1147.019" clip-path="url(#clipPath2)" font-family="sans-serif" stroke="none">secure wallet and holder can use</text>
      <text x="645.081" xml:space="preserve" y="1161.1519" clip-path="url(#clipPath2)" font-family="sans-serif" stroke="none">VC for verification purposes</text>
    </g>
    <g text-rendering="geometricPrecision" stroke-miterlimit="1.45" shape-rendering="geometricPrecision" transform="matrix(1,0,0,1,-333,453)" stroke-linecap="butt">
      <rect x="650.6138" y="1203.4504" clip-path="url(#clipPath2)" fill="none" width="151.6258" rx="20" ry="20" height="40"/>
      <text x="665.0263" xml:space="preserve" y="1227.9856" clip-path="url(#clipPath2)" font-family="sans-serif" stroke="none">Close secure channel</text>
    </g>
    <g text-rendering="geometricPrecision" stroke-miterlimit="1.45" shape-rendering="geometricPrecision" transform="matrix(1,0,0,1,-333,453)" stroke-linecap="butt">
      <path fill="none" d="M726.4267 1169.0115 L726.4267 1195.4346" clip-path="url(#clipPath2)"/>
      <path d="M726.4267 1203.4346 L731.4267 1191.4346 L726.4267 1194.4346 L721.4267 1191.4346 Z" clip-path="url(#clipPath2)" stroke="none"/>
    </g>
    <g fill="rgb(245,245,245)" text-rendering="geometricPrecision" shape-rendering="geometricPrecision" transform="matrix(1,0,0,1,-333,453)" stroke="rgb(245,245,245)">
      <rect x="348.5256" y="708.6841" clip-path="url(#clipPath2)" width="714.275" rx="4" ry="4" height="350.4885" stroke="none"/>
      <rect x="348.5256" y="708.6841" clip-path="url(#clipPath2)" fill="rgb(235,235,235)" width="714.275" height="21.666" stroke="none"/>
    </g>
    <g font-size="15px" stroke-linecap="butt" transform="matrix(1,0,0,1,-333,453)" text-rendering="geometricPrecision" font-family="sans-serif" shape-rendering="geometricPrecision" stroke-miterlimit="1.45">
      <text x="953.0174" xml:space="preserve" y="725.186" clip-path="url(#clipPath2)" stroke="none">Data Exchange</text>
      <rect x="348.5256" y="708.6841" clip-path="url(#clipPath2)" fill="none" width="714.275" stroke-dasharray="6,2" rx="4" ry="4" height="350.4885"/>
    </g>
    <g fill="rgb(235,235,235)" text-rendering="geometricPrecision" shape-rendering="geometricPrecision" transform="matrix(1,0,0,1,-333,453)" stroke="rgb(235,235,235)">
      <rect x="729.309" width="318.4916" height="4" y="745.3501" clip-path="url(#clipPath2)" stroke="none"/>
    </g>
    <g text-rendering="geometricPrecision" stroke-miterlimit="1.45" stroke-dasharray="6,2" shape-rendering="geometricPrecision" transform="matrix(1,0,0,1,-333,453)" stroke-linecap="butt">
      <rect x="729.309" y="745.3501" clip-path="url(#clipPath2)" fill="none" width="318.4916" rx="4" ry="4" height="298.8224"/>
    </g>
    <g text-rendering="geometricPrecision" stroke-miterlimit="1.45" shape-rendering="geometricPrecision" transform="matrix(1,0,0,1,-333,453)" stroke-linecap="butt">
      <path fill="none" d="M744.309 764.3501 L885.6204 764.3501 L885.6204 817.3501 L744.309 817.3501 Z" clip-path="url(#clipPath2)"/>
      <text x="784.2235" xml:space="preserve" y="781.2524" clip-path="url(#clipPath2)" font-family="sans-serif" stroke="none">Issuing VC</text>
      <text x="757.9325" xml:space="preserve" y="795.3853" clip-path="url(#clipPath2)" font-family="sans-serif" stroke="none">(User identification </text>
      <text x="781.7157" xml:space="preserve" y="809.5181" clip-path="url(#clipPath2)" font-family="sans-serif" stroke="none">is required)</text>
    </g>
    <g text-rendering="geometricPrecision" stroke-miterlimit="1.45" shape-rendering="geometricPrecision" transform="matrix(1,0,0,1,-333,453)" stroke-linecap="butt">
      <path fill="none" d="M986.8865 956.9738 L1032.8007 985.1877 L986.8865 1013.4017 L940.9725 985.1877 Z" clip-path="url(#clipPath2)"/>
      <text x="971.992" xml:space="preserve" y="975.5901" clip-path="url(#clipPath2)" font-family="sans-serif" stroke="none">Need</text>
      <text x="969.3992" xml:space="preserve" y="989.7229" clip-path="url(#clipPath2)" font-family="sans-serif" stroke="none">renew</text>
      <text x="976.2811" xml:space="preserve" y="1003.8557" clip-path="url(#clipPath2)" font-family="sans-serif" stroke="none">VC?</text>
    </g>
    <g text-rendering="geometricPrecision" stroke-miterlimit="1.45" shape-rendering="geometricPrecision" transform="matrix(1,0,0,1,-333,453)" stroke-linecap="butt">
      <path fill="none" d="M951.6566 764.3501 L1022.1165 764.3501 L1022.1165 817.3501 L951.6566 817.3501 Z" clip-path="url(#clipPath2)"/>
      <text x="966.1092" xml:space="preserve" y="788.3188" clip-path="url(#clipPath2)" font-family="sans-serif" stroke="none">Revoke</text>
      <text x="962.8543" xml:space="preserve" y="802.4517" clip-path="url(#clipPath2)" font-family="sans-serif" stroke="none">exist VC</text>
    </g>
    <g text-rendering="geometricPrecision" stroke-miterlimit="1.45" shape-rendering="geometricPrecision" transform="matrix(1,0,0,1,-333,453)" stroke-linecap="butt">
      <path fill="none" d="M721.809 698.015 L721.809 726.2358 L814.9647 726.2358 L814.9647 756.3797" clip-path="url(#clipPath2)"/>
      <path d="M814.9647 764.3797 L819.9647 752.3797 L814.9647 755.3797 L809.9647 752.3797 Z" clip-path="url(#clipPath2)" stroke="none"/>
      <path fill="none" d="M814.9647 817.3342 L814.9647 1108.0099" clip-path="url(#clipPath2)"/>
      <path d="M814.9647 1116.0099 L819.9647 1104.0099 L814.9647 1107.0099 L809.9647 1104.0099 Z" clip-path="url(#clipPath2)" stroke="none"/>
      <path fill="none" d="M832.5883 1142.4839 L986.8865 1142.4839 L986.8865 1021.4135" clip-path="url(#clipPath2)"/>
      <path d="M986.8865 1013.4135 L981.8865 1025.4136 L986.8865 1022.4135 L991.8865 1025.4136 Z" clip-path="url(#clipPath2)" stroke="none"/>
      <path fill="none" d="M986.8865 956.9575 L986.8865 825.3316" clip-path="url(#clipPath2)"/>
      <path d="M986.8865 817.3316 L981.8865 829.3316 L986.8865 826.3316 L991.8865 829.3316 Z" clip-path="url(#clipPath2)" stroke="none"/>
      <path fill="none" d="M951.6711 790.8501 L893.6208 790.8501" clip-path="url(#clipPath2)"/>
      <path d="M885.6208 790.8501 L897.6208 795.8501 L894.6208 790.8501 L897.6208 785.8501 Z" clip-path="url(#clipPath2)" stroke="none"/>
    </g>
    <g fill="rgb(235,235,235)" text-rendering="geometricPrecision" shape-rendering="geometricPrecision" transform="matrix(1,0,0,1,-333,453)" stroke="rgb(235,235,235)">
      <rect x="363.5256" width="350.7834" height="4" y="745.3501" clip-path="url(#clipPath2)" stroke="none"/>
    </g>
    <g text-rendering="geometricPrecision" stroke-miterlimit="1.45" stroke-dasharray="6,2" shape-rendering="geometricPrecision" transform="matrix(1,0,0,1,-333,453)" stroke-linecap="butt">
      <rect x="363.5256" y="745.3501" clip-path="url(#clipPath2)" fill="none" width="350.7834" rx="4" ry="4" height="298.8224"/>
    </g>
    <g text-rendering="geometricPrecision" stroke-miterlimit="1.45" shape-rendering="geometricPrecision" transform="matrix(1,0,0,1,-333,453)" stroke-linecap="butt">
      <path fill="none" d="M557.9976 764.3501 L699.309 764.3501 L699.309 817.3501 L557.9976 817.3501 Z" clip-path="url(#clipPath2)"/>
      <text x="579.1738" xml:space="preserve" y="781.2524" clip-path="url(#clipPath2)" font-family="sans-serif" stroke="none">Register DID Doc</text>
      <text x="571.0644" xml:space="preserve" y="795.3853" clip-path="url(#clipPath2)" font-family="sans-serif" stroke="none">(User identifrication</text>
      <text x="595.4042" xml:space="preserve" y="809.5181" clip-path="url(#clipPath2)" font-family="sans-serif" stroke="none">is required)</text>
    </g>
    <g text-rendering="geometricPrecision" stroke-miterlimit="1.45" shape-rendering="geometricPrecision" transform="matrix(1,0,0,1,-333,453)" stroke-linecap="butt">
      <path fill="none" d="M378.5256 764.3501 L519.837 764.3501 L519.837 817.3501 L378.5256 817.3501 Z" clip-path="url(#clipPath2)"/>
      <text x="402.8044" xml:space="preserve" y="795.3853" clip-path="url(#clipPath2)" font-family="sans-serif" stroke="none">Update DID Doc</text>
    </g>
    <g text-rendering="geometricPrecision" stroke-miterlimit="1.45" shape-rendering="geometricPrecision" transform="matrix(1,0,0,1,-333,453)" stroke-linecap="butt">
      <path fill="none" d="M413.9514 862.3231 L484.4112 862.3231 L484.4112 915.3231 L413.9514 915.3231 Z" clip-path="url(#clipPath2)"/>
      <text x="423.0807" xml:space="preserve" y="886.2918" clip-path="url(#clipPath2)" font-family="sans-serif" stroke="none">Generate</text>
      <text x="425.609" xml:space="preserve" y="900.4246" clip-path="url(#clipPath2)" font-family="sans-serif" stroke="none">new key</text>
    </g>
    <g text-rendering="geometricPrecision" stroke-miterlimit="1.45" shape-rendering="geometricPrecision" transform="matrix(1,0,0,1,-333,453)" stroke-linecap="butt">
      <path fill="none" d="M449.1813 956.9738 L495.0953 985.1877 L449.1813 1013.4017 L403.2672 985.1877 Z" clip-path="url(#clipPath2)"/>
      <text x="434.2868" xml:space="preserve" y="975.5901" clip-path="url(#clipPath2)" font-family="sans-serif" stroke="none">Need</text>
      <text x="429.7956" xml:space="preserve" y="989.7229" clip-path="url(#clipPath2)" font-family="sans-serif" stroke="none">renew </text>
      <text x="436.6657" xml:space="preserve" y="1003.8557" clip-path="url(#clipPath2)" font-family="sans-serif" stroke="none">key?</text>
    </g>
    <g text-rendering="geometricPrecision" stroke-miterlimit="1.45" shape-rendering="geometricPrecision" transform="matrix(1,0,0,1,-333,453)" stroke-linecap="butt">
      <path fill="none" d="M721.809 698.015 L721.809 726.2358 L628.6533 726.2358 L628.6533 756.3797" clip-path="url(#clipPath2)"/>
      <path d="M628.6533 764.3797 L633.6533 752.3797 L628.6533 755.3797 L623.6533 752.3797 Z" clip-path="url(#clipPath2)" stroke="none"/>
      <path fill="none" d="M628.6533 817.345 L628.6533 1108.0106" clip-path="url(#clipPath2)"/>
      <path d="M628.6533 1116.0106 L633.6533 1104.0106 L628.6533 1107.0106 L623.6533 1104.0106 Z" clip-path="url(#clipPath2)" stroke="none"/>
      <path fill="none" d="M386.2711 817.3187 L386.2711 1157.7386 L612.2598 1157.7386" clip-path="url(#clipPath2)"/>
      <path d="M620.2598 1157.7386 L608.2598 1152.7386 L611.2598 1157.7386 L608.2598 1162.7386 Z" clip-path="url(#clipPath2)" stroke="none"/>
      <path fill="none" d="M449.1813 862.3685 L449.1813 825.3552" clip-path="url(#clipPath2)"/>
      <path d="M449.1813 817.3552 L444.1813 829.3552 L449.1813 826.3552 L454.1813 829.3552 Z" clip-path="url(#clipPath2)" stroke="none"/>
      <path fill="none" d="M620.2675 1125.5399 L449.1813 1125.5399 L449.1813 1021.3884" clip-path="url(#clipPath2)"/>
      <path d="M449.1813 1013.3884 L444.1813 1025.3884 L449.1813 1022.3884 L454.1813 1025.3884 Z" clip-path="url(#clipPath2)" stroke="none"/>
      <path fill="none" d="M449.1813 957.0029 L449.1813 923.356" clip-path="url(#clipPath2)"/>
      <path d="M449.1813 915.356 L444.1813 927.356 L449.1813 924.356 L454.1813 927.356 Z" clip-path="url(#clipPath2)" stroke="none"/>
    </g>
  </g>
</svg>
