<?xml version="1.0" encoding="UTF-8"?><svg xmlns="http://www.w3.org/2000/svg" xmlns:xlink="http://www.w3.org/1999/xlink" fill-opacity="1" color-rendering="auto" color-interpolation="auto" text-rendering="auto" stroke="black" stroke-linecap="square" width="920" stroke-miterlimit="10" shape-rendering="auto" stroke-opacity="1" fill="black" stroke-dasharray="none" font-weight="normal" stroke-width="1" height="302" font-family="'Dialog'" font-style="normal" stroke-linejoin="miter" font-size="12px" stroke-dashoffset="0" image-rendering="auto">
  <!--Generated by ySVG 2.6-->
  <defs id="genericDefs"/>
  <g>
    <defs id="defs1">
      <clipPath clipPathUnits="userSpaceOnUse" id="clipPath1">
        <path d="M0 0 L920 0 L920 302 L0 302 L0 0 Z"/>
      </clipPath>
      <clipPath clipPathUnits="userSpaceOnUse" id="clipPath2">
        <path d="M352 199 L1272 199 L1272 501 L352 501 L352 199 Z"/>
      </clipPath>
    </defs>
    <g fill="white" text-rendering="geometricPrecision" shape-rendering="geometricPrecision" transform="translate(-352,-199)" stroke="white">
      <rect x="352" width="920" height="302" y="199" clip-path="url(#clipPath2)" stroke="none"/>
    </g>
    <g text-rendering="geometricPrecision" stroke-miterlimit="1.45" shape-rendering="geometricPrecision" transform="matrix(1,0,0,1,-352,-199)" stroke-linecap="butt">
      <rect fill="none" x="468.624" width="103.216" height="254.576" y="230.5991" clip-path="url(#clipPath2)"/>
      <text x="516.0923" xml:space="preserve" y="362.4222" clip-path="url(#clipPath2)" font-family="sans-serif" stroke="none">A</text>
    </g>
    <g fill="rgb(255,204,204)" text-rendering="geometricPrecision" shape-rendering="geometricPrecision" transform="matrix(1,0,0,1,-352,-199)" stroke="rgb(255,204,204)">
      <rect x="761.976" width="103.216" height="254.576" y="230.5991" clip-path="url(#clipPath2)" stroke="none"/>
    </g>
    <g text-rendering="geometricPrecision" stroke-miterlimit="1.45" shape-rendering="geometricPrecision" transform="matrix(1,0,0,1,-352,-199)" stroke-linecap="butt">
      <rect fill="none" x="761.976" width="103.216" height="254.576" y="230.5991" clip-path="url(#clipPath2)"/>
      <text x="809.8281" xml:space="preserve" y="362.4222" clip-path="url(#clipPath2)" font-family="sans-serif" stroke="none">X</text>
      <path fill="none" d="M624.372 214.462 L694.444 214.462 L694.444 229.462 L709.444 229.462 L709.444 265.502 L624.372 265.502 Z" clip-path="url(#clipPath2)"/>
      <path fill="none" d="M694.444 214.462 L694.444 229.462 L709.444 229.462 Z" clip-path="url(#clipPath2)" fill-rule="evenodd"/>
      <text x="630.7791" xml:space="preserve" y="237.4507" clip-path="url(#clipPath2)" font-family="sans-serif" stroke="none">A's Key Data</text>
      <text x="630.7791" xml:space="preserve" y="251.5836" clip-path="url(#clipPath2)" font-family="sans-serif" stroke="none">DH Data</text>
    </g>
    <g fill="rgb(255,204,204)" text-rendering="geometricPrecision" shape-rendering="geometricPrecision" transform="matrix(1,0,0,1,-352,-199)" stroke="rgb(255,204,204)">
      <path d="M917.724 214.462 L987.796 214.462 L987.796 229.462 L1002.796 229.462 L1002.796 265.502 L917.724 265.502 Z" stroke="none" clip-path="url(#clipPath2)"/>
      <path fill="white" d="M987.796 214.462 L987.796 229.462 L1002.796 229.462 Z" clip-path="url(#clipPath2)" fill-rule="evenodd" stroke="none"/>
    </g>
    <g text-rendering="geometricPrecision" stroke-miterlimit="1.45" shape-rendering="geometricPrecision" transform="matrix(1,0,0,1,-352,-199)" stroke-linecap="butt">
      <path fill="none" d="M917.724 214.462 L987.796 214.462 L987.796 229.462 L1002.796 229.462 L1002.796 265.502 L917.724 265.502 Z" clip-path="url(#clipPath2)"/>
      <path fill="none" d="M987.796 214.462 L987.796 229.462 L1002.796 229.462 Z" clip-path="url(#clipPath2)" fill-rule="evenodd"/>
      <text x="924.5149" xml:space="preserve" y="237.4507" clip-path="url(#clipPath2)" font-family="sans-serif" stroke="none">X's Key Data</text>
      <text x="924.5149" xml:space="preserve" y="251.5836" clip-path="url(#clipPath2)" font-family="sans-serif" stroke="none">DH Data</text>
    </g>
    <g fill="rgb(255,204,204)" text-rendering="geometricPrecision" shape-rendering="geometricPrecision" transform="matrix(1,0,0,1,-352,-199)" stroke="rgb(255,204,204)">
      <path d="M624.372 310.6 L694.444 310.6 L694.444 325.6 L709.444 325.6 L709.444 361.64 L624.372 361.64 Z" stroke="none" clip-path="url(#clipPath2)"/>
      <path fill="white" d="M694.444 310.6 L694.444 325.6 L709.444 325.6 Z" clip-path="url(#clipPath2)" fill-rule="evenodd" stroke="none"/>
    </g>
    <g text-rendering="geometricPrecision" stroke-miterlimit="1.45" shape-rendering="geometricPrecision" transform="matrix(1,0,0,1,-352,-199)" stroke-linecap="butt">
      <path fill="none" d="M624.372 310.6 L694.444 310.6 L694.444 325.6 L709.444 325.6 L709.444 361.64 L624.372 361.64 Z" clip-path="url(#clipPath2)"/>
      <path fill="none" d="M694.444 310.6 L694.444 325.6 L709.444 325.6 Z" clip-path="url(#clipPath2)" fill-rule="evenodd"/>
      <text x="631.1629" xml:space="preserve" y="333.5887" clip-path="url(#clipPath2)" font-family="sans-serif" stroke="none">X's Key Data</text>
      <text x="631.1629" xml:space="preserve" y="347.7216" clip-path="url(#clipPath2)" font-family="sans-serif" stroke="none">DH Data</text>
    </g>
    <g fill="silver" text-rendering="geometricPrecision" shape-rendering="geometricPrecision" transform="matrix(1,0,0,1,-352,-199)" stroke="silver">
      <path d="M914.442 311.4679 L984.514 311.4679 L984.514 326.4679 L999.514 326.4679 L999.514 362.5079 L914.442 362.5079 Z" stroke="none" clip-path="url(#clipPath2)"/>
      <path fill="white" d="M984.514 311.4679 L984.514 326.4679 L999.514 326.4679 Z" clip-path="url(#clipPath2)" fill-rule="evenodd" stroke="none"/>
    </g>
    <g text-rendering="geometricPrecision" stroke-miterlimit="1.45" shape-rendering="geometricPrecision" transform="matrix(1,0,0,1,-352,-199)" stroke-linecap="butt">
      <path fill="none" d="M914.442 311.4679 L984.514 311.4679 L984.514 326.4679 L999.514 326.4679 L999.514 362.5079 L914.442 362.5079 Z" clip-path="url(#clipPath2)"/>
      <path fill="none" d="M984.514 311.4679 L984.514 326.4679 L999.514 326.4679 Z" clip-path="url(#clipPath2)" fill-rule="evenodd"/>
      <text x="921.5376" xml:space="preserve" y="334.4567" clip-path="url(#clipPath2)" font-family="sans-serif" stroke="none">B's Key Data</text>
      <text x="921.5376" xml:space="preserve" y="348.5895" clip-path="url(#clipPath2)" font-family="sans-serif" stroke="none">DH Data</text>
    </g>
    <g fill="rgb(204,204,204)" text-rendering="geometricPrecision" shape-rendering="geometricPrecision" transform="matrix(1,0,0,1,-352,-199)" stroke="rgb(204,204,204)">
      <rect x="1055.328" width="103.216" height="254.576" y="230.5991" clip-path="url(#clipPath2)" stroke="none"/>
    </g>
    <g text-rendering="geometricPrecision" stroke-miterlimit="1.45" shape-rendering="geometricPrecision" transform="matrix(1,0,0,1,-352,-199)" stroke-linecap="butt">
      <rect fill="none" x="1055.328" width="103.216" height="254.576" y="230.5991" clip-path="url(#clipPath2)"/>
      <text x="1103.4849" xml:space="preserve" y="362.4222" clip-path="url(#clipPath2)" font-family="sans-serif" stroke="none">B</text>
      <path fill="none" d="M468.6497 264.1877 L432.7 264.1877 L432.7 311.2748 L460.6487 311.2748" clip-path="url(#clipPath2)"/>
      <path d="M468.6487 311.2748 L456.6487 306.2748 L459.6487 311.2748 L456.6487 316.2748 Z" clip-path="url(#clipPath2)" stroke="none"/>
      <text x="369.8568" xml:space="preserve" y="281.8413" clip-path="url(#clipPath2)" font-family="sans-serif" stroke="none">DH perform</text>
      <path fill="none" d="M585.8563 454.16 L747.9734 454.16" stroke-width="7" clip-path="url(#clipPath2)" stroke="rgb(255,153,0)"/>
      <path fill="rgb(255,153,0)" d="M571.8563 454.16 L592.8563 462.91 L587.6063 454.16 L592.8563 445.41 Z" stroke-width="7" clip-path="url(#clipPath2)" stroke="none"/>
      <path fill="rgb(255,153,0)" d="M761.9734 454.16 L740.9734 445.41 L746.2234 454.16 L740.9734 462.91 Z" stroke-width="7" clip-path="url(#clipPath2)" stroke="none"/>
      <text x="599.2115" y="479.6952" clip-path="url(#clipPath2)" fill="rgb(255,153,0)" font-family="sans-serif" stroke="none" xml:space="preserve">Secure Channer Creation</text>
      <path fill="none" d="M571.8742 275.4679 L753.9638 275.4679" clip-path="url(#clipPath2)"/>
      <path d="M761.9638 275.4679 L749.9638 270.4679 L752.9638 275.4679 L749.9638 280.4679 Z" clip-path="url(#clipPath2)" stroke="none"/>
      <path fill="none" d="M761.9514 301.6 L579.851 301.6" clip-path="url(#clipPath2)"/>
      <path d="M571.851 301.6 L583.851 306.6 L580.851 301.6 L583.851 296.6 Z" clip-path="url(#clipPath2)" stroke="none"/>
      <path fill="none" d="M1158.5227 271.4943 L1189.7 271.4943 L1189.7 314.5222 L1166.5486 314.5222" clip-path="url(#clipPath2)"/>
      <path d="M1158.5486 314.5222 L1170.5486 319.5222 L1167.5486 314.5222 L1170.5486 309.5222 Z" clip-path="url(#clipPath2)" stroke="none"/>
      <text x="1185.5868" xml:space="preserve" y="286.4545" clip-path="url(#clipPath2)" font-family="sans-serif" stroke="none">DH perform</text>
      <path fill="none" d="M879.2227 454.2525 L1041.2864 454.2525" stroke-width="7" clip-path="url(#clipPath2)" stroke="rgb(255,153,0)"/>
      <path fill="rgb(255,153,0)" d="M865.2227 454.2525 L886.2227 463.0025 L880.9727 454.2525 L886.2227 445.5025 Z" stroke-width="7" clip-path="url(#clipPath2)" stroke="none"/>
      <path fill="rgb(255,153,0)" d="M1055.2864 454.2525 L1034.2864 445.5025 L1039.5364 454.2525 L1034.2864 463.0025 Z" stroke-width="7" clip-path="url(#clipPath2)" stroke="none"/>
      <text x="898.368" y="480.7876" clip-path="url(#clipPath2)" fill="rgb(255,153,0)" font-family="sans-serif" stroke="none" xml:space="preserve">Secure Channer Creation</text>
      <path fill="none" d="M865.1774 274.8918 L1047.356 274.8918" clip-path="url(#clipPath2)"/>
      <path d="M1055.356 274.8918 L1043.356 269.8918 L1046.356 274.8918 L1043.356 279.8918 Z" clip-path="url(#clipPath2)" stroke="none"/>
      <path fill="none" d="M1055.3176 302.4679 L873.223 302.4679" clip-path="url(#clipPath2)"/>
      <path d="M865.223 302.4679 L877.223 307.4679 L874.223 302.4679 L877.223 297.4679 Z" clip-path="url(#clipPath2)" stroke="none"/>
    </g>
  </g>
</svg>
