<?xml version="1.0" encoding="us-ascii" standalone="no"?><svg xmlns="http://www.w3.org/2000/svg" xmlns:xlink="http://www.w3.org/1999/xlink" contentStyleType="text/css" height="1292px" preserveAspectRatio="none" style="width:1035px;height:1292px;background:#FFFFFF;" version="1.1" viewBox="0 0 1035 1292" width="1035px" zoomAndPan="magnify"><defs/><g><text fill="#000000" font-family="sans-serif" font-size="25" font-weight="bold" lengthAdjust="spacing" textLength="140" x="443.75" y="39.1699">&#50900;&#47131;&#53664;&#53360; &#49373;&#49457;</text><rect fill="#FFFFFF" height="202.1738" style="stroke:#181818;stroke-width:1.0;" width="10" x="34.5" y="314.9043"/><rect fill="#FFFFFF" height="175.1738" style="stroke:#181818;stroke-width:1.0;" width="10" x="34.5" y="956.3574"/><rect fill="#FFFFFF" height="1118.043" style="stroke:#181818;stroke-width:1.0;" width="10" x="357.5" y="113.4199"/><rect fill="#FFFFFF" height="263.416" style="stroke:#181818;stroke-width:1.0;" width="10" x="680.5" y="605.0098"/><line style="stroke:#181818;stroke-width:0.5;stroke-dasharray:5.0,5.0;" x1="39" x2="39" y1="103.4199" y2="1240.4629"/><line style="stroke:#181818;stroke-width:0.5;stroke-dasharray:5.0,5.0;" x1="362.5" x2="362.5" y1="103.4199" y2="1240.4629"/><line style="stroke:#181818;stroke-width:0.5;stroke-dasharray:5.0,5.0;" x1="685" x2="685" y1="103.4199" y2="1240.4629"/><rect fill="#E2E2F0" height="46.9766" rx="2.5" ry="2.5" style="stroke:#181818;stroke-width:0.5;" width="69" x="5" y="55.4434"/><text fill="#000000" font-family="sans-serif" font-size="14" font-style="italic" lengthAdjust="spacing" textLength="55" x="12" y="75.9785">&#171;Wallet&#187;</text><text fill="#000000" font-family="sans-serif" font-size="14" font-weight="bold" lengthAdjust="spacing" textLength="24" x="27.5" y="92.4668">&#50900;&#47131;</text><rect fill="#E2E2F0" height="46.9766" rx="2.5" ry="2.5" style="stroke:#181818;stroke-width:0.5;" width="69" x="5" y="1239.4629"/><text fill="#000000" font-family="sans-serif" font-size="14" font-style="italic" lengthAdjust="spacing" textLength="55" x="12" y="1259.998">&#171;Wallet&#187;</text><text fill="#000000" font-family="sans-serif" font-size="14" font-weight="bold" lengthAdjust="spacing" textLength="24" x="27.5" y="1276.4863">&#50900;&#47131;</text><rect fill="#E2E2F0" height="46.9766" rx="2.5" ry="2.5" style="stroke:#181818;stroke-width:0.5;" width="56" x="334.5" y="55.4434"/><text fill="#000000" font-family="sans-serif" font-size="14" font-style="italic" lengthAdjust="spacing" textLength="42" x="341.5" y="75.9785">&#171;App&#187;</text><text fill="#000000" font-family="sans-serif" font-size="14" font-weight="bold" lengthAdjust="spacing" textLength="36" x="344.5" y="92.4668">&#51064;&#44032;&#50545;</text><rect fill="#E2E2F0" height="46.9766" rx="2.5" ry="2.5" style="stroke:#181818;stroke-width:0.5;" width="56" x="334.5" y="1239.4629"/><text fill="#000000" font-family="sans-serif" font-size="14" font-style="italic" lengthAdjust="spacing" textLength="42" x="341.5" y="1259.998">&#171;App&#187;</text><text fill="#000000" font-family="sans-serif" font-size="14" font-weight="bold" lengthAdjust="spacing" textLength="36" x="344.5" y="1276.4863">&#51064;&#44032;&#50545;</text><rect fill="#E2E2F0" height="46.9766" rx="2.5" ry="2.5" style="stroke:#181818;stroke-width:0.5;" width="91" x="640" y="55.4434"/><text fill="#000000" font-family="sans-serif" font-size="14" font-style="italic" lengthAdjust="spacing" textLength="57" x="657" y="75.9785">&#171;Server&#187;</text><text fill="#000000" font-family="sans-serif" font-size="14" font-weight="bold" lengthAdjust="spacing" textLength="77" x="647" y="92.4668">&#51064;&#44032;&#50545; &#49436;&#48708;&#49828;</text><rect fill="#E2E2F0" height="46.9766" rx="2.5" ry="2.5" style="stroke:#181818;stroke-width:0.5;" width="91" x="640" y="1239.4629"/><text fill="#000000" font-family="sans-serif" font-size="14" font-style="italic" lengthAdjust="spacing" textLength="57" x="657" y="1259.998">&#171;Server&#187;</text><text fill="#000000" font-family="sans-serif" font-size="14" font-weight="bold" lengthAdjust="spacing" textLength="77" x="647" y="1276.4863">&#51064;&#44032;&#50545; &#49436;&#48708;&#49828;</text><rect fill="#FFFFFF" height="202.1738" style="stroke:#181818;stroke-width:1.0;" width="10" x="34.5" y="314.9043"/><rect fill="#FFFFFF" height="175.1738" style="stroke:#181818;stroke-width:1.0;" width="10" x="34.5" y="956.3574"/><rect fill="#FFFFFF" height="1118.043" style="stroke:#181818;stroke-width:1.0;" width="10" x="357.5" y="113.4199"/><rect fill="#FFFFFF" height="263.416" style="stroke:#181818;stroke-width:1.0;" width="10" x="680.5" y="605.0098"/><rect fill="#FEFFDD" height="38" style="stroke:#181818;stroke-width:0.5;" width="198" x="263" y="118.4199"/><text fill="#000000" font-family="sans-serif" font-size="13" font-weight="bold" lengthAdjust="spacing" textLength="92" x="267" y="134.9883">[Pre-defined]</text><ellipse cx="272.5" cy="145.541" fill="#000000" rx="2.5" ry="2.5" style="stroke:#000000;stroke-width:0.0;"/><text fill="#000000" font-family="sans-serif" font-size="13" lengthAdjust="spacing" textLength="178" x="279" y="150.2988">PKG_NAME = &#51064;&#44032;&#50545;&#51032; &#54056;&#53412;&#51648;&#47749;</text><rect fill="#FEFFDD" height="38" style="stroke:#181818;stroke-width:0.5;" width="193" x="589" y="118.4199"/><text fill="#000000" font-family="sans-serif" font-size="13" font-weight="bold" lengthAdjust="spacing" textLength="92" x="593" y="134.9883">[Pre-defined]</text><ellipse cx="598.5" cy="145.541" fill="#000000" rx="2.5" ry="2.5" style="stroke:#000000;stroke-width:0.0;"/><text fill="#000000" font-family="sans-serif" font-size="13" lengthAdjust="spacing" textLength="173" x="605" y="150.2988">PII = &#51064;&#44032;&#50545; &#49548;&#50976;&#51088;&#51032; &#44060;&#51064;&#49885;&#48324;&#51088;</text><rect fill="#EEEEEE" height="3" style="stroke:#EEEEEE;stroke-width:1.0;" width="1028.5" x="0" y="182.6963"/><line style="stroke:#000000;stroke-width:1.0;" x1="0" x2="1028.5" y1="182.6963" y2="182.6963"/><line style="stroke:#000000;stroke-width:1.0;" x1="0" x2="1028.5" y1="185.6963" y2="185.6963"/><rect fill="#EEEEEE" height="23.3105" style="stroke:#000000;stroke-width:2.0;" width="149" x="439.75" y="172.041"/><text fill="#000000" font-family="sans-serif" font-size="13" font-weight="bold" lengthAdjust="spacing" textLength="131" x="445.75" y="188.6094">1. WalletTokenSeed</text><line style="stroke:#181818;stroke-width:1.0;" x1="367.5" x2="409.5" y1="257.2832" y2="257.2832"/><line style="stroke:#181818;stroke-width:1.0;" x1="409.5" x2="409.5" y1="257.2832" y2="270.2832"/><line style="stroke:#181818;stroke-width:1.0;" x1="368.5" x2="409.5" y1="270.2832" y2="270.2832"/><polygon fill="#181818" points="378.5,266.2832,368.5,270.2832,378.5,274.2832,374.5,270.2832" style="stroke:#181818;stroke-width:1.0;"/><text fill="#000000" font-family="sans-serif" font-size="13" font-weight="bold" lengthAdjust="spacing" textLength="19" x="374.5" y="237.2305">(1)</text><text fill="#000000" font-family="sans-serif" font-size="13" lengthAdjust="spacing" textLength="22" x="397.5" y="221.9199">&#51456;&#48708;</text><ellipse cx="403" cy="232.4727" fill="#000000" rx="2.5" ry="2.5" style="stroke:#000000;stroke-width:0.0;"/><text fill="#000000" font-family="sans-serif" font-size="13" lengthAdjust="spacing" textLength="154" x="409.5" y="237.2305">purpose = &#50857;&#46020;&#50640; &#47582;&#44172; &#51648;&#51221;</text><ellipse cx="403" cy="247.7832" fill="#000000" rx="2.5" ry="2.5" style="stroke:#000000;stroke-width:0.0;"/><text fill="#000000" font-family="sans-serif" font-size="13" lengthAdjust="spacing" textLength="146" x="409.5" y="252.541">pkgName = PKG_NAME</text><polygon fill="#181818" points="55.5,310.9043,45.5,314.9043,55.5,318.9043,51.5,314.9043" style="stroke:#181818;stroke-width:1.0;"/><line style="stroke:#181818;stroke-width:1.0;" x1="49.5" x2="356.5" y1="314.9043" y2="314.9043"/><text fill="#000000" font-family="sans-serif" font-size="13" font-weight="bold" lengthAdjust="spacing" textLength="19" x="61.5" y="302.5068">(2)</text><text fill="#000000" font-family="sans-serif" font-size="13" lengthAdjust="spacing" textLength="118" x="84.5" y="294.8516">&#50900;&#47131;&#53664;&#53360; &#49884;&#46300; &#49373;&#49457;&#50836;&#52397;</text><text fill="#000000" font-family="sans-serif" font-size="13" lengthAdjust="spacing" textLength="127" x="84.5" y="310.1621">{purpose, pkgName}</text><line style="stroke:#181818;stroke-width:1.0;" x1="44.5" x2="86.5" y1="344.2148" y2="344.2148"/><line style="stroke:#181818;stroke-width:1.0;" x1="86.5" x2="86.5" y1="344.2148" y2="357.2148"/><line style="stroke:#181818;stroke-width:1.0;" x1="45.5" x2="86.5" y1="357.2148" y2="357.2148"/><polygon fill="#181818" points="55.5,353.2148,45.5,357.2148,55.5,361.2148,51.5,357.2148" style="stroke:#181818;stroke-width:1.0;"/><text fill="#000000" font-family="sans-serif" font-size="13" font-weight="bold" lengthAdjust="spacing" textLength="19" x="51.5" y="339.4727">(3)</text><text fill="#000000" font-family="sans-serif" font-size="13" lengthAdjust="spacing" textLength="182" x="74.5" y="339.4727">purpose, pkgName &#50976;&#54952;&#49457; &#54869;&#51064;</text><path d="M268,331.4043 L268,356.4043 L575,356.4043 L575,341.4043 L565,331.4043 L268,331.4043 " fill="#FEFFDD" style="stroke:#181818;stroke-width:0.5;"/><path d="M565,331.4043 L565,341.4043 L575,341.4043 L565,331.4043 " fill="#FEFFDD" style="stroke:#181818;stroke-width:0.5;"/><text fill="#000000" font-family="sans-serif" font-size="13" lengthAdjust="spacing" textLength="286" x="274" y="348.9727">pkgName &#44050;&#51012; &#54869;&#51064;&#54616;&#50668; &#51064;&#44032;&#46104;&#51648; &#50506;&#51008; &#50545;&#51032; &#51217;&#44540; &#52264;&#45800;</text><line style="stroke:#181818;stroke-width:1.0;" x1="44.5" x2="86.5" y1="417.1465" y2="417.1465"/><line style="stroke:#181818;stroke-width:1.0;" x1="86.5" x2="86.5" y1="417.1465" y2="430.1465"/><line style="stroke:#181818;stroke-width:1.0;" x1="45.5" x2="86.5" y1="430.1465" y2="430.1465"/><polygon fill="#181818" points="55.5,426.1465,45.5,430.1465,55.5,434.1465,51.5,430.1465" style="stroke:#181818;stroke-width:1.0;"/><text fill="#000000" font-family="sans-serif" font-size="13" font-weight="bold" lengthAdjust="spacing" textLength="19" x="51.5" y="397.0938">(4)</text><text fill="#000000" font-family="sans-serif" font-size="13" lengthAdjust="spacing" textLength="59" x="74.5" y="381.7832">&#45936;&#51060;&#53552; &#51456;&#48708;</text><ellipse cx="80" cy="392.3359" fill="#000000" rx="2.5" ry="2.5" style="stroke:#000000;stroke-width:0.0;"/><text fill="#000000" font-family="sans-serif" font-size="13" lengthAdjust="spacing" textLength="122" x="86.5" y="397.0938">validUntil = &#50976;&#54952;&#51068;&#49884;</text><ellipse cx="80" cy="407.6465" fill="#000000" rx="2.5" ry="2.5" style="stroke:#000000;stroke-width:0.0;"/><text fill="#000000" font-family="sans-serif" font-size="13" lengthAdjust="spacing" textLength="104" x="86.5" y="412.4043">nonce = &#45212;&#49688; &#49373;&#49457;</text><line style="stroke:#181818;stroke-width:1.0;" x1="44.5" x2="86.5" y1="474.7676" y2="474.7676"/><line style="stroke:#181818;stroke-width:1.0;" x1="86.5" x2="86.5" y1="474.7676" y2="487.7676"/><line style="stroke:#181818;stroke-width:1.0;" x1="45.5" x2="86.5" y1="487.7676" y2="487.7676"/><polygon fill="#181818" points="55.5,483.7676,45.5,487.7676,55.5,491.7676,51.5,487.7676" style="stroke:#181818;stroke-width:1.0;"/><text fill="#000000" font-family="sans-serif" font-size="13" font-weight="bold" lengthAdjust="spacing" textLength="19" x="51.5" y="462.3701">(5)</text><text fill="#000000" font-family="sans-serif" font-size="13" lengthAdjust="spacing" textLength="143" x="74.5" y="454.7148">(WalletTokenSeed)seed</text><text fill="#000000" font-family="sans-serif" font-size="13" lengthAdjust="spacing" textLength="250" x="78.5" y="470.0254">= {pupose, validUntil, pkgName, nonce}</text><polygon fill="#181818" points="345.5,513.0781,355.5,517.0781,345.5,521.0781,349.5,517.0781" style="stroke:#181818;stroke-width:1.0;"/><line style="stroke:#181818;stroke-width:1.0;stroke-dasharray:2.0,2.0;" x1="39.5" x2="351.5" y1="517.0781" y2="517.0781"/><text fill="#000000" font-family="sans-serif" font-size="13" font-weight="bold" lengthAdjust="spacing" textLength="19" x="46.5" y="512.3359">(6)</text><text fill="#000000" font-family="sans-serif" font-size="13" lengthAdjust="spacing" textLength="37" x="69.5" y="512.3359">{seed}</text><rect fill="#EEEEEE" height="3" style="stroke:#EEEEEE;stroke-width:1.0;" width="1028.5" x="0" y="545.7334"/><line style="stroke:#000000;stroke-width:1.0;" x1="0" x2="1028.5" y1="545.7334" y2="545.7334"/><line style="stroke:#000000;stroke-width:1.0;" x1="0" x2="1028.5" y1="548.7334" y2="548.7334"/><rect fill="#EEEEEE" height="23.3105" style="stroke:#000000;stroke-width:2.0;" width="148" x="440.25" y="535.0781"/><text fill="#000000" font-family="sans-serif" font-size="13" font-weight="bold" lengthAdjust="spacing" textLength="130" x="446.25" y="551.6465">2. WalletTokenData</text><polygon fill="#181818" points="668.5,601.0098,678.5,605.0098,668.5,609.0098,672.5,605.0098" style="stroke:#181818;stroke-width:1.0;"/><line style="stroke:#181818;stroke-width:1.0;" x1="367.5" x2="674.5" y1="605.0098" y2="605.0098"/><text fill="#000000" font-family="sans-serif" font-size="13" font-weight="bold" lengthAdjust="spacing" textLength="19" x="374.5" y="592.6123">(7)</text><text fill="#000000" font-family="sans-serif" font-size="13" lengthAdjust="spacing" textLength="129" x="397.5" y="584.957">&#50900;&#47131;&#53664;&#53360; &#45936;&#51060;&#53552; &#49373;&#49457;&#50836;&#52397;</text><text fill="#000000" font-family="sans-serif" font-size="13" lengthAdjust="spacing" textLength="37" x="397.5" y="600.2676">{seed}</text><line style="stroke:#181818;stroke-width:1.0;" x1="690.5" x2="732.5" y1="695.5625" y2="695.5625"/><line style="stroke:#181818;stroke-width:1.0;" x1="732.5" x2="732.5" y1="695.5625" y2="708.5625"/><line style="stroke:#181818;stroke-width:1.0;" x1="691.5" x2="732.5" y1="708.5625" y2="708.5625"/><polygon fill="#181818" points="701.5,704.5625,691.5,708.5625,701.5,712.5625,697.5,708.5625" style="stroke:#181818;stroke-width:1.0;"/><text fill="#000000" font-family="sans-serif" font-size="13" font-weight="bold" lengthAdjust="spacing" textLength="19" x="697.5" y="660.1992">(8)</text><text fill="#000000" font-family="sans-serif" font-size="13" lengthAdjust="spacing" textLength="59" x="720.5" y="629.5781">&#45936;&#51060;&#53552; &#51456;&#48708;</text><ellipse cx="726" cy="640.1309" fill="#000000" rx="2.5" ry="2.5" style="stroke:#000000;stroke-width:0.0;"/><text fill="#000000" font-family="sans-serif" font-size="13" lengthAdjust="spacing" textLength="226" x="732.5" y="644.8887">sha256_pii = multibase(sha256(PII))</text><ellipse cx="726" cy="655.4414" fill="#000000" rx="2.5" ry="2.5" style="stroke:#000000;stroke-width:0.0;"/><text fill="#000000" font-family="sans-serif" font-size="13" lengthAdjust="spacing" textLength="129" x="732.5" y="660.1992">provider = &#49324;&#50629;&#51088; &#51221;&#48372;</text><ellipse cx="726" cy="670.752" fill="#000000" rx="2.5" ry="2.5" style="stroke:#000000;stroke-width:0.0;"/><text fill="#000000" font-family="sans-serif" font-size="13" lengthAdjust="spacing" textLength="104" x="732.5" y="675.5098">nonce = &#45212;&#49688; &#49373;&#49457;</text><ellipse cx="726" cy="686.0625" fill="#000000" rx="2.5" ry="2.5" style="stroke:#000000;stroke-width:0.0;"/><text fill="#000000" font-family="sans-serif" font-size="13" lengthAdjust="spacing" textLength="284" x="732.5" y="690.8203">dataset = {seed, sha256_pii, provider, nonce}</text><line style="stroke:#181818;stroke-width:1.0;" x1="690.5" x2="732.5" y1="768.4941" y2="768.4941"/><line style="stroke:#181818;stroke-width:1.0;" x1="732.5" x2="732.5" y1="768.4941" y2="781.4941"/><line style="stroke:#181818;stroke-width:1.0;" x1="691.5" x2="732.5" y1="781.4941" y2="781.4941"/><polygon fill="#181818" points="701.5,777.4941,691.5,781.4941,701.5,785.4941,697.5,781.4941" style="stroke:#181818;stroke-width:1.0;"/><text fill="#000000" font-family="sans-serif" font-size="13" font-weight="bold" lengthAdjust="spacing" textLength="19" x="697.5" y="748.4414">(9)</text><text fill="#000000" font-family="sans-serif" font-size="13" lengthAdjust="spacing" textLength="96" x="720.5" y="733.1309">&#51064;&#44032;&#50545; &#49324;&#50629;&#51088; &#49436;&#47749;</text><ellipse cx="726" cy="743.6836" fill="#000000" rx="2.5" ry="2.5" style="stroke:#000000;stroke-width:0.0;"/><text fill="#000000" font-family="sans-serif" font-size="13" lengthAdjust="spacing" textLength="164" x="732.5" y="748.4414">priKey = Attestation &#44060;&#51064;&#53412;</text><ellipse cx="726" cy="758.9941" fill="#000000" rx="2.5" ry="2.5" style="stroke:#000000;stroke-width:0.0;"/><text fill="#000000" font-family="sans-serif" font-size="13" lengthAdjust="spacing" textLength="220" x="732.5" y="763.752">proof = signAssert(dataset, priKey)</text><line style="stroke:#181818;stroke-width:1.0;" x1="690.5" x2="732.5" y1="826.1152" y2="826.1152"/><line style="stroke:#181818;stroke-width:1.0;" x1="732.5" x2="732.5" y1="826.1152" y2="839.1152"/><line style="stroke:#181818;stroke-width:1.0;" x1="691.5" x2="732.5" y1="839.1152" y2="839.1152"/><polygon fill="#181818" points="701.5,835.1152,691.5,839.1152,701.5,843.1152,697.5,839.1152" style="stroke:#181818;stroke-width:1.0;"/><text fill="#000000" font-family="sans-serif" font-size="13" font-weight="bold" lengthAdjust="spacing" textLength="28" x="697.5" y="813.7178">(10)</text><text fill="#000000" font-family="sans-serif" font-size="13" lengthAdjust="spacing" textLength="137" x="729.5" y="806.0625">(WalletTokenData)wtd</text><text fill="#000000" font-family="sans-serif" font-size="13" lengthAdjust="spacing" textLength="276" x="733.5" y="821.373">= {seed, sha256_pii, provider, nonce, proof}</text><polygon fill="#181818" points="378.5,864.4258,368.5,868.4258,378.5,872.4258,374.5,868.4258" style="stroke:#181818;stroke-width:1.0;"/><line style="stroke:#181818;stroke-width:1.0;stroke-dasharray:2.0,2.0;" x1="372.5" x2="684.5" y1="868.4258" y2="868.4258"/><text fill="#000000" font-family="sans-serif" font-size="13" font-weight="bold" lengthAdjust="spacing" textLength="28" x="384.5" y="863.6836">(11)</text><text fill="#000000" font-family="sans-serif" font-size="13" lengthAdjust="spacing" textLength="31" x="416.5" y="863.6836">{wtd}</text><rect fill="#EEEEEE" height="3" style="stroke:#EEEEEE;stroke-width:1.0;" width="1028.5" x="0" y="897.0811"/><line style="stroke:#000000;stroke-width:1.0;" x1="0" x2="1028.5" y1="897.0811" y2="897.0811"/><line style="stroke:#000000;stroke-width:1.0;" x1="0" x2="1028.5" y1="900.0811" y2="900.0811"/><rect fill="#EEEEEE" height="23.3105" style="stroke:#000000;stroke-width:2.0;" width="116" x="456.25" y="886.4258"/><text fill="#000000" font-family="sans-serif" font-size="13" font-weight="bold" lengthAdjust="spacing" textLength="98" x="462.25" y="902.9941">3. walletToken</text><polygon fill="#181818" points="55.5,952.3574,45.5,956.3574,55.5,960.3574,51.5,956.3574" style="stroke:#181818;stroke-width:1.0;"/><line style="stroke:#181818;stroke-width:1.0;" x1="49.5" x2="356.5" y1="956.3574" y2="956.3574"/><text fill="#000000" font-family="sans-serif" font-size="13" font-weight="bold" lengthAdjust="spacing" textLength="28" x="61.5" y="943.96">(12)</text><text fill="#000000" font-family="sans-serif" font-size="13" lengthAdjust="spacing" textLength="92" x="93.5" y="936.3047">&#50900;&#47131;&#53664;&#53360; &#49373;&#49457;&#50836;&#52397;</text><text fill="#000000" font-family="sans-serif" font-size="13" lengthAdjust="spacing" textLength="31" x="93.5" y="951.6152">{wtd}</text><line style="stroke:#181818;stroke-width:1.0;" x1="44.5" x2="86.5" y1="1016.2891" y2="1016.2891"/><line style="stroke:#181818;stroke-width:1.0;" x1="86.5" x2="86.5" y1="1016.2891" y2="1029.2891"/><line style="stroke:#181818;stroke-width:1.0;" x1="45.5" x2="86.5" y1="1029.2891" y2="1029.2891"/><polygon fill="#181818" points="55.5,1025.2891,45.5,1029.2891,55.5,1033.2891,51.5,1029.2891" style="stroke:#181818;stroke-width:1.0;"/><text fill="#000000" font-family="sans-serif" font-size="13" font-weight="bold" lengthAdjust="spacing" textLength="28" x="51.5" y="996.2363">(13)</text><text fill="#000000" font-family="sans-serif" font-size="13" lengthAdjust="spacing" textLength="196" x="83.5" y="980.9258">&#51064;&#44032;&#50545; &#49324;&#50629;&#51088; Attestation &#49436;&#47749; &#44160;&#51613;</text><ellipse cx="89" cy="991.4785" fill="#000000" rx="2.5" ry="2.5" style="stroke:#000000;stroke-width:0.0;"/><text fill="#000000" font-family="sans-serif" font-size="13" lengthAdjust="spacing" textLength="169" x="95.5" y="996.2363">(&#50741;&#49496;)&#49324;&#50629;&#51088; &#44032;&#51077;&#51613;&#47749;&#49436; VC &#44160;&#51613;</text><ellipse cx="89" cy="1006.7891" fill="#000000" rx="2.5" ry="2.5" style="stroke:#000000;stroke-width:0.0;"/><text fill="#000000" font-family="sans-serif" font-size="13" lengthAdjust="spacing" textLength="87" x="95.5" y="1011.5469">wtd.proof &#44160;&#51613;</text><line style="stroke:#181818;stroke-width:1.0;" x1="44.5" x2="86.5" y1="1089.2207" y2="1089.2207"/><line style="stroke:#181818;stroke-width:1.0;" x1="86.5" x2="86.5" y1="1089.2207" y2="1102.2207"/><line style="stroke:#181818;stroke-width:1.0;" x1="45.5" x2="86.5" y1="1102.2207" y2="1102.2207"/><polygon fill="#181818" points="55.5,1098.2207,45.5,1102.2207,55.5,1106.2207,51.5,1102.2207" style="stroke:#181818;stroke-width:1.0;"/><text fill="#000000" font-family="sans-serif" font-size="13" font-weight="bold" lengthAdjust="spacing" textLength="28" x="51.5" y="1069.168">(14)</text><text fill="#000000" font-family="sans-serif" font-size="13" lengthAdjust="spacing" textLength="70" x="83.5" y="1053.8574">&#50900;&#47131;&#53664;&#53360; &#49373;&#49457;</text><ellipse cx="89" cy="1064.4102" fill="#000000" rx="2.5" ry="2.5" style="stroke:#000000;stroke-width:0.0;"/><text fill="#000000" font-family="sans-serif" font-size="13" lengthAdjust="spacing" textLength="142" x="95.5" y="1069.168">resultNonce = &#45212;&#49688; &#49373;&#49457;</text><ellipse cx="89" cy="1079.7207" fill="#000000" rx="2.5" ry="2.5" style="stroke:#000000;stroke-width:0.0;"/><text fill="#000000" font-family="sans-serif" font-size="13" lengthAdjust="spacing" textLength="255" x="95.5" y="1084.4785">walletToken = sha256(wtd, resultNonce)</text><polygon fill="#181818" points="345.5,1127.5313,355.5,1131.5313,345.5,1135.5313,349.5,1131.5313" style="stroke:#181818;stroke-width:1.0;"/><line style="stroke:#181818;stroke-width:1.0;stroke-dasharray:2.0,2.0;" x1="39.5" x2="351.5" y1="1131.5313" y2="1131.5313"/><text fill="#000000" font-family="sans-serif" font-size="13" font-weight="bold" lengthAdjust="spacing" textLength="28" x="46.5" y="1126.7891">(15)</text><text fill="#000000" font-family="sans-serif" font-size="13" lengthAdjust="spacing" textLength="84" x="78.5" y="1126.7891">{resultNonce}</text><line style="stroke:#181818;stroke-width:1.0;" x1="367.5" x2="409.5" y1="1176.1523" y2="1176.1523"/><line style="stroke:#181818;stroke-width:1.0;" x1="409.5" x2="409.5" y1="1176.1523" y2="1189.1523"/><line style="stroke:#181818;stroke-width:1.0;" x1="368.5" x2="409.5" y1="1189.1523" y2="1189.1523"/><polygon fill="#181818" points="378.5,1185.1523,368.5,1189.1523,378.5,1193.1523,374.5,1189.1523" style="stroke:#181818;stroke-width:1.0;"/><text fill="#000000" font-family="sans-serif" font-size="13" font-weight="bold" lengthAdjust="spacing" textLength="28" x="374.5" y="1163.7549">(16)</text><text fill="#000000" font-family="sans-serif" font-size="13" lengthAdjust="spacing" textLength="70" x="406.5" y="1156.0996">&#50900;&#47131;&#53664;&#53360; &#49373;&#49457;</text><ellipse cx="412" cy="1166.6523" fill="#000000" rx="2.5" ry="2.5" style="stroke:#000000;stroke-width:0.0;"/><text fill="#000000" font-family="sans-serif" font-size="13" lengthAdjust="spacing" textLength="255" x="418.5" y="1171.4102">walletToken = sha256(wtd, resultNonce)</text><polygon fill="#32CD32" points="20,1202.1523,380,1202.1523,390,1213.1523,380,1225.1523,20,1225.1523,10,1213.1523,20,1202.1523" style="stroke:#181818;stroke-width:0.5;"/><text fill="#000000" font-family="sans-serif" font-size="13" lengthAdjust="spacing" textLength="180" x="110.25" y="1218.7207">&#50900;&#47131;&#50640; &#51217;&#44540; &#49884; walletToken &#51228;&#52636;</text><!--SRC=[bLNBJjj055tNNp4AcyG4KAde8aeYHMs542r2eez5gP2J330YiIrx0cfHf9Gcg0AgqfQ856AK1Iefeb9uz2NnHV7a7th7TXpRuQ5watZctdFkFVVCc1AQmyATk4xUuDZeM9BjxvYD_Svwe_EsXTWxWvLFuoDyCobWEOke5Iv81Qh8XNmQQoWKJoV30v7uI3eP4WHLqYZ945MIAGg9eeqcYY4awMX5og5u_8MKos6QJFQ56d_QhHAhdZhH6Gc2KwfwGoHYvRhvjyms3jqS5P9ciBQCDSWJf0mbonB5i248cgp0FmMs-2k2HnHVJcjuA8ldYOophqJHNaNJa-DpKwadZr02kLpCgA7ELhEpTiYEIkPnnLB3WXH6a0zQlHbxOi8BYzZw5gitsC4s9sYtwh33DWtpl0nB7WuXaK1tXv4jtbDb2Sip66TH8Y488DHG4dXZY1sMG0xECokBI2regg9ZphRttVnOPhlRo3mwQ9zj8MY1DQfkuDB2b9JdWTt6kw1yOeE30EmpnMRT_59tlC7sTjZPZrbvrM6BTj6ALhySmCQ9eM04WhuxUqq0GPslLUZRoh2KrCZ28esvWUtMPsQKdQXEjSPsJnm5pUqQz89OTOCP_CSQ4sjyQl- -HApLD3URVMMO7rhCkEYKMnwvkWzNOrdAaUmpcP8SLyukqRY4feE1iY9dk6ZcMfszhpbwzD650oEBw7nkFYZ00FbiRNhihavHcwaeQ9WMD1cjSeIYvOXHdoCUIbJoEKBj7vwdU__yR51U4C-pqwyNY_UlBqgZO_VdL4AWWNmXHqbQqd7ONWw3poCHRxYgASia2oS4L5qxORiLC3YCgcgUNzoggZSW2rtgc7BHUCrHJnrHbyJLBDYGv-3rYe1RvBZYhvLCujT0aQ8KwrIYH96TmmaNGA0hPHu2TR8WftGTQpJi51XrK29zDOG3CukiqApV3RSs5hM9Uvu02DiIzuQvxxhm7ZjSVPRz9h1GWWw-IZAlBevyxRCI-sO43qcOrNwoIYtII-LO1nK8XIH8HSyVN9CAnGpRyjhx_ONrTnB4qB0EnfowoLCkdLSrH_imr13rWaHSmJsBHTyTV7LH_y4WBFQ-9f0IvL_2WSSaZySrZ6LB1Pk4N-ZTkmwk9oyyQzJPhxhr_R3G_W40]--></g></svg>