<?xml version="1.0" encoding="us-ascii" standalone="no"?><svg xmlns="http://www.w3.org/2000/svg" xmlns:xlink="http://www.w3.org/1999/xlink" contentStyleType="text/css" height="1696px" preserveAspectRatio="none" style="width:1304px;height:1696px;background:#FFFFFF;" version="1.1" viewBox="0 0 1304 1696" width="1304px" zoomAndPan="magnify"><defs/><g><text fill="#000000" font-family="sans-serif" font-size="25" font-weight="bold" lengthAdjust="spacing" textLength="225" x="535.75" y="43.8452">Wallet Registration</text><rect fill="#FDF5E6" height="1628.7158" style="stroke:#181818;stroke-width:0.5;" width="274.5" x="1" y="61.3384"/><text fill="#000000" font-family="sans-serif" font-size="13" font-weight="bold" lengthAdjust="spacing" textLength="43" x="114.75" y="76.3379">Mobile</text><rect fill="#FFFFFF" height="1477.9419" style="stroke:#181818;stroke-width:1.0;" width="10" x="27.5" y="146.6533"/><rect fill="#FFFFFF" height="1445.0859" style="stroke:#181818;stroke-width:1.0;" width="10" x="231.5" y="170.5093"/><rect fill="#FFFFFF" height="354.1274" style="stroke:#181818;stroke-width:1.0;" width="10" x="485.5" y="572.9248"/><rect fill="#FFFFFF" height="561.1191" style="stroke:#181818;stroke-width:1.0;" width="10" x="806.5" y="1022.6201"/><rect fill="#FFFFFF" height="121.5679" style="stroke:#181818;stroke-width:1.0;" width="10" x="1091.5" y="1331.8916"/><line style="stroke:#181818;stroke-width:0.5;stroke-dasharray:5.0,5.0;" x1="32" x2="32" y1="136.6533" y2="1633.5952"/><line style="stroke:#181818;stroke-width:0.5;stroke-dasharray:5.0,5.0;" x1="236.5" x2="236.5" y1="136.6533" y2="1633.5952"/><line style="stroke:#181818;stroke-width:0.5;stroke-dasharray:5.0,5.0;" x1="490.5" x2="490.5" y1="136.6533" y2="1633.5952"/><line style="stroke:#181818;stroke-width:0.5;stroke-dasharray:5.0,5.0;" x1="811" x2="811" y1="136.6533" y2="1633.5952"/><line style="stroke:#181818;stroke-width:0.5;stroke-dasharray:5.0,5.0;" x1="1096.5" x2="1096.5" y1="136.6533" y2="1633.5952"/><rect fill="#E2E2F0" height="52.459" rx="2.5" ry="2.5" style="stroke:#181818;stroke-width:0.5;" width="55" x="5" y="83.1943"/><text fill="#000000" font-family="sans-serif" font-size="14" font-style="italic" lengthAdjust="spacing" textLength="41" x="12" y="106.3477">&#171;App&#187;</text><text fill="#000000" font-family="sans-serif" font-size="14" font-weight="bold" lengthAdjust="spacing" textLength="37" x="14" y="125.5771">CApp</text><rect fill="#E2E2F0" height="52.459" rx="2.5" ry="2.5" style="stroke:#181818;stroke-width:0.5;" width="55" x="5" y="1632.5952"/><text fill="#000000" font-family="sans-serif" font-size="14" font-style="italic" lengthAdjust="spacing" textLength="41" x="12" y="1655.7485">&#171;App&#187;</text><text fill="#000000" font-family="sans-serif" font-size="14" font-weight="bold" lengthAdjust="spacing" textLength="37" x="14" y="1674.978">CApp</text><rect fill="#E2E2F0" height="52.459" rx="2.5" ry="2.5" style="stroke:#181818;stroke-width:0.5;" width="70" x="201.5" y="83.1943"/><text fill="#000000" font-family="sans-serif" font-size="14" font-style="italic" lengthAdjust="spacing" textLength="56" x="208.5" y="106.3477">&#171;Wallet&#187;</text><text fill="#000000" font-family="sans-serif" font-size="14" font-weight="bold" lengthAdjust="spacing" textLength="43" x="215" y="125.5771">Wallet</text><rect fill="#E2E2F0" height="52.459" rx="2.5" ry="2.5" style="stroke:#181818;stroke-width:0.5;" width="70" x="201.5" y="1632.5952"/><text fill="#000000" font-family="sans-serif" font-size="14" font-style="italic" lengthAdjust="spacing" textLength="56" x="208.5" y="1655.7485">&#171;Wallet&#187;</text><text fill="#000000" font-family="sans-serif" font-size="14" font-weight="bold" lengthAdjust="spacing" textLength="43" x="215" y="1674.978">Wallet</text><rect fill="#E2E2F0" height="52.459" rx="2.5" ry="2.5" style="stroke:#181818;stroke-width:0.5;" width="122" x="429.5" y="83.1943"/><text fill="#000000" font-family="sans-serif" font-size="14" font-style="italic" lengthAdjust="spacing" textLength="57" x="462" y="106.3477">&#171;Server&#187;</text><text fill="#000000" font-family="sans-serif" font-size="14" font-weight="bold" lengthAdjust="spacing" textLength="108" x="436.5" y="125.5771">Wallet Provider</text><rect fill="#E2E2F0" height="52.459" rx="2.5" ry="2.5" style="stroke:#181818;stroke-width:0.5;" width="122" x="429.5" y="1632.5952"/><text fill="#000000" font-family="sans-serif" font-size="14" font-style="italic" lengthAdjust="spacing" textLength="57" x="462" y="1655.7485">&#171;Server&#187;</text><text fill="#000000" font-family="sans-serif" font-size="14" font-weight="bold" lengthAdjust="spacing" textLength="108" x="436.5" y="1674.978">Wallet Provider</text><rect fill="#E2E2F0" height="52.459" rx="2.5" ry="2.5" style="stroke:#181818;stroke-width:0.5;" width="71" x="776" y="83.1943"/><text fill="#000000" font-family="sans-serif" font-size="14" font-style="italic" lengthAdjust="spacing" textLength="57" x="783" y="106.3477">&#171;Server&#187;</text><text fill="#000000" font-family="sans-serif" font-size="14" font-weight="bold" lengthAdjust="spacing" textLength="26" x="798.5" y="125.5771">TAS</text><rect fill="#E2E2F0" height="52.459" rx="2.5" ry="2.5" style="stroke:#181818;stroke-width:0.5;" width="71" x="776" y="1632.5952"/><text fill="#000000" font-family="sans-serif" font-size="14" font-style="italic" lengthAdjust="spacing" textLength="57" x="783" y="1655.7485">&#171;Server&#187;</text><text fill="#000000" font-family="sans-serif" font-size="14" font-weight="bold" lengthAdjust="spacing" textLength="26" x="798.5" y="1674.978">TAS</text><rect fill="#E2E2F0" height="52.459" rx="2.5" ry="2.5" style="stroke:#181818;stroke-width:0.5;" width="130" x="1031.5" y="83.1943"/><text fill="#000000" font-family="sans-serif" font-size="14" font-style="italic" lengthAdjust="spacing" textLength="85" x="1054" y="106.3477">&#171;Blockchain&#187;</text><text fill="#000000" font-family="sans-serif" font-size="14" font-weight="bold" lengthAdjust="spacing" textLength="116" x="1038.5" y="125.5771">Trust Repository</text><rect fill="#E2E2F0" height="52.459" rx="2.5" ry="2.5" style="stroke:#181818;stroke-width:0.5;" width="130" x="1031.5" y="1632.5952"/><text fill="#000000" font-family="sans-serif" font-size="14" font-style="italic" lengthAdjust="spacing" textLength="85" x="1054" y="1655.7485">&#171;Blockchain&#187;</text><text fill="#000000" font-family="sans-serif" font-size="14" font-weight="bold" lengthAdjust="spacing" textLength="116" x="1038.5" y="1674.978">Trust Repository</text><rect fill="#FFFFFF" height="1477.9419" style="stroke:#181818;stroke-width:1.0;" width="10" x="27.5" y="146.6533"/><rect fill="#FFFFFF" height="1445.0859" style="stroke:#181818;stroke-width:1.0;" width="10" x="231.5" y="170.5093"/><rect fill="#FFFFFF" height="354.1274" style="stroke:#181818;stroke-width:1.0;" width="10" x="485.5" y="572.9248"/><rect fill="#FFFFFF" height="561.1191" style="stroke:#181818;stroke-width:1.0;" width="10" x="806.5" y="1022.6201"/><rect fill="#FFFFFF" height="121.5679" style="stroke:#181818;stroke-width:1.0;" width="10" x="1091.5" y="1331.8916"/><polygon fill="#181818" points="219.5,166.5093,229.5,170.5093,219.5,174.5093,223.5,170.5093" style="stroke:#181818;stroke-width:1.0;"/><line style="stroke:#181818;stroke-width:1.0;" x1="37.5" x2="225.5" y1="170.5093" y2="170.5093"/><text fill="#000000" font-family="sans-serif" font-size="13" font-weight="bold" lengthAdjust="spacing" textLength="15" x="44.5" y="165.6528">(1)</text><text fill="#000000" font-family="sans-serif" font-size="13" lengthAdjust="spacing" textLength="156" x="63.5" y="165.6528">Request Wallet Generation</text><rect fill="#EEEEEE" height="3" style="stroke:#EEEEEE;stroke-width:1.0;" width="1297.5" x="0" y="200.4373"/><line style="stroke:#000000;stroke-width:1.0;" x1="0" x2="1297.5" y1="200.4373" y2="200.4373"/><line style="stroke:#000000;stroke-width:1.0;" x1="0" x2="1297.5" y1="203.4373" y2="203.4373"/><rect fill="#EEEEEE" height="25.856" style="stroke:#000000;stroke-width:2.0;" width="162" x="567.75" y="188.5093"/><text fill="#000000" font-family="sans-serif" font-size="13" font-weight="bold" lengthAdjust="spacing" textLength="144" x="573.75" y="207.5088">(A1) Wallet Generation</text><line style="stroke:#181818;stroke-width:1.0;" x1="241.5" x2="283.5" y1="248.2212" y2="248.2212"/><line style="stroke:#181818;stroke-width:1.0;" x1="283.5" x2="283.5" y1="248.2212" y2="261.2212"/><line style="stroke:#181818;stroke-width:1.0;" x1="242.5" x2="283.5" y1="261.2212" y2="261.2212"/><polygon fill="#181818" points="252.5,257.2212,242.5,261.2212,252.5,265.2212,248.5,261.2212" style="stroke:#181818;stroke-width:1.0;"/><text fill="#000000" font-family="sans-serif" font-size="13" font-weight="bold" lengthAdjust="spacing" textLength="15" x="248.5" y="243.3647">(2)</text><text fill="#000000" font-family="sans-serif" font-size="13" lengthAdjust="spacing" textLength="88" x="267.5" y="243.3647">Initialize Wallet</text><rect fill="#EEEEEE" height="3" style="stroke:#EEEEEE;stroke-width:1.0;" width="1297.5" x="0" y="291.1492"/><line style="stroke:#000000;stroke-width:1.0;" x1="0" x2="1297.5" y1="291.1492" y2="291.1492"/><line style="stroke:#000000;stroke-width:1.0;" x1="0" x2="1297.5" y1="294.1492" y2="294.1492"/><rect fill="#EEEEEE" height="25.856" style="stroke:#000000;stroke-width:2.0;" width="256" x="520.75" y="279.2212"/><text fill="#000000" font-family="sans-serif" font-size="13" font-weight="bold" lengthAdjust="spacing" textLength="238" x="526.75" y="298.2207">(A2) Wallet DID Document Generation</text><line style="stroke:#181818;stroke-width:1.0;" x1="241.5" x2="283.5" y1="338.9331" y2="338.9331"/><line style="stroke:#181818;stroke-width:1.0;" x1="283.5" x2="283.5" y1="338.9331" y2="351.9331"/><line style="stroke:#181818;stroke-width:1.0;" x1="242.5" x2="283.5" y1="351.9331" y2="351.9331"/><polygon fill="#181818" points="252.5,347.9331,242.5,351.9331,252.5,355.9331,248.5,351.9331" style="stroke:#181818;stroke-width:1.0;"/><text fill="#000000" font-family="sans-serif" font-size="13" font-weight="bold" lengthAdjust="spacing" textLength="15" x="248.5" y="334.0767">(3)</text><text fill="#000000" font-family="sans-serif" font-size="13" lengthAdjust="spacing" textLength="198" x="267.5" y="334.0767">Generate Wallet Key (Device Key)</text><line style="stroke:#181818;stroke-width:1.0;" x1="241.5" x2="283.5" y1="401.645" y2="401.645"/><line style="stroke:#181818;stroke-width:1.0;" x1="283.5" x2="283.5" y1="401.645" y2="414.645"/><line style="stroke:#181818;stroke-width:1.0;" x1="242.5" x2="283.5" y1="414.645" y2="414.645"/><polygon fill="#181818" points="252.5,410.645,242.5,414.645,252.5,418.645,248.5,414.645" style="stroke:#181818;stroke-width:1.0;"/><text fill="#000000" font-family="sans-serif" font-size="13" font-weight="bold" lengthAdjust="spacing" textLength="15" x="248.5" y="387.8606">(4)</text><text fill="#000000" font-family="sans-serif" font-size="13" lengthAdjust="spacing" textLength="90" x="267.5" y="378.9326">(DidDoc)didDoc</text><text fill="#000000" font-family="sans-serif" font-size="13" lengthAdjust="spacing" textLength="138" x="275.5" y="396.7886">= Create DID Document</text><line style="stroke:#181818;stroke-width:1.0;" x1="241.5" x2="283.5" y1="464.3569" y2="464.3569"/><line style="stroke:#181818;stroke-width:1.0;" x1="283.5" x2="283.5" y1="464.3569" y2="477.3569"/><line style="stroke:#181818;stroke-width:1.0;" x1="242.5" x2="283.5" y1="477.3569" y2="477.3569"/><polygon fill="#181818" points="252.5,473.3569,242.5,477.3569,252.5,481.3569,248.5,477.3569" style="stroke:#181818;stroke-width:1.0;"/><text fill="#000000" font-family="sans-serif" font-size="13" font-weight="bold" lengthAdjust="spacing" textLength="15" x="248.5" y="450.5725">(5)</text><text fill="#000000" font-family="sans-serif" font-size="13" lengthAdjust="spacing" textLength="163" x="267.5" y="441.6445">(OwnerDidDoc)ownerDidDoc</text><text fill="#000000" font-family="sans-serif" font-size="13" lengthAdjust="spacing" textLength="200" x="275.5" y="459.5005">= Sign with Individual Key (didDoc)</text><rect fill="#EEEEEE" height="3" style="stroke:#EEEEEE;stroke-width:1.0;" width="1297.5" x="0" y="507.2849"/><line style="stroke:#000000;stroke-width:1.0;" x1="0" x2="1297.5" y1="507.2849" y2="507.2849"/><line style="stroke:#000000;stroke-width:1.0;" x1="0" x2="1297.5" y1="510.2849" y2="510.2849"/><rect fill="#EEEEEE" height="25.856" style="stroke:#000000;stroke-width:2.0;" width="411" x="443.25" y="495.3569"/><text fill="#000000" font-family="sans-serif" font-size="13" font-weight="bold" lengthAdjust="spacing" textLength="393" x="449.25" y="514.3564">(A3) Generate Wallet Identifier and Sign Wallet DID Document</text><polygon fill="#181818" points="473.5,568.9248,483.5,572.9248,473.5,576.9248,477.5,572.9248" style="stroke:#181818;stroke-width:1.0;"/><line style="stroke:#181818;stroke-width:1.0;" x1="241.5" x2="479.5" y1="572.9248" y2="572.9248"/><text fill="#000000" font-family="sans-serif" font-size="13" font-weight="bold" lengthAdjust="spacing" textLength="15" x="248.5" y="559.1404">(6)</text><text fill="#000000" font-family="sans-serif" font-size="13" lengthAdjust="spacing" textLength="195" x="267.5" y="550.2124">Request DID Document Signature</text><text fill="#000000" font-family="sans-serif" font-size="13" lengthAdjust="spacing" textLength="84" x="267.5" y="568.0684">{ownerDidDoc}</text><line style="stroke:#181818;stroke-width:1.0;" x1="495.5" x2="537.5" y1="604.7808" y2="604.7808"/><line style="stroke:#181818;stroke-width:1.0;" x1="537.5" x2="537.5" y1="604.7808" y2="617.7808"/><line style="stroke:#181818;stroke-width:1.0;" x1="496.5" x2="537.5" y1="617.7808" y2="617.7808"/><polygon fill="#181818" points="506.5,613.7808,496.5,617.7808,506.5,621.7808,502.5,617.7808" style="stroke:#181818;stroke-width:1.0;"/><text fill="#000000" font-family="sans-serif" font-size="13" font-weight="bold" lengthAdjust="spacing" textLength="15" x="502.5" y="599.9243">(7)</text><text fill="#000000" font-family="sans-serif" font-size="13" lengthAdjust="spacing" textLength="205" x="521.5" y="599.9243">walletId = Generate Wallet Identifier</text><line style="stroke:#181818;stroke-width:1.0;" x1="495.5" x2="537.5" y1="738.9165" y2="738.9165"/><line style="stroke:#181818;stroke-width:1.0;" x1="537.5" x2="537.5" y1="738.9165" y2="751.9165"/><line style="stroke:#181818;stroke-width:1.0;" x1="496.5" x2="537.5" y1="751.9165" y2="751.9165"/><polygon fill="#181818" points="506.5,747.9165,496.5,751.9165,506.5,755.9165,502.5,751.9165" style="stroke:#181818;stroke-width:1.0;"/><text fill="#000000" font-family="sans-serif" font-size="13" font-weight="bold" lengthAdjust="spacing" textLength="15" x="502.5" y="689.4202">(8)</text><text fill="#000000" font-family="sans-serif" font-size="13" lengthAdjust="spacing" textLength="176" x="521.5" y="644.7803">(AttestedDidDoc)attDidDoc = {</text><text fill="#000000" font-family="sans-serif" font-size="13" lengthAdjust="spacing" textLength="47" x="533.5" y="662.6362">walletId,</text><text fill="#000000" font-family="sans-serif" font-size="13" lengthAdjust="spacing" textLength="80" x="533.5" y="680.4922">ownerDidDoc,</text><text fill="#000000" font-family="sans-serif" font-size="13" lengthAdjust="spacing" textLength="218" x="533.5" y="698.3481">provider = Wallet Provider Information,</text><text fill="#000000" font-family="sans-serif" font-size="13" lengthAdjust="spacing" textLength="145" x="533.5" y="716.2041">nonce = Generate Nonce</text><text fill="#000000" font-family="sans-serif" font-size="13" lengthAdjust="spacing" textLength="4" x="525.5" y="734.0601">}</text><line style="stroke:#181818;stroke-width:1.0;" x1="495.5" x2="537.5" y1="801.6284" y2="801.6284"/><line style="stroke:#181818;stroke-width:1.0;" x1="537.5" x2="537.5" y1="801.6284" y2="814.6284"/><line style="stroke:#181818;stroke-width:1.0;" x1="496.5" x2="537.5" y1="814.6284" y2="814.6284"/><polygon fill="#181818" points="506.5,810.6284,496.5,814.6284,506.5,818.6284,502.5,814.6284" style="stroke:#181818;stroke-width:1.0;"/><text fill="#000000" font-family="sans-serif" font-size="13" font-weight="bold" lengthAdjust="spacing" textLength="15" x="502.5" y="787.844">(9)</text><text fill="#000000" font-family="sans-serif" font-size="13" lengthAdjust="spacing" textLength="144" x="521.5" y="778.916">Sign with Wallet Provider</text><ellipse cx="527" cy="792.1284" fill="#000000" rx="2.5" ry="2.5" style="stroke:#000000;stroke-width:0.0;"/><text fill="#000000" font-family="sans-serif" font-size="13" lengthAdjust="spacing" textLength="127" x="533.5" y="796.772">signAssert(attDidDoc)</text><line style="stroke:#181818;stroke-width:1.0;" x1="495.5" x2="537.5" y1="882.1963" y2="882.1963"/><line style="stroke:#181818;stroke-width:1.0;" x1="537.5" x2="537.5" y1="882.1963" y2="895.1963"/><line style="stroke:#181818;stroke-width:1.0;" x1="496.5" x2="537.5" y1="895.1963" y2="895.1963"/><polygon fill="#181818" points="506.5,891.1963,496.5,895.1963,506.5,899.1963,502.5,895.1963" style="stroke:#181818;stroke-width:1.0;"/><text fill="#000000" font-family="sans-serif" font-size="13" font-weight="bold" lengthAdjust="spacing" textLength="22" x="502.5" y="859.4839">(10)</text><text fill="#000000" font-family="sans-serif" font-size="13" lengthAdjust="spacing" textLength="187" x="528.5" y="841.6279">Store Mapping Information in DB</text><ellipse cx="534" cy="854.8403" fill="#000000" rx="2.5" ry="2.5" style="stroke:#000000;stroke-width:0.0;"/><text fill="#000000" font-family="sans-serif" font-size="13" lengthAdjust="spacing" textLength="144" x="540.5" y="859.4839">walletId (Wallet Identifier)</text><ellipse cx="534" cy="872.6963" fill="#000000" rx="2.5" ry="2.5" style="stroke:#000000;stroke-width:0.0;"/><text fill="#000000" font-family="sans-serif" font-size="13" lengthAdjust="spacing" textLength="126" x="540.5" y="877.3398">walletDid (Wallet DID)</text><polygon fill="#181818" points="252.5,923.0522,242.5,927.0522,252.5,931.0522,248.5,927.0522" style="stroke:#181818;stroke-width:1.0;"/><line style="stroke:#181818;stroke-width:1.0;stroke-dasharray:2.0,2.0;" x1="246.5" x2="489.5" y1="927.0522" y2="927.0522"/><text fill="#000000" font-family="sans-serif" font-size="13" font-weight="bold" lengthAdjust="spacing" textLength="22" x="258.5" y="922.1958">(11)</text><text fill="#000000" font-family="sans-serif" font-size="13" lengthAdjust="spacing" textLength="65" x="284.5" y="922.1958">{attDidDoc}</text><rect fill="#EEEEEE" height="3" style="stroke:#EEEEEE;stroke-width:1.0;" width="1297.5" x="0" y="956.9802"/><line style="stroke:#000000;stroke-width:1.0;" x1="0" x2="1297.5" y1="956.9802" y2="956.9802"/><line style="stroke:#000000;stroke-width:1.0;" x1="0" x2="1297.5" y1="959.9802" y2="959.9802"/><rect fill="#EEEEEE" height="25.856" style="stroke:#000000;stroke-width:2.0;" width="204" x="546.75" y="945.0522"/><text fill="#000000" font-family="sans-serif" font-size="13" font-weight="bold" lengthAdjust="spacing" textLength="186" x="552.75" y="964.0518">(A4) Register Wallet with TAS</text><polygon fill="#181818" points="794.5,1018.6201,804.5,1022.6201,794.5,1026.6201,798.5,1022.6201" style="stroke:#181818;stroke-width:1.0;"/><line style="stroke:#181818;stroke-width:1.0;" x1="241.5" x2="800.5" y1="1022.6201" y2="1022.6201"/><text fill="#000000" font-family="sans-serif" font-size="13" font-weight="bold" lengthAdjust="spacing" textLength="22" x="248.5" y="1008.8357">(12)</text><text fill="#000000" font-family="sans-serif" font-size="13" lengthAdjust="spacing" textLength="141" x="274.5" y="999.9077">Request Register Wallet</text><text fill="#000000" font-family="sans-serif" font-size="13" lengthAdjust="spacing" textLength="65" x="274.5" y="1017.7637">{attDidDoc}</text><line style="stroke:#181818;stroke-width:1.0;" x1="816.5" x2="858.5" y1="1090.188" y2="1090.188"/><line style="stroke:#181818;stroke-width:1.0;" x1="858.5" x2="858.5" y1="1090.188" y2="1103.188"/><line style="stroke:#181818;stroke-width:1.0;" x1="817.5" x2="858.5" y1="1103.188" y2="1103.188"/><polygon fill="#181818" points="827.5,1099.188,817.5,1103.188,827.5,1107.188,823.5,1103.188" style="stroke:#181818;stroke-width:1.0;"/><text fill="#000000" font-family="sans-serif" font-size="13" font-weight="bold" lengthAdjust="spacing" textLength="22" x="823.5" y="1067.4756">(13)</text><text fill="#000000" font-family="sans-serif" font-size="13" lengthAdjust="spacing" textLength="92" x="849.5" y="1049.6196">Verify Signature</text><ellipse cx="855" cy="1062.832" fill="#000000" rx="2.5" ry="2.5" style="stroke:#000000;stroke-width:0.0;"/><text fill="#000000" font-family="sans-serif" font-size="13" lengthAdjust="spacing" textLength="183" x="861.5" y="1067.4756">Verify Wallet Provider Signature</text><ellipse cx="855" cy="1080.688" fill="#000000" rx="2.5" ry="2.5" style="stroke:#000000;stroke-width:0.0;"/><text fill="#000000" font-family="sans-serif" font-size="13" lengthAdjust="spacing" textLength="175" x="861.5" y="1085.3315">Verify Individual Key Signature</text><line style="stroke:#181818;stroke-width:1.0;" x1="816.5" x2="858.5" y1="1206.4678" y2="1206.4678"/><line style="stroke:#181818;stroke-width:1.0;" x1="858.5" x2="858.5" y1="1206.4678" y2="1219.4678"/><line style="stroke:#181818;stroke-width:1.0;" x1="817.5" x2="858.5" y1="1219.4678" y2="1219.4678"/><polygon fill="#181818" points="827.5,1215.4678,817.5,1219.4678,827.5,1223.4678,823.5,1219.4678" style="stroke:#181818;stroke-width:1.0;"/><text fill="#000000" font-family="sans-serif" font-size="13" font-weight="bold" lengthAdjust="spacing" textLength="22" x="823.5" y="1165.8994">(14)</text><text fill="#000000" font-family="sans-serif" font-size="13" lengthAdjust="spacing" textLength="170" x="849.5" y="1130.1875">(InvokedDidDoc)invDidDoc = {</text><text fill="#000000" font-family="sans-serif" font-size="13" lengthAdjust="spacing" textLength="44" x="861.5" y="1148.0435">didDoc,</text><text fill="#000000" font-family="sans-serif" font-size="13" lengthAdjust="spacing" textLength="165" x="861.5" y="1165.8994">controller = TAS Information,</text><text fill="#000000" font-family="sans-serif" font-size="13" lengthAdjust="spacing" textLength="145" x="861.5" y="1183.7554">nonce = Generate Nonce</text><text fill="#000000" font-family="sans-serif" font-size="13" lengthAdjust="spacing" textLength="4" x="853.5" y="1201.6113">}</text><line style="stroke:#181818;stroke-width:1.0;" x1="816.5" x2="858.5" y1="1269.1797" y2="1269.1797"/><line style="stroke:#181818;stroke-width:1.0;" x1="858.5" x2="858.5" y1="1269.1797" y2="1282.1797"/><line style="stroke:#181818;stroke-width:1.0;" x1="817.5" x2="858.5" y1="1282.1797" y2="1282.1797"/><polygon fill="#181818" points="827.5,1278.1797,817.5,1282.1797,827.5,1286.1797,823.5,1282.1797" style="stroke:#181818;stroke-width:1.0;"/><text fill="#000000" font-family="sans-serif" font-size="13" font-weight="bold" lengthAdjust="spacing" textLength="22" x="823.5" y="1255.3953">(15)</text><text fill="#000000" font-family="sans-serif" font-size="13" lengthAdjust="spacing" textLength="112" x="849.5" y="1246.4673">Sign with Controller</text><ellipse cx="855" cy="1259.6797" fill="#000000" rx="2.5" ry="2.5" style="stroke:#000000;stroke-width:0.0;"/><text fill="#000000" font-family="sans-serif" font-size="13" lengthAdjust="spacing" textLength="125" x="861.5" y="1264.3232">signInvoke(invDidDoc)</text><polygon fill="#181818" points="1079.5,1327.8916,1089.5,1331.8916,1079.5,1335.8916,1083.5,1331.8916" style="stroke:#181818;stroke-width:1.0;"/><line style="stroke:#181818;stroke-width:1.0;" x1="816.5" x2="1085.5" y1="1331.8916" y2="1331.8916"/><text fill="#000000" font-family="sans-serif" font-size="13" font-weight="bold" lengthAdjust="spacing" textLength="22" x="823.5" y="1318.1072">(16)</text><text fill="#000000" font-family="sans-serif" font-size="13" lengthAdjust="spacing" textLength="146" x="849.5" y="1309.1792">Request DID Registration</text><text fill="#000000" font-family="sans-serif" font-size="13" lengthAdjust="spacing" textLength="65" x="849.5" y="1327.0352">{invDidDoc}</text><line style="stroke:#181818;stroke-width:1.0;" x1="1101.5" x2="1143.5" y1="1363.7476" y2="1363.7476"/><line style="stroke:#181818;stroke-width:1.0;" x1="1143.5" x2="1143.5" y1="1363.7476" y2="1376.7476"/><line style="stroke:#181818;stroke-width:1.0;" x1="1102.5" x2="1143.5" y1="1376.7476" y2="1376.7476"/><polygon fill="#181818" points="1112.5,1372.7476,1102.5,1376.7476,1112.5,1380.7476,1108.5,1376.7476" style="stroke:#181818;stroke-width:1.0;"/><text fill="#000000" font-family="sans-serif" font-size="13" font-weight="bold" lengthAdjust="spacing" textLength="22" x="1108.5" y="1358.8911">(17)</text><text fill="#000000" font-family="sans-serif" font-size="13" lengthAdjust="spacing" textLength="151" x="1134.5" y="1358.8911">Verify Controller Signature</text><line style="stroke:#181818;stroke-width:1.0;" x1="1101.5" x2="1143.5" y1="1408.6035" y2="1408.6035"/><line style="stroke:#181818;stroke-width:1.0;" x1="1143.5" x2="1143.5" y1="1408.6035" y2="1421.6035"/><line style="stroke:#181818;stroke-width:1.0;" x1="1102.5" x2="1143.5" y1="1421.6035" y2="1421.6035"/><polygon fill="#181818" points="1112.5,1417.6035,1102.5,1421.6035,1112.5,1425.6035,1108.5,1421.6035" style="stroke:#181818;stroke-width:1.0;"/><text fill="#000000" font-family="sans-serif" font-size="13" font-weight="bold" lengthAdjust="spacing" textLength="22" x="1108.5" y="1403.7471">(18)</text><text fill="#000000" font-family="sans-serif" font-size="13" lengthAdjust="spacing" textLength="48" x="1134.5" y="1403.7471">Register</text><polygon fill="#181818" points="827.5,1449.4595,817.5,1453.4595,827.5,1457.4595,823.5,1453.4595" style="stroke:#181818;stroke-width:1.0;"/><line style="stroke:#181818;stroke-width:1.0;stroke-dasharray:2.0,2.0;" x1="821.5" x2="1095.5" y1="1453.4595" y2="1453.4595"/><text fill="#000000" font-family="sans-serif" font-size="13" font-weight="bold" lengthAdjust="spacing" textLength="22" x="833.5" y="1448.603">(19)</text><text fill="#000000" font-family="sans-serif" font-size="13" lengthAdjust="spacing" textLength="19" x="859.5" y="1448.603">OK</text><line style="stroke:#181818;stroke-width:1.0;" x1="816.5" x2="858.5" y1="1538.8833" y2="1538.8833"/><line style="stroke:#181818;stroke-width:1.0;" x1="858.5" x2="858.5" y1="1538.8833" y2="1551.8833"/><line style="stroke:#181818;stroke-width:1.0;" x1="817.5" x2="858.5" y1="1551.8833" y2="1551.8833"/><polygon fill="#181818" points="827.5,1547.8833,817.5,1551.8833,827.5,1555.8833,823.5,1551.8833" style="stroke:#181818;stroke-width:1.0;"/><text fill="#000000" font-family="sans-serif" font-size="13" font-weight="bold" lengthAdjust="spacing" textLength="22" x="823.5" y="1507.2429">(20)</text><text fill="#000000" font-family="sans-serif" font-size="13" lengthAdjust="spacing" textLength="187" x="849.5" y="1480.459">Store Mapping Information in DB</text><ellipse cx="855" cy="1493.6714" fill="#000000" rx="2.5" ry="2.5" style="stroke:#000000;stroke-width:0.0;"/><text fill="#000000" font-family="sans-serif" font-size="13" lengthAdjust="spacing" textLength="144" x="861.5" y="1498.3149">walletId (Wallet Identifier)</text><ellipse cx="855" cy="1511.5273" fill="#000000" rx="2.5" ry="2.5" style="stroke:#000000;stroke-width:0.0;"/><text fill="#000000" font-family="sans-serif" font-size="13" lengthAdjust="spacing" textLength="126" x="861.5" y="1516.1709">walletDid (Wallet DID)</text><ellipse cx="855" cy="1529.3833" fill="#000000" rx="2.5" ry="2.5" style="stroke:#000000;stroke-width:0.0;"/><text fill="#000000" font-family="sans-serif" font-size="13" lengthAdjust="spacing" textLength="222" x="861.5" y="1534.0269">walletProviderDid (Wallet Provider DID)</text><polygon fill="#181818" points="252.5,1579.7393,242.5,1583.7393,252.5,1587.7393,248.5,1583.7393" style="stroke:#181818;stroke-width:1.0;"/><line style="stroke:#181818;stroke-width:1.0;stroke-dasharray:2.0,2.0;" x1="246.5" x2="810.5" y1="1583.7393" y2="1583.7393"/><text fill="#000000" font-family="sans-serif" font-size="13" font-weight="bold" lengthAdjust="spacing" textLength="22" x="258.5" y="1578.8828">(21)</text><text fill="#000000" font-family="sans-serif" font-size="13" lengthAdjust="spacing" textLength="19" x="284.5" y="1578.8828">OK</text><polygon fill="#181818" points="48.5,1611.5952,38.5,1615.5952,48.5,1619.5952,44.5,1615.5952" style="stroke:#181818;stroke-width:1.0;"/><line style="stroke:#181818;stroke-width:1.0;stroke-dasharray:2.0,2.0;" x1="42.5" x2="235.5" y1="1615.5952" y2="1615.5952"/><text fill="#000000" font-family="sans-serif" font-size="13" font-weight="bold" lengthAdjust="spacing" textLength="22" x="54.5" y="1610.7388">(22)</text><text fill="#000000" font-family="sans-serif" font-size="13" lengthAdjust="spacing" textLength="19" x="80.5" y="1610.7388">OK</text><!--SRC=[lLN1Rjim3BthAuZqOgSRYdNR9OWDf0qm15tNOHssIo-ApQH2NScJvMHPq7yVRIko8xljPPY188h5z_X8FYb6c0mPq3Cjn1-Sd7-CV_8iGmFVS2qAexaHIaxFgisOeKp1r0Z6IwDa-RX43QFfCWvEmkdPCXunjbI_uLejHOPmSfEbdtdIyETS6v68d4i3e_7uSfRdu_48U049X-cKViRnK60ZnuPkUKQnpQkuqKFvs204lcgr4Idg0pOdw2tg3Mg2Uf3liriRPkZpGfmkYwetkIg4KNfdGSk4C1UPIXwIUouauHXFZDXmWrGUOrJYsxXMVtew8VYl4ed6wlo44fi-CnP54CpUXVqjY29MjwSYQRWci93229xHR2p04fmxWlbY3dELb8yeNsMpsmSkkC8T17FSY0IhTTW317EH4dcOrb_GVUuaG0IN6Yk-heW-oSsMqbecrQxxRBTYBM4hp3tLdGeQRKaqjSX6G6YhVn_sIbcab5gi1BcLasTgfg4E-Mt9Z-Pr55fnS5Dgl9FxZkmdTX1Du9fYKh5HfaLADJmlR00Np8oXl9ZQxd1ZR6yYsFlzSLdUz7OwylgRkJqbnEcT6shpIkd7sZ1zd5IIVD6fw4lzuZXig1lj6FryHzWn51GuAmhK9d2LXqE4T10HhdcU2xdkYWOXONxXqxff1BqPXCEnbDe5amSQ3Hff-1BsJjgJjT-7qDwTL945rTNI5UFxgxfhkWRpSEIi3lj1LmLgi1FuWLgiTgqNVVrsts_qQ_7U-NBXJiEWc60XD-h1kLN8pGjkJP-nOwAaqOhaLeQiMlOlJ3Wej_NXPPjpm89DLO4h9-pHqUtlNnFTVqyQemEtOwmU0jPmDyYEadxJZn47hxXjQyYRgsVA_T-dP3ZguC5kjFEbVxYebdRr5m00]--></g></svg>