<?xml version="1.0" encoding="UTF-8"?><svg xmlns="http://www.w3.org/2000/svg" xmlns:xlink="http://www.w3.org/1999/xlink" fill-opacity="1" color-rendering="auto" color-interpolation="auto" text-rendering="auto" stroke="black" stroke-linecap="square" width="450" stroke-miterlimit="10" shape-rendering="auto" stroke-opacity="1" fill="black" stroke-dasharray="none" font-weight="normal" stroke-width="1" height="409" font-family="'Dialog'" font-style="normal" stroke-linejoin="miter" font-size="12px" stroke-dashoffset="0" image-rendering="auto">
  <!--Generated by ySVG 2.6-->
  <defs id="genericDefs"/>
  <g>
    <defs id="defs1">
      <linearGradient x1="625.7471" gradientUnits="userSpaceOnUse" x2="745.1616" y1="300.9716" y2="340.9716" id="linearGradient1" spreadMethod="reflect">
        <stop stop-opacity="1" stop-color="white" offset="0%"/>
        <stop stop-opacity="1" stop-color="white" offset="100%"/>
      </linearGradient>
      <linearGradient x1="618.2471" gradientUnits="userSpaceOnUse" x2="752.6616" y1="100.9716" y2="140.9716" id="linearGradient2" spreadMethod="reflect">
        <stop stop-opacity="1" stop-color="white" offset="0%"/>
        <stop stop-opacity="1" stop-color="white" offset="100%"/>
      </linearGradient>
      <linearGradient x1="625.7471" gradientUnits="userSpaceOnUse" x2="745.1616" y1="438.6396" y2="478.6396" id="linearGradient3" spreadMethod="reflect">
        <stop stop-opacity="1" stop-color="white" offset="0%"/>
        <stop stop-opacity="1" stop-color="white" offset="100%"/>
      </linearGradient>
      <clipPath clipPathUnits="userSpaceOnUse" id="clipPath1">
        <path d="M0 0 L450 0 L450 409 L0 409 L0 0 Z"/>
      </clipPath>
      <clipPath clipPathUnits="userSpaceOnUse" id="clipPath2">
        <path d="M452 85 L902 85 L902 494 L452 494 L452 85 Z"/>
      </clipPath>
      <clipPath clipPathUnits="userSpaceOnUse" id="clipPath3">
        <path d="M-30.957 -256.7812 L706.3261 -256.7812 L706.3261 486.4557 L-30.957 486.4557 L-30.957 -256.7812 Z"/>
      </clipPath>
      <clipPath clipPathUnits="userSpaceOnUse" id="clipPath4">
        <path d="M-650.2748 -256.7812 L87.0083 -256.7812 L87.0083 486.4557 L-650.2748 486.4557 L-650.2748 -256.7812 Z"/>
      </clipPath>
    </defs>
    <g fill="white" text-rendering="geometricPrecision" shape-rendering="geometricPrecision" transform="translate(-452,-85)" stroke="white">
      <rect x="452" width="450" height="409" y="85" clip-path="url(#clipPath2)" stroke="none"/>
    </g>
    <g fill="rgb(245,245,245)" text-rendering="geometricPrecision" shape-rendering="geometricPrecision" transform="matrix(1,0,0,1,-452,-85)" stroke="rgb(245,245,245)">
      <rect x="587.7471" y="180.6395" clip-path="url(#clipPath2)" width="200.4146" rx="4" ry="4" height="218.332" stroke="none"/>
      <rect x="587.7471" y="180.6395" clip-path="url(#clipPath2)" fill="rgb(235,235,235)" width="200.4146" height="21.666" stroke="none"/>
    </g>
    <g font-size="15px" stroke-linecap="butt" transform="matrix(1,0,0,1,-452,-85)" text-rendering="geometricPrecision" font-family="sans-serif" shape-rendering="geometricPrecision" stroke-miterlimit="1.45">
      <text x="631.9241" xml:space="preserve" y="197.1415" clip-path="url(#clipPath2)" stroke="none">User A's Mobile</text>
      <rect x="587.7471" y="180.6395" clip-path="url(#clipPath2)" fill="none" width="200.4146" stroke-dasharray="6,2" rx="4" ry="4" height="218.332"/>
    </g>
    <g fill="rgb(225,225,225)" text-rendering="geometricPrecision" shape-rendering="geometricPrecision" transform="matrix(1,0,0,1,-452,-85)" stroke="rgb(225,225,225)">
      <rect x="610.7471" y="226.3056" clip-path="url(#clipPath2)" width="149.4146" rx="4" ry="4" height="140.666" stroke="none"/>
      <rect x="610.7471" y="226.3056" clip-path="url(#clipPath2)" fill="rgb(235,235,235)" width="149.4146" height="21.666" stroke="none"/>
    </g>
    <g font-size="15px" stroke-linecap="butt" transform="matrix(1,0,0,1,-452,-85)" text-rendering="geometricPrecision" font-family="sans-serif" shape-rendering="geometricPrecision" stroke-miterlimit="1.45">
      <text x="670.8389" xml:space="preserve" y="242.8075" clip-path="url(#clipPath2)" stroke="none">App</text>
      <rect x="610.7471" y="226.3056" clip-path="url(#clipPath2)" fill="none" width="149.4146" stroke-dasharray="6,2" rx="4" ry="4" height="140.666"/>
    </g>
    <g fill="url(#linearGradient1)" text-rendering="geometricPrecision" shape-rendering="geometricPrecision" transform="matrix(1,0,0,1,-452,-85)" stroke="url(#linearGradient1)">
      <path d="M625.7471 300.9716 L745.1616 300.9716 L745.1616 340.9716 L625.7471 340.9716 Z" stroke="none" clip-path="url(#clipPath2)"/>
    </g>
    <g text-rendering="geometricPrecision" stroke-miterlimit="1.45" shape-rendering="geometricPrecision" transform="matrix(1,0,0,1,-452,-85)" stroke-linecap="butt">
      <path fill="none" d="M625.7471 300.9716 L745.1616 300.9716 L745.1616 340.9716 L625.7471 340.9716 Z" clip-path="url(#clipPath2)"/>
      <text x="667.9524" xml:space="preserve" y="325.5067" clip-path="url(#clipPath2)" font-family="sans-serif" stroke="none">Wallet</text>
    </g>
    <g fill="url(#linearGradient2)" text-rendering="geometricPrecision" shape-rendering="geometricPrecision" transform="matrix(1,0,0,1,-452,-85)" stroke="url(#linearGradient2)">
      <path d="M618.2471 100.9716 L752.6616 100.9716 L752.6616 140.9716 L618.2471 140.9716 Z" stroke="none" clip-path="url(#clipPath2)"/>
    </g>
    <g text-rendering="geometricPrecision" stroke-miterlimit="1.45" shape-rendering="geometricPrecision" transform="matrix(1,0,0,1,-452,-85)" stroke-linecap="butt">
      <path fill="none" d="M618.2471 100.9716 L752.6616 100.9716 L752.6616 140.9716 L618.2471 140.9716 Z" clip-path="url(#clipPath2)"/>
      <text x="624.6926" xml:space="preserve" y="125.5067" clip-path="url(#clipPath2)" font-family="sans-serif" stroke="none">Certified App Service</text>
    </g>
    <g fill="url(#linearGradient3)" text-rendering="geometricPrecision" shape-rendering="geometricPrecision" transform="matrix(1,0,0,1,-452,-85)" stroke="url(#linearGradient3)">
      <path d="M625.7471 438.6396 L745.1616 438.6396 L745.1616 478.6396 L625.7471 478.6396 Z" stroke="none" clip-path="url(#clipPath2)"/>
    </g>
    <g text-rendering="geometricPrecision" stroke-miterlimit="1.45" shape-rendering="geometricPrecision" transform="matrix(1,0,0,1,-452,-85)" stroke-linecap="butt">
      <path fill="none" d="M625.7471 438.6396 L745.1616 438.6396 L745.1616 478.6396 L625.7471 478.6396 Z" clip-path="url(#clipPath2)"/>
      <text x="645.7688" xml:space="preserve" y="463.1747" clip-path="url(#clipPath2)" font-family="sans-serif" stroke="none">Wallet Service</text>
    </g>
    <g text-rendering="geometricPrecision" shape-rendering="geometricPrecision" transform="matrix(0.6103,0,0,0.5503,18.8946,141.3056)">
      <g clip-path="url(#clipPath3)">
        <svg xml:space="preserve" opacity="1" writing-mode="lr-tb" stop-color="rgb(0, 0, 0)" shape-rendering="auto" glyph-orientation-horizontal="0deg" color-profile="auto" lighting-color="rgb(255, 255, 255)" color="rgb(0, 0, 0)" font-weight="400" alignment-baseline="auto" font-style="normal" version="1.1" color-interpolation-filters="linearrgb" text-anchor="start" stroke-linecap="butt" color-interpolation="srgb" font-variant="normal" word-spacing="normal" fill-opacity="1" text-rendering="auto" clip-path="none" text-decoration="none" letter-spacing="normal" viewBox="0 0 57 67" glyph-orientation-vertical="auto" display="inline" font-size-adjust="none" overflow="hidden" fill="rgb(0, 0, 0)" font-stretch="normal" stroke-dasharray="none" id="svg1.Ebene_1" stroke-miterlimit="4" stop-opacity="1" color-rendering="auto" font-size="12" pointer-events="visiblepainted" mask="none" direction="ltr" baseline-shift="baseline" enable-background="new 0 0 57 67" fill-rule="nonzero" image-rendering="auto" stroke-dashoffset="0" width="57px" marker-end="none" clip="auto" cursor="auto" stroke="none" filter="none" visibility="visible" kerning="auto" stroke-width="1" font-family="&quot;Arial&quot;,&quot;Helvetica&quot;,sans-serif" flood-opacity="1" clip-rule="nonzero" src="none" height="67px" unicode-bidi="normal" stroke-linejoin="miter" stroke-opacity="1" flood-color="rgb(0, 0, 0)" dominant-baseline="auto" marker-start="none" x="0px" marker-mid="none" y="0px">
<g>
	
		<linearGradient gradientTransform="matrix(1 0 0 1 0.3203 -3091.7656)" x1="26.3398" x2="27.5807" gradientUnits="userSpaceOnUse" y1="3115.7266" y2="3145.5239" id="svg1.SVGID_1_">
		<stop offset="0.2711" style="stop-color:#FFAB4F"/>
		<stop offset="1" style="stop-color:#FFD28F"/>
	</linearGradient>
	<path fill="url(#svg1.SVGID_1_)" d="M49.529,51.225c-4.396-4.396-10.951-5.884-12.063-6.109   V37.8H19.278c0,0,0.038,6.903,0,6.868c0,0-6.874,0.997-12.308,6.432C1.378,56.691,0.5,62.77,0.5,62.77   c0,1.938,1.575,3.492,3.523,3.492h48.51c1.947,0,3.521-1.558,3.521-3.492C56.055,62.768,54.211,55.906,49.529,51.225z" stroke-miterlimit="10" stroke="#ED9135"/>
	
		<radialGradient gradientTransform="matrix(1 0 0 1 0.3203 -3091.7656)" gradientUnits="userSpaceOnUse" r="23.425" cx="27.5835" id="svg1.face_x5F_white_1_" cy="3117.4922" fx="23.0139" fy="3115.0024">
		<stop offset="0" style="stop-color:#FFD28F"/>
		<stop offset="1" style="stop-color:#FFAB4F"/>
	</radialGradient>
	<path fill="url(#svg1.face_x5F_white_1_)" id="svg1.face_x5F_white_3_" d="M43.676,23.357   c0.086,10.199-6.738,18.52-15.25,18.586c-8.5,0.068-15.464-8.146-15.55-18.344C12.794,13.4,19.618,5.079,28.123,5.012   C36.627,4.945,43.59,13.158,43.676,23.357z" stroke-miterlimit="10" stroke="#ED9135"/>
	
		<linearGradient gradientTransform="matrix(0.275 0 0 -0.2733 -1752.8849 -3350.4617)" x1="6468.5" x2="6492.1294" gradientUnits="userSpaceOnUse" y1="-12286.8594" y2="-12380.3086" id="svg1.face_highlight_1_">
		<stop offset="0" style="stop-color:#FFFFFF;stop-opacity:0.24"/>
		<stop offset="1" style="stop-color:#FFFFFF;stop-opacity:0.16"/>
	</linearGradient>
	<path fill="url(#svg1.face_highlight_1_)" id="svg1.face_highlight_3_" d="M28.415,5.625c-6.035,0.047-10.747,4.493-12.787,10.386   c-0.664,1.919-0.294,4.043,0.98,5.629c2.73,3.398,5.729,6.283,9.461,8.088c3.137,1.518,7.535,2.385,11.893,1.247   c2.274-0.592,3.988-2.459,4.375-4.766c0.187-1.094,0.293-2.289,0.283-3.553C42.54,13.244,36.729,5.56,28.415,5.625z"/>
	<path fill="#CC9869" d="M28.372,0.5   C17.537,0.5,8.269,7.748,9.153,26.125c0.563,6.563,5.862,12.042,9.366,13.531c-2.929-10.968-0.304-25.021-0.585-25.526   c-0.281-0.505,3.536,6.728,3.536,6.728l3.183-8.312c5.541,4.28,0.393,11.309,1.049,11.058c4.26-1.631,5.34-9.228,5.34-9.228   s2.729,3.657,2.701,5.504c-0.054,3.562,2.194-6.067,2.194-6.067l1.027,2.031c6.727,9.822,3.684,16.208,1.648,22.781   c15.666-0.703,12.291-10.48,9.66-18.407C43.59,6.092,39.206,0.5,28.372,0.5z" id="svg1.Hair_Female_1_Brown_4_" stroke="#99724F" stroke-linecap="round" stroke-linejoin="round"/>
	
		<radialGradient gradientTransform="matrix(1 0 0 -1 0.04 66.1543)" id="svg1.collar_x5F_body_1_" r="32.4004" cx="15.2412" gradientUnits="userSpaceOnUse" cy="11.9829">
		<stop offset="0" style="stop-color:#FCB57A"/>
		<stop offset="1" style="stop-color:#FF8C36"/>
	</radialGradient>
	<path fill="url(#svg1.collar_x5F_body_1_)" d="M0.5,62.768c0,1.938,1.575,3.494,3.523,3.494   h48.51c1.947,0,3.521-1.559,3.521-3.494c0,0-1.844-6.861-6.525-11.543c-4.815-4.813-11.244-6.146-11.244-6.146   c-1.771,1.655-5.61,2.802-10.063,2.802c-4.453,0-8.292-1.146-10.063-2.802c0,0-5.755,0.586-11.189,6.021   C1.378,56.689,0.5,62.768,0.5,62.768z" id="svg1.collar_x5F_body_2_" stroke="#E55E03"/>
	
		<radialGradient gradientTransform="matrix(1 0 0 -1 0.04 66.1543)" id="svg1.collar_x5F_r_1_" r="9.2823" cx="31.5801" gradientUnits="userSpaceOnUse" cy="17.957">
		<stop offset="0" style="stop-color:#FCB57A"/>
		<stop offset="1" style="stop-color:#FF8C36"/>
	</radialGradient>
	<path fill="url(#svg1.collar_x5F_r_1_)" d="M38.159,41.381c0,0-0.574,2.369-3.013,4.441   c-2.108,1.795-5.783,2.072-5.783,2.072l3.974,6.217c0,0,2.957-1.637,5.009-3.848c1.922-2.072,1.37-5.479,1.37-5.479L38.159,41.381z   " id="svg1.collar_x5F_r_2_" stroke="#E55E03"/>
	
		<radialGradient gradientTransform="matrix(1 0 0 -1 0.04 66.1543)" id="svg1.collar_x5F_l_1_" r="9.2843" cx="19.2178" gradientUnits="userSpaceOnUse" cy="17.916">
		<stop offset="0" style="stop-color:#FCB57A"/>
		<stop offset="1" style="stop-color:#FF8C36"/>
	</radialGradient>
	<path fill="url(#svg1.collar_x5F_l_1_)" d="M18.63,41.422c0,0,0.576,2.369,3.012,4.441   c2.109,1.793,5.785,2.072,5.785,2.072l-3.974,6.217c0,0-2.957-1.637-5.007-3.85c-1.922-2.072-1.37-5.48-1.37-5.48L18.63,41.422z" id="svg1.collar_x5F_l_2_" stroke="#E55E03"/>
	
		<linearGradient gradientTransform="matrix(0.9852 0 0 -0.9852 -34.4844 -3031.9851)" x1="95.9063" x2="31.5133" gradientUnits="userSpaceOnUse" y1="-3134.0396" y2="-3134.0396" id="svg1.body_1_">
		<stop offset="0" style="stop-color:#49AD33"/>
		<stop offset="1" style="stop-color:#C2DA92"/>
	</linearGradient>
	<path fill="url(#svg1.body_1_)" d="M0.5,62.768c0,1.938,1.575,3.494,3.523,3.494h48.51   c1.947,0,3.521-1.559,3.521-3.494c0,0-1.844-6.861-6.525-11.543c-4.815-4.813-11.244-6.146-11.244-6.146   c-1.771,1.655-5.61,2.802-10.063,2.802c-4.453,0-8.292-1.146-10.063-2.802c0,0-5.755,0.586-11.189,6.021   C1.378,56.689,0.5,62.768,0.5,62.768z" id="svg1.body_15_" stroke="#008D33"/>
	
		<linearGradient gradientTransform="matrix(1 0 0 1 0.3203 -3091.7656)" x1="41.0879" x2="15.0673" gradientUnits="userSpaceOnUse" y1="3138.3994" y2="3138.3994" id="svg1.turtleneck_1_">
		<stop offset="0" style="stop-color:#49AD33"/>
		<stop offset="1" style="stop-color:#C2DA92"/>
	</linearGradient>
	<path fill="url(#svg1.turtleneck_1_)" d="M39.715,44.786l-1.557-3.405   c0,0-0.574,2.369-3.012,4.441c-2.109,1.795-6.785,2.072-6.785,2.072s-4.753-0.356-6.722-2.031   c-2.436-2.072-3.012-4.441-3.012-4.441l-1.555,3.404c0,0-0.552,1.404,1.37,3.479c1.025,1.105,5.203,3.611,9.682,3.582   c4.479-0.029,9.264-2.594,10.218-3.623C40.266,46.191,39.715,44.786,39.715,44.786z" id="svg1.turtleneck_11_" stroke="#008D33"/>
	
		<radialGradient gradientTransform="matrix(0.9852 0 0 -0.9852 -34.4844 -3031.9851)" id="svg1.body_2_" r="32.8877" cx="50.5117" gradientUnits="userSpaceOnUse" cy="-3132.519">
		<stop offset="0" style="stop-color:#FCB57A"/>
		<stop offset="1" style="stop-color:#FF8C36"/>
	</radialGradient>
	<path fill="url(#svg1.body_2_)" d="M0.5,62.768c0,1.938,1.575,3.494,3.523,3.494h48.51   c1.947,0,3.521-1.559,3.521-3.494c0,0-1.844-6.861-6.525-11.543c-4.815-4.813-11.244-6.146-11.244-6.146   c-1.771,1.655-5.61,2.802-10.063,2.802c-4.453,0-8.292-1.146-10.063-2.802c0,0-5.755,0.586-11.189,6.021   C1.378,56.689,0.5,62.768,0.5,62.768z" id="svg1.body_14_" stroke="#E55E03"/>
	
		<radialGradient gradientTransform="matrix(1 0 0 1 0.3203 -3091.7656)" id="svg1.turtleneck_2_" r="13.5363" cx="22.7432" gradientUnits="userSpaceOnUse" cy="3139.1426">
		<stop offset="0" style="stop-color:#FCB57A"/>
		<stop offset="1" style="stop-color:#FF8C36"/>
	</radialGradient>
	<path fill="url(#svg1.turtleneck_2_)" d="M39.715,44.786l-1.557-3.405   c0,0-0.574,2.369-3.012,4.441c-2.109,1.795-6.785,2.072-6.785,2.072s-4.753-0.356-6.722-2.031   c-2.436-2.072-3.012-4.441-3.012-4.441l-1.555,3.404c0,0-0.552,1.404,1.37,3.479c1.025,1.105,5.203,3.611,9.682,3.582   c4.479-0.029,9.264-2.594,10.218-3.623C40.266,46.191,39.715,44.786,39.715,44.786z" id="svg1.turtleneck_10_" stroke="#E55E03"/>
</g>
</svg>
      </g>
    </g>
    <g text-rendering="geometricPrecision" stroke-miterlimit="1.45" shape-rendering="geometricPrecision" font-family="sans-serif" transform="matrix(1,0,0,1,-452,-85)" stroke-linecap="butt">
      <text x="469.1199" xml:space="preserve" y="280.646" clip-path="url(#clipPath2)" stroke="none">User A</text>
    </g>
    <g text-rendering="geometricPrecision" shape-rendering="geometricPrecision" transform="matrix(0.6103,0,0,0.5503,396.8946,141.3056)">
      <g clip-path="url(#clipPath4)">
        <svg xml:space="preserve" opacity="1" writing-mode="lr-tb" stop-color="rgb(0, 0, 0)" shape-rendering="auto" glyph-orientation-horizontal="0deg" color-profile="auto" lighting-color="rgb(255, 255, 255)" color="rgb(0, 0, 0)" font-weight="400" alignment-baseline="auto" font-style="normal" version="1.1" color-interpolation-filters="linearrgb" text-anchor="start" stroke-linecap="butt" color-interpolation="srgb" font-variant="normal" word-spacing="normal" fill-opacity="1" text-rendering="auto" clip-path="none" text-decoration="none" letter-spacing="normal" viewBox="0 0 57 67" glyph-orientation-vertical="auto" display="inline" font-size-adjust="none" overflow="hidden" fill="rgb(0, 0, 0)" font-stretch="normal" stroke-dasharray="none" id="svg2.Ebene_1" stroke-miterlimit="4" stop-opacity="1" color-rendering="auto" font-size="12" pointer-events="visiblepainted" mask="none" direction="ltr" baseline-shift="baseline" enable-background="new 0 0 57 67" fill-rule="nonzero" image-rendering="auto" stroke-dashoffset="0" width="57px" marker-end="none" clip="auto" cursor="auto" stroke="none" filter="none" visibility="visible" kerning="auto" stroke-width="1" font-family="&quot;Arial&quot;,&quot;Helvetica&quot;,sans-serif" flood-opacity="1" clip-rule="nonzero" src="none" height="67px" unicode-bidi="normal" stroke-linejoin="miter" stroke-opacity="1" flood-color="rgb(0, 0, 0)" dominant-baseline="auto" marker-start="none" x="0px" marker-mid="none" y="0px">
<g>
	
		<linearGradient gradientTransform="matrix(1 0 0 1 0.3203 -3091.7656)" x1="26.3398" x2="27.5807" gradientUnits="userSpaceOnUse" y1="3115.7266" y2="3145.5239" id="svg2.SVGID_1_">
		<stop offset="0.2711" style="stop-color:#FFAB4F"/>
		<stop offset="1" style="stop-color:#FFD28F"/>
	</linearGradient>
	<path fill="url(#svg2.SVGID_1_)" d="M49.529,51.225c-4.396-4.396-10.951-5.884-12.063-6.109   V37.8H19.278c0,0,0.038,6.903,0,6.868c0,0-6.874,0.997-12.308,6.432C1.378,56.691,0.5,62.77,0.5,62.77   c0,1.938,1.575,3.492,3.523,3.492h48.51c1.947,0,3.521-1.558,3.521-3.492C56.055,62.768,54.211,55.906,49.529,51.225z" stroke-miterlimit="10" stroke="#ED9135"/>
	
		<radialGradient gradientTransform="matrix(1 0 0 1 0.3203 -3091.7656)" gradientUnits="userSpaceOnUse" r="23.425" cx="27.5835" id="svg2.face_x5F_white_1_" cy="3117.4922" fx="23.0139" fy="3115.0024">
		<stop offset="0" style="stop-color:#FFD28F"/>
		<stop offset="1" style="stop-color:#FFAB4F"/>
	</radialGradient>
	<path fill="url(#svg2.face_x5F_white_1_)" id="svg2.face_x5F_white_3_" d="M43.676,23.357   c0.086,10.199-6.738,18.52-15.25,18.586c-8.5,0.068-15.464-8.146-15.55-18.344C12.794,13.4,19.618,5.079,28.123,5.012   C36.627,4.945,43.59,13.158,43.676,23.357z" stroke-miterlimit="10" stroke="#ED9135"/>
	
		<linearGradient gradientTransform="matrix(0.275 0 0 -0.2733 -1752.8849 -3350.4617)" x1="6468.5" x2="6492.1294" gradientUnits="userSpaceOnUse" y1="-12286.8594" y2="-12380.3086" id="svg2.face_highlight_1_">
		<stop offset="0" style="stop-color:#FFFFFF;stop-opacity:0.24"/>
		<stop offset="1" style="stop-color:#FFFFFF;stop-opacity:0.16"/>
	</linearGradient>
	<path fill="url(#svg2.face_highlight_1_)" id="svg2.face_highlight_3_" d="M28.415,5.625c-6.035,0.047-10.747,4.493-12.787,10.386   c-0.664,1.919-0.294,4.043,0.98,5.629c2.73,3.398,5.729,6.283,9.461,8.088c3.137,1.518,7.535,2.385,11.893,1.247   c2.274-0.592,3.988-2.459,4.375-4.766c0.187-1.094,0.293-2.289,0.283-3.553C42.54,13.244,36.729,5.56,28.415,5.625z"/>
	<path fill="#5C5C5C" d="M28.372,0.5   C17.537,0.5,8.269,7.748,9.153,26.125c0.563,6.563,5.862,12.042,9.366,13.531c-2.929-10.968-0.304-25.021-0.585-25.526   c-0.281-0.505,3.536,6.728,3.536,6.728l3.183-8.312c5.541,4.28,0.393,11.309,1.049,11.058c4.26-1.631,5.34-9.228,5.34-9.228   s2.729,3.657,2.701,5.504c-0.054,3.562,2.194-6.067,2.194-6.067l1.027,2.031c6.727,9.822,3.684,16.208,1.648,22.781   c15.666-0.703,12.291-10.48,9.66-18.407C43.59,6.092,39.206,0.5,28.372,0.5z" id="svg2.Hair_Female_1_Black_1_" stroke="#353535" stroke-linecap="round" stroke-linejoin="round"/>
	
		<linearGradient gradientTransform="matrix(0.9852 0 0 -0.9852 -34.4844 -3031.9851)" x1="95.9063" x2="31.5133" gradientUnits="userSpaceOnUse" y1="-3134.2153" y2="-3134.2153" id="svg2.body_1_">
		<stop offset="0" style="stop-color:#49AD33"/>
		<stop offset="1" style="stop-color:#C2DA92"/>
	</linearGradient>
	<path fill="url(#svg2.body_1_)" d="M0.5,62.768c0,1.938,1.575,3.494,3.523,3.494h48.51   c1.947,0,3.521-1.559,3.521-3.494c0,0-1.844-6.861-6.525-11.543c-4.815-4.813-8.244-5.146-8.244-5.146   c-1.444,6.983-8.555,8.786-13.007,8.786s-11.322-2.643-11.941-9.439c0,0-4.559,1.199-9.367,5.674   C1.378,56.689,0.5,62.768,0.5,62.768z" id="svg2.body_8_" stroke="#008D33"/>
</g>
</svg>
      </g>
    </g>
    <g text-rendering="geometricPrecision" stroke-miterlimit="1.45" shape-rendering="geometricPrecision" font-family="sans-serif" transform="matrix(1,0,0,1,-452,-85)" stroke-linecap="butt">
      <text x="847.8083" xml:space="preserve" y="280.646" clip-path="url(#clipPath2)" stroke="none">User B</text>
    </g>
    <g stroke-linecap="butt" font-size="18px" transform="matrix(1,0,0,1,-452,-85)" fill="red" text-rendering="geometricPrecision" font-family="sans-serif" shape-rendering="geometricPrecision" stroke="red" font-weight="bold" stroke-miterlimit="1.45">
      <text x="796.866" xml:space="preserve" y="327.7743" clip-path="url(#clipPath2)" stroke="none">X</text>
    </g>
    <g fill="rgb(255,204,0)" text-rendering="geometricPrecision" shape-rendering="geometricPrecision" transform="matrix(1,0,0,1,-452,-85)" stroke="rgb(255,204,0)">
      <ellipse rx="10.5" ry="9.5" clip-path="url(#clipPath2)" cx="636.2471" cy="320.9716" stroke="none"/>
    </g>
    <g text-rendering="geometricPrecision" stroke-miterlimit="1.45" shape-rendering="geometricPrecision" transform="matrix(1,0,0,1,-452,-85)" stroke-linecap="butt">
      <ellipse rx="10.5" fill="none" ry="9.5" clip-path="url(#clipPath2)" cx="636.2471" cy="320.9716"/>
      <text x="627.3203" xml:space="preserve" y="325.5067" clip-path="url(#clipPath2)" font-family="sans-serif" stroke="none">WT</text>
      <path fill="none" d="M610.7754 248.3471 L608.1716 246.6634 L554.1716 296.6386 L554.1716 320.9716 L617.7425 320.9716" clip-path="url(#clipPath2)" stroke="blue"/>
      <path fill="blue" d="M625.7425 320.9716 L613.7425 315.9716 L616.7425 320.9716 L613.7425 325.9716 Z" clip-path="url(#clipPath2)" stroke="none"/>
      <path fill="none" stroke-dasharray="6,2" d="M760.1863 247.9567 L762.1716 246.6634 L830.1716 294.6634 L830.1716 320.9716 L753.129 320.9716" clip-path="url(#clipPath2)" stroke="red"/>
      <path fill="red" stroke-dasharray="6,2" d="M745.129 320.9716 L757.129 325.9716 L754.129 320.9716 L757.129 315.9716 Z" clip-path="url(#clipPath2)" stroke="none"/>
      <path fill="none" stroke-dasharray="6,2" d="M685.4543 149 L685.4543 218.3048" clip-path="url(#clipPath2)"/>
      <path stroke-dasharray="6,2" d="M685.4543 141 L680.4543 153 L685.4543 150 L690.4543 153 Z" clip-path="url(#clipPath2)" stroke="none"/>
      <path stroke-dasharray="6,2" d="M685.4543 226.3048 L690.4543 214.3048 L685.4543 217.3048 L680.4543 214.3048 Z" clip-path="url(#clipPath2)" stroke="none"/>
      <path fill="none" stroke-dasharray="6,2" d="M685.4543 348.9697 L685.4543 430.6161" clip-path="url(#clipPath2)"/>
      <path stroke-dasharray="6,2" d="M685.4543 340.9697 L680.4543 352.9697 L685.4543 349.9697 L690.4543 352.9697 Z" clip-path="url(#clipPath2)" stroke="none"/>
      <path stroke-dasharray="6,2" d="M685.4543 438.6161 L690.4543 426.6161 L685.4543 429.6161 L680.4543 426.6161 Z" clip-path="url(#clipPath2)" stroke="none"/>
      <path fill="none" d="M501.8057 244.675 L602.7194 244.675" clip-path="url(#clipPath2)" stroke="blue"/>
      <path fill="blue" d="M610.7194 244.675 L598.7194 239.675 L601.7194 244.675 L598.7194 249.675 Z" clip-path="url(#clipPath2)" stroke="none"/>
      <path fill="none" stroke-dasharray="6,2" d="M855.5869 244.675 L768.1901 244.675" clip-path="url(#clipPath2)" stroke="red"/>
      <path fill="red" stroke-dasharray="6,2" d="M760.1901 244.675 L772.1901 249.675 L769.1901 244.675 L772.1901 239.675 Z" clip-path="url(#clipPath2)" stroke="none"/>
    </g>
  </g>
</svg>
