<?xml version="1.0" encoding="UTF-8"?><svg xmlns="http://www.w3.org/2000/svg" xmlns:xlink="http://www.w3.org/1999/xlink" fill-opacity="1" color-rendering="auto" color-interpolation="auto" text-rendering="auto" stroke="black" stroke-linecap="square" width="1029" stroke-miterlimit="10" shape-rendering="auto" stroke-opacity="1" fill="black" stroke-dasharray="none" font-weight="normal" stroke-width="1" height="601" font-family="'Dialog'" font-style="normal" stroke-linejoin="miter" font-size="12px" stroke-dashoffset="0" image-rendering="auto">
  <!--Generated by ySVG 2.6-->
  <defs id="genericDefs"/>
  <g>
    <defs id="defs1">
      <clipPath clipPathUnits="userSpaceOnUse" id="clipPath1">
        <path d="M0 0 L1029 0 L1029 601 L0 601 L0 0 Z"/>
      </clipPath>
      <clipPath clipPathUnits="userSpaceOnUse" id="clipPath2">
        <path d="M315 182 L1344 182 L1344 783 L315 783 L315 182 Z"/>
      </clipPath>
    </defs>
    <g fill="white" text-rendering="geometricPrecision" shape-rendering="geometricPrecision" transform="translate(-315,-182)" stroke="white">
      <rect x="315" width="1029" height="601" y="182" clip-path="url(#clipPath2)" stroke="none"/>
    </g>
    <g text-rendering="geometricPrecision" stroke-miterlimit="1.45" shape-rendering="geometricPrecision" transform="matrix(1,0,0,1,-315,-182)" stroke-linecap="butt">
      <rect fill="none" x="594.704" width="496" height="54.576" y="197.299" clip-path="url(#clipPath2)"/>
      <text x="811.6844" xml:space="preserve" y="229.1222" clip-path="url(#clipPath2)" font-family="sans-serif" stroke="none">Blockchain</text>
    </g>
    <g fill="rgb(204,204,204)" text-rendering="geometricPrecision" shape-rendering="geometricPrecision" transform="matrix(1,0,0,1,-315,-182)" stroke="rgb(204,204,204)">
      <rect x="920.128" width="103.216" height="313.576" y="452.627" clip-path="url(#clipPath2)" stroke="none"/>
    </g>
    <g text-rendering="geometricPrecision" stroke-miterlimit="1.45" shape-rendering="geometricPrecision" transform="matrix(1,0,0,1,-315,-182)" stroke-linecap="butt">
      <rect fill="none" x="920.128" width="103.216" height="313.576" y="452.627" clip-path="url(#clipPath2)"/>
      <text x="964.1833" xml:space="preserve" y="613.9501" clip-path="url(#clipPath2)" font-family="sans-serif" stroke="none">bb</text>
      <rect fill="none" x="625.424" width="103.216" height="313.576" y="452.627" clip-path="url(#clipPath2)"/>
      <text x="670.405" xml:space="preserve" y="613.9501" clip-path="url(#clipPath2)" font-family="sans-serif" stroke="none">aa</text>
      <path fill="none" d="M1009.336 346.231 L1033.408 346.231 L1033.408 361.231 L1048.408 361.231 L1048.408 397.271 L1009.336 397.271 Z" clip-path="url(#clipPath2)"/>
      <path fill="none" d="M1033.408 346.231 L1033.408 361.231 L1048.408 361.231 Z" clip-path="url(#clipPath2)" fill-rule="evenodd"/>
      <text x="995.856" xml:space="preserve" y="333.4742" clip-path="url(#clipPath2)" font-family="sans-serif" stroke="none">A's DID Doc 조회</text>
    </g>
    <g fill="silver" text-rendering="geometricPrecision" shape-rendering="geometricPrecision" transform="matrix(1,0,0,1,-315,-182)" stroke="silver">
      <path d="M594.704 346.231 L618.776 346.231 L618.776 361.231 L633.776 361.231 L633.776 397.271 L594.704 397.271 Z" stroke="none" clip-path="url(#clipPath2)"/>
      <path fill="white" d="M618.776 346.231 L618.776 361.231 L633.776 361.231 Z" clip-path="url(#clipPath2)" fill-rule="evenodd" stroke="none"/>
    </g>
    <g text-rendering="geometricPrecision" stroke-miterlimit="1.45" shape-rendering="geometricPrecision" transform="matrix(1,0,0,1,-315,-182)" stroke-linecap="butt">
      <path fill="none" d="M594.704 346.231 L618.776 346.231 L618.776 361.231 L633.776 361.231 L633.776 397.271 L594.704 397.271 Z" clip-path="url(#clipPath2)"/>
      <path fill="none" d="M618.776 346.231 L618.776 361.231 L633.776 361.231 Z" clip-path="url(#clipPath2)" fill-rule="evenodd"/>
      <text x="581.9125" xml:space="preserve" y="333.4742" clip-path="url(#clipPath2)" font-family="sans-serif" stroke="none">B's DID Doc 조회</text>
      <path fill="none" d="M771.984 300.1665 L861.784 300.1665 L861.784 315.1665 L876.784 315.1665 L876.784 376.3425 L771.984 376.3425 Z" clip-path="url(#clipPath2)"/>
      <path fill="none" d="M861.784 300.1665 L861.784 315.1665 L876.784 315.1665 Z" clip-path="url(#clipPath2)" fill-rule="evenodd"/>
      <text x="776.0793" xml:space="preserve" y="314.524" clip-path="url(#clipPath2)" font-family="sans-serif" stroke="none">aa's DH Key</text>
      <text x="776.0793" xml:space="preserve" y="328.6568" clip-path="url(#clipPath2)" font-family="sans-serif" stroke="none">DH Data</text>
      <text x="776.0793" xml:space="preserve" y="342.7896" clip-path="url(#clipPath2)" font-family="sans-serif" stroke="none">Proof:</text>
      <text x="776.0793" xml:space="preserve" y="356.9225" clip-path="url(#clipPath2)" font-family="sans-serif" stroke="none">   aa's Public Key</text>
      <text x="776.0793" xml:space="preserve" y="371.0553" clip-path="url(#clipPath2)" font-family="sans-serif" stroke="none">   aa's Sign</text>
      <rect fill="none" x="771.984" width="104.8" height="76.176" y="387.506" clip-path="url(#clipPath2)"/>
      <text x="776.0793" xml:space="preserve" y="408.9299" clip-path="url(#clipPath2)" font-family="sans-serif" stroke="none">aa's 인증서:</text>
      <text x="776.0793" xml:space="preserve" y="423.0627" clip-path="url(#clipPath2)" font-family="sans-serif" stroke="none">   aa's 정보</text>
      <text x="776.0793" xml:space="preserve" y="437.1956" clip-path="url(#clipPath2)" font-family="sans-serif" stroke="none">   aa's Public Key</text>
      <text x="776.0793" xml:space="preserve" y="451.3284" clip-path="url(#clipPath2)" font-family="sans-serif" stroke="none">   A's Sign</text>
    </g>
    <g fill="rgb(255,204,0)" text-rendering="geometricPrecision" shape-rendering="geometricPrecision" transform="matrix(1,0,0,1,-315,-182)" stroke="rgb(255,204,0)">
      <path d="M863.784 408.706 L866.244 404.7668 L870.8854 404.606 L868.704 400.506 L870.8854 396.406 L866.244 396.2451 L863.784 392.306 L861.324 396.2451 L856.6826 396.406 L858.864 400.506 L856.6826 404.606 L861.324 404.7668 Z" fill-rule="evenodd" clip-path="url(#clipPath2)" stroke="none"/>
    </g>
    <g text-rendering="geometricPrecision" stroke-miterlimit="1.45" shape-rendering="geometricPrecision" transform="matrix(1,0,0,1,-315,-182)" stroke-linecap="butt">
      <path fill="none" d="M863.784 408.706 L866.244 404.7668 L870.8854 404.606 L868.704 400.506 L870.8854 396.406 L866.244 396.2451 L863.784 392.306 L861.324 396.2451 L856.6826 396.406 L858.864 400.506 L856.6826 404.606 L861.324 404.7668 Z" fill-rule="evenodd" clip-path="url(#clipPath2)"/>
    </g>
    <g fill="silver" text-rendering="geometricPrecision" shape-rendering="geometricPrecision" transform="matrix(1,0,0,1,-315,-182)" stroke="silver">
      <path d="M771.984 493.682 L861.784 493.682 L861.784 508.682 L876.784 508.682 L876.784 569.858 L771.984 569.858 Z" stroke="none" clip-path="url(#clipPath2)"/>
      <path fill="white" d="M861.784 493.682 L861.784 508.682 L876.784 508.682 Z" clip-path="url(#clipPath2)" fill-rule="evenodd" stroke="none"/>
    </g>
    <g text-rendering="geometricPrecision" stroke-miterlimit="1.45" shape-rendering="geometricPrecision" transform="matrix(1,0,0,1,-315,-182)" stroke-linecap="butt">
      <path fill="none" d="M771.984 493.682 L861.784 493.682 L861.784 508.682 L876.784 508.682 L876.784 569.858 L771.984 569.858 Z" clip-path="url(#clipPath2)"/>
      <path fill="none" d="M861.784 493.682 L861.784 508.682 L876.784 508.682 Z" clip-path="url(#clipPath2)" fill-rule="evenodd"/>
      <text x="775.1535" xml:space="preserve" y="508.0395" clip-path="url(#clipPath2)" font-family="sans-serif" stroke="none">bb's DH Key</text>
      <text x="775.1535" xml:space="preserve" y="522.1724" clip-path="url(#clipPath2)" font-family="sans-serif" stroke="none">DH Data</text>
      <text x="775.1535" xml:space="preserve" y="536.3052" clip-path="url(#clipPath2)" font-family="sans-serif" stroke="none">Proof:</text>
      <text x="775.1535" xml:space="preserve" y="550.438" clip-path="url(#clipPath2)" font-family="sans-serif" stroke="none">   bb's Public Key</text>
      <text x="775.1535" xml:space="preserve" y="564.5708" clip-path="url(#clipPath2)" font-family="sans-serif" stroke="none">   bb's Sign</text>
    </g>
    <g fill="silver" text-rendering="geometricPrecision" shape-rendering="geometricPrecision" transform="matrix(1,0,0,1,-315,-182)" stroke="silver">
      <rect x="771.984" width="104.8" height="76.176" y="581.0215" clip-path="url(#clipPath2)" stroke="none"/>
    </g>
    <g text-rendering="geometricPrecision" stroke-miterlimit="1.45" shape-rendering="geometricPrecision" transform="matrix(1,0,0,1,-315,-182)" stroke-linecap="butt">
      <rect fill="none" x="771.984" width="104.8" height="76.176" y="581.0215" clip-path="url(#clipPath2)"/>
      <text x="775.1535" xml:space="preserve" y="602.4454" clip-path="url(#clipPath2)" font-family="sans-serif" stroke="none">bb's 인증서:</text>
      <text x="775.1535" xml:space="preserve" y="616.5782" clip-path="url(#clipPath2)" font-family="sans-serif" stroke="none">   bb's 정보</text>
      <text x="775.1535" xml:space="preserve" y="630.7111" clip-path="url(#clipPath2)" font-family="sans-serif" stroke="none">   bb's Public Key</text>
      <text x="775.1535" xml:space="preserve" y="644.8439" clip-path="url(#clipPath2)" font-family="sans-serif" stroke="none">   B's Sign</text>
    </g>
    <g fill="rgb(255,204,0)" text-rendering="geometricPrecision" shape-rendering="geometricPrecision" transform="matrix(1,0,0,1,-315,-182)" stroke="rgb(255,204,0)">
      <path d="M863.784 602.2215 L866.244 598.2823 L870.8854 598.1215 L868.704 594.0215 L870.8854 589.9215 L866.244 589.7607 L863.784 585.8215 L861.324 589.7607 L856.6826 589.9215 L858.864 594.0215 L856.6826 598.1215 L861.324 598.2823 Z" fill-rule="evenodd" clip-path="url(#clipPath2)" stroke="none"/>
    </g>
    <g text-rendering="geometricPrecision" stroke-miterlimit="1.45" shape-rendering="geometricPrecision" transform="matrix(1,0,0,1,-315,-182)" stroke-linecap="butt">
      <path fill="none" d="M863.784 602.2215 L866.244 598.2823 L870.8854 598.1215 L868.704 594.0215 L870.8854 589.9215 L866.244 589.7607 L863.784 585.8215 L861.324 589.7607 L856.6826 589.9215 L858.864 594.0215 L856.6826 598.1215 L861.324 598.2823 Z" fill-rule="evenodd" clip-path="url(#clipPath2)"/>
      <rect fill="none" x="490.624" width="104.8" height="76.176" y="511.627" clip-path="url(#clipPath2)"/>
      <text x="494.7193" xml:space="preserve" y="533.051" clip-path="url(#clipPath2)" font-family="sans-serif" stroke="none">aa's 인증서:</text>
      <text x="494.7193" xml:space="preserve" y="547.1838" clip-path="url(#clipPath2)" font-family="sans-serif" stroke="none">   aa's 정보</text>
      <text x="494.7193" xml:space="preserve" y="561.3166" clip-path="url(#clipPath2)" font-family="sans-serif" stroke="none">   aa's Public Key</text>
      <text x="494.7193" xml:space="preserve" y="575.4494" clip-path="url(#clipPath2)" font-family="sans-serif" stroke="none">   A's Sign</text>
    </g>
    <g fill="rgb(255,204,0)" text-rendering="geometricPrecision" shape-rendering="geometricPrecision" transform="matrix(1,0,0,1,-315,-182)" stroke="rgb(255,204,0)">
      <path d="M582.424 533.547 L584.884 529.6078 L589.5254 529.447 L587.344 525.347 L589.5254 521.247 L584.884 521.0862 L582.424 517.147 L579.964 521.0862 L575.3226 521.247 L577.504 525.347 L575.3226 529.447 L579.964 529.6078 Z" fill-rule="evenodd" clip-path="url(#clipPath2)" stroke="none"/>
    </g>
    <g text-rendering="geometricPrecision" stroke-miterlimit="1.45" shape-rendering="geometricPrecision" transform="matrix(1,0,0,1,-315,-182)" stroke-linecap="butt">
      <path fill="none" d="M582.424 533.547 L584.884 529.6078 L589.5254 529.447 L587.344 525.347 L589.5254 521.247 L584.884 521.0862 L582.424 517.147 L579.964 521.0862 L575.3226 521.247 L577.504 525.347 L575.3226 529.447 L579.964 529.6078 Z" fill-rule="evenodd" clip-path="url(#clipPath2)"/>
    </g>
    <g fill="rgb(204,204,204)" text-rendering="geometricPrecision" shape-rendering="geometricPrecision" transform="matrix(1,0,0,1,-315,-182)" stroke="rgb(204,204,204)">
      <rect x="1066.688" width="103.216" height="76.176" y="511.627" clip-path="url(#clipPath2)" stroke="none"/>
    </g>
    <g text-rendering="geometricPrecision" stroke-miterlimit="1.45" shape-rendering="geometricPrecision" transform="matrix(1,0,0,1,-315,-182)" stroke-linecap="butt">
      <rect fill="none" x="1066.688" width="103.216" height="76.176" y="511.627" clip-path="url(#clipPath2)"/>
      <text x="1069.0656" xml:space="preserve" y="533.051" clip-path="url(#clipPath2)" font-family="sans-serif" stroke="none">bb's 인증서:</text>
      <text x="1069.0656" xml:space="preserve" y="547.1838" clip-path="url(#clipPath2)" font-family="sans-serif" stroke="none">   bb's 정보</text>
      <text x="1069.0656" xml:space="preserve" y="561.3166" clip-path="url(#clipPath2)" font-family="sans-serif" stroke="none">   bb's Public Key</text>
      <text x="1069.0656" xml:space="preserve" y="575.4494" clip-path="url(#clipPath2)" font-family="sans-serif" stroke="none">   B's Sign</text>
    </g>
    <g fill="rgb(255,204,0)" text-rendering="geometricPrecision" shape-rendering="geometricPrecision" transform="matrix(1,0,0,1,-315,-182)" stroke="rgb(255,204,0)">
      <path d="M1153.824 546.423 L1156.2841 542.4838 L1160.9254 542.323 L1158.744 538.223 L1160.9254 534.123 L1156.2841 533.9622 L1153.824 530.023 L1151.364 533.9622 L1146.7225 534.123 L1148.9041 538.223 L1146.7225 542.323 L1151.364 542.4838 Z" fill-rule="evenodd" clip-path="url(#clipPath2)" stroke="none"/>
    </g>
    <g text-rendering="geometricPrecision" stroke-miterlimit="1.45" shape-rendering="geometricPrecision" transform="matrix(1,0,0,1,-315,-182)" stroke-linecap="butt">
      <path fill="none" d="M1153.824 546.423 L1156.2841 542.4838 L1160.9254 542.323 L1158.744 538.223 L1160.9254 534.123 L1156.2841 533.9622 L1153.824 530.023 L1151.364 533.9622 L1146.7225 534.123 L1148.9041 538.223 L1146.7225 542.323 L1151.364 542.4838 Z" fill-rule="evenodd" clip-path="url(#clipPath2)"/>
      <rect fill="none" x="330.72" width="103.216" height="54.576" y="452.627" clip-path="url(#clipPath2)"/>
      <text x="378.1884" xml:space="preserve" y="484.4502" clip-path="url(#clipPath2)" font-family="sans-serif" stroke="none">A</text>
    </g>
    <g fill="rgb(204,204,204)" text-rendering="geometricPrecision" shape-rendering="geometricPrecision" transform="matrix(1,0,0,1,-315,-182)" stroke="rgb(204,204,204)">
      <rect x="1225.496" width="103.216" height="54.576" y="452.627" clip-path="url(#clipPath2)" stroke="none"/>
    </g>
    <g text-rendering="geometricPrecision" stroke-miterlimit="1.45" shape-rendering="geometricPrecision" transform="matrix(1,0,0,1,-315,-182)" stroke-linecap="butt">
      <rect fill="none" x="1225.496" width="103.216" height="54.576" y="452.627" clip-path="url(#clipPath2)"/>
      <text x="1273.6528" xml:space="preserve" y="484.4502" clip-path="url(#clipPath2)" font-family="sans-serif" stroke="none">B</text>
      <path fill="none" d="M1023.3438 669 L1059.5 669 L1059.5 734 L1031.3438 734" clip-path="url(#clipPath2)" stroke="blue"/>
      <path fill="blue" d="M1023.3438 734 L1035.3438 739 L1032.3438 734 L1035.3438 729 Z" clip-path="url(#clipPath2)" stroke="none"/>
      <text x="1065.6462" y="681.9023" clip-path="url(#clipPath2)" fill="blue" font-family="sans-serif" stroke="none" xml:space="preserve">- aa's 인증서의 A's Sign 검증 </text>
      <text x="1065.6462" y="696.0352" clip-path="url(#clipPath2)" fill="blue" font-family="sans-serif" stroke="none" xml:space="preserve">- aa's Sign 검증</text>
      <text x="1065.6462" y="710.168" clip-path="url(#clipPath2)" fill="blue" font-family="sans-serif" stroke="none" xml:space="preserve">- DH 수행</text>
      <path fill="none" d="M971.736 444.627 L971.736 259.8946" clip-path="url(#clipPath2)"/>
      <path d="M971.736 452.627 L976.736 440.627 L971.736 443.627 L966.736 440.627 Z" clip-path="url(#clipPath2)" stroke="none"/>
      <path d="M971.736 251.8946 L966.736 263.8946 L971.736 260.8946 L976.736 263.8946 Z" clip-path="url(#clipPath2)" stroke="none"/>
      <path fill="none" d="M920.1301 490 L736.6292 490" clip-path="url(#clipPath2)"/>
      <path d="M728.6292 490 L740.6292 495 L737.6292 490 L740.6292 485 Z" clip-path="url(#clipPath2)" stroke="none"/>
      <path fill="none" d="M625.4025 648 L583.5 648 L583.5 714 L617.4446 714" clip-path="url(#clipPath2)" stroke="blue"/>
      <path fill="blue" d="M625.4446 714 L613.4446 709 L616.4446 714 L613.4446 719 Z" clip-path="url(#clipPath2)" stroke="none"/>
      <text x="421.6789" y="664.7817" clip-path="url(#clipPath2)" fill="blue" font-family="sans-serif" stroke="none" xml:space="preserve">- bb's 인증서의 B's Sign 검증 </text>
      <text x="421.6789" y="678.9145" clip-path="url(#clipPath2)" fill="blue" font-family="sans-serif" stroke="none" xml:space="preserve">- bb's Sign 검증</text>
      <text x="421.6789" y="693.0473" clip-path="url(#clipPath2)" fill="blue" font-family="sans-serif" stroke="none" xml:space="preserve">- DH 수행</text>
      <path fill="none" d="M728.645 470 L912.1467 470" clip-path="url(#clipPath2)"/>
      <path d="M920.1467 470 L908.1467 465 L911.1467 470 L908.1467 475 Z" clip-path="url(#clipPath2)" stroke="none"/>
      <path fill="none" d="M677.032 444.627 L677.032 259.8525" clip-path="url(#clipPath2)"/>
      <path d="M677.032 452.627 L682.032 440.627 L677.032 443.627 L672.032 440.627 Z" clip-path="url(#clipPath2)" stroke="none"/>
      <path d="M677.032 251.8525 L672.032 263.8525 L677.032 260.8525 L682.032 263.8525 Z" clip-path="url(#clipPath2)" stroke="none"/>
      <path fill="none" d="M742.6198 728 L906.1417 728" stroke-width="7" clip-path="url(#clipPath2)" stroke="blue"/>
      <path fill="blue" d="M728.6198 728 L749.6198 736.75 L744.3698 728 L749.6198 719.25 Z" stroke-width="7" clip-path="url(#clipPath2)" stroke="none"/>
      <path fill="blue" d="M920.1417 728 L899.1417 719.25 L904.3917 728 L899.1417 736.75 Z" stroke-width="7" clip-path="url(#clipPath2)" stroke="none"/>
      <text x="766.6046" xml:space="preserve" y="762.5352" clip-path="url(#clipPath2)" font-family="sans-serif" stroke="none">Secure Channer 형성</text>
      <path fill="none" stroke-dasharray="6,2" d="M824.384 376.3376 L824.384 387.506" clip-path="url(#clipPath2)"/>
      <path fill="none" stroke-dasharray="6,2" d="M824.384 569.8531 L824.384 581.0215" clip-path="url(#clipPath2)"/>
      <path fill="none" stroke-dasharray="6,2" d="M595.424 549.715 L625.4246 549.715" clip-path="url(#clipPath2)"/>
      <path fill="none" stroke-dasharray="6,2" d="M1066.688 549.715 L1023.3434 549.715" clip-path="url(#clipPath2)"/>
      <path fill="none" d="M433.936 479.915 L617.438 479.915" clip-path="url(#clipPath2)"/>
      <path d="M625.438 479.915 L613.438 474.915 L616.438 479.915 L613.438 484.915 Z" clip-path="url(#clipPath2)" stroke="none"/>
      <text x="484.8736" xml:space="preserve" y="470.4502" clip-path="url(#clipPath2)" font-family="sans-serif" stroke="none">aa's 인증서 전달</text>
      <path fill="none" d="M1225.496 479.915 L1031.3344 479.915" clip-path="url(#clipPath2)"/>
      <path d="M1023.3344 479.915 L1035.3344 484.915 L1032.3344 479.915 L1035.3344 474.915 Z" clip-path="url(#clipPath2)" stroke="none"/>
      <text x="1095.42" xml:space="preserve" y="470.5166" clip-path="url(#clipPath2)" font-family="sans-serif" stroke="none">bb's 인증서 전달</text>
    </g>
  </g>
</svg>
