<?xml version="1.0" encoding="UTF-8"?><svg xmlns="http://www.w3.org/2000/svg" xmlns:xlink="http://www.w3.org/1999/xlink" fill-opacity="1" color-rendering="auto" color-interpolation="auto" text-rendering="auto" stroke="black" stroke-linecap="square" width="776" stroke-miterlimit="10" shape-rendering="auto" stroke-opacity="1" fill="black" stroke-dasharray="none" font-weight="normal" stroke-width="1" height="510" font-family="'Dialog'" font-style="normal" stroke-linejoin="miter" font-size="12px" stroke-dashoffset="0" image-rendering="auto">
  <!--Generated by ySVG 2.6-->
  <defs id="genericDefs"/>
  <g>
    <defs id="defs1">
      <clipPath clipPathUnits="userSpaceOnUse" id="clipPath1">
        <path d="M0 0 L776 0 L776 510 L0 510 L0 0 Z"/>
      </clipPath>
      <clipPath clipPathUnits="userSpaceOnUse" id="clipPath2">
        <path d="M458 208 L1234 208 L1234 718 L458 718 L458 208 Z"/>
      </clipPath>
    </defs>
    <g fill="white" text-rendering="geometricPrecision" shape-rendering="geometricPrecision" transform="translate(-458,-208)" stroke="white">
      <rect x="458" width="776" height="510" y="208" clip-path="url(#clipPath2)" stroke="none"/>
    </g>
    <g text-rendering="geometricPrecision" stroke-miterlimit="1.45" shape-rendering="geometricPrecision" transform="matrix(1,0,0,1,-458,-208)" stroke-linecap="butt">
      <rect fill="none" x="619.204" width="496" height="54.576" y="223.799" clip-path="url(#clipPath2)"/>
      <text x="836.1844" xml:space="preserve" y="255.6222" clip-path="url(#clipPath2)" font-family="sans-serif" stroke="none">Blockchain</text>
    </g>
    <g fill="rgb(204,204,204)" text-rendering="geometricPrecision" shape-rendering="geometricPrecision" transform="matrix(1,0,0,1,-458,-208)" stroke="rgb(204,204,204)">
      <rect x="944.628" width="103.216" height="254.576" y="440.127" clip-path="url(#clipPath2)" stroke="none"/>
    </g>
    <g text-rendering="geometricPrecision" stroke-miterlimit="1.45" shape-rendering="geometricPrecision" transform="matrix(1,0,0,1,-458,-208)" stroke-linecap="butt">
      <rect fill="none" x="944.628" width="103.216" height="254.576" y="440.127" clip-path="url(#clipPath2)"/>
      <text x="992.7849" xml:space="preserve" y="571.9501" clip-path="url(#clipPath2)" font-family="sans-serif" stroke="none">B</text>
      <rect fill="none" x="649.924" width="103.216" height="254.576" y="440.127" clip-path="url(#clipPath2)"/>
      <text x="697.3923" xml:space="preserve" y="571.9501" clip-path="url(#clipPath2)" font-family="sans-serif" stroke="none">A</text>
      <path fill="none" d="M1033.8361 333.731 L1057.908 333.731 L1057.908 348.731 L1072.908 348.731 L1072.908 384.771 L1033.8361 384.771 Z" clip-path="url(#clipPath2)"/>
      <path fill="none" d="M1057.908 333.731 L1057.908 348.731 L1072.908 348.731 Z" clip-path="url(#clipPath2)" fill-rule="evenodd"/>
      <text x="1020.356" xml:space="preserve" y="320.9742" clip-path="url(#clipPath2)" font-family="sans-serif" stroke="none">A's DID Doc 조회</text>
    </g>
    <g fill="silver" text-rendering="geometricPrecision" shape-rendering="geometricPrecision" transform="matrix(1,0,0,1,-458,-208)" stroke="silver">
      <path d="M619.204 333.731 L643.276 333.731 L643.276 348.731 L658.276 348.731 L658.276 384.771 L619.204 384.771 Z" stroke="none" clip-path="url(#clipPath2)"/>
      <path fill="white" d="M643.276 333.731 L643.276 348.731 L658.276 348.731 Z" clip-path="url(#clipPath2)" fill-rule="evenodd" stroke="none"/>
    </g>
    <g text-rendering="geometricPrecision" stroke-miterlimit="1.45" shape-rendering="geometricPrecision" transform="matrix(1,0,0,1,-458,-208)" stroke-linecap="butt">
      <path fill="none" d="M619.204 333.731 L643.276 333.731 L643.276 348.731 L658.276 348.731 L658.276 384.771 L619.204 384.771 Z" clip-path="url(#clipPath2)"/>
      <path fill="none" d="M643.276 333.731 L643.276 348.731 L658.276 348.731 Z" clip-path="url(#clipPath2)" fill-rule="evenodd"/>
      <text x="606.4125" xml:space="preserve" y="320.9742" clip-path="url(#clipPath2)" font-family="sans-serif" stroke="none">B's DID Doc 조회</text>
      <path fill="none" d="M796.484 370.127 L886.284 370.127 L886.284 385.127 L901.284 385.127 L901.284 440.127 L796.484 440.127 Z" clip-path="url(#clipPath2)"/>
      <path fill="none" d="M886.284 370.127 L886.284 385.127 L901.284 385.127 Z" clip-path="url(#clipPath2)" fill-rule="evenodd"/>
      <text x="817.217" xml:space="preserve" y="381.3965" clip-path="url(#clipPath2)" font-family="sans-serif" stroke="none">A's DH Key</text>
      <text x="817.217" xml:space="preserve" y="395.5294" clip-path="url(#clipPath2)" font-family="sans-serif" stroke="none">DH Data</text>
      <text x="817.217" xml:space="preserve" y="409.6622" clip-path="url(#clipPath2)" font-family="sans-serif" stroke="none">Proof:</text>
      <text x="817.217" xml:space="preserve" y="423.795" clip-path="url(#clipPath2)" font-family="sans-serif" stroke="none">   A's KID</text>
      <text x="817.217" xml:space="preserve" y="437.9278" clip-path="url(#clipPath2)" font-family="sans-serif" stroke="none">   A's Sign</text>
    </g>
    <g fill="silver" text-rendering="geometricPrecision" shape-rendering="geometricPrecision" transform="matrix(1,0,0,1,-458,-208)" stroke="silver">
      <path d="M796.484 487.358 L886.284 487.358 L886.284 502.358 L901.284 502.358 L901.284 557.358 L796.484 557.358 Z" stroke="none" clip-path="url(#clipPath2)"/>
      <path fill="white" d="M886.284 487.358 L886.284 502.358 L901.284 502.358 Z" clip-path="url(#clipPath2)" fill-rule="evenodd" stroke="none"/>
    </g>
    <g text-rendering="geometricPrecision" stroke-miterlimit="1.45" shape-rendering="geometricPrecision" transform="matrix(1,0,0,1,-458,-208)" stroke-linecap="butt">
      <path fill="none" d="M796.484 487.358 L886.284 487.358 L886.284 502.358 L901.284 502.358 L901.284 557.358 L796.484 557.358 Z" clip-path="url(#clipPath2)"/>
      <path fill="none" d="M886.284 487.358 L886.284 502.358 L901.284 502.358 Z" clip-path="url(#clipPath2)" fill-rule="evenodd"/>
      <text x="817.9055" xml:space="preserve" y="498.6275" clip-path="url(#clipPath2)" font-family="sans-serif" stroke="none">B's DH Key</text>
      <text x="817.9055" xml:space="preserve" y="512.7603" clip-path="url(#clipPath2)" font-family="sans-serif" stroke="none">DH Data</text>
      <text x="817.9055" xml:space="preserve" y="526.8931" clip-path="url(#clipPath2)" font-family="sans-serif" stroke="none">Proof:</text>
      <text x="817.9055" xml:space="preserve" y="541.0259" clip-path="url(#clipPath2)" font-family="sans-serif" stroke="none">   B's KID</text>
      <text x="817.9055" xml:space="preserve" y="555.1588" clip-path="url(#clipPath2)" font-family="sans-serif" stroke="none">   B's Sign</text>
      <path fill="none" d="M1047.8228 481.0222 L1079 481.0222 L1079 524.0502 L1055.8486 524.0502" clip-path="url(#clipPath2)" stroke="blue"/>
      <path fill="blue" d="M1047.8486 524.0502 L1059.8486 529.0502 L1056.8486 524.0502 L1059.8486 519.0502 Z" clip-path="url(#clipPath2)" stroke="none"/>
      <text x="1085.8625" y="500.9825" clip-path="url(#clipPath2)" fill="blue" font-family="sans-serif" stroke="none" xml:space="preserve">A's Sign 검증 후 DH 수행</text>
      <path fill="none" d="M996.236 432.127 L996.236 286.4071" clip-path="url(#clipPath2)"/>
      <path d="M996.236 440.127 L1001.236 428.127 L996.236 431.127 L991.236 428.127 Z" clip-path="url(#clipPath2)" stroke="none"/>
      <path d="M996.236 278.4071 L991.236 290.4071 L996.236 287.4071 L1001.236 290.4071 Z" clip-path="url(#clipPath2)" stroke="none"/>
      <path fill="none" d="M944.6301 470.4682 L761.1292 470.4682" clip-path="url(#clipPath2)"/>
      <path d="M753.1292 470.4682 L765.1292 475.4682 L762.1292 470.4682 L765.1292 465.4682 Z" clip-path="url(#clipPath2)" stroke="none"/>
      <path fill="none" d="M649.9497 473.7156 L614 473.7156 L614 520.8027 L641.9487 520.8027" clip-path="url(#clipPath2)" stroke="blue"/>
      <path fill="blue" d="M649.9487 520.8027 L637.9487 515.8027 L640.9487 520.8027 L637.9487 525.8027 Z" clip-path="url(#clipPath2)" stroke="none"/>
      <text x="475.821" y="486.3692" clip-path="url(#clipPath2)" fill="blue" font-family="sans-serif" stroke="none" xml:space="preserve">B's Sign 검증 후 DH 수행</text>
      <path fill="none" d="M753.145 454.2312 L936.6467 454.2312" clip-path="url(#clipPath2)"/>
      <path d="M944.6467 454.2312 L932.6467 449.2312 L935.6467 454.2312 L932.6467 459.2312 Z" clip-path="url(#clipPath2)" stroke="none"/>
      <path fill="none" d="M701.532 432.127 L701.532 286.4115" clip-path="url(#clipPath2)"/>
      <path d="M701.532 440.127 L706.532 428.127 L701.532 431.127 L696.532 428.127 Z" clip-path="url(#clipPath2)" stroke="none"/>
      <path d="M701.532 278.4115 L696.532 290.4115 L701.532 287.4115 L706.532 290.4115 Z" clip-path="url(#clipPath2)" stroke="none"/>
      <path fill="none" d="M767.1198 663.688 L930.6417 663.688" stroke-width="7" clip-path="url(#clipPath2)" stroke="blue"/>
      <path fill="blue" d="M753.1198 663.688 L774.1198 672.438 L768.8698 663.688 L774.1198 654.938 Z" stroke-width="7" clip-path="url(#clipPath2)" stroke="none"/>
      <path fill="blue" d="M944.6417 663.688 L923.6417 654.938 L928.8917 663.688 L923.6417 672.438 Z" stroke-width="7" clip-path="url(#clipPath2)" stroke="none"/>
      <text x="791.1046" xml:space="preserve" y="698.2231" clip-path="url(#clipPath2)" font-family="sans-serif" stroke="none">Secure Channer 형성</text>
    </g>
  </g>
</svg>
