<?xml version="1.0" encoding="us-ascii" standalone="no"?><svg xmlns="http://www.w3.org/2000/svg" xmlns:xlink="http://www.w3.org/1999/xlink" contentStyleType="text/css" height="2088px" preserveAspectRatio="none" style="width:1154px;height:2088px;background:#FFFFFF;" version="1.1" viewBox="0 0 1154 2088" width="1154px" zoomAndPan="magnify"><defs/><g><text fill="#000000" font-family="sans-serif" font-size="25" font-weight="bold" lengthAdjust="spacing" textLength="161.6875" x="492.4063" y="43.8452">&#49436;&#48260;&#53664;&#53360; &#49373;&#49457;</text><rect fill="#FFFFFF" height="354.1274" style="stroke:#181818;stroke-width:1.0;" width="10" x="81.5" y="300.9331"/><rect fill="#FFFFFF" height="1898.2051" style="stroke:#181818;stroke-width:1.0;" width="10" x="338.5" y="123.7974"/><rect fill="#FFFFFF" height="291.4155" style="stroke:#181818;stroke-width:1.0;" width="10" x="606.5" y="750.6284"/><rect fill="#FFFFFF" height="541.8311" style="stroke:#181818;stroke-width:1.0;" width="10" x="863.5" y="1246.1797"/><line style="stroke:#181818;stroke-width:0.5;stroke-dasharray:5.0,5.0;" x1="86.5" x2="86.5" y1="113.7974" y2="2031.0024"/><line style="stroke:#181818;stroke-width:0.5;stroke-dasharray:5.0,5.0;" x1="342.8438" x2="342.8438" y1="113.7974" y2="2031.0024"/><line style="stroke:#181818;stroke-width:0.5;stroke-dasharray:5.0,5.0;" x1="611.1875" x2="611.1875" y1="113.7974" y2="2031.0024"/><line style="stroke:#181818;stroke-width:0.5;stroke-dasharray:5.0,5.0;" x1="868" x2="868" y1="113.7974" y2="2031.0024"/><rect fill="#E2E2F0" height="52.459" rx="2.5" ry="2.5" style="stroke:#181818;stroke-width:0.5;" width="70" x="51.5" y="60.3384"/><text fill="#000000" font-family="sans-serif" font-size="14" font-style="italic" lengthAdjust="spacing" textLength="56" x="58.5" y="83.4917">&#171;Wallet&#187;</text><text fill="#000000" font-family="sans-serif" font-size="14" font-weight="bold" lengthAdjust="spacing" textLength="28.875" x="72.0625" y="102.7212">&#50900;&#47131;</text><rect fill="#E2E2F0" height="52.459" rx="2.5" ry="2.5" style="stroke:#181818;stroke-width:0.5;" width="70" x="51.5" y="2030.0024"/><text fill="#000000" font-family="sans-serif" font-size="14" font-style="italic" lengthAdjust="spacing" textLength="56" x="58.5" y="2053.1558">&#171;Wallet&#187;</text><text fill="#000000" font-family="sans-serif" font-size="14" font-weight="bold" lengthAdjust="spacing" textLength="28.875" x="72.0625" y="2072.3853">&#50900;&#47131;</text><rect fill="#E2E2F0" height="52.459" rx="2.5" ry="2.5" style="stroke:#181818;stroke-width:0.5;" width="57.3125" x="314.8438" y="60.3384"/><text fill="#000000" font-family="sans-serif" font-size="14" font-style="italic" lengthAdjust="spacing" textLength="41" x="323" y="83.4917">&#171;App&#187;</text><text fill="#000000" font-family="sans-serif" font-size="14" font-weight="bold" lengthAdjust="spacing" textLength="43.3125" x="321.8438" y="102.7212">&#51064;&#44032;&#50545;</text><rect fill="#E2E2F0" height="52.459" rx="2.5" ry="2.5" style="stroke:#181818;stroke-width:0.5;" width="57.3125" x="314.8438" y="2030.0024"/><text fill="#000000" font-family="sans-serif" font-size="14" font-style="italic" lengthAdjust="spacing" textLength="41" x="323" y="2053.1558">&#171;App&#187;</text><text fill="#000000" font-family="sans-serif" font-size="14" font-weight="bold" lengthAdjust="spacing" textLength="43.3125" x="321.8438" y="2072.3853">&#51064;&#44032;&#50545;</text><rect fill="#E2E2F0" height="52.459" rx="2.5" ry="2.5" style="stroke:#181818;stroke-width:0.5;" width="104.625" x="559.1875" y="60.3384"/><text fill="#000000" font-family="sans-serif" font-size="14" font-style="italic" lengthAdjust="spacing" textLength="57" x="583" y="83.4917">&#171;Server&#187;</text><text fill="#000000" font-family="sans-serif" font-size="14" font-weight="bold" lengthAdjust="spacing" textLength="90.625" x="566.1875" y="102.7212">&#51064;&#44032;&#50545; &#49324;&#50629;&#51088;</text><rect fill="#E2E2F0" height="52.459" rx="2.5" ry="2.5" style="stroke:#181818;stroke-width:0.5;" width="104.625" x="559.1875" y="2030.0024"/><text fill="#000000" font-family="sans-serif" font-size="14" font-style="italic" lengthAdjust="spacing" textLength="57" x="583" y="2053.1558">&#171;Server&#187;</text><text fill="#000000" font-family="sans-serif" font-size="14" font-weight="bold" lengthAdjust="spacing" textLength="90.625" x="566.1875" y="2072.3853">&#51064;&#44032;&#50545; &#49324;&#50629;&#51088;</text><rect fill="#E2E2F0" height="52.459" rx="2.5" ry="2.5" style="stroke:#181818;stroke-width:0.5;" width="71" x="833" y="60.3384"/><text fill="#000000" font-family="sans-serif" font-size="14" font-style="italic" lengthAdjust="spacing" textLength="57" x="840" y="83.4917">&#171;Server&#187;</text><text fill="#000000" font-family="sans-serif" font-size="14" font-weight="bold" lengthAdjust="spacing" textLength="26" x="855.5" y="102.7212">TAS</text><rect fill="#E2E2F0" height="52.459" rx="2.5" ry="2.5" style="stroke:#181818;stroke-width:0.5;" width="71" x="833" y="2030.0024"/><text fill="#000000" font-family="sans-serif" font-size="14" font-style="italic" lengthAdjust="spacing" textLength="57" x="840" y="2053.1558">&#171;Server&#187;</text><text fill="#000000" font-family="sans-serif" font-size="14" font-weight="bold" lengthAdjust="spacing" textLength="26" x="855.5" y="2072.3853">TAS</text><rect fill="#FFFFFF" height="354.1274" style="stroke:#181818;stroke-width:1.0;" width="10" x="81.5" y="300.9331"/><rect fill="#FFFFFF" height="1898.2051" style="stroke:#181818;stroke-width:1.0;" width="10" x="338.5" y="123.7974"/><rect fill="#FFFFFF" height="291.4155" style="stroke:#181818;stroke-width:1.0;" width="10" x="606.5" y="750.6284"/><rect fill="#FFFFFF" height="541.8311" style="stroke:#181818;stroke-width:1.0;" width="10" x="863.5" y="1246.1797"/><rect fill="#FEFFDD" height="61" style="stroke:#181818;stroke-width:0.5;" width="163" x="5" y="128.7974"/><text fill="#000000" font-family="sans-serif" font-size="13" font-weight="bold" lengthAdjust="spacing" textLength="82" x="9" y="147.7969">[Pre-defined]</text><ellipse cx="14.5" cy="161.0093" fill="#000000" rx="2.5" ry="2.5" style="stroke:#000000;stroke-width:0.0;"/><text fill="#000000" font-family="sans-serif" font-size="13" lengthAdjust="spacing" textLength="127" x="21" y="165.6528">WALLET_ID = &#50900;&#47131; id</text><ellipse cx="14.5" cy="178.8652" fill="#000000" rx="2.5" ry="2.5" style="stroke:#000000;stroke-width:0.0;"/><text fill="#000000" font-family="sans-serif" font-size="13" lengthAdjust="spacing" textLength="143" x="21" y="183.5088">WALLET_DID = &#50900;&#47131; did</text><rect fill="#FEFFDD" height="61" style="stroke:#181818;stroke-width:0.5;" width="254" x="216" y="128.7974"/><text fill="#000000" font-family="sans-serif" font-size="13" font-weight="bold" lengthAdjust="spacing" textLength="82" x="220" y="147.7969">[Pre-defined]</text><ellipse cx="225.5" cy="161.0093" fill="#000000" rx="2.5" ry="2.5" style="stroke:#000000;stroke-width:0.0;"/><text fill="#000000" font-family="sans-serif" font-size="13" lengthAdjust="spacing" textLength="115" x="232" y="165.6528">APP_ID = &#51064;&#44032;&#50545; id</text><ellipse cx="225.5" cy="178.8652" fill="#000000" rx="2.5" ry="2.5" style="stroke:#000000;stroke-width:0.0;"/><text fill="#000000" font-family="sans-serif" font-size="13" lengthAdjust="spacing" textLength="234" x="232" y="183.5088">sesKey, padding = TAS&#50752; ECDH&#47196; &#49373;&#49457;</text><rect fill="#FEFFDD" height="43" style="stroke:#181818;stroke-width:0.5;" width="268" x="734" y="128.7974"/><text fill="#000000" font-family="sans-serif" font-size="13" font-weight="bold" lengthAdjust="spacing" textLength="82" x="738" y="147.7969">[Pre-defined]</text><ellipse cx="743.5" cy="161.0093" fill="#000000" rx="2.5" ry="2.5" style="stroke:#000000;stroke-width:0.0;"/><text fill="#000000" font-family="sans-serif" font-size="13" lengthAdjust="spacing" textLength="248" x="750" y="165.6528">sesKey, padding = &#51064;&#44032;&#50545;&#44284; ECDH&#47196; &#49373;&#49457;</text><rect fill="#EEEEEE" height="3" style="stroke:#EEEEEE;stroke-width:1.0;" width="1147.5" x="0" y="217.2932"/><line style="stroke:#000000;stroke-width:1.0;" x1="0" x2="1147.5" y1="217.2932" y2="217.2932"/><line style="stroke:#000000;stroke-width:1.0;" x1="0" x2="1147.5" y1="220.2932" y2="220.2932"/><rect fill="#EEEEEE" height="25.856" style="stroke:#000000;stroke-width:2.0;" width="143" x="502.25" y="205.3652"/><text fill="#000000" font-family="sans-serif" font-size="13" font-weight="bold" lengthAdjust="spacing" textLength="125" x="508.25" y="224.3647">1. SignedWalletInfo</text><polygon fill="#32CD32" points="55,246.2212,642,246.2212,652,258.2212,642,271.2212,55,271.2212,45,258.2212,55,246.2212" style="stroke:#181818;stroke-width:0.5;"/><ellipse cx="265.1563" cy="260.5771" fill="#000000" rx="2.5" ry="2.5" style="stroke:#000000;stroke-width:0.0;"/><text fill="#000000" font-family="sans-serif" font-size="13" lengthAdjust="spacing" textLength="166" x="271.6563" y="265.2207">walletToken = &#50900;&#47131;&#53664;&#53360; &#49373;&#49457;</text><polygon fill="#181818" points="102.5,296.9331,92.5,300.9331,102.5,304.9331,98.5,300.9331" style="stroke:#181818;stroke-width:1.0;"/><line style="stroke:#181818;stroke-width:1.0;" x1="96.5" x2="337.5" y1="300.9331" y2="300.9331"/><text fill="#000000" font-family="sans-serif" font-size="13" font-weight="bold" lengthAdjust="spacing" textLength="15" x="108.5" y="296.0767">(1)</text><text fill="#000000" font-family="sans-serif" font-size="13" lengthAdjust="spacing" textLength="205" x="127.5" y="296.0767">&#49436;&#47749;&#46108; &#50900;&#47131;&#51221;&#48372; &#50836;&#52397; {walletToken}</text><line style="stroke:#181818;stroke-width:1.0;" x1="91.5" x2="133.5" y1="386.3569" y2="386.3569"/><line style="stroke:#181818;stroke-width:1.0;" x1="133.5" x2="133.5" y1="386.3569" y2="399.3569"/><line style="stroke:#181818;stroke-width:1.0;" x1="92.5" x2="133.5" y1="399.3569" y2="399.3569"/><polygon fill="#181818" points="102.5,395.3569,92.5,399.3569,102.5,403.3569,98.5,399.3569" style="stroke:#181818;stroke-width:1.0;"/><text fill="#000000" font-family="sans-serif" font-size="13" font-weight="bold" lengthAdjust="spacing" textLength="15" x="98.5" y="354.7166">(2)</text><text fill="#000000" font-family="sans-serif" font-size="13" lengthAdjust="spacing" textLength="69" x="117.5" y="327.9326">&#45936;&#51060;&#53552; &#51456;&#48708;</text><ellipse cx="123" cy="341.145" fill="#000000" rx="2.5" ry="2.5" style="stroke:#000000;stroke-width:0.0;"/><text fill="#000000" font-family="sans-serif" font-size="13" lengthAdjust="spacing" textLength="97" x="129.5" y="345.7886">id = WALLET_ID</text><ellipse cx="123" cy="359.001" fill="#000000" rx="2.5" ry="2.5" style="stroke:#000000;stroke-width:0.0;"/><text fill="#000000" font-family="sans-serif" font-size="13" lengthAdjust="spacing" textLength="113" x="129.5" y="363.6445">did = WALLET_DID</text><ellipse cx="123" cy="376.8569" fill="#000000" rx="2.5" ry="2.5" style="stroke:#000000;stroke-width:0.0;"/><text fill="#000000" font-family="sans-serif" font-size="13" lengthAdjust="spacing" textLength="92" x="129.5" y="381.5005">wallet = {id, did}</text><line style="stroke:#181818;stroke-width:1.0;" x1="91.5" x2="133.5" y1="466.9248" y2="466.9248"/><line style="stroke:#181818;stroke-width:1.0;" x1="133.5" x2="133.5" y1="466.9248" y2="479.9248"/><line style="stroke:#181818;stroke-width:1.0;" x1="92.5" x2="133.5" y1="479.9248" y2="479.9248"/><polygon fill="#181818" points="102.5,475.9248,92.5,479.9248,102.5,483.9248,98.5,479.9248" style="stroke:#181818;stroke-width:1.0;"/><text fill="#000000" font-family="sans-serif" font-size="13" font-weight="bold" lengthAdjust="spacing" textLength="15" x="98.5" y="444.2124">(3)</text><text fill="#000000" font-family="sans-serif" font-size="13" lengthAdjust="spacing" textLength="82" x="117.5" y="426.3564">&#50900;&#47131;&#51221;&#48372; &#49373;&#49457;</text><ellipse cx="123" cy="439.5688" fill="#000000" rx="2.5" ry="2.5" style="stroke:#000000;stroke-width:0.0;"/><text fill="#000000" font-family="sans-serif" font-size="13" lengthAdjust="spacing" textLength="107" x="129.5" y="444.2124">nonce = &#45212;&#49688; &#49373;&#49457;</text><ellipse cx="123" cy="457.4248" fill="#000000" rx="2.5" ry="2.5" style="stroke:#000000;stroke-width:0.0;"/><text fill="#000000" font-family="sans-serif" font-size="13" lengthAdjust="spacing" textLength="143" x="129.5" y="462.0684">dataset = {wallet, nonce}</text><line style="stroke:#181818;stroke-width:1.0;" x1="91.5" x2="133.5" y1="547.4927" y2="547.4927"/><line style="stroke:#181818;stroke-width:1.0;" x1="133.5" x2="133.5" y1="547.4927" y2="560.4927"/><line style="stroke:#181818;stroke-width:1.0;" x1="92.5" x2="133.5" y1="560.4927" y2="560.4927"/><polygon fill="#181818" points="102.5,556.4927,92.5,560.4927,102.5,564.4927,98.5,560.4927" style="stroke:#181818;stroke-width:1.0;"/><text fill="#000000" font-family="sans-serif" font-size="13" font-weight="bold" lengthAdjust="spacing" textLength="15" x="98.5" y="524.7803">(4)</text><text fill="#000000" font-family="sans-serif" font-size="13" lengthAdjust="spacing" textLength="56" x="117.5" y="506.9243">&#50900;&#47131; &#49436;&#47749;</text><ellipse cx="123" cy="520.1367" fill="#000000" rx="2.5" ry="2.5" style="stroke:#000000;stroke-width:0.0;"/><text fill="#000000" font-family="sans-serif" font-size="13" lengthAdjust="spacing" textLength="151" x="129.5" y="524.7803">priKey = Assertion &#44060;&#51064;&#53412;</text><ellipse cx="123" cy="537.9927" fill="#000000" rx="2.5" ry="2.5" style="stroke:#000000;stroke-width:0.0;"/><text fill="#000000" font-family="sans-serif" font-size="13" lengthAdjust="spacing" textLength="202" x="129.5" y="542.6362">proof = signAssert(dataset, priKey)</text><line style="stroke:#181818;stroke-width:1.0;" x1="91.5" x2="133.5" y1="610.2046" y2="610.2046"/><line style="stroke:#181818;stroke-width:1.0;" x1="133.5" x2="133.5" y1="610.2046" y2="623.2046"/><line style="stroke:#181818;stroke-width:1.0;" x1="92.5" x2="133.5" y1="623.2046" y2="623.2046"/><polygon fill="#181818" points="102.5,619.2046,92.5,623.2046,102.5,627.2046,98.5,623.2046" style="stroke:#181818;stroke-width:1.0;"/><text fill="#000000" font-family="sans-serif" font-size="13" font-weight="bold" lengthAdjust="spacing" textLength="15" x="98.5" y="596.4202">(5)</text><text fill="#000000" font-family="sans-serif" font-size="13" lengthAdjust="spacing" textLength="124" x="117.5" y="587.4922">(SignedWalletInfo)swi</text><text fill="#000000" font-family="sans-serif" font-size="13" lengthAdjust="spacing" textLength="132" x="121.5" y="605.3481">= {wallet, nonce, proof}</text><polygon fill="#181818" points="326.5,651.0605,336.5,655.0605,326.5,659.0605,330.5,655.0605" style="stroke:#181818;stroke-width:1.0;"/><line style="stroke:#181818;stroke-width:1.0;stroke-dasharray:2.0,2.0;" x1="86.5" x2="332.5" y1="655.0605" y2="655.0605"/><text fill="#000000" font-family="sans-serif" font-size="13" font-weight="bold" lengthAdjust="spacing" textLength="15" x="93.5" y="650.2041">(6)</text><text fill="#000000" font-family="sans-serif" font-size="13" lengthAdjust="spacing" textLength="27" x="112.5" y="650.2041">{swi}</text><rect fill="#EEEEEE" height="3" style="stroke:#EEEEEE;stroke-width:1.0;" width="1147.5" x="0" y="684.9885"/><line style="stroke:#000000;stroke-width:1.0;" x1="0" x2="1147.5" y1="684.9885" y2="684.9885"/><line style="stroke:#000000;stroke-width:1.0;" x1="0" x2="1147.5" y1="687.9885" y2="687.9885"/><rect fill="#EEEEEE" height="25.856" style="stroke:#000000;stroke-width:2.0;" width="133" x="507.25" y="673.0605"/><text fill="#000000" font-family="sans-serif" font-size="13" font-weight="bold" lengthAdjust="spacing" textLength="115" x="513.25" y="692.0601">2. AttestedAppInfo</text><polygon fill="#181818" points="594.5,746.6284,604.5,750.6284,594.5,754.6284,598.5,750.6284" style="stroke:#181818;stroke-width:1.0;"/><line style="stroke:#181818;stroke-width:1.0;" x1="348.5" x2="600.5" y1="750.6284" y2="750.6284"/><text fill="#000000" font-family="sans-serif" font-size="13" font-weight="bold" lengthAdjust="spacing" textLength="15" x="355.5" y="736.844">(7)</text><text fill="#000000" font-family="sans-serif" font-size="13" lengthAdjust="spacing" textLength="112" x="374.5" y="727.916">&#49436;&#47749;&#46108; &#50545;&#51221;&#48372; &#50836;&#52397;</text><text fill="#000000" font-family="sans-serif" font-size="13" lengthAdjust="spacing" textLength="54" x="374.5" y="745.772">{APP_ID}</text><line style="stroke:#181818;stroke-width:1.0;" x1="616.5" x2="658.5" y1="853.9082" y2="853.9082"/><line style="stroke:#181818;stroke-width:1.0;" x1="658.5" x2="658.5" y1="853.9082" y2="866.9082"/><line style="stroke:#181818;stroke-width:1.0;" x1="617.5" x2="658.5" y1="866.9082" y2="866.9082"/><polygon fill="#181818" points="627.5,862.9082,617.5,866.9082,627.5,870.9082,623.5,866.9082" style="stroke:#181818;stroke-width:1.0;"/><text fill="#000000" font-family="sans-serif" font-size="13" font-weight="bold" lengthAdjust="spacing" textLength="15" x="623.5" y="813.3398">(8)</text><text fill="#000000" font-family="sans-serif" font-size="13" lengthAdjust="spacing" textLength="69" x="642.5" y="777.6279">&#45936;&#51060;&#53552; &#51456;&#48708;</text><ellipse cx="648" cy="790.8403" fill="#000000" rx="2.5" ry="2.5" style="stroke:#000000;stroke-width:0.0;"/><text fill="#000000" font-family="sans-serif" font-size="13" lengthAdjust="spacing" textLength="93" x="654.5" y="795.4839">appId = APP_ID</text><ellipse cx="648" cy="808.6963" fill="#000000" rx="2.5" ry="2.5" style="stroke:#000000;stroke-width:0.0;"/><text fill="#000000" font-family="sans-serif" font-size="13" lengthAdjust="spacing" textLength="129" x="654.5" y="813.3398">provider = &#49324;&#50629;&#51088; &#51221;&#48372;</text><ellipse cx="648" cy="826.5522" fill="#000000" rx="2.5" ry="2.5" style="stroke:#000000;stroke-width:0.0;"/><text fill="#000000" font-family="sans-serif" font-size="13" lengthAdjust="spacing" textLength="107" x="654.5" y="831.1958">nonce = &#45212;&#49688; &#49373;&#49457;</text><ellipse cx="648" cy="844.4082" fill="#000000" rx="2.5" ry="2.5" style="stroke:#000000;stroke-width:0.0;"/><text fill="#000000" font-family="sans-serif" font-size="13" lengthAdjust="spacing" textLength="193" x="654.5" y="849.0518">dataset = {appId, provider, nonce}</text><line style="stroke:#181818;stroke-width:1.0;" x1="616.5" x2="658.5" y1="934.4761" y2="934.4761"/><line style="stroke:#181818;stroke-width:1.0;" x1="658.5" x2="658.5" y1="934.4761" y2="947.4761"/><line style="stroke:#181818;stroke-width:1.0;" x1="617.5" x2="658.5" y1="947.4761" y2="947.4761"/><polygon fill="#181818" points="627.5,943.4761,617.5,947.4761,627.5,951.4761,623.5,947.4761" style="stroke:#181818;stroke-width:1.0;"/><text fill="#000000" font-family="sans-serif" font-size="13" font-weight="bold" lengthAdjust="spacing" textLength="15" x="623.5" y="911.7637">(9)</text><text fill="#000000" font-family="sans-serif" font-size="13" lengthAdjust="spacing" textLength="112" x="642.5" y="893.9077">&#51064;&#44032;&#50545; &#49324;&#50629;&#51088; &#49436;&#47749;</text><ellipse cx="648" cy="907.1201" fill="#000000" rx="2.5" ry="2.5" style="stroke:#000000;stroke-width:0.0;"/><text fill="#000000" font-family="sans-serif" font-size="13" lengthAdjust="spacing" textLength="159" x="654.5" y="911.7637">priKey = Attestation &#44060;&#51064;&#53412;</text><ellipse cx="648" cy="924.9761" fill="#000000" rx="2.5" ry="2.5" style="stroke:#000000;stroke-width:0.0;"/><text fill="#000000" font-family="sans-serif" font-size="13" lengthAdjust="spacing" textLength="202" x="654.5" y="929.6196">proof = signAssert(dataset, priKey)</text><line style="stroke:#181818;stroke-width:1.0;" x1="616.5" x2="658.5" y1="997.188" y2="997.188"/><line style="stroke:#181818;stroke-width:1.0;" x1="658.5" x2="658.5" y1="997.188" y2="1010.188"/><line style="stroke:#181818;stroke-width:1.0;" x1="617.5" x2="658.5" y1="1010.188" y2="1010.188"/><polygon fill="#181818" points="627.5,1006.188,617.5,1010.188,627.5,1014.188,623.5,1010.188" style="stroke:#181818;stroke-width:1.0;"/><text fill="#000000" font-family="sans-serif" font-size="13" font-weight="bold" lengthAdjust="spacing" textLength="22" x="623.5" y="983.4036">(10)</text><text fill="#000000" font-family="sans-serif" font-size="13" lengthAdjust="spacing" textLength="117" x="649.5" y="974.4756">(AttestedAppInfo)aai</text><text fill="#000000" font-family="sans-serif" font-size="13" lengthAdjust="spacing" textLength="182" x="653.5" y="992.3315">= {appId, provider, nonce, proof}</text><polygon fill="#181818" points="359.5,1038.0439,349.5,1042.0439,359.5,1046.0439,355.5,1042.0439" style="stroke:#181818;stroke-width:1.0;"/><line style="stroke:#181818;stroke-width:1.0;stroke-dasharray:2.0,2.0;" x1="353.5" x2="610.5" y1="1042.0439" y2="1042.0439"/><text fill="#000000" font-family="sans-serif" font-size="13" font-weight="bold" lengthAdjust="spacing" textLength="22" x="365.5" y="1037.1875">(11)</text><text fill="#000000" font-family="sans-serif" font-size="13" lengthAdjust="spacing" textLength="25" x="391.5" y="1037.1875">{aai}</text><rect fill="#EEEEEE" height="3" style="stroke:#EEEEEE;stroke-width:1.0;" width="1147.5" x="0" y="1071.9719"/><line style="stroke:#000000;stroke-width:1.0;" x1="0" x2="1147.5" y1="1071.9719" y2="1071.9719"/><line style="stroke:#000000;stroke-width:1.0;" x1="0" x2="1147.5" y1="1074.9719" y2="1074.9719"/><rect fill="#EEEEEE" height="25.856" style="stroke:#000000;stroke-width:2.0;" width="147" x="500.25" y="1060.0439"/><text fill="#000000" font-family="sans-serif" font-size="13" font-weight="bold" lengthAdjust="spacing" textLength="129" x="506.25" y="1079.0435">3. ServerTokenSeed</text><line style="stroke:#181818;stroke-width:1.0;" x1="348.5" x2="390.5" y1="1155.4678" y2="1155.4678"/><line style="stroke:#181818;stroke-width:1.0;" x1="390.5" x2="390.5" y1="1155.4678" y2="1168.4678"/><line style="stroke:#181818;stroke-width:1.0;" x1="349.5" x2="390.5" y1="1168.4678" y2="1168.4678"/><polygon fill="#181818" points="359.5,1164.4678,349.5,1168.4678,359.5,1172.4678,355.5,1168.4678" style="stroke:#181818;stroke-width:1.0;"/><text fill="#000000" font-family="sans-serif" font-size="13" font-weight="bold" lengthAdjust="spacing" textLength="22" x="355.5" y="1132.7554">(12)</text><text fill="#000000" font-family="sans-serif" font-size="13" lengthAdjust="spacing" textLength="86" x="381.5" y="1114.8994">&#53664;&#53360; &#49884;&#46300; &#49373;&#49457;</text><ellipse cx="387" cy="1128.1118" fill="#000000" rx="2.5" ry="2.5" style="stroke:#000000;stroke-width:0.0;"/><text fill="#000000" font-family="sans-serif" font-size="13" lengthAdjust="spacing" textLength="137" x="393.5" y="1132.7554">(ServerTokenSeed)seed</text><text fill="#000000" font-family="sans-serif" font-size="13" lengthAdjust="spacing" textLength="118" x="385.5" y="1150.6113">= {purpose, swi, aai}</text><rect fill="#EEEEEE" height="3" style="stroke:#EEEEEE;stroke-width:1.0;" width="1147.5" x="0" y="1198.3958"/><line style="stroke:#000000;stroke-width:1.0;" x1="0" x2="1147.5" y1="1198.3958" y2="1198.3958"/><line style="stroke:#000000;stroke-width:1.0;" x1="0" x2="1147.5" y1="1201.3958" y2="1201.3958"/><rect fill="#EEEEEE" height="25.856" style="stroke:#000000;stroke-width:2.0;" width="143" x="502.25" y="1186.4678"/><text fill="#000000" font-family="sans-serif" font-size="13" font-weight="bold" lengthAdjust="spacing" textLength="125" x="508.25" y="1205.4673">4. ServerTokenData</text><polygon fill="#181818" points="851.5,1242.1797,861.5,1246.1797,851.5,1250.1797,855.5,1246.1797" style="stroke:#181818;stroke-width:1.0;"/><line style="stroke:#181818;stroke-width:1.0;" x1="348.5" x2="857.5" y1="1246.1797" y2="1246.1797"/><text fill="#000000" font-family="sans-serif" font-size="13" font-weight="bold" lengthAdjust="spacing" textLength="22" x="355.5" y="1241.3232">(13)</text><text fill="#000000" font-family="sans-serif" font-size="13" lengthAdjust="spacing" textLength="148" x="381.5" y="1241.3232">&#49436;&#48260;&#53664;&#53360; &#49373;&#49457;&#50836;&#52397; {seed}</text><line style="stroke:#181818;stroke-width:1.0;" x1="873.5" x2="915.5" y1="1331.6035" y2="1331.6035"/><line style="stroke:#181818;stroke-width:1.0;" x1="915.5" x2="915.5" y1="1331.6035" y2="1344.6035"/><line style="stroke:#181818;stroke-width:1.0;" x1="874.5" x2="915.5" y1="1344.6035" y2="1344.6035"/><polygon fill="#181818" points="884.5,1340.6035,874.5,1344.6035,884.5,1348.6035,880.5,1344.6035" style="stroke:#181818;stroke-width:1.0;"/><text fill="#000000" font-family="sans-serif" font-size="13" font-weight="bold" lengthAdjust="spacing" textLength="22" x="880.5" y="1299.9631">(14)</text><text fill="#000000" font-family="sans-serif" font-size="13" lengthAdjust="spacing" textLength="56" x="906.5" y="1273.1792">&#49436;&#47749; &#44160;&#51613;</text><ellipse cx="912" cy="1286.3916" fill="#000000" rx="2.5" ry="2.5" style="stroke:#000000;stroke-width:0.0;"/><text fill="#000000" font-family="sans-serif" font-size="13" lengthAdjust="spacing" textLength="113" x="918.5" y="1291.0352">seed.swi.proof &#44160;&#51613;</text><ellipse cx="912" cy="1304.2476" fill="#000000" rx="2.5" ry="2.5" style="stroke:#000000;stroke-width:0.0;"/><text fill="#000000" font-family="sans-serif" font-size="13" lengthAdjust="spacing" textLength="194" x="918.5" y="1308.8911">(&#50741;&#49496;)&#49324;&#50629;&#51088; &#44032;&#51077;&#51613;&#47749;&#49436; VC &#44160;&#51613;</text><ellipse cx="912" cy="1322.1035" fill="#000000" rx="2.5" ry="2.5" style="stroke:#000000;stroke-width:0.0;"/><text fill="#000000" font-family="sans-serif" font-size="13" lengthAdjust="spacing" textLength="111" x="918.5" y="1326.7471">seed.aai.proof &#44160;&#51613;</text><line style="stroke:#181818;stroke-width:1.0;" x1="873.5" x2="915.5" y1="1501.4512" y2="1501.4512"/><line style="stroke:#181818;stroke-width:1.0;" x1="915.5" x2="915.5" y1="1501.4512" y2="1514.4512"/><line style="stroke:#181818;stroke-width:1.0;" x1="874.5" x2="915.5" y1="1514.4512" y2="1514.4512"/><polygon fill="#181818" points="884.5,1510.4512,874.5,1514.4512,884.5,1518.4512,880.5,1514.4512" style="stroke:#181818;stroke-width:1.0;"/><text fill="#000000" font-family="sans-serif" font-size="13" font-weight="bold" lengthAdjust="spacing" textLength="22" x="880.5" y="1434.0989">(15)</text><text fill="#000000" font-family="sans-serif" font-size="13" lengthAdjust="spacing" textLength="144" x="906.5" y="1371.603">(ServerTokenData)std = {</text><text fill="#000000" font-family="sans-serif" font-size="13" lengthAdjust="spacing" textLength="144" x="922.5" y="1389.459">purpose = seed.purpose,</text><text fill="#000000" font-family="sans-serif" font-size="13" lengthAdjust="spacing" textLength="165" x="922.5" y="1407.3149">walletId = seed.swi.wallet.id,</text><text fill="#000000" font-family="sans-serif" font-size="13" lengthAdjust="spacing" textLength="151" x="922.5" y="1425.1709">caAppId = seed.aai.appId,</text><text fill="#000000" font-family="sans-serif" font-size="13" lengthAdjust="spacing" textLength="123" x="922.5" y="1443.0269">validUntil = &#50976;&#54952;&#51068;&#49884;,</text><text fill="#000000" font-family="sans-serif" font-size="13" lengthAdjust="spacing" textLength="133" x="922.5" y="1460.8828">provider = &#49324;&#50629;&#51088; &#51221;&#48372;,</text><text fill="#000000" font-family="sans-serif" font-size="13" lengthAdjust="spacing" textLength="107" x="922.5" y="1478.7388">nonce = &#45212;&#49688; &#49373;&#49457;</text><text fill="#000000" font-family="sans-serif" font-size="13" lengthAdjust="spacing" textLength="4" x="914.5" y="1496.5947">}</text><line style="stroke:#181818;stroke-width:1.0;" x1="873.5" x2="915.5" y1="1582.019" y2="1582.019"/><line style="stroke:#181818;stroke-width:1.0;" x1="915.5" x2="915.5" y1="1582.019" y2="1595.019"/><line style="stroke:#181818;stroke-width:1.0;" x1="874.5" x2="915.5" y1="1595.019" y2="1595.019"/><polygon fill="#181818" points="884.5,1591.019,874.5,1595.019,884.5,1599.019,880.5,1595.019" style="stroke:#181818;stroke-width:1.0;"/><text fill="#000000" font-family="sans-serif" font-size="13" font-weight="bold" lengthAdjust="spacing" textLength="22" x="880.5" y="1559.3066">(16)</text><text fill="#000000" font-family="sans-serif" font-size="13" lengthAdjust="spacing" textLength="69" x="906.5" y="1541.4507">&#49324;&#50629;&#51088; &#49436;&#47749;</text><ellipse cx="912" cy="1554.6631" fill="#000000" rx="2.5" ry="2.5" style="stroke:#000000;stroke-width:0.0;"/><text fill="#000000" font-family="sans-serif" font-size="13" lengthAdjust="spacing" textLength="159" x="918.5" y="1559.3066">priKey = Attestation &#44060;&#51064;&#53412;</text><ellipse cx="912" cy="1572.519" fill="#000000" rx="2.5" ry="2.5" style="stroke:#000000;stroke-width:0.0;"/><text fill="#000000" font-family="sans-serif" font-size="13" lengthAdjust="spacing" textLength="177" x="918.5" y="1577.1626">proof = signAssert(std, priKey)</text><line style="stroke:#181818;stroke-width:1.0;" x1="873.5" x2="915.5" y1="1644.731" y2="1644.731"/><line style="stroke:#181818;stroke-width:1.0;" x1="915.5" x2="915.5" y1="1644.731" y2="1657.731"/><line style="stroke:#181818;stroke-width:1.0;" x1="874.5" x2="915.5" y1="1657.731" y2="1657.731"/><polygon fill="#181818" points="884.5,1653.731,874.5,1657.731,884.5,1661.731,880.5,1657.731" style="stroke:#181818;stroke-width:1.0;"/><text fill="#000000" font-family="sans-serif" font-size="13" font-weight="bold" lengthAdjust="spacing" textLength="22" x="880.5" y="1630.9465">(17)</text><text fill="#000000" font-family="sans-serif" font-size="13" lengthAdjust="spacing" textLength="82" x="906.5" y="1622.0186">&#49436;&#48260;&#53664;&#53360; &#49373;&#49457;</text><ellipse cx="912" cy="1635.231" fill="#000000" rx="2.5" ry="2.5" style="stroke:#000000;stroke-width:0.0;"/><text fill="#000000" font-family="sans-serif" font-size="13" lengthAdjust="spacing" textLength="153" x="918.5" y="1639.8745">serverToken = sha256(std)</text><line style="stroke:#181818;stroke-width:1.0;" x1="873.5" x2="915.5" y1="1743.1548" y2="1743.1548"/><line style="stroke:#181818;stroke-width:1.0;" x1="915.5" x2="915.5" y1="1743.1548" y2="1756.1548"/><line style="stroke:#181818;stroke-width:1.0;" x1="874.5" x2="915.5" y1="1756.1548" y2="1756.1548"/><polygon fill="#181818" points="884.5,1752.1548,874.5,1756.1548,884.5,1760.1548,880.5,1756.1548" style="stroke:#181818;stroke-width:1.0;"/><text fill="#000000" font-family="sans-serif" font-size="13" font-weight="bold" lengthAdjust="spacing" textLength="22" x="880.5" y="1711.5144">(18)</text><text fill="#000000" font-family="sans-serif" font-size="13" lengthAdjust="spacing" textLength="95" x="906.5" y="1684.7305">&#51025;&#45813;&#51221;&#48372; &#50516;&#54840;&#54868;</text><ellipse cx="912" cy="1697.9429" fill="#000000" rx="2.5" ry="2.5" style="stroke:#000000;stroke-width:0.0;"/><text fill="#000000" font-family="sans-serif" font-size="13" lengthAdjust="spacing" textLength="66" x="918.5" y="1702.5864">iv = IV &#49373;&#49457;</text><ellipse cx="912" cy="1715.7988" fill="#000000" rx="2.5" ry="2.5" style="stroke:#000000;stroke-width:0.0;"/><text fill="#000000" font-family="sans-serif" font-size="13" lengthAdjust="spacing" textLength="206" x="918.5" y="1720.4424">tmp = enc(std, sesKey, iv, padding)</text><ellipse cx="912" cy="1733.6548" fill="#000000" rx="2.5" ry="2.5" style="stroke:#000000;stroke-width:0.0;"/><text fill="#000000" font-family="sans-serif" font-size="13" lengthAdjust="spacing" textLength="143" x="918.5" y="1738.2983">encStd = multibase(tmp)</text><polygon fill="#181818" points="359.5,1784.0107,349.5,1788.0107,359.5,1792.0107,355.5,1788.0107" style="stroke:#181818;stroke-width:1.0;"/><line style="stroke:#181818;stroke-width:1.0;stroke-dasharray:2.0,2.0;" x1="353.5" x2="867.5" y1="1788.0107" y2="1788.0107"/><text fill="#000000" font-family="sans-serif" font-size="13" font-weight="bold" lengthAdjust="spacing" textLength="22" x="365.5" y="1783.1543">(19)</text><text fill="#000000" font-family="sans-serif" font-size="13" lengthAdjust="spacing" textLength="65" x="391.5" y="1783.1543">{iv, encStd}</text><rect fill="#EEEEEE" height="3" style="stroke:#EEEEEE;stroke-width:1.0;" width="1147.5" x="0" y="1817.9387"/><line style="stroke:#000000;stroke-width:1.0;" x1="0" x2="1147.5" y1="1817.9387" y2="1817.9387"/><line style="stroke:#000000;stroke-width:1.0;" x1="0" x2="1147.5" y1="1820.9387" y2="1820.9387"/><rect fill="#EEEEEE" height="25.856" style="stroke:#000000;stroke-width:2.0;" width="111" x="518.25" y="1806.0107"/><text fill="#000000" font-family="sans-serif" font-size="13" font-weight="bold" lengthAdjust="spacing" textLength="93" x="524.25" y="1825.0103">5. serverToken</text><line style="stroke:#181818;stroke-width:1.0;" x1="348.5" x2="390.5" y1="1901.4346" y2="1901.4346"/><line style="stroke:#181818;stroke-width:1.0;" x1="390.5" x2="390.5" y1="1901.4346" y2="1914.4346"/><line style="stroke:#181818;stroke-width:1.0;" x1="349.5" x2="390.5" y1="1914.4346" y2="1914.4346"/><polygon fill="#181818" points="359.5,1910.4346,349.5,1914.4346,359.5,1918.4346,355.5,1914.4346" style="stroke:#181818;stroke-width:1.0;"/><text fill="#000000" font-family="sans-serif" font-size="13" font-weight="bold" lengthAdjust="spacing" textLength="22" x="355.5" y="1878.7222">(20)</text><text fill="#000000" font-family="sans-serif" font-size="13" lengthAdjust="spacing" textLength="95" x="381.5" y="1860.8662">&#51025;&#45813;&#51221;&#48372; &#48373;&#54840;&#54868;</text><ellipse cx="387" cy="1874.0786" fill="#000000" rx="2.5" ry="2.5" style="stroke:#000000;stroke-width:0.0;"/><text fill="#000000" font-family="sans-serif" font-size="13" lengthAdjust="spacing" textLength="129" x="393.5" y="1878.7222">tmp = debase(encStd)</text><ellipse cx="387" cy="1891.9346" fill="#000000" rx="2.5" ry="2.5" style="stroke:#000000;stroke-width:0.0;"/><text fill="#000000" font-family="sans-serif" font-size="13" lengthAdjust="spacing" textLength="206" x="393.5" y="1896.5781">std = dec(tmp, sesKey, iv, padding)</text><line style="stroke:#181818;stroke-width:1.0;" x1="348.5" x2="390.5" y1="1964.1465" y2="1964.1465"/><line style="stroke:#181818;stroke-width:1.0;" x1="390.5" x2="390.5" y1="1964.1465" y2="1977.1465"/><line style="stroke:#181818;stroke-width:1.0;" x1="349.5" x2="390.5" y1="1977.1465" y2="1977.1465"/><polygon fill="#181818" points="359.5,1973.1465,349.5,1977.1465,359.5,1981.1465,355.5,1977.1465" style="stroke:#181818;stroke-width:1.0;"/><text fill="#000000" font-family="sans-serif" font-size="13" font-weight="bold" lengthAdjust="spacing" textLength="22" x="355.5" y="1950.3621">(21)</text><text fill="#000000" font-family="sans-serif" font-size="13" lengthAdjust="spacing" textLength="82" x="381.5" y="1941.4341">&#49436;&#48260;&#53664;&#53360; &#49373;&#49457;</text><ellipse cx="387" cy="1954.6465" fill="#000000" rx="2.5" ry="2.5" style="stroke:#000000;stroke-width:0.0;"/><text fill="#000000" font-family="sans-serif" font-size="13" lengthAdjust="spacing" textLength="153" x="393.5" y="1959.29">serverToken = sha256(std)</text><polygon fill="#32CD32" points="323,1990.1465,887,1990.1465,897,2002.1465,887,2015.1465,323,2015.1465,313,2002.1465,323,1990.1465" style="stroke:#181818;stroke-width:0.5;"/><text fill="#000000" font-family="sans-serif" font-size="13" lengthAdjust="spacing" textLength="188" x="511.0781" y="2009.146">TAS&#50640; &#51217;&#44540; &#49884; serverToken &#51228;&#52636;</text><!--SRC=[jLPjQnj74FxS-nMByqLtkSZKgVF1I08HXTRK7mnoamz9A6lTEbugtnrtAvbM61nNBeLGI8XDdEGKL0Ybb1Ry4hSf-1VfLl-Xixkdqxr9QMbx812tC_FCpFFCt3BAsaJxgEBJRyZAqdADzuFml3_-RZX-V8hujmFUFwiiYiEQHcmBCMckuGvpxCxE9l7GGcMpLhgcLnOtQmkQvcAFqHPriStGWc7mrqVXyBLXB23iertSHfNAFTnk4rQhvKm7xqUd-_puBB9kOJ2kk-uSIyGFVkKl3lcRfx6F2qvDudM9b_VRg3SZEmQ_X9s6MunsCICGGDCysu5_3Xo9Z3K4Zs7SN_V83OjiKPjO3mr3lKNtwcjhTpQ-N6sWAbAb8cgbpnh9GmjEHHSbXBQ84b20F0-flhuUmSJ5nqW-yJydNvl8nPP5xKTW19Nob_lepkt6P-6FGKJZB6HenbpeVFWuXz75rMmGhLf57vTHapw2S8hrLNlBGTMgfcsdUcnAugwjqHtogKU87G7lIfyDvojYnorC2LE2RIimaCkDcfJOzUihIAZubyFmQH2vyU5nUF4EyLT7_Fmtr4j4tfDWma-vhw3mXrC-U3Vk0yhR_V3FFaey3sm3-WxPJ9dFd5h9uqR-N463IOzQfh3E9v1EMLQQZM8xTej0aF0WuD-Vp32oC52hi1IggVnc8KPTouPnFGhyGvIwxnCOACT6ezC0D30-U9ktTPmjCFM1T6LUYh8mepXw3hoKLOZkxz9qu5m9faBQqpp2EfwDUk2o9nMtL4PrneZFY0NB8nQSaeUGMKOUnsSfRJomUshKL9E4W_Bxi2umm0dker7DTwPBBT1xTRgrK0JzBycLm6QCa68vMK31tlmWvRAL-ByXFPbBAKEIZd41vyMLvSW7NqN-JLWtSgdBqMuIOgN8Nq6JzV4a29y7cSwAKaePTzqNCL8vkHtFTNn80YHdeXZwanHq0-fFG8llpKHtcO_hP2K984MPC5O-4w6YqVa-_scGxRjmAKCMPKL0iL69drpomnDzIhdGm9j3C8N841_TlJqlFXIOYfzBiPGfM_UPc89UXarueiu9fOZ8SIDpXchKvJ35DQftPR4qS_OjN8zcBquvKaxEj8lRrFh2PhGj1Z4OZb_zp0TNe8S2spaZMs3zDwOMeGA6_-zH13hIOvZLLqQGYlcOKX5i6oyjtnA12W8CdeLFBYShzFXeVF9-_F8ezydiGfZLkpDM6TjnuPZOBPNhvBv1k_6TGy-wW75JocodqsPq4tPD2QBeyKOGlif6JUToELrJQYcaQWWlBgSrJBEpY0HHCVLuGcGE5ca9zEBCapZ_jDd9Qr8BcxBncLkIkEcz4AfyDlhZIkorL3W-3FZlmVIQz1S0]--></g></svg>