<?xml version="1.0" encoding="us-ascii" standalone="no"?><svg xmlns="http://www.w3.org/2000/svg" xmlns:xlink="http://www.w3.org/1999/xlink" contentStyleType="text/css" height="252px" preserveAspectRatio="none" style="width:322px;height:252px;background:#FFFFFF;" version="1.1" viewBox="0 0 322 252" width="322px" zoomAndPan="magnify"><defs/><g><text fill="#000000" font-family="sans-serif" font-size="14" font-weight="bold" lengthAdjust="spacing" textLength="68" x="10" y="26.1533">multibase</text><line style="stroke:#181818;stroke-width:1.5;" x1="64" x2="64" y1="53.8442" y2="53.8442"/><rect fill="none" height="29.2295" style="stroke:#181818;stroke-width:0.5;" width="14" x="64" y="39.2295"/><text fill="#000000" font-family="sans-serif" font-size="14" lengthAdjust="spacing" textLength="4" x="69" y="60.3828">f</text><line style="stroke:#181818;stroke-width:1.5;" x1="78" x2="98" y1="53.8442" y2="53.8442"/><rect fill="none" height="29.2295" style="stroke:#181818;stroke-width:1.0;stroke-dasharray:5.0,5.0;" width="146" x="98" y="39.2295"/><text fill="#000000" font-family="sans-serif" font-size="14" lengthAdjust="spacing" textLength="128" x="107" y="60.3828">lower case hexstring</text><line style="stroke:#181818;stroke-width:1.5;" x1="40" x2="64" y1="53.8442" y2="53.8442"/><line style="stroke:#181818;stroke-width:1.5;" x1="244" x2="277" y1="53.8442" y2="53.8442"/><line style="stroke:#181818;stroke-width:1.5;" x1="64" x2="64" y1="93.0737" y2="93.0737"/><rect fill="none" height="29.2295" style="stroke:#181818;stroke-width:0.5;" width="19" x="64" y="78.459"/><text fill="#000000" font-family="sans-serif" font-size="14" lengthAdjust="spacing" textLength="9" x="69" y="99.6123">F</text><line style="stroke:#181818;stroke-width:1.5;" x1="83" x2="103" y1="93.0737" y2="93.0737"/><rect fill="none" height="29.2295" style="stroke:#181818;stroke-width:1.0;stroke-dasharray:5.0,5.0;" width="150" x="103" y="78.459"/><text fill="#000000" font-family="sans-serif" font-size="14" lengthAdjust="spacing" textLength="132" x="112" y="99.6123">upper case hexstring</text><path d="M52,81.0737 C52,90.0737 55,93.0737 64,93.0737 " fill="none" style="stroke:#181818;stroke-width:1.5;"/><line style="stroke:#181818;stroke-width:1.5;" x1="253" x2="253" y1="93.0737" y2="93.0737"/><path d="M265,81.0737 C265,90.0737 262,93.0737 253,93.0737 " fill="none" style="stroke:#181818;stroke-width:1.5;"/><line style="stroke:#181818;stroke-width:1.5;" x1="64" x2="64" y1="132.3032" y2="132.3032"/><rect fill="none" height="29.2295" style="stroke:#181818;stroke-width:0.5;" width="16" x="64" y="117.6885"/><text fill="#000000" font-family="sans-serif" font-size="14" lengthAdjust="spacing" textLength="6" x="69" y="138.8418">z</text><line style="stroke:#181818;stroke-width:1.5;" x1="80" x2="100" y1="132.3032" y2="132.3032"/><rect fill="none" height="29.2295" style="stroke:#181818;stroke-width:1.0;stroke-dasharray:5.0,5.0;" width="104" x="100" y="117.6885"/><text fill="#000000" font-family="sans-serif" font-size="14" lengthAdjust="spacing" textLength="86" x="109" y="138.8418">base58 string</text><path d="M52,120.3032 C52,129.3032 55,132.3032 64,132.3032 " fill="none" style="stroke:#181818;stroke-width:1.5;"/><line style="stroke:#181818;stroke-width:1.5;" x1="204" x2="253" y1="132.3032" y2="132.3032"/><path d="M226.5,132.3032 L226.5,129.3032 L232.5,132.3032 L226.5,135.3032 L226.5,132.3032 " fill="#181818" style="stroke:#181818;stroke-width:1.5;"/><path d="M265,120.3032 C265,129.3032 262,132.3032 253,132.3032 " fill="none" style="stroke:#181818;stroke-width:1.5;"/><line style="stroke:#181818;stroke-width:1.5;" x1="64" x2="64" y1="171.5327" y2="171.5327"/><rect fill="none" height="29.2295" style="stroke:#181818;stroke-width:0.5;" width="21" x="64" y="156.918"/><text fill="#000000" font-family="sans-serif" font-size="14" lengthAdjust="spacing" textLength="11" x="69" y="178.0713">m</text><line style="stroke:#181818;stroke-width:1.5;" x1="85" x2="105" y1="171.5327" y2="171.5327"/><rect fill="none" height="29.2295" style="stroke:#181818;stroke-width:1.0;stroke-dasharray:5.0,5.0;" width="104" x="105" y="156.918"/><text fill="#000000" font-family="sans-serif" font-size="14" lengthAdjust="spacing" textLength="86" x="114" y="178.0713">base64 string</text><path d="M52,159.5327 C52,168.5327 55,171.5327 64,171.5327 " fill="none" style="stroke:#181818;stroke-width:1.5;"/><line style="stroke:#181818;stroke-width:1.5;" x1="209" x2="253" y1="171.5327" y2="171.5327"/><path d="M229,171.5327 L229,168.5327 L235,171.5327 L229,174.5327 L229,171.5327 " fill="#181818" style="stroke:#181818;stroke-width:1.5;"/><path d="M265,159.5327 C265,168.5327 262,171.5327 253,171.5327 " fill="none" style="stroke:#181818;stroke-width:1.5;"/><line style="stroke:#181818;stroke-width:1.5;" x1="64" x2="64" y1="210.7622" y2="210.7622"/><rect fill="none" height="29.2295" style="stroke:#181818;stroke-width:0.5;" width="18" x="64" y="196.1475"/><text fill="#000000" font-family="sans-serif" font-size="14" lengthAdjust="spacing" textLength="8" x="69" y="217.3008">u</text><line style="stroke:#181818;stroke-width:1.5;" x1="82" x2="102" y1="210.7622" y2="210.7622"/><rect fill="none" height="29.2295" style="stroke:#181818;stroke-width:1.0;stroke-dasharray:5.0,5.0;" width="120" x="102" y="196.1475"/><text fill="#000000" font-family="sans-serif" font-size="14" lengthAdjust="spacing" textLength="102" x="111" y="217.3008">base64url string</text><line style="stroke:#181818;stroke-width:1.5;" x1="222" x2="253" y1="210.7622" y2="210.7622"/><path d="M235.5,210.7622 L235.5,207.7622 L241.5,210.7622 L235.5,213.7622 L235.5,210.7622 " fill="#181818" style="stroke:#181818;stroke-width:1.5;"/><path d="M52,198.7622 C52,207.7622 55,210.7622 64,210.7622 " fill="none" style="stroke:#181818;stroke-width:1.5;"/><line style="stroke:#181818;stroke-width:1.5;" x1="52" x2="52" y1="65.8442" y2="198.7622"/><path d="M40,53.8442 C49,53.8442 52,56.8442 52,65.8442 " fill="none" style="stroke:#181818;stroke-width:1.5;"/><path d="M265,198.7622 C265,207.7622 262,210.7622 253,210.7622 " fill="none" style="stroke:#181818;stroke-width:1.5;"/><line style="stroke:#181818;stroke-width:1.5;" x1="265" x2="265" y1="65.8442" y2="198.7622"/><path d="M265,65.8442 C265,56.8442 268,53.8442 277,53.8442 " fill="none" style="stroke:#181818;stroke-width:1.5;"/><ellipse cx="14" cy="53.8442" fill="none" rx="4" ry="4" style="stroke:#181818;stroke-width:2.0;"/><ellipse cx="307" cy="53.8442" fill="#181818" rx="4" ry="4" style="stroke:#181818;stroke-width:1.0;"/><line style="stroke:#181818;stroke-width:1.5;" x1="18" x2="40" y1="53.8442" y2="53.8442"/><line style="stroke:#181818;stroke-width:1.5;" x1="277" x2="303" y1="53.8442" y2="53.8442"/><path d="M288,53.8442 L288,50.8442 L294,53.8442 L288,56.8442 L288,53.8442 " fill="#181818" style="stroke:#181818;stroke-width:1.5;"/><!--SRC=[XT1TJy8m50RW-_wADrn1ecHW8J9Z88ep6ImIK6vD1sUpSMkNhaKn_dWx4j4BZBrgJf_prKbjXR6KgWnsNz5pwGehKr4JEzvmZLRMEiCOXNuZWqqJUw7tsXgfSemPZkSJhUWWNLNzApyEikamkCHfKXx9aFz1t2_YJ75ANR49gMsp8sEBGYZxbCon8rDBhT3hzeC-xrwq8oCHKOhU404FUH060ynMZsYUEwnzlvYZrivi25lPD4cTzVaT5ekTmD8fAqiAyL2HYgUpxm3kr4uQhKfIbiNhv0SC-VcDj5YHyPDWdR0fPS9_kS_OwArV8KIo6l4HcmkLEv7xsg-QtMfVr-n3p9PV]--></g></svg>