<?xml version="1.0" encoding="UTF-8"?><svg xmlns="http://www.w3.org/2000/svg" xmlns:xlink="http://www.w3.org/1999/xlink" fill-opacity="1" color-rendering="auto" color-interpolation="auto" text-rendering="auto" stroke="black" stroke-linecap="square" width="445" stroke-miterlimit="10" shape-rendering="auto" stroke-opacity="1" fill="black" stroke-dasharray="none" font-weight="normal" stroke-width="1" height="336" font-family="'Dialog'" font-style="normal" stroke-linejoin="miter" font-size="12px" stroke-dashoffset="0" image-rendering="auto">
  <!--Generated by ySVG 2.6-->
  <defs id="genericDefs"/>
  <g>
    <defs id="defs1">
      <linearGradient x1="526.9172" gradientUnits="userSpaceOnUse" x2="646.3317" y1="426.4019" y2="458.4019" id="linearGradient1" spreadMethod="reflect">
        <stop stop-opacity="1" stop-color="white" offset="0%"/>
        <stop stop-opacity="1" stop-color="white" offset="100%"/>
      </linearGradient>
      <linearGradient x1="526.9172" gradientUnits="userSpaceOnUse" x2="646.3317" y1="472.4666" y2="504.4666" id="linearGradient2" spreadMethod="reflect">
        <stop stop-opacity="1" stop-color="white" offset="0%"/>
        <stop stop-opacity="1" stop-color="white" offset="100%"/>
      </linearGradient>
      <linearGradient x1="698.1194" gradientUnits="userSpaceOnUse" x2="817.534" y1="426.4019" y2="458.4019" id="linearGradient3" spreadMethod="reflect">
        <stop stop-opacity="1" stop-color="white" offset="0%"/>
        <stop stop-opacity="1" stop-color="white" offset="100%"/>
      </linearGradient>
      <linearGradient x1="698.1194" gradientUnits="userSpaceOnUse" x2="817.534" y1="472.4666" y2="504.4666" id="linearGradient4" spreadMethod="reflect">
        <stop stop-opacity="1" stop-color="white" offset="0%"/>
        <stop stop-opacity="1" stop-color="white" offset="100%"/>
      </linearGradient>
      <linearGradient x1="511.9172" gradientUnits="userSpaceOnUse" x2="631.3317" y1="534.4666" y2="566.4666" id="linearGradient5" spreadMethod="reflect">
        <stop stop-opacity="1" stop-color="white" offset="0%"/>
        <stop stop-opacity="1" stop-color="white" offset="100%"/>
      </linearGradient>
      <clipPath clipPathUnits="userSpaceOnUse" id="clipPath1">
        <path d="M0 0 L445 0 L445 336 L0 336 L0 0 Z"/>
      </clipPath>
      <clipPath clipPathUnits="userSpaceOnUse" id="clipPath2">
        <path d="M449 291 L894 291 L894 627 L449 627 L449 291 Z"/>
      </clipPath>
    </defs>
    <g fill="white" text-rendering="geometricPrecision" shape-rendering="geometricPrecision" transform="translate(-449,-291)" stroke="white">
      <rect x="449" width="445" height="336" y="291" clip-path="url(#clipPath2)" stroke="none"/>
    </g>
    <g fill="rgb(245,245,245)" text-rendering="geometricPrecision" shape-rendering="geometricPrecision" transform="matrix(1,0,0,1,-449,-291)" stroke="rgb(245,245,245)">
      <rect x="464.9172" y="306.5203" clip-path="url(#clipPath2)" width="413.9928" rx="4" ry="4" height="304.6652" stroke="none"/>
      <rect x="464.9172" y="306.5203" clip-path="url(#clipPath2)" fill="rgb(235,235,235)" width="413.9928" height="21.666" stroke="none"/>
    </g>
    <g font-size="15px" stroke-linecap="butt" transform="matrix(1,0,0,1,-449,-291)" text-rendering="geometricPrecision" font-family="sans-serif" shape-rendering="geometricPrecision" stroke-miterlimit="1.45">
      <text x="657.2981" xml:space="preserve" y="323.0223" clip-path="url(#clipPath2)" stroke="none">App</text>
      <rect x="464.9172" y="306.5203" clip-path="url(#clipPath2)" fill="none" width="413.9928" stroke-dasharray="6,2" rx="4" ry="4" height="304.6652"/>
    </g>
    <g fill="rgb(235,235,235)" text-rendering="geometricPrecision" shape-rendering="geometricPrecision" transform="matrix(1,0,0,1,-449,-291)" stroke="rgb(235,235,235)">
      <rect x="496.9172" y="350.4364" clip-path="url(#clipPath2)" width="350.6168" rx="4" ry="4" height="241.7308" stroke="none"/>
      <rect x="496.9172" y="350.4364" clip-path="url(#clipPath2)" fill="white" width="350.6168" height="21.666" stroke="none"/>
    </g>
    <g font-size="15px" stroke-linecap="butt" transform="matrix(1,0,0,1,-449,-291)" text-rendering="geometricPrecision" font-family="sans-serif" shape-rendering="geometricPrecision" stroke-miterlimit="1.45">
      <text x="650.3481" xml:space="preserve" y="366.9384" clip-path="url(#clipPath2)" stroke="none">Wallet</text>
      <rect x="496.9172" y="350.4364" clip-path="url(#clipPath2)" fill="none" width="350.6168" stroke-dasharray="6,2" rx="4" ry="4" height="241.7308"/>
    </g>
    <g fill="rgb(205,205,205)" text-rendering="geometricPrecision" shape-rendering="geometricPrecision" transform="matrix(1,0,0,1,-449,-291)" stroke="rgb(205,205,205)">
      <rect x="511.9172" y="389.7358" clip-path="url(#clipPath2)" width="149.4146" rx="4" ry="4" height="129.7308" stroke="none"/>
      <rect x="511.9172" y="389.7358" clip-path="url(#clipPath2)" fill="rgb(235,235,235)" width="149.4146" height="21.666" stroke="none"/>
    </g>
    <g font-size="15px" stroke-linecap="butt" transform="matrix(1,0,0,1,-449,-291)" text-rendering="geometricPrecision" font-family="sans-serif" shape-rendering="geometricPrecision" stroke-miterlimit="1.45">
      <text x="570.3574" xml:space="preserve" y="406.2378" clip-path="url(#clipPath2)" stroke="none">User</text>
      <rect x="511.9172" y="389.7358" clip-path="url(#clipPath2)" fill="none" width="149.4146" stroke-dasharray="6,2" rx="4" ry="4" height="129.7308"/>
    </g>
    <g fill="url(#linearGradient1)" text-rendering="geometricPrecision" shape-rendering="geometricPrecision" transform="matrix(1,0,0,1,-449,-291)" stroke="url(#linearGradient1)">
      <path d="M526.9172 426.4019 L646.3317 426.4019 L646.3317 458.4019 L526.9172 458.4019 Z" stroke="none" clip-path="url(#clipPath2)"/>
    </g>
    <g text-rendering="geometricPrecision" stroke-miterlimit="1.45" shape-rendering="geometricPrecision" transform="matrix(1,0,0,1,-449,-291)" stroke-linecap="butt">
      <path fill="none" d="M526.9172 426.4019 L646.3317 426.4019 L646.3317 458.4019 L526.9172 458.4019 Z" clip-path="url(#clipPath2)"/>
      <text x="560.9955" xml:space="preserve" y="446.937" clip-path="url(#clipPath2)" font-family="sans-serif" stroke="none">User DID</text>
    </g>
    <g fill="url(#linearGradient2)" text-rendering="geometricPrecision" shape-rendering="geometricPrecision" transform="matrix(1,0,0,1,-449,-291)" stroke="url(#linearGradient2)">
      <path d="M526.9172 472.4666 L646.3317 472.4666 L646.3317 504.4666 L526.9172 504.4666 Z" stroke="none" clip-path="url(#clipPath2)"/>
    </g>
    <g text-rendering="geometricPrecision" stroke-miterlimit="1.45" shape-rendering="geometricPrecision" transform="matrix(1,0,0,1,-449,-291)" stroke-linecap="butt">
      <path fill="none" d="M526.9172 472.4666 L646.3317 472.4666 L646.3317 504.4666 L526.9172 504.4666 Z" clip-path="url(#clipPath2)"/>
      <text x="556.5512" xml:space="preserve" y="493.0017" clip-path="url(#clipPath2)" font-family="sans-serif" stroke="none">Key Pair(s)</text>
    </g>
    <g fill="rgb(205,205,205)" text-rendering="geometricPrecision" shape-rendering="geometricPrecision" transform="matrix(1,0,0,1,-449,-291)" stroke="rgb(205,205,205)">
      <rect x="683.1194" y="389.7358" clip-path="url(#clipPath2)" width="149.4146" rx="4" ry="4" height="129.7308" stroke="none"/>
      <rect x="683.1194" y="389.7358" clip-path="url(#clipPath2)" fill="rgb(235,235,235)" width="149.4146" height="21.666" stroke="none"/>
    </g>
    <g font-size="15px" stroke-linecap="butt" transform="matrix(1,0,0,1,-449,-291)" text-rendering="geometricPrecision" font-family="sans-serif" shape-rendering="geometricPrecision" stroke-miterlimit="1.45">
      <text x="733.9608" xml:space="preserve" y="406.2378" clip-path="url(#clipPath2)" stroke="none">Device</text>
      <rect x="683.1194" y="389.7358" clip-path="url(#clipPath2)" fill="none" width="149.4146" stroke-dasharray="6,2" rx="4" ry="4" height="129.7308"/>
    </g>
    <g fill="url(#linearGradient3)" text-rendering="geometricPrecision" shape-rendering="geometricPrecision" transform="matrix(1,0,0,1,-449,-291)" stroke="url(#linearGradient3)">
      <path d="M698.1194 426.4019 L817.534 426.4019 L817.534 458.4019 L698.1194 458.4019 Z" stroke="none" clip-path="url(#clipPath2)"/>
    </g>
    <g text-rendering="geometricPrecision" stroke-miterlimit="1.45" shape-rendering="geometricPrecision" transform="matrix(1,0,0,1,-449,-291)" stroke-linecap="butt">
      <path fill="none" d="M698.1194 426.4019 L817.534 426.4019 L817.534 458.4019 L698.1194 458.4019 Z" clip-path="url(#clipPath2)"/>
      <text x="726.1187" xml:space="preserve" y="446.937" clip-path="url(#clipPath2)" font-family="sans-serif" stroke="none">Device DID</text>
    </g>
    <g fill="url(#linearGradient4)" text-rendering="geometricPrecision" shape-rendering="geometricPrecision" transform="matrix(1,0,0,1,-449,-291)" stroke="url(#linearGradient4)">
      <path d="M698.1194 472.4666 L817.534 472.4666 L817.534 504.4666 L698.1194 504.4666 Z" stroke="none" clip-path="url(#clipPath2)"/>
    </g>
    <g text-rendering="geometricPrecision" stroke-miterlimit="1.45" shape-rendering="geometricPrecision" transform="matrix(1,0,0,1,-449,-291)" stroke-linecap="butt">
      <path fill="none" d="M698.1194 472.4666 L817.534 472.4666 L817.534 504.4666 L698.1194 504.4666 Z" clip-path="url(#clipPath2)"/>
      <text x="727.7535" xml:space="preserve" y="493.0017" clip-path="url(#clipPath2)" font-family="sans-serif" stroke="none">Key Pair(s)</text>
    </g>
    <g fill="url(#linearGradient5)" text-rendering="geometricPrecision" shape-rendering="geometricPrecision" transform="matrix(1,0,0,1,-449,-291)" stroke="url(#linearGradient5)">
      <path d="M511.9172 534.4666 L631.3317 534.4666 L631.3317 566.4666 L511.9172 566.4666 Z" stroke="none" clip-path="url(#clipPath2)"/>
    </g>
    <g text-rendering="geometricPrecision" stroke-miterlimit="1.45" shape-rendering="geometricPrecision" transform="matrix(1,0,0,1,-449,-291)" stroke-linecap="butt">
      <path fill="none" d="M511.9172 534.4666 L631.3317 534.4666 L631.3317 566.4666 L511.9172 566.4666 Z" clip-path="url(#clipPath2)"/>
      <text x="546.0014" xml:space="preserve" y="555.0018" clip-path="url(#clipPath2)" font-family="sans-serif" stroke="none">Wallet ID</text>
    </g>
  </g>
</svg>
