<svg xmlns="http://www.w3.org/2000/svg" xmlns:xlink="http://www.w3.org/1999/xlink" contentStyleType="text/css" height="356px" preserveAspectRatio="none" style="width:571px;height:356px;background:#FFFFFF;" version="1.1" viewBox="0 0 571 356" width="571px" zoomAndPan="magnify"><defs/><g><line style="stroke:#181818;stroke-width:0.5;stroke-dasharray:5.0,5.0;" x1="48" x2="48" y1="36.2969" y2="321.3594"/><line style="stroke:#181818;stroke-width:0.5;stroke-dasharray:5.0,5.0;" x1="201.6581" x2="201.6581" y1="36.2969" y2="321.3594"/><rect fill="#E2E2F0" height="30.2969" rx="2.5" ry="2.5" style="stroke:#181818;stroke-width:0.5;" width="86.3311" x="5" y="5"/><text fill="#000000" font-family="sans-serif" font-size="14" lengthAdjust="spacing" textLength="72.3311" x="12" y="24.9951">Client App</text><rect fill="#E2E2F0" height="30.2969" rx="2.5" ry="2.5" style="stroke:#181818;stroke-width:0.5;" width="86.3311" x="5" y="320.3594"/><text fill="#000000" font-family="sans-serif" font-size="14" lengthAdjust="spacing" textLength="72.3311" x="12" y="340.3545">Client App</text><rect fill="#E2E2F0" height="30.2969" rx="2.5" ry="2.5" style="stroke:#181818;stroke-width:0.5;" width="91.376" x="156.6581" y="5"/><text fill="#000000" font-family="sans-serif" font-size="14" lengthAdjust="spacing" textLength="77.376" x="163.6581" y="24.9951">TAS Server</text><rect fill="#E2E2F0" height="30.2969" rx="2.5" ry="2.5" style="stroke:#181818;stroke-width:0.5;" width="91.376" x="156.6581" y="320.3594"/><text fill="#000000" font-family="sans-serif" font-size="14" lengthAdjust="spacing" textLength="77.376" x="163.6581" y="340.3545">TAS Server</text><line style="stroke:#181818;stroke-width:1.0;" x1="200.3461" x2="190.3461" y1="67.4297" y2="63.4297"/><line style="stroke:#181818;stroke-width:1.0;" x1="200.3461" x2="190.3461" y1="67.4297" y2="71.4297"/><line style="stroke:#181818;stroke-width:1.0;" x1="48.1655" x2="201.3461" y1="67.4297" y2="67.4297"/><text fill="#000000" font-family="sans-serif" font-size="13" lengthAdjust="spacing" textLength="101.3952" x="55.1655" y="62.3638">PII &#46321;&#47197; &#50836;&#52397; (PII)</text><line style="stroke:#181818;stroke-width:1.0;" x1="49.1655" x2="59.1655" y1="96.5625" y2="92.5625"/><line style="stroke:#181818;stroke-width:1.0;" x1="49.1655" x2="59.1655" y1="96.5625" y2="100.5625"/><line style="stroke:#181818;stroke-width:1.0;stroke-dasharray:2.0,2.0;" x1="48.1655" x2="201.3461" y1="96.5625" y2="96.5625"/><text fill="#000000" font-family="sans-serif" font-size="13" lengthAdjust="spacing" textLength="130.1806" x="65.1655" y="91.4966">&#44208;&#44284; &#51204;&#45804; (&#44592;&#46321;&#47197; &#50668;&#48512;)</text><line style="stroke:#181818;stroke-width:1.0;" x1="200.3461" x2="190.3461" y1="125.6953" y2="121.6953"/><line style="stroke:#181818;stroke-width:1.0;" x1="200.3461" x2="190.3461" y1="125.6953" y2="129.6953"/><line style="stroke:#181818;stroke-width:1.0;" x1="48.1655" x2="201.3461" y1="125.6953" y2="125.6953"/><text fill="#000000" font-family="sans-serif" font-size="13" lengthAdjust="spacing" textLength="105.0705" x="55.1655" y="120.6294">DIDDoc &#46321;&#47197; &#50836;&#52397;</text><path d="M207,138.6953 L207,163.6953 L564,163.6953 L564,148.6953 L554,138.6953 L207,138.6953 " fill="#FEFFDD" style="stroke:#181818;stroke-width:0.5;"/><path d="M554,138.6953 L554,148.6953 L564,148.6953 L554,138.6953 " fill="#FEFFDD" style="stroke:#181818;stroke-width:0.5;"/><text fill="#000000" font-family="sans-serif" font-size="13" lengthAdjust="spacing" textLength="336.0972" x="213" y="155.7622">File Wallet&#51008; &#50545;&#51060; &#51116;&#49444;&#52824;&#46104;&#47732; &#49352;&#47196;&#50868; &#50900;&#47131;&#51012; &#49324;&#50857;&#54644;&#50556; &#54620;&#45796;.</text><line style="stroke:#181818;stroke-width:1.0;" x1="202.3461" x2="244.3461" y1="189.9609" y2="189.9609"/><line style="stroke:#181818;stroke-width:1.0;" x1="244.3461" x2="244.3461" y1="189.9609" y2="202.9609"/><line style="stroke:#181818;stroke-width:1.0;" x1="203.3461" x2="244.3461" y1="202.9609" y2="202.9609"/><polygon fill="#181818" points="213.3461,198.9609,203.3461,202.9609,213.3461,206.9609,209.3461,202.9609" style="stroke:#181818;stroke-width:1.0;"/><text fill="#000000" font-family="sans-serif" font-size="13" lengthAdjust="spacing" textLength="137.2552" x="209.3461" y="184.895">&#44592;&#51316; &#50900;&#47131;, DIDDoc &#54224;&#44592;</text><line style="stroke:#181818;stroke-width:1.0;" x1="202.3461" x2="244.3461" y1="232.0938" y2="232.0938"/><line style="stroke:#181818;stroke-width:1.0;" x1="244.3461" x2="244.3461" y1="232.0938" y2="245.0938"/><line style="stroke:#181818;stroke-width:1.0;" x1="203.3461" x2="244.3461" y1="245.0938" y2="245.0938"/><polygon fill="#181818" points="213.3461,241.0938,203.3461,245.0938,213.3461,249.0938,209.3461,245.0938" style="stroke:#181818;stroke-width:1.0;"/><text fill="#000000" font-family="sans-serif" font-size="13" lengthAdjust="spacing" textLength="154.5376" x="209.3461" y="227.0278">&#51221;&#48372; &#44081;&#49888; (&#49324;&#50857;&#51088;, &#50900;&#47131;, &#50545;)</text><line style="stroke:#181818;stroke-width:1.0;" x1="200.3461" x2="190.3461" y1="274.2266" y2="270.2266"/><line style="stroke:#181818;stroke-width:1.0;" x1="200.3461" x2="190.3461" y1="274.2266" y2="278.2266"/><line style="stroke:#181818;stroke-width:1.0;" x1="48.1655" x2="201.3461" y1="274.2266" y2="274.2266"/><text fill="#000000" font-family="sans-serif" font-size="13" lengthAdjust="spacing" textLength="51.9724" x="55.1655" y="269.1606">&#54869;&#51064; &#50836;&#52397;</text><line style="stroke:#181818;stroke-width:1.0;" x1="49.1655" x2="59.1655" y1="303.3594" y2="299.3594"/><line style="stroke:#181818;stroke-width:1.0;" x1="49.1655" x2="59.1655" y1="303.3594" y2="307.3594"/><line style="stroke:#181818;stroke-width:1.0;stroke-dasharray:2.0,2.0;" x1="48.1655" x2="201.3461" y1="303.3594" y2="303.3594"/><text fill="#000000" font-family="sans-serif" font-size="13" lengthAdjust="spacing" textLength="18.7573" x="65.1655" y="298.2935">OK</text><!--SRC=[NP31IiD054NtynMFh59e_O0k2iKW11SA5Lo7CceWj4CChejc8MHXm0xMj2a9T5E8aBH1AlIBCY__uCGQiTdDctFluzx73DinXoOpHWuOZ85n3ygfPL8vzXbJ2Fl77GahVjKVm83Q3zHM2AbCdLxl1tRXKjT1l6OY3W63AMu-G9LVBLBHJYMhv5qeDccntGD6hl0IK8jTMflU4l4vQJNNQhgcZOV7cmaPZHqAjdbxvy3uvbTvPbeKhWtBeWw64q2UOPW3BXDqL_Wr4_vChENyz2pY1GRoDP-AQ8wX2_YOOB0kUOvy3oLV26zrGWx1wnWo9yQrfrsdAbzy2OwL676npQ58C_GYK0-xSUct_ymocQpPw5c-SmntTS76qIxElm40]--></g></svg>