<?xml version="1.0" encoding="us-ascii" standalone="no"?><svg xmlns="http://www.w3.org/2000/svg" xmlns:xlink="http://www.w3.org/1999/xlink" contentStyleType="text/css" height="440px" preserveAspectRatio="none" style="width:490px;height:440px;background:#FFFFFF;" version="1.1" viewBox="0 0 490 440" width="490px" zoomAndPan="magnify"><defs/><g><ellipse cx="140.5" cy="20" fill="#222222" rx="10" ry="10" style="stroke:#222222;stroke-width:1.0;"/><rect fill="none" height="190.8867" style="stroke:#000000;stroke-width:1.5;" width="379" x="11" y="40"/><path d="M120,40 L120,49.4883 L110,59.4883 L11,59.4883 " fill="none" style="stroke:#000000;stroke-width:1.5;"/><text fill="#000000" font-family="sans-serif" font-size="14" lengthAdjust="spacing" textLength="99" x="14" y="54.5352">Offering Stage</text><path d="M280,80.8994 L280,89.5547 L260,93.5547 L280,97.5547 L280,106.21 A0,0 0 0 0 280,106.21 L380,106.21 A0,0 0 0 0 380,106.21 L380,90.8994 L370,80.8994 L280,80.8994 A0,0 0 0 0 280,80.8994 " fill="#FEFFDD" style="stroke:#181818;stroke-width:0.5;"/><path d="M370,80.8994 L370,90.8994 L380,90.8994 L370,80.8994 " fill="#FEFFDD" style="stroke:#181818;stroke-width:0.5;"/><text fill="#000000" font-family="sans-serif" font-size="13" lengthAdjust="spacing" textLength="79" x="286" y="98.4678">out of scope</text><rect fill="#F1F1F1" height="34.1328" rx="12.5" ry="12.5" style="stroke:#181818;stroke-width:0.5;" width="239" x="21" y="76.4883"/><text fill="#000000" font-family="sans-serif" font-size="12" font-weight="bold" lengthAdjust="spacing" textLength="19" x="31" y="98.0898">B1.</text><text fill="#000000" font-family="sans-serif" font-size="12" lengthAdjust="spacing" textLength="196" x="54" y="98.0898">Create Presentation Offer payload</text><path d="M250,135.0322 L250,143.6875 L230,147.6875 L250,151.6875 L250,160.3428 A0,0 0 0 0 250,160.3428 L350,160.3428 A0,0 0 0 0 350,160.3428 L350,145.0322 L340,135.0322 L250,135.0322 A0,0 0 0 0 250,135.0322 " fill="#FEFFDD" style="stroke:#181818;stroke-width:0.5;"/><path d="M340,135.0322 L340,145.0322 L350,145.0322 L340,135.0322 " fill="#FEFFDD" style="stroke:#181818;stroke-width:0.5;"/><text fill="#000000" font-family="sans-serif" font-size="13" lengthAdjust="spacing" textLength="79" x="256" y="152.6006">out of scope</text><rect fill="#F1F1F1" height="34.1328" rx="12.5" ry="12.5" style="stroke:#181818;stroke-width:0.5;" width="179" x="51" y="130.6211"/><text fill="#000000" font-family="sans-serif" font-size="12" font-weight="bold" lengthAdjust="spacing" textLength="19" x="61" y="152.2227">B2.</text><text fill="#000000" font-family="sans-serif" font-size="12" lengthAdjust="spacing" textLength="136" x="84" y="152.2227">Send Presentation Offer</text><path d="M258,189.165 L258,197.8203 L238,201.8203 L258,205.8203 L258,214.4756 A0,0 0 0 0 258,214.4756 L358,214.4756 A0,0 0 0 0 358,214.4756 L358,199.165 L348,189.165 L258,189.165 A0,0 0 0 0 258,189.165 " fill="#FEFFDD" style="stroke:#181818;stroke-width:0.5;"/><path d="M348,189.165 L348,199.165 L358,199.165 L348,189.165 " fill="#FEFFDD" style="stroke:#181818;stroke-width:0.5;"/><text fill="#000000" font-family="sans-serif" font-size="13" lengthAdjust="spacing" textLength="79" x="264" y="206.7334">out of scope</text><rect fill="#F1F1F1" height="34.1328" rx="12.5" ry="12.5" style="stroke:#181818;stroke-width:0.5;" width="195" x="43" y="184.7539"/><text fill="#000000" font-family="sans-serif" font-size="12" font-weight="bold" lengthAdjust="spacing" textLength="19" x="53" y="206.3555">B3.</text><text fill="#000000" font-family="sans-serif" font-size="12" lengthAdjust="spacing" textLength="152" x="76" y="206.3555">Receive Presentation Offer</text><rect fill="none" height="146.2422" style="stroke:#000000;stroke-width:1.5;" width="431" x="48.5" y="240.8867"/><path d="M186.5,240.8867 L186.5,250.375 L176.5,260.375 L48.5,260.375 " fill="none" style="stroke:#000000;stroke-width:1.5;"/><text fill="#000000" font-family="sans-serif" font-size="14" lengthAdjust="spacing" textLength="128" x="51.5" y="255.4219">Presentation Stage</text><path d="M242.5,277.1309 L242.5,293.4414 L222.5,297.4414 L242.5,301.4414 L242.5,317.752 A0,0 0 0 0 242.5,317.752 L469.5,317.752 A0,0 0 0 0 469.5,317.752 L469.5,287.1309 L459.5,277.1309 L242.5,277.1309 A0,0 0 0 0 242.5,277.1309 " fill="#FEFFDD" style="stroke:#181818;stroke-width:0.5;"/><path d="M459.5,277.1309 L459.5,287.1309 L469.5,287.1309 L459.5,277.1309 " fill="#FEFFDD" style="stroke:#181818;stroke-width:0.5;"/><text fill="#000000" font-family="sans-serif" font-size="13" lengthAdjust="spacing" textLength="206" x="248.5" y="294.6992">[CApp, Service Device &#8594; Verifier]</text><ellipse cx="254" cy="305.252" fill="#000000" rx="2.5" ry="2.5" style="stroke:#000000;stroke-width:0.0;"/><text fill="#000000" font-family="sans-serif" font-size="13" lengthAdjust="spacing" textLength="94" x="260.5" y="310.0098">Request Profile</text><rect fill="#F1F1F1" height="34.1328" rx="12.5" ry="12.5" style="stroke:#181818;stroke-width:0.5;" width="164" x="58.5" y="280.375"/><text fill="#000000" font-family="sans-serif" font-size="12" font-weight="bold" lengthAdjust="spacing" textLength="20" x="68.5" y="301.9766">C1.</text><text fill="#000000" font-family="sans-serif" font-size="12" lengthAdjust="spacing" textLength="120" x="92.5" y="301.9766">Request VerifyProfile</text><path d="M211.5,334.5078 L211.5,350.8184 L191.5,354.8184 L211.5,358.8184 L211.5,375.1289 A0,0 0 0 0 211.5,375.1289 L438.5,375.1289 A0,0 0 0 0 438.5,375.1289 L438.5,344.5078 L428.5,334.5078 L211.5,334.5078 A0,0 0 0 0 211.5,334.5078 " fill="#FEFFDD" style="stroke:#181818;stroke-width:0.5;"/><path d="M428.5,334.5078 L428.5,344.5078 L438.5,344.5078 L428.5,334.5078 " fill="#FEFFDD" style="stroke:#181818;stroke-width:0.5;"/><text fill="#000000" font-family="sans-serif" font-size="13" lengthAdjust="spacing" textLength="206" x="217.5" y="352.0762">[CApp, Service Device &#8594; Verifier]</text><ellipse cx="223" cy="362.6289" fill="#000000" rx="2.5" ry="2.5" style="stroke:#000000;stroke-width:0.0;"/><text fill="#000000" font-family="sans-serif" font-size="13" lengthAdjust="spacing" textLength="90" x="229.5" y="367.3867">Request Verify</text><rect fill="#F1F1F1" height="34.1328" rx="12.5" ry="12.5" style="stroke:#181818;stroke-width:0.5;" width="102" x="89.5" y="337.752"/><text fill="#000000" font-family="sans-serif" font-size="12" font-weight="bold" lengthAdjust="spacing" textLength="20" x="99.5" y="359.3535">C2.</text><text fill="#000000" font-family="sans-serif" font-size="12" lengthAdjust="spacing" textLength="58" x="123.5" y="359.3535">Submit VP</text><ellipse cx="140.5" cy="418.1289" fill="none" rx="11" ry="11" style="stroke:#222222;stroke-width:1.0;"/><ellipse cx="140.5" cy="418.1289" fill="#222222" rx="6" ry="6" style="stroke:#222222;stroke-width:1.0;"/><line style="stroke:#181818;stroke-width:1.0;" x1="140.5" x2="140.5" y1="110.6211" y2="130.6211"/><polygon fill="#181818" points="136.5,120.6211,140.5,130.6211,144.5,120.6211,140.5,124.6211" style="stroke:#181818;stroke-width:1.0;"/><line style="stroke:#181818;stroke-width:1.0;" x1="140.5" x2="140.5" y1="164.7539" y2="184.7539"/><polygon fill="#181818" points="136.5,174.7539,140.5,184.7539,144.5,174.7539,140.5,178.7539" style="stroke:#181818;stroke-width:1.0;"/><line style="stroke:#181818;stroke-width:1.0;" x1="140.5" x2="140.5" y1="30" y2="76.4883"/><polygon fill="#181818" points="136.5,66.4883,140.5,76.4883,144.5,66.4883,140.5,70.4883" style="stroke:#181818;stroke-width:1.0;"/><line style="stroke:#181818;stroke-width:1.0;" x1="140.5" x2="140.5" y1="314.5078" y2="337.752"/><polygon fill="#181818" points="136.5,327.752,140.5,337.752,144.5,327.752,140.5,331.752" style="stroke:#181818;stroke-width:1.0;"/><line style="stroke:#181818;stroke-width:1.0;" x1="140.5" x2="140.5" y1="218.8867" y2="280.375"/><polygon fill="#181818" points="136.5,270.375,140.5,280.375,144.5,270.375,140.5,274.375" style="stroke:#181818;stroke-width:1.0;"/><line style="stroke:#181818;stroke-width:1.0;" x1="140.5" x2="140.5" y1="371.8848" y2="407.1289"/><polygon fill="#181818" points="136.5,397.1289,140.5,407.1289,144.5,397.1289,140.5,401.1289" style="stroke:#181818;stroke-width:1.0;"/><!--SRC=[hP31Yi8m54Nt_Og7ooA2pavNsjbRHfYDk8ZrfVD0aqpoMYZYrW_m4_qIarGg5HSEJ1O98U-UctiT2yj9OlnEJ5h1O2abMb8bh5YKE81Z0dvDqtGn7gKfP1O58-GM7IeMKHCbO4Iprs8tY_DA-o5BvGzFGLSCMe8hjC6aeqq2ROLgzuBrBkCZCBwmGAhnxvXJBtTF_fmz6xTElnKwXczVa6nogoNjyTaaNiDQPtDZXZwYhQb0-CHuNC-NLazeDztiWtsdnfTGJW1tWREsj6fx8F-B_9-jsrXzPz-HOsrk]--></g></svg>