<?xml version="1.0" encoding="us-ascii" standalone="no"?><svg xmlns="http://www.w3.org/2000/svg" xmlns:xlink="http://www.w3.org/1999/xlink" contentStyleType="text/css" height="1626px" preserveAspectRatio="none" style="width:918px;height:1626px;background:#FFFFFF;" version="1.1" viewBox="0 0 918 1626" width="918px" zoomAndPan="magnify"><defs/><g><text fill="#000000" font-family="sans-serif" font-size="25" font-weight="bold" lengthAdjust="spacing" textLength="278.8125" x="315.7188" y="43.8452">&#51060;&#49800;&#50612;&#50640; &#51032;&#54620; &#48156;&#44553; &#44060;&#49884;</text><rect fill="#FFFFFF" height="395.2363" style="stroke:#181818;stroke-width:1.0;" width="10" x="43.6563" y="1165.0825"/><rect fill="#FFFFFF" height="46.856" style="stroke:#181818;stroke-width:1.0;" width="10" x="311.6563" y="1513.4629"/><rect fill="#FFFFFF" height="897.3555" style="stroke:#181818;stroke-width:1.0;" width="10" x="402.25" y="123.7974"/><rect fill="#FFFFFF" height="63.7119" style="stroke:#181818;stroke-width:1.0;" width="10" x="661.25" y="739.3403"/><rect fill="#FFFFFF" height="63.7119" style="stroke:#181818;stroke-width:1.0;" width="10" x="661.25" y="942.4409"/><rect fill="none" height="196.1006" style="stroke:#000000;stroke-width:1.5;" width="549.0938" x="352.1563" y="818.0522"/><rect fill="none" height="226.2095" style="stroke:#000000;stroke-width:1.5;" width="236.6563" x="10" y="1121.2617"/><line style="stroke:#181818;stroke-width:0.5;stroke-dasharray:5.0,5.0;" x1="48" x2="48" y1="113.7974" y2="1046.1528"/><line style="stroke:#A80036;stroke-width:1.0;stroke-dasharray:1.0,4.0;" x1="48" x2="48" y1="1046.1528" y2="1089.2617"/><line style="stroke:#181818;stroke-width:0.5;stroke-dasharray:5.0,5.0;" x1="48" x2="48" y1="1089.2617" y2="1569.3188"/><line style="stroke:#181818;stroke-width:0.5;stroke-dasharray:5.0,5.0;" x1="316.1563" x2="316.1563" y1="113.7974" y2="1046.1528"/><line style="stroke:#A80036;stroke-width:1.0;stroke-dasharray:1.0,4.0;" x1="316.1563" x2="316.1563" y1="1046.1528" y2="1089.2617"/><line style="stroke:#181818;stroke-width:0.5;stroke-dasharray:5.0,5.0;" x1="316.1563" x2="316.1563" y1="1089.2617" y2="1569.3188"/><line style="stroke:#181818;stroke-width:0.5;stroke-dasharray:5.0,5.0;" x1="407.1563" x2="407.1563" y1="113.7974" y2="1046.1528"/><line style="stroke:#A80036;stroke-width:1.0;stroke-dasharray:1.0,4.0;" x1="407.1563" x2="407.1563" y1="1046.1528" y2="1089.2617"/><line style="stroke:#181818;stroke-width:0.5;stroke-dasharray:5.0,5.0;" x1="407.1563" x2="407.1563" y1="1089.2617" y2="1569.3188"/><line style="stroke:#181818;stroke-width:0.5;stroke-dasharray:5.0,5.0;" x1="666.1563" x2="666.1563" y1="113.7974" y2="1046.1528"/><line style="stroke:#A80036;stroke-width:1.0;stroke-dasharray:1.0,4.0;" x1="666.1563" x2="666.1563" y1="1046.1528" y2="1089.2617"/><line style="stroke:#181818;stroke-width:0.5;stroke-dasharray:5.0,5.0;" x1="666.1563" x2="666.1563" y1="1089.2617" y2="1569.3188"/><rect fill="#E2E2F0" height="52.459" rx="2.5" ry="2.5" style="stroke:#181818;stroke-width:0.5;" width="57.3125" x="20" y="60.3384"/><text fill="#000000" font-family="sans-serif" font-size="14" font-style="italic" lengthAdjust="spacing" textLength="41" x="28.1563" y="83.4917">&#171;App&#187;</text><text fill="#000000" font-family="sans-serif" font-size="14" font-weight="bold" lengthAdjust="spacing" textLength="43.3125" x="27" y="102.7212">&#51064;&#44032;&#50545;</text><rect fill="#E2E2F0" height="52.459" rx="2.5" ry="2.5" style="stroke:#181818;stroke-width:0.5;" width="57.3125" x="20" y="1568.3188"/><text fill="#000000" font-family="sans-serif" font-size="14" font-style="italic" lengthAdjust="spacing" textLength="41" x="28.1563" y="1591.4722">&#171;App&#187;</text><text fill="#000000" font-family="sans-serif" font-size="14" font-weight="bold" lengthAdjust="spacing" textLength="43.3125" x="27" y="1610.7017">&#51064;&#44032;&#50545;</text><rect fill="#E2E2F0" height="52.459" rx="2.5" ry="2.5" style="stroke:#181818;stroke-width:0.5;" width="71" x="281.1563" y="60.3384"/><text fill="#000000" font-family="sans-serif" font-size="14" font-style="italic" lengthAdjust="spacing" textLength="57" x="288.1563" y="83.4917">&#171;Server&#187;</text><text fill="#000000" font-family="sans-serif" font-size="14" font-weight="bold" lengthAdjust="spacing" textLength="26" x="303.6563" y="102.7212">TAS</text><rect fill="#E2E2F0" height="52.459" rx="2.5" ry="2.5" style="stroke:#181818;stroke-width:0.5;" width="71" x="281.1563" y="1568.3188"/><text fill="#000000" font-family="sans-serif" font-size="14" font-style="italic" lengthAdjust="spacing" textLength="57" x="288.1563" y="1591.4722">&#171;Server&#187;</text><text fill="#000000" font-family="sans-serif" font-size="14" font-weight="bold" lengthAdjust="spacing" textLength="26" x="303.6563" y="1610.7017">TAS</text><rect fill="#E2E2F0" height="52.459" rx="2.5" ry="2.5" style="stroke:#181818;stroke-width:0.5;" width="90.1875" x="362.1563" y="60.3384"/><text fill="#000000" font-family="sans-serif" font-size="14" font-style="italic" lengthAdjust="spacing" textLength="57" x="378.75" y="83.4917">&#171;Server&#187;</text><text fill="#000000" font-family="sans-serif" font-size="14" font-weight="bold" lengthAdjust="spacing" textLength="76.1875" x="369.1563" y="102.7212">&#48156;&#44553; &#49324;&#50629;&#51088;</text><rect fill="#E2E2F0" height="52.459" rx="2.5" ry="2.5" style="stroke:#181818;stroke-width:0.5;" width="90.1875" x="362.1563" y="1568.3188"/><text fill="#000000" font-family="sans-serif" font-size="14" font-style="italic" lengthAdjust="spacing" textLength="57" x="378.75" y="1591.4722">&#171;Server&#187;</text><text fill="#000000" font-family="sans-serif" font-size="14" font-weight="bold" lengthAdjust="spacing" textLength="76.1875" x="369.1563" y="1610.7017">&#48156;&#44553; &#49324;&#50629;&#51088;</text><rect fill="#E2E2F0" height="52.459" rx="2.5" ry="2.5" style="stroke:#181818;stroke-width:0.5;" width="90.1875" x="621.1563" y="60.3384"/><text fill="#000000" font-family="sans-serif" font-size="14" font-style="italic" lengthAdjust="spacing" textLength="57" x="637.75" y="83.4917">&#171;Server&#187;</text><text fill="#000000" font-family="sans-serif" font-size="14" font-weight="bold" lengthAdjust="spacing" textLength="76.1875" x="628.1563" y="102.7212">&#50508;&#47548; &#49324;&#50629;&#51088;</text><rect fill="#E2E2F0" height="52.459" rx="2.5" ry="2.5" style="stroke:#181818;stroke-width:0.5;" width="90.1875" x="621.1563" y="1568.3188"/><text fill="#000000" font-family="sans-serif" font-size="14" font-style="italic" lengthAdjust="spacing" textLength="57" x="637.75" y="1591.4722">&#171;Server&#187;</text><text fill="#000000" font-family="sans-serif" font-size="14" font-weight="bold" lengthAdjust="spacing" textLength="76.1875" x="628.1563" y="1610.7017">&#50508;&#47548; &#49324;&#50629;&#51088;</text><rect fill="#FFFFFF" height="395.2363" style="stroke:#181818;stroke-width:1.0;" width="10" x="43.6563" y="1165.0825"/><rect fill="#FFFFFF" height="46.856" style="stroke:#181818;stroke-width:1.0;" width="10" x="311.6563" y="1513.4629"/><rect fill="#FFFFFF" height="897.3555" style="stroke:#181818;stroke-width:1.0;" width="10" x="402.25" y="123.7974"/><rect fill="#FFFFFF" height="63.7119" style="stroke:#181818;stroke-width:1.0;" width="10" x="661.25" y="739.3403"/><rect fill="#FFFFFF" height="63.7119" style="stroke:#181818;stroke-width:1.0;" width="10" x="661.25" y="942.4409"/><rect fill="#FEFFDD" height="132" style="stroke:#181818;stroke-width:0.5;" width="207" x="303" y="128.7974"/><text fill="#000000" font-family="sans-serif" font-size="13" font-weight="bold" lengthAdjust="spacing" textLength="162.0625" x="307" y="147.7969">[&#49324;&#51204; &#54869;&#48372; &#51221;&#48372; (&#49324;&#50857;&#51088;&#48324;)]</text><line style="stroke:#181818;stroke-width:1.0;" x1="303" x2="389.5" y1="159.5813" y2="159.5813"/><text fill="#000000" font-family="sans-serif" font-size="13" lengthAdjust="spacing" textLength="26" x="393.5" y="165.1528">&#54596;&#49688;</text><line style="stroke:#181818;stroke-width:1.0;" x1="423.5" x2="510" y1="159.5813" y2="159.5813"/><ellipse cx="312.5" cy="178.8652" fill="#000000" rx="2.5" ry="2.5" style="stroke:#000000;stroke-width:0.0;"/><text fill="#000000" font-family="sans-serif" font-size="13" lengthAdjust="spacing" textLength="176" x="319" y="183.5088">userId = &#51060;&#49800;&#50612;&#52769; &#49324;&#50857;&#51088; &#44228;&#51221;</text><ellipse cx="312.5" cy="196.7212" fill="#000000" rx="2.5" ry="2.5" style="stroke:#000000;stroke-width:0.0;"/><text fill="#000000" font-family="sans-serif" font-size="13" lengthAdjust="spacing" textLength="186" x="319" y="201.3647">userEmail = &#49324;&#50857;&#51088; &#51060;&#47700;&#51068; &#51452;&#49548;</text><line style="stroke:#181818;stroke-width:1.0;" x1="303" x2="389.5" y1="213.1492" y2="213.1492"/><text fill="#000000" font-family="sans-serif" font-size="13" lengthAdjust="spacing" textLength="26" x="393.5" y="218.7207">&#49440;&#53469;</text><line style="stroke:#181818;stroke-width:1.0;" x1="423.5" x2="510" y1="213.1492" y2="213.1492"/><ellipse cx="312.5" cy="232.4331" fill="#000000" rx="2.5" ry="2.5" style="stroke:#000000;stroke-width:0.0;"/><text fill="#000000" font-family="sans-serif" font-size="13" lengthAdjust="spacing" textLength="134" x="319" y="237.0767">holderDid = &#49324;&#50857;&#51088; DID</text><ellipse cx="312.5" cy="250.2891" fill="#000000" rx="2.5" ry="2.5" style="stroke:#000000;stroke-width:0.0;"/><text fill="#000000" font-family="sans-serif" font-size="13" lengthAdjust="spacing" textLength="187" x="319" y="254.9326">userMobile = &#49324;&#50857;&#51088; &#55092;&#45824;&#54256;&#48264;&#54840;</text><rect fill="#EEEEEE" height="3" style="stroke:#EEEEEE;stroke-width:1.0;" width="911.25" x="0" y="288.717"/><line style="stroke:#000000;stroke-width:1.0;" x1="0" x2="911.25" y1="288.717" y2="288.717"/><line style="stroke:#000000;stroke-width:1.0;" x1="0" x2="911.25" y1="291.717" y2="291.717"/><rect fill="#EEEEEE" height="25.856" style="stroke:#000000;stroke-width:2.0;" width="96.625" x="407.3125" y="276.7891"/><text fill="#000000" font-family="sans-serif" font-size="13" font-weight="bold" lengthAdjust="spacing" textLength="78.625" x="413.3125" y="295.7886">(C) &#44060;&#49884; &#45800;&#44228;</text><line style="stroke:#181818;stroke-width:1.0;" x1="412.25" x2="454.25" y1="407.9248" y2="407.9248"/><line style="stroke:#181818;stroke-width:1.0;" x1="454.25" x2="454.25" y1="407.9248" y2="420.9248"/><line style="stroke:#181818;stroke-width:1.0;" x1="413.25" x2="454.25" y1="420.9248" y2="420.9248"/><polygon fill="#181818" points="423.25,416.9248,413.25,420.9248,423.25,424.9248,419.25,420.9248" style="stroke:#181818;stroke-width:1.0;"/><text fill="#000000" font-family="sans-serif" font-size="13" font-weight="bold" lengthAdjust="spacing" textLength="15" x="419.25" y="367.3564">(1)</text><text fill="#000000" font-family="sans-serif" font-size="13" lengthAdjust="spacing" textLength="87" x="438.25" y="331.6445">&#48156;&#44553; Offer &#49373;&#49457;</text><ellipse cx="443.75" cy="344.8569" fill="#000000" rx="2.5" ry="2.5" style="stroke:#000000;stroke-width:0.0;"/><text fill="#000000" font-family="sans-serif" font-size="13" lengthAdjust="spacing" textLength="120" x="450.25" y="349.5005">offerId = Offer &#49885;&#48324;&#51088;</text><ellipse cx="443.75" cy="362.7129" fill="#000000" rx="2.5" ry="2.5" style="stroke:#000000;stroke-width:0.0;"/><text fill="#000000" font-family="sans-serif" font-size="13" lengthAdjust="spacing" textLength="126" x="450.25" y="367.3564">vcPlanId = VC Plan id</text><ellipse cx="443.75" cy="380.5688" fill="#000000" rx="2.5" ry="2.5" style="stroke:#000000;stroke-width:0.0;"/><text fill="#000000" font-family="sans-serif" font-size="13" lengthAdjust="spacing" textLength="145" x="450.25" y="385.2124">issuer = &#48156;&#44553; &#49324;&#50629;&#51088; DID</text><ellipse cx="443.75" cy="398.4248" fill="#000000" rx="2.5" ry="2.5" style="stroke:#000000;stroke-width:0.0;"/><text fill="#000000" font-family="sans-serif" font-size="13" lengthAdjust="spacing" textLength="149" x="450.25" y="403.0684">validUntil = &#50976;&#54952;&#44592;&#54620; &#49444;&#51221;</text><line style="stroke:#181818;stroke-width:1.0;" x1="412.25" x2="454.25" y1="470.6367" y2="470.6367"/><line style="stroke:#181818;stroke-width:1.0;" x1="454.25" x2="454.25" y1="470.6367" y2="483.6367"/><line style="stroke:#181818;stroke-width:1.0;" x1="413.25" x2="454.25" y1="483.6367" y2="483.6367"/><polygon fill="#181818" points="423.25,479.6367,413.25,483.6367,423.25,487.6367,419.25,483.6367" style="stroke:#181818;stroke-width:1.0;"/><text fill="#000000" font-family="sans-serif" font-size="13" font-weight="bold" lengthAdjust="spacing" textLength="15" x="419.25" y="456.8523">(2)</text><text fill="#000000" font-family="sans-serif" font-size="13" lengthAdjust="spacing" textLength="116" x="438.25" y="447.9243">Offer vs &#49324;&#50857;&#51088; &#47588;&#54609;</text><ellipse cx="443.75" cy="461.1367" fill="#000000" rx="2.5" ry="2.5" style="stroke:#000000;stroke-width:0.0;"/><text fill="#000000" font-family="sans-serif" font-size="13" lengthAdjust="spacing" textLength="85" x="450.25" y="465.7803">offerId ~ userId</text><line style="stroke:#181818;stroke-width:1.0;" x1="412.25" x2="454.25" y1="551.2046" y2="551.2046"/><line style="stroke:#181818;stroke-width:1.0;" x1="454.25" x2="454.25" y1="551.2046" y2="564.2046"/><line style="stroke:#181818;stroke-width:1.0;" x1="413.25" x2="454.25" y1="564.2046" y2="564.2046"/><polygon fill="#181818" points="423.25,560.2046,413.25,564.2046,423.25,568.2046,419.25,564.2046" style="stroke:#181818;stroke-width:1.0;"/><text fill="#000000" font-family="sans-serif" font-size="13" font-weight="bold" lengthAdjust="spacing" textLength="15" x="419.25" y="528.4922">(3)</text><text fill="#000000" font-family="sans-serif" font-size="13" lengthAdjust="spacing" textLength="108" x="438.25" y="510.6362">Offer Payload &#49373;&#49457;</text><ellipse cx="443.75" cy="523.8486" fill="#000000" rx="2.5" ry="2.5" style="stroke:#000000;stroke-width:0.0;"/><text fill="#000000" font-family="sans-serif" font-size="13" lengthAdjust="spacing" textLength="158" x="450.25" y="528.4922">(IssueOfferPayload)payload</text><text fill="#000000" font-family="sans-serif" font-size="13" lengthAdjust="spacing" textLength="212" x="442.25" y="546.3481">= {offerId, vcPlanId, issuer, validUntil}</text><line style="stroke:#181818;stroke-width:1.0;" x1="412.25" x2="454.25" y1="613.9165" y2="613.9165"/><line style="stroke:#181818;stroke-width:1.0;" x1="454.25" x2="454.25" y1="613.9165" y2="626.9165"/><line style="stroke:#181818;stroke-width:1.0;" x1="413.25" x2="454.25" y1="626.9165" y2="626.9165"/><polygon fill="#181818" points="423.25,622.9165,413.25,626.9165,423.25,630.9165,419.25,626.9165" style="stroke:#181818;stroke-width:1.0;"/><text fill="#000000" font-family="sans-serif" font-size="13" font-weight="bold" lengthAdjust="spacing" textLength="15" x="419.25" y="600.1321">(4)</text><text fill="#000000" font-family="sans-serif" font-size="13" lengthAdjust="spacing" textLength="110" x="438.25" y="591.2041">Offer QR &#53076;&#46300; &#49373;&#49457;</text><ellipse cx="443.75" cy="604.4165" fill="#000000" rx="2.5" ry="2.5" style="stroke:#000000;stroke-width:0.0;"/><text fill="#000000" font-family="sans-serif" font-size="13" lengthAdjust="spacing" textLength="118" x="450.25" y="609.0601">qr = GenQr(payload)</text><path d="M592,589.6326 L592,616.6326 L780,616.6326 L780,599.6326 L770,589.6326 L592,589.6326 " fill="#FEFFDD" style="stroke:#181818;stroke-width:0.5;"/><path d="M770,589.6326 L770,599.6326 L780,599.6326 L770,589.6326 " fill="#FEFFDD" style="stroke:#181818;stroke-width:0.5;"/><text fill="#000000" font-family="sans-serif" font-size="13" lengthAdjust="spacing" textLength="167" x="598" y="609.6321">QR &#53076;&#46300; &#54805;&#49885;&#51008; out of scope</text><line style="stroke:#181818;stroke-width:1.0;" x1="412.25" x2="454.25" y1="676.6284" y2="676.6284"/><line style="stroke:#181818;stroke-width:1.0;" x1="454.25" x2="454.25" y1="676.6284" y2="689.6284"/><line style="stroke:#181818;stroke-width:1.0;" x1="413.25" x2="454.25" y1="689.6284" y2="689.6284"/><polygon fill="#181818" points="423.25,685.6284,413.25,689.6284,423.25,693.6284,419.25,689.6284" style="stroke:#181818;stroke-width:1.0;"/><text fill="#000000" font-family="sans-serif" font-size="13" font-weight="bold" lengthAdjust="spacing" textLength="15" x="419.25" y="662.844">(5)</text><text fill="#000000" font-family="sans-serif" font-size="13" lengthAdjust="spacing" textLength="112" x="438.25" y="653.916">&#51060;&#47700;&#51068; &#47700;&#49884;&#51648; &#49373;&#49457;</text><ellipse cx="443.75" cy="667.1284" fill="#000000" rx="2.5" ry="2.5" style="stroke:#000000;stroke-width:0.0;"/><text fill="#000000" font-family="sans-serif" font-size="13" lengthAdjust="spacing" textLength="173" x="450.25" y="671.772">emailMsg = GenEmailMsg(qr)</text><path d="M635,652.3445 L635,679.3445 L856,679.3445 L856,662.3445 L846,652.3445 L635,652.3445 " fill="#FEFFDD" style="stroke:#181818;stroke-width:0.5;"/><path d="M846,652.3445 L846,662.3445 L856,662.3445 L846,652.3445 " fill="#FEFFDD" style="stroke:#181818;stroke-width:0.5;"/><text fill="#000000" font-family="sans-serif" font-size="13" lengthAdjust="spacing" textLength="200" x="641" y="672.344">&#51060;&#47700;&#51068; &#47700;&#49884;&#51648; &#54805;&#49885;&#51008; out of scope</text><polygon fill="#181818" points="649.25,735.3403,659.25,739.3403,649.25,743.3403,653.25,739.3403" style="stroke:#181818;stroke-width:1.0;"/><line style="stroke:#181818;stroke-width:1.0;" x1="412.25" x2="655.25" y1="739.3403" y2="739.3403"/><text fill="#000000" font-family="sans-serif" font-size="13" font-weight="bold" lengthAdjust="spacing" textLength="15" x="419.25" y="725.5559">(6)</text><text fill="#000000" font-family="sans-serif" font-size="13" lengthAdjust="spacing" textLength="99" x="438.25" y="716.6279">&#51060;&#47700;&#51068; &#48156;&#49569; &#50836;&#52397;</text><text fill="#000000" font-family="sans-serif" font-size="13" lengthAdjust="spacing" textLength="130" x="438.25" y="734.4839">{userEmail, emailMsg}</text><polygon fill="#0000FF" points="899.25,767.1963,909.25,771.1963,899.25,771.1963" style="stroke:#0000FF;stroke-width:1.0;"/><line style="stroke:#0000FF;stroke-width:1.0;stroke-dasharray:2.0,2.0;" x1="671.25" x2="910.25" y1="771.1963" y2="771.1963"/><text fill="#000000" font-family="sans-serif" font-size="13" font-weight="bold" lengthAdjust="spacing" textLength="15" x="678.25" y="766.3398">(7)</text><text fill="#000000" font-family="sans-serif" font-size="13" lengthAdjust="spacing" textLength="146" x="697.25" y="766.3398">&#51060;&#47700;&#51068; &#48156;&#49569; to userEmail</text><polygon fill="#181818" points="423.25,799.0522,413.25,803.0522,423.25,807.0522,419.25,803.0522" style="stroke:#181818;stroke-width:1.0;"/><line style="stroke:#181818;stroke-width:1.0;stroke-dasharray:2.0,2.0;" x1="417.25" x2="665.25" y1="803.0522" y2="803.0522"/><text fill="#000000" font-family="sans-serif" font-size="13" font-weight="bold" lengthAdjust="spacing" textLength="15" x="429.25" y="798.1958">(8)</text><text fill="#000000" font-family="sans-serif" font-size="13" lengthAdjust="spacing" textLength="26" x="448.25" y="798.1958">&#51025;&#45813;</text><path d="M352.1563,818.0522 L417.1563,818.0522 L417.1563,827.9082 L407.1563,837.9082 L352.1563,837.9082 L352.1563,818.0522 " fill="#EEEEEE" style="stroke:#000000;stroke-width:1.5;"/><rect fill="none" height="196.1006" style="stroke:#000000;stroke-width:1.5;" width="549.0938" x="352.1563" y="818.0522"/><text fill="#000000" font-family="sans-serif" font-size="13" font-weight="bold" lengthAdjust="spacing" textLength="20" x="367.1563" y="834.0518">opt</text><text fill="#000000" font-family="sans-serif" font-size="11" font-weight="bold" lengthAdjust="spacing" textLength="101.0313" x="432.1563" y="832.7441">[holderDid &#54869;&#48372; &#49884;]</text><line style="stroke:#181818;stroke-width:1.0;" x1="412.25" x2="454.25" y1="879.729" y2="879.729"/><line style="stroke:#181818;stroke-width:1.0;" x1="454.25" x2="454.25" y1="879.729" y2="892.729"/><line style="stroke:#181818;stroke-width:1.0;" x1="413.25" x2="454.25" y1="892.729" y2="892.729"/><polygon fill="#181818" points="423.25,888.729,413.25,892.729,423.25,896.729,419.25,892.729" style="stroke:#181818;stroke-width:1.0;"/><text fill="#000000" font-family="sans-serif" font-size="13" font-weight="bold" lengthAdjust="spacing" textLength="15" x="419.25" y="865.9446">(9)</text><text fill="#000000" font-family="sans-serif" font-size="13" lengthAdjust="spacing" textLength="109" x="438.25" y="857.0166">PUSH &#47700;&#49884;&#51648; &#49373;&#49457;</text><ellipse cx="443.75" cy="870.229" fill="#000000" rx="2.5" ry="2.5" style="stroke:#000000;stroke-width:0.0;"/><text fill="#000000" font-family="sans-serif" font-size="13" lengthAdjust="spacing" textLength="201" x="450.25" y="874.8726">pushMsg = GenPushMsg(payload)</text><path d="M663,855.4451 L663,882.4451 L881,882.4451 L881,865.4451 L871,855.4451 L663,855.4451 " fill="#FEFFDD" style="stroke:#181818;stroke-width:0.5;"/><path d="M871,855.4451 L871,865.4451 L881,865.4451 L871,855.4451 " fill="#FEFFDD" style="stroke:#181818;stroke-width:0.5;"/><text fill="#000000" font-family="sans-serif" font-size="13" lengthAdjust="spacing" textLength="197" x="669" y="875.4446">PUSH &#47700;&#49884;&#51648; &#54805;&#49885;&#51008; out of scope</text><polygon fill="#181818" points="649.25,938.4409,659.25,942.4409,649.25,946.4409,653.25,942.4409" style="stroke:#181818;stroke-width:1.0;"/><line style="stroke:#181818;stroke-width:1.0;" x1="412.25" x2="655.25" y1="942.4409" y2="942.4409"/><text fill="#000000" font-family="sans-serif" font-size="13" font-weight="bold" lengthAdjust="spacing" textLength="22" x="419.25" y="928.6565">(10)</text><text fill="#000000" font-family="sans-serif" font-size="13" lengthAdjust="spacing" textLength="96" x="445.25" y="919.7285">PUSH &#48156;&#49569; &#50836;&#52397;</text><text fill="#000000" font-family="sans-serif" font-size="13" lengthAdjust="spacing" textLength="123" x="445.25" y="937.5845">{holderDid, pushMsg}</text><polygon fill="#0000FF" points="899.25,970.2969,909.25,974.2969,899.25,974.2969" style="stroke:#0000FF;stroke-width:1.0;"/><line style="stroke:#0000FF;stroke-width:1.0;stroke-dasharray:2.0,2.0;" x1="671.25" x2="910.25" y1="974.2969" y2="974.2969"/><text fill="#000000" font-family="sans-serif" font-size="13" font-weight="bold" lengthAdjust="spacing" textLength="22" x="678.25" y="969.4404">(11)</text><text fill="#000000" font-family="sans-serif" font-size="13" lengthAdjust="spacing" textLength="139" x="704.25" y="969.4404">PUSH &#48156;&#49569; to holderDid</text><polygon fill="#181818" points="423.25,1002.1528,413.25,1006.1528,423.25,1010.1528,419.25,1006.1528" style="stroke:#181818;stroke-width:1.0;"/><line style="stroke:#181818;stroke-width:1.0;stroke-dasharray:2.0,2.0;" x1="417.25" x2="665.25" y1="1006.1528" y2="1006.1528"/><text fill="#000000" font-family="sans-serif" font-size="13" font-weight="bold" lengthAdjust="spacing" textLength="22" x="429.25" y="1001.2964">(12)</text><text fill="#000000" font-family="sans-serif" font-size="13" lengthAdjust="spacing" textLength="4" x="455.25" y="1001.2964">&#160;</text><text fill="#000000" font-family="sans-serif" font-size="11" lengthAdjust="spacing" textLength="99" x="307.9531" y="1072.8447">a few moments later</text><path d="M10,1121.2617 L71,1121.2617 L71,1131.1177 L61,1141.1177 L10,1141.1177 L10,1121.2617 " fill="#EEEEEE" style="stroke:#000000;stroke-width:1.5;"/><rect fill="none" height="226.2095" style="stroke:#000000;stroke-width:1.5;" width="236.6563" x="10" y="1121.2617"/><text fill="#000000" font-family="sans-serif" font-size="13" font-weight="bold" lengthAdjust="spacing" textLength="16" x="25" y="1137.2612">alt</text><text fill="#000000" font-family="sans-serif" font-size="11" font-weight="bold" lengthAdjust="spacing" textLength="82.0625" x="86" y="1135.9536">[&#51060;&#47700;&#51068; &#49688;&#49888; &#49884;]</text><polygon fill="#0000FF" points="64.6563,1166.0825,54.6563,1166.0825,64.6563,1170.0825" style="stroke:#0000FF;stroke-width:1.0;"/><line style="stroke:#0000FF;stroke-width:1.0;stroke-dasharray:2.0,2.0;" x1="53.6563" x2="181.6563" y1="1165.0825" y2="1165.0825"/><text fill="#000000" font-family="sans-serif" font-size="13" font-weight="bold" lengthAdjust="spacing" textLength="22" x="70.6563" y="1160.2261">(13)</text><text fill="#000000" font-family="sans-serif" font-size="13" lengthAdjust="spacing" textLength="79" x="96.6563" y="1160.2261">QR &#53076;&#46300; &#49828;&#52884;</text><line style="stroke:#181818;stroke-width:1.0;" x1="53.6563" x2="95.6563" y1="1214.7944" y2="1214.7944"/><line style="stroke:#181818;stroke-width:1.0;" x1="95.6563" x2="95.6563" y1="1214.7944" y2="1227.7944"/><line style="stroke:#181818;stroke-width:1.0;" x1="54.6563" x2="95.6563" y1="1227.7944" y2="1227.7944"/><polygon fill="#181818" points="64.6563,1223.7944,54.6563,1227.7944,64.6563,1231.7944,60.6563,1227.7944" style="stroke:#181818;stroke-width:1.0;"/><text fill="#000000" font-family="sans-serif" font-size="13" font-weight="bold" lengthAdjust="spacing" textLength="22" x="60.6563" y="1201.01">(14)</text><text fill="#000000" font-family="sans-serif" font-size="13" lengthAdjust="spacing" textLength="92" x="86.6563" y="1192.082">QR &#47700;&#49884;&#51648; &#54028;&#49905;</text><ellipse cx="92.1563" cy="1205.2944" fill="#000000" rx="2.5" ry="2.5" style="stroke:#000000;stroke-width:0.0;"/><text fill="#000000" font-family="sans-serif" font-size="13" lengthAdjust="spacing" textLength="136" x="98.6563" y="1209.938">payload = payload &#51069;&#44592;</text><line style="stroke:#000000;stroke-width:1.0;stroke-dasharray:2.0,2.0;" x1="10" x2="246.6563" y1="1236.7944" y2="1236.7944"/><text fill="#000000" font-family="sans-serif" font-size="11" font-weight="bold" lengthAdjust="spacing" textLength="76.0313" x="15" y="1249.4863">[PUSH &#49688;&#49888; &#49884;]</text><polygon fill="#0000FF" points="64.6563,1277.7593,54.6563,1277.7593,64.6563,1281.7593" style="stroke:#0000FF;stroke-width:1.0;"/><line style="stroke:#0000FF;stroke-width:1.0;stroke-dasharray:2.0,2.0;" x1="53.6563" x2="211.6563" y1="1276.7593" y2="1276.7593"/><text fill="#000000" font-family="sans-serif" font-size="13" font-weight="bold" lengthAdjust="spacing" textLength="22" x="70.6563" y="1271.9028">(15)</text><text fill="#000000" font-family="sans-serif" font-size="13" lengthAdjust="spacing" textLength="109" x="96.6563" y="1271.9028">PUSH &#47700;&#49884;&#51648; &#49688;&#49888;</text><line style="stroke:#181818;stroke-width:1.0;" x1="53.6563" x2="95.6563" y1="1326.4712" y2="1326.4712"/><line style="stroke:#181818;stroke-width:1.0;" x1="95.6563" x2="95.6563" y1="1326.4712" y2="1339.4712"/><line style="stroke:#181818;stroke-width:1.0;" x1="54.6563" x2="95.6563" y1="1339.4712" y2="1339.4712"/><polygon fill="#181818" points="64.6563,1335.4712,54.6563,1339.4712,64.6563,1343.4712,60.6563,1339.4712" style="stroke:#181818;stroke-width:1.0;"/><text fill="#000000" font-family="sans-serif" font-size="13" font-weight="bold" lengthAdjust="spacing" textLength="22" x="60.6563" y="1312.6868">(16)</text><text fill="#000000" font-family="sans-serif" font-size="13" lengthAdjust="spacing" textLength="109" x="86.6563" y="1303.7588">PUSH &#47700;&#49884;&#51648; &#54028;&#49905;</text><ellipse cx="92.1563" cy="1316.9712" fill="#000000" rx="2.5" ry="2.5" style="stroke:#000000;stroke-width:0.0;"/><text fill="#000000" font-family="sans-serif" font-size="13" lengthAdjust="spacing" textLength="136" x="98.6563" y="1321.6147">payload = payload &#51069;&#44592;</text><rect fill="#EEEEEE" height="3" style="stroke:#EEEEEE;stroke-width:1.0;" width="911.25" x="0" y="1376.3992"/><line style="stroke:#000000;stroke-width:1.0;" x1="0" x2="911.25" y1="1376.3992" y2="1376.3992"/><line style="stroke:#000000;stroke-width:1.0;" x1="0" x2="911.25" y1="1379.3992" y2="1379.3992"/><rect fill="#EEEEEE" height="25.856" style="stroke:#000000;stroke-width:2.0;" width="96.625" x="407.3125" y="1364.4712"/><text fill="#000000" font-family="sans-serif" font-size="13" font-weight="bold" lengthAdjust="spacing" textLength="78.625" x="413.3125" y="1383.4707">(D) &#48156;&#44553; &#45800;&#44228;</text><polygon fill="#181818" points="299.6563,1509.4629,309.6563,1513.4629,299.6563,1517.4629,303.6563,1513.4629" style="stroke:#181818;stroke-width:1.0;"/><line style="stroke:#181818;stroke-width:1.0;" x1="53.6563" x2="305.6563" y1="1513.4629" y2="1513.4629"/><text fill="#000000" font-family="sans-serif" font-size="13" font-weight="bold" lengthAdjust="spacing" textLength="22" x="60.6563" y="1463.9666">(17)</text><text fill="#000000" font-family="sans-serif" font-size="13" lengthAdjust="spacing" textLength="110" x="86.6563" y="1419.3267">D1. &#48156;&#44553; &#49884;&#51089; &#50836;&#52397;</text><text fill="#000000" font-family="sans-serif" font-size="13" lengthAdjust="spacing" textLength="4" x="86.6563" y="1437.1826">{</text><text fill="#000000" font-family="sans-serif" font-size="13" lengthAdjust="spacing" textLength="165" x="102.6563" y="1455.0386">vcPlanId = payload.vcPlanId,</text><text fill="#000000" font-family="sans-serif" font-size="13" lengthAdjust="spacing" textLength="139" x="102.6563" y="1472.8945">issuer = payload.issuer,</text><text fill="#000000" font-family="sans-serif" font-size="13" lengthAdjust="spacing" textLength="16" x="86.6563" y="1490.7505">&#160;&#160;&#160;&#160;</text><text fill="#000000" font-family="sans-serif" font-size="13" font-weight="bold" lengthAdjust="spacing" textLength="41" x="102.6563" y="1490.7505">offerId</text><text fill="#000000" font-family="sans-serif" font-size="13" lengthAdjust="spacing" textLength="95" x="147.6563" y="1490.7505">= payload.offerId</text><text fill="#000000" font-family="sans-serif" font-size="13" lengthAdjust="spacing" textLength="4" x="86.6563" y="1508.6064">}</text><path d="M19,1526.4629 L19,1553.4629 L346,1553.4629 L346,1536.4629 L336,1526.4629 L19,1526.4629 " fill="#FEFFDD" style="stroke:#181818;stroke-width:0.5;"/><path d="M336,1526.4629 L336,1536.4629 L346,1536.4629 L336,1526.4629 " fill="#FEFFDD" style="stroke:#181818;stroke-width:0.5;"/><text fill="#000000" font-family="sans-serif" font-size="13" lengthAdjust="spacing" textLength="56" x="150.0781" y="1546.4624">&#51060;&#54616; &#49373;&#47029;</text><!--SRC=[ZLLTRzis57qUVmMHFinMRHSRi9V0zj3LnPQ7OkcozgNfWs8pZG15SYNQmvPa25Qlo6e3RT2uzG8fyB1WRO4DS9eKC8Rs3rdKVzWbHL7qHuC9C4n9vznpx-7b5RMeJT0dPT_wYIn__aMLXHVioG5xSS5UFiCi7CJz04UZO3B-3Kz60Ui6vMiSMaN4QM0goCXiKTTfRMyG3o-LDwgvA_dojOtg4aAVcdNgmaF3OB_ypOxVi9DdXh64JH-tVEAXfkbHgsurJOSAJ3YUZFPP_qnYwYOkbwytczNgBFBxwsiIG-5NBgyHhqsyUPnCd8k__3KJRszUmc7zNlJN-pcEur9BPo4FdX3imXt4GnWkmxZ7MSCEZd_lH-SNc0t5NquL7vrtylSDGw2BHHptE-nW0Ak4BanPQU0ApZPX_0TMR3mvxq183NnpsxHiZbSGO4PlZbW81VpvdZtkfLAiCumVXPdKbcitY5Up6bFisafDYtxBtR1iCWM8Wukejny_7KLl3-B1M3I1C0AXIWNdRkHba-2e-ngonPKAT4UTMcqJl0ARmFbY5HRBQKzzkxa91h978UkSONcjEmPs-NFXXKHqGp2Ffw21slLLstG4wkuDpDSO2j80bk-tW5p1iut0AvsAPDfMuuv34pU3ONpyUZ8UyTvddLFkUPPuaa_Rrro9Nft6_SD5wVyiztIElsh-QBjcOq7bkHMUj419KBufmGe5IUv8YO9oeI3BBMZLxCq9t_uEimz7qVDWWVH3RjNNnBdjvQHa7eakzwm7MtHPuyQ3Fkm82_Unsw9GBVRhRXEQ85FB6f7_TGFsQd-18k4DVCj_aEZUb7UvXzwqyA9WbwSWZklLgrDKwCp7S9oEZzZRVzQT7NM02YgDFT7zWbkyT-KhkqNk5zVnWY3KpSuVyWXjUGw03gFkEuJS9jMELpeAke68dHcqUcVjcuzwa_hJRFbRofxLv2RR6vciicacvCSSol9GBYNC6ODK4OKqZyIVnHxf8S0UHHQKn28-Bb23w0C1xUxkebAfPE9DyWFUThU9GtrimriFdegtoBIfFjSE1gmxL8R2Hs9TvV6bA4PhyIUdxD-Z50S5rqtnMlEersFTCs6rF6GLjMBX1nW2YDW-IQgxN7f-ImLyHdrsZ_w7FfWcfcijdyunRRecaVbda9TU-woaPXq8d1pAtSnwQaUR8hmFiX4gPKlPF9b2gbcQuj9fCuKo33cN34E3fkDGGVTGzlMicmMUlpXbSN_0Jq9qyku_]--></g></svg>