<?xml version="1.0" encoding="us-ascii" standalone="no"?><svg xmlns="http://www.w3.org/2000/svg" xmlns:xlink="http://www.w3.org/1999/xlink" contentStyleType="text/css" height="782px" preserveAspectRatio="none" style="width:882px;height:782px;background:#FFFFFF;" version="1.1" viewBox="0 0 882 782" width="882px" zoomAndPan="magnify"><defs/><g><text fill="#000000" font-family="sans-serif" font-size="25" font-weight="bold" lengthAdjust="spacing" textLength="669" x="102.75" y="39.1699">[Example 1] Verify Offer - Dynamic QR, Direct Mode</text><rect fill="#F0FFFF" height="720.0957" style="stroke:#181818;stroke-width:0.5;" width="275" x="205.5" y="56.4434"/><text fill="#000000" font-family="sans-serif" font-size="13" font-weight="bold" lengthAdjust="spacing" textLength="265" x="208.5" y="69.0117">Service Device (Customer Service Desk)</text><rect fill="#FFFFFF" height="219.1738" style="stroke:#181818;stroke-width:1.0;" width="10" x="29" y="497.3887"/><rect fill="#FFFFFF" height="582.832" style="stroke:#181818;stroke-width:1.0;" width="10" x="245.75" y="133.7305"/><rect fill="#FFFFFF" height="582.832" style="stroke:#181818;stroke-width:1.0;" width="10" x="432.75" y="133.7305"/><rect fill="#FFFFFF" height="117.5527" style="stroke:#181818;stroke-width:1.0;" width="10" x="638.5" y="292.9043"/><rect fill="#FFFFFF" height="44.3105" style="stroke:#181818;stroke-width:1.0;" width="10" x="638.5" y="672.252"/><line style="stroke:#181818;stroke-width:0.5;stroke-dasharray:5.0,5.0;" x1="34" x2="34" y1="123.7305" y2="725.5625"/><line style="stroke:#181818;stroke-width:0.5;stroke-dasharray:5.0,5.0;" x1="250.25" x2="250.25" y1="123.7305" y2="725.5625"/><line style="stroke:#181818;stroke-width:0.5;stroke-dasharray:5.0,5.0;" x1="437.75" x2="437.75" y1="123.7305" y2="725.5625"/><line style="stroke:#181818;stroke-width:0.5;stroke-dasharray:5.0,5.0;" x1="643" x2="643" y1="123.7305" y2="725.5625"/><rect fill="#E2E2F0" height="46.9766" rx="2.5" ry="2.5" style="stroke:#181818;stroke-width:0.5;" width="56" x="6" y="75.7539"/><text fill="#000000" font-family="sans-serif" font-size="14" font-style="italic" lengthAdjust="spacing" textLength="42" x="13" y="96.2891">&#171;App&#187;</text><text fill="#000000" font-family="sans-serif" font-size="14" font-weight="bold" lengthAdjust="spacing" textLength="38" x="15" y="112.7773">CApp</text><rect fill="#E2E2F0" height="46.9766" rx="2.5" ry="2.5" style="stroke:#181818;stroke-width:0.5;" width="56" x="6" y="724.5625"/><text fill="#000000" font-family="sans-serif" font-size="14" font-style="italic" lengthAdjust="spacing" textLength="42" x="13" y="745.0977">&#171;App&#187;</text><text fill="#000000" font-family="sans-serif" font-size="14" font-weight="bold" lengthAdjust="spacing" textLength="38" x="15" y="761.5859">CApp</text><rect fill="#E2E2F0" height="46.9766" rx="2.5" ry="2.5" style="stroke:#181818;stroke-width:0.5;" width="77" x="212.25" y="75.7539"/><text fill="#000000" font-family="sans-serif" font-size="14" font-style="italic" lengthAdjust="spacing" textLength="63" x="219.25" y="96.2891">&#171;Gadget&#187;</text><text fill="#000000" font-family="sans-serif" font-size="14" font-weight="bold" lengthAdjust="spacing" textLength="54" x="223.75" y="112.7773">Display</text><rect fill="#E2E2F0" height="46.9766" rx="2.5" ry="2.5" style="stroke:#181818;stroke-width:0.5;" width="77" x="212.25" y="724.5625"/><text fill="#000000" font-family="sans-serif" font-size="14" font-style="italic" lengthAdjust="spacing" textLength="63" x="219.25" y="745.0977">&#171;Gadget&#187;</text><text fill="#000000" font-family="sans-serif" font-size="14" font-weight="bold" lengthAdjust="spacing" textLength="54" x="223.75" y="761.5859">Display</text><rect fill="#E2E2F0" height="46.9766" rx="2.5" ry="2.5" style="stroke:#181818;stroke-width:0.5;" width="72" x="401.75" y="75.7539"/><text fill="#000000" font-family="sans-serif" font-size="14" font-style="italic" lengthAdjust="spacing" textLength="32" x="421.75" y="96.2891">&#171;PC&#187;</text><text fill="#000000" font-family="sans-serif" font-size="14" font-weight="bold" lengthAdjust="spacing" textLength="58" x="408.75" y="112.7773">Staff PC</text><rect fill="#E2E2F0" height="46.9766" rx="2.5" ry="2.5" style="stroke:#181818;stroke-width:0.5;" width="72" x="401.75" y="724.5625"/><text fill="#000000" font-family="sans-serif" font-size="14" font-style="italic" lengthAdjust="spacing" textLength="32" x="421.75" y="745.0977">&#171;PC&#187;</text><text fill="#000000" font-family="sans-serif" font-size="14" font-weight="bold" lengthAdjust="spacing" textLength="58" x="408.75" y="761.5859">Staff PC</text><rect fill="#E2E2F0" height="46.9766" rx="2.5" ry="2.5" style="stroke:#181818;stroke-width:0.5;" width="71" x="608" y="75.7539"/><text fill="#000000" font-family="sans-serif" font-size="14" font-style="italic" lengthAdjust="spacing" textLength="57" x="615" y="96.2891">&#171;Server&#187;</text><text fill="#000000" font-family="sans-serif" font-size="14" font-weight="bold" lengthAdjust="spacing" textLength="54" x="616.5" y="112.7773">Verifier</text><rect fill="#E2E2F0" height="46.9766" rx="2.5" ry="2.5" style="stroke:#181818;stroke-width:0.5;" width="71" x="608" y="724.5625"/><text fill="#000000" font-family="sans-serif" font-size="14" font-style="italic" lengthAdjust="spacing" textLength="57" x="615" y="745.0977">&#171;Server&#187;</text><text fill="#000000" font-family="sans-serif" font-size="14" font-weight="bold" lengthAdjust="spacing" textLength="54" x="616.5" y="761.5859">Verifier</text><rect fill="#FFFFFF" height="219.1738" style="stroke:#181818;stroke-width:1.0;" width="10" x="29" y="497.3887"/><rect fill="#FFFFFF" height="582.832" style="stroke:#181818;stroke-width:1.0;" width="10" x="245.75" y="133.7305"/><rect fill="#FFFFFF" height="582.832" style="stroke:#181818;stroke-width:1.0;" width="10" x="432.75" y="133.7305"/><rect fill="#FFFFFF" height="117.5527" style="stroke:#181818;stroke-width:1.0;" width="10" x="638.5" y="292.9043"/><rect fill="#FFFFFF" height="44.3105" style="stroke:#181818;stroke-width:1.0;" width="10" x="638.5" y="672.252"/><rect fill="#FEFFDD" height="69" style="stroke:#181818;stroke-width:0.5;" width="229" x="323" y="138.7305"/><text fill="#000000" font-family="sans-serif" font-size="13" font-weight="bold" lengthAdjust="spacing" textLength="199" x="327" y="155.2988">[Pre-Configured Information]</text><ellipse cx="332.5" cy="165.8516" fill="#000000" rx="2.5" ry="2.5" style="stroke:#000000;stroke-width:0.0;"/><text fill="#000000" font-family="sans-serif" font-size="13" lengthAdjust="spacing" textLength="209" x="339" y="170.6094">device = Service Device Identifier</text><ellipse cx="332.5" cy="181.1621" fill="#000000" rx="2.5" ry="2.5" style="stroke:#000000;stroke-width:0.0;"/><text fill="#000000" font-family="sans-serif" font-size="13" lengthAdjust="spacing" textLength="167" x="339" y="185.9199">service = Service Identifier</text><ellipse cx="332.5" cy="196.4727" fill="#000000" rx="2.5" ry="2.5" style="stroke:#000000;stroke-width:0.0;"/><text fill="#000000" font-family="sans-serif" font-size="13" lengthAdjust="spacing" textLength="101" x="339" y="201.2305">mode = "Direct"</text><rect fill="#EEEEEE" height="3" style="stroke:#EEEEEE;stroke-width:1.0;" width="875.5" x="0" y="233.6279"/><line style="stroke:#000000;stroke-width:1.0;" x1="0" x2="875.5" y1="233.6279" y2="233.6279"/><line style="stroke:#000000;stroke-width:1.0;" x1="0" x2="875.5" y1="236.6279" y2="236.6279"/><rect fill="#EEEEEE" height="23.3105" style="stroke:#000000;stroke-width:2.0;" width="75" x="400.25" y="222.9727"/><text fill="#000000" font-family="sans-serif" font-size="13" font-weight="bold" lengthAdjust="spacing" textLength="57" x="406.25" y="239.541">(B) Offer</text><polygon fill="#181818" points="626.5,288.9043,636.5,292.9043,626.5,296.9043,630.5,292.9043" style="stroke:#181818;stroke-width:1.0;"/><line style="stroke:#181818;stroke-width:1.0;" x1="442.75" x2="632.5" y1="292.9043" y2="292.9043"/><text fill="#000000" font-family="sans-serif" font-size="13" font-weight="bold" lengthAdjust="spacing" textLength="19" x="449.75" y="280.5068">(1)</text><text fill="#000000" font-family="sans-serif" font-size="13" lengthAdjust="spacing" textLength="151" x="472.75" y="272.8516">(Example) Request Offer</text><text fill="#000000" font-family="sans-serif" font-size="13" lengthAdjust="spacing" textLength="143" x="472.75" y="288.1621">{mode, device, service}</text><line style="stroke:#181818;stroke-width:1.0;" x1="648.5" x2="690.5" y1="368.1465" y2="368.1465"/><line style="stroke:#181818;stroke-width:1.0;" x1="690.5" x2="690.5" y1="368.1465" y2="381.1465"/><line style="stroke:#181818;stroke-width:1.0;" x1="649.5" x2="690.5" y1="381.1465" y2="381.1465"/><polygon fill="#181818" points="659.5,377.1465,649.5,381.1465,659.5,385.1465,655.5,381.1465" style="stroke:#181818;stroke-width:1.0;"/><text fill="#000000" font-family="sans-serif" font-size="13" font-weight="bold" lengthAdjust="spacing" textLength="19" x="655.5" y="340.4385">(2)</text><text fill="#000000" font-family="sans-serif" font-size="13" lengthAdjust="spacing" textLength="116" x="678.5" y="317.4727">Create Verify Offer</text><ellipse cx="684" cy="328.0254" fill="#000000" rx="2.5" ry="2.5" style="stroke:#000000;stroke-width:0.0;"/><text fill="#000000" font-family="sans-serif" font-size="13" lengthAdjust="spacing" textLength="165" x="690.5" y="332.7832">offerId = Generate offer id</text><ellipse cx="684" cy="343.3359" fill="#000000" rx="2.5" ry="2.5" style="stroke:#000000;stroke-width:0.0;"/><text fill="#000000" font-family="sans-serif" font-size="13" lengthAdjust="spacing" textLength="173" x="690.5" y="348.0938">(VerifyOfferPayload)payload</text><text fill="#000000" font-family="sans-serif" font-size="13" lengthAdjust="spacing" textLength="106" x="694.5" y="363.4043">= Create Payload</text><path d="M430,324.7148 L430,364.7148 L633,364.7148 L633,334.7148 L623,324.7148 L430,324.7148 " fill="#FEFFDD" style="stroke:#181818;stroke-width:0.5;"/><path d="M623,324.7148 L623,334.7148 L633,334.7148 L623,324.7148 " fill="#FEFFDD" style="stroke:#181818;stroke-width:0.5;"/><text fill="#000000" font-family="sans-serif" font-size="13" lengthAdjust="spacing" textLength="118" x="436" y="342.2832">If mode = "Direct",</text><text fill="#000000" font-family="sans-serif" font-size="13" lengthAdjust="spacing" textLength="182" x="436" y="357.5938">include endpoints in payload</text><polygon fill="#181818" points="453.75,406.457,443.75,410.457,453.75,414.457,449.75,410.457" style="stroke:#181818;stroke-width:1.0;"/><line style="stroke:#181818;stroke-width:1.0;stroke-dasharray:2.0,2.0;" x1="447.75" x2="642.5" y1="410.457" y2="410.457"/><text fill="#000000" font-family="sans-serif" font-size="13" font-weight="bold" lengthAdjust="spacing" textLength="19" x="459.75" y="405.7148">(3)</text><text fill="#000000" font-family="sans-serif" font-size="13" lengthAdjust="spacing" textLength="57" x="482.75" y="405.7148">{payload}</text><line style="stroke:#181818;stroke-width:1.0;" x1="442.75" x2="484.75" y1="455.0781" y2="455.0781"/><line style="stroke:#181818;stroke-width:1.0;" x1="484.75" x2="484.75" y1="455.0781" y2="468.0781"/><line style="stroke:#181818;stroke-width:1.0;" x1="443.75" x2="484.75" y1="468.0781" y2="468.0781"/><polygon fill="#181818" points="453.75,464.0781,443.75,468.0781,453.75,472.0781,449.75,468.0781" style="stroke:#181818;stroke-width:1.0;"/><text fill="#000000" font-family="sans-serif" font-size="13" font-weight="bold" lengthAdjust="spacing" textLength="19" x="449.75" y="442.6807">(4)</text><text fill="#000000" font-family="sans-serif" font-size="13" lengthAdjust="spacing" textLength="113" x="472.75" y="435.0254">Generate QR Code</text><ellipse cx="478.25" cy="445.5781" fill="#000000" rx="2.5" ry="2.5" style="stroke:#000000;stroke-width:0.0;"/><text fill="#000000" font-family="sans-serif" font-size="13" lengthAdjust="spacing" textLength="127" x="484.75" y="450.3359">qr = GenQr(payload)</text><polygon fill="#181818" points="266.75,493.3887,256.75,497.3887,266.75,501.3887,262.75,497.3887" style="stroke:#181818;stroke-width:1.0;"/><line style="stroke:#181818;stroke-width:1.0;" x1="260.75" x2="431.75" y1="497.3887" y2="497.3887"/><text fill="#000000" font-family="sans-serif" font-size="13" font-weight="bold" lengthAdjust="spacing" textLength="19" x="272.75" y="492.6465">(5)</text><text fill="#000000" font-family="sans-serif" font-size="13" lengthAdjust="spacing" textLength="130" x="295.75" y="492.6465">Display QR Code {qr}</text><polygon fill="#0000FF" points="50,522.6992,40,526.6992,50,530.6992,46,526.6992" style="stroke:#0000FF;stroke-width:1.0;"/><ellipse cx="245.25" cy="525.9492" fill="none" rx="4" ry="4" style="stroke:#0000FF;stroke-width:1.5;"/><line style="stroke:#0000FF;stroke-width:1.0;" x1="44" x2="240.75" y1="526.6992" y2="526.6992"/><text fill="#000000" font-family="sans-serif" font-size="13" font-weight="bold" lengthAdjust="spacing" textLength="19" x="56" y="521.957">(6)</text><text fill="#000000" font-family="sans-serif" font-size="13" lengthAdjust="spacing" textLength="87" x="79" y="521.957">Scan QR Code</text><line style="stroke:#181818;stroke-width:1.0;" x1="39" x2="81" y1="571.3203" y2="571.3203"/><line style="stroke:#181818;stroke-width:1.0;" x1="81" x2="81" y1="571.3203" y2="584.3203"/><line style="stroke:#181818;stroke-width:1.0;" x1="40" x2="81" y1="584.3203" y2="584.3203"/><polygon fill="#181818" points="50,580.3203,40,584.3203,50,588.3203,46,584.3203" style="stroke:#181818;stroke-width:1.0;"/><text fill="#000000" font-family="sans-serif" font-size="13" font-weight="bold" lengthAdjust="spacing" textLength="19" x="46" y="558.9229">(7)</text><ellipse cx="74.5" cy="546.5098" fill="#000000" rx="2.5" ry="2.5" style="stroke:#000000;stroke-width:0.0;"/><text fill="#000000" font-family="sans-serif" font-size="13" lengthAdjust="spacing" textLength="97" x="81" y="551.2676">Extract payload</text><ellipse cx="74.5" cy="561.8203" fill="#000000" rx="2.5" ry="2.5" style="stroke:#000000;stroke-width:0.0;"/><text fill="#000000" font-family="sans-serif" font-size="13" lengthAdjust="spacing" textLength="155" x="81" y="566.5781">offerId = payload.offerId</text><rect fill="#EEEEEE" height="3" style="stroke:#EEEEEE;stroke-width:1.0;" width="875.5" x="0" y="612.9756"/><line style="stroke:#000000;stroke-width:1.0;" x1="0" x2="875.5" y1="612.9756" y2="612.9756"/><line style="stroke:#000000;stroke-width:1.0;" x1="0" x2="875.5" y1="615.9756" y2="615.9756"/><rect fill="#EEEEEE" height="23.3105" style="stroke:#000000;stroke-width:2.0;" width="81" x="397.25" y="602.3203"/><text fill="#000000" font-family="sans-serif" font-size="13" font-weight="bold" lengthAdjust="spacing" textLength="63" x="403.25" y="618.8887">(C) Verify</text><polygon fill="#181818" points="626.5,668.252,636.5,672.252,626.5,676.252,630.5,672.252" style="stroke:#181818;stroke-width:1.0;"/><line style="stroke:#181818;stroke-width:1.0;" x1="39" x2="632.5" y1="672.252" y2="672.252"/><text fill="#000000" font-family="sans-serif" font-size="13" font-weight="bold" lengthAdjust="spacing" textLength="19" x="46" y="659.8545">(8)</text><text fill="#000000" font-family="sans-serif" font-size="13" lengthAdjust="spacing" textLength="119" x="69" y="652.1992">C1. Request Profile</text><text fill="#000000" font-family="sans-serif" font-size="13" lengthAdjust="spacing" textLength="50" x="69" y="667.5098">{offerId}</text><path d="M5,685.252 L5,710.252 L673,710.252 L673,695.252 L663,685.252 L5,685.252 " fill="#FEFFDD" style="stroke:#181818;stroke-width:0.5;"/><path d="M663,685.252 L663,695.252 L673,695.252 L663,685.252 " fill="#FEFFDD" style="stroke:#181818;stroke-width:0.5;"/><text fill="#000000" font-family="sans-serif" font-size="13" lengthAdjust="spacing" textLength="119" x="275" y="702.8203">The rest is omitted</text><!--SRC=[RLDDJ-Cm4BtxLupAfGajY9NsKhMHs1IX7bPROBKNuE3Q4zRQn3QEWoXL__kE7OT2TtF8X-UzDsy-ufMlaG5TyrQzuUpBr-B-wfKtjaQuU8HVw5IrXHzLXGwciDngtYW1DxSJM2g7miDt8t5-7hW5Got1Hq76Eszqrso8DfflYl59DZ_V52F6B7TU2MMvzZ3Ay_BIsZmV0Mz1S9ZFwRCesCQymXsw5oKGbXWVux9hlMb8xn1e_sHmSldMkRw28-cbQctDjqbTMbA_vl89FINu3_pEywg2TPdmLX1-NHPzLMJes7biZKANy2yLuOCrTCHXJXkFOEYBb6AwFBzVEvoMHbVgYInBMEdAk8PxPVHZdlSWa7svY-FwLnArZmaJi4tn0_8VI4EpeVYe7zKeLXADCRPOmFXRbWQxMD30X5Sld3oJtVTtQHdrOLg4wavFPp1Egv71BJvtsFfUu47lGgf9CZyPlEsZ3-96XHcK3eFgfwLAruFEmOI3bIJ7rwZH1MWy0YK_miOzFzBNV5iRBZFRF-602_V5a371efquc1ehpmRmgZhkrEGzfhIeEufHwwnHshTq0lQ3NEXfRAb3tpaDknJSizGwAsQ7UcvkeQHKeOndrnTwuyQ9aYM6j3D8opiGOFVizX-693WBlylzoQRky75g8kTES3qGGfYa19_H7bozUaVKmVVdNgV3itJIhqQP3LCAkz5hfHqeByxUfxzsfb8rbRDBx3qxxBtWapZrdxyHN42h5aoZl4Vv5m00]--></g></svg>