<?xml version="1.0" encoding="UTF-8"?><svg xmlns="http://www.w3.org/2000/svg" xmlns:xlink="http://www.w3.org/1999/xlink" fill-opacity="1" color-rendering="auto" color-interpolation="auto" text-rendering="auto" stroke="black" stroke-linecap="square" width="865" stroke-miterlimit="10" shape-rendering="auto" stroke-opacity="1" fill="black" stroke-dasharray="none" font-weight="normal" stroke-width="1" height="503" font-family="'Dialog'" font-style="normal" stroke-linejoin="miter" font-size="12px" stroke-dashoffset="0" image-rendering="auto">
  <!--Generated by ySVG 2.6-->
  <defs id="genericDefs"/>
  <g>
    <defs id="defs1">
      <linearGradient x1="384.6163" gradientUnits="userSpaceOnUse" x2="477.0309" y1="323.5314" y2="354.4873" id="linearGradient1" spreadMethod="reflect">
        <stop stop-opacity="1" stop-color="white" offset="0%"/>
        <stop stop-opacity="1" stop-color="white" offset="100%"/>
      </linearGradient>
      <linearGradient x1="500.1917" gradientUnits="userSpaceOnUse" x2="592.6063" y1="323.5314" y2="354.4873" id="linearGradient2" spreadMethod="reflect">
        <stop stop-opacity="1" stop-color="white" offset="0%"/>
        <stop stop-opacity="1" stop-color="white" offset="100%"/>
      </linearGradient>
      <linearGradient x1="616.7639" gradientUnits="userSpaceOnUse" x2="709.1784" y1="323.5314" y2="354.4873" id="linearGradient3" spreadMethod="reflect">
        <stop stop-opacity="1" stop-color="white" offset="0%"/>
        <stop stop-opacity="1" stop-color="white" offset="100%"/>
      </linearGradient>
      <linearGradient x1="384.6163" gradientUnits="userSpaceOnUse" x2="477.0309" y1="204.3501" y2="235.306" id="linearGradient4" spreadMethod="reflect">
        <stop stop-opacity="1" stop-color="white" offset="0%"/>
        <stop stop-opacity="1" stop-color="white" offset="100%"/>
      </linearGradient>
      <linearGradient x1="732.1993" gradientUnits="userSpaceOnUse" x2="824.6139" y1="204.3501" y2="235.306" id="linearGradient5" spreadMethod="reflect">
        <stop stop-opacity="1" stop-color="white" offset="0%"/>
        <stop stop-opacity="1" stop-color="white" offset="100%"/>
      </linearGradient>
      <linearGradient x1="858.0779" gradientUnits="userSpaceOnUse" x2="950.4924" y1="317.0763" y2="348.0321" id="linearGradient6" spreadMethod="reflect">
        <stop stop-opacity="1" stop-color="white" offset="0%"/>
        <stop stop-opacity="1" stop-color="white" offset="100%"/>
      </linearGradient>
      <linearGradient x1="980.4924" gradientUnits="userSpaceOnUse" x2="1072.907" y1="317.0763" y2="348.0321" id="linearGradient7" spreadMethod="reflect">
        <stop stop-opacity="1" stop-color="white" offset="0%"/>
        <stop stop-opacity="1" stop-color="white" offset="100%"/>
      </linearGradient>
      <linearGradient x1="603.5366" gradientUnits="userSpaceOnUse" x2="695.9512" y1="531.7037" y2="562.6597" id="linearGradient8" spreadMethod="reflect">
        <stop stop-opacity="1" stop-color="white" offset="0%"/>
        <stop stop-opacity="1" stop-color="white" offset="100%"/>
      </linearGradient>
      <linearGradient x1="719.112" gradientUnits="userSpaceOnUse" x2="811.5266" y1="531.7037" y2="562.6597" id="linearGradient9" spreadMethod="reflect">
        <stop stop-opacity="1" stop-color="white" offset="0%"/>
        <stop stop-opacity="1" stop-color="white" offset="100%"/>
      </linearGradient>
      <linearGradient x1="867.7951" gradientUnits="userSpaceOnUse" x2="960.2097" y1="531.7037" y2="562.6597" id="linearGradient10" spreadMethod="reflect">
        <stop stop-opacity="1" stop-color="white" offset="0%"/>
        <stop stop-opacity="1" stop-color="white" offset="100%"/>
      </linearGradient>
      <linearGradient x1="732.1993" gradientUnits="userSpaceOnUse" x2="824.6139" y1="644.332" y2="675.2879" id="linearGradient11" spreadMethod="reflect">
        <stop stop-opacity="1" stop-color="white" offset="0%"/>
        <stop stop-opacity="1" stop-color="white" offset="100%"/>
      </linearGradient>
      <clipPath clipPathUnits="userSpaceOnUse" id="clipPath1">
        <path d="M0 0 L865 0 L865 503 L0 503 L0 0 Z"/>
      </clipPath>
      <clipPath clipPathUnits="userSpaceOnUse" id="clipPath2">
        <path d="M253 188 L1118 188 L1118 691 L253 691 L253 188 Z"/>
      </clipPath>
      <clipPath clipPathUnits="userSpaceOnUse" id="clipPath3">
        <path d="M-32.3812 -166.3325 L1384.8408 -166.3325 L1384.8408 747.7216 L-32.3812 747.7216 L-32.3812 -166.3325 Z"/>
      </clipPath>
      <clipPath clipPathUnits="userSpaceOnUse" id="clipPath4">
        <path d="M-32.3812 -331.5658 L1384.8408 -331.5658 L1384.8408 582.4883 L-32.3812 582.4883 L-32.3812 -331.5658 Z"/>
      </clipPath>
    </defs>
    <g fill="white" text-rendering="geometricPrecision" shape-rendering="geometricPrecision" transform="translate(-253,-188)" stroke="white">
      <rect x="253" width="865" height="503" y="188" clip-path="url(#clipPath2)" stroke="none"/>
    </g>
    <g fill="rgb(245,245,245)" text-rendering="geometricPrecision" shape-rendering="geometricPrecision" transform="matrix(1,0,0,1,-253,-188)" stroke="rgb(245,245,245)">
      <rect x="355.6163" y="274.9739" clip-path="url(#clipPath2)" width="373.4146" rx="4" ry="4" height="111.0848" stroke="none"/>
      <rect x="355.6163" y="274.9739" clip-path="url(#clipPath2)" fill="rgb(235,235,235)" width="373.4146" height="21.666" stroke="none"/>
    </g>
    <g font-size="15px" stroke-linecap="butt" transform="matrix(1,0,0,1,-253,-188)" text-rendering="geometricPrecision" font-family="sans-serif" shape-rendering="geometricPrecision" stroke-miterlimit="1.45">
      <text x="486.2933" xml:space="preserve" y="291.4759" clip-path="url(#clipPath2)" stroke="none">User A's Mobile</text>
      <rect x="355.6163" y="274.9739" clip-path="url(#clipPath2)" fill="none" width="373.4146" stroke-dasharray="6,2" rx="4" ry="4" height="111.0848"/>
    </g>
    <g fill="url(#linearGradient1)" text-rendering="geometricPrecision" shape-rendering="geometricPrecision" transform="matrix(1,0,0,1,-253,-188)" stroke="url(#linearGradient1)">
      <path d="M384.6163 323.5314 L477.0309 323.5314 L477.0309 354.4873 L384.6163 354.4873 Z" stroke="none" clip-path="url(#clipPath2)"/>
    </g>
    <g text-rendering="geometricPrecision" stroke-miterlimit="1.45" shape-rendering="geometricPrecision" transform="matrix(1,0,0,1,-253,-188)" stroke-linecap="butt">
      <path fill="none" d="M384.6163 323.5314 L477.0309 323.5314 L477.0309 354.4873 L384.6163 354.4873 Z" clip-path="url(#clipPath2)"/>
      <text x="413.0931" xml:space="preserve" y="343.5445" clip-path="url(#clipPath2)" font-family="sans-serif" stroke="none">A App</text>
    </g>
    <g fill="url(#linearGradient2)" text-rendering="geometricPrecision" shape-rendering="geometricPrecision" transform="matrix(1,0,0,1,-253,-188)" stroke="url(#linearGradient2)">
      <path d="M500.1917 323.5314 L592.6063 323.5314 L592.6063 354.4873 L500.1917 354.4873 Z" stroke="none" clip-path="url(#clipPath2)"/>
    </g>
    <g text-rendering="geometricPrecision" stroke-miterlimit="1.45" shape-rendering="geometricPrecision" transform="matrix(1,0,0,1,-253,-188)" stroke-linecap="butt">
      <path fill="none" d="M500.1917 323.5314 L592.6063 323.5314 L592.6063 354.4873 L500.1917 354.4873 Z" clip-path="url(#clipPath2)"/>
      <text x="529.357" xml:space="preserve" y="343.5445" clip-path="url(#clipPath2)" font-family="sans-serif" stroke="none">B App</text>
    </g>
    <g fill="url(#linearGradient3)" text-rendering="geometricPrecision" shape-rendering="geometricPrecision" transform="matrix(1,0,0,1,-253,-188)" stroke="url(#linearGradient3)">
      <path d="M616.7639 323.5314 L709.1784 323.5314 L709.1784 354.4873 L616.7639 354.4873 Z" stroke="none" clip-path="url(#clipPath2)"/>
    </g>
    <g text-rendering="geometricPrecision" stroke-miterlimit="1.45" shape-rendering="geometricPrecision" transform="matrix(1,0,0,1,-253,-188)" stroke-linecap="butt">
      <path fill="none" d="M616.7639 323.5314 L709.1784 323.5314 L709.1784 354.4873 L616.7639 354.4873 Z" clip-path="url(#clipPath2)"/>
      <text x="645.2289" xml:space="preserve" y="343.5445" clip-path="url(#clipPath2)" font-family="sans-serif" stroke="none">C App</text>
    </g>
    <g text-rendering="geometricPrecision" shape-rendering="geometricPrecision" transform="matrix(0.6103,0,0,0.5503,19.7639,91.5321)">
      <g clip-path="url(#clipPath3)">
        <svg xml:space="preserve" opacity="1" writing-mode="lr-tb" stop-color="rgb(0, 0, 0)" shape-rendering="auto" glyph-orientation-horizontal="0deg" color-profile="auto" lighting-color="rgb(255, 255, 255)" color="rgb(0, 0, 0)" font-weight="400" alignment-baseline="auto" font-style="normal" version="1.1" color-interpolation-filters="linearrgb" text-anchor="start" stroke-linecap="butt" color-interpolation="srgb" font-variant="normal" word-spacing="normal" fill-opacity="1" text-rendering="auto" clip-path="none" text-decoration="none" letter-spacing="normal" viewBox="0 0 57 67" glyph-orientation-vertical="auto" display="inline" font-size-adjust="none" overflow="hidden" fill="rgb(0, 0, 0)" font-stretch="normal" stroke-dasharray="none" id="svg1.Ebene_1" stroke-miterlimit="4" stop-opacity="1" color-rendering="auto" font-size="12" pointer-events="visiblepainted" mask="none" direction="ltr" baseline-shift="baseline" enable-background="new 0 0 57 67" fill-rule="nonzero" image-rendering="auto" stroke-dashoffset="0" width="57px" marker-end="none" clip="auto" cursor="auto" stroke="none" filter="none" visibility="visible" kerning="auto" stroke-width="1" font-family="&quot;Arial&quot;,&quot;Helvetica&quot;,sans-serif" flood-opacity="1" clip-rule="nonzero" src="none" height="67px" unicode-bidi="normal" stroke-linejoin="miter" stroke-opacity="1" flood-color="rgb(0, 0, 0)" dominant-baseline="auto" marker-start="none" x="0px" marker-mid="none" y="0px">
<g>
	
		<linearGradient gradientTransform="matrix(1 0 0 1 0.3203 -3091.7656)" x1="26.3398" x2="27.5807" gradientUnits="userSpaceOnUse" y1="3115.7266" y2="3145.5239" id="svg1.SVGID_1_">
		<stop offset="0.2711" style="stop-color:#FFAB4F"/>
		<stop offset="1" style="stop-color:#FFD28F"/>
	</linearGradient>
	<path fill="url(#svg1.SVGID_1_)" d="M49.529,51.225c-4.396-4.396-10.951-5.884-12.063-6.109   V37.8H19.278c0,0,0.038,6.903,0,6.868c0,0-6.874,0.997-12.308,6.432C1.378,56.691,0.5,62.77,0.5,62.77   c0,1.938,1.575,3.492,3.523,3.492h48.51c1.947,0,3.521-1.558,3.521-3.492C56.055,62.768,54.211,55.906,49.529,51.225z" stroke-miterlimit="10" stroke="#ED9135"/>
	
		<radialGradient gradientTransform="matrix(1 0 0 1 0.3203 -3091.7656)" gradientUnits="userSpaceOnUse" r="23.425" cx="27.5835" id="svg1.face_x5F_white_1_" cy="3117.4922" fx="23.0139" fy="3115.0024">
		<stop offset="0" style="stop-color:#FFD28F"/>
		<stop offset="1" style="stop-color:#FFAB4F"/>
	</radialGradient>
	<path fill="url(#svg1.face_x5F_white_1_)" id="svg1.face_x5F_white_3_" d="M43.676,23.357   c0.086,10.199-6.738,18.52-15.25,18.586c-8.5,0.068-15.464-8.146-15.55-18.344C12.794,13.4,19.618,5.079,28.123,5.012   C36.627,4.945,43.59,13.158,43.676,23.357z" stroke-miterlimit="10" stroke="#ED9135"/>
	
		<linearGradient gradientTransform="matrix(0.275 0 0 -0.2733 -1752.8849 -3350.4617)" x1="6468.5" x2="6492.1294" gradientUnits="userSpaceOnUse" y1="-12286.8594" y2="-12380.3086" id="svg1.face_highlight_1_">
		<stop offset="0" style="stop-color:#FFFFFF;stop-opacity:0.24"/>
		<stop offset="1" style="stop-color:#FFFFFF;stop-opacity:0.16"/>
	</linearGradient>
	<path fill="url(#svg1.face_highlight_1_)" id="svg1.face_highlight_3_" d="M28.415,5.625c-6.035,0.047-10.747,4.493-12.787,10.386   c-0.664,1.919-0.294,4.043,0.98,5.629c2.73,3.398,5.729,6.283,9.461,8.088c3.137,1.518,7.535,2.385,11.893,1.247   c2.274-0.592,3.988-2.459,4.375-4.766c0.187-1.094,0.293-2.289,0.283-3.553C42.54,13.244,36.729,5.56,28.415,5.625z"/>
	<path fill="#CC9869" d="M28.372,0.5   C17.537,0.5,8.269,7.748,9.153,26.125c0.563,6.563,5.862,12.042,9.366,13.531c-2.929-10.968-0.304-25.021-0.585-25.526   c-0.281-0.505,3.536,6.728,3.536,6.728l3.183-8.312c5.541,4.28,0.393,11.309,1.049,11.058c4.26-1.631,5.34-9.228,5.34-9.228   s2.729,3.657,2.701,5.504c-0.054,3.562,2.194-6.067,2.194-6.067l1.027,2.031c6.727,9.822,3.684,16.208,1.648,22.781   c15.666-0.703,12.291-10.48,9.66-18.407C43.59,6.092,39.206,0.5,28.372,0.5z" id="svg1.Hair_Female_1_Brown_4_" stroke="#99724F" stroke-linecap="round" stroke-linejoin="round"/>
	
		<radialGradient gradientTransform="matrix(1 0 0 -1 0.04 66.1543)" id="svg1.collar_x5F_body_1_" r="32.4004" cx="15.2412" gradientUnits="userSpaceOnUse" cy="11.9829">
		<stop offset="0" style="stop-color:#FCB57A"/>
		<stop offset="1" style="stop-color:#FF8C36"/>
	</radialGradient>
	<path fill="url(#svg1.collar_x5F_body_1_)" d="M0.5,62.768c0,1.938,1.575,3.494,3.523,3.494   h48.51c1.947,0,3.521-1.559,3.521-3.494c0,0-1.844-6.861-6.525-11.543c-4.815-4.813-11.244-6.146-11.244-6.146   c-1.771,1.655-5.61,2.802-10.063,2.802c-4.453,0-8.292-1.146-10.063-2.802c0,0-5.755,0.586-11.189,6.021   C1.378,56.689,0.5,62.768,0.5,62.768z" id="svg1.collar_x5F_body_2_" stroke="#E55E03"/>
	
		<radialGradient gradientTransform="matrix(1 0 0 -1 0.04 66.1543)" id="svg1.collar_x5F_r_1_" r="9.2823" cx="31.5801" gradientUnits="userSpaceOnUse" cy="17.957">
		<stop offset="0" style="stop-color:#FCB57A"/>
		<stop offset="1" style="stop-color:#FF8C36"/>
	</radialGradient>
	<path fill="url(#svg1.collar_x5F_r_1_)" d="M38.159,41.381c0,0-0.574,2.369-3.013,4.441   c-2.108,1.795-5.783,2.072-5.783,2.072l3.974,6.217c0,0,2.957-1.637,5.009-3.848c1.922-2.072,1.37-5.479,1.37-5.479L38.159,41.381z   " id="svg1.collar_x5F_r_2_" stroke="#E55E03"/>
	
		<radialGradient gradientTransform="matrix(1 0 0 -1 0.04 66.1543)" id="svg1.collar_x5F_l_1_" r="9.2843" cx="19.2178" gradientUnits="userSpaceOnUse" cy="17.916">
		<stop offset="0" style="stop-color:#FCB57A"/>
		<stop offset="1" style="stop-color:#FF8C36"/>
	</radialGradient>
	<path fill="url(#svg1.collar_x5F_l_1_)" d="M18.63,41.422c0,0,0.576,2.369,3.012,4.441   c2.109,1.793,5.785,2.072,5.785,2.072l-3.974,6.217c0,0-2.957-1.637-5.007-3.85c-1.922-2.072-1.37-5.48-1.37-5.48L18.63,41.422z" id="svg1.collar_x5F_l_2_" stroke="#E55E03"/>
	
		<linearGradient gradientTransform="matrix(0.9852 0 0 -0.9852 -34.4844 -3031.9851)" x1="95.9063" x2="31.5133" gradientUnits="userSpaceOnUse" y1="-3134.0396" y2="-3134.0396" id="svg1.body_1_">
		<stop offset="0" style="stop-color:#49AD33"/>
		<stop offset="1" style="stop-color:#C2DA92"/>
	</linearGradient>
	<path fill="url(#svg1.body_1_)" d="M0.5,62.768c0,1.938,1.575,3.494,3.523,3.494h48.51   c1.947,0,3.521-1.559,3.521-3.494c0,0-1.844-6.861-6.525-11.543c-4.815-4.813-11.244-6.146-11.244-6.146   c-1.771,1.655-5.61,2.802-10.063,2.802c-4.453,0-8.292-1.146-10.063-2.802c0,0-5.755,0.586-11.189,6.021   C1.378,56.689,0.5,62.768,0.5,62.768z" id="svg1.body_15_" stroke="#008D33"/>
	
		<linearGradient gradientTransform="matrix(1 0 0 1 0.3203 -3091.7656)" x1="41.0879" x2="15.0673" gradientUnits="userSpaceOnUse" y1="3138.3994" y2="3138.3994" id="svg1.turtleneck_1_">
		<stop offset="0" style="stop-color:#49AD33"/>
		<stop offset="1" style="stop-color:#C2DA92"/>
	</linearGradient>
	<path fill="url(#svg1.turtleneck_1_)" d="M39.715,44.786l-1.557-3.405   c0,0-0.574,2.369-3.012,4.441c-2.109,1.795-6.785,2.072-6.785,2.072s-4.753-0.356-6.722-2.031   c-2.436-2.072-3.012-4.441-3.012-4.441l-1.555,3.404c0,0-0.552,1.404,1.37,3.479c1.025,1.105,5.203,3.611,9.682,3.582   c4.479-0.029,9.264-2.594,10.218-3.623C40.266,46.191,39.715,44.786,39.715,44.786z" id="svg1.turtleneck_11_" stroke="#008D33"/>
	
		<radialGradient gradientTransform="matrix(0.9852 0 0 -0.9852 -34.4844 -3031.9851)" id="svg1.body_2_" r="32.8877" cx="50.5117" gradientUnits="userSpaceOnUse" cy="-3132.519">
		<stop offset="0" style="stop-color:#FCB57A"/>
		<stop offset="1" style="stop-color:#FF8C36"/>
	</radialGradient>
	<path fill="url(#svg1.body_2_)" d="M0.5,62.768c0,1.938,1.575,3.494,3.523,3.494h48.51   c1.947,0,3.521-1.559,3.521-3.494c0,0-1.844-6.861-6.525-11.543c-4.815-4.813-11.244-6.146-11.244-6.146   c-1.771,1.655-5.61,2.802-10.063,2.802c-4.453,0-8.292-1.146-10.063-2.802c0,0-5.755,0.586-11.189,6.021   C1.378,56.689,0.5,62.768,0.5,62.768z" id="svg1.body_14_" stroke="#E55E03"/>
	
		<radialGradient gradientTransform="matrix(1 0 0 1 0.3203 -3091.7656)" id="svg1.turtleneck_2_" r="13.5363" cx="22.7432" gradientUnits="userSpaceOnUse" cy="3139.1426">
		<stop offset="0" style="stop-color:#FCB57A"/>
		<stop offset="1" style="stop-color:#FF8C36"/>
	</radialGradient>
	<path fill="url(#svg1.turtleneck_2_)" d="M39.715,44.786l-1.557-3.405   c0,0-0.574,2.369-3.012,4.441c-2.109,1.795-6.785,2.072-6.785,2.072s-4.753-0.356-6.722-2.031   c-2.436-2.072-3.012-4.441-3.012-4.441l-1.555,3.404c0,0-0.552,1.404,1.37,3.479c1.025,1.105,5.203,3.611,9.682,3.582   c4.479-0.029,9.264-2.594,10.218-3.623C40.266,46.191,39.715,44.786,39.715,44.786z" id="svg1.turtleneck_10_" stroke="#E55E03"/>
</g>
</svg>
      </g>
    </g>
    <g text-rendering="geometricPrecision" stroke-miterlimit="1.45" shape-rendering="geometricPrecision" font-family="sans-serif" transform="matrix(1,0,0,1,-253,-188)" stroke-linecap="butt">
      <text x="270.9891" xml:space="preserve" y="333.8725" clip-path="url(#clipPath2)" stroke="none">User A</text>
    </g>
    <g text-rendering="geometricPrecision" shape-rendering="geometricPrecision" transform="matrix(0.6103,0,0,0.5503,19.7639,182.4592)">
      <g clip-path="url(#clipPath4)">
        <svg xml:space="preserve" opacity="1" writing-mode="lr-tb" stop-color="rgb(0, 0, 0)" shape-rendering="auto" glyph-orientation-horizontal="0deg" color-profile="auto" lighting-color="rgb(255, 255, 255)" color="rgb(0, 0, 0)" font-weight="400" alignment-baseline="auto" font-style="normal" version="1.1" color-interpolation-filters="linearrgb" text-anchor="start" stroke-linecap="butt" color-interpolation="srgb" font-variant="normal" word-spacing="normal" fill-opacity="1" text-rendering="auto" clip-path="none" text-decoration="none" letter-spacing="normal" viewBox="0 0 57 67" glyph-orientation-vertical="auto" display="inline" font-size-adjust="none" overflow="hidden" fill="rgb(0, 0, 0)" font-stretch="normal" stroke-dasharray="none" id="svg2.Ebene_1" stroke-miterlimit="4" stop-opacity="1" color-rendering="auto" font-size="12" pointer-events="visiblepainted" mask="none" direction="ltr" baseline-shift="baseline" enable-background="new 0 0 57 67" fill-rule="nonzero" image-rendering="auto" stroke-dashoffset="0" width="57px" marker-end="none" clip="auto" cursor="auto" stroke="none" filter="none" visibility="visible" kerning="auto" stroke-width="1" font-family="&quot;Arial&quot;,&quot;Helvetica&quot;,sans-serif" flood-opacity="1" clip-rule="nonzero" src="none" height="67px" unicode-bidi="normal" stroke-linejoin="miter" stroke-opacity="1" flood-color="rgb(0, 0, 0)" dominant-baseline="auto" marker-start="none" x="0px" marker-mid="none" y="0px">
<g>
	
		<linearGradient gradientTransform="matrix(1 0 0 1 0.3203 -3091.7656)" x1="26.3398" x2="27.5807" gradientUnits="userSpaceOnUse" y1="3115.7266" y2="3145.5239" id="svg2.SVGID_1_">
		<stop offset="0.2711" style="stop-color:#FFAB4F"/>
		<stop offset="1" style="stop-color:#FFD28F"/>
	</linearGradient>
	<path fill="url(#svg2.SVGID_1_)" d="M49.529,51.225c-4.396-4.396-10.951-5.884-12.063-6.109   V37.8H19.278c0,0,0.038,6.903,0,6.868c0,0-6.874,0.997-12.308,6.432C1.378,56.691,0.5,62.77,0.5,62.77   c0,1.938,1.575,3.492,3.523,3.492h48.51c1.947,0,3.521-1.558,3.521-3.492C56.055,62.768,54.211,55.906,49.529,51.225z" stroke-miterlimit="10" stroke="#ED9135"/>
	
		<radialGradient gradientTransform="matrix(1 0 0 1 0.3203 -3091.7656)" gradientUnits="userSpaceOnUse" r="23.425" cx="27.5835" id="svg2.face_x5F_white_1_" cy="3117.4922" fx="23.0139" fy="3115.0024">
		<stop offset="0" style="stop-color:#FFD28F"/>
		<stop offset="1" style="stop-color:#FFAB4F"/>
	</radialGradient>
	<path fill="url(#svg2.face_x5F_white_1_)" id="svg2.face_x5F_white_3_" d="M43.676,23.357   c0.086,10.199-6.738,18.52-15.25,18.586c-8.5,0.068-15.464-8.146-15.55-18.344C12.794,13.4,19.618,5.079,28.123,5.012   C36.627,4.945,43.59,13.158,43.676,23.357z" stroke-miterlimit="10" stroke="#ED9135"/>
	
		<linearGradient gradientTransform="matrix(0.275 0 0 -0.2733 -1752.8849 -3350.4617)" x1="6468.5" x2="6492.1294" gradientUnits="userSpaceOnUse" y1="-12286.8594" y2="-12380.3086" id="svg2.face_highlight_1_">
		<stop offset="0" style="stop-color:#FFFFFF;stop-opacity:0.24"/>
		<stop offset="1" style="stop-color:#FFFFFF;stop-opacity:0.16"/>
	</linearGradient>
	<path fill="url(#svg2.face_highlight_1_)" id="svg2.face_highlight_3_" d="M28.415,5.625c-6.035,0.047-10.747,4.493-12.787,10.386   c-0.664,1.919-0.294,4.043,0.98,5.629c2.73,3.398,5.729,6.283,9.461,8.088c3.137,1.518,7.535,2.385,11.893,1.247   c2.274-0.592,3.988-2.459,4.375-4.766c0.187-1.094,0.293-2.289,0.283-3.553C42.54,13.244,36.729,5.56,28.415,5.625z"/>
	<path fill="#5C5C5C" d="M28.372,0.5   C17.537,0.5,8.269,7.748,9.153,26.125c0.563,6.563,5.862,12.042,9.366,13.531c-2.929-10.968-0.304-25.021-0.585-25.526   c-0.281-0.505,3.536,6.728,3.536,6.728l3.183-8.312c5.541,4.28,0.393,11.309,1.049,11.058c4.26-1.631,5.34-9.228,5.34-9.228   s2.729,3.657,2.701,5.504c-0.054,3.562,2.194-6.067,2.194-6.067l1.027,2.031c6.727,9.822,3.684,16.208,1.648,22.781   c15.666-0.703,12.291-10.48,9.66-18.407C43.59,6.092,39.206,0.5,28.372,0.5z" id="svg2.Hair_Female_1_Black_1_" stroke="#353535" stroke-linecap="round" stroke-linejoin="round"/>
	
		<linearGradient gradientTransform="matrix(0.9852 0 0 -0.9852 -34.4844 -3031.9851)" x1="95.9063" x2="31.5133" gradientUnits="userSpaceOnUse" y1="-3134.2153" y2="-3134.2153" id="svg2.body_1_">
		<stop offset="0" style="stop-color:#49AD33"/>
		<stop offset="1" style="stop-color:#C2DA92"/>
	</linearGradient>
	<path fill="url(#svg2.body_1_)" d="M0.5,62.768c0,1.938,1.575,3.494,3.523,3.494h48.51   c1.947,0,3.521-1.559,3.521-3.494c0,0-1.844-6.861-6.525-11.543c-4.815-4.813-8.244-5.146-8.244-5.146   c-1.444,6.983-8.555,8.786-13.007,8.786s-11.322-2.643-11.941-9.439c0,0-4.559,1.199-9.367,5.674   C1.378,56.689,0.5,62.768,0.5,62.768z" id="svg2.body_8_" stroke="#008D33"/>
</g>
</svg>
      </g>
    </g>
    <g text-rendering="geometricPrecision" stroke-miterlimit="1.45" shape-rendering="geometricPrecision" font-family="sans-serif" transform="matrix(1,0,0,1,-253,-188)" stroke-linecap="butt">
      <text x="271.6776" xml:space="preserve" y="424.7996" clip-path="url(#clipPath2)" stroke="none">User B</text>
    </g>
    <g fill="url(#linearGradient4)" text-rendering="geometricPrecision" shape-rendering="geometricPrecision" transform="matrix(1,0,0,1,-253,-188)" stroke="url(#linearGradient4)">
      <path d="M384.6163 204.3501 L477.0309 204.3501 L477.0309 235.306 L384.6163 235.306 Z" stroke="none" clip-path="url(#clipPath2)"/>
    </g>
    <g text-rendering="geometricPrecision" stroke-miterlimit="1.45" shape-rendering="geometricPrecision" transform="matrix(1,0,0,1,-253,-188)" stroke-linecap="butt">
      <path fill="none" d="M384.6163 204.3501 L477.0309 204.3501 L477.0309 235.306 L384.6163 235.306 Z" clip-path="url(#clipPath2)"/>
      <text x="384.3089" xml:space="preserve" y="217.2968" clip-path="url(#clipPath2)" font-family="sans-serif" stroke="none">A Certified App </text>
      <text x="410.5384" xml:space="preserve" y="231.4296" clip-path="url(#clipPath2)" font-family="sans-serif" stroke="none">Service</text>
    </g>
    <g fill="url(#linearGradient5)" text-rendering="geometricPrecision" shape-rendering="geometricPrecision" transform="matrix(1,0,0,1,-253,-188)" stroke="url(#linearGradient5)">
      <path d="M732.1993 204.3501 L824.6139 204.3501 L824.6139 235.306 L732.1993 235.306 Z" stroke="none" clip-path="url(#clipPath2)"/>
    </g>
    <g text-rendering="geometricPrecision" stroke-miterlimit="1.45" shape-rendering="geometricPrecision" transform="matrix(1,0,0,1,-253,-188)" stroke-linecap="butt">
      <path fill="none" d="M732.1993 204.3501 L824.6139 204.3501 L824.6139 235.306 L732.1993 235.306 Z" clip-path="url(#clipPath2)"/>
      <text x="732.5804" xml:space="preserve" y="217.2968" clip-path="url(#clipPath2)" font-family="sans-serif" stroke="none">B Certified App </text>
      <text x="758.1215" xml:space="preserve" y="231.4296" clip-path="url(#clipPath2)" font-family="sans-serif" stroke="none">Service</text>
    </g>
    <g stroke-linecap="butt" transform="matrix(1,0,0,1,-253,-188)" fill="blue" text-rendering="geometricPrecision" shape-rendering="geometricPrecision" stroke="blue" stroke-miterlimit="1.45">
      <path fill="none" d="M304.8797 308.8666 L338.4083 308.8666 L396.158 308.8666 L396.158 315.5498" clip-path="url(#clipPath2)"/>
      <path d="M396.158 323.5498 L401.158 311.5498 L396.158 314.5498 L391.158 311.5498 Z" clip-path="url(#clipPath2)" stroke="none"/>
      <path fill="none" d="M304.2606 308.0556 L525.389 308.0556 L525.389 315.4947" clip-path="url(#clipPath2)"/>
      <path d="M525.389 323.4947 L530.389 311.4947 L525.389 314.4947 L520.389 311.4947 Z" clip-path="url(#clipPath2)" stroke="none"/>
      <path fill="none" stroke-dasharray="6,2" d="M303.0542 397.9697 L413.8889 397.9697 L413.8889 362.5065" clip-path="url(#clipPath2)" stroke="red"/>
      <path fill="red" stroke-dasharray="6,2" d="M413.8889 354.5065 L408.8889 366.5065 L413.8889 363.5065 L418.8889 366.5065 Z" clip-path="url(#clipPath2)" stroke="none"/>
      <path fill="none" stroke-dasharray="6,2" d="M430.8236 243.2785 L430.8236 315.5359" clip-path="url(#clipPath2)" stroke="black"/>
      <path fill="black" stroke-dasharray="6,2" d="M430.8236 235.2785 L425.8236 247.2785 L430.8236 244.2785 L435.8236 247.2785 Z" clip-path="url(#clipPath2)" stroke="none"/>
      <path fill="black" stroke-dasharray="6,2" d="M430.8236 323.5359 L435.8236 311.5359 L430.8236 314.5359 L425.8236 311.5359 Z" clip-path="url(#clipPath2)" stroke="none"/>
      <path fill="none" stroke-dasharray="6,2" d="M724.2147 219.828 L546.399 219.828 L546.399 315.5589" clip-path="url(#clipPath2)" stroke="black"/>
      <path fill="black" stroke-dasharray="6,2" d="M732.2147 219.828 L720.2147 214.828 L723.2147 219.828 L720.2147 224.828 Z" clip-path="url(#clipPath2)" stroke="none"/>
      <path fill="black" stroke-dasharray="6,2" d="M546.399 323.5589 L551.399 311.5589 L546.399 314.5589 L541.399 311.5589 Z" clip-path="url(#clipPath2)" stroke="none"/>
    </g>
    <g fill="rgb(245,245,245)" text-rendering="geometricPrecision" shape-rendering="geometricPrecision" transform="matrix(1,0,0,1,-253,-188)" stroke="rgb(245,245,245)">
      <rect x="827.7824" y="268.5188" clip-path="url(#clipPath2)" width="274.8672" rx="4" ry="4" height="117.54" stroke="none"/>
      <rect x="827.7824" y="268.5188" clip-path="url(#clipPath2)" fill="rgb(235,235,235)" width="274.8672" height="21.666" stroke="none"/>
    </g>
    <g font-size="15px" stroke-linecap="butt" transform="matrix(1,0,0,1,-253,-188)" text-rendering="geometricPrecision" font-family="sans-serif" shape-rendering="geometricPrecision" stroke-miterlimit="1.45">
      <text x="909.6655" xml:space="preserve" y="285.0207" clip-path="url(#clipPath2)" stroke="none">User X's Mobile</text>
      <rect x="827.7824" y="268.5188" clip-path="url(#clipPath2)" fill="none" width="274.8672" stroke-dasharray="6,2" rx="4" ry="4" height="117.54"/>
    </g>
    <g fill="url(#linearGradient6)" text-rendering="geometricPrecision" shape-rendering="geometricPrecision" transform="matrix(1,0,0,1,-253,-188)" stroke="url(#linearGradient6)">
      <path d="M858.0779 317.0763 L950.4924 317.0763 L950.4924 348.0321 L858.0779 348.0321 Z" stroke="none" clip-path="url(#clipPath2)"/>
    </g>
    <g text-rendering="geometricPrecision" stroke-miterlimit="1.45" shape-rendering="geometricPrecision" transform="matrix(1,0,0,1,-253,-188)" stroke-linecap="butt">
      <path fill="none" d="M858.0779 317.0763 L950.4924 317.0763 L950.4924 348.0321 L858.0779 348.0321 Z" clip-path="url(#clipPath2)"/>
      <text x="887.2432" xml:space="preserve" y="337.0894" clip-path="url(#clipPath2)" font-family="sans-serif" stroke="none">B App</text>
    </g>
    <g fill="url(#linearGradient7)" text-rendering="geometricPrecision" shape-rendering="geometricPrecision" transform="matrix(1,0,0,1,-253,-188)" stroke="url(#linearGradient7)">
      <path d="M980.4924 317.0763 L1072.907 317.0763 L1072.907 348.0321 L980.4924 348.0321 Z" stroke="none" clip-path="url(#clipPath2)"/>
    </g>
    <g text-rendering="geometricPrecision" stroke-miterlimit="1.45" shape-rendering="geometricPrecision" transform="matrix(1,0,0,1,-253,-188)" stroke-linecap="butt">
      <path fill="none" d="M980.4924 317.0763 L1072.907 317.0763 L1072.907 348.0321 L980.4924 348.0321 Z" clip-path="url(#clipPath2)"/>
      <text x="1008.9575" xml:space="preserve" y="337.0894" clip-path="url(#clipPath2)" font-family="sans-serif" stroke="none">C App</text>
    </g>
    <g text-rendering="geometricPrecision" stroke-miterlimit="1.45" stroke-dasharray="6,2" shape-rendering="geometricPrecision" transform="matrix(1,0,0,1,-253,-188)" stroke-linecap="butt">
      <path fill="none" d="M904.2852 309.0598 L904.2852 219.828 L832.5969 219.828" clip-path="url(#clipPath2)"/>
      <path d="M904.2852 317.0598 L909.2852 305.0598 L904.2852 308.0598 L899.2852 305.0598 Z" clip-path="url(#clipPath2)" stroke="none"/>
      <path d="M824.5969 219.828 L836.5969 224.828 L833.5969 219.828 L836.5969 214.828 Z" clip-path="url(#clipPath2)" stroke="none"/>
    </g>
    <g fill="rgb(245,245,245)" text-rendering="geometricPrecision" shape-rendering="geometricPrecision" transform="matrix(1,0,0,1,-253,-188)" stroke="rgb(245,245,245)">
      <rect x="574.5366" y="465.3218" clip-path="url(#clipPath2)" width="407.74" rx="4" ry="4" height="128.2544" stroke="none"/>
      <rect x="574.5366" y="465.3218" clip-path="url(#clipPath2)" fill="rgb(235,235,235)" width="407.74" height="21.666" stroke="none"/>
    </g>
    <g font-size="15px" stroke-linecap="butt" transform="matrix(1,0,0,1,-253,-188)" text-rendering="geometricPrecision" font-family="sans-serif" shape-rendering="geometricPrecision" stroke-miterlimit="1.45">
      <text x="732.817" xml:space="preserve" y="481.8238" clip-path="url(#clipPath2)" stroke="none">Cloud Wallet</text>
      <rect x="574.5366" y="465.3218" clip-path="url(#clipPath2)" fill="none" width="407.74" stroke-dasharray="6,2" rx="4" ry="4" height="128.2544"/>
    </g>
    <g fill="url(#linearGradient8)" text-rendering="geometricPrecision" shape-rendering="geometricPrecision" transform="matrix(1,0,0,1,-253,-188)" stroke="url(#linearGradient8)">
      <path d="M603.5366 531.7037 L695.9512 531.7037 L695.9512 562.6597 L603.5366 562.6597 Z" stroke="none" clip-path="url(#clipPath2)"/>
    </g>
    <g text-rendering="geometricPrecision" stroke-miterlimit="1.45" shape-rendering="geometricPrecision" transform="matrix(1,0,0,1,-253,-188)" stroke-linecap="butt">
      <path fill="none" d="M603.5366 531.7037 L695.9512 531.7037 L695.9512 562.6597 L603.5366 562.6597 Z" clip-path="url(#clipPath2)"/>
      <text x="626.2595" xml:space="preserve" y="544.6505" clip-path="url(#clipPath2)" font-family="sans-serif" stroke="none">User A's</text>
      <text x="632.2419" xml:space="preserve" y="558.7833" clip-path="url(#clipPath2)" font-family="sans-serif" stroke="none">Wallet</text>
    </g>
    <g fill="url(#linearGradient9)" text-rendering="geometricPrecision" shape-rendering="geometricPrecision" transform="matrix(1,0,0,1,-253,-188)" stroke="url(#linearGradient9)">
      <path d="M719.112 531.7037 L811.5266 531.7037 L811.5266 562.6597 L719.112 562.6597 Z" stroke="none" clip-path="url(#clipPath2)"/>
    </g>
    <g text-rendering="geometricPrecision" stroke-miterlimit="1.45" shape-rendering="geometricPrecision" transform="matrix(1,0,0,1,-253,-188)" stroke-linecap="butt">
      <path fill="none" d="M719.112 531.7037 L811.5266 531.7037 L811.5266 562.6597 L719.112 562.6597 Z" clip-path="url(#clipPath2)"/>
      <text x="742.5234" xml:space="preserve" y="544.6505" clip-path="url(#clipPath2)" font-family="sans-serif" stroke="none">User B's</text>
      <text x="747.8173" xml:space="preserve" y="558.7833" clip-path="url(#clipPath2)" font-family="sans-serif" stroke="none">Wallet</text>
    </g>
    <g fill="url(#linearGradient10)" text-rendering="geometricPrecision" shape-rendering="geometricPrecision" transform="matrix(1,0,0,1,-253,-188)" stroke="url(#linearGradient10)">
      <path d="M867.7951 531.7037 L960.2097 531.7037 L960.2097 562.6597 L867.7951 562.6597 Z" stroke="none" clip-path="url(#clipPath2)"/>
    </g>
    <g text-rendering="geometricPrecision" stroke-miterlimit="1.45" shape-rendering="geometricPrecision" transform="matrix(1,0,0,1,-253,-188)" stroke-linecap="butt">
      <path fill="none" d="M867.7951 531.7037 L960.2097 531.7037 L960.2097 562.6597 L867.7951 562.6597 Z" clip-path="url(#clipPath2)"/>
      <text x="877.311" xml:space="preserve" y="551.7169" clip-path="url(#clipPath2)" font-family="sans-serif" stroke="none">User X's App</text>
    </g>
    <g font-size="18px" stroke-linecap="butt" transform="matrix(1,0,0,1,-253,-188)" text-rendering="geometricPrecision" font-family="sans-serif" shape-rendering="geometricPrecision" stroke-miterlimit="1.45">
      <text x="831.1179" xml:space="preserve" y="547.3074" clip-path="url(#clipPath2)" stroke="none">...</text>
    </g>
    <g fill="rgb(153,204,0)" text-rendering="geometricPrecision" shape-rendering="geometricPrecision" transform="matrix(1,0,0,1,-253,-188)" stroke="rgb(153,204,0)">
      <ellipse rx="10.5" ry="9.5" clip-path="url(#clipPath2)" cx="744.7024" cy="515.1954" stroke="none"/>
    </g>
    <g text-rendering="geometricPrecision" stroke-miterlimit="1.45" shape-rendering="geometricPrecision" transform="matrix(1,0,0,1,-253,-188)" stroke-linecap="butt">
      <ellipse rx="10.5" fill="none" ry="9.5" clip-path="url(#clipPath2)" cx="744.7024" cy="515.1954"/>
      <text x="735.7756" xml:space="preserve" y="519.7305" clip-path="url(#clipPath2)" font-family="sans-serif" stroke="none">WT</text>
    </g>
    <g fill="rgb(0,204,255)" text-rendering="geometricPrecision" shape-rendering="geometricPrecision" transform="matrix(1,0,0,1,-253,-188)" stroke="rgb(0,204,255)">
      <ellipse rx="10.5" ry="9.5" clip-path="url(#clipPath2)" cx="889.4462" cy="515.1954" stroke="none"/>
    </g>
    <g text-rendering="geometricPrecision" stroke-miterlimit="1.45" shape-rendering="geometricPrecision" transform="matrix(1,0,0,1,-253,-188)" stroke-linecap="butt">
      <ellipse rx="10.5" fill="none" ry="9.5" clip-path="url(#clipPath2)" cx="889.4462" cy="515.1954"/>
      <text x="880.5195" xml:space="preserve" y="519.7305" clip-path="url(#clipPath2)" font-family="sans-serif" stroke="none">WT</text>
    </g>
    <g stroke-linecap="butt" font-size="18px" transform="matrix(1,0,0,1,-253,-188)" fill="red" text-rendering="geometricPrecision" font-family="sans-serif" shape-rendering="geometricPrecision" stroke="red" font-weight="bold" stroke-miterlimit="1.45">
      <text x="333.9061" xml:space="preserve" y="404.79" clip-path="url(#clipPath2)" stroke="none">X</text>
    </g>
    <g fill="rgb(255,204,0)" text-rendering="geometricPrecision" shape-rendering="geometricPrecision" transform="matrix(1,0,0,1,-253,-188)" stroke="rgb(255,204,0)">
      <ellipse rx="10.5" ry="9.5" clip-path="url(#clipPath2)" cx="634.3927" cy="515.1954" stroke="none"/>
    </g>
    <g text-rendering="geometricPrecision" stroke-miterlimit="1.45" shape-rendering="geometricPrecision" transform="matrix(1,0,0,1,-253,-188)" stroke-linecap="butt">
      <ellipse rx="10.5" fill="none" ry="9.5" clip-path="url(#clipPath2)" cx="634.3927" cy="515.1954"/>
      <text x="625.4659" xml:space="preserve" y="519.7305" clip-path="url(#clipPath2)" font-family="sans-serif" stroke="none">WT</text>
    </g>
    <g stroke-linecap="butt" font-size="18px" transform="matrix(1,0,0,1,-253,-188)" fill="red" text-rendering="geometricPrecision" font-family="sans-serif" shape-rendering="geometricPrecision" stroke="red" font-weight="bold" stroke-miterlimit="1.45">
      <text x="656.9682" xml:space="preserve" y="413.1625" clip-path="url(#clipPath2)" stroke="none">X</text>
    </g>
    <g stroke-linecap="butt" font-size="18px" transform="matrix(1,0,0,1,-253,-188)" fill="red" text-rendering="geometricPrecision" font-family="sans-serif" shape-rendering="geometricPrecision" stroke="red" font-weight="bold" stroke-miterlimit="1.45">
      <text x="1020.981" xml:space="preserve" y="428.6246" clip-path="url(#clipPath2)" stroke="none">X</text>
    </g>
    <g fill="url(#linearGradient11)" text-rendering="geometricPrecision" shape-rendering="geometricPrecision" transform="matrix(1,0,0,1,-253,-188)" stroke="url(#linearGradient11)">
      <path d="M732.1993 644.332 L824.6139 644.332 L824.6139 675.2879 L732.1993 675.2879 Z" stroke="none" clip-path="url(#clipPath2)"/>
    </g>
    <g text-rendering="geometricPrecision" stroke-miterlimit="1.45" shape-rendering="geometricPrecision" transform="matrix(1,0,0,1,-253,-188)" stroke-linecap="butt">
      <path fill="none" d="M732.1993 644.332 L824.6139 644.332 L824.6139 675.2879 L732.1993 675.2879 Z" clip-path="url(#clipPath2)"/>
      <text x="738.7211" xml:space="preserve" y="664.3452" clip-path="url(#clipPath2)" font-family="sans-serif" stroke="none">Wallet Service</text>
    </g>
    <g text-rendering="geometricPrecision" stroke-miterlimit="1.45" shape-rendering="geometricPrecision" transform="matrix(1,0,0,1,-253,-188)" stroke-linecap="butt">
      <path fill="none" d="M430.8236 354.521 L430.8236 439.8598 L649.7439 439.8598 L649.7439 523.6965" clip-path="url(#clipPath2)"/>
      <path d="M649.7439 531.6965 L654.7439 519.6965 L649.7439 522.6965 L644.7439 519.6965 Z" clip-path="url(#clipPath2)" stroke="none"/>
      <path fill="none" stroke-dasharray="6,2" d="M662.9711 354.5052 L662.9711 523.7405" clip-path="url(#clipPath2)" stroke="red"/>
      <path fill="red" stroke-dasharray="6,2" d="M662.9711 531.7405 L667.9711 519.7405 L662.9711 522.7405 L657.9711 519.7405 Z" clip-path="url(#clipPath2)" stroke="none"/>
      <path fill="none" d="M546.399 354.4481 L546.399 438.7525 L765.3193 438.7525 L765.3193 523.6956" clip-path="url(#clipPath2)"/>
      <path d="M765.3193 531.6956 L770.3193 519.6956 L765.3193 522.6956 L760.3193 519.6956 Z" clip-path="url(#clipPath2)" stroke="none"/>
      <path fill="none" d="M904.2852 348.0101 L904.2852 523.6576" clip-path="url(#clipPath2)"/>
      <path d="M904.2852 531.6576 L909.2852 519.6576 L904.2852 522.6576 L899.2852 519.6576 Z" clip-path="url(#clipPath2)" stroke="none"/>
      <path fill="none" stroke-dasharray="6,2" d="M1026.6997 348.0114 L1026.6997 449.5836 L926.1393 449.5836 L926.1393 523.6936" clip-path="url(#clipPath2)" stroke="red"/>
      <path fill="red" stroke-dasharray="6,2" d="M926.1393 531.6936 L931.1393 519.6936 L926.1393 522.6936 L921.1393 519.6936 Z" clip-path="url(#clipPath2)" stroke="none"/>
      <path fill="none" stroke-dasharray="6,2" d="M778.4066 601.5792 L778.4066 636.3195" clip-path="url(#clipPath2)"/>
      <path stroke-dasharray="6,2" d="M778.4066 593.5792 L773.4066 605.5792 L778.4066 602.5792 L783.4066 605.5792 Z" clip-path="url(#clipPath2)" stroke="none"/>
      <path stroke-dasharray="6,2" d="M778.4066 644.3195 L783.4066 632.3195 L778.4066 635.3195 L773.4066 632.3195 Z" clip-path="url(#clipPath2)" stroke="none"/>
    </g>
  </g>
</svg>
