<?xml version="1.0" encoding="UTF-8"?><svg xmlns="http://www.w3.org/2000/svg" xmlns:xlink="http://www.w3.org/1999/xlink" fill-opacity="1" color-rendering="auto" color-interpolation="auto" text-rendering="auto" stroke="black" stroke-linecap="square" width="864" stroke-miterlimit="10" shape-rendering="auto" stroke-opacity="1" fill="black" stroke-dasharray="none" font-weight="normal" stroke-width="1" height="502" font-family="'Dialog'" font-style="normal" stroke-linejoin="miter" font-size="12px" stroke-dashoffset="0" image-rendering="auto">
  <!--Generated by ySVG 2.6-->
  <defs id="genericDefs"/>
  <g>
    <defs id="defs1">
      <linearGradient x1="455.7344" gradientUnits="userSpaceOnUse" x2="548.1489" y1="378.3564" y2="409.3123" id="linearGradient1" spreadMethod="reflect">
        <stop stop-opacity="1" stop-color="white" offset="0%"/>
        <stop stop-opacity="1" stop-color="white" offset="100%"/>
      </linearGradient>
      <linearGradient x1="571.3098" gradientUnits="userSpaceOnUse" x2="663.7244" y1="378.3564" y2="409.3123" id="linearGradient2" spreadMethod="reflect">
        <stop stop-opacity="1" stop-color="white" offset="0%"/>
        <stop stop-opacity="1" stop-color="white" offset="100%"/>
      </linearGradient>
      <linearGradient x1="687.8819" gradientUnits="userSpaceOnUse" x2="780.2965" y1="378.3564" y2="409.3123" id="linearGradient3" spreadMethod="reflect">
        <stop stop-opacity="1" stop-color="white" offset="0%"/>
        <stop stop-opacity="1" stop-color="white" offset="100%"/>
      </linearGradient>
      <linearGradient x1="455.7344" gradientUnits="userSpaceOnUse" x2="548.1489" y1="259.175" y2="290.1309" id="linearGradient4" spreadMethod="reflect">
        <stop stop-opacity="1" stop-color="white" offset="0%"/>
        <stop stop-opacity="1" stop-color="white" offset="100%"/>
      </linearGradient>
      <linearGradient x1="803.3174" gradientUnits="userSpaceOnUse" x2="895.732" y1="259.175" y2="290.1309" id="linearGradient5" spreadMethod="reflect">
        <stop stop-opacity="1" stop-color="white" offset="0%"/>
        <stop stop-opacity="1" stop-color="white" offset="100%"/>
      </linearGradient>
      <linearGradient x1="929.196" gradientUnits="userSpaceOnUse" x2="1021.6105" y1="371.9012" y2="402.8571" id="linearGradient6" spreadMethod="reflect">
        <stop stop-opacity="1" stop-color="white" offset="0%"/>
        <stop stop-opacity="1" stop-color="white" offset="100%"/>
      </linearGradient>
      <linearGradient x1="1051.6105" gradientUnits="userSpaceOnUse" x2="1144.025" y1="371.9012" y2="402.8571" id="linearGradient7" spreadMethod="reflect">
        <stop stop-opacity="1" stop-color="white" offset="0%"/>
        <stop stop-opacity="1" stop-color="white" offset="100%"/>
      </linearGradient>
      <linearGradient x1="674.6547" gradientUnits="userSpaceOnUse" x2="767.0692" y1="586.5287" y2="617.4846" id="linearGradient8" spreadMethod="reflect">
        <stop stop-opacity="1" stop-color="white" offset="0%"/>
        <stop stop-opacity="1" stop-color="white" offset="100%"/>
      </linearGradient>
      <linearGradient x1="790.2301" gradientUnits="userSpaceOnUse" x2="882.6447" y1="586.5287" y2="617.4846" id="linearGradient9" spreadMethod="reflect">
        <stop stop-opacity="1" stop-color="white" offset="0%"/>
        <stop stop-opacity="1" stop-color="white" offset="100%"/>
      </linearGradient>
      <linearGradient x1="938.9131" gradientUnits="userSpaceOnUse" x2="1031.3278" y1="586.5287" y2="617.4846" id="linearGradient10" spreadMethod="reflect">
        <stop stop-opacity="1" stop-color="white" offset="0%"/>
        <stop stop-opacity="1" stop-color="white" offset="100%"/>
      </linearGradient>
      <linearGradient x1="803.3174" gradientUnits="userSpaceOnUse" x2="895.732" y1="699.157" y2="730.1129" id="linearGradient11" spreadMethod="reflect">
        <stop stop-opacity="1" stop-color="white" offset="0%"/>
        <stop stop-opacity="1" stop-color="white" offset="100%"/>
      </linearGradient>
      <clipPath clipPathUnits="userSpaceOnUse" id="clipPath1">
        <path d="M0 0 L864 0 L864 502 L0 502 L0 0 Z"/>
      </clipPath>
      <clipPath clipPathUnits="userSpaceOnUse" id="clipPath2">
        <path d="M325 244 L1189 244 L1189 746 L325 746 L325 244 Z"/>
      </clipPath>
      <clipPath clipPathUnits="userSpaceOnUse" id="clipPath3">
        <path d="M-30.9363 -164.1972 L1384.6473 -164.1972 L1384.6473 748.0397 L-30.9363 748.0397 L-30.9363 -164.1972 Z"/>
      </clipPath>
      <clipPath clipPathUnits="userSpaceOnUse" id="clipPath4">
        <path d="M-30.9363 -329.4305 L1384.6473 -329.4305 L1384.6473 582.8064 L-30.9363 582.8064 L-30.9363 -329.4305 Z"/>
      </clipPath>
    </defs>
    <g fill="white" text-rendering="geometricPrecision" shape-rendering="geometricPrecision" transform="translate(-325,-244)" stroke="white">
      <rect x="325" width="864" height="502" y="244" clip-path="url(#clipPath2)" stroke="none"/>
    </g>
    <g fill="rgb(245,245,245)" text-rendering="geometricPrecision" shape-rendering="geometricPrecision" transform="matrix(1,0,0,1,-325,-244)" stroke="rgb(245,245,245)">
      <rect x="426.7344" y="329.7989" clip-path="url(#clipPath2)" width="373.4146" rx="4" ry="4" height="111.0848" stroke="none"/>
      <rect x="426.7344" y="329.7989" clip-path="url(#clipPath2)" fill="rgb(235,235,235)" width="373.4146" height="21.666" stroke="none"/>
    </g>
    <g font-size="15px" stroke-linecap="butt" transform="matrix(1,0,0,1,-325,-244)" text-rendering="geometricPrecision" font-family="sans-serif" shape-rendering="geometricPrecision" stroke-miterlimit="1.45">
      <text x="557.4114" xml:space="preserve" y="346.3008" clip-path="url(#clipPath2)" stroke="none">User A's Mobile</text>
      <rect x="426.7344" y="329.7989" clip-path="url(#clipPath2)" fill="none" width="373.4146" stroke-dasharray="6,2" rx="4" ry="4" height="111.0848"/>
    </g>
    <g fill="url(#linearGradient1)" text-rendering="geometricPrecision" shape-rendering="geometricPrecision" transform="matrix(1,0,0,1,-325,-244)" stroke="url(#linearGradient1)">
      <path d="M455.7344 378.3564 L548.1489 378.3564 L548.1489 409.3123 L455.7344 409.3123 Z" stroke="none" clip-path="url(#clipPath2)"/>
    </g>
    <g text-rendering="geometricPrecision" stroke-miterlimit="1.45" shape-rendering="geometricPrecision" transform="matrix(1,0,0,1,-325,-244)" stroke-linecap="butt">
      <path fill="none" d="M455.7344 378.3564 L548.1489 378.3564 L548.1489 409.3123 L455.7344 409.3123 Z" clip-path="url(#clipPath2)"/>
      <text x="484.2112" xml:space="preserve" y="398.3695" clip-path="url(#clipPath2)" font-family="sans-serif" stroke="none">A App</text>
    </g>
    <g fill="url(#linearGradient2)" text-rendering="geometricPrecision" shape-rendering="geometricPrecision" transform="matrix(1,0,0,1,-325,-244)" stroke="url(#linearGradient2)">
      <path d="M571.3098 378.3564 L663.7244 378.3564 L663.7244 409.3123 L571.3098 409.3123 Z" stroke="none" clip-path="url(#clipPath2)"/>
    </g>
    <g text-rendering="geometricPrecision" stroke-miterlimit="1.45" shape-rendering="geometricPrecision" transform="matrix(1,0,0,1,-325,-244)" stroke-linecap="butt">
      <path fill="none" d="M571.3098 378.3564 L663.7244 378.3564 L663.7244 409.3123 L571.3098 409.3123 Z" clip-path="url(#clipPath2)"/>
      <text x="600.4751" xml:space="preserve" y="398.3695" clip-path="url(#clipPath2)" font-family="sans-serif" stroke="none">B App</text>
    </g>
    <g fill="url(#linearGradient3)" text-rendering="geometricPrecision" shape-rendering="geometricPrecision" transform="matrix(1,0,0,1,-325,-244)" stroke="url(#linearGradient3)">
      <path d="M687.8819 378.3564 L780.2965 378.3564 L780.2965 409.3123 L687.8819 409.3123 Z" stroke="none" clip-path="url(#clipPath2)"/>
    </g>
    <g text-rendering="geometricPrecision" stroke-miterlimit="1.45" shape-rendering="geometricPrecision" transform="matrix(1,0,0,1,-325,-244)" stroke-linecap="butt">
      <path fill="none" d="M687.8819 378.3564 L780.2965 378.3564 L780.2965 409.3123 L687.8819 409.3123 Z" clip-path="url(#clipPath2)"/>
      <text x="716.347" xml:space="preserve" y="398.3695" clip-path="url(#clipPath2)" font-family="sans-serif" stroke="none">C App</text>
    </g>
    <g text-rendering="geometricPrecision" shape-rendering="geometricPrecision" transform="matrix(0.6103,0,0,0.5503,18.8819,90.357)">
      <g clip-path="url(#clipPath3)">
        <svg xml:space="preserve" opacity="1" writing-mode="lr-tb" stop-color="rgb(0, 0, 0)" shape-rendering="auto" glyph-orientation-horizontal="0deg" color-profile="auto" lighting-color="rgb(255, 255, 255)" color="rgb(0, 0, 0)" font-weight="400" alignment-baseline="auto" font-style="normal" version="1.1" color-interpolation-filters="linearrgb" text-anchor="start" stroke-linecap="butt" color-interpolation="srgb" font-variant="normal" word-spacing="normal" fill-opacity="1" text-rendering="auto" clip-path="none" text-decoration="none" letter-spacing="normal" viewBox="0 0 57 67" glyph-orientation-vertical="auto" display="inline" font-size-adjust="none" overflow="hidden" fill="rgb(0, 0, 0)" font-stretch="normal" stroke-dasharray="none" id="svg1.Ebene_1" stroke-miterlimit="4" stop-opacity="1" color-rendering="auto" font-size="12" pointer-events="visiblepainted" mask="none" direction="ltr" baseline-shift="baseline" enable-background="new 0 0 57 67" fill-rule="nonzero" image-rendering="auto" stroke-dashoffset="0" width="57px" marker-end="none" clip="auto" cursor="auto" stroke="none" filter="none" visibility="visible" kerning="auto" stroke-width="1" font-family="&quot;Arial&quot;,&quot;Helvetica&quot;,sans-serif" flood-opacity="1" clip-rule="nonzero" src="none" height="67px" unicode-bidi="normal" stroke-linejoin="miter" stroke-opacity="1" flood-color="rgb(0, 0, 0)" dominant-baseline="auto" marker-start="none" x="0px" marker-mid="none" y="0px">
<g>
	
		<linearGradient gradientTransform="matrix(1 0 0 1 0.3203 -3091.7656)" x1="26.3398" x2="27.5807" gradientUnits="userSpaceOnUse" y1="3115.7266" y2="3145.5239" id="svg1.SVGID_1_">
		<stop offset="0.2711" style="stop-color:#FFAB4F"/>
		<stop offset="1" style="stop-color:#FFD28F"/>
	</linearGradient>
	<path fill="url(#svg1.SVGID_1_)" d="M49.529,51.225c-4.396-4.396-10.951-5.884-12.063-6.109   V37.8H19.278c0,0,0.038,6.903,0,6.868c0,0-6.874,0.997-12.308,6.432C1.378,56.691,0.5,62.77,0.5,62.77   c0,1.938,1.575,3.492,3.523,3.492h48.51c1.947,0,3.521-1.558,3.521-3.492C56.055,62.768,54.211,55.906,49.529,51.225z" stroke-miterlimit="10" stroke="#ED9135"/>
	
		<radialGradient gradientTransform="matrix(1 0 0 1 0.3203 -3091.7656)" gradientUnits="userSpaceOnUse" r="23.425" cx="27.5835" id="svg1.face_x5F_white_1_" cy="3117.4922" fx="23.0139" fy="3115.0024">
		<stop offset="0" style="stop-color:#FFD28F"/>
		<stop offset="1" style="stop-color:#FFAB4F"/>
	</radialGradient>
	<path fill="url(#svg1.face_x5F_white_1_)" id="svg1.face_x5F_white_3_" d="M43.676,23.357   c0.086,10.199-6.738,18.52-15.25,18.586c-8.5,0.068-15.464-8.146-15.55-18.344C12.794,13.4,19.618,5.079,28.123,5.012   C36.627,4.945,43.59,13.158,43.676,23.357z" stroke-miterlimit="10" stroke="#ED9135"/>
	
		<linearGradient gradientTransform="matrix(0.275 0 0 -0.2733 -1752.8849 -3350.4617)" x1="6468.5" x2="6492.1294" gradientUnits="userSpaceOnUse" y1="-12286.8594" y2="-12380.3086" id="svg1.face_highlight_1_">
		<stop offset="0" style="stop-color:#FFFFFF;stop-opacity:0.24"/>
		<stop offset="1" style="stop-color:#FFFFFF;stop-opacity:0.16"/>
	</linearGradient>
	<path fill="url(#svg1.face_highlight_1_)" id="svg1.face_highlight_3_" d="M28.415,5.625c-6.035,0.047-10.747,4.493-12.787,10.386   c-0.664,1.919-0.294,4.043,0.98,5.629c2.73,3.398,5.729,6.283,9.461,8.088c3.137,1.518,7.535,2.385,11.893,1.247   c2.274-0.592,3.988-2.459,4.375-4.766c0.187-1.094,0.293-2.289,0.283-3.553C42.54,13.244,36.729,5.56,28.415,5.625z"/>
	<path fill="#CC9869" d="M28.372,0.5   C17.537,0.5,8.269,7.748,9.153,26.125c0.563,6.563,5.862,12.042,9.366,13.531c-2.929-10.968-0.304-25.021-0.585-25.526   c-0.281-0.505,3.536,6.728,3.536,6.728l3.183-8.312c5.541,4.28,0.393,11.309,1.049,11.058c4.26-1.631,5.34-9.228,5.34-9.228   s2.729,3.657,2.701,5.504c-0.054,3.562,2.194-6.067,2.194-6.067l1.027,2.031c6.727,9.822,3.684,16.208,1.648,22.781   c15.666-0.703,12.291-10.48,9.66-18.407C43.59,6.092,39.206,0.5,28.372,0.5z" id="svg1.Hair_Female_1_Brown_4_" stroke="#99724F" stroke-linecap="round" stroke-linejoin="round"/>
	
		<radialGradient gradientTransform="matrix(1 0 0 -1 0.04 66.1543)" id="svg1.collar_x5F_body_1_" r="32.4004" cx="15.2412" gradientUnits="userSpaceOnUse" cy="11.9829">
		<stop offset="0" style="stop-color:#FCB57A"/>
		<stop offset="1" style="stop-color:#FF8C36"/>
	</radialGradient>
	<path fill="url(#svg1.collar_x5F_body_1_)" d="M0.5,62.768c0,1.938,1.575,3.494,3.523,3.494   h48.51c1.947,0,3.521-1.559,3.521-3.494c0,0-1.844-6.861-6.525-11.543c-4.815-4.813-11.244-6.146-11.244-6.146   c-1.771,1.655-5.61,2.802-10.063,2.802c-4.453,0-8.292-1.146-10.063-2.802c0,0-5.755,0.586-11.189,6.021   C1.378,56.689,0.5,62.768,0.5,62.768z" id="svg1.collar_x5F_body_2_" stroke="#E55E03"/>
	
		<radialGradient gradientTransform="matrix(1 0 0 -1 0.04 66.1543)" id="svg1.collar_x5F_r_1_" r="9.2823" cx="31.5801" gradientUnits="userSpaceOnUse" cy="17.957">
		<stop offset="0" style="stop-color:#FCB57A"/>
		<stop offset="1" style="stop-color:#FF8C36"/>
	</radialGradient>
	<path fill="url(#svg1.collar_x5F_r_1_)" d="M38.159,41.381c0,0-0.574,2.369-3.013,4.441   c-2.108,1.795-5.783,2.072-5.783,2.072l3.974,6.217c0,0,2.957-1.637,5.009-3.848c1.922-2.072,1.37-5.479,1.37-5.479L38.159,41.381z   " id="svg1.collar_x5F_r_2_" stroke="#E55E03"/>
	
		<radialGradient gradientTransform="matrix(1 0 0 -1 0.04 66.1543)" id="svg1.collar_x5F_l_1_" r="9.2843" cx="19.2178" gradientUnits="userSpaceOnUse" cy="17.916">
		<stop offset="0" style="stop-color:#FCB57A"/>
		<stop offset="1" style="stop-color:#FF8C36"/>
	</radialGradient>
	<path fill="url(#svg1.collar_x5F_l_1_)" d="M18.63,41.422c0,0,0.576,2.369,3.012,4.441   c2.109,1.793,5.785,2.072,5.785,2.072l-3.974,6.217c0,0-2.957-1.637-5.007-3.85c-1.922-2.072-1.37-5.48-1.37-5.48L18.63,41.422z" id="svg1.collar_x5F_l_2_" stroke="#E55E03"/>
	
		<linearGradient gradientTransform="matrix(0.9852 0 0 -0.9852 -34.4844 -3031.9851)" x1="95.9063" x2="31.5133" gradientUnits="userSpaceOnUse" y1="-3134.0396" y2="-3134.0396" id="svg1.body_1_">
		<stop offset="0" style="stop-color:#49AD33"/>
		<stop offset="1" style="stop-color:#C2DA92"/>
	</linearGradient>
	<path fill="url(#svg1.body_1_)" d="M0.5,62.768c0,1.938,1.575,3.494,3.523,3.494h48.51   c1.947,0,3.521-1.559,3.521-3.494c0,0-1.844-6.861-6.525-11.543c-4.815-4.813-11.244-6.146-11.244-6.146   c-1.771,1.655-5.61,2.802-10.063,2.802c-4.453,0-8.292-1.146-10.063-2.802c0,0-5.755,0.586-11.189,6.021   C1.378,56.689,0.5,62.768,0.5,62.768z" id="svg1.body_15_" stroke="#008D33"/>
	
		<linearGradient gradientTransform="matrix(1 0 0 1 0.3203 -3091.7656)" x1="41.0879" x2="15.0673" gradientUnits="userSpaceOnUse" y1="3138.3994" y2="3138.3994" id="svg1.turtleneck_1_">
		<stop offset="0" style="stop-color:#49AD33"/>
		<stop offset="1" style="stop-color:#C2DA92"/>
	</linearGradient>
	<path fill="url(#svg1.turtleneck_1_)" d="M39.715,44.786l-1.557-3.405   c0,0-0.574,2.369-3.012,4.441c-2.109,1.795-6.785,2.072-6.785,2.072s-4.753-0.356-6.722-2.031   c-2.436-2.072-3.012-4.441-3.012-4.441l-1.555,3.404c0,0-0.552,1.404,1.37,3.479c1.025,1.105,5.203,3.611,9.682,3.582   c4.479-0.029,9.264-2.594,10.218-3.623C40.266,46.191,39.715,44.786,39.715,44.786z" id="svg1.turtleneck_11_" stroke="#008D33"/>
	
		<radialGradient gradientTransform="matrix(0.9852 0 0 -0.9852 -34.4844 -3031.9851)" id="svg1.body_2_" r="32.8877" cx="50.5117" gradientUnits="userSpaceOnUse" cy="-3132.519">
		<stop offset="0" style="stop-color:#FCB57A"/>
		<stop offset="1" style="stop-color:#FF8C36"/>
	</radialGradient>
	<path fill="url(#svg1.body_2_)" d="M0.5,62.768c0,1.938,1.575,3.494,3.523,3.494h48.51   c1.947,0,3.521-1.559,3.521-3.494c0,0-1.844-6.861-6.525-11.543c-4.815-4.813-11.244-6.146-11.244-6.146   c-1.771,1.655-5.61,2.802-10.063,2.802c-4.453,0-8.292-1.146-10.063-2.802c0,0-5.755,0.586-11.189,6.021   C1.378,56.689,0.5,62.768,0.5,62.768z" id="svg1.body_14_" stroke="#E55E03"/>
	
		<radialGradient gradientTransform="matrix(1 0 0 1 0.3203 -3091.7656)" id="svg1.turtleneck_2_" r="13.5363" cx="22.7432" gradientUnits="userSpaceOnUse" cy="3139.1426">
		<stop offset="0" style="stop-color:#FCB57A"/>
		<stop offset="1" style="stop-color:#FF8C36"/>
	</radialGradient>
	<path fill="url(#svg1.turtleneck_2_)" d="M39.715,44.786l-1.557-3.405   c0,0-0.574,2.369-3.012,4.441c-2.109,1.795-6.785,2.072-6.785,2.072s-4.753-0.356-6.722-2.031   c-2.436-2.072-3.012-4.441-3.012-4.441l-1.555,3.404c0,0-0.552,1.404,1.37,3.479c1.025,1.105,5.203,3.611,9.682,3.582   c4.479-0.029,9.264-2.594,10.218-3.623C40.266,46.191,39.715,44.786,39.715,44.786z" id="svg1.turtleneck_10_" stroke="#E55E03"/>
</g>
</svg>
      </g>
    </g>
    <g text-rendering="geometricPrecision" stroke-miterlimit="1.45" shape-rendering="geometricPrecision" font-family="sans-serif" transform="matrix(1,0,0,1,-325,-244)" stroke-linecap="butt">
      <text x="342.1072" xml:space="preserve" y="388.6974" clip-path="url(#clipPath2)" stroke="none">User A</text>
    </g>
    <g text-rendering="geometricPrecision" shape-rendering="geometricPrecision" transform="matrix(0.6103,0,0,0.5503,18.8819,181.2842)">
      <g clip-path="url(#clipPath4)">
        <svg xml:space="preserve" opacity="1" writing-mode="lr-tb" stop-color="rgb(0, 0, 0)" shape-rendering="auto" glyph-orientation-horizontal="0deg" color-profile="auto" lighting-color="rgb(255, 255, 255)" color="rgb(0, 0, 0)" font-weight="400" alignment-baseline="auto" font-style="normal" version="1.1" color-interpolation-filters="linearrgb" text-anchor="start" stroke-linecap="butt" color-interpolation="srgb" font-variant="normal" word-spacing="normal" fill-opacity="1" text-rendering="auto" clip-path="none" text-decoration="none" letter-spacing="normal" viewBox="0 0 57 67" glyph-orientation-vertical="auto" display="inline" font-size-adjust="none" overflow="hidden" fill="rgb(0, 0, 0)" font-stretch="normal" stroke-dasharray="none" id="svg2.Ebene_1" stroke-miterlimit="4" stop-opacity="1" color-rendering="auto" font-size="12" pointer-events="visiblepainted" mask="none" direction="ltr" baseline-shift="baseline" enable-background="new 0 0 57 67" fill-rule="nonzero" image-rendering="auto" stroke-dashoffset="0" width="57px" marker-end="none" clip="auto" cursor="auto" stroke="none" filter="none" visibility="visible" kerning="auto" stroke-width="1" font-family="&quot;Arial&quot;,&quot;Helvetica&quot;,sans-serif" flood-opacity="1" clip-rule="nonzero" src="none" height="67px" unicode-bidi="normal" stroke-linejoin="miter" stroke-opacity="1" flood-color="rgb(0, 0, 0)" dominant-baseline="auto" marker-start="none" x="0px" marker-mid="none" y="0px">
<g>
	
		<linearGradient gradientTransform="matrix(1 0 0 1 0.3203 -3091.7656)" x1="26.3398" x2="27.5807" gradientUnits="userSpaceOnUse" y1="3115.7266" y2="3145.5239" id="svg2.SVGID_1_">
		<stop offset="0.2711" style="stop-color:#FFAB4F"/>
		<stop offset="1" style="stop-color:#FFD28F"/>
	</linearGradient>
	<path fill="url(#svg2.SVGID_1_)" d="M49.529,51.225c-4.396-4.396-10.951-5.884-12.063-6.109   V37.8H19.278c0,0,0.038,6.903,0,6.868c0,0-6.874,0.997-12.308,6.432C1.378,56.691,0.5,62.77,0.5,62.77   c0,1.938,1.575,3.492,3.523,3.492h48.51c1.947,0,3.521-1.558,3.521-3.492C56.055,62.768,54.211,55.906,49.529,51.225z" stroke-miterlimit="10" stroke="#ED9135"/>
	
		<radialGradient gradientTransform="matrix(1 0 0 1 0.3203 -3091.7656)" gradientUnits="userSpaceOnUse" r="23.425" cx="27.5835" id="svg2.face_x5F_white_1_" cy="3117.4922" fx="23.0139" fy="3115.0024">
		<stop offset="0" style="stop-color:#FFD28F"/>
		<stop offset="1" style="stop-color:#FFAB4F"/>
	</radialGradient>
	<path fill="url(#svg2.face_x5F_white_1_)" id="svg2.face_x5F_white_3_" d="M43.676,23.357   c0.086,10.199-6.738,18.52-15.25,18.586c-8.5,0.068-15.464-8.146-15.55-18.344C12.794,13.4,19.618,5.079,28.123,5.012   C36.627,4.945,43.59,13.158,43.676,23.357z" stroke-miterlimit="10" stroke="#ED9135"/>
	
		<linearGradient gradientTransform="matrix(0.275 0 0 -0.2733 -1752.8849 -3350.4617)" x1="6468.5" x2="6492.1294" gradientUnits="userSpaceOnUse" y1="-12286.8594" y2="-12380.3086" id="svg2.face_highlight_1_">
		<stop offset="0" style="stop-color:#FFFFFF;stop-opacity:0.24"/>
		<stop offset="1" style="stop-color:#FFFFFF;stop-opacity:0.16"/>
	</linearGradient>
	<path fill="url(#svg2.face_highlight_1_)" id="svg2.face_highlight_3_" d="M28.415,5.625c-6.035,0.047-10.747,4.493-12.787,10.386   c-0.664,1.919-0.294,4.043,0.98,5.629c2.73,3.398,5.729,6.283,9.461,8.088c3.137,1.518,7.535,2.385,11.893,1.247   c2.274-0.592,3.988-2.459,4.375-4.766c0.187-1.094,0.293-2.289,0.283-3.553C42.54,13.244,36.729,5.56,28.415,5.625z"/>
	<path fill="#5C5C5C" d="M28.372,0.5   C17.537,0.5,8.269,7.748,9.153,26.125c0.563,6.563,5.862,12.042,9.366,13.531c-2.929-10.968-0.304-25.021-0.585-25.526   c-0.281-0.505,3.536,6.728,3.536,6.728l3.183-8.312c5.541,4.28,0.393,11.309,1.049,11.058c4.26-1.631,5.34-9.228,5.34-9.228   s2.729,3.657,2.701,5.504c-0.054,3.562,2.194-6.067,2.194-6.067l1.027,2.031c6.727,9.822,3.684,16.208,1.648,22.781   c15.666-0.703,12.291-10.48,9.66-18.407C43.59,6.092,39.206,0.5,28.372,0.5z" id="svg2.Hair_Female_1_Black_1_" stroke="#353535" stroke-linecap="round" stroke-linejoin="round"/>
	
		<linearGradient gradientTransform="matrix(0.9852 0 0 -0.9852 -34.4844 -3031.9851)" x1="95.9063" x2="31.5133" gradientUnits="userSpaceOnUse" y1="-3134.2153" y2="-3134.2153" id="svg2.body_1_">
		<stop offset="0" style="stop-color:#49AD33"/>
		<stop offset="1" style="stop-color:#C2DA92"/>
	</linearGradient>
	<path fill="url(#svg2.body_1_)" d="M0.5,62.768c0,1.938,1.575,3.494,3.523,3.494h48.51   c1.947,0,3.521-1.559,3.521-3.494c0,0-1.844-6.861-6.525-11.543c-4.815-4.813-8.244-5.146-8.244-5.146   c-1.444,6.983-8.555,8.786-13.007,8.786s-11.322-2.643-11.941-9.439c0,0-4.559,1.199-9.367,5.674   C1.378,56.689,0.5,62.768,0.5,62.768z" id="svg2.body_8_" stroke="#008D33"/>
</g>
</svg>
      </g>
    </g>
    <g text-rendering="geometricPrecision" stroke-miterlimit="1.45" shape-rendering="geometricPrecision" font-family="sans-serif" transform="matrix(1,0,0,1,-325,-244)" stroke-linecap="butt">
      <text x="342.7957" xml:space="preserve" y="479.6246" clip-path="url(#clipPath2)" stroke="none">User B</text>
    </g>
    <g fill="url(#linearGradient4)" text-rendering="geometricPrecision" shape-rendering="geometricPrecision" transform="matrix(1,0,0,1,-325,-244)" stroke="url(#linearGradient4)">
      <path d="M455.7344 259.175 L548.1489 259.175 L548.1489 290.1309 L455.7344 290.1309 Z" stroke="none" clip-path="url(#clipPath2)"/>
    </g>
    <g text-rendering="geometricPrecision" stroke-miterlimit="1.45" shape-rendering="geometricPrecision" transform="matrix(1,0,0,1,-325,-244)" stroke-linecap="butt">
      <path fill="none" d="M455.7344 259.175 L548.1489 259.175 L548.1489 290.1309 L455.7344 290.1309 Z" clip-path="url(#clipPath2)"/>
      <text x="462.8651" xml:space="preserve" y="279.1881" clip-path="url(#clipPath2)" font-family="sans-serif" stroke="none">A 인가앱 서비스</text>
    </g>
    <g fill="url(#linearGradient5)" text-rendering="geometricPrecision" shape-rendering="geometricPrecision" transform="matrix(1,0,0,1,-325,-244)" stroke="url(#linearGradient5)">
      <path d="M803.3174 259.175 L895.732 259.175 L895.732 290.1309 L803.3174 290.1309 Z" stroke="none" clip-path="url(#clipPath2)"/>
    </g>
    <g text-rendering="geometricPrecision" stroke-miterlimit="1.45" shape-rendering="geometricPrecision" transform="matrix(1,0,0,1,-325,-244)" stroke-linecap="butt">
      <path fill="none" d="M803.3174 259.175 L895.732 259.175 L895.732 290.1309 L803.3174 290.1309 Z" clip-path="url(#clipPath2)"/>
      <text x="811.1367" xml:space="preserve" y="279.1881" clip-path="url(#clipPath2)" font-family="sans-serif" stroke="none">B 인가앱 서비스</text>
    </g>
    <g stroke-linecap="butt" transform="matrix(1,0,0,1,-325,-244)" fill="blue" text-rendering="geometricPrecision" shape-rendering="geometricPrecision" stroke="blue" stroke-miterlimit="1.45">
      <path fill="none" d="M375.9977 363.6916 L409.5263 363.6916 L467.276 363.6916 L467.276 370.3747" clip-path="url(#clipPath2)"/>
      <path d="M467.276 378.3747 L472.276 366.3747 L467.276 369.3747 L462.276 366.3747 Z" clip-path="url(#clipPath2)" stroke="none"/>
      <path fill="none" d="M375.3787 362.8805 L596.507 362.8805 L596.507 370.3197" clip-path="url(#clipPath2)"/>
      <path d="M596.507 378.3197 L601.507 366.3197 L596.507 369.3197 L591.507 366.3197 Z" clip-path="url(#clipPath2)" stroke="none"/>
      <path fill="none" stroke-dasharray="6,2" d="M374.1723 452.7946 L485.007 452.7946 L485.007 417.3314" clip-path="url(#clipPath2)" stroke="red"/>
      <path fill="red" stroke-dasharray="6,2" d="M485.007 409.3314 L480.007 421.3314 L485.007 418.3314 L490.007 421.3314 Z" clip-path="url(#clipPath2)" stroke="none"/>
      <path fill="none" stroke-dasharray="6,2" d="M501.9417 298.1035 L501.9417 370.3608" clip-path="url(#clipPath2)" stroke="black"/>
      <path fill="black" stroke-dasharray="6,2" d="M501.9417 290.1035 L496.9417 302.1035 L501.9417 299.1035 L506.9417 302.1035 Z" clip-path="url(#clipPath2)" stroke="none"/>
      <path fill="black" stroke-dasharray="6,2" d="M501.9417 378.3608 L506.9417 366.3608 L501.9417 369.3608 L496.9417 366.3608 Z" clip-path="url(#clipPath2)" stroke="none"/>
      <path fill="none" stroke-dasharray="6,2" d="M795.3328 274.653 L617.5171 274.653 L617.5171 370.3838" clip-path="url(#clipPath2)" stroke="black"/>
      <path fill="black" stroke-dasharray="6,2" d="M803.3328 274.653 L791.3328 269.653 L794.3328 274.653 L791.3328 279.653 Z" clip-path="url(#clipPath2)" stroke="none"/>
      <path fill="black" stroke-dasharray="6,2" d="M617.5171 378.3838 L622.5171 366.3838 L617.5171 369.3838 L612.5171 366.3838 Z" clip-path="url(#clipPath2)" stroke="none"/>
    </g>
    <g fill="rgb(245,245,245)" text-rendering="geometricPrecision" shape-rendering="geometricPrecision" transform="matrix(1,0,0,1,-325,-244)" stroke="rgb(245,245,245)">
      <rect x="898.9005" y="323.3437" clip-path="url(#clipPath2)" width="274.8672" rx="4" ry="4" height="117.54" stroke="none"/>
      <rect x="898.9005" y="323.3437" clip-path="url(#clipPath2)" fill="rgb(235,235,235)" width="274.8672" height="21.666" stroke="none"/>
    </g>
    <g font-size="15px" stroke-linecap="butt" transform="matrix(1,0,0,1,-325,-244)" text-rendering="geometricPrecision" font-family="sans-serif" shape-rendering="geometricPrecision" stroke-miterlimit="1.45">
      <text x="980.7835" xml:space="preserve" y="339.8457" clip-path="url(#clipPath2)" stroke="none">User X's Mobile</text>
      <rect x="898.9005" y="323.3437" clip-path="url(#clipPath2)" fill="none" width="274.8672" stroke-dasharray="6,2" rx="4" ry="4" height="117.54"/>
    </g>
    <g fill="url(#linearGradient6)" text-rendering="geometricPrecision" shape-rendering="geometricPrecision" transform="matrix(1,0,0,1,-325,-244)" stroke="url(#linearGradient6)">
      <path d="M929.196 371.9012 L1021.6105 371.9012 L1021.6105 402.8571 L929.196 402.8571 Z" stroke="none" clip-path="url(#clipPath2)"/>
    </g>
    <g text-rendering="geometricPrecision" stroke-miterlimit="1.45" shape-rendering="geometricPrecision" transform="matrix(1,0,0,1,-325,-244)" stroke-linecap="butt">
      <path fill="none" d="M929.196 371.9012 L1021.6105 371.9012 L1021.6105 402.8571 L929.196 402.8571 Z" clip-path="url(#clipPath2)"/>
      <text x="958.3613" xml:space="preserve" y="391.9143" clip-path="url(#clipPath2)" font-family="sans-serif" stroke="none">B App</text>
    </g>
    <g fill="url(#linearGradient7)" text-rendering="geometricPrecision" shape-rendering="geometricPrecision" transform="matrix(1,0,0,1,-325,-244)" stroke="url(#linearGradient7)">
      <path d="M1051.6105 371.9012 L1144.025 371.9012 L1144.025 402.8571 L1051.6105 402.8571 Z" stroke="none" clip-path="url(#clipPath2)"/>
    </g>
    <g text-rendering="geometricPrecision" stroke-miterlimit="1.45" shape-rendering="geometricPrecision" transform="matrix(1,0,0,1,-325,-244)" stroke-linecap="butt">
      <path fill="none" d="M1051.6105 371.9012 L1144.025 371.9012 L1144.025 402.8571 L1051.6105 402.8571 Z" clip-path="url(#clipPath2)"/>
      <text x="1080.0756" xml:space="preserve" y="391.9143" clip-path="url(#clipPath2)" font-family="sans-serif" stroke="none">C App</text>
    </g>
    <g text-rendering="geometricPrecision" stroke-miterlimit="1.45" stroke-dasharray="6,2" shape-rendering="geometricPrecision" transform="matrix(1,0,0,1,-325,-244)" stroke-linecap="butt">
      <path fill="none" d="M975.4033 363.8848 L975.4033 274.653 L903.715 274.653" clip-path="url(#clipPath2)"/>
      <path d="M975.4033 371.8848 L980.4033 359.8848 L975.4033 362.8848 L970.4033 359.8848 Z" clip-path="url(#clipPath2)" stroke="none"/>
      <path d="M895.715 274.653 L907.715 279.653 L904.715 274.653 L907.715 269.653 Z" clip-path="url(#clipPath2)" stroke="none"/>
    </g>
    <g fill="rgb(245,245,245)" text-rendering="geometricPrecision" shape-rendering="geometricPrecision" transform="matrix(1,0,0,1,-325,-244)" stroke="rgb(245,245,245)">
      <rect x="645.6547" y="520.1468" clip-path="url(#clipPath2)" width="407.74" rx="4" ry="4" height="128.2544" stroke="none"/>
      <rect x="645.6547" y="520.1468" clip-path="url(#clipPath2)" fill="rgb(235,235,235)" width="407.74" height="21.666" stroke="none"/>
    </g>
    <g font-size="15px" stroke-linecap="butt" transform="matrix(1,0,0,1,-325,-244)" text-rendering="geometricPrecision" font-family="sans-serif" shape-rendering="geometricPrecision" stroke-miterlimit="1.45">
      <text x="803.9351" xml:space="preserve" y="536.6487" clip-path="url(#clipPath2)" stroke="none">Cloud Wallet</text>
      <rect x="645.6547" y="520.1468" clip-path="url(#clipPath2)" fill="none" width="407.74" stroke-dasharray="6,2" rx="4" ry="4" height="128.2544"/>
    </g>
    <g fill="url(#linearGradient8)" text-rendering="geometricPrecision" shape-rendering="geometricPrecision" transform="matrix(1,0,0,1,-325,-244)" stroke="url(#linearGradient8)">
      <path d="M674.6547 586.5287 L767.0692 586.5287 L767.0692 617.4846 L674.6547 617.4846 Z" stroke="none" clip-path="url(#clipPath2)"/>
    </g>
    <g text-rendering="geometricPrecision" stroke-miterlimit="1.45" shape-rendering="geometricPrecision" transform="matrix(1,0,0,1,-325,-244)" stroke-linecap="butt">
      <path fill="none" d="M674.6547 586.5287 L767.0692 586.5287 L767.0692 617.4846 L674.6547 617.4846 Z" clip-path="url(#clipPath2)"/>
      <text x="697.3776" xml:space="preserve" y="599.4754" clip-path="url(#clipPath2)" font-family="sans-serif" stroke="none">User A's</text>
      <text x="703.36" xml:space="preserve" y="613.6082" clip-path="url(#clipPath2)" font-family="sans-serif" stroke="none">Wallet</text>
    </g>
    <g fill="url(#linearGradient9)" text-rendering="geometricPrecision" shape-rendering="geometricPrecision" transform="matrix(1,0,0,1,-325,-244)" stroke="url(#linearGradient9)">
      <path d="M790.2301 586.5287 L882.6447 586.5287 L882.6447 617.4846 L790.2301 617.4846 Z" stroke="none" clip-path="url(#clipPath2)"/>
    </g>
    <g text-rendering="geometricPrecision" stroke-miterlimit="1.45" shape-rendering="geometricPrecision" transform="matrix(1,0,0,1,-325,-244)" stroke-linecap="butt">
      <path fill="none" d="M790.2301 586.5287 L882.6447 586.5287 L882.6447 617.4846 L790.2301 617.4846 Z" clip-path="url(#clipPath2)"/>
      <text x="813.6415" xml:space="preserve" y="599.4754" clip-path="url(#clipPath2)" font-family="sans-serif" stroke="none">User B's</text>
      <text x="818.9354" xml:space="preserve" y="613.6082" clip-path="url(#clipPath2)" font-family="sans-serif" stroke="none">Wallet</text>
    </g>
    <g fill="url(#linearGradient10)" text-rendering="geometricPrecision" shape-rendering="geometricPrecision" transform="matrix(1,0,0,1,-325,-244)" stroke="url(#linearGradient10)">
      <path d="M938.9131 586.5287 L1031.3278 586.5287 L1031.3278 617.4846 L938.9131 617.4846 Z" stroke="none" clip-path="url(#clipPath2)"/>
    </g>
    <g text-rendering="geometricPrecision" stroke-miterlimit="1.45" shape-rendering="geometricPrecision" transform="matrix(1,0,0,1,-325,-244)" stroke-linecap="butt">
      <path fill="none" d="M938.9131 586.5287 L1031.3278 586.5287 L1031.3278 617.4846 L938.9131 617.4846 Z" clip-path="url(#clipPath2)"/>
      <text x="948.4291" xml:space="preserve" y="606.5418" clip-path="url(#clipPath2)" font-family="sans-serif" stroke="none">User X's App</text>
    </g>
    <g font-size="18px" stroke-linecap="butt" transform="matrix(1,0,0,1,-325,-244)" text-rendering="geometricPrecision" font-family="sans-serif" shape-rendering="geometricPrecision" stroke-miterlimit="1.45">
      <text x="902.236" xml:space="preserve" y="602.1324" clip-path="url(#clipPath2)" stroke="none">...</text>
    </g>
    <g fill="rgb(153,204,0)" text-rendering="geometricPrecision" shape-rendering="geometricPrecision" transform="matrix(1,0,0,1,-325,-244)" stroke="rgb(153,204,0)">
      <ellipse rx="10.5" ry="9.5" clip-path="url(#clipPath2)" cx="815.8204" cy="570.0204" stroke="none"/>
    </g>
    <g text-rendering="geometricPrecision" stroke-miterlimit="1.45" shape-rendering="geometricPrecision" transform="matrix(1,0,0,1,-325,-244)" stroke-linecap="butt">
      <ellipse rx="10.5" fill="none" ry="9.5" clip-path="url(#clipPath2)" cx="815.8204" cy="570.0204"/>
      <text x="806.8937" xml:space="preserve" y="574.5555" clip-path="url(#clipPath2)" font-family="sans-serif" stroke="none">WT</text>
    </g>
    <g fill="rgb(0,204,255)" text-rendering="geometricPrecision" shape-rendering="geometricPrecision" transform="matrix(1,0,0,1,-325,-244)" stroke="rgb(0,204,255)">
      <ellipse rx="10.5" ry="9.5" clip-path="url(#clipPath2)" cx="960.5643" cy="570.0204" stroke="none"/>
    </g>
    <g text-rendering="geometricPrecision" stroke-miterlimit="1.45" shape-rendering="geometricPrecision" transform="matrix(1,0,0,1,-325,-244)" stroke-linecap="butt">
      <ellipse rx="10.5" fill="none" ry="9.5" clip-path="url(#clipPath2)" cx="960.5643" cy="570.0204"/>
      <text x="951.6376" xml:space="preserve" y="574.5555" clip-path="url(#clipPath2)" font-family="sans-serif" stroke="none">WT</text>
    </g>
    <g stroke-linecap="butt" font-size="18px" transform="matrix(1,0,0,1,-325,-244)" fill="red" text-rendering="geometricPrecision" font-family="sans-serif" shape-rendering="geometricPrecision" stroke="red" font-weight="bold" stroke-miterlimit="1.45">
      <text x="405.0242" xml:space="preserve" y="459.615" clip-path="url(#clipPath2)" stroke="none">X</text>
    </g>
    <g fill="rgb(255,204,0)" text-rendering="geometricPrecision" shape-rendering="geometricPrecision" transform="matrix(1,0,0,1,-325,-244)" stroke="rgb(255,204,0)">
      <ellipse rx="10.5" ry="9.5" clip-path="url(#clipPath2)" cx="705.5108" cy="570.0204" stroke="none"/>
    </g>
    <g text-rendering="geometricPrecision" stroke-miterlimit="1.45" shape-rendering="geometricPrecision" transform="matrix(1,0,0,1,-325,-244)" stroke-linecap="butt">
      <ellipse rx="10.5" fill="none" ry="9.5" clip-path="url(#clipPath2)" cx="705.5108" cy="570.0204"/>
      <text x="696.584" xml:space="preserve" y="574.5555" clip-path="url(#clipPath2)" font-family="sans-serif" stroke="none">WT</text>
    </g>
    <g stroke-linecap="butt" font-size="18px" transform="matrix(1,0,0,1,-325,-244)" fill="red" text-rendering="geometricPrecision" font-family="sans-serif" shape-rendering="geometricPrecision" stroke="red" font-weight="bold" stroke-miterlimit="1.45">
      <text x="728.0863" xml:space="preserve" y="467.9875" clip-path="url(#clipPath2)" stroke="none">X</text>
    </g>
    <g stroke-linecap="butt" font-size="18px" transform="matrix(1,0,0,1,-325,-244)" fill="red" text-rendering="geometricPrecision" font-family="sans-serif" shape-rendering="geometricPrecision" stroke="red" font-weight="bold" stroke-miterlimit="1.45">
      <text x="1092.0991" xml:space="preserve" y="483.4495" clip-path="url(#clipPath2)" stroke="none">X</text>
    </g>
    <g fill="url(#linearGradient11)" text-rendering="geometricPrecision" shape-rendering="geometricPrecision" transform="matrix(1,0,0,1,-325,-244)" stroke="url(#linearGradient11)">
      <path d="M803.3174 699.157 L895.732 699.157 L895.732 730.1129 L803.3174 730.1129 Z" stroke="none" clip-path="url(#clipPath2)"/>
    </g>
    <g text-rendering="geometricPrecision" stroke-miterlimit="1.45" shape-rendering="geometricPrecision" transform="matrix(1,0,0,1,-325,-244)" stroke-linecap="butt">
      <path fill="none" d="M803.3174 699.157 L895.732 699.157 L895.732 730.1129 L803.3174 730.1129 Z" clip-path="url(#clipPath2)"/>
      <text x="821.6763" xml:space="preserve" y="719.1701" clip-path="url(#clipPath2)" font-family="sans-serif" stroke="none">월렛 서비스</text>
    </g>
    <g text-rendering="geometricPrecision" stroke-miterlimit="1.45" shape-rendering="geometricPrecision" transform="matrix(1,0,0,1,-325,-244)" stroke-linecap="butt">
      <path fill="none" d="M501.9417 409.346 L501.9417 494.6848 L720.8619 494.6848 L720.8619 578.5215" clip-path="url(#clipPath2)"/>
      <path d="M720.8619 586.5215 L725.8619 574.5215 L720.8619 577.5215 L715.8619 574.5215 Z" clip-path="url(#clipPath2)" stroke="none"/>
      <path fill="none" stroke-dasharray="6,2" d="M734.0892 409.3302 L734.0892 578.5655" clip-path="url(#clipPath2)" stroke="red"/>
      <path fill="red" stroke-dasharray="6,2" d="M734.0892 586.5655 L739.0892 574.5655 L734.0892 577.5655 L729.0892 574.5655 Z" clip-path="url(#clipPath2)" stroke="none"/>
      <path fill="none" d="M617.5171 409.2731 L617.5171 493.5775 L836.4374 493.5775 L836.4374 578.5206" clip-path="url(#clipPath2)"/>
      <path d="M836.4374 586.5206 L841.4374 574.5206 L836.4374 577.5206 L831.4374 574.5206 Z" clip-path="url(#clipPath2)" stroke="none"/>
      <path fill="none" d="M975.4033 402.835 L975.4033 578.4826" clip-path="url(#clipPath2)"/>
      <path d="M975.4033 586.4826 L980.4033 574.4826 L975.4033 577.4826 L970.4033 574.4826 Z" clip-path="url(#clipPath2)" stroke="none"/>
      <path fill="none" stroke-dasharray="6,2" d="M1097.8177 402.8364 L1097.8177 504.4086 L997.2574 504.4086 L997.2574 578.5186" clip-path="url(#clipPath2)" stroke="red"/>
      <path fill="red" stroke-dasharray="6,2" d="M997.2574 586.5186 L1002.2574 574.5186 L997.2574 577.5186 L992.2574 574.5186 Z" clip-path="url(#clipPath2)" stroke="none"/>
      <path fill="none" stroke-dasharray="6,2" d="M849.5247 656.4042 L849.5247 691.1445" clip-path="url(#clipPath2)"/>
      <path stroke-dasharray="6,2" d="M849.5247 648.4042 L844.5247 660.4042 L849.5247 657.4042 L854.5247 660.4042 Z" clip-path="url(#clipPath2)" stroke="none"/>
      <path stroke-dasharray="6,2" d="M849.5247 699.1445 L854.5247 687.1445 L849.5247 690.1445 L844.5247 687.1445 Z" clip-path="url(#clipPath2)" stroke="none"/>
    </g>
  </g>
</svg>
