<?xml version="1.0" encoding="UTF-8"?><svg xmlns="http://www.w3.org/2000/svg" xmlns:xlink="http://www.w3.org/1999/xlink" fill-opacity="1" color-rendering="auto" color-interpolation="auto" text-rendering="auto" stroke="black" stroke-linecap="square" width="931" stroke-miterlimit="10" shape-rendering="auto" stroke-opacity="1" fill="black" stroke-dasharray="none" font-weight="normal" stroke-width="1" height="770" font-family="'Dialog'" font-style="normal" stroke-linejoin="miter" font-size="12px" stroke-dashoffset="0" image-rendering="auto">
  <!--Generated by ySVG 2.6-->
  <defs id="genericDefs"/>
  <g>
    <defs id="defs1">
      <clipPath clipPathUnits="userSpaceOnUse" id="clipPath1">
        <path d="M0 0 L931 0 L931 770 L0 770 L0 0 Z"/>
      </clipPath>
      <clipPath clipPathUnits="userSpaceOnUse" id="clipPath2">
        <path d="M435 -87 L1366 -87 L1366 683 L435 683 L435 -87 Z"/>
      </clipPath>
      <clipPath clipPathUnits="userSpaceOnUse" id="clipPath3">
        <path d="M-463.308 -12.56 L469.5588 -12.56 L469.5588 736.5128 L-463.308 736.5128 L-463.308 -12.56 Z"/>
      </clipPath>
    </defs>
    <g fill="white" text-rendering="geometricPrecision" shape-rendering="geometricPrecision" transform="translate(-435,87)" stroke="white">
      <rect x="435" width="931" height="770" y="-87" clip-path="url(#clipPath2)" stroke="none"/>
    </g>
    <g fill="silver" text-rendering="geometricPrecision" shape-rendering="geometricPrecision" transform="matrix(1,0,0,1,-435,87)" stroke="silver">
      <rect x="655.9194" width="528.5285" height="61.1" y="9.2563" clip-path="url(#clipPath2)" stroke="none"/>
    </g>
    <g text-rendering="geometricPrecision" stroke-miterlimit="1.45" shape-rendering="geometricPrecision" transform="matrix(1,0,0,1,-435,87)" stroke-linecap="butt">
      <rect fill="none" x="655.9194" width="528.5285" height="61.1" y="9.2563" clip-path="url(#clipPath2)"/>
    </g>
    <g fill="white" text-rendering="geometricPrecision" shape-rendering="geometricPrecision" transform="matrix(1,0,0,1,-435,87)" stroke="white">
      <rect x="450.9194" width="899.6561" height="566.956" y="100.3563" clip-path="url(#clipPath2)" stroke="none"/>
      <rect x="450.9194" y="100.3563" clip-path="url(#clipPath2)" fill="rgb(235,235,235)" width="899.6561" height="21.666" stroke="none"/>
    </g>
    <g font-size="15px" stroke-linecap="butt" transform="matrix(1,0,0,1,-435,87)" text-rendering="geometricPrecision" font-family="sans-serif" shape-rendering="geometricPrecision" stroke-miterlimit="1.45">
      <text x="854.6049" xml:space="preserve" y="116.8583" clip-path="url(#clipPath2)" stroke="none">Open Source</text>
      <rect fill="none" x="450.9194" width="899.6561" height="566.956" y="100.3563" clip-path="url(#clipPath2)"/>
    </g>
    <g fill="rgb(235,235,235)" text-rendering="geometricPrecision" shape-rendering="geometricPrecision" transform="matrix(1,0,0,1,-435,87)" stroke="rgb(235,235,235)">
      <rect x="465.9194" width="869.6561" height="515.29" y="137.0223" clip-path="url(#clipPath2)" stroke="none"/>
      <rect x="465.9194" width="869.6561" height="21.666" y="137.0223" clip-path="url(#clipPath2)" stroke="none"/>
    </g>
    <g font-size="15px" stroke-linecap="butt" transform="matrix(1,0,0,1,-435,87)" text-rendering="geometricPrecision" font-family="sans-serif" shape-rendering="geometricPrecision" stroke-miterlimit="1.45">
      <text x="859.578" xml:space="preserve" y="153.5243" clip-path="url(#clipPath2)" stroke="none">Application</text>
      <rect fill="none" x="465.9194" width="869.6561" height="515.29" y="137.0223" clip-path="url(#clipPath2)"/>
    </g>
    <g fill="silver" text-rendering="geometricPrecision" shape-rendering="geometricPrecision" transform="matrix(1,0,0,1,-435,87)" stroke="silver">
      <rect x="957.1804" width="363.3951" height="308.159" y="298.1533" clip-path="url(#clipPath2)" stroke="none"/>
    </g>
    <g text-rendering="geometricPrecision" stroke-miterlimit="1.45" shape-rendering="geometricPrecision" transform="matrix(1,0,0,1,-435,87)" stroke-linecap="butt">
      <rect fill="none" x="957.1804" width="363.3951" height="308.159" y="298.1533" clip-path="url(#clipPath2)"/>
    </g>
    <g fill="silver" text-rendering="geometricPrecision" shape-rendering="geometricPrecision" transform="matrix(1,0,0,1,-435,87)" stroke="silver">
      <rect x="480.9194" width="445.8365" height="308.159" y="298.1533" clip-path="url(#clipPath2)" stroke="none"/>
    </g>
    <g text-rendering="geometricPrecision" stroke-miterlimit="1.45" shape-rendering="geometricPrecision" transform="matrix(1,0,0,1,-435,87)" stroke-linecap="butt">
      <rect fill="none" x="480.9194" width="445.8365" height="308.159" y="298.1533" clip-path="url(#clipPath2)"/>
    </g>
    <g fill="silver" text-rendering="geometricPrecision" shape-rendering="geometricPrecision" transform="matrix(1,0,0,1,-435,87)" stroke="silver">
      <rect x="485.9194" width="807.9874" height="61.1" y="189.162" clip-path="url(#clipPath2)" stroke="none"/>
    </g>
    <g text-rendering="geometricPrecision" stroke-miterlimit="1.45" shape-rendering="geometricPrecision" transform="matrix(1,0,0,1,-435,87)" stroke-linecap="butt">
      <rect fill="none" x="485.9194" width="807.9874" height="61.1" y="189.162" clip-path="url(#clipPath2)"/>
      <text x="872.083" xml:space="preserve" y="224.2472" clip-path="url(#clipPath2)" font-family="sans-serif" stroke="none">&lt;CA&gt;</text>
    </g>
    <g fill="silver" text-rendering="geometricPrecision" shape-rendering="geometricPrecision" transform="matrix(1,0,0,1,-435,87)" stroke="silver">
      <rect x="1034.8994" width="207.9571" height="48.159" y="195.6325" clip-path="url(#clipPath2)" stroke="none"/>
    </g>
    <g text-rendering="geometricPrecision" stroke-miterlimit="1.45" shape-rendering="geometricPrecision" transform="matrix(1,0,0,1,-435,87)" stroke-linecap="butt">
      <rect fill="none" x="1034.8994" width="207.9571" height="48.159" y="195.6325" clip-path="url(#clipPath2)"/>
      <text x="1107.5068" xml:space="preserve" y="217.1808" clip-path="url(#clipPath2)" font-family="sans-serif" stroke="none">&lt;CA SDK&gt;</text>
      <text x="1081.4443" xml:space="preserve" y="231.3136" clip-path="url(#clipPath2)" font-family="sans-serif" stroke="none">network, urlscheme</text>
    </g>
    <g fill="silver" text-rendering="geometricPrecision" shape-rendering="geometricPrecision" transform="matrix(1,0,0,1,-435,87)" stroke="silver">
      <rect x="491.8388" width="280.9171" height="275.9473" y="310.7883" clip-path="url(#clipPath2)" stroke="none"/>
    </g>
    <g text-rendering="geometricPrecision" stroke-miterlimit="1.45" shape-rendering="geometricPrecision" transform="matrix(1,0,0,1,-435,87)" stroke-linecap="butt">
      <rect fill="none" x="491.8388" width="280.9171" height="275.9473" y="310.7883" clip-path="url(#clipPath2)"/>
      <text x="582.5307" xml:space="preserve" y="333.1683" clip-path="url(#clipPath2)" font-family="sans-serif" stroke="none">&lt;WalletAPI SDK&gt;</text>
      <text x="630.3989" xml:space="preserve" y="347.3011" clip-path="url(#clipPath2)" font-family="sans-serif" stroke="none"> </text>
      <text x="630.3989" xml:space="preserve" y="361.4339" clip-path="url(#clipPath2)" font-family="sans-serif" stroke="none"> </text>
      <text x="630.3989" xml:space="preserve" y="375.5667" clip-path="url(#clipPath2)" font-family="sans-serif" stroke="none"> </text>
      <text x="630.3989" xml:space="preserve" y="389.6995" clip-path="url(#clipPath2)" font-family="sans-serif" stroke="none"> </text>
      <text x="630.3989" xml:space="preserve" y="403.8323" clip-path="url(#clipPath2)" font-family="sans-serif" stroke="none"> </text>
      <text x="630.3989" xml:space="preserve" y="417.9651" clip-path="url(#clipPath2)" font-family="sans-serif" stroke="none"> </text>
      <text x="630.3989" xml:space="preserve" y="432.098" clip-path="url(#clipPath2)" font-family="sans-serif" stroke="none"> </text>
      <text x="630.3989" xml:space="preserve" y="446.2308" clip-path="url(#clipPath2)" font-family="sans-serif" stroke="none"> </text>
      <text x="630.3989" xml:space="preserve" y="460.3636" clip-path="url(#clipPath2)" font-family="sans-serif" stroke="none"> </text>
      <text x="630.3989" xml:space="preserve" y="474.4964" clip-path="url(#clipPath2)" font-family="sans-serif" stroke="none"> </text>
      <text x="630.3989" xml:space="preserve" y="488.6292" clip-path="url(#clipPath2)" font-family="sans-serif" stroke="none"> </text>
      <text x="630.3989" xml:space="preserve" y="502.762" clip-path="url(#clipPath2)" font-family="sans-serif" stroke="none"> </text>
      <text x="630.3989" xml:space="preserve" y="516.8948" clip-path="url(#clipPath2)" font-family="sans-serif" stroke="none"> </text>
      <text x="630.3989" xml:space="preserve" y="531.0276" clip-path="url(#clipPath2)" font-family="sans-serif" stroke="none"> </text>
      <text x="630.3989" xml:space="preserve" y="545.1605" clip-path="url(#clipPath2)" font-family="sans-serif" stroke="none"> </text>
      <text x="630.3989" xml:space="preserve" y="559.2933" clip-path="url(#clipPath2)" font-family="sans-serif" stroke="none"> </text>
      <text x="630.3989" xml:space="preserve" y="573.4261" clip-path="url(#clipPath2)" font-family="sans-serif" stroke="none"> </text>
    </g>
    <g fill="silver" text-rendering="geometricPrecision" shape-rendering="geometricPrecision" transform="matrix(1,0,0,1,-435,87)" stroke="silver">
      <rect x="491.8388" width="280.9171" height="234.159" y="352.5767" clip-path="url(#clipPath2)" stroke="none"/>
    </g>
    <g text-rendering="geometricPrecision" stroke-miterlimit="1.45" shape-rendering="geometricPrecision" transform="matrix(1,0,0,1,-435,87)" stroke-linecap="butt">
      <rect fill="none" x="491.8388" width="280.9171" height="234.159" y="352.5767" clip-path="url(#clipPath2)"/>
    </g>
    <g fill="silver" text-rendering="geometricPrecision" shape-rendering="geometricPrecision" transform="matrix(1,0,0,1,-435,87)" stroke="silver">
      <rect x="504.8388" width="252.8365" height="34.159" y="368.7357" clip-path="url(#clipPath2)" stroke="none"/>
    </g>
    <g text-rendering="geometricPrecision" stroke-miterlimit="1.45" shape-rendering="geometricPrecision" transform="matrix(1,0,0,1,-435,87)" stroke-linecap="butt">
      <rect fill="none" x="504.8388" width="252.8365" height="34.159" y="368.7357" clip-path="url(#clipPath2)"/>
      <text x="591.5715" xml:space="preserve" y="390.3503" clip-path="url(#clipPath2)" font-family="sans-serif" stroke="none">Wallet Service</text>
    </g>
    <g fill="silver" text-rendering="geometricPrecision" shape-rendering="geometricPrecision" transform="matrix(1,0,0,1,-435,87)" stroke="silver">
      <rect x="504.8388" width="252.8365" height="34.159" y="412.683" clip-path="url(#clipPath2)" stroke="none"/>
    </g>
    <g text-rendering="geometricPrecision" stroke-miterlimit="1.45" shape-rendering="geometricPrecision" transform="matrix(1,0,0,1,-435,87)" stroke-linecap="butt">
      <rect fill="none" x="504.8388" width="252.8365" height="34.159" y="412.683" clip-path="url(#clipPath2)"/>
      <text x="598.2219" xml:space="preserve" y="434.2977" clip-path="url(#clipPath2)" font-family="sans-serif" stroke="none">Wallet Core</text>
    </g>
    <g fill="silver" text-rendering="geometricPrecision" shape-rendering="geometricPrecision" transform="matrix(1,0,0,1,-435,87)" stroke="silver">
      <rect x="504.8388" width="252.8365" height="34.159" y="496.183" clip-path="url(#clipPath2)" stroke="none"/>
    </g>
    <g text-rendering="geometricPrecision" stroke-miterlimit="1.45" shape-rendering="geometricPrecision" transform="matrix(1,0,0,1,-435,87)" stroke-linecap="butt">
      <rect fill="none" x="504.8388" width="252.8365" height="34.159" y="496.183" clip-path="url(#clipPath2)"/>
      <text x="593.8039" xml:space="preserve" y="517.7977" clip-path="url(#clipPath2)" font-family="sans-serif" stroke="none">Wallet Token</text>
    </g>
    <g fill="silver" text-rendering="geometricPrecision" shape-rendering="geometricPrecision" transform="matrix(1,0,0,1,-435,87)" stroke="silver">
      <rect x="504.8388" width="252.8365" height="34.159" y="539.7894" clip-path="url(#clipPath2)" stroke="none"/>
    </g>
    <g text-rendering="geometricPrecision" stroke-miterlimit="1.45" shape-rendering="geometricPrecision" transform="matrix(1,0,0,1,-435,87)" stroke-linecap="butt">
      <rect fill="none" x="504.8388" width="252.8365" height="34.159" y="539.7894" clip-path="url(#clipPath2)"/>
      <text x="560.9328" xml:space="preserve" y="561.4041" clip-path="url(#clipPath2)" font-family="sans-serif" stroke="none">ETC (msg-TAS, DB, B/C)</text>
    </g>
    <g fill="silver" text-rendering="geometricPrecision" shape-rendering="geometricPrecision" transform="matrix(1,0,0,1,-435,87)" stroke="silver">
      <rect x="800.6752" width="109.9171" height="275.9473" y="310.7883" clip-path="url(#clipPath2)" stroke="none"/>
    </g>
    <g text-rendering="geometricPrecision" stroke-miterlimit="1.45" shape-rendering="geometricPrecision" transform="matrix(1,0,0,1,-435,87)" stroke-linecap="butt">
      <rect fill="none" x="800.6752" width="109.9171" height="275.9473" y="310.7883" clip-path="url(#clipPath2)"/>
      <text x="799.5186" xml:space="preserve" y="446.2308" clip-path="url(#clipPath2)" font-family="sans-serif" stroke="none">&lt;Core Wallet SDK&gt;</text>
      <text x="807.8184" xml:space="preserve" y="460.3636" clip-path="url(#clipPath2)" font-family="sans-serif" stroke="none">DID, VC, VP, Key</text>
    </g>
    <g fill="silver" text-rendering="geometricPrecision" shape-rendering="geometricPrecision" transform="matrix(1,0,0,1,-435,87)" stroke="silver">
      <rect x="964.0191" width="96.9171" height="275.9473" y="310.7883" clip-path="url(#clipPath2)" stroke="none"/>
    </g>
    <g text-rendering="geometricPrecision" stroke-miterlimit="1.45" shape-rendering="geometricPrecision" transform="matrix(1,0,0,1,-435,87)" stroke-linecap="butt">
      <rect fill="none" x="964.0191" width="96.9171" height="275.9473" y="310.7883" clip-path="url(#clipPath2)"/>
      <text x="974.1486" xml:space="preserve" y="439.1644" clip-path="url(#clipPath2)" font-family="sans-serif" stroke="none">&lt;Utlity SDK&gt;</text>
      <text x="992.2101" xml:space="preserve" y="453.2972" clip-path="url(#clipPath2)" font-family="sans-serif" stroke="none">crypto,</text>
      <text x="983.9484" xml:space="preserve" y="467.43" clip-path="url(#clipPath2)" font-family="sans-serif" stroke="none">multibase</text>
    </g>
    <g fill="silver" text-rendering="geometricPrecision" shape-rendering="geometricPrecision" transform="matrix(1,0,0,1,-435,87)" stroke="silver">
      <rect x="1074.5308" width="109.9171" height="275.9473" y="310.7883" clip-path="url(#clipPath2)" stroke="none"/>
    </g>
    <g text-rendering="geometricPrecision" stroke-miterlimit="1.45" shape-rendering="geometricPrecision" transform="matrix(1,0,0,1,-435,87)" stroke-linecap="butt">
      <rect fill="none" x="1074.5308" width="109.9171" height="275.9473" y="310.7883" clip-path="url(#clipPath2)"/>
      <text x="1060.4132" xml:space="preserve" y="425.0316" clip-path="url(#clipPath2)" font-family="sans-serif" stroke="none">&lt;Communication SDK&gt;</text>
      <text x="1113.0187" xml:space="preserve" y="439.1644" clip-path="url(#clipPath2)" font-family="sans-serif" stroke="none">Http, </text>
      <text x="1106.6085" xml:space="preserve" y="453.2972" clip-path="url(#clipPath2)" font-family="sans-serif" stroke="none">Socket, </text>
      <text x="1113.8917" xml:space="preserve" y="467.43" clip-path="url(#clipPath2)" font-family="sans-serif" stroke="none">NFC, </text>
      <text x="1119.587" xml:space="preserve" y="481.5628" clip-path="url(#clipPath2)" font-family="sans-serif" stroke="none">BLE</text>
    </g>
    <g fill="silver" text-rendering="geometricPrecision" shape-rendering="geometricPrecision" transform="matrix(1,0,0,1,-435,87)" stroke="silver">
      <rect x="1198.0425" width="109.9171" height="275.9473" y="310.7883" clip-path="url(#clipPath2)" stroke="none"/>
    </g>
    <g text-rendering="geometricPrecision" stroke-miterlimit="1.45" shape-rendering="geometricPrecision" transform="matrix(1,0,0,1,-435,87)" stroke-linecap="butt">
      <rect fill="none" x="1198.0425" width="109.9171" height="275.9473" y="310.7883" clip-path="url(#clipPath2)"/>
      <text x="1198.8486" xml:space="preserve" y="446.2308" clip-path="url(#clipPath2)" font-family="sans-serif" stroke="none">&lt;DataModel SDK&gt;</text>
      <text x="1224.5713" xml:space="preserve" y="460.3636" clip-path="url(#clipPath2)" font-family="sans-serif" stroke="none">VO object</text>
    </g>
    <g fill="silver" text-rendering="geometricPrecision" shape-rendering="geometricPrecision" transform="matrix(1,0,0,1,-435,87)" stroke="silver">
      <rect x="504.8388" width="252.8365" height="34.159" y="452.5767" clip-path="url(#clipPath2)" stroke="none"/>
    </g>
    <g text-rendering="geometricPrecision" stroke-miterlimit="1.45" shape-rendering="geometricPrecision" transform="matrix(1,0,0,1,-435,87)" stroke-linecap="butt">
      <rect fill="none" x="504.8388" width="252.8365" height="34.159" y="452.5767" clip-path="url(#clipPath2)"/>
      <text x="590.8361" xml:space="preserve" y="474.1913" clip-path="url(#clipPath2)" font-family="sans-serif" stroke="none">Lock Manager</text>
    </g>
    <g fill="silver" text-rendering="geometricPrecision" shape-rendering="geometricPrecision" transform="matrix(1,0,0,1,-435,87)" stroke="silver">
      <rect x="864.2018" width="122.9171" height="34.159" y="22.7268" clip-path="url(#clipPath2)" stroke="none"/>
    </g>
    <g text-rendering="geometricPrecision" stroke-miterlimit="1.45" shape-rendering="geometricPrecision" transform="matrix(1,0,0,1,-435,87)" stroke-linecap="butt">
      <rect fill="none" x="864.2018" width="122.9171" height="34.159" y="22.7268" clip-path="url(#clipPath2)"/>
      <text x="900.7697" xml:space="preserve" y="44.3415" clip-path="url(#clipPath2)" font-family="sans-serif" stroke="none">issue VC</text>
    </g>
    <g fill="silver" text-rendering="geometricPrecision" shape-rendering="geometricPrecision" transform="matrix(1,0,0,1,-435,87)" stroke="silver">
      <rect x="1026.0574" width="122.9171" height="34.159" y="22.7268" clip-path="url(#clipPath2)" stroke="none"/>
    </g>
    <g text-rendering="geometricPrecision" stroke-miterlimit="1.45" shape-rendering="geometricPrecision" transform="matrix(1,0,0,1,-435,87)" stroke-linecap="butt">
      <rect fill="none" x="1026.0574" width="122.9171" height="34.159" y="22.7268" clip-path="url(#clipPath2)"/>
      <text x="1058.2395" xml:space="preserve" y="44.3415" clip-path="url(#clipPath2)" font-family="sans-serif" stroke="none">submit VP</text>
    </g>
    <g fill="silver" text-rendering="geometricPrecision" shape-rendering="geometricPrecision" transform="matrix(1,0,0,1,-435,87)" stroke="silver">
      <rect x="702.3463" width="122.9171" height="34.159" y="22.7268" clip-path="url(#clipPath2)" stroke="none"/>
    </g>
    <g text-rendering="geometricPrecision" stroke-miterlimit="1.45" shape-rendering="geometricPrecision" transform="matrix(1,0,0,1,-435,87)" stroke-linecap="butt">
      <rect fill="none" x="702.3463" width="122.9171" height="34.159" y="22.7268" clip-path="url(#clipPath2)"/>
      <text x="739.3536" xml:space="preserve" y="44.3415" clip-path="url(#clipPath2)" font-family="sans-serif" stroke="none">reg User</text>
    </g>
    <g text-rendering="geometricPrecision" shape-rendering="geometricPrecision" transform="matrix(0.998,0,0,1.0279,462.3809,12.9109)">
      <g clip-path="url(#clipPath3)">
        <svg xml:space="preserve" opacity="1" writing-mode="lr-tb" stop-color="rgb(0, 0, 0)" shape-rendering="auto" glyph-orientation-horizontal="0deg" color-profile="auto" lighting-color="rgb(255, 255, 255)" color="rgb(0, 0, 0)" font-weight="400" alignment-baseline="auto" font-style="normal" version="1.1" color-interpolation-filters="linearrgb" text-anchor="start" stroke-linecap="butt" color-interpolation="srgb" font-variant="normal" word-spacing="normal" fill-opacity="1" text-rendering="auto" clip-path="none" text-decoration="none" letter-spacing="normal" viewBox="0 0 57 65" glyph-orientation-vertical="auto" display="inline" font-size-adjust="none" overflow="hidden" fill="rgb(0, 0, 0)" font-stretch="normal" stroke-dasharray="none" id="svg1.Ebene_1" stroke-miterlimit="4" stop-opacity="1" color-rendering="auto" font-size="12" pointer-events="visiblepainted" mask="none" direction="ltr" baseline-shift="baseline" enable-background="new 0 0 57 65" fill-rule="nonzero" image-rendering="auto" stroke-dashoffset="0" width="57px" marker-end="none" clip="auto" cursor="auto" stroke="none" filter="none" visibility="visible" kerning="auto" stroke-width="1" font-family="&quot;Arial&quot;,&quot;Helvetica&quot;,sans-serif" flood-opacity="1" clip-rule="nonzero" src="none" height="65px" unicode-bidi="normal" stroke-linejoin="miter" stroke-opacity="1" flood-color="rgb(0, 0, 0)" dominant-baseline="auto" marker-start="none" x="0px" marker-mid="none" y="0px">
<g>
	
		<radialGradient gradientTransform="matrix(1 0 0 -1 0.2803 -2253.9199)" gradientUnits="userSpaceOnUse" r="11.4448" cx="27.8696" id="svg1.neck_x5F_white_1_" cy="-2299.3257" fx="25.6369" fy="-2300.5422">
		<stop offset="0" style="stop-color:#B38E5D"/>
		<stop offset="1" style="stop-color:#805126"/>
	</radialGradient>
	<path fill="url(#svg1.neck_x5F_white_1_)" id="svg1.neck_x5F_white_2_" d="M19.278,37.799h18.188   v13.23c-1.313,0.371-17.173,0.436-18.188,0.172V37.799z" stroke-miterlimit="10" stroke="#5B453B"/>
	
		<radialGradient gradientTransform="matrix(1 0 0 -1 0.2803 -2253.9199)" gradientUnits="userSpaceOnUse" r="31.0537" cx="27.3228" id="svg1.SVGID_1_" cy="-2307.6812" fx="21.2648" fy="-2310.9819">
		<stop offset="0" style="stop-color:#B38E5D"/>
		<stop offset="1" style="stop-color:#805126"/>
	</radialGradient>
	<path fill="url(#svg1.SVGID_1_)" d="M49.529,51.225c-4.396-4.396-10.951-5.884-12.063-6.109   V37.8H19.278c0,0,0.038,6.903,0,6.868c0,0-6.874,0.997-12.308,6.432C1.378,56.691,0.5,62.77,0.5,62.77   c0,1.938,1.575,3.492,3.523,3.492h48.51c1.947,0,3.521-1.558,3.521-3.492C56.055,62.768,54.211,55.906,49.529,51.225z" stroke-miterlimit="10" stroke="#5B453B"/>
	
		<linearGradient gradientTransform="matrix(1 0 0 1 0.2402 -2319.0742)" x1="59.7656" x2="-3.673" gradientUnits="userSpaceOnUse" y1="2374.7451" y2="2374.7451" id="svg1.body_1_">
		<stop offset="0" style="stop-color:#49AD33"/>
		<stop offset="1" style="stop-color:#C2DA92"/>
	</linearGradient>
	<path fill="url(#svg1.body_1_)" d="M0.5,62.768c0,1.938,1.575,3.494,3.523,3.494h48.51   c1.947,0,3.521-1.559,3.521-3.494c0,0-1.844-6.861-6.525-11.543c-4.815-4.813-11.244-6.146-11.244-6.146   c-1.771,1.655-5.61,3.802-10.063,3.802c-4.453,0-8.292-2.146-10.063-3.802c0,0-5.755,0.586-11.189,6.021   C1.378,56.689,0.5,62.768,0.5,62.768z" id="svg1.body_12_" stroke="#008D33"/>
	<path fill="#2068A3" d="M28.106,33.486c-8.112,0-12.688,4.313-12.688,10.438c0,7.422,12.688,10.438,12.688,10.438   s14.688-3.016,14.688-10.438C42.793,38.75,36.215,33.486,28.106,33.486z M26.288,53.051c0,0-7.135-2.093-8.805-7.201   c-0.222-0.682,0.147-1.156,0.795-1.521V37.8h20.188v6.663c0.235,0.352,1.109,0.737,1.229,1.387   C40.445,49.917,26.288,53.051,26.288,53.051z" stroke="#2068A3"/>
	<path fill="#5491CF" d="M49.529,51.225c-2.239-2.24-5.041-3.724-7.396-4.67   c-2.854,5.51-14.022,7.807-14.022,7.807s-10.472-2.484-12.387-8.514c-2.439,0.771-5.787,2.287-8.749,5.25   c-5.592,5.592-6.47,11.67-6.47,11.67c0,1.938,1.575,3.492,3.523,3.492h48.51c1.947,0,3.521-1.558,3.521-3.492   C56.055,62.768,54.211,55.906,49.529,51.225z" stroke-miterlimit="10" stroke="#2068A3"/>
	<path fill="#5491CF" d="M13.404,44.173c1.15-1.81,2.039-3.832,3.332-5.397c-0.514,1.027-1.669,4.084-1.669,5.148   c0,5.186,10.366,9.079,14.688,10.438c-3.472,1.627-9.134-1.498-11.335-2.36c-3.601-1.419-4.071-3.063-5.89-4.854   C12.523,47.135,12.878,45,13.404,44.173z" stroke="#2068A3"/>
	<path fill="#5491CF" d="M45.777,43.924c-1.317-1.568-5.11-9.424-6.604-6.617c0.516,1.025,3.617,3.693,3.617,6.617   c0,5.186-10.27,8.576-16.698,9.145c1.429,4.938,11.372,1.293,13.804-0.313c3.563-2.354,4.563-5.133,7.854-3.705   C47.754,49.045,48.006,46.574,45.777,43.924z" stroke="#2068A3"/>
	<path fill="none" d="M30.777,54.167c0.357,0.836-0.153,1.983-0.352,2.813   c-0.256,1.084-0.072,2.104,0.102,3.186c0.164,1.02,0.156,2.107,0.25,3.167c0.082,0.916,0.482,1.849,0.357,2.75" stroke="#2068A3" stroke-linecap="round"/>
	<path fill="none" d="M23.695,53.417c-0.508,0.584-0.476,2.209-0.398,3   c0.116,1.183,0.456,2.099,0.333,3.333c-0.192,1.943,0.154,4.479-0.436,6.333" stroke="#2068A3" stroke-linecap="round"/>
	
		<radialGradient gradientTransform="matrix(1 0 0 -1 0.2803 -2253.9199)" gradientUnits="userSpaceOnUse" r="23.425" cx="27.623" id="svg1.face_x5F_white_1_" cy="-2279.646" fx="23.0534" fy="-2282.1357">
		<stop offset="0" style="stop-color:#B38E5D"/>
		<stop offset="1" style="stop-color:#805126"/>
	</radialGradient>
	<path fill="url(#svg1.face_x5F_white_1_)" id="svg1.face_x5F_white_2_" d="M43.676,23.357   c0.086,10.2-6.738,18.52-15.25,18.586c-8.5,0.068-15.464-8.146-15.55-18.344C12.794,13.4,19.618,5.079,28.123,5.012   C36.627,4.945,43.59,13.158,43.676,23.357z" stroke-miterlimit="10" stroke="#5B453B"/>
	
		<linearGradient gradientTransform="matrix(0.275 0 0 0.2733 -1558.9874 -3088.7842)" x1="5761.7578" x2="5785.3872" gradientUnits="userSpaceOnUse" y1="11331.9785" y2="11425.4277" id="svg1.face_highlight_1_">
		<stop offset="0" style="stop-color:#FFFFFF;stop-opacity:0.42"/>
		<stop offset="1" style="stop-color:#FFFFFF;stop-opacity:0.12"/>
	</linearGradient>
	<path fill="url(#svg1.face_highlight_1_)" id="svg1.face_highlight_2_" d="M27.958,6.333c-6.035,0.047-10.747,4.493-12.787,10.386   c-0.664,1.919-0.294,4.043,0.98,5.629c2.73,3.398,5.729,6.283,9.461,8.088c3.137,1.518,7.535,2.385,11.893,1.247   c2.274-0.592,3.988-2.459,4.375-4.766c0.187-1.094,0.293-2.289,0.283-3.553C42.083,13.952,36.271,6.268,27.958,6.333z"/>
	<path fill="#4B4B4B" d="M20.278,13.25   c3.417,4.333,9.333,6.917,9.333,6.917l-1.417-3.5c0,0,7.094,4.691,8.083,4.333c0.968-0.2-1.082-3.807-1.082-3.807   s3.138,1.795,4.854,3.969c1.803,2.28,4.285,3.504,4.285,3.504S47.027,2.719,27.289,2.744C8.278,2.709,12.058,27.678,12.058,27.678   L14.695,17c0,0,0.914,5.757,1.399,4.875C17.861,15.211,18.861,11.5,20.278,13.25z" id="svg1.Hair_Young_Black_1_" stroke="#000000" stroke-linecap="round" stroke-linejoin="round"/>
</g>
</svg>
      </g>
    </g>
    <g stroke-linecap="butt" transform="matrix(1,0,0,1,-435,87)" fill="blue" text-rendering="geometricPrecision" shape-rendering="geometricPrecision" stroke="blue" stroke-miterlimit="1.45">
      <path fill="none" d="M692.2928 614.2997 L692.2928 626.3124 L941.3875 626.3124 L941.3875 452.2328 L949.1926 452.2328" clip-path="url(#clipPath2)"/>
      <path d="M692.2928 606.2997 L687.2928 618.2997 L692.2928 615.2997 L697.2928 618.2997 Z" clip-path="url(#clipPath2)" stroke="none"/>
      <path d="M957.1926 452.2328 L945.1926 447.2328 L948.1926 452.2328 L945.1926 457.2328 Z" clip-path="url(#clipPath2)" stroke="none"/>
      <text x="764.5716" y="619.7811" clip-path="url(#clipPath2)" fill="black" font-family="sans-serif" stroke="none" xml:space="preserve">3. HTTP,VO,Utility</text>
      <path fill="none" d="M934.5466 78.3304 L934.5466 85.3563 L967.9131 85.3563 L967.9131 162.162 L889.9131 162.162 L889.9131 181.1586" clip-path="url(#clipPath2)" stroke="rgb(51,102,255)"/>
      <path fill="rgb(51,102,255)" d="M934.5466 70.3304 L929.5466 82.3304 L934.5466 79.3304 L939.5466 82.3304 Z" clip-path="url(#clipPath2)" stroke="none"/>
      <path fill="rgb(51,102,255)" d="M889.9131 189.1586 L894.9131 177.1586 L889.9131 180.1586 L884.9131 177.1586 Z" clip-path="url(#clipPath2)" stroke="none"/>
      <path fill="none" d="M1138.8779 258.2628 L1138.8779 259.5 L1138.8779 290.1411" clip-path="url(#clipPath2)" stroke="rgb(51,102,255)"/>
      <path fill="rgb(51,102,255)" d="M1138.8779 250.2628 L1133.8779 262.2628 L1138.8779 259.2628 L1143.8779 262.2628 Z" clip-path="url(#clipPath2)" stroke="none"/>
      <path fill="rgb(51,102,255)" d="M1138.8779 298.1411 L1143.8779 286.1411 L1138.8779 289.1411 L1133.8779 286.1411 Z" clip-path="url(#clipPath2)" stroke="none"/>
      <text x="1030.3408" y="278.7993" clip-path="url(#clipPath2)" fill="black" font-family="sans-serif" stroke="none" xml:space="preserve">4. HTTP,VO,Utility</text>
      <path fill="none" d="M888.1338 258.2636 L888.1338 278.1534 L631.257 278.1534 L631.257 302.7735" clip-path="url(#clipPath2)" stroke="rgb(51,102,255)"/>
      <path fill="rgb(51,102,255)" d="M888.1338 250.2636 L883.1338 262.2636 L888.1338 259.2636 L893.1338 262.2636 Z" clip-path="url(#clipPath2)" stroke="none"/>
      <path fill="rgb(51,102,255)" d="M631.257 310.7735 L636.257 298.7735 L631.257 301.7735 L626.257 298.7735 Z" clip-path="url(#clipPath2)" stroke="none"/>
      <text x="575.2774" y="271.6221" clip-path="url(#clipPath2)" fill="black" font-family="sans-serif" stroke="none" xml:space="preserve">1. VC,DID,VP,Token,BindUser,CreateWallet,Lock,DidAuth, ECDH</text>
      <path fill="none" d="M780.7823 452.2328 L792.6556 452.2328" clip-path="url(#clipPath2)" stroke="rgb(51,102,255)"/>
      <path fill="rgb(51,102,255)" d="M772.7823 452.2328 L784.7823 457.2328 L781.7823 452.2328 L784.7823 447.2328 Z" clip-path="url(#clipPath2)" stroke="none"/>
      <path fill="rgb(51,102,255)" d="M800.6556 452.2328 L788.6556 447.2328 L791.6556 452.2328 L788.6556 457.2328 Z" clip-path="url(#clipPath2)" stroke="none"/>
      <text x="766.8317" y="389.1703" clip-path="url(#clipPath2)" fill="black" font-family="sans-serif" stroke="none" xml:space="preserve">2. Key,</text>
      <text x="774.1003" y="403.3032" clip-path="url(#clipPath2)" fill="black" font-family="sans-serif" stroke="none" xml:space="preserve">DID,</text>
      <text x="776.7429" y="417.436" clip-path="url(#clipPath2)" fill="black" font-family="sans-serif" stroke="none" xml:space="preserve">VC,</text>
      <text x="777.5778" y="431.5688" clip-path="url(#clipPath2)" fill="black" font-family="sans-serif" stroke="none" xml:space="preserve">VP,</text>
      <text x="771.3669" y="445.7016" clip-path="url(#clipPath2)" fill="black" font-family="sans-serif" stroke="none" xml:space="preserve">Proof</text>
    </g>
  </g>
</svg>
